<?xml version="1.0" encoding="UTF-8" standalone="no"?>
<!-- Created with Inkscape (http://www.inkscape.org/) -->

<svg
   xmlns:dc="http://purl.org/dc/elements/1.1/"
   xmlns:cc="http://creativecommons.org/ns#"
   xmlns:rdf="http://www.w3.org/1999/02/22-rdf-syntax-ns#"
   xmlns:svg="http://www.w3.org/2000/svg"
   xmlns="http://www.w3.org/2000/svg"
   xmlns:sodipodi="http://sodipodi.sourceforge.net/DTD/sodipodi-0.dtd"
   xmlns:inkscape="http://www.inkscape.org/namespaces/inkscape"
   version="1.1"
   id="svg101440"
   xml:space="preserve"
   width="800"
   height="600"
   viewBox="0 0 800 600"
   sodipodi:docname="banking.svg"
   inkscape:version="0.92.3 (2405546, 2018-03-11)"><metadata
     id="metadata101446"><rdf:RDF><cc:Work
         rdf:about=""><dc:format>image/svg+xml</dc:format><dc:type
           rdf:resource="http://purl.org/dc/dcmitype/StillImage" /><dc:title></dc:title></cc:Work></rdf:RDF></metadata><defs
     id="defs101444"><clipPath
       clipPathUnits="userSpaceOnUse"
       id="clipPath101912"><path
         d="m 5617.11,912.68 -498.56,287.85 c -19.39,11.19 -35.11,41.22 -35.11,67.07 v 1193.1 c 0,25.85 15.72,37.73 35.11,26.54 l 498.56,-287.85 c 19.4,-11.2 35.11,-41.23 35.11,-67.08 V 939.219 c 0,-25.86 -15.71,-37.731 -35.11,-26.539 z"
         id="path101910"
         inkscape:connector-curvature="0" /></clipPath><linearGradient
       x1="0"
       y1="0"
       x2="1"
       y2="0"
       gradientUnits="userSpaceOnUse"
       gradientTransform="matrix(0,1286.71,965.031,-557.161,5367.83,1056.6)"
       spreadMethod="pad"
       id="linearGradient101918"><stop
         style="stop-opacity:1;stop-color:#2e2971"
         offset="0"
         id="stop101914" /><stop
         style="stop-opacity:1;stop-color:#5346a5"
         offset="1"
         id="stop101916" /></linearGradient><clipPath
       clipPathUnits="userSpaceOnUse"
       id="clipPath101934"><path
         d="m 5016.97,656.391 -435.84,251.64 c -16.96,9.789 -30.7,36.039 -30.7,58.641 V 2074.71 c 0,22.6 13.74,32.99 30.7,23.21 l 435.84,-251.65 c 16.95,-9.78 30.69,-36.03 30.69,-58.63 V 679.602 c 0,-22.602 -13.74,-32.993 -30.69,-23.211"
         id="path101932"
         inkscape:connector-curvature="0" /></clipPath><linearGradient
       x1="0"
       y1="0"
       x2="1"
       y2="0"
       gradientUnits="userSpaceOnUse"
       gradientTransform="matrix(484.929,-133.459,109.886,-710.014,4531.22,1450.86)"
       spreadMethod="pad"
       id="linearGradient101940"><stop
         style="stop-opacity:1;stop-color:#423a9c"
         offset="0"
         id="stop101936" /><stop
         style="stop-opacity:1;stop-color:#5746a5"
         offset="1"
         id="stop101938" /></linearGradient><linearGradient
       x1="0"
       y1="0"
       x2="1"
       y2="0"
       gradientUnits="userSpaceOnUse"
       gradientTransform="matrix(484.929,-133.459,109.886,-710.014,4531.22,1450.86)"
       spreadMethod="pad"
       id="linearGradient101948"><stop
         style="stop-opacity:1;stop-color:#423a9c"
         offset="0"
         id="stop101944" /><stop
         style="stop-opacity:1;stop-color:#5746a5"
         offset="1"
         id="stop101946" /></linearGradient><clipPath
       clipPathUnits="userSpaceOnUse"
       id="clipPath101984"><path
         d="m 5008.1,1664.78 c -0.02,0.01 -0.04,0.02 -0.07,0.04 0.03,-0.02 0.05,-0.03 0.07,-0.04 m -0.11,0.06 c -0.04,0.02 -0.08,0.04 -0.11,0.07 l -339.74,196.15 c -9.59,5.54 -17.37,20.39 -17.37,33.18 v 0 c 0,-12.79 7.78,-27.64 17.37,-33.18 l 339.74,-196.15 c 0.03,-0.03 0.07,-0.05 0.11,-0.07 m -357.22,267.94 c 0.03,9.42 4.3,15.06 10.4,15.11 -6.1,-0.05 -10.37,-5.69 -10.4,-15.11 m 17.81,12.77 -0.44,0.26 0.44,-0.26 v 0 m -7.29,2.34 c -0.01,0 -0.03,0 -0.04,0 v 0 c 0.01,0 0.03,0 0.04,0"
         id="path101982"
         inkscape:connector-curvature="0" /></clipPath></defs><sodipodi:namedview
     pagecolor="#ffffff"
     bordercolor="#666666"
     borderopacity="1"
     objecttolerance="10"
     gridtolerance="10"
     guidetolerance="10"
     inkscape:pageopacity="0"
     inkscape:pageshadow="2"
     inkscape:window-width="1366"
     inkscape:window-height="705"
     id="namedview101442"
     showgrid="false"
     inkscape:zoom="0.78666667"
     inkscape:cx="532.77496"
     inkscape:cy="291.04125"
     inkscape:window-x="0"
     inkscape:window-y="30"
     inkscape:window-maximized="1"
     inkscape:current-layer="g101450" /><g
     id="g101448"
     inkscape:groupmode="layer"
     inkscape:label="ink_ext_XXXXXX"
     transform="matrix(1.3333333,0,0,-1.3333333,0,600)"><g
       id="g101450"
       transform="scale(0.1)"><path
         d="m 2138.4951,2775.2249 c -51.62,0 -103.25,10.37 -142.64,31.11 -78.77,41.5 -78.78,108.76 0,150.25 39.39,20.74 91.01,31.12 142.63,31.12 51.62,0 103.25,-10.38 142.64,-31.12 78.77,-41.49 78.77,-108.75 0,-150.25 -39.39,-20.74 -91.01,-31.11 -142.63,-31.11"
         style="fill:#899abf;fill-opacity:1;fill-rule:nonzero;stroke:none"
         id="path101452"
         inkscape:connector-curvature="0" /><path
         d="m 2367.9651,2972.3249 v 58.78 h -12.16 c -10.92,17.16 -29.11,33.31 -55.04,46.97 -89.63,47.2 -234.93,47.2 -324.54,0 -25.94,-13.66 -44.14,-29.81 -55.05,-46.97 h -12.15 v -58.47 h 0.01 c -0.15,-31.03 22.22,-62.1 67.19,-85.78 89.61,-47.2 234.92,-47.2 324.54,0 44.81,23.6 67.21,54.54 67.2,85.47"
         style="fill:#ee1696;fill-opacity:1;fill-rule:nonzero;stroke:none"
         id="path101454"
         inkscape:connector-curvature="0" /><path
         d="m 2300.7651,2945.6349 c -89.62,-47.2 -234.93,-47.2 -324.54,0 -89.62,47.21 -89.62,123.73 0,170.94 89.61,47.2 234.91,47.2 324.54,-0.01 89.62,-47.2 89.62,-123.73 0,-170.93"
         style="fill:#ee1696;fill-opacity:1;fill-rule:nonzero;stroke:none"
         id="path101456"
         inkscape:connector-curvature="0" /><path
         d="m 2300.7651,2945.6349 c -89.62,-47.2 -234.93,-47.2 -324.54,0 -42.95,22.63 -65.08,51.98 -66.87,81.62 -1.93,-32.2 20.2,-64.73 66.87,-89.31 89.61,-47.2 234.92,-47.2 324.54,0 46.67,24.58 68.79,57.1 66.86,89.31 -1.79,-29.64 -23.91,-58.99 -66.86,-81.62"
         style="fill:#ffffff;fill-opacity:1;fill-rule:nonzero;stroke:none"
         id="path101458"
         inkscape:connector-curvature="0" /><path
         d="m 2027.8851,2991.0849 c -3.86,2.03 -6.06,4.8 -6.05,7.71 l 0.23,78.75 c 0.01,6 9.28,10.87 20.69,10.86 11.4,0 20.61,-4.88 20.61,-10.89 l -0.19,-65.31 207.74,23.22 c 11.17,1.24 22.13,-2.51 24.49,-8.39 2.38,-5.88 -4.76,-11.65 -15.91,-12.9 l -232.72,-26 c -6.1,-0.68 -12.46,0.13 -17.3,2.2 l -1.59,0.75"
         style="fill:#ffffff;fill-opacity:1;fill-rule:nonzero;stroke:none"
         id="path101460"
         inkscape:connector-curvature="0" /><path
         d="m 2288.1951,1362.5039 c -26.8,0 -52.4,5.429 -71.51,16.492 l -773.44,447.889 c -42.02,24.34 -36.68,66.73 11.9,94.7 l 44.42,25.56 694.62,-402.25 c 25.7,-14.88 60.13,-22.18 96.2,-22.18 42.45,0 87.16,10.12 122.5,29.88 0.01,0.01 0.02,0.01 0.03,0.02 0.12,0.07 0.24,0.13 0.37,0.21 0.03,0.01 0.06,0.03 0.08,0.04 0.11,0.06 0.21,0.12 0.32,0.18 0.04,0.03 0.09,0.05 0.13,0.07 0.09,0.06 0.18,0.11 0.27,0.16 0.07,0.04 0.14,0.08 0.21,0.12 0.07,0.04 0.13,0.07 0.2,0.11 0.14,0.08 0.27,0.16 0.41,0.24 l 1060.55,610.35 v -148.52 l -1094.7,-630.009 c -26.51,-15.25 -60.4,-23.062 -92.56,-23.062"
         style="fill:#899abf;fill-opacity:1;fill-rule:nonzero;stroke:none"
         id="path101462"
         inkscape:connector-curvature="0" /><path
         d="m 2194.1851,1544.8949 -804.93,466.13 c -26.44,15.31 -38.77,35.97 -37.89,57.44 l -0.18,-0.06 0.33,116.8 44.76,-52.44 c 2.9,1.92 5.82,3.83 9,5.66 l 1646.65,947.65 c 65.37,37.62 164.19,41.58 220.71,8.84 l 793.63,-459.58 c 16.07,17.59 49.75,54.72 49.75,54.72 l -0.38,-114.25 -0.02,0.02 c 1.19,-25.77 -17.15,-53.2 -54.06,-74.44 l -1646.65,-947.64 c -65.37,-37.63 -164.19,-41.59 -220.72,-8.85"
         style="fill:#5f92d3;fill-opacity:1;fill-rule:nonzero;stroke:none"
         id="path101464"
         inkscape:connector-curvature="0" /><path
         d="m 1758.9251,1830.8549 46.36,-26.76 c 6.16,-3.56 11.15,0.21 11.15,8.43 0,8.2 -4.99,17.74 -11.15,21.29 l -46.36,26.77 c -6.15,3.56 -11.14,-0.22 -11.14,-8.43 0,-8.21 4.99,-17.75 11.14,-21.3"
         style="fill:#263c7a;fill-opacity:1;fill-rule:nonzero;stroke:none"
         id="path101466"
         inkscape:connector-curvature="0" /><path
         d="m 3051.9251,3086.0749 c 65.37,37.62 164.2,41.58 220.72,8.84 l 793.62,-459.58 c 16.07,17.59 49.75,54.72 49.75,54.72 l -0.38,-114.25 -0.02,0.02 c 1.19,-25.77 -17.15,-53.2 -54.06,-74.44 l -1646.65,-947.64 c -34.11,-19.63 -77.29,-30 -118.84,-30.88 l 1.56,1129.11 754.3,434.1"
         style="fill:#4067b1;fill-opacity:1;fill-rule:nonzero;stroke:none"
         id="path101468"
         inkscape:connector-curvature="0" /><path
         d="m 4077.9151,2746.2149 -804.94,466.13 c -56.52,32.73 -155.34,28.78 -220.71,-8.84 l -1646.65,-947.64 c -65.37,-37.63 -72.55,-94.67 -16.03,-127.41 l 804.95,-466.13 c 56.52,-32.73 155.34,-28.78 220.71,8.84 l 1646.65,947.64 c 65.37,37.63 72.55,94.67 16.02,127.41"
         style="fill:#d9effb;fill-opacity:1;fill-rule:nonzero;stroke:none"
         id="path101470"
         inkscape:connector-curvature="0" /><path
         d="m 2193.9151,1649.8649 -804.93,466.12 c -29.15,16.89 -41.23,40.24 -37.26,64.06 1.44,-19.35 13.84,-37.67 37.86,-51.59 l 804.95,-466.13 c 56.52,-32.74 155.34,-28.78 220.71,8.84 l 1646.65,947.64 c 31.66,18.23 49.53,41 53.27,63.36 1.92,-26.15 -16.31,-54.19 -53.89,-75.82 l -1646.65,-947.64 c -65.37,-37.63 -164.19,-41.59 -220.71,-8.84"
         style="fill:#ffffff;fill-opacity:1;fill-rule:nonzero;stroke:none"
         id="path101472"
         inkscape:connector-curvature="0" /><path
         d="m 4015.9151,2727.8449 -773.46,447.9 c -42.01,24.33 -115.45,21.38 -164.05,-6.57 l -1623.26,-934.19 c -48.58,-27.96 -53.92,-70.36 -11.9,-94.7 l 773.44,-447.89 c 42.02,-24.34 115.47,-21.4 164.07,6.57 l 1623.25,934.19 c 48.59,27.96 53.92,70.36 11.91,94.69"
         style="fill:#263c7a;fill-opacity:1;fill-rule:nonzero;stroke:none"
         id="path101474"
         inkscape:connector-curvature="0" /><path
         d="m 2411.5251,1925.0249 -545.79,315.1 34.84,20.12 545.78,-315.12 -34.83,-20.1"
         style="fill:#d9effb;fill-opacity:1;fill-rule:nonzero;stroke:none"
         id="path101476"
         inkscape:connector-curvature="0" /><path
         d="m 2031.7751,2016.8849 -276.36,159.55 34.84,20.12 276.36,-159.55 -34.84,-20.12"
         style="fill:#d9effb;fill-opacity:1;fill-rule:nonzero;stroke:none"
         id="path101478"
         inkscape:connector-curvature="0" /><path
         d="m 2165.8851,1939.4549 -89.63,51.75 34.84,20.11 89.63,-51.74 -34.84,-20.12"
         style="fill:#ee1696;fill-opacity:1;fill-rule:nonzero;stroke:none"
         id="path101480"
         inkscape:connector-curvature="0" /><path
         d="m 2301.2151,1861.3249 -89.63,51.75 34.83,20.11 89.63,-51.75 -34.83,-20.11"
         style="fill:#ffffff;fill-opacity:1;fill-rule:nonzero;stroke:none"
         id="path101482"
         inkscape:connector-curvature="0" /><path
         d="m 2034.8651,2078.7849 -224.29,129.5 34.84,20.11 224.29,-129.49 -34.84,-20.12"
         style="fill:#ffffff;fill-opacity:1;fill-rule:nonzero;stroke:none"
         id="path101484"
         inkscape:connector-curvature="0" /><path
         d="m 2308.6551,1920.7249 -224.29,129.49 34.83,20.12 224.29,-129.5 -34.83,-20.11"
         style="fill:#d9effb;fill-opacity:1;fill-rule:nonzero;stroke:none"
         id="path101486"
         inkscape:connector-curvature="0" /><path
         d="m 2142.5951,2197.5249 c -11.22,-6.48 -29.41,-6.48 -40.63,0 -11.23,6.48 -11.23,16.99 -0.01,23.47 11.23,6.48 29.42,6.48 40.64,0 11.23,-6.48 11.23,-16.99 0,-23.47"
         style="fill:#ee1696;fill-opacity:1;fill-rule:nonzero;stroke:none"
         id="path101488"
         inkscape:connector-curvature="0" /><path
         d="m 2203.3251,2162.4649 c -11.22,-6.48 -29.42,-6.48 -40.64,0 -11.22,6.48 -11.22,16.99 0,23.46 11.22,6.49 29.42,6.49 40.64,0 11.23,-6.47 11.23,-16.98 0,-23.46"
         style="fill:#ffffff;fill-opacity:1;fill-rule:nonzero;stroke:none"
         id="path101490"
         inkscape:connector-curvature="0" /><path
         d="m 2264.0651,2127.4049 c -11.23,-6.48 -29.43,-6.48 -40.65,0 -11.22,6.48 -11.22,16.98 0,23.46 11.22,6.48 29.42,6.48 40.65,0 11.22,-6.48 11.22,-16.98 0,-23.46"
         style="fill:#d9effb;fill-opacity:1;fill-rule:nonzero;stroke:none"
         id="path101492"
         inkscape:connector-curvature="0" /><path
         d="m 2324.7851,2092.3449 c -11.22,-6.48 -29.41,-6.48 -40.64,0 -11.23,6.47 -11.23,16.98 -0.01,23.47 11.24,6.47 29.43,6.47 40.65,0 11.23,-6.49 11.23,-17 0,-23.47"
         style="fill:#ee1696;fill-opacity:1;fill-rule:nonzero;stroke:none"
         id="path101494"
         inkscape:connector-curvature="0" /><path
         d="m 2385.5151,2057.2749 c -11.22,-6.47 -29.42,-6.47 -40.64,0 -11.22,6.49 -11.22,16.99 0,23.47 11.22,6.48 29.42,6.48 40.64,0 11.22,-6.48 11.22,-16.98 0,-23.47"
         style="fill:#ffffff;fill-opacity:1;fill-rule:nonzero;stroke:none"
         id="path101496"
         inkscape:connector-curvature="0" /><path
         d="m 3606.1951,2724.3949 -91.9,53.06 35.71,20.61 91.9,-53.05 -35.71,-20.62"
         style="fill:#ee1696;fill-opacity:1;fill-rule:nonzero;stroke:none"
         id="path101498"
         inkscape:connector-curvature="0" /><path
         d="m 3734.1451,2650.5149 -91.89,53.06 35.72,20.62 91.9,-53.06 -35.73,-20.62"
         style="fill:#ffffff;fill-opacity:1;fill-rule:nonzero;stroke:none"
         id="path101500"
         inkscape:connector-curvature="0" /><path
         d="m 3195.7351,2963.5949 -91.9,53.06 35.72,20.62 91.89,-53.05 -35.71,-20.63"
         style="fill:#ffffff;fill-opacity:1;fill-rule:nonzero;stroke:none"
         id="path101502"
         inkscape:connector-curvature="0" /><path
         d="m 3585.7051,2670.9149 -127.96,73.88 35.72,20.63 127.96,-73.88 -35.72,-20.63"
         style="fill:#ffffff;fill-opacity:1;fill-rule:nonzero;stroke:none"
         id="path101504"
         inkscape:connector-curvature="0" /><path
         d="m 3677.5951,2617.8649 -56.14,32.42 35.71,20.62 56.15,-32.42 -35.72,-20.62"
         style="fill:#d9effb;fill-opacity:1;fill-rule:nonzero;stroke:none"
         id="path101506"
         inkscape:connector-curvature="0" /><path
         d="m 3962.5851,2911.6349 -73.87,42.65 155.52,89.8 155.54,-89.8 -51.85,-29.94 -68.57,39.59 c -4.94,2.85 -9.64,4.19 -13.9,4.19 -3.21,0 -6.18,-0.76 -8.82,-2.23 l -94.05,-54.26"
         style="fill:#899abf;fill-opacity:1;fill-rule:nonzero;stroke:none"
         id="path101726"
         inkscape:connector-curvature="0" /><path
         d="m 4199.7751,3068.3049 -155.53,-89.81 v 179.59 l 155.53,89.8 v -179.58"
         style="fill:#d1078d;fill-opacity:1;fill-rule:nonzero;stroke:none"
         id="path101728"
         inkscape:connector-curvature="0" /><path
         d="m 4044.2451,3158.0849 -155.53,89.8 155.52,89.79 155.54,-89.79 -155.53,-89.8"
         style="fill:#ee1696;fill-opacity:1;fill-rule:nonzero;stroke:none"
         id="path101730"
         inkscape:connector-curvature="0" /><path
         d="m 4044.2451,2978.4949 -155.53,89.81 v 179.58 l 155.53,-89.8 v -179.59"
         style="fill:#ee1696;fill-opacity:1;fill-rule:nonzero;stroke:none"
         id="path101732"
         inkscape:connector-curvature="0" /><path
         d="m 3988.2351,3075.5149 -43.51,25.12 v 50.23 l 43.51,-25.11 v -50.24"
         style="fill:#ffffff;fill-opacity:1;fill-rule:nonzero;stroke:none"
         id="path101734"
         inkscape:connector-curvature="0" /><path
         d="m 1279.4151,2298.9549 -161.92,93.49 161.92,93.48 161.92,-93.48 -161.92,-93.49"
         style="fill:#899abf;fill-opacity:1;fill-rule:nonzero;stroke:none"
         id="path101736"
         inkscape:connector-curvature="0" /><path
         d="m 1441.3351,2511.1349 -161.92,-93.49 v 186.97 l 161.92,93.48 v -186.96"
         style="fill:#263c7a;fill-opacity:1;fill-rule:nonzero;stroke:none"
         id="path101738"
         inkscape:connector-curvature="0" /><path
         d="m 1279.4151,2604.6149 -161.92,93.48 161.92,93.48 161.92,-93.49 -161.92,-93.47"
         style="fill:#d9effb;fill-opacity:1;fill-rule:nonzero;stroke:none"
         id="path101740"
         inkscape:connector-curvature="0" /><path
         d="m 1279.4151,2417.6449 -161.92,93.49 v 186.96 l 161.92,-93.48 v -186.97"
         style="fill:#5f92d3;fill-opacity:1;fill-rule:nonzero;stroke:none"
         id="path101742"
         inkscape:connector-curvature="0" /><path
         d="m 1221.1051,2518.6549 -45.3,26.14 v 52.3 l 45.3,-26.16 v -52.28"
         style="fill:#ffffff;fill-opacity:1;fill-rule:nonzero;stroke:none"
         id="path101744"
         inkscape:connector-curvature="0" /><path
         d="m 3100.3451,2254.2949 c -146.35,-84.49 -383.62,-84.49 -529.96,0 -146.34,84.49 -146.34,221.48 -0.01,305.97 146.34,84.49 383.61,84.49 529.96,0 146.33,-84.49 146.34,-221.48 0.01,-305.97"
         style="fill:#21305f;fill-opacity:1;fill-rule:nonzero;stroke:none"
         id="path101746"
         inkscape:connector-curvature="0" /><path
         d="m 3183.8451,2545.2649 h -16.19 c -18.17,35.69 -51.63,69.34 -100.4,97.51 -155.47,89.75 -407.52,89.75 -562.98,0 -48.78,-28.15 -82.22,-61.82 -100.4,-97.51 h -16.19 v -65.01 c 0,-58.82 38.87,-117.64 116.6,-162.51 155.46,-89.76 407.52,-89.77 562.97,-0.01 77.73,44.88 116.6,103.7 116.59,162.52 v 65.01"
         style="fill:#f5ba1b;fill-opacity:1;fill-rule:nonzero;stroke:none"
         id="path101748"
         inkscape:connector-curvature="0" /><path
         d="m 2699.4351,2704.5849 c -71.52,-9.13 -139.53,-29.69 -195.16,-61.81 -48.78,-28.15 -82.22,-61.82 -100.4,-97.51 h -16.19 v -65.01 c 0,-58.82 38.87,-117.64 116.6,-162.51 55.63,-32.12 123.63,-52.68 195.15,-61.81 v 448.65"
         style="fill:#fad644;fill-opacity:1;fill-rule:nonzero;stroke:none"
         id="path101750"
         inkscape:connector-curvature="0" /><path
         d="m 3068.3351,2318.3849 c 77,44.81 115.52,103.33 115.51,161.87 v 65.01 h -16.19 c -15.49,30.43 -42.2,59.33 -79.92,84.66 h -19.4 v -311.54"
         style="fill:#e59c13;fill-opacity:1;fill-rule:nonzero;stroke:none"
         id="path101752"
         inkscape:connector-curvature="0" /><path
         d="m 3146.0951,2382.4749 v 53.14 c 6.63,8.16 12.39,16.5 17.27,24.97 v -53.09 c -4.9,-8.49 -10.61,-16.85 -17.27,-25.02"
         style="fill:#e59c13;fill-opacity:1;fill-rule:nonzero;stroke:none"
         id="path101754"
         inkscape:connector-curvature="0" /><path
         d="m 2749.7751,2251.3649 c -0.74,0.03 -1.47,0.07 -2.21,0.11 v 0 c 0.75,-0.04 1.46,-0.08 2.21,-0.11"
         style="fill:#5a5634;fill-opacity:1;fill-rule:nonzero;stroke:none"
         id="path101756"
         inkscape:connector-curvature="0" /><path
         d="m 2797.3851,2250.5849 v 53.1 c 5.77,0.09 11.51,0.26 17.27,0.5 v -53.09 c -5.75,-0.24 -11.51,-0.42 -17.27,-0.51 m -32.55,0.18 c -5.03,0.15 -10.05,0.34 -15.06,0.6 -0.75,0.03 -1.46,0.07 -2.21,0.11 v 53.16 c 5.75,-0.32 11.5,-0.56 17.27,-0.74 v -53.13 m 82.36,2.44 v 53.11 c 5.78,0.52 11.54,1.11 17.28,1.78 v -53.12 c -5.75,-0.68 -11.5,-1.25 -17.28,-1.77 m -132.18,0.92 c -5.77,0.59 -11.53,1.28 -17.26,2.02 v 0.01 c 0.56,-0.07 1.12,-0.15 1.68,-0.22 v 53.09 c 5.17,-0.66 10.38,-1.26 15.58,-1.8 v -53.1 m 182.01,5.44 v 53.13 c 5.79,0.97 11.54,2.02 17.26,3.14 v -53.12 c -5.72,-1.12 -11.47,-2.19 -17.26,-3.15 m 49.81,10.51 v 53.09 c 5.8,1.48 11.57,3.05 17.27,4.7 v -53.09 c -5.71,-1.65 -11.46,-3.22 -17.27,-4.7 m -331.45,2.44 c -3.79,1.04 -7.56,2.11 -11.31,3.22 3.75,-1.11 7.52,-2.18 11.31,-3.22 v 0 m 381.26,12.83 v 53.08 c 5.84,2.1 11.59,4.3 17.27,6.6 v -53.07 c -5.67,-2.31 -11.44,-4.5 -17.27,-6.61 m 49.82,21.3 v 53.07 c 5.88,2.94 11.62,6 17.26,9.17 v -53.08 c -5.63,-3.18 -11.39,-6.22 -17.26,-9.16"
         style="fill:#efad0e;fill-opacity:1;fill-rule:nonzero;stroke:none"
         id="path101758"
         inkscape:connector-curvature="0" /><path
         d="m 2504.7951,2317.4549 c -0.17,0.1 -0.34,0.19 -0.51,0.29 v 0 0 0 c 0.17,-0.1 0.34,-0.19 0.51,-0.29"
         style="fill:#5a5634;fill-opacity:1;fill-rule:nonzero;stroke:none"
         id="path101760"
         inkscape:connector-curvature="0" /><path
         d="m 2504.8451,2317.4249 c -0.02,0.01 -0.03,0.02 -0.05,0.03 -0.17,0.1 -0.34,0.19 -0.51,0.29 0.19,-0.11 0.37,-0.21 0.56,-0.32"
         style="fill:#efad0e;fill-opacity:1;fill-rule:nonzero;stroke:none"
         id="path101762"
         inkscape:connector-curvature="0" /><path
         d="m 2699.4351,2255.9349 c -0.56,0.07 -1.12,0.15 -1.68,0.22 v 53.09 c 0.56,-0.08 1.12,-0.15 1.68,-0.22 v -53.09 m -34.23,5.31 c -5.79,1.05 -11.54,2.19 -17.27,3.4 v 53.1 c 5.72,-1.22 11.48,-2.36 17.27,-3.42 v -53.08 m -49.82,11.27 c -3.79,1.04 -7.56,2.11 -11.31,3.22 -1.99,0.59 -3.98,1.19 -5.95,1.8 v 53.12 c 5.7,-1.77 11.45,-3.44 17.26,-5.03 v -53.11 m -49.81,16.25 c -5.84,2.24 -11.59,4.6 -17.26,7.04 v 53.11 c 5.66,-2.44 11.43,-4.78 17.26,-7.02 v -53.13 m -49.81,22.68 c -3.68,1.97 -7.35,3.93 -10.92,5.98 -0.19,0.11 -0.37,0.21 -0.56,0.32 v 0 0 c -1.99,1.15 -3.85,2.35 -5.79,3.52 v 53.05 c 1.91,-1.15 3.84,-2.29 5.79,-3.42 3.77,-2.17 7.6,-4.3 11.48,-6.36 v -53.09 m -49.82,31.96 c -6.14,4.78 -11.85,9.67 -17.27,14.64 v 53.05 c 5.4,-4.95 11.15,-9.81 17.27,-14.57 v -53.12 m 49.82,32.98 c -3.88,2.07 -7.71,4.2 -11.48,6.37 -1.95,1.13 -3.89,2.27 -5.79,3.41 v 0 c 1.91,-1.14 3.84,-2.28 5.79,-3.41 3.77,-2.17 7.6,-4.3 11.48,-6.37 v 0"
         style="fill:#f2be23;fill-opacity:1;fill-rule:nonzero;stroke:none"
         id="path101764"
         inkscape:connector-curvature="0" /><path
         d="m 3096.2751,2336.4549 v 53.11 c 6.08,4.36 11.83,8.81 17.27,13.36 v -53.04 c -5.45,-4.57 -11.17,-9.05 -17.27,-13.43"
         style="fill:#e59c13;fill-opacity:1;fill-rule:nonzero;stroke:none"
         id="path101766"
         inkscape:connector-curvature="0" /><path
         d="m 2416.1251,2394.8649 c -7.06,10.21 -12.83,20.65 -17.27,31.24 v 53.31 c 4.43,-10.63 10.18,-21.12 17.27,-31.38 v -53.17"
         style="fill:#f2be23;fill-opacity:1;fill-rule:nonzero;stroke:none"
         id="path101768"
         inkscape:connector-curvature="0" /><path
         d="m 3067.2551,2382.7449 c -155.45,-89.76 -407.51,-89.75 -562.97,0.01 -155.46,89.76 -155.47,235.27 -0.01,325.03 155.46,89.75 407.51,89.75 562.98,-0.01 155.46,-89.76 155.46,-235.27 0,-325.03"
         style="fill:#fad644;fill-opacity:1;fill-rule:nonzero;stroke:none"
         id="path101770"
         inkscape:connector-curvature="0" /><path
         d="m 2519.8851,2442.6649 c -36.51,3.95 -72.26,10.87 -106.07,20.74 -10.86,16.48 -18.32,33.52 -22.39,50.79 -1.96,8.35 -3.12,16.74 -3.5,25.15 0,-0.08 0,-0.15 -0.01,-0.23 -1.45,31.08 7.95,62.29 28.21,91.58 v -33.27 0 c 0.01,-55.49 34.6,-110.97 103.76,-154.76"
         style="fill:#f9df64;fill-opacity:1;fill-rule:nonzero;stroke:none"
         id="path101772"
         inkscape:connector-curvature="0" /><path
         d="m 2785.7751,2303.5849 c -6.98,0 -13.97,0.1 -20.94,0.31 v 11.85 c 6.98,-0.21 13.97,-0.31 20.96,-0.31 3.86,0 7.72,0.03 11.59,0.09 v -11.84 c -3.87,-0.07 -7.74,-0.1 -11.61,-0.1 m 28.88,0.6 v 11.85 c 10.89,0.45 21.74,1.16 32.54,2.13 v -11.85 c -10.8,-0.96 -21.65,-1.68 -32.54,-2.13 m -67.09,0.45 c -10.9,0.61 -21.74,1.47 -32.55,2.59 v 11.85 c 10.79,-1.12 21.66,-1.98 32.55,-2.59 v -11.85 m 116.91,3.46 v 11.85 c 10.93,1.26 21.8,2.8 32.55,4.6 v -11.85 c -10.75,-1.8 -21.62,-3.33 -32.55,-4.6 m 49.81,7.74 v 11.85 c 11,2.16 21.85,4.6 32.55,7.33 v -11.85 c -10.7,-2.73 -21.55,-5.17 -32.55,-7.33 m 49.82,12.03 v 11.85 c 11.06,3.2 21.93,6.72 32.54,10.55 v -11.84 c -10.61,-3.84 -21.48,-7.36 -32.54,-10.56 m 49.81,17.16 v 11.85 c 11.17,4.52 22.05,9.42 32.55,14.68 v -11.84 c -10.5,-5.27 -21.38,-10.17 -32.55,-14.69 m 49.81,23.86 v 11.85 c 1.18,0.66 2.36,1.34 3.53,2.01 0.15,0.09 0.3,0.17 0.45,0.26 0.01,0.01 0.01,0.01 0.02,0.01 0.14,0.08 0.29,0.17 0.43,0.25 0.05,0.03 0.09,0.06 0.14,0.08 0.02,0.01 0.03,0.02 0.04,0.03 v -11.85 c -0.36,-0.21 -0.72,-0.42 -1.08,-0.63 -1.17,-0.67 -2.35,-1.34 -3.53,-2.01"
         style="fill:#fcedb4;fill-opacity:1;fill-rule:nonzero;stroke:none"
         id="path101774"
         inkscape:connector-curvature="0" /><path
         d="m 2697.7551,2309.2449 c -10.95,1.42 -21.81,3.12 -32.55,5.08 v 11.85 c 10.74,-1.96 21.6,-3.66 32.55,-5.08 v -11.85 m -49.82,8.5 c -11,2.33 -21.87,4.97 -32.55,7.88 v 11.86 c 10.68,-2.92 21.55,-5.55 32.55,-7.89 v -11.85 m -49.81,12.91 c -11.08,3.42 -21.95,7.17 -32.55,11.24 v 11.85 c 10.61,-4.07 21.45,-7.82 32.55,-11.24 v -11.85 m -49.81,18.26 c -11.22,4.82 -22.07,10.02 -32.55,15.62 v 11.85 c 10.48,-5.59 21.33,-10.79 32.55,-15.62 v -11.85 m -49.82,25.4 c -11.79,7.09 -22.64,14.51 -32.55,22.21 v 11.85 c 5.97,-4.64 12.28,-9.17 18.93,-13.59 0.03,-0.03 0.06,-0.04 0.09,-0.06 0.09,-0.06 0.19,-0.13 0.28,-0.19 0.05,-0.04 0.11,-0.08 0.17,-0.11 0.06,-0.05 0.13,-0.09 0.2,-0.13 0.08,-0.06 0.18,-0.12 0.26,-0.18 0.04,-0.02 0.08,-0.05 0.11,-0.07 0.12,-0.08 0.25,-0.16 0.37,-0.24 l 0.01,-0.01 c 3.93,-2.58 7.97,-5.12 12.13,-7.63 v -11.85 m -49.82,36.78 c -12.9,11.84 -23.76,24.21 -32.55,36.94 v 11.78 c 8.8,-12.71 19.65,-25.06 32.55,-36.88 v -11.84 m -49.82,68.32 c -8.01,19.26 -11.67,39 -10.98,58.69 0.85,-15.81 4.51,-31.57 10.98,-47.03 v -11.66"
         style="fill:#fef6c8;fill-opacity:1;fill-rule:nonzero;stroke:none"
         id="path101776"
         inkscape:connector-curvature="0" /><path
         d="m 3068.3351,2371.5249 v 11.85 c 0.09,0.05 0.17,0.1 0.26,0.15 0.07,0.04 0.12,0.07 0.19,0.11 0.08,0.05 0.17,0.1 0.25,0.15 0.07,0.04 0.14,0.08 0.21,0.12 0.08,0.04 0.15,0.09 0.24,0.14 0.06,0.03 0.14,0.08 0.21,0.12 0.07,0.04 0.15,0.09 0.23,0.13 0.08,0.05 0.15,0.1 0.24,0.15 0.06,0.03 0.13,0.07 0.19,0.11 0.09,0.05 0.18,0.11 0.26,0.16 0.06,0.03 0.12,0.06 0.18,0.1 0.1,0.06 0.2,0.12 0.3,0.18 0.04,0.02 0.08,0.04 0.12,0.07 0.11,0.07 0.21,0.12 0.32,0.19 0.04,0.02 0.07,0.04 0.11,0.07 0.12,0.06 0.24,0.14 0.35,0.2 0.03,0.02 0.05,0.03 0.08,0.05 0.12,0.07 0.24,0.14 0.36,0.22 0.02,0.01 0.04,0.02 0.07,0.03 0.13,0.09 0.26,0.16 0.39,0.24 l 0.02,0.01 c 8.24,4.96 16.04,10.08 23.36,15.33 v -11.84 c -8.66,-6.22 -17.98,-12.25 -27.94,-18.04 m 45.21,31.4 v 11.84 c 12.52,10.46 23.37,21.39 32.55,32.65 v -11.8 c -9.17,-11.28 -20.02,-22.22 -32.55,-32.69 m 49.82,57.66 v 11.75 c 5.75,9.94 10.29,20.07 13.62,30.3 1.53,1.95 3,3.91 4.43,5.88 -3.03,-16.23 -9.05,-32.3 -18.05,-47.93"
         style="fill:#f7e3a3;fill-opacity:1;fill-rule:nonzero;stroke:none"
         id="path101778"
         inkscape:connector-curvature="0" /><path
         d="m 3146.0951,2435.6149 v 11.8 c 6.63,8.15 12.39,16.46 17.27,24.92 v -11.75 c -4.88,-8.47 -10.64,-16.81 -17.27,-24.97"
         style="fill:#f7e3a3;fill-opacity:1;fill-rule:nonzero;stroke:none"
         id="path101780"
         inkscape:connector-curvature="0" /><path
         d="m 2797.3851,2303.6849 v 11.84 c 5.75,0.1 11.53,0.27 17.27,0.51 v -11.85 c -5.76,-0.24 -11.5,-0.41 -17.27,-0.5 m -32.55,0.21 c -5.77,0.18 -11.52,0.42 -17.27,0.74 v 11.85 c 5.75,-0.32 11.5,-0.56 17.27,-0.74 v -11.85 m 82.36,2.42 v 11.85 c 5.78,0.52 11.54,1.11 17.28,1.78 v -11.85 c -5.74,-0.67 -11.5,-1.26 -17.28,-1.78 m -132.18,0.91 c -5.2,0.54 -10.41,1.14 -15.58,1.8 v 11.85 c 5.18,-0.66 10.37,-1.26 15.58,-1.8 v -11.85 m 182.01,5.47 v 11.85 c 5.79,0.97 11.54,2.01 17.26,3.14 v -11.85 c -5.72,-1.12 -11.47,-2.17 -17.26,-3.14 m 49.81,10.47 v 11.85 c 5.8,1.48 11.57,3.05 17.27,4.7 v -11.85 c -5.7,-1.65 -11.47,-3.22 -17.27,-4.7 m 49.81,15.26 v 11.84 c 5.84,2.11 11.59,4.31 17.27,6.61 v -11.85 c -5.68,-2.3 -11.43,-4.5 -17.27,-6.6 m 49.82,21.29 v 11.84 c 5.88,2.95 11.62,6 17.26,9.18 v -11.85 c -5.64,-3.17 -11.38,-6.23 -17.26,-9.17"
         style="fill:#f9e8ae;fill-opacity:1;fill-rule:nonzero;stroke:none"
         id="path101782"
         inkscape:connector-curvature="0" /><path
         d="m 2699.4351,2309.0249 c -0.56,0.07 -1.12,0.14 -1.68,0.22 v 11.85 c 0.56,-0.08 1.12,-0.15 1.68,-0.22 v -11.85 m -34.23,5.3 c -5.79,1.06 -11.55,2.2 -17.27,3.42 v 11.85 c 5.72,-1.22 11.48,-2.36 17.27,-3.42 v -11.85 m -49.82,11.3 c -5.81,1.59 -11.56,3.26 -17.26,5.03 v 11.85 c 5.69,-1.76 11.46,-3.44 17.26,-5.02 v -11.86 m -49.81,16.27 c -5.83,2.24 -11.6,4.58 -17.26,7.02 v 11.85 c 5.66,-2.43 11.43,-4.78 17.26,-7.02 v -11.85 m -49.81,22.64 c -3.88,2.06 -7.71,4.19 -11.48,6.36 -1.95,1.13 -3.88,2.27 -5.79,3.42 v 11.85 c 1.9,-1.14 3.84,-2.28 5.79,-3.41 3.77,-2.17 7.6,-4.3 11.48,-6.37 v -11.85 m -49.82,31.99 c -6.12,4.76 -11.87,9.62 -17.27,14.57 v 11.84 c 5.4,-4.95 11.15,-9.81 17.27,-14.56 v -11.85"
         style="fill:#fbefb9;fill-opacity:1;fill-rule:nonzero;stroke:none"
         id="path101784"
         inkscape:connector-curvature="0" /><path
         d="m 3096.2751,2389.5649 v 11.84 c 6.08,4.37 11.82,8.81 17.27,13.36 v -11.84 c -5.44,-4.55 -11.19,-9 -17.27,-13.36"
         style="fill:#f7e3a3;fill-opacity:1;fill-rule:nonzero;stroke:none"
         id="path101786"
         inkscape:connector-curvature="0" /><path
         d="m 2416.1251,2448.0349 c -7.09,10.26 -12.84,20.75 -17.27,31.38 v 11.66 c 4.44,-10.6 10.19,-21.05 17.27,-31.26 v -11.78"
         style="fill:#fbefb9;fill-opacity:1;fill-rule:nonzero;stroke:none"
         id="path101788"
         inkscape:connector-curvature="0" /><path
         d="m 3067.7051,2383.0049 c 0.01,0.01 0.01,0.01 0.02,0.01 -0.01,0 -0.01,0 -0.02,-0.01 m 0.45,0.26 c 0.05,0.03 0.09,0.05 0.14,0.08 -0.05,-0.02 -0.09,-0.05 -0.14,-0.08 m 0.44,0.26 c 0.06,0.03 0.13,0.07 0.19,0.11 -0.07,-0.04 -0.12,-0.07 -0.19,-0.11 m 0.44,0.26 c 0.07,0.04 0.14,0.08 0.21,0.12 -0.07,-0.04 -0.14,-0.08 -0.21,-0.12 m 0.45,0.26 c 0.06,0.04 0.14,0.08 0.21,0.12 -0.07,-0.04 -0.15,-0.09 -0.21,-0.12 m 0.44,0.25 c 0.08,0.05 0.16,0.1 0.24,0.15 -0.09,-0.05 -0.16,-0.1 -0.24,-0.15 m 0.43,0.26 c 0.09,0.05 0.18,0.1 0.26,0.16 -0.08,-0.05 -0.17,-0.11 -0.26,-0.16 m 0.44,0.26 c 0.1,0.06 0.2,0.12 0.3,0.18 -0.1,-0.06 -0.2,-0.12 -0.3,-0.18 m 0.42,0.25 c 0.11,0.06 0.22,0.13 0.32,0.19 -0.11,-0.07 -0.21,-0.12 -0.32,-0.19 m 0.43,0.26 c 0.12,0.06 0.24,0.14 0.35,0.2 -0.11,-0.06 -0.23,-0.14 -0.35,-0.2 m 0.43,0.25 c 0.12,0.07 0.24,0.14 0.36,0.22 -0.12,-0.08 -0.24,-0.15 -0.36,-0.22 m 0.43,0.25 c 0.13,0.09 0.26,0.16 0.39,0.24 -0.13,-0.08 -0.26,-0.15 -0.39,-0.24 m 0.41,0.25 c 55.46,33.32 90.06,73.92 103.9,116.34 0.05,0.07 0.11,0.15 0.17,0.22 -3.33,-10.23 -7.87,-20.36 -13.62,-30.3 -4.88,-8.46 -10.64,-16.77 -17.27,-24.92 -9.18,-11.26 -20.03,-22.19 -32.55,-32.65 -5.45,-4.55 -11.19,-8.99 -17.27,-13.36 -7.32,-5.25 -15.12,-10.37 -23.36,-15.33 m -586.55,7.72 -0.01,0.01 0.01,-0.01 m -0.38,0.25 c -0.03,0.02 -0.07,0.05 -0.11,0.07 0.04,-0.03 0.07,-0.05 0.11,-0.07 m -0.37,0.25 c -0.07,0.04 -0.14,0.08 -0.2,0.13 0.07,-0.05 0.13,-0.09 0.2,-0.13 m -0.37,0.24 c -0.09,0.06 -0.19,0.13 -0.28,0.19 0.09,-0.07 0.18,-0.13 0.28,-0.19 m -0.37,0.25 c -6.65,4.42 -12.96,8.95 -18.93,13.59 -6.12,4.75 -11.87,9.61 -17.27,14.56 -12.9,11.82 -23.75,24.17 -32.55,36.88 -7.08,10.21 -12.83,20.66 -17.27,31.26 -6.47,15.46 -10.13,31.22 -10.98,47.03 0.02,0.34 0.03,0.68 0.04,1.01 0.39,-8.32 1.56,-16.65 3.51,-24.92 10.09,-42.99 41.2,-84.66 93.45,-119.41"
         style="fill:#fef6c8;fill-opacity:1;fill-rule:nonzero;stroke:none"
         id="path101790"
         inkscape:connector-curvature="0" /><path
         d="m 2391.4251,2514.1949 c -1.95,8.27 -3.12,16.6 -3.51,24.92 0.01,0.08 0.01,0.15 0.01,0.23 0.38,-8.41 1.54,-16.8 3.5,-25.15"
         style="fill:#fdf8d4;fill-opacity:1;fill-rule:nonzero;stroke:none"
         id="path101792"
         inkscape:connector-curvature="0" /><path
         d="m 2985.5751,2429.9049 c -110.34,-63.71 -289.26,-63.71 -399.61,0 -110.35,63.72 -110.36,167.01 -0.01,230.72 110.35,63.71 289.27,63.71 399.62,0 110.35,-63.71 110.35,-167.01 0,-230.72"
         style="fill:#e59c13;fill-opacity:1;fill-rule:nonzero;stroke:none"
         id="path101794"
         inkscape:connector-curvature="0" /><path
         d="m 2585.9551,2645.7349 c 110.35,63.7 289.27,63.7 399.62,-0.01 51.89,-29.96 79.38,-68.68 82.46,-107.92 3.48,44.21 -24,89.06 -82.46,122.82 -110.35,63.71 -289.27,63.71 -399.62,0 -58.46,-33.75 -85.93,-78.6 -82.45,-122.8 3.09,39.24 30.57,77.95 82.45,107.91"
         style="fill:#f5ba1b;fill-opacity:1;fill-rule:nonzero;stroke:none"
         id="path101796"
         inkscape:connector-curvature="0" /><path
         d="m 2924.7351,2622.3049 -21.9,-6.26 6.22,-2.47 -21.39,-12.35 c -17.49,8.54 -35.58,12.76 -54.22,12.67 -18.67,-0.1 -36.07,-4.8 -52.22,-14.13 -6.47,-3.74 -11.72,-7.55 -15.76,-11.43 -4.03,-3.87 -6.85,-7.9 -8.44,-12.08 -1.61,-4.17 -2.53,-8.04 -2.78,-11.58 -0.26,-3.54 -0.1,-7.72 0.5,-12.53 l 2.53,-19.94 c 0.75,-5.68 0.91,-10.34 0.51,-13.98 -0.42,-3.64 -2.01,-7.42 -4.74,-11.33 -2.72,-3.9 -6.9,-7.48 -12.54,-10.73 -10.1,-5.82 -19.04,-6.49 -26.86,-1.96 -5.97,3.44 -7.49,7.74 -4.55,12.88 2.96,5.14 10.88,11.55 23.84,19.22 v 14.96 l -18.72,-7.02 -26.93,11.43 c -16.49,-10.13 -27.08,-19.68 -31.91,-28.68 l -3.09,3.45 v -14.66 l 0.07,-0.01 c 0.1,-10.07 7.77,-20 23.2,-29.78 l -10.64,-6.14 -14.46,6.62 v -14.97 l 12.99,-7.5 25.34,14.64 c 15.9,-7.43 32.99,-10.84 51.27,-10.24 18.28,0.61 34.42,4.94 48.36,13.01 6.98,4.02 12.7,8.26 17.16,12.74 4.46,4.46 7.63,9.08 9.51,13.86 1.9,4.79 3.08,9.35 3.54,13.69 0.46,4.34 0.44,9.19 -0.06,14.53 l -2.15,19.29 c -0.33,3.88 -0.51,6.7 -0.5,8.45 -0.01,1.75 0.31,4.19 0.95,7.32 0.63,3.12 2.07,5.9 4.35,8.33 2.25,2.43 5.38,4.78 9.32,7.07 4.12,2.37 8.92,3.9 14.39,4.58 5.45,0.68 10.25,-0.12 14.36,-2.4 2.1,-1.12 3.61,-2.27 4.48,-3.46 l 0.79,-2.5 -22.29,-4.63 v -14.97 l 45.16,-20.09 c 3.69,2.33 6.99,4.5 9.89,6.51 2.9,2.01 5.93,4.45 9.09,7.29 3.14,2.83 5.67,5.55 7.55,8.14 1.89,2.6 3.32,5.54 4.3,8.81 0.44,1.52 0.66,3.01 0.74,4.47 l 0.05,0.06 v 0.24 0.19 15.31 l -5.76,-1.19 -0.2,0.3 c -2.92,3.52 -6.92,6.95 -12.05,10.3 l 23.7,13.68 v 14.97"
         style="fill:#f5ba1b;fill-opacity:1;fill-rule:nonzero;stroke:none"
         id="path101798"
         inkscape:connector-curvature="0" /><path
         d="m 2650.4551,2476.4749 25.1,14.48 c -17.15,10.88 -24.81,21.94 -23.02,33.17 1.81,11.24 13.39,23.41 34.75,36.51 l 45.65,-19.37 c -12.96,-7.66 -20.88,-14.07 -23.84,-19.22 -2.94,-5.14 -1.42,-9.44 4.55,-12.87 7.82,-4.54 16.76,-3.87 26.86,1.95 5.64,3.25 9.82,6.83 12.54,10.74 2.73,3.9 4.32,7.68 4.74,11.32 0.4,3.64 0.24,8.3 -0.51,13.98 l -2.53,19.95 c -0.6,4.81 -0.76,8.98 -0.5,12.52 0.25,3.55 1.17,7.41 2.78,11.59 1.59,4.17 4.41,8.2 8.44,12.08 4.04,3.88 9.29,7.69 15.76,11.42 16.15,9.33 33.55,14.04 52.22,14.13 18.64,0.1 36.73,-4.13 54.22,-12.67 l 23.84,13.76 13.23,-7.64 -23.7,-13.69 c 5.13,-3.35 9.13,-6.78 12.05,-10.3 2.89,-3.52 4.73,-6.81 5.49,-9.87 0.75,-3.05 0.63,-6.23 -0.32,-9.5 -0.98,-3.28 -2.41,-6.22 -4.3,-8.81 -1.88,-2.59 -4.41,-5.32 -7.55,-8.15 -3.16,-2.84 -6.19,-5.27 -9.09,-7.29 -2.9,-2.01 -6.2,-4.18 -9.89,-6.51 l -45.16,20.1 c 3.45,2.08 6.27,3.82 8.46,5.24 2.17,1.41 4.41,2.96 6.68,4.66 2.26,1.7 3.91,3.18 4.92,4.44 0.99,1.26 1.72,2.57 2.14,3.93 0.42,1.37 0.18,2.64 -0.7,3.83 -0.87,1.19 -2.38,2.33 -4.48,3.45 -4.11,2.28 -8.91,3.08 -14.36,2.41 -5.47,-0.69 -10.27,-2.22 -14.39,-4.59 -3.94,-2.29 -7.07,-4.64 -9.32,-7.07 -2.28,-2.42 -3.72,-5.21 -4.35,-8.33 -0.64,-3.13 -0.96,-5.57 -0.95,-7.32 -0.01,-1.75 0.17,-4.56 0.5,-8.45 l 2.15,-19.29 c 0.5,-5.33 0.52,-10.18 0.06,-14.52 -0.46,-4.35 -1.64,-8.91 -3.54,-13.7 -1.88,-4.78 -5.05,-9.4 -9.51,-13.86 -4.46,-4.47 -10.18,-8.71 -17.16,-12.74 -13.94,-8.06 -30.08,-12.39 -48.36,-13 -18.28,-0.61 -35.37,2.81 -51.27,10.23 l -25.34,-14.63 -12.99,7.5"
         style="fill:#fad644;fill-opacity:1;fill-rule:nonzero;stroke:none"
         id="path101800"
         inkscape:connector-curvature="0" /><path
         d="m 3212.2951,2662.4349 h -16.2 c -18.18,35.69 -51.62,69.34 -100.4,97.5 -155.46,89.75 -407.52,89.75 -562.98,0.01 -48.77,-28.17 -82.23,-61.82 -100.39,-97.51 h -16.2 v -65.01 c 0.01,-58.82 38.87,-117.64 116.6,-162.52 155.47,-89.76 407.52,-89.76 562.98,0 77.72,44.87 116.59,103.7 116.59,162.52 v 65.01"
         style="fill:#f5ba1b;fill-opacity:1;fill-rule:nonzero;stroke:none"
         id="path101802"
         inkscape:connector-curvature="0" /><path
         d="m 2727.8751,2821.7449 c -71.52,-9.14 -139.53,-29.69 -195.16,-61.8 -48.77,-28.17 -82.23,-61.82 -100.39,-97.51 h -16.2 v -65.01 c 0.01,-58.82 38.87,-117.64 116.6,-162.52 55.62,-32.11 123.64,-52.68 195.15,-61.81 v 448.65"
         style="fill:#fad644;fill-opacity:1;fill-rule:nonzero;stroke:none"
         id="path101804"
         inkscape:connector-curvature="0" /><path
         d="m 3096.7751,2435.5549 c 76.99,44.8 115.52,103.32 115.52,161.87 v 65.01 h -16.2 c -15.49,30.42 -42.19,59.33 -79.91,84.66 h -19.41 v -311.54"
         style="fill:#e59c13;fill-opacity:1;fill-rule:nonzero;stroke:none"
         id="path101806"
         inkscape:connector-curvature="0" /><path
         d="m 3174.5451,2499.6349 v 53.15 c 6.63,8.16 12.38,16.5 17.26,24.96 v -53.1 c -4.89,-8.48 -10.62,-16.84 -17.26,-25.01"
         style="fill:#e59c13;fill-opacity:1;fill-rule:nonzero;stroke:none"
         id="path101808"
         inkscape:connector-curvature="0" /><path
         d="m 2825.8251,2367.7449 v 53.09 c 5.76,0.1 11.52,0.27 17.27,0.51 v -53.09 c -5.75,-0.24 -11.5,-0.41 -17.27,-0.51 m -32.55,0.19 c -5.76,0.17 -11.52,0.39 -17.26,0.71 v 53.15 c 5.74,-0.32 11.51,-0.56 17.26,-0.74 v -53.12 m 82.37,2.44 v 53.1 c 5.76,0.52 11.54,1.11 17.26,1.78 v -53.13 c -5.73,-0.66 -11.49,-1.24 -17.26,-1.75 m -132.18,0.9 c -5.78,0.6 -11.53,1.28 -17.27,2.04 v 0 c 0.55,-0.07 1.12,-0.15 1.68,-0.22 v 53.09 c 5.17,-0.66 10.39,-1.26 15.59,-1.8 v -53.11 m 181.99,5.45 v 53.13 c 5.78,0.96 11.56,2.01 17.27,3.14 v -53.11 c -5.72,-1.13 -11.48,-2.19 -17.27,-3.16 m 49.82,10.51 v 53.09 c 5.81,1.48 11.55,3.04 17.26,4.69 v -53.07 c -5.7,-1.65 -11.45,-3.22 -17.26,-4.71 m -331.45,2.44 c -1.02,0.28 -2.04,0.57 -3.06,0.85 1.02,-0.28 2.04,-0.56 3.06,-0.84 v -0.01 m 381.26,12.83 v 53.07 c 5.83,2.1 11.6,4.31 17.27,6.6 v -53.06 c -5.68,-2.31 -11.43,-4.5 -17.27,-6.61 m -431.07,3.41 c -0.14,0.06 -0.28,0.11 -0.41,0.16 0.14,-0.05 0.27,-0.1 0.41,-0.16 v 0 m 480.89,17.88 v 53.07 c 5.87,2.94 11.63,6 17.27,9.18 v -53.09 c -5.63,-3.17 -11.4,-6.21 -17.27,-9.16 m -249.08,8.9 v 0 c 5.77,0.09 11.51,0.26 17.27,0.5 v 0 c -5.75,-0.24 -11.51,-0.41 -17.27,-0.5 m -32.55,0.22 c -5.75,0.17 -11.52,0.42 -17.26,0.73 v 0.01 c 5.75,-0.32 11.5,-0.57 17.26,-0.74 v 0 m 82.37,2.42 v 0 c 5.76,0.51 11.54,1.11 17.26,1.77 v 0 c -5.74,-0.67 -11.48,-1.26 -17.26,-1.77 m -132.18,0.9 c -5.22,0.54 -10.41,1.14 -15.59,1.8 v 0 c 5.18,-0.66 10.37,-1.26 15.59,-1.8 v 0 m 181.99,5.47 v 0 c 5.79,0.97 11.55,2.02 17.27,3.14 v 0 c -5.72,-1.12 -11.48,-2.17 -17.27,-3.14 m 49.82,10.47 v 0 c 5.81,1.49 11.55,3.05 17.26,4.7 v 0 c -5.69,-1.65 -11.46,-3.22 -17.26,-4.7 m 49.81,15.25 v 0.01 c 5.83,2.1 11.6,4.31 17.27,6.6 v 0 c -5.69,-2.3 -11.43,-4.5 -17.27,-6.61 m 49.82,21.29 v 0 c 5.87,2.95 11.63,6.01 17.27,9.19 v -0.01 c -5.64,-3.18 -11.4,-6.24 -17.27,-9.18"
         style="fill:#efad0e;fill-opacity:1;fill-rule:nonzero;stroke:none"
         id="path101810"
         inkscape:connector-curvature="0" /><path
         d="m 2727.8751,2373.0949 c -0.56,0.07 -1.13,0.15 -1.68,0.22 v 53.09 c 0.56,-0.08 1.11,-0.15 1.68,-0.22 v -53.09 m -34.23,5.3 c -5.79,1.06 -11.55,2.2 -17.27,3.41 v 53.1 c 5.72,-1.22 11.47,-2.35 17.27,-3.41 v -53.1 m -49.82,11.29 c -1.02,0.28 -2.04,0.56 -3.06,0.84 -4.77,1.34 -9.5,2.73 -14.2,4.17 v 53.12 c 5.7,-1.76 11.45,-3.43 17.26,-5.02 v -53.12 m -49.81,16.24 c -0.14,0.06 -0.27,0.11 -0.41,0.16 -5.7,2.2 -11.32,4.5 -16.86,6.9 v 53.11 c 5.68,-2.45 11.43,-4.78 17.27,-7.03 v -53.14 m -49.82,22.7 c -3.85,2.06 -7.71,4.13 -11.47,6.29 v 0 0 c -1.99,1.15 -3.85,2.35 -5.79,3.52 v 53.05 c 1.91,-1.14 3.83,-2.28 5.79,-3.41 3.77,-2.17 7.6,-4.3 11.47,-6.37 v -53.08 m 183.68,9.42 c -0.57,0.07 -1.12,0.15 -1.68,0.22 v 0 c 0.56,-0.07 1.11,-0.15 1.68,-0.22 v 0 m -34.23,5.31 c -5.78,1.05 -11.56,2.19 -17.27,3.41 v 0 c 5.72,-1.22 11.47,-2.35 17.27,-3.41 v 0 m -49.82,11.3 c -5.8,1.58 -11.57,3.26 -17.26,5.02 v 0 c 5.7,-1.76 11.45,-3.43 17.26,-5.02 v 0 m -149.44,5.93 c -6.14,4.77 -11.85,9.67 -17.27,14.63 v 53.05 c 5.4,-4.95 11.15,-9.81 17.27,-14.56 v -53.12 m 99.63,10.33 c -5.83,2.24 -11.6,4.59 -17.27,7.02 v 0 c 5.68,-2.44 11.43,-4.77 17.27,-7.02 v 0 m -49.82,22.64 c -2.77,1.48 -5.51,2.98 -8.23,4.52 2.72,-1.54 5.46,-3.04 8.23,-4.52 v 0 m -8.41,4.62 c -0.66,0.37 -1.33,0.75 -1.98,1.13 0.65,-0.38 1.32,-0.76 1.98,-1.13 m -3.06,1.75 v 0 c -0.15,0.08 -0.3,0.17 -0.45,0.26 0.15,-0.09 0.3,-0.17 0.45,-0.26 v 0 m -0.61,0.35 c -0.1,0.06 -0.19,0.11 -0.28,0.16 0.09,-0.05 0.19,-0.11 0.28,-0.16 m -0.53,0.31 c -0.07,0.04 -0.13,0.07 -0.19,0.11 0.06,-0.04 0.12,-0.07 0.19,-0.11 m -0.47,0.27 c -0.05,0.03 -0.11,0.07 -0.16,0.1 0.04,-0.03 0.11,-0.07 0.16,-0.1 m -0.46,0.27 c -0.05,0.03 -0.09,0.06 -0.14,0.09 0.04,-0.03 0.1,-0.06 0.14,-0.09 m -0.45,0.26 c -0.04,0.03 -0.09,0.05 -0.13,0.08 0.05,-0.03 0.08,-0.05 0.13,-0.08 m -0.47,0.28 c -0.03,0.02 -0.06,0.04 -0.09,0.05 0.03,-0.01 0.06,-0.03 0.09,-0.05 m -0.46,0.27 c -0.02,0.02 -0.04,0.03 -0.06,0.04 0.02,-0.01 0.04,-0.03 0.06,-0.04 m -0.46,0.28 c -0.01,0 -0.02,0.01 -0.02,0.01 l 0.02,-0.01"
         style="fill:#f2be23;fill-opacity:1;fill-rule:nonzero;stroke:none"
         id="path101812"
         inkscape:connector-curvature="0" /><path
         d="m 3124.7151,2453.6249 v 53.1 c 6.08,4.36 11.84,8.82 17.28,13.37 v -53.05 c -5.46,-4.56 -11.18,-9.06 -17.28,-13.42 m 0,64.94 v 0 c 0.09,0.07 0.18,0.13 0.27,0.19 -0.09,-0.06 -0.18,-0.12 -0.27,-0.19 m 0.39,0.29 c 0.05,0.03 0.11,0.08 0.16,0.11 -0.05,-0.04 -0.1,-0.08 -0.16,-0.11"
         style="fill:#e59c13;fill-opacity:1;fill-rule:nonzero;stroke:none"
         id="path101814"
         inkscape:connector-curvature="0" /><path
         d="m 2444.5651,2512.0249 c -7.07,10.21 -12.84,20.65 -17.26,31.25 v 53.29 c 4.43,-10.64 10.18,-21.13 17.26,-31.38 v -53.16"
         style="fill:#f2be23;fill-opacity:1;fill-rule:nonzero;stroke:none"
         id="path101816"
         inkscape:connector-curvature="0" /><path
         d="m 3095.7051,2499.9149 c -155.46,-89.76 -407.51,-89.76 -562.98,0 -155.46,89.75 -155.46,235.28 -0.01,325.03 155.46,89.75 407.52,89.75 562.98,0 155.46,-89.76 155.47,-235.29 0.01,-325.03"
         style="fill:#fad644;fill-opacity:1;fill-rule:nonzero;stroke:none"
         id="path101818"
         inkscape:connector-curvature="0" /><path
         d="m 2529.3451,2822.9749 c 0.02,0.01 0.04,0.02 0.06,0.03 -0.02,-0.01 -0.04,-0.02 -0.06,-0.03 m 0.34,0.2 c 0.03,0.02 0.06,0.04 0.09,0.05 -0.03,-0.01 -0.06,-0.03 -0.09,-0.05 m 0.94,0.55 c 0.05,0.03 0.11,0.07 0.16,0.09 -0.06,-0.03 -0.11,-0.06 -0.16,-0.09 m 0.36,0.21 c 0.08,0.05 0.15,0.09 0.22,0.13 -0.07,-0.04 -0.14,-0.08 -0.22,-0.13 m 0.48,0.28 c 0.09,0.06 0.19,0.11 0.29,0.17 -0.1,-0.05 -0.2,-0.11 -0.29,-0.17 m 0.44,0.26 c 0.09,0.05 0.17,0.1 0.26,0.15 -0.08,-0.05 -0.18,-0.1 -0.26,-0.15 m 0.41,0.24 c 0.13,0.07 0.27,0.15 0.4,0.23 -0.13,-0.08 -0.27,-0.16 -0.4,-0.23 m 0.4,0.23 c 0.17,0.09 0.33,0.19 0.5,0.28 -0.16,-0.09 -0.34,-0.19 -0.5,-0.28"
         style="fill:#445f9a;fill-opacity:1;fill-rule:nonzero;stroke:none"
         id="path101820"
         inkscape:connector-curvature="0" /><path
         d="m 2622.0351,2555.8749 c -61.71,0 -123.43,8.24 -179.78,24.69 -9.53,14.46 -16.45,29.37 -20.75,44.47 -2.95,10.42 -4.66,20.94 -5.13,31.48 0,-0.11 -0.01,-0.22 -0.01,-0.33 -2.86,60.02 34.78,120.56 112.98,166.79 0.02,0.01 0.04,0.02 0.06,0.03 0.09,0.06 0.19,0.11 0.28,0.17 0.03,0.02 0.06,0.04 0.09,0.05 0.28,0.17 0.56,0.33 0.85,0.5 0.05,0.03 0.1,0.06 0.16,0.09 0.07,0.04 0.13,0.08 0.2,0.12 0.08,0.05 0.15,0.09 0.22,0.13 0.09,0.05 0.17,0.1 0.26,0.15 0.09,0.06 0.19,0.12 0.29,0.17 0.05,0.03 0.1,0.06 0.15,0.09 0.08,0.05 0.18,0.1 0.26,0.15 0.05,0.03 0.1,0.06 0.15,0.09 0.13,0.07 0.27,0.15 0.4,0.23 v 0 0 c 0.16,0.09 0.34,0.19 0.5,0.28 77.64,44.67 179.24,66.99 280.85,66.99 61.71,0 123.43,-8.23 179.78,-24.69 54.06,-82.02 23.99,-178.3 -90.46,-244.37 -77.7,-44.86 -179.51,-67.28 -281.35,-67.28"
         style="fill:#f9df64;fill-opacity:1;fill-rule:nonzero;stroke:none"
         id="path101822"
         inkscape:connector-curvature="0" /><path
         d="m 2814.2251,2420.7449 c -6.99,0 -13.96,0.1 -20.95,0.31 v 11.86 c 6.99,-0.21 13.96,-0.32 20.95,-0.32 3.87,0 7.74,0.03 11.6,0.1 v -11.86 c -3.86,-0.06 -7.73,-0.09 -11.6,-0.09 m 28.87,0.6 v 11.85 c 10.88,0.46 21.75,1.17 32.55,2.14 v -11.86 c -10.81,-0.97 -21.65,-1.68 -32.55,-2.13 m -67.08,0.45 c -10.9,0.6 -21.74,1.46 -32.55,2.59 v 11.85 c 10.81,-1.12 21.65,-1.98 32.55,-2.59 v -11.85 m 116.89,3.46 v 11.85 c 10.93,1.27 21.8,2.8 32.55,4.6 v -11.85 c -10.76,-1.81 -21.6,-3.34 -32.55,-4.6 m 49.82,7.74 v 11.85 c 10.99,2.16 21.85,4.6 32.55,7.33 v -11.85 c -10.7,-2.73 -21.56,-5.18 -32.55,-7.33 m 49.81,12.02 v 11.86 c 11.07,3.2 21.94,6.72 32.55,10.55 v -11.85 c -10.61,-3.84 -21.48,-7.35 -32.55,-10.56 m 49.82,17.16 v 11.86 c 11.17,4.52 22.05,9.41 32.55,14.68 v -11.85 c -10.51,-5.27 -21.37,-10.16 -32.55,-14.69 m 49.82,23.87 v 11.85 c 1.18,0.66 2.36,1.33 3.53,2.01 0.35,0.21 0.72,0.41 1.07,0.62 v -11.84 c -0.35,-0.21 -0.72,-0.42 -1.07,-0.63 -1.17,-0.67 -2.35,-1.34 -3.53,-2.01"
         style="fill:#fcedb4;fill-opacity:1;fill-rule:nonzero;stroke:none"
         id="path101824"
         inkscape:connector-curvature="0" /><path
         d="m 2726.1951,2426.4049 c -10.95,1.42 -21.81,3.12 -32.55,5.09 v 11.85 c 10.74,-1.97 21.6,-3.67 32.55,-5.09 v -11.85 m -49.82,8.5 c -11,2.34 -21.87,4.97 -32.55,7.89 v 11.85 c 10.69,-2.93 21.54,-5.55 32.55,-7.89 v -11.85 m -49.81,12.91 c -11.09,3.42 -21.95,7.17 -32.55,11.24 v 11.85 c 10.61,-4.07 21.45,-7.82 32.55,-11.24 v -11.85 m -49.82,18.27 c -11.2,4.82 -22.07,10.02 -32.55,15.61 v 11.85 c 10.48,-5.6 21.34,-10.79 32.55,-15.62 v -11.84 m -49.81,25.39 c -11.79,7.1 -22.65,14.52 -32.55,22.22 v 11.84 c 9.91,-7.7 20.75,-15.12 32.55,-22.21 v -11.85 m -49.82,36.78 c -12.9,11.83 -23.75,24.2 -32.55,36.93 v 11.77 c 8.81,-12.71 19.66,-25.06 32.55,-36.87 v -11.83 m -49.81,68.31 c -8.01,19.24 -11.66,38.95 -10.98,58.64 0.86,-15.79 4.52,-31.55 10.98,-46.99 v -11.65"
         style="fill:#fef6c8;fill-opacity:1;fill-rule:nonzero;stroke:none"
         id="path101826"
         inkscape:connector-curvature="0" /><path
         d="m 3096.7751,2488.6849 v 11.84 c 9.96,5.8 19.27,11.82 27.94,18.04 v -11.84 c -8.67,-6.23 -17.98,-12.25 -27.94,-18.04 m 45.22,31.41 v 11.84 c 12.51,10.45 23.37,21.38 32.55,32.65 v -11.8 c -9.18,-11.28 -20.02,-22.22 -32.55,-32.69 m 49.81,57.65 v 11.74 c 12.33,21.34 19.1,43.5 20.29,65.76 0.92,-26.17 -5.84,-52.41 -20.29,-77.5"
         style="fill:#f7e3a3;fill-opacity:1;fill-rule:nonzero;stroke:none"
         id="path101828"
         inkscape:connector-curvature="0" /><path
         d="m 3174.5451,2552.7849 v 11.8 c 6.63,8.14 12.38,16.45 17.26,24.9 v -11.74 c -4.88,-8.46 -10.63,-16.8 -17.26,-24.96"
         style="fill:#f7e3a3;fill-opacity:1;fill-rule:nonzero;stroke:none"
         id="path101830"
         inkscape:connector-curvature="0" /><path
         d="m 2825.8251,2420.8349 v 11.86 c 5.76,0.09 11.52,0.26 17.27,0.5 v -11.85 c -5.75,-0.24 -11.51,-0.41 -17.27,-0.51 m -32.55,0.22 c -5.75,0.18 -11.52,0.42 -17.26,0.74 v 11.85 c 5.74,-0.31 11.51,-0.56 17.26,-0.73 v -11.86 m 82.37,2.42 v 11.86 c 5.78,0.51 11.52,1.1 17.26,1.77 v -11.85 c -5.72,-0.67 -11.5,-1.26 -17.26,-1.78 m -132.18,0.91 c -5.2,0.54 -10.42,1.14 -15.59,1.8 v 11.85 c 5.18,-0.66 10.37,-1.26 15.59,-1.8 v -11.85 m 181.99,5.47 v 11.85 c 5.79,0.97 11.55,2.02 17.27,3.14 v -11.85 c -5.71,-1.13 -11.49,-2.18 -17.27,-3.14 m 49.82,10.47 v 11.85 c 5.8,1.48 11.57,3.05 17.26,4.7 v -11.86 c -5.71,-1.65 -11.45,-3.21 -17.26,-4.69 m 49.81,15.25 v 11.85 c 5.84,2.11 11.58,4.31 17.27,6.61 v -11.86 c -5.67,-2.29 -11.44,-4.5 -17.27,-6.6 m 49.82,21.29 v 11.85 c 5.87,2.94 11.63,6 17.27,9.18 v -11.85 c -5.64,-3.18 -11.4,-6.24 -17.27,-9.18"
         style="fill:#f9e8ae;fill-opacity:1;fill-rule:nonzero;stroke:none"
         id="path101832"
         inkscape:connector-curvature="0" /><path
         d="m 2727.8751,2426.1849 c -0.57,0.07 -1.12,0.14 -1.68,0.22 v 11.85 c 0.56,-0.07 1.11,-0.15 1.68,-0.22 v -11.85 m -34.23,5.31 c -5.8,1.06 -11.55,2.19 -17.27,3.41 v 11.85 c 5.71,-1.22 11.49,-2.36 17.27,-3.41 v -11.85 m -49.82,11.3 c -5.81,1.59 -11.56,3.26 -17.26,5.02 v 11.85 c 5.69,-1.76 11.46,-3.44 17.26,-5.02 v -11.85 m -49.81,16.26 c -5.84,2.25 -11.59,4.58 -17.27,7.03 v 11.84 c 5.67,-2.43 11.44,-4.78 17.27,-7.02 v -11.85 m -49.82,22.64 c -3.87,2.07 -7.7,4.2 -11.47,6.37 -1.96,1.13 -3.88,2.27 -5.79,3.41 v 11.85 c 0.62,-0.37 1.23,-0.74 1.86,-1.11 0,0 0.01,-0.01 0.02,-0.01 0.14,-0.08 0.26,-0.16 0.4,-0.24 0.02,-0.01 0.04,-0.02 0.06,-0.04 0.12,-0.07 0.25,-0.14 0.37,-0.22 0.03,-0.01 0.06,-0.03 0.09,-0.05 0.11,-0.07 0.23,-0.13 0.34,-0.2 0.04,-0.03 0.09,-0.05 0.13,-0.08 0.1,-0.06 0.2,-0.11 0.31,-0.17 0.05,-0.03 0.09,-0.06 0.14,-0.09 0.11,-0.06 0.19,-0.11 0.3,-0.17 0.05,-0.03 0.11,-0.07 0.16,-0.1 0.09,-0.05 0.18,-0.11 0.28,-0.16 0.06,-0.04 0.12,-0.07 0.19,-0.11 0.08,-0.05 0.16,-0.1 0.25,-0.15 0.09,-0.05 0.18,-0.1 0.28,-0.16 0.05,-0.03 0.11,-0.07 0.16,-0.09 0.15,-0.09 0.3,-0.18 0.45,-0.26 v 0 c 0.36,-0.21 0.72,-0.42 1.08,-0.62 0.65,-0.38 1.32,-0.76 1.98,-1.13 0.06,-0.04 0.12,-0.07 0.18,-0.1 2.72,-1.54 5.46,-3.04 8.23,-4.52 v -11.85 m -49.81,32 c -6.12,4.75 -11.87,9.61 -17.27,14.56 v 11.83 c 5.4,-4.95 11.16,-9.81 17.27,-14.55 v -11.84"
         style="fill:#fbefb9;fill-opacity:1;fill-rule:nonzero;stroke:none"
         id="path101834"
         inkscape:connector-curvature="0" /><path
         d="m 3124.7151,2506.7249 v 11.84 c 0.09,0.07 0.18,0.13 0.27,0.19 0.04,0.03 0.08,0.07 0.12,0.1 0.06,0.03 0.11,0.07 0.16,0.11 5.88,4.24 11.44,8.55 16.73,12.97 v -11.84 c -5.44,-4.55 -11.2,-9.01 -17.28,-13.37"
         style="fill:#f7e3a3;fill-opacity:1;fill-rule:nonzero;stroke:none"
         id="path101836"
         inkscape:connector-curvature="0" /><path
         d="m 2444.5651,2565.1849 c -7.08,10.25 -12.83,20.74 -17.26,31.38 v 11.65 c 4.44,-10.6 10.19,-21.04 17.26,-31.26 v -11.77"
         style="fill:#fbefb9;fill-opacity:1;fill-rule:nonzero;stroke:none"
         id="path101838"
         inkscape:connector-curvature="0" /><path
         d="m 2535.9651,2498.0649 c -0.06,0.03 -0.12,0.06 -0.18,0.1 0.06,-0.04 0.12,-0.07 0.18,-0.1 m -2.16,1.23 c -0.36,0.2 -0.72,0.41 -1.08,0.62 0.36,-0.21 0.72,-0.42 1.08,-0.62 m -1.53,0.88 c -0.05,0.02 -0.11,0.06 -0.16,0.09 0.05,-0.03 0.11,-0.06 0.16,-0.09 m -0.44,0.25 c -0.09,0.05 -0.17,0.1 -0.25,0.15 0.08,-0.05 0.17,-0.1 0.25,-0.15 m -0.44,0.26 c -0.1,0.05 -0.19,0.11 -0.28,0.16 0.09,-0.05 0.18,-0.1 0.28,-0.16 m -0.44,0.26 c -0.11,0.06 -0.19,0.11 -0.3,0.17 0.1,-0.06 0.2,-0.11 0.3,-0.17 m -0.44,0.26 c -0.11,0.06 -0.21,0.11 -0.31,0.17 0.1,-0.05 0.21,-0.12 0.31,-0.17 m -0.44,0.25 c -0.11,0.07 -0.23,0.13 -0.34,0.2 0.11,-0.07 0.23,-0.13 0.34,-0.2 m -0.43,0.25 c -0.12,0.08 -0.25,0.15 -0.37,0.22 0.12,-0.07 0.25,-0.14 0.37,-0.22 m -0.43,0.26 c -0.14,0.08 -0.26,0.16 -0.4,0.24 0.13,-0.08 0.26,-0.16 0.4,-0.24 m -0.42,0.25 c -0.63,0.37 -1.24,0.74 -1.86,1.11 -11.8,7.09 -22.64,14.51 -32.55,22.21 -6.11,4.74 -11.87,9.6 -17.27,14.55 -12.89,11.81 -23.74,24.16 -32.55,36.87 -7.07,10.22 -12.82,20.66 -17.26,31.26 -6.46,15.44 -10.12,31.2 -10.98,46.99 0.01,0.32 0.02,0.65 0.04,0.98 0.49,-10.43 2.21,-20.84 5.14,-31.15 12.71,-44.83 48.43,-87.89 107.29,-122.82 m 596.19,16.54 c 0.04,0.04 0.08,0.07 0.12,0.1 -0.04,-0.03 -0.08,-0.07 -0.12,-0.1 m 0.28,0.21 c 55.74,40.2 84.61,88.71 86.78,137.53 0.02,-0.42 0.04,-0.83 0.05,-1.25 -1.19,-22.26 -7.96,-44.42 -20.29,-65.76 -4.88,-8.45 -10.63,-16.76 -17.26,-24.9 -9.18,-11.27 -20.04,-22.2 -32.55,-32.65 -5.29,-4.42 -10.85,-8.73 -16.73,-12.97"
         style="fill:#fef6c8;fill-opacity:1;fill-rule:nonzero;stroke:none"
         id="path101840"
         inkscape:connector-curvature="0" /><path
         d="m 2421.5051,2625.0349 c -2.93,10.31 -4.65,20.72 -5.14,31.15 0,0.11 0.01,0.22 0.01,0.33 0.47,-10.54 2.18,-21.06 5.13,-31.48"
         style="fill:#fdf8d4;fill-opacity:1;fill-rule:nonzero;stroke:none"
         id="path101842"
         inkscape:connector-curvature="0" /><path
         d="m 3014.0251,2547.0749 c -110.35,-63.71 -289.27,-63.71 -399.62,0 -110.35,63.71 -110.35,167.01 0,230.71 110.34,63.71 289.26,63.71 399.61,0 110.35,-63.71 110.36,-167.01 0.01,-230.71"
         style="fill:#e59c13;fill-opacity:1;fill-rule:nonzero;stroke:none"
         id="path101844"
         inkscape:connector-curvature="0" /><path
         d="m 2614.4051,2762.8949 c 110.34,63.71 289.26,63.71 399.61,0 51.89,-29.97 79.37,-68.69 82.46,-107.92 3.48,44.2 -24,89.06 -82.46,122.81 -110.35,63.71 -289.27,63.71 -399.61,0 -58.46,-33.75 -85.94,-78.6 -82.46,-122.79 3.09,39.22 30.56,77.94 82.46,107.9"
         style="fill:#f5ba1b;fill-opacity:1;fill-rule:nonzero;stroke:none"
         id="path101846"
         inkscape:connector-curvature="0" /><path
         d="m 2953.1751,2739.4649 -21.9,-6.26 6.22,-2.47 -21.38,-12.36 c -17.49,8.56 -35.58,12.78 -54.23,12.68 -18.67,-0.1 -36.08,-4.8 -52.22,-14.12 -6.47,-3.74 -11.73,-7.55 -15.75,-11.44 -4.04,-3.87 -6.86,-7.91 -8.46,-12.08 -1.59,-4.17 -2.52,-8.03 -2.77,-11.58 -0.25,-3.54 -0.09,-7.71 0.5,-12.53 l 2.53,-19.94 c 0.75,-5.68 0.92,-10.34 0.51,-13.98 -0.42,-3.65 -2.01,-7.42 -4.74,-11.32 -2.73,-3.91 -6.91,-7.48 -12.54,-10.74 -10.1,-5.82 -19.04,-6.48 -26.87,-1.96 -5.96,3.44 -7.49,7.74 -4.54,12.88 2.95,5.15 10.89,11.56 23.84,19.22 v 14.97 l -18.72,-7.03 -26.92,11.43 c -16.5,-10.12 -27.09,-19.67 -31.93,-28.67 l -3.07,3.45 v -14.67 h 0.06 c 0.09,-10.08 7.78,-20 23.21,-29.78 l -10.65,-6.15 -14.45,6.62 v -14.96 l 12.98,-7.5 25.34,14.63 c 15.9,-7.43 32.99,-10.84 51.28,-10.23 18.28,0.61 34.4,4.93 48.36,13 6.98,4.02 12.69,8.27 17.15,12.73 4.46,4.48 7.62,9.1 9.52,13.88 1.88,4.79 3.07,9.34 3.52,13.68 0.46,4.35 0.45,9.19 -0.04,14.52 l -2.16,19.31 c -0.33,3.88 -0.51,6.69 -0.5,8.44 -0.01,1.75 0.31,4.19 0.95,7.31 0.63,3.14 2.08,5.92 4.34,8.34 2.27,2.42 5.38,4.79 9.34,7.07 4.12,2.38 8.9,3.9 14.37,4.58 5.46,0.68 10.26,-0.12 14.38,-2.4 2.09,-1.11 3.59,-2.26 4.47,-3.46 l 0.79,-2.5 -22.28,-4.63 v -14.97 l 45.14,-20.09 c 3.7,2.33 7,4.5 9.9,6.51 2.9,2.02 5.92,4.44 9.09,7.29 3.15,2.83 5.66,5.55 7.56,8.15 1.88,2.6 3.31,5.53 4.28,8.81 0.45,1.51 0.67,3 0.75,4.47 l 0.04,0.05 v 0.23 0.14 15.38 l -5.75,-1.2 -0.2,0.29 c -2.92,3.53 -6.92,6.96 -12.05,10.31 l 23.7,13.69 v 14.96"
         style="fill:#f5ba1b;fill-opacity:1;fill-rule:nonzero;stroke:none"
         id="path101848"
         inkscape:connector-curvature="0" /><path
         d="m 2678.9051,2593.6349 25.1,14.49 c -17.16,10.87 -24.83,21.92 -23.03,33.16 1.82,11.24 13.39,23.4 34.76,36.51 l 45.64,-19.36 c -12.95,-7.67 -20.89,-14.08 -23.84,-19.23 -2.95,-5.14 -1.42,-9.43 4.54,-12.88 7.83,-4.52 16.77,-3.86 26.87,1.97 5.63,3.25 9.81,6.82 12.54,10.73 2.73,3.91 4.32,7.68 4.74,11.33 0.41,3.64 0.24,8.3 -0.51,13.97 l -2.53,19.95 c -0.59,4.81 -0.75,8.98 -0.49,12.53 0.24,3.54 1.17,7.4 2.76,11.57 1.6,4.18 4.42,8.21 8.46,12.08 4.02,3.89 9.28,7.7 15.75,11.44 16.14,9.33 33.55,14.03 52.22,14.12 18.65,0.1 36.74,-4.12 54.23,-12.66 l 23.83,13.76 13.23,-7.65 -23.7,-13.69 c 5.13,-3.35 9.13,-6.78 12.05,-10.3 2.89,-3.51 4.73,-6.81 5.49,-9.86 0.75,-3.07 0.64,-6.23 -0.33,-9.51 -0.97,-3.27 -2.4,-6.21 -4.28,-8.81 -1.9,-2.6 -4.41,-5.31 -7.56,-8.14 -3.17,-2.85 -6.19,-5.28 -9.09,-7.29 -2.9,-2.02 -6.2,-4.19 -9.9,-6.51 l -45.14,20.09 c 3.43,2.08 6.26,3.82 8.44,5.24 2.19,1.41 4.42,2.96 6.68,4.66 2.28,1.7 3.92,3.18 4.93,4.44 1,1.26 1.72,2.57 2.14,3.93 0.42,1.36 0.18,2.63 -0.7,3.82 -0.88,1.2 -2.38,2.35 -4.47,3.46 -4.12,2.29 -8.92,3.09 -14.38,2.41 -5.47,-0.68 -10.25,-2.21 -14.37,-4.59 -3.96,-2.28 -7.07,-4.63 -9.34,-7.06 -2.26,-2.43 -3.71,-5.21 -4.34,-8.34 -0.64,-3.13 -0.96,-5.57 -0.95,-7.32 -0.01,-1.74 0.17,-4.56 0.5,-8.44 l 2.16,-19.29 c 0.49,-5.34 0.5,-10.19 0.04,-14.53 -0.45,-4.35 -1.64,-8.9 -3.52,-13.69 -1.9,-4.78 -5.06,-9.4 -9.52,-13.87 -4.46,-4.47 -10.17,-8.72 -17.15,-12.74 -13.96,-8.06 -30.08,-12.39 -48.36,-13 -18.29,-0.6 -35.38,2.81 -51.28,10.24 l -25.34,-14.64 -12.98,7.5"
         style="fill:#fad644;fill-opacity:1;fill-rule:nonzero;stroke:none"
         id="path101850"
         inkscape:connector-curvature="0" /><path
         d="m 3501.7551,3079.8649 -228.78,132.48 228.78,-132.48"
         style="fill:#8093b3;fill-opacity:1;fill-rule:nonzero;stroke:none"
         id="path101852"
         inkscape:connector-curvature="0" /><path
         d="m 2827.2251,3024.6149 -42.83,24.73 267.87,154.16 c 35.65,20.52 81.25,31.02 124.51,31.02 36.06,0 70.51,-7.3 96.2,-22.18 v 0 l 228.78,-132.48 -46.93,-27.1 -212.37,122.98 c -19.09,11.06 -44.69,16.48 -71.49,16.48 -32.16,0 -66.05,-7.8 -92.56,-23.05 l -251.18,-144.56"
         style="fill:#6c8ab5;fill-opacity:1;fill-rule:nonzero;stroke:none"
         id="path101854"
         inkscape:connector-curvature="0" /><path
         d="m 3116.6351,2857.5249 -289.41,167.09 251.18,144.56 c 26.51,15.25 60.4,23.05 92.56,23.05 26.8,0 52.4,-5.42 71.49,-16.48 l 212.37,-122.98 -338.19,-195.24 m 22.92,179.75 -35.72,-20.62 91.9,-53.06 35.71,20.63 -91.89,53.05"
         style="fill:#24366c;fill-opacity:1;fill-rule:nonzero;stroke:none"
         id="path101856"
         inkscape:connector-curvature="0" /><path
         d="m 3195.7351,2963.5949 -91.9,53.06 35.72,20.62 91.89,-53.05 -35.71,-20.63"
         style="fill:#8192b3;fill-opacity:1;fill-rule:nonzero;stroke:none"
         id="path101858"
         inkscape:connector-curvature="0" /><path
         d="m 3567.2351,3328.9649 -65.82,38 242.67,140.11 c 11.46,6.61 11.46,17.38 0,24 l -247.9,143.12 c -11.47,6.63 -30.12,6.63 -41.58,0 l -242.67,-140.1 -65.82,38.01 242.67,140.09 c 47.75,27.57 125.45,27.58 173.21,0 l 247.91,-143.12 c 47.75,-27.58 47.75,-72.43 0,-100 l -242.67,-140.11"
         style="fill:#263c7a;fill-opacity:1;fill-rule:nonzero;stroke:none"
         id="path101860"
         inkscape:connector-curvature="0" /><path
         d="m 3673.4351,3312.2349 c 0,35.19 -21.39,76.06 -47.78,91.3 l -439.68,253.84 c -11.82,6.82 -22.62,7.3 -30.96,2.65 l -0.02,0.01 -524.97,-305.05 507.67,-382.54 517.19,300.17 c 1.6,0.74 3.14,1.58 4.57,2.66 h 0.01 c 8.63,6.54 13.97,19.37 13.97,36.96"
         style="fill:#d9effb;fill-opacity:1;fill-rule:nonzero;stroke:none"
         id="path101862"
         inkscape:connector-curvature="0" /><path
         d="m 3137.6951,2972.4449 517.19,300.17 c 1.6,0.74 3.14,1.58 4.57,2.66 h 0.01 v 0.01 c 8.63,6.53 13.97,19.36 13.97,36.95 0,16.8 -4.91,34.87 -12.88,50.84 l -589.56,-340.38 66.7,-50.25"
         style="fill:#4067b1;fill-opacity:1;fill-rule:nonzero;stroke:none"
         id="path101864"
         inkscape:connector-curvature="0" /><path
         d="m 3104.6251,2973.7949 -439.67,253.85 c -26.39,15.24 -47.79,56.12 -47.79,91.3 0,35.19 21.4,51.36 47.79,36.12 l 439.67,-253.84 c 26.39,-15.24 47.79,-56.12 47.79,-91.3 0,-35.19 -21.4,-51.36 -47.79,-36.13"
         style="fill:#263c7a;fill-opacity:1;fill-rule:nonzero;stroke:none"
         id="path101866"
         inkscape:connector-curvature="0" /><path
         d="m 3109.9251,3103.6249 -439.68,253.85 c -12.13,7 -23.18,7.3 -31.6,2.23 7.55,2.3 16.58,0.98 26.31,-4.64 l 439.67,-253.84 c 26.39,-15.25 47.79,-56.12 47.79,-91.3 0,-19.02 -6.28,-32.4 -16.19,-38.36 12.93,3.93 21.48,18.54 21.48,40.76 0,35.19 -21.4,76.06 -47.78,91.3"
         style="fill:#ffffff;fill-opacity:1;fill-rule:nonzero;stroke:none"
         id="path101868"
         inkscape:connector-curvature="0" /><path
         d="m 3038.7651,3059.4049 -52.85,30.5 c -5.26,3.04 -9.53,11.18 -9.53,18.19 0,7.01 4.27,10.25 9.53,7.21 l 52.85,-30.5 c 5.27,-3.04 9.54,-11.18 9.54,-18.19 0,-7.02 -4.27,-10.25 -9.54,-7.21"
         style="fill:#ee1696;fill-opacity:1;fill-rule:nonzero;stroke:none"
         id="path101870"
         inkscape:connector-curvature="0" /><path
         d="m 3098.3951,3420.3349 c 15.95,9.43 15.78,24.44 -0.35,33.54 -16.14,9.09 -42.16,8.82 -58.09,-0.61 -15.95,-9.43 -15.8,-24.45 0.35,-33.54 16.13,-9.1 42.15,-8.83 58.09,0.61"
         style="fill:#5f92d3;fill-opacity:1;fill-rule:nonzero;stroke:none"
         id="path101872"
         inkscape:connector-curvature="0" /><path
         d="m 3186.9251,3370.4449 c 15.95,9.43 15.79,24.45 -0.35,33.54 -16.14,9.1 -42.15,8.83 -58.1,-0.61 -15.95,-9.43 -15.78,-24.44 0.35,-33.54 16.15,-9.09 42.16,-8.82 58.1,0.61"
         style="fill:#ffffff;fill-opacity:1;fill-rule:nonzero;stroke:none"
         id="path101874"
         inkscape:connector-curvature="0" /><path
         d="m 3275.4551,3320.5549 c 15.95,9.44 15.79,24.46 -0.35,33.55 -16.14,9.09 -42.15,8.82 -58.09,-0.61 -15.95,-9.43 -15.79,-24.45 0.35,-33.54 16.14,-9.09 42.15,-8.82 58.09,0.6"
         style="fill:#ffffff;fill-opacity:1;fill-rule:nonzero;stroke:none"
         id="path101876"
         inkscape:connector-curvature="0" /><path
         d="m 2950.9951,975.81593 c -11.8,0 -23.06,2.379 -31.48,7.238 l -302.84,174.83997 c -18.58,10.731 -16.25,29.473 5.21,41.86 l 292.4,168.82 c 11.74,6.781 26.77,10.25 41.02,10.25 11.81,0 23.07,-2.379 31.49,-7.238 l 302.83,-174.84 c 18.59,-10.731 16.25,-29.469 -5.2,-41.86 l -292.4,-168.81997 c -11.74,-6.781 -26.78,-10.25 -41.03,-10.25"
         style="fill:#899abf;fill-opacity:1;fill-rule:nonzero;stroke:none"
         id="path101878"
         inkscape:connector-curvature="0" /><path
         d="m 3302.0751,1281.2769 v 0 104.488 l -234.29,0.121 -80.99,46.758 c -18.58,10.731 -51.04,9.391 -72.51,-3.008 l -75.56,-43.621 -234.5,0.141 v -107.461 c -0.52,-7.27 3.53,-14.27 12.45,-19.43 l 302.84,-174.84 c 18.58,-10.718 51.04,-9.39 72.51,3.008 l 292.4,168.821 c 12.37,7.14 18.35,16.402 17.65,25.023"
         style="fill:#4067b1;fill-opacity:1;fill-rule:nonzero;stroke:none"
         id="path101880"
         inkscape:connector-curvature="0" /><path
         d="m 2953.1551,1439.8359 c -13.6,-0.321 -27.72,-3.75 -38.87,-10.2 l -75.56,-43.621 -234.5,0.141 v -107.461 c -0.52,-7.27 3.53,-14.27 12.45,-19.43 l 302.84,-174.84 c 8.92,-5.16 21.06,-7.492 33.64,-7.191 v 362.602"
         style="fill:#4067b1;fill-opacity:1;fill-rule:nonzero;stroke:none"
         id="path101882"
         inkscape:connector-curvature="0" /><path
         d="m 2630.7751,1386.1359 -26.55,0.02 v -107.461 c -0.52,-7.27 3.53,-14.27 12.45,-19.43 l 14.1,-8.129 v 135"
         style="fill:#5f92d3;fill-opacity:1;fill-rule:nonzero;stroke:none"
         id="path101884"
         inkscape:connector-curvature="0" /><path
         d="m 2924.1651,1082.1359 c 16.04,-6.859 39.22,-6.48 57.97,0.668 v 122.012 h -57.97 v -122.68"
         style="fill:#5f92d3;fill-opacity:1;fill-rule:nonzero;stroke:none"
         id="path101886"
         inkscape:connector-curvature="0" /><path
         d="m 2919.5151,1191.4959 -302.84,174.84 c -18.58,10.738 -16.25,29.48 5.21,41.871 l 292.4,168.818 c 21.47,12.38 53.93,13.73 72.51,3 l 302.83,-174.842 c 18.59,-10.726 16.25,-29.468 -5.2,-41.859 l -292.4,-168.82 c -21.47,-12.387 -53.93,-13.731 -72.51,-3.008"
         style="fill:#d9effb;fill-opacity:1;fill-rule:nonzero;stroke:none"
         id="path101888"
         inkscape:connector-curvature="0" /><path
         d="m 3284.4251,1383.8859 -292.4,-168.82 c -21.47,-12.391 -53.93,-13.742 -72.51,-3 l -302.84,174.828 c -4.14,2.391 -7.18,5.211 -9.26,8.231 -6.39,-10.27 -3.5,-21.418 9.26,-28.789 l 302.84,-174.84 c 18.58,-10.723 51.04,-9.379 72.51,3.008 l 292.4,168.82 c 16.67,9.621 21.74,23.07 14.47,33.641 -2.91,-4.688 -7.75,-9.2 -14.47,-13.079"
         style="fill:#ffffff;fill-opacity:1;fill-rule:nonzero;stroke:none"
         id="path101890"
         inkscape:connector-curvature="0" /><path
         d="m 3190.6951,1253.7069 c 0,-7.813 -5.48,-17.293 -12.23,-21.18 -6.76,-3.91 -12.24,-0.75 -12.24,7.059 0,7.789 5.48,17.281 12.24,21.179 6.75,3.891 12.23,0.739 12.23,-7.058"
         style="fill:#d9effb;fill-opacity:1;fill-rule:nonzero;stroke:none"
         id="path101892"
         inkscape:connector-curvature="0" /><path
         d="m 3230.0451,1276.4139 c 0,-7.789 -5.48,-17.27 -12.23,-21.18 -6.75,-3.898 -12.23,-0.738 -12.23,7.063 0,7.796 5.48,17.289 12.23,21.187 6.75,3.902 12.23,0.731 12.23,-7.07"
         style="fill:#d9effb;fill-opacity:1;fill-rule:nonzero;stroke:none"
         id="path101894"
         inkscape:connector-curvature="0" /><path
         d="m 3269.4051,1299.1439 c 0,-7.808 -5.48,-17.289 -12.24,-21.187 -6.76,-3.903 -12.22,-0.742 -12.22,7.07 0,7.797 5.46,17.277 12.22,21.18 6.76,3.886 12.24,0.738 12.24,-7.063"
         style="fill:#d9effb;fill-opacity:1;fill-rule:nonzero;stroke:none"
         id="path101896"
         inkscape:connector-curvature="0" /><path
         d="m 2937.4151,1299.8939 -141.71,81.813 c -8.69,5.019 -7.61,13.789 2.44,19.59 l 136.83,79.008 c 10.04,5.79 25.23,6.42 33.93,1.4 l 141.71,-81.811 c 8.69,-5.019 7.6,-13.801 -2.44,-19.59 l -136.83,-79.007 c -10.05,-5.801 -25.23,-6.422 -33.93,-1.403"
         style="fill:#5f92d3;fill-opacity:1;fill-rule:nonzero;stroke:none"
         id="path101898"
         inkscape:connector-curvature="0" /><path
         d="m 2950.9751,1368.3939 -19.6,11.321 c -1.21,0.699 -1.05,1.91 0.33,2.718 l 18.94,10.934 c 1.39,0.797 3.49,0.879 4.7,0.187 l 19.6,-11.32 c 1.2,-0.699 1.05,-1.91 -0.34,-2.711 l -18.93,-10.93 c -1.39,-0.796 -3.49,-0.886 -4.7,-0.199"
         style="fill:#d9effb;fill-opacity:1;fill-rule:nonzero;stroke:none"
         id="path101900"
         inkscape:connector-curvature="0" /><path
         d="m 2795.7051,1381.7069 0.4,-0.231 2.04,1.41 136.83,78.989 c 10.04,5.8 25.23,6.429 33.93,1.41 l 141.31,-81.59 c 8.01,5.75 8.43,13.559 0.4,18.199 l -141.71,81.811 c -8.7,5.02 -23.89,4.39 -33.93,-1.4 l -136.83,-79.008 c -10.05,-5.801 -11.13,-14.571 -2.44,-19.59"
         style="fill:#4067b1;fill-opacity:1;fill-rule:nonzero;stroke:none"
         id="path101902"
         inkscape:connector-curvature="0" /><path
         d="m 4030.6251,876.33593 c -10.85,0 -21.21,2.191 -28.96,6.66 l -466.28,269.21097 c -17.09,9.867 -14.94,27.09 4.79,38.488 l 122.23,70.75 346.73,-200.18 c 4.95,-2.859 9.67,-4.218 13.94,-4.218 3.86,0 7.37,1.109 10.36,3.207 l 397.11,229.043 136.78,-78.973 c 17.09,-9.867 14.95,-27.098 -4.79,-38.5 l -494.21,-286.05897 c -10.78,-6.23 -24.6,-9.429 -37.7,-9.429"
         style="fill:#899abf;fill-opacity:1;fill-rule:nonzero;stroke:none"
         id="path101904"
         inkscape:connector-curvature="0" /><g
         id="g101906"
         transform="translate(-1039.1949,476.69493)"><g
           id="g101908"
           clip-path="url(#clipPath101912)"><path
             d="m 5617.11,912.68 -498.56,287.85 c -19.39,11.19 -35.11,41.22 -35.11,67.07 v 1193.1 c 0,25.85 15.72,37.73 35.11,26.54 l 498.56,-287.85 c 19.4,-11.2 35.11,-41.23 35.11,-67.08 V 939.219 c 0,-25.86 -15.71,-37.731 -35.11,-26.539"
             style="fill:url(#linearGradient101918);fill-opacity:1;fill-rule:nonzero;stroke:none"
             id="path101920"
             inkscape:connector-curvature="0" /></g></g><path
         d="m 4577.9151,2676.0849 -498.56,287.85 c -8.67,5 -16.59,5.36 -22.72,1.96 l -569.19,-328.37 26.81,-99.25 519.01,-1478.119 566.92,326.98 0.27,0.161 1.01,0.589 -0.01,0.039 c 7.09,4.469 11.57,14.219 11.57,27.989 v 1193.091 c 0,25.85 -15.71,55.88 -35.11,67.08"
         style="fill:#4067b1;fill-opacity:1;fill-rule:nonzero;stroke:none"
         id="path101922"
         inkscape:connector-curvature="0" /><path
         d="m 4577.9151,2676.0849 -498.56,287.85 c -8.67,5 -16.59,5.36 -22.72,1.96 l -569.19,-328.37 26.81,-99.25 142.73,-406.47 26.86,-15.5 919.37,530.8 c -6.39,12.53 -15.35,23.24 -25.3,28.98"
         style="fill:#d9effb;fill-opacity:1;fill-rule:nonzero;stroke:none"
         id="path101924"
         inkscape:connector-curvature="0" /><path
         d="m 4009.1351,1061.2649 -498.57,287.852 c -19.38,11.199 -35.11,41.226 -35.11,67.078 v 1193.08 c 0,25.86 15.73,37.75 35.11,26.55 l 498.57,-287.86 c 19.39,-11.19 35.11,-41.22 35.11,-67.07 v -1193.091 c 0,-25.847 -15.72,-37.738 -35.11,-26.539"
         style="fill:#5f92d3;fill-opacity:1;fill-rule:nonzero;stroke:none"
         id="path101926"
         inkscape:connector-curvature="0" /><g
         id="g101928"
         transform="translate(-1039.1949,476.69493)"><g
           id="g101930"
           clip-path="url(#clipPath101934)"><path
             d="m 5016.97,656.391 -435.84,251.64 c -16.96,9.789 -30.7,36.039 -30.7,58.641 V 2074.71 c 0,22.6 13.74,32.99 30.7,23.21 l 435.84,-251.65 c 16.95,-9.78 30.69,-36.03 30.69,-58.63 V 679.602 c 0,-22.602 -13.74,-32.993 -30.69,-23.211"
             style="fill:url(#linearGradient101940);fill-opacity:1;fill-rule:nonzero;stroke:none"
             id="path101942"
             inkscape:connector-curvature="0" /><path
             d="m 5016.97,656.391 -435.84,251.64 c -16.96,9.789 -30.7,36.039 -30.7,58.641 V 2074.71 c 0,22.6 13.74,32.99 30.7,23.21 l 435.84,-251.65 c 16.95,-9.78 30.69,-36.03 30.69,-58.63 V 679.602 c 0,-22.602 -13.74,-32.993 -30.69,-23.211"
             style="fill:url(#linearGradient101948);fill-opacity:1;fill-rule:nonzero;stroke:none"
             id="path101950"
             inkscape:connector-curvature="0" /></g></g><path
         d="m 3977.7751,1133.0859 -435.84,251.64 c -16.96,9.789 -30.7,36.039 -30.7,58.641 v 1108.038 c 0,22.6 13.74,32.99 30.7,23.21 l 435.84,-251.65 c 16.95,-9.78 30.69,-36.03 30.69,-58.63 v -1108.038 c 0,-22.602 -13.74,-32.993 -30.69,-23.211"
         style="fill:#263c7a;fill-opacity:1;fill-rule:nonzero;stroke:none"
         id="path101952"
         inkscape:connector-curvature="0" /><path
         d="m 3992.0151,1141.4649 -435.84,251.628 c -16.96,9.801 -30.7,36.051 -30.7,58.641 v 1108.051 c 0,7.71 1.63,13.95 4.41,18.5 -10.96,0.08 -18.65,-9.98 -18.65,-26.88 v -1108.038 c 0,-22.602 13.74,-48.852 30.7,-58.641 l 435.84,-251.64 c 11.17,-6.442 20.92,-4.09 26.29,4.711 -3.7,0.027 -7.78,1.199 -12.05,3.668"
         style="fill:#4067b1;fill-opacity:1;fill-rule:nonzero;stroke:none"
         id="path101954"
         inkscape:connector-curvature="0" /><path
         d="m 3977.7751,1641.8049 -161.99,93.54 -258.37,-149.18 451.05,-260.411 v 257.411 c 0,22.61 -13.74,48.86 -30.69,58.64"
         style="fill:#263c7a;fill-opacity:1;fill-rule:nonzero;stroke:none"
         id="path101956"
         inkscape:connector-curvature="0" /><path
         d="m 3977.7751,1868.8649 -161.99,93.53 -258.37,-149.17 451.05,-260.42 v 257.42 c 0,22.6 -13.74,48.86 -30.69,58.64"
         style="fill:#263c7a;fill-opacity:1;fill-rule:nonzero;stroke:none"
         id="path101958"
         inkscape:connector-curvature="0" /><path
         d="m 3977.7751,2095.9149 -161.99,93.53 -258.37,-149.17 451.05,-260.42 v 257.42 c 0,22.61 -13.74,48.86 -30.69,58.64"
         style="fill:#263c7a;fill-opacity:1;fill-rule:nonzero;stroke:none"
         id="path101960"
         inkscape:connector-curvature="0" /><path
         d="m 3977.7751,2322.9649 -161.99,93.54 -258.37,-149.17 451.05,-260.42 v 257.42 c 0,22.6 -13.74,48.86 -30.69,58.63"
         style="fill:#263c7a;fill-opacity:1;fill-rule:nonzero;stroke:none"
         id="path101962"
         inkscape:connector-curvature="0" /><path
         d="m 3977.7751,2322.9649 -358.63,207.06 -61.73,-35.63 451.05,-260.42 v 30.36 c 0,22.6 -13.74,48.86 -30.69,58.63"
         style="fill:#263c7a;fill-opacity:1;fill-rule:nonzero;stroke:none"
         id="path101964"
         inkscape:connector-curvature="0" /><path
         d="m 4008.4651,2233.9749 -451.05,260.42 v -143.52 l 451.05,-260.42 v 143.52"
         style="fill:#5f92d3;fill-opacity:1;fill-rule:nonzero;stroke:none"
         id="path101966"
         inkscape:connector-curvature="0" /><path
         d="m 4008.4651,2006.9149 -451.05,260.42 v -143.51 l 451.05,-260.42 v 143.51"
         style="fill:#5f92d3;fill-opacity:1;fill-rule:nonzero;stroke:none"
         id="path101968"
         inkscape:connector-curvature="0" /><path
         d="m 4008.4651,1779.8649 -451.05,260.42 v -143.52 l 451.05,-260.42 v 143.52"
         style="fill:#5f92d3;fill-opacity:1;fill-rule:nonzero;stroke:none"
         id="path101970"
         inkscape:connector-curvature="0" /><path
         d="m 4008.4651,1552.8049 -451.05,260.42 v -143.51 l 451.05,-260.418 v 143.508"
         style="fill:#5f92d3;fill-opacity:1;fill-rule:nonzero;stroke:none"
         id="path101972"
         inkscape:connector-curvature="0" /><path
         d="m 4008.4651,1325.7539 -451.05,260.421 v -143.519 l 451.05,-260.41 v 143.508"
         style="fill:#5f92d3;fill-opacity:1;fill-rule:nonzero;stroke:none"
         id="path101974"
         inkscape:connector-curvature="0" /><path
         d="m 3968.6851,2141.6049 -339.74,196.15 c -9.59,5.54 -17.37,20.39 -17.37,33.18 v 38.43 c 0,12.79 7.78,18.67 17.37,13.14 l 339.74,-196.16 c 9.59,-5.53 17.37,-20.39 17.37,-33.18 v -38.43 c 0,-12.79 -7.78,-18.67 -17.37,-13.13"
         style="fill:#263c7a;fill-opacity:1;fill-rule:nonzero;stroke:none"
         id="path101976"
         inkscape:connector-curvature="0" /><g
         id="g101978"
         transform="translate(-1039.1949,476.69493)"><g
           id="g101980"
           clip-path="url(#clipPath101984)"><path
             d="m 4650.77,1664.78 h 357.332 v 283.109 H 4650.77 Z"
             style="fill:#4262a9;fill-opacity:1;fill-rule:nonzero;stroke:none"
             id="path101986"
             inkscape:connector-curvature="0" /></g></g><path
         d="m 3975.5151,2139.5349 c -2.03,0 -4.26,0.62 -6.61,1.94 -0.02,0.01 -0.04,0.02 -0.07,0.04 -0.01,0.01 -0.03,0.01 -0.04,0.02 -0.04,0.02 -0.08,0.04 -0.11,0.07 l -339.74,196.15 c -9.59,5.54 -17.37,20.39 -17.37,33.18 v 38.43 c 0,0.04 0,0.07 0,0.11 0.03,9.42 4.3,15.06 10.4,15.11 0.03,0 0.05,0 0.08,0 0.01,0 0.03,0 0.04,0 2.11,-0.01 4.42,-0.68 6.85,-2.08 v 0 l 0.44,-0.26 c -0.37,-1.67 -0.64,-3.47 -0.64,-5.52 v -38.42 c 0,-12.8 7.78,-27.66 17.37,-33.2 l 339.3,-195.88 c -1.37,-6.14 -5.05,-9.69 -9.9,-9.69"
         style="fill:#242f64;fill-opacity:1;fill-rule:nonzero;stroke:none"
         id="path101988"
         inkscape:connector-curvature="0" /><path
         d="m 3862.0651,2246.9449 -204.44,118.04 c -3.37,1.94 -6.1,7.16 -6.1,11.67 0,4.5 2.73,6.56 6.1,4.62 l 204.44,-118.04 c 3.38,-1.95 6.12,-7.18 6.12,-11.67 0,-4.5 -2.74,-6.57 -6.12,-4.62"
         style="fill:#ffffff;fill-opacity:1;fill-rule:nonzero;stroke:none"
         id="path101990"
         inkscape:connector-curvature="0" /><path
         d="m 3968.6851,1915.9449 -339.74,196.16 c -9.59,5.53 -17.37,20.39 -17.37,33.18 v 38.44 c 0,12.78 7.78,18.66 17.37,13.12 l 339.74,-196.15 c 9.59,-5.54 17.37,-20.39 17.37,-33.19 v -38.42 c 0,-12.79 -7.78,-18.67 -17.37,-13.14"
         style="fill:#263c7a;fill-opacity:1;fill-rule:nonzero;stroke:none"
         id="path101992"
         inkscape:connector-curvature="0" /><path
         d="m 3969.5851,1915.4549 v 0 0 m -0.11,0.06 c -0.26,0.13 -0.53,0.28 -0.79,0.43 l -339.74,196.16 c -9.59,5.53 -17.37,20.39 -17.37,33.18 v 0 c 0,-12.79 7.78,-27.65 17.37,-33.18 l 339.74,-196.16 c 0.26,-0.15 0.53,-0.3 0.79,-0.43 m -357.9,268.32 c 0.03,9.41 4.3,15.05 10.4,15.09 -6.1,-0.04 -10.37,-5.68 -10.4,-15.09 m 17.81,12.76 -0.44,0.25 0.44,-0.25 v 0 m -7.3,2.34 c -0.01,0 -0.02,0 -0.03,0 v 0 c 0.01,0 0.02,0 0.03,0"
         style="fill:#4262a9;fill-opacity:1;fill-rule:nonzero;stroke:none"
         id="path101994"
         inkscape:connector-curvature="0" /><path
         d="m 3975.5151,1913.8849 c -1.83,0 -3.83,0.5 -5.93,1.57 v 0 c -0.04,0.02 -0.07,0.04 -0.11,0.06 -0.26,0.13 -0.53,0.28 -0.79,0.43 l -339.74,196.16 c -9.59,5.53 -17.37,20.39 -17.37,33.18 v 38.44 c 0,0.03 0,0.07 0,0.11 0.03,9.41 4.3,15.05 10.4,15.09 0.03,0.01 0.05,0.01 0.08,0.01 0.01,0 0.02,0 0.03,0 2.1,-0.01 4.42,-0.68 6.86,-2.09 v 0 l 0.44,-0.25 c -0.37,-1.67 -0.64,-3.47 -0.64,-5.52 v -38.43 c 0,-12.79 7.78,-27.64 17.37,-33.19 l 339.3,-195.89 c -1.37,-6.14 -5.06,-9.68 -9.9,-9.68"
         style="fill:#242f64;fill-opacity:1;fill-rule:nonzero;stroke:none"
         id="path101996"
         inkscape:connector-curvature="0" /><path
         d="m 3862.0651,2021.2849 -204.44,118.04 c -3.37,1.95 -6.1,7.17 -6.1,11.67 0,4.5 2.73,6.56 6.1,4.62 l 204.44,-118.04 c 3.38,-1.94 6.12,-7.17 6.12,-11.67 0,-4.5 -2.74,-6.57 -6.12,-4.62"
         style="fill:#ffffff;fill-opacity:1;fill-rule:nonzero;stroke:none"
         id="path101998"
         inkscape:connector-curvature="0" /><path
         d="m 3968.6851,1688.1949 -339.74,196.15 c -9.59,5.54 -17.37,20.39 -17.37,33.18 v 38.43 c 0,12.8 7.78,18.67 17.37,13.14 l 339.74,-196.15 c 9.59,-5.54 17.37,-20.4 17.37,-33.19 v -38.43 c 0,-12.79 -7.78,-18.67 -17.37,-13.13"
         style="fill:#263c7a;fill-opacity:1;fill-rule:nonzero;stroke:none"
         id="path102000"
         inkscape:connector-curvature="0" /><path
         d="m 3969.4751,1687.7549 c -0.02,0.02 -0.04,0.03 -0.06,0.04 0.02,-0.01 0.04,-0.03 0.06,-0.04 m -0.11,0.06 c -0.23,0.12 -0.45,0.25 -0.68,0.38 l -339.74,196.15 c -9.59,5.54 -17.37,20.39 -17.37,33.18 v 0 c 0,-12.79 7.78,-27.64 17.37,-33.18 l 339.74,-196.15 c 0.23,-0.13 0.45,-0.26 0.68,-0.38 m -357.79,268.14 c 0,9.51 4.3,15.2 10.44,15.22 -6.14,-0.02 -10.44,-5.71 -10.44,-15.22 m 17.81,12.88 -0.44,0.26 0.44,-0.26 v 0 m -0.44,0.26 c -0.08,0.04 -0.15,0.09 -0.23,0.13 0.08,-0.04 0.15,-0.09 0.23,-0.13 m -6.86,2.08 c -0.01,0 -0.02,0 -0.03,0 v 0 c 0.01,0 0.02,0 0.03,0"
         style="fill:#4262a9;fill-opacity:1;fill-rule:nonzero;stroke:none"
         id="path102002"
         inkscape:connector-curvature="0" /><path
         d="m 3975.5151,1686.1249 c -1.86,0 -3.9,0.53 -6.04,1.63 -0.02,0.01 -0.04,0.03 -0.06,0.04 -0.02,0 -0.03,0.01 -0.05,0.02 -0.23,0.12 -0.45,0.25 -0.68,0.38 l -339.74,196.15 c -9.59,5.54 -17.37,20.39 -17.37,33.18 v 38.43 0 c 0,9.51 4.3,15.2 10.44,15.22 0.01,0 0.02,0 0.04,0 0.01,0 0.02,0 0.03,0 2.04,-0.01 4.28,-0.63 6.63,-1.95 0.08,-0.04 0.15,-0.09 0.23,-0.13 v 0 l 0.44,-0.26 c -0.37,-1.67 -0.64,-3.47 -0.64,-5.51 v -38.44 c 0,-12.79 7.78,-27.65 17.37,-33.18 l 339.3,-195.9 c -1.37,-6.13 -5.05,-9.68 -9.9,-9.68"
         style="fill:#242f64;fill-opacity:1;fill-rule:nonzero;stroke:none"
         id="path102004"
         inkscape:connector-curvature="0" /><path
         d="m 3862.0651,1793.5349 -204.44,118.03 c -3.37,1.95 -6.1,7.18 -6.1,11.68 0,4.5 2.73,6.56 6.1,4.62 l 204.44,-118.04 c 3.38,-1.95 6.12,-7.18 6.12,-11.67 0,-4.5 -2.74,-6.57 -6.12,-4.62"
         style="fill:#d9effb;fill-opacity:1;fill-rule:nonzero;stroke:none"
         id="path102006"
         inkscape:connector-curvature="0" /><path
         d="m 3968.6851,1458.3429 -339.74,196.142 c -9.59,5.54 -17.37,20.4 -17.37,33.18 v 38.44 c 0,12.79 7.78,18.67 17.37,13.12 l 339.74,-196.14 c 9.59,-5.54 17.37,-20.4 17.37,-33.18 v -38.44 c 0,-12.79 -7.78,-18.661 -17.37,-13.122"
         style="fill:#263c7a;fill-opacity:1;fill-rule:nonzero;stroke:none"
         id="path102008"
         inkscape:connector-curvature="0" /><path
         d="m 3972.0251,1456.8359 c -1.08,0.339 -2.2,0.839 -3.34,1.507 l -339.74,196.142 c -9.59,5.54 -17.37,20.4 -17.37,33.18 v 0 c 0,-12.78 7.78,-27.64 17.37,-33.18 l 339.74,-196.142 c 1.14,-0.66 2.26,-1.156 3.34,-1.507 m -360.45,269.269 c 0,9.5 4.29,15.19 10.43,15.21 -6.14,-0.02 -10.43,-5.71 -10.43,-15.21 m 17.81,12.87 -0.44,0.25 0.44,-0.24 v -0.01 m -7.34,2.34 v 0 0 0"
         style="fill:#4262a9;fill-opacity:1;fill-rule:nonzero;stroke:none"
         id="path102010"
         inkscape:connector-curvature="0" /><path
         d="m 3975.5251,1456.2649 c -1.11,0 -2.28,0.192 -3.5,0.571 -1.08,0.351 -2.2,0.847 -3.34,1.507 l -339.74,196.142 c -9.59,5.54 -17.37,20.4 -17.37,33.18 v 38.44 0 c 0,9.5 4.29,15.19 10.43,15.21 0.01,0 0.03,0 0.04,0 v 0 c 2.11,0 4.45,-0.67 6.9,-2.09 v 0 l 0.44,-0.25 c -0.37,-1.68 -0.64,-3.47 -0.64,-5.52 v -38.43 c 0,-12.79 7.78,-27.64 17.37,-33.18 l 339.3,-195.9 c -1.37,-6.129 -5.05,-9.68 -9.89,-9.68"
         style="fill:#242f64;fill-opacity:1;fill-rule:nonzero;stroke:none"
         id="path102012"
         inkscape:connector-curvature="0" /><path
         d="m 3862.0651,1563.6749 -204.44,118.03 c -3.37,1.95 -6.1,7.18 -6.1,11.67 0,4.51 2.73,6.58 6.1,4.62 l 204.44,-118.02 c 3.38,-1.96 6.12,-7.18 6.12,-11.68 0,-4.51 -2.74,-6.57 -6.12,-4.62"
         style="fill:#ee1696;fill-opacity:1;fill-rule:nonzero;stroke:none"
         id="path102014"
         inkscape:connector-curvature="0" /><path
         d="m 3968.6851,1233.0349 -339.74,196.148 c -9.59,5.532 -17.37,20.403 -17.37,33.184 v 38.438 c 0,12.79 7.78,18.67 17.37,13.12 l 339.74,-196.14 c 9.59,-5.539 17.37,-20.399 17.37,-33.18 v -38.441 c 0,-12.789 -7.78,-18.668 -17.37,-13.129"
         style="fill:#263c7a;fill-opacity:1;fill-rule:nonzero;stroke:none"
         id="path102016"
         inkscape:connector-curvature="0" /><path
         d="m 3969.5851,1232.5469 c -0.01,0.01 -0.03,0.019 -0.05,0.027 0.02,-0.01 0.04,-0.02 0.05,-0.027 m -0.11,0.058 c -0.26,0.129 -0.53,0.281 -0.79,0.43 l -339.74,196.148 c -9.59,5.532 -17.37,20.403 -17.37,33.184 v 0 c 0,-12.781 7.78,-27.652 17.37,-33.184 l 339.74,-196.148 c 0.26,-0.149 0.53,-0.301 0.79,-0.43 m -357.9,268.2 c 0,9.5 4.29,15.19 10.43,15.21 -6.14,-0.02 -10.43,-5.71 -10.43,-15.21 m 17.81,12.87 -0.44,0.25 0.44,-0.24 c 0,-0.01 0,-0.01 0,-0.01 m -7.34,2.34 v 0 0 0"
         style="fill:#4262a9;fill-opacity:1;fill-rule:nonzero;stroke:none"
         id="path102018"
         inkscape:connector-curvature="0" /><path
         d="m 3975.5251,1230.9649 c -1.84,0 -3.83,0.511 -5.94,1.582 -0.01,0.01 -0.03,0.019 -0.05,0.027 -0.02,0.012 -0.04,0.019 -0.06,0.031 -0.26,0.129 -0.53,0.281 -0.79,0.43 l -339.74,196.148 c -9.59,5.532 -17.37,20.403 -17.37,33.184 v 38.438 0 c 0,9.5 4.29,15.19 10.43,15.21 0.01,0 0.03,0 0.04,0 v 0 c 2.11,0 4.45,-0.67 6.9,-2.09 v 0 l 0.44,-0.25 c -0.37,-1.68 -0.64,-3.47 -0.64,-5.52 v -38.429 c 0,-12.793 7.78,-27.64 17.37,-33.179 l 339.3,-195.903 c -1.37,-6.129 -5.05,-9.679 -9.89,-9.679"
         style="fill:#242f64;fill-opacity:1;fill-rule:nonzero;stroke:none"
         id="path102020"
         inkscape:connector-curvature="0" /><path
         d="m 3862.0651,1338.3669 -204.44,118.039 c -3.37,1.949 -6.1,7.18 -6.1,11.668 0,4.5 2.73,6.57 6.1,4.621 l 204.44,-118.031 c 3.38,-1.949 6.12,-7.168 6.12,-11.68 0,-4.5 -2.74,-6.559 -6.12,-4.617"
         style="fill:#d9effb;fill-opacity:1;fill-rule:nonzero;stroke:none"
         id="path102022"
         inkscape:connector-curvature="0" /><path
         d="m 3592.9251,2330.3749 -35.51,20.5 35.51,-20.5 v 0"
         style="fill:#263c7a;fill-opacity:1;fill-rule:nonzero;stroke:none"
         id="path102024"
         inkscape:connector-curvature="0" /><path
         d="m 3592.9251,2330.3749 -35.51,20.5 v 143.52 l 35.51,-20.51 v -143.51"
         style="fill:#3e63ab;fill-opacity:1;fill-rule:nonzero;stroke:none"
         id="path102026"
         inkscape:connector-curvature="0" /><path
         d="m 3592.9251,2103.3249 -35.51,20.5 35.51,-20.5 v 0"
         style="fill:#263c7a;fill-opacity:1;fill-rule:nonzero;stroke:none"
         id="path102028"
         inkscape:connector-curvature="0" /><path
         d="m 3592.9251,2103.3249 -35.51,20.5 v 143.51 l 35.51,-20.51 v -143.5"
         style="fill:#3e63ab;fill-opacity:1;fill-rule:nonzero;stroke:none"
         id="path102030"
         inkscape:connector-curvature="0" /><path
         d="m 3592.9251,1876.2649 -35.51,20.5 35.51,-20.5 v 0"
         style="fill:#263c7a;fill-opacity:1;fill-rule:nonzero;stroke:none"
         id="path102032"
         inkscape:connector-curvature="0" /><path
         d="m 3592.9251,1876.2649 -35.51,20.5 v 143.52 l 35.51,-20.51 v -143.51"
         style="fill:#3e63ab;fill-opacity:1;fill-rule:nonzero;stroke:none"
         id="path102034"
         inkscape:connector-curvature="0" /><path
         d="m 3592.9251,1649.2149 -35.51,20.5 35.51,-20.5 v 0"
         style="fill:#263c7a;fill-opacity:1;fill-rule:nonzero;stroke:none"
         id="path102036"
         inkscape:connector-curvature="0" /><path
         d="m 3592.9251,1649.2149 -35.51,20.5 v 143.51 l 35.51,-20.51 v -143.5"
         style="fill:#3e63ab;fill-opacity:1;fill-rule:nonzero;stroke:none"
         id="path102038"
         inkscape:connector-curvature="0" /><path
         d="m 3592.9251,1422.1439 -35.51,20.512 35.51,-20.5 v -0.012"
         style="fill:#263c7a;fill-opacity:1;fill-rule:nonzero;stroke:none"
         id="path102040"
         inkscape:connector-curvature="0" /><path
         d="m 3592.9251,1422.1559 -35.51,20.5 v 143.519 l 35.51,-20.51 v -143.521"
         style="fill:#3e63ab;fill-opacity:1;fill-rule:nonzero;stroke:none"
         id="path102042"
         inkscape:connector-curvature="0" /><path
         d="m 3902.3551,2232.7749 c 0,-4.59 -3.22,-6.45 -7.2,-4.16 -3.96,2.29 -7.19,7.87 -7.19,12.46 0,4.59 3.23,6.45 7.19,4.15 3.98,-2.29 7.2,-7.87 7.2,-12.45"
         style="fill:#d9effb;fill-opacity:1;fill-rule:nonzero;stroke:none"
         id="path102044"
         inkscape:connector-curvature="0" /><path
         d="m 3932.8451,2215.1649 c 0,-4.59 -3.23,-6.44 -7.2,-4.15 -3.97,2.3 -7.19,7.87 -7.19,12.45 0,4.59 3.22,6.45 7.19,4.16 3.97,-2.29 7.2,-7.87 7.2,-12.46"
         style="fill:#ee1696;fill-opacity:1;fill-rule:nonzero;stroke:none"
         id="path102046"
         inkscape:connector-curvature="0" /><path
         d="m 3963.3251,2197.5649 c 0,-4.59 -3.22,-6.44 -7.18,-4.16 -3.98,2.3 -7.2,7.87 -7.2,12.46 0,4.58 3.22,6.45 7.2,4.16 3.96,-2.3 7.18,-7.88 7.18,-12.46"
         style="fill:#d9effb;fill-opacity:1;fill-rule:nonzero;stroke:none"
         id="path102048"
         inkscape:connector-curvature="0" /><path
         d="m 3902.3551,2005.8349 c 0,-4.59 -3.22,-6.45 -7.2,-4.15 -3.96,2.29 -7.19,7.87 -7.19,12.45 0,4.59 3.23,6.44 7.19,4.15 3.98,-2.29 7.2,-7.86 7.2,-12.45"
         style="fill:#ee1696;fill-opacity:1;fill-rule:nonzero;stroke:none"
         id="path102050"
         inkscape:connector-curvature="0" /><path
         d="m 3932.8451,1988.2249 c 0,-4.58 -3.23,-6.44 -7.2,-4.15 -3.97,2.29 -7.19,7.87 -7.19,12.46 0,4.58 3.22,6.44 7.19,4.15 3.97,-2.3 7.2,-7.87 7.2,-12.46"
         style="fill:#d9effb;fill-opacity:1;fill-rule:nonzero;stroke:none"
         id="path102052"
         inkscape:connector-curvature="0" /><path
         d="m 3963.3251,1970.6249 c 0,-4.59 -3.22,-6.44 -7.18,-4.15 -3.98,2.3 -7.2,7.87 -7.2,12.45 0,4.59 3.22,6.45 7.2,4.15 3.96,-2.28 7.18,-7.86 7.18,-12.45"
         style="fill:#ffffff;fill-opacity:1;fill-rule:nonzero;stroke:none"
         id="path102054"
         inkscape:connector-curvature="0" /><path
         d="m 3902.3551,1777.1749 c 0,-4.59 -3.22,-6.44 -7.2,-4.15 -3.96,2.29 -7.19,7.86 -7.19,12.45 0,4.59 3.23,6.45 7.19,4.15 3.98,-2.29 7.2,-7.87 7.2,-12.45"
         style="fill:#ffffff;fill-opacity:1;fill-rule:nonzero;stroke:none"
         id="path102056"
         inkscape:connector-curvature="0" /><path
         d="m 3932.8451,1759.5749 c 0,-4.58 -3.23,-6.45 -7.2,-4.15 -3.97,2.29 -7.19,7.87 -7.19,12.46 0,4.58 3.22,6.44 7.19,4.15 3.97,-2.3 7.2,-7.87 7.2,-12.46"
         style="fill:#ee1696;fill-opacity:1;fill-rule:nonzero;stroke:none"
         id="path102058"
         inkscape:connector-curvature="0" /><path
         d="m 3963.3251,1741.9749 c 0,-4.59 -3.22,-6.45 -7.18,-4.15 -3.98,2.28 -7.2,7.86 -7.2,12.45 0,4.59 3.22,6.44 7.2,4.15 3.96,-2.3 7.18,-7.87 7.18,-12.45"
         style="fill:#ffffff;fill-opacity:1;fill-rule:nonzero;stroke:none"
         id="path102060"
         inkscape:connector-curvature="0" /><path
         d="m 3902.3551,1551.8549 c 0,-4.59 -3.22,-6.44 -7.2,-4.15 -3.96,2.29 -7.19,7.86 -7.19,12.45 0,4.59 3.23,6.45 7.19,4.15 3.98,-2.29 7.2,-7.87 7.2,-12.45"
         style="fill:#ffffff;fill-opacity:1;fill-rule:nonzero;stroke:none"
         id="path102062"
         inkscape:connector-curvature="0" /><path
         d="m 3932.8451,1534.2449 c 0,-4.58 -3.23,-6.44 -7.2,-4.15 -3.97,2.3 -7.19,7.87 -7.19,12.45 0,4.59 3.22,6.45 7.19,4.16 3.97,-2.29 7.2,-7.87 7.2,-12.46"
         style="fill:#d9effb;fill-opacity:1;fill-rule:nonzero;stroke:none"
         id="path102064"
         inkscape:connector-curvature="0" /><path
         d="m 3963.3251,1516.6549 c 0,-4.59 -3.22,-6.45 -7.18,-4.16 -3.98,2.29 -7.2,7.87 -7.2,12.46 0,4.59 3.22,6.44 7.2,4.15 3.96,-2.3 7.18,-7.87 7.18,-12.45"
         style="fill:#d9effb;fill-opacity:1;fill-rule:nonzero;stroke:none"
         id="path102066"
         inkscape:connector-curvature="0" /><path
         d="m 3902.3551,1323.4569 c 0,-4.59 -3.22,-6.442 -7.2,-4.153 -3.96,2.289 -7.19,7.86 -7.19,12.45 0,4.589 3.23,6.453 7.19,4.152 3.98,-2.289 7.2,-7.871 7.2,-12.449"
         style="fill:#ffffff;fill-opacity:1;fill-rule:nonzero;stroke:none"
         id="path102068"
         inkscape:connector-curvature="0" /><path
         d="m 3932.8451,1305.8549 c 0,-4.578 -3.23,-6.449 -7.2,-4.16 -3.97,2.301 -7.19,7.879 -7.19,12.469 0,4.582 3.22,6.441 7.19,4.152 3.97,-2.301 7.2,-7.871 7.2,-12.461"
         style="fill:#ee1696;fill-opacity:1;fill-rule:nonzero;stroke:none"
         id="path102070"
         inkscape:connector-curvature="0" /><path
         d="m 3963.3251,1288.2539 c 0,-4.59 -3.22,-6.45 -7.18,-4.149 -3.98,2.281 -7.2,7.86 -7.2,12.449 0,4.59 3.22,6.442 7.2,4.153 3.96,-2.301 7.18,-7.871 7.18,-12.453"
         style="fill:#d9effb;fill-opacity:1;fill-rule:nonzero;stroke:none"
         id="path102072"
         inkscape:connector-curvature="0" /><path
         d="m 4127.7451,2233.6049 v -996.5 l 409.87,236.641 v 996.499 z m -8.41,-1011.07 v 1015.93 l 2.11,1.21 424.58,245.14 v -1015.94 l -2.1,-1.2 -424.59,-245.14"
         style="fill:#263c7a;fill-opacity:1;fill-rule:nonzero;stroke:none"
         id="path102074"
         inkscape:connector-curvature="0" /><path
         d="m 4435.7351,2027.7149 -190.38,-109.92 c -12.79,-7.38 -23.16,0.46 -23.16,17.51 v 105.56 c 0,17.05 10.37,36.85 23.16,44.23 l 190.38,109.93 c 12.79,7.38 23.15,-0.46 23.15,-17.51 v -105.56 c 0,-17.05 -10.36,-36.86 -23.15,-44.24"
         style="fill:#263c7a;fill-opacity:1;fill-rule:nonzero;stroke:none"
         id="path102076"
         inkscape:connector-curvature="0" /><path
         d="m 4440.3551,2197.0649 c 1.08,-2.95 1.71,-6.49 1.71,-10.59 v -105.56 c 0,-17.05 -10.37,-36.85 -23.15,-44.23 l -190.38,-109.93 c -1.58,-0.9 -3.13,-1.58 -4.62,-2.04 3.44,-9.32 11.73,-12.53 21.44,-6.92 l 190.38,109.92 c 12.79,7.38 23.15,27.19 23.15,44.24 v 105.56 c 0,14.94 -7.96,22.8 -18.53,19.55"
         style="fill:#5f92d3;fill-opacity:1;fill-rule:nonzero;stroke:none"
         id="path102078"
         inkscape:connector-curvature="0" /><path
         d="m 4400.9551,2091.2749 c 3.53,2.04 6.38,0.4 6.38,-3.67 v -24.05 c 0,-4.06 -2.85,-9 -6.38,-11.03 -3.51,-2.04 -6.37,-0.39 -6.37,3.68 v 24.04 c 0,4.06 2.86,9 6.37,11.03"
         style="fill:#ffffff;fill-opacity:1;fill-rule:nonzero;stroke:none"
         id="path102080"
         inkscape:connector-curvature="0" /><path
         d="m 4373.6551,2072.5149 c 3.51,2.03 6.36,0.38 6.36,-3.69 v -21.03 c 0,-4.07 -2.85,-9.01 -6.36,-11.05 -3.53,-2.03 -6.38,-0.38 -6.38,3.69 v 21.04 c 0,4.06 2.85,9 6.38,11.04"
         style="fill:#d9effb;fill-opacity:1;fill-rule:nonzero;stroke:none"
         id="path102082"
         inkscape:connector-curvature="0" /><path
         d="m 4346.3351,2080.2149 c 3.52,2.03 6.38,0.39 6.38,-3.68 v -44.51 c 0,-4.07 -2.86,-9.01 -6.38,-11.04 -3.52,-2.03 -6.37,-0.39 -6.37,3.68 v 44.52 c 0,4.06 2.85,9 6.37,11.03"
         style="fill:#ee1696;fill-opacity:1;fill-rule:nonzero;stroke:none"
         id="path102084"
         inkscape:connector-curvature="0" /><path
         d="m 4319.0251,2090.0949 c 3.52,2.03 6.37,0.38 6.37,-3.68 v -70.16 c 0,-4.07 -2.85,-9.01 -6.37,-11.04 -3.52,-2.03 -6.37,-0.38 -6.37,3.68 v 70.17 c 0,4.06 2.85,9 6.37,11.03"
         style="fill:#d9effb;fill-opacity:1;fill-rule:nonzero;stroke:none"
         id="path102086"
         inkscape:connector-curvature="0" /><path
         d="m 4291.7151,2066.9749 c 3.52,2.03 6.37,0.38 6.37,-3.68 v -62.81 c 0,-4.06 -2.85,-9 -6.37,-11.03 -3.52,-2.03 -6.37,-0.39 -6.37,3.67 v 62.81 c 0,4.07 2.85,9.01 6.37,11.04"
         style="fill:#d9effb;fill-opacity:1;fill-rule:nonzero;stroke:none"
         id="path102088"
         inkscape:connector-curvature="0" /><path
         d="m 4264.4051,2022.5149 c 3.52,2.03 6.38,0.38 6.38,-3.69 v -34.11 c 0,-4.06 -2.86,-9 -6.38,-11.03 -3.52,-2.03 -6.37,-0.38 -6.37,3.68 v 34.11 c 0,4.06 2.85,9 6.37,11.04"
         style="fill:#ffffff;fill-opacity:1;fill-rule:nonzero;stroke:none"
         id="path102090"
         inkscape:connector-curvature="0" /><path
         d="m 4394.6851,2103.4249 c 0,-3.99 2.81,-5.61 6.27,-3.61 3.47,1.99 6.27,6.86 6.27,10.85 0,3.99 -2.8,5.61 -6.27,3.62 -3.46,-2 -6.27,-6.86 -6.27,-10.86"
         style="fill:#ee1696;fill-opacity:1;fill-rule:nonzero;stroke:none"
         id="path102092"
         inkscape:connector-curvature="0" /><path
         d="m 4394.6851,2126.0249 c 0,-3.99 2.81,-5.61 6.27,-3.61 3.47,1.99 6.27,6.85 6.27,10.85 0,4 -2.8,5.61 -6.27,3.62 -3.46,-2 -6.27,-6.86 -6.27,-10.86"
         style="fill:#ffffff;fill-opacity:1;fill-rule:nonzero;stroke:none"
         id="path102094"
         inkscape:connector-curvature="0" /></g></g></svg>