<?xml version="1.0" encoding="UTF-8" standalone="no"?>
<!-- Created with Inkscape (http://www.inkscape.org/) -->

<svg
   xmlns:dc="http://purl.org/dc/elements/1.1/"
   xmlns:cc="http://creativecommons.org/ns#"
   xmlns:rdf="http://www.w3.org/1999/02/22-rdf-syntax-ns#"
   xmlns:svg="http://www.w3.org/2000/svg"
   xmlns="http://www.w3.org/2000/svg"
   xmlns:sodipodi="http://sodipodi.sourceforge.net/DTD/sodipodi-0.dtd"
   xmlns:inkscape="http://www.inkscape.org/namespaces/inkscape"
   version="1.1"
   id="svg29"
   xml:space="preserve"
   width="800"
   height="533.33331"
   viewBox="0 0 800 533.33331"
   sodipodi:docname="busines-analysis.svg"
   inkscape:version="0.92.3 (2405546, 2018-03-11)"><metadata
     id="metadata35"><rdf:RDF><cc:Work
         rdf:about=""><dc:format>image/svg+xml</dc:format><dc:type
           rdf:resource="http://purl.org/dc/dcmitype/StillImage" /><dc:title></dc:title></cc:Work></rdf:RDF></metadata><defs
     id="defs33" /><sodipodi:namedview
     pagecolor="#ffffff"
     bordercolor="#666666"
     borderopacity="1"
     objecttolerance="10"
     gridtolerance="10"
     guidetolerance="10"
     inkscape:pageopacity="0"
     inkscape:pageshadow="2"
     inkscape:window-width="1366"
     inkscape:window-height="705"
     id="namedview31"
     showgrid="false"
     inkscape:zoom="0.97875004"
     inkscape:cx="400"
     inkscape:cy="266.66666"
     inkscape:window-x="0"
     inkscape:window-y="30"
     inkscape:window-maximized="1"
     inkscape:current-layer="g39" /><g
     id="g37"
     inkscape:groupmode="layer"
     inkscape:label="ink_ext_XXXXXX"
     transform="matrix(1.3333333,0,0,-1.3333333,0,533.33333)"><g
       id="g39"
       transform="scale(0.1)"><path
         d="m 4185.17,622.57 -1252.61,723.21 c -35.43,20.46 -30.99,56.19 9.93,79.81 l 852.93,492.28 c 40.91,23.62 102.82,26.19 138.25,5.73 l 1252.61,-723.19 c 35.43,-20.46 30.99,-56.2 -9.93,-79.83 L 4323.42,628.309 C 4282.5,604.68 4220.61,602.121 4185.17,622.57"
         style="fill:#d9effb;fill-opacity:1;fill-rule:nonzero;stroke:none"
         id="path41"
         inkscape:connector-curvature="0" /><path
         d="m 5232.62,2623 -1273.29,734.52 c -16.4,9.46 -31.46,10.91 -43.58,5.87 l 0.05,0.14 -2.09,-0.97 -0.51,-0.23 -41.46,-19.51 45.01,-22.4 -0.09,-2.48 0.39,-1045.8 c 0.02,-52.35 32.41,-113.45 72.34,-136.49 l 1239.33,-714.92 7.05,-58.34 45.25,21.59 c 14.9,8.76 24.35,28.56 24.34,56.75 l -0.39,1045.8 c -0.02,52.33 -32.42,113.44 -72.35,136.47"
         style="fill:#263c7a;fill-opacity:1;fill-rule:nonzero;stroke:none"
         id="path43"
         inkscape:connector-curvature="0" /><path
         d="m 5232.62,2623 -1273.29,734.52 c -16.4,9.46 -31.46,10.91 -43.58,5.87 l 0.05,0.14 -2.09,-0.97 -0.51,-0.23 -41.46,-19.51 45.01,-22.4 -0.09,-2.48 0.25,-689.25 579.47,-457.85 786.79,395.96 c -13.04,24.24 -30.87,44.86 -50.55,56.2"
         style="fill:#4067b1;fill-opacity:1;fill-rule:nonzero;stroke:none"
         id="path45"
         inkscape:connector-curvature="0" /><path
         d="m 5253.89,2606.56 -124.78,-52.49 94.21,-72.59 78.67,33.49 c -6.84,34.38 -24.98,68.94 -48.1,91.59"
         style="fill:#2e4b8d;fill-opacity:1;fill-rule:nonzero;stroke:none"
         id="path47"
         inkscape:connector-curvature="0" /><path
         d="m 5191.17,1367.94 -1273.29,734.51 c -39.94,23.03 -72.33,84.14 -72.35,136.47 l -0.39,1045.8 c -0.02,52.35 32.35,76.1 72.28,53.06 l 1273.29,-734.52 c 39.93,-23.04 72.32,-84.13 72.34,-136.48 l 0.39,-1045.8 c 0.02,-52.33 -32.34,-76.08 -72.27,-53.04"
         style="fill:#d9effb;fill-opacity:1;fill-rule:nonzero;stroke:none"
         id="path49"
         inkscape:connector-curvature="0" /><path
         d="m 5148.8,1445.73 -1189.18,685.66 c -36.54,21.09 -66.19,77.01 -66.2,124.89 l -0.36,957 c -0.02,47.89 29.6,69.63 66.14,48.54 l 1189.18,-685.67 c 36.55,-21.08 66.2,-76.99 66.2,-124.88 l 0.37,-957 c 0.02,-47.89 -29.6,-69.62 -66.15,-48.54"
         style="fill:#ffffff;fill-opacity:1;fill-rule:nonzero;stroke:none"
         id="path51"
         inkscape:connector-curvature="0" /><path
         d="m 5148.8,1445.73 -1189.18,685.66 c -36.54,21.09 -66.19,77.01 -66.2,124.89 l -0.36,957 c -0.02,47.89 29.6,69.63 66.14,48.54 l 1189.18,-685.67 c 36.55,-21.08 66.2,-76.99 66.2,-124.88 l 0.37,-957 c 0.02,-47.89 -29.6,-69.62 -66.15,-48.54"
         style="fill:#ffffff;fill-opacity:1;fill-rule:nonzero;stroke:none"
         id="path53"
         inkscape:connector-curvature="0" /><path
         d="m 5210.18,1335.46 -171.23,22.6 -1105.28,638.14 c -35.43,20.46 -97.34,17.89 -138.25,-5.73 l -783.2,-452.02 -103.53,13.68 v -58.75 l 0.1,-0.01 c -0.68,-13.58 7.05,-26.64 23.77,-36.29 L 4185.17,733.879 c 35.44,-20.457 97.33,-17.899 138.25,5.73 l 852.93,492.281 c 23.02,13.29 34.49,30.41 33.83,46.49 v 57.08"
         style="fill:#263c7a;fill-opacity:1;fill-rule:nonzero;stroke:none"
         id="path55"
         inkscape:connector-curvature="0" /><path
         d="m 4379.7,1738.68 -78.52,45.34 h -863.34 l -425.62,-245.57 -103.53,13.68 v -58.75 l 0.1,-0.01 c -0.68,-13.58 7.05,-26.64 23.77,-36.29 L 4185.17,733.879 c 18.73,-10.809 44.84,-15.117 71.35,-13.379 l 123.18,1018.18"
         style="fill:#4067b1;fill-opacity:1;fill-rule:nonzero;stroke:none"
         id="path57"
         inkscape:connector-curvature="0" /><path
         d="m 2954.64,1546.06 -45.95,6.07 v -58.75 l 0.1,-0.01 c -0.68,-13.58 7.05,-26.64 23.77,-36.29 l 22.08,-12.75 v 101.73"
         style="fill:#5f92d3;fill-opacity:1;fill-rule:nonzero;stroke:none"
         id="path59"
         inkscape:connector-curvature="0" /><path
         d="m 4197.79,728.02 c 33.58,-12.739 81.61,-9.969 117.46,7.289 V 866.34 H 4197.79 V 728.02"
         style="fill:#2e4b8d;fill-opacity:1;fill-rule:nonzero;stroke:none"
         id="path61"
         inkscape:connector-curvature="0" /><path
         d="M 4185.17,792.551 2932.56,1515.76 c -35.43,20.46 -30.99,56.19 9.93,79.81 l 852.93,492.28 c 40.91,23.62 102.82,26.19 138.25,5.73 l 1252.61,-723.19 c 35.43,-20.46 30.99,-56.2 -9.93,-79.83 L 4323.42,798.289 c -40.92,-23.629 -102.81,-26.187 -138.25,-5.738"
         style="fill:#d9effb;fill-opacity:1;fill-rule:nonzero;stroke:none"
         id="path63"
         inkscape:connector-curvature="0" /><path
         d="M 5176.35,1312.03 4323.42,819.738 c -40.92,-23.617 -102.81,-26.187 -138.25,-5.726 L 2932.56,1537.21 c -11.62,6.7 -18.86,15.07 -22.03,24.09 -5.54,-16.75 1.53,-33.71 22.03,-45.55 L 4185.17,792.551 c 35.44,-20.449 97.33,-17.891 138.25,5.738 l 852.93,492.271 c 27.51,15.88 38.45,37.22 31.97,55.73 -4.05,-12.21 -14.72,-24.31 -31.97,-34.26"
         style="fill:#ffffff;fill-opacity:1;fill-rule:nonzero;stroke:none"
         id="path65"
         inkscape:connector-curvature="0" /><path
         d="m 3465.31,1755.17 -56.67,32.73 c -4.55,2.62 -3.99,7.21 1.27,10.25 l 66.9,38.62 c 5.26,3.03 13.2,3.36 17.76,0.74 l 56.67,-32.73 c 4.55,-2.63 3.98,-7.22 -1.27,-10.24 l -66.91,-38.63 c -5.25,-3.03 -13.2,-3.36 -17.75,-0.74"
         style="fill:#263c7a;fill-opacity:1;fill-rule:nonzero;stroke:none"
         id="path67"
         inkscape:connector-curvature="0" /><path
         d="m 3552.84,1704.64 -56.68,32.73 c -4.55,2.63 -3.98,7.21 1.28,10.24 l 66.89,38.63 c 5.25,3.03 13.2,3.37 17.75,0.73 l 56.68,-32.72 c 4.56,-2.62 3.98,-7.21 -1.27,-10.25 l -66.9,-38.62 c -5.25,-3.03 -13.2,-3.36 -17.75,-0.74"
         style="fill:#263c7a;fill-opacity:1;fill-rule:nonzero;stroke:none"
         id="path69"
         inkscape:connector-curvature="0" /><path
         d="m 3640.36,1654.11 -56.67,32.72 c -4.55,2.63 -3.99,7.22 1.27,10.26 l 66.9,38.62 c 5.25,3.03 13.2,3.36 17.75,0.73 l 56.67,-32.72 c 4.55,-2.63 3.99,-7.22 -1.27,-10.25 l -66.9,-38.62 c -5.25,-3.04 -13.2,-3.37 -17.75,-0.74"
         style="fill:#263c7a;fill-opacity:1;fill-rule:nonzero;stroke:none"
         id="path71"
         inkscape:connector-curvature="0" /><path
         d="m 3761.41,1695.85 -56.68,32.71 c -4.55,2.63 -3.97,7.22 1.28,10.25 l 56.15,32.43 c 5.26,3.03 13.21,3.36 17.76,0.73 l 56.68,-32.72 c 4.55,-2.62 3.98,-7.21 -1.28,-10.25 l -56.15,-32.42 c -5.26,-3.04 -13.21,-3.36 -17.76,-0.73"
         style="fill:#263c7a;fill-opacity:1;fill-rule:nonzero;stroke:none"
         id="path73"
         inkscape:connector-curvature="0" /><path
         d="m 3848.94,1645.31 -56.68,32.72 c -4.55,2.63 -3.98,7.22 1.28,10.25 l 56.15,32.42 c 5.26,3.04 13.21,3.37 17.76,0.74 l 56.68,-32.72 c 4.54,-2.63 3.97,-7.22 -1.28,-10.26 l -56.16,-32.42 c -5.25,-3.03 -13.2,-3.36 -17.75,-0.73"
         style="fill:#263c7a;fill-opacity:1;fill-rule:nonzero;stroke:none"
         id="path75"
         inkscape:connector-curvature="0" /><path
         d="m 3936.46,1594.78 -56.68,32.72 c -4.54,2.62 -3.97,7.21 1.28,10.25 l 56.15,32.42 c 5.26,3.04 13.21,3.36 17.76,0.73 l 56.68,-32.71 c 4.55,-2.63 3.98,-7.22 -1.28,-10.25 l -56.16,-32.43 c -5.25,-3.03 -13.2,-3.36 -17.75,-0.73"
         style="fill:#263c7a;fill-opacity:1;fill-rule:nonzero;stroke:none"
         id="path77"
         inkscape:connector-curvature="0" /><path
         d="m 4023.99,1544.24 -56.68,32.73 c -4.55,2.63 -3.98,7.22 1.28,10.24 l 56.15,32.43 c 5.26,3.03 13.2,3.36 17.76,0.74 l 56.67,-32.73 c 4.56,-2.62 3.98,-7.21 -1.27,-10.25 l -56.16,-32.42 c -5.25,-3.03 -13.2,-3.36 -17.75,-0.74"
         style="fill:#263c7a;fill-opacity:1;fill-rule:nonzero;stroke:none"
         id="path79"
         inkscape:connector-curvature="0" /><path
         d="m 4111.51,1493.72 -56.67,32.71 c -4.55,2.63 -3.99,7.22 1.27,10.26 l 56.15,32.42 c 5.26,3.03 13.2,3.36 17.75,0.73 l 56.68,-32.71 c 4.56,-2.63 3.99,-7.22 -1.27,-10.26 l -56.16,-32.42 c -5.25,-3.04 -13.2,-3.36 -17.75,-0.73"
         style="fill:#263c7a;fill-opacity:1;fill-rule:nonzero;stroke:none"
         id="path81"
         inkscape:connector-curvature="0" /><path
         d="m 4199.04,1443.18 -56.68,32.72 c -4.55,2.63 -3.99,7.22 1.28,10.25 l 56.15,32.42 c 5.25,3.04 13.2,3.37 17.75,0.74 l 56.68,-32.72 c 4.55,-2.63 3.98,-7.22 -1.28,-10.26 l -56.15,-32.42 c -5.25,-3.02 -13.2,-3.36 -17.75,-0.73"
         style="fill:#263c7a;fill-opacity:1;fill-rule:nonzero;stroke:none"
         id="path83"
         inkscape:connector-curvature="0" /><path
         d="m 4286.56,1392.65 -56.67,32.72 c -4.55,2.62 -3.99,7.21 1.27,10.25 l 56.15,32.42 c 5.26,3.04 13.2,3.36 17.75,0.74 l 56.68,-32.72 c 4.55,-2.64 3.99,-7.22 -1.27,-10.25 l -56.16,-32.42 c -5.25,-3.04 -13.2,-3.36 -17.75,-0.74"
         style="fill:#263c7a;fill-opacity:1;fill-rule:nonzero;stroke:none"
         id="path85"
         inkscape:connector-curvature="0" /><path
         d="m 4374.09,1342.12 -56.68,32.72 c -4.55,2.63 -3.98,7.22 1.28,10.24 l 56.15,32.43 c 5.25,3.03 13.2,3.37 17.75,0.74 l 56.68,-32.73 c 4.55,-2.62 3.98,-7.21 -1.28,-10.25 l -56.15,-32.42 c -5.25,-3.03 -13.2,-3.36 -17.75,-0.73"
         style="fill:#263c7a;fill-opacity:1;fill-rule:nonzero;stroke:none"
         id="path87"
         inkscape:connector-curvature="0" /><path
         d="m 4461.61,1291.59 -56.67,32.71 c -4.55,2.63 -3.99,7.22 1.27,10.26 l 56.16,32.42 c 5.25,3.04 13.2,3.36 17.74,0.73 l 56.68,-32.72 c 4.55,-2.63 3.99,-7.21 -1.27,-10.25 l -56.16,-32.42 c -5.25,-3.04 -13.2,-3.37 -17.75,-0.73"
         style="fill:#263c7a;fill-opacity:1;fill-rule:nonzero;stroke:none"
         id="path89"
         inkscape:connector-curvature="0" /><path
         d="m 4549.14,1241.05 -56.68,32.73 c -4.55,2.62 -3.98,7.21 1.28,10.24 l 56.15,32.42 c 5.25,3.04 13.2,3.37 17.75,0.74 l 56.68,-32.72 c 4.55,-2.63 3.98,-7.22 -1.28,-10.25 l -56.15,-32.43 c -5.25,-3.02 -13.2,-3.36 -17.75,-0.73"
         style="fill:#263c7a;fill-opacity:1;fill-rule:nonzero;stroke:none"
         id="path91"
         inkscape:connector-curvature="0" /><path
         d="m 3890.38,1719.76 -56.68,32.73 c -4.55,2.62 -3.98,7.21 1.28,10.25 l 56.15,32.42 c 5.25,3.03 13.2,3.36 17.75,0.73 l 56.68,-32.72 c 4.55,-2.63 3.98,-7.22 -1.28,-10.24 l -56.15,-32.43 c -5.25,-3.03 -13.2,-3.36 -17.75,-0.74"
         style="fill:#4067b1;fill-opacity:1;fill-rule:nonzero;stroke:none"
         id="path93"
         inkscape:connector-curvature="0" /><path
         d="m 3801.54,1771.05 -56.67,32.73 c -4.55,2.62 -3.99,7.21 1.27,10.24 l 56.16,32.42 c 5.25,3.04 13.2,3.37 17.75,0.74 l 56.67,-32.72 c 4.55,-2.63 3.99,-7.22 -1.27,-10.24 l -56.16,-32.44 c -5.25,-3.02 -13.2,-3.36 -17.75,-0.73"
         style="fill:#4067b1;fill-opacity:1;fill-rule:nonzero;stroke:none"
         id="path95"
         inkscape:connector-curvature="0" /><path
         d="m 3712.56,1822.42 -122.06,70.48 c -4.55,2.62 -3.98,7.21 1.27,10.25 l 56.16,32.42 c 5.26,3.03 13.21,3.36 17.76,0.73 l 122.06,-70.47 c 4.55,-2.63 3.98,-7.22 -1.27,-10.25 l -56.16,-32.42 c -5.26,-3.04 -13.21,-3.37 -17.76,-0.74"
         style="fill:#263c7a;fill-opacity:1;fill-rule:nonzero;stroke:none"
         id="path97"
         inkscape:connector-curvature="0" /><path
         d="m 3774.76,1884.9 -99.06,57.19 c -4.55,2.62 -3.98,7.21 1.28,10.25 l 56.15,32.42 c 5.25,3.03 13.2,3.36 17.75,0.73 l 99.07,-57.18 c 4.55,-2.63 3.97,-7.22 -1.28,-10.26 l -56.16,-32.42 c -5.25,-3.04 -13.2,-3.36 -17.75,-0.73"
         style="fill:#263c7a;fill-opacity:1;fill-rule:nonzero;stroke:none"
         id="path99"
         inkscape:connector-curvature="0" /><path
         d="m 3977.9,1669.23 -56.67,32.73 c -4.56,2.63 -3.99,7.22 1.27,10.24 l 56.16,32.43 c 5.25,3.03 13.2,3.36 17.75,0.74 l 56.67,-32.73 c 4.55,-2.62 3.99,-7.21 -1.27,-10.25 l -56.16,-32.42 c -5.25,-3.03 -13.2,-3.36 -17.75,-0.74"
         style="fill:#4067b1;fill-opacity:1;fill-rule:nonzero;stroke:none"
         id="path101"
         inkscape:connector-curvature="0" /><path
         d="m 4065.42,1618.7 -56.67,32.72 c -4.56,2.63 -3.98,7.22 1.27,10.26 l 56.16,32.42 c 5.25,3.03 13.2,3.36 17.75,0.73 l 56.68,-32.72 c 4.55,-2.63 3.97,-7.22 -1.28,-10.25 l -56.15,-32.42 c -5.26,-3.04 -13.2,-3.37 -17.76,-0.74"
         style="fill:#263c7a;fill-opacity:1;fill-rule:nonzero;stroke:none"
         id="path103"
         inkscape:connector-curvature="0" /><path
         d="m 4152.94,1568.17 -56.67,32.72 c -4.55,2.63 -3.98,7.22 1.27,10.25 l 56.17,32.42 c 5.25,3.04 13.2,3.37 17.75,0.74 l 56.67,-32.72 c 4.55,-2.63 3.98,-7.22 -1.27,-10.26 l -56.16,-32.42 c -5.26,-3.02 -13.2,-3.36 -17.76,-0.73"
         style="fill:#263c7a;fill-opacity:1;fill-rule:nonzero;stroke:none"
         id="path105"
         inkscape:connector-curvature="0" /><path
         d="m 4240.47,1517.63 -56.68,32.73 c -4.55,2.62 -3.97,7.21 1.28,10.25 l 56.16,32.42 c 5.25,3.03 13.2,3.36 17.75,0.74 l 56.68,-32.73 c 4.55,-2.63 3.97,-7.22 -1.28,-10.24 l -56.15,-32.42 c -5.26,-3.04 -13.21,-3.37 -17.76,-0.75"
         style="fill:#263c7a;fill-opacity:1;fill-rule:nonzero;stroke:none"
         id="path107"
         inkscape:connector-curvature="0" /><path
         d="m 4327.99,1467.11 -56.67,32.72 c -4.55,2.63 -3.98,7.22 1.27,10.24 l 56.16,32.43 c 5.26,3.03 13.21,3.37 17.76,0.74 l 56.67,-32.73 c 4.55,-2.62 3.98,-7.21 -1.27,-10.25 l -56.16,-32.42 c -5.26,-3.03 -13.21,-3.36 -17.76,-0.73"
         style="fill:#263c7a;fill-opacity:1;fill-rule:nonzero;stroke:none"
         id="path109"
         inkscape:connector-curvature="0" /><path
         d="m 4415.52,1416.57 -56.68,32.72 c -4.55,2.63 -3.97,7.22 1.28,10.26 l 56.15,32.42 c 5.26,3.03 13.21,3.36 17.76,0.73 l 56.68,-32.72 c 4.55,-2.63 3.97,-7.22 -1.28,-10.25 l -56.15,-32.42 c -5.26,-3.04 -13.21,-3.37 -17.76,-0.74"
         style="fill:#263c7a;fill-opacity:1;fill-rule:nonzero;stroke:none"
         id="path111"
         inkscape:connector-curvature="0" /><path
         d="m 4503.04,1366.04 -56.67,32.73 c -4.55,2.62 -3.98,7.21 1.27,10.24 l 56.16,32.42 c 5.26,3.04 13.21,3.37 17.76,0.74 l 56.67,-32.72 c 4.55,-2.63 3.98,-7.22 -1.27,-10.25 l -56.16,-32.43 c -5.26,-3.02 -13.21,-3.36 -17.76,-0.73"
         style="fill:#263c7a;fill-opacity:1;fill-rule:nonzero;stroke:none"
         id="path113"
         inkscape:connector-curvature="0" /><path
         d="m 4590.57,1315.5 -56.68,32.73 c -4.55,2.63 -3.97,7.22 1.28,10.25 l 56.15,32.42 c 5.26,3.03 13.21,3.36 17.76,0.74 l 56.68,-32.73 c 4.55,-2.62 3.97,-7.21 -1.28,-10.24 l -56.15,-32.42 c -5.26,-3.04 -13.21,-3.37 -17.76,-0.75"
         style="fill:#263c7a;fill-opacity:1;fill-rule:nonzero;stroke:none"
         id="path115"
         inkscape:connector-curvature="0" /><path
         d="m 4678.09,1264.98 -56.67,32.72 c -4.55,2.63 -3.98,7.21 1.27,10.25 l 56.16,32.42 c 5.26,3.03 13.21,3.37 17.76,0.74 l 56.67,-32.72 c 4.55,-2.63 3.98,-7.22 -1.27,-10.26 l -56.17,-32.42 c -5.25,-3.03 -13.2,-3.36 -17.75,-0.73"
         style="fill:#263c7a;fill-opacity:1;fill-rule:nonzero;stroke:none"
         id="path117"
         inkscape:connector-curvature="0" /><path
         d="m 4833.7,1175.14 -123.67,71.4 c -4.55,2.63 -3.98,7.22 1.27,10.24 l 56.17,32.43 c 5.25,3.03 13.2,3.36 17.75,0.74 l 123.66,-71.4 c 4.55,-2.63 3.98,-7.22 -1.28,-10.25 l -56.15,-32.42 c -5.25,-3.04 -13.2,-3.36 -17.75,-0.74"
         style="fill:#263c7a;fill-opacity:1;fill-rule:nonzero;stroke:none"
         id="path119"
         inkscape:connector-curvature="0" /><path
         d="m 5004.1,1273.52 -104.38,60.27 c -4.55,2.62 -3.98,7.21 1.27,10.24 l 56.16,32.42 c 5.26,3.04 13.21,3.37 17.76,0.74 l 104.37,-60.26 c 4.55,-2.63 3.98,-7.22 -1.28,-10.25 l -56.15,-32.43 c -5.25,-3.02 -13.2,-3.36 -17.75,-0.73"
         style="fill:#263c7a;fill-opacity:1;fill-rule:nonzero;stroke:none"
         id="path121"
         inkscape:connector-curvature="0" /><path
         d="m 4131.18,1679.12 -56.68,32.72 c -4.55,2.63 -3.99,7.22 1.27,10.26 l 56.16,32.42 c 5.25,3.03 13.2,3.36 17.75,0.73 l 56.67,-32.72 c 4.55,-2.63 3.99,-7.22 -1.27,-10.25 l -56.15,-32.42 c -5.26,-3.04 -13.2,-3.37 -17.75,-0.74"
         style="fill:#263c7a;fill-opacity:1;fill-rule:nonzero;stroke:none"
         id="path123"
         inkscape:connector-curvature="0" /><path
         d="m 4041.47,1730.91 -56.67,32.72 c -4.55,2.63 -3.98,7.22 1.27,10.25 l 56.15,32.42 c 5.27,3.04 13.2,3.36 17.76,0.74 l 56.68,-32.72 c 4.55,-2.62 3.98,-7.21 -1.27,-10.25 l -56.17,-32.42 c -5.25,-3.04 -13.2,-3.36 -17.75,-0.74"
         style="fill:#263c7a;fill-opacity:1;fill-rule:nonzero;stroke:none"
         id="path125"
         inkscape:connector-curvature="0" /><path
         d="m 3951.77,1782.7 -56.68,32.73 c -4.55,2.62 -3.97,7.2 1.28,10.24 l 56.15,32.42 c 5.26,3.04 13.21,3.37 17.76,0.73 l 56.68,-32.71 c 4.55,-2.63 3.97,-7.22 -1.28,-10.25 l -56.15,-32.43 c -5.26,-3.03 -13.21,-3.36 -17.76,-0.73"
         style="fill:#4067b1;fill-opacity:1;fill-rule:nonzero;stroke:none"
         id="path127"
         inkscape:connector-curvature="0" /><path
         d="m 3862.07,1834.49 -56.67,32.72 c -4.56,2.63 -3.99,7.22 1.27,10.25 l 56.16,32.42 c 5.25,3.04 13.2,3.37 17.75,0.74 l 56.67,-32.72 c 4.55,-2.63 3.99,-7.22 -1.27,-10.26 l -56.16,-32.42 c -5.25,-3.03 -13.2,-3.36 -17.75,-0.73"
         style="fill:#263c7a;fill-opacity:1;fill-rule:nonzero;stroke:none"
         id="path129"
         inkscape:connector-curvature="0" /><path
         d="m 4218.7,1628.59 -56.68,32.72 c -4.54,2.63 -3.98,7.21 1.28,10.25 l 56.15,32.42 c 5.25,3.04 13.2,3.37 17.75,0.74 l 56.68,-32.72 c 4.55,-2.63 3.99,-7.22 -1.28,-10.26 l -56.15,-32.42 c -5.25,-3.02 -13.2,-3.36 -17.75,-0.73"
         style="fill:#263c7a;fill-opacity:1;fill-rule:nonzero;stroke:none"
         id="path131"
         inkscape:connector-curvature="0" /><path
         d="m 4306.23,1578.05 -56.68,32.73 c -4.55,2.62 -3.99,7.21 1.28,10.25 l 56.15,32.42 c 5.25,3.03 13.2,3.36 17.75,0.74 l 56.68,-32.73 c 4.54,-2.63 3.98,-7.22 -1.28,-10.24 l -56.15,-32.42 c -5.25,-3.04 -13.2,-3.37 -17.75,-0.75"
         style="fill:#263c7a;fill-opacity:1;fill-rule:nonzero;stroke:none"
         id="path133"
         inkscape:connector-curvature="0" /><path
         d="m 4393.75,1527.53 -56.67,32.72 c -4.56,2.63 -3.99,7.21 1.26,10.24 l 56.16,32.43 c 5.26,3.03 13.2,3.37 17.75,0.73 l 56.68,-32.72 c 4.55,-2.62 3.99,-7.21 -1.28,-10.25 l -56.15,-32.42 c -5.25,-3.03 -13.2,-3.36 -17.75,-0.73"
         style="fill:#263c7a;fill-opacity:1;fill-rule:nonzero;stroke:none"
         id="path135"
         inkscape:connector-curvature="0" /><path
         d="m 4481.27,1476.99 -56.68,32.72 c -4.55,2.63 -3.98,7.22 1.28,10.26 l 56.16,32.42 c 5.25,3.03 13.2,3.36 17.75,0.73 l 56.68,-32.72 c 4.55,-2.63 3.97,-7.22 -1.28,-10.25 l -56.15,-32.42 c -5.26,-3.04 -13.2,-3.37 -17.76,-0.74"
         style="fill:#263c7a;fill-opacity:1;fill-rule:nonzero;stroke:none"
         id="path137"
         inkscape:connector-curvature="0" /><path
         d="m 4568.79,1426.46 -56.67,32.73 c -4.55,2.62 -3.98,7.2 1.27,10.24 l 56.16,32.42 c 5.26,3.04 13.2,3.37 17.75,0.73 l 56.68,-32.71 c 4.55,-2.63 3.98,-7.22 -1.27,-10.25 l -56.16,-32.43 c -5.26,-3.02 -13.21,-3.36 -17.76,-0.73"
         style="fill:#263c7a;fill-opacity:1;fill-rule:nonzero;stroke:none"
         id="path139"
         inkscape:connector-curvature="0" /><path
         d="m 4656.32,1375.92 -56.68,32.73 c -4.55,2.63 -3.97,7.22 1.28,10.25 l 56.16,32.42 c 5.25,3.03 13.2,3.36 17.75,0.74 l 56.68,-32.73 c 4.55,-2.62 3.97,-7.21 -1.28,-10.24 l -56.15,-32.42 c -5.26,-3.04 -13.21,-3.37 -17.76,-0.75"
         style="fill:#263c7a;fill-opacity:1;fill-rule:nonzero;stroke:none"
         id="path141"
         inkscape:connector-curvature="0" /><path
         d="m 4743.84,1325.4 -56.67,32.71 c -4.55,2.64 -3.98,7.22 1.27,10.26 l 56.15,32.42 c 5.27,3.03 13.21,3.36 17.76,0.73 l 56.68,-32.72 c 4.55,-2.62 3.98,-7.21 -1.27,-10.25 l -56.16,-32.42 c -5.26,-3.04 -13.21,-3.36 -17.76,-0.73"
         style="fill:#263c7a;fill-opacity:1;fill-rule:nonzero;stroke:none"
         id="path143"
         inkscape:connector-curvature="0" /><path
         d="m 4831.37,1274.86 -56.68,32.72 c -4.55,2.63 -3.97,7.22 1.28,10.26 l 56.15,32.42 c 5.26,3.03 13.21,3.36 17.76,0.73 l 56.68,-32.72 c 4.55,-2.63 3.97,-7.22 -1.28,-10.25 l -56.15,-32.42 c -5.26,-3.04 -13.21,-3.37 -17.76,-0.74"
         style="fill:#263c7a;fill-opacity:1;fill-rule:nonzero;stroke:none"
         id="path145"
         inkscape:connector-curvature="0" /><path
         d="m 4918.89,1224.33 -56.67,32.72 c -4.55,2.63 -3.98,7.21 1.27,10.25 l 56.16,32.42 c 5.26,3.04 13.21,3.36 17.75,0.74 l 56.68,-32.72 c 4.55,-2.63 3.98,-7.22 -1.27,-10.25 l -56.16,-32.43 c -5.26,-3.03 -13.21,-3.35 -17.76,-0.73"
         style="fill:#263c7a;fill-opacity:1;fill-rule:nonzero;stroke:none"
         id="path147"
         inkscape:connector-curvature="0" /><path
         d="m 4085.08,1804.11 -56.67,32.72 c -4.55,2.63 -3.98,7.22 1.27,10.25 l 56.16,32.42 c 5.26,3.04 13.21,3.37 17.76,0.74 l 56.67,-32.72 c 4.55,-2.63 3.98,-7.22 -1.27,-10.25 l -56.16,-32.42 c -5.26,-3.04 -13.21,-3.37 -17.76,-0.74"
         style="fill:#263c7a;fill-opacity:1;fill-rule:nonzero;stroke:none"
         id="path149"
         inkscape:connector-curvature="0" /><path
         d="m 3997.99,1854.39 -56.67,32.73 c -4.55,2.62 -3.98,7.21 1.27,10.24 l 56.16,32.42 c 5.26,3.04 13.21,3.37 17.76,0.74 l 56.67,-32.72 c 4.55,-2.63 3.98,-7.22 -1.27,-10.25 l -56.16,-32.43 c -5.26,-3.02 -13.21,-3.36 -17.76,-0.73"
         style="fill:#263c7a;fill-opacity:1;fill-rule:nonzero;stroke:none"
         id="path151"
         inkscape:connector-curvature="0" /><path
         d="m 3910.9,1904.67 -56.67,32.72 c -4.55,2.63 -3.98,7.22 1.27,10.25 l 56.17,32.42 c 5.25,3.04 13.2,3.36 17.75,0.74 l 56.67,-32.72 c 4.55,-2.62 3.98,-7.21 -1.27,-10.25 l -56.16,-32.42 c -5.26,-3.04 -13.21,-3.36 -17.76,-0.74"
         style="fill:#263c7a;fill-opacity:1;fill-rule:nonzero;stroke:none"
         id="path153"
         inkscape:connector-curvature="0" /><path
         d="m 3823.81,1954.95 -56.67,32.72 c -4.55,2.63 -3.98,7.22 1.27,10.26 l 56.17,32.42 c 5.25,3.03 13.2,3.36 17.75,0.73 l 56.67,-32.72 c 4.55,-2.63 3.98,-7.22 -1.27,-10.25 l -56.16,-32.42 c -5.26,-3.04 -13.21,-3.37 -17.76,-0.74"
         style="fill:#263c7a;fill-opacity:1;fill-rule:nonzero;stroke:none"
         id="path155"
         inkscape:connector-curvature="0" /><path
         d="m 3913.37,2006.66 -56.68,32.72 c -4.55,2.63 -3.97,7.22 1.28,10.25 l 18.57,10.72 c 5.25,3.03 13.2,3.36 17.75,0.73 l 56.67,-32.72 c 4.55,-2.63 3.99,-7.22 -1.27,-10.25 l -18.56,-10.72 c -5.26,-3.03 -13.21,-3.36 -17.76,-0.73"
         style="fill:#263c7a;fill-opacity:1;fill-rule:nonzero;stroke:none"
         id="path157"
         inkscape:connector-curvature="0" /><path
         d="m 4027.03,1941.04 -56.68,32.73 c -4.55,2.62 -3.98,7.2 1.28,10.24 l 18.56,10.72 c 5.25,3.03 13.2,3.36 17.75,0.74 l 56.67,-32.73 c 4.56,-2.63 3.99,-7.22 -1.27,-10.24 l -18.56,-10.73 c -5.25,-3.02 -13.2,-3.36 -17.75,-0.73"
         style="fill:#263c7a;fill-opacity:1;fill-rule:nonzero;stroke:none"
         id="path159"
         inkscape:connector-curvature="0" /><path
         d="m 4113.75,1890.96 -56.67,32.73 c -4.56,2.62 -3.99,7.21 1.26,10.25 l 18.57,10.71 c 5.25,3.04 13.2,3.37 17.75,0.75 l 56.68,-32.73 c 4.55,-2.62 3.98,-7.21 -1.28,-10.25 l -18.56,-10.71 c -5.25,-3.04 -13.2,-3.37 -17.75,-0.75"
         style="fill:#263c7a;fill-opacity:1;fill-rule:nonzero;stroke:none"
         id="path161"
         inkscape:connector-curvature="0" /><path
         d="m 4200.47,1840.89 -56.67,32.73 c -4.55,2.63 -3.98,7.22 1.27,10.25 l 18.57,10.72 c 5.25,3.03 13.2,3.36 17.75,0.73 l 56.68,-32.72 c 4.55,-2.62 3.98,-7.21 -1.28,-10.25 l -18.56,-10.71 c -5.26,-3.04 -13.21,-3.37 -17.76,-0.75"
         style="fill:#263c7a;fill-opacity:1;fill-rule:nonzero;stroke:none"
         id="path163"
         inkscape:connector-curvature="0" /><path
         d="m 4287.2,1790.83 -56.68,32.72 c -4.55,2.63 -3.97,7.22 1.28,10.25 l 18.57,10.72 c 5.25,3.03 13.2,3.36 17.75,0.73 l 56.67,-32.72 c 4.55,-2.63 3.98,-7.22 -1.27,-10.25 l -18.56,-10.72 c -5.26,-3.03 -13.21,-3.36 -17.76,-0.73"
         style="fill:#263c7a;fill-opacity:1;fill-rule:nonzero;stroke:none"
         id="path165"
         inkscape:connector-curvature="0" /><path
         d="m 4771.38,1511.29 -56.68,32.72 c -4.55,2.63 -3.97,7.22 1.28,10.24 l 18.57,10.73 c 5.25,3.02 13.2,3.36 17.75,0.73 l 56.67,-32.73 c 4.55,-2.62 3.98,-7.21 -1.27,-10.24 l -18.56,-10.72 c -5.26,-3.03 -13.21,-3.36 -17.76,-0.73"
         style="fill:#263c7a;fill-opacity:1;fill-rule:nonzero;stroke:none"
         id="path167"
         inkscape:connector-curvature="0" /><path
         d="m 4858.11,1461.22 -56.68,32.71 c -4.55,2.63 -3.97,7.22 1.28,10.26 l 18.56,10.71 c 5.26,3.04 13.21,3.37 17.76,0.74 l 56.67,-32.72 c 4.55,-2.63 3.98,-7.22 -1.27,-10.26 l -18.57,-10.71 c -5.25,-3.04 -13.2,-3.36 -17.75,-0.73"
         style="fill:#263c7a;fill-opacity:1;fill-rule:nonzero;stroke:none"
         id="path169"
         inkscape:connector-curvature="0" /><path
         d="m 4944.83,1411.14 -56.67,32.72 c -4.55,2.63 -3.99,7.22 1.27,10.26 l 18.56,10.71 c 5.26,3.04 13.21,3.36 17.76,0.73 l 56.68,-32.71 c 4.55,-2.63 3.97,-7.22 -1.28,-10.26 l -18.57,-10.71 c -5.25,-3.04 -13.2,-3.37 -17.75,-0.74"
         style="fill:#263c7a;fill-opacity:1;fill-rule:nonzero;stroke:none"
         id="path171"
         inkscape:connector-curvature="0" /><path
         d="m 5031.56,1361.07 -56.67,32.73 c -4.55,2.62 -3.99,7.21 1.27,10.24 l 18.56,10.72 c 5.26,3.03 13.2,3.36 17.76,0.73 l 56.68,-32.72 c 4.55,-2.63 3.97,-7.22 -1.28,-10.24 l -18.57,-10.73 c -5.25,-3.02 -13.2,-3.36 -17.75,-0.73"
         style="fill:#263c7a;fill-opacity:1;fill-rule:nonzero;stroke:none"
         id="path173"
         inkscape:connector-curvature="0" /><path
         d="m 4172.61,1753.58 -56.68,32.72 c -4.55,2.62 -3.97,7.21 1.28,10.25 l 56.15,32.42 c 5.26,3.04 13.21,3.36 17.76,0.73 l 56.68,-32.71 c 4.55,-2.63 3.97,-7.22 -1.28,-10.26 l -56.15,-32.42 c -5.26,-3.03 -13.21,-3.36 -17.76,-0.73"
         style="fill:#263c7a;fill-opacity:1;fill-rule:nonzero;stroke:none"
         id="path175"
         inkscape:connector-curvature="0" /><path
         d="m 4260.13,1703.04 -56.67,32.73 c -4.55,2.62 -3.98,7.21 1.27,10.24 l 56.16,32.42 c 5.26,3.04 13.21,3.37 17.76,0.75 l 56.67,-32.73 c 4.55,-2.63 3.98,-7.22 -1.27,-10.24 l -56.16,-32.42 c -5.26,-3.04 -13.21,-3.37 -17.76,-0.75"
         style="fill:#263c7a;fill-opacity:1;fill-rule:nonzero;stroke:none"
         id="path177"
         inkscape:connector-curvature="0" /><path
         d="m 4347.66,1652.52 -56.68,32.71 c -4.55,2.63 -3.97,7.22 1.28,10.25 l 56.15,32.43 c 5.26,3.03 13.21,3.36 17.76,0.73 l 56.68,-32.72 c 4.55,-2.62 3.97,-7.21 -1.28,-10.25 l -56.15,-32.42 c -5.26,-3.04 -13.21,-3.36 -17.76,-0.73"
         style="fill:#263c7a;fill-opacity:1;fill-rule:nonzero;stroke:none"
         id="path179"
         inkscape:connector-curvature="0" /><path
         d="m 4435.18,1601.98 -56.67,32.72 c -4.55,2.63 -3.98,7.22 1.27,10.25 l 56.16,32.42 c 5.26,3.04 13.21,3.37 17.76,0.74 l 56.67,-32.72 c 4.55,-2.63 3.98,-7.22 -1.27,-10.26 l -56.17,-32.42 c -5.25,-3.03 -13.2,-3.36 -17.75,-0.73"
         style="fill:#263c7a;fill-opacity:1;fill-rule:nonzero;stroke:none"
         id="path181"
         inkscape:connector-curvature="0" /><path
         d="m 4522.71,1551.45 -56.68,32.72 c -4.55,2.62 -3.97,7.21 1.28,10.25 l 56.15,32.42 c 5.26,3.04 13.21,3.36 17.76,0.73 l 56.68,-32.71 c 4.55,-2.63 3.97,-7.22 -1.28,-10.25 l -56.16,-32.43 c -5.25,-3.03 -13.2,-3.36 -17.75,-0.73"
         style="fill:#263c7a;fill-opacity:1;fill-rule:nonzero;stroke:none"
         id="path183"
         inkscape:connector-curvature="0" /><path
         d="m 4610.23,1500.91 -56.67,32.73 c -4.55,2.63 -3.98,7.22 1.27,10.24 l 56.16,32.42 c 5.26,3.04 13.2,3.37 17.76,0.75 l 56.67,-32.73 c 4.55,-2.62 3.98,-7.21 -1.27,-10.25 l -56.17,-32.42 c -5.25,-3.03 -13.2,-3.36 -17.75,-0.74"
         style="fill:#263c7a;fill-opacity:1;fill-rule:nonzero;stroke:none"
         id="path185"
         inkscape:connector-curvature="0" /><path
         d="m 4697.76,1450.39 -56.68,32.71 c -4.55,2.63 -3.98,7.22 1.28,10.26 l 56.15,32.42 c 5.25,3.03 13.2,3.36 17.75,0.73 l 56.68,-32.71 c 4.56,-2.63 3.98,-7.22 -1.27,-10.26 l -56.16,-32.42 c -5.25,-3.04 -13.2,-3.36 -17.75,-0.73"
         style="fill:#263c7a;fill-opacity:1;fill-rule:nonzero;stroke:none"
         id="path187"
         inkscape:connector-curvature="0" /><path
         d="m 4785.28,1399.85 -56.67,32.72 c -4.55,2.63 -3.99,7.22 1.27,10.25 l 56.16,32.42 c 5.25,3.04 13.2,3.37 17.75,0.74 l 56.67,-32.72 c 4.55,-2.63 3.99,-7.22 -1.27,-10.26 l -56.16,-32.42 c -5.25,-3.03 -13.2,-3.36 -17.75,-0.73"
         style="fill:#263c7a;fill-opacity:1;fill-rule:nonzero;stroke:none"
         id="path189"
         inkscape:connector-curvature="0" /><path
         d="m 4872.81,1349.32 -56.68,32.72 c -4.55,2.62 -3.98,7.21 1.28,10.25 l 56.15,32.42 c 5.25,3.04 13.2,3.36 17.75,0.74 l 56.68,-32.72 c 4.55,-2.63 3.98,-7.22 -1.28,-10.25 l -56.15,-32.43 c -5.25,-3.03 -13.2,-3.35 -17.75,-0.73"
         style="fill:#263c7a;fill-opacity:1;fill-rule:nonzero;stroke:none"
         id="path191"
         inkscape:connector-curvature="0" /><path
         d="m 3672.22,1747.34 -166.92,96.37 c -4.55,2.62 -3.98,7.21 1.28,10.25 l 56.15,32.42 c 5.25,3.03 13.2,3.36 17.75,0.74 l 166.93,-96.37 c 4.55,-2.63 3.97,-7.22 -1.28,-10.26 l -56.15,-32.42 c -5.26,-3.03 -13.21,-3.36 -17.76,-0.73"
         style="fill:#263c7a;fill-opacity:1;fill-rule:nonzero;stroke:none"
         id="path193"
         inkscape:connector-curvature="0" /><path
         d="m 4747.48,1126.54 -166.92,96.37 c -4.55,2.62 -3.97,7.21 1.28,10.25 l 56.15,32.42 c 5.26,3.03 13.21,3.36 17.76,0.73 l 166.91,-96.36 c 4.55,-2.63 3.99,-7.22 -1.27,-10.26 l -56.16,-32.42 c -5.25,-3.04 -13.2,-3.36 -17.75,-0.73"
         style="fill:#263c7a;fill-opacity:1;fill-rule:nonzero;stroke:none"
         id="path195"
         inkscape:connector-curvature="0" /><path
         d="m 4397.46,1217 -56.68,32.72 c -4.55,2.63 -3.98,7.22 1.28,10.26 l 66.89,38.62 c 5.25,3.03 13.2,3.36 17.75,0.73 l 56.68,-32.72 c 4.55,-2.63 3.98,-7.22 -1.28,-10.25 l -66.89,-38.62 c -5.25,-3.04 -13.2,-3.37 -17.75,-0.74"
         style="fill:#263c7a;fill-opacity:1;fill-rule:nonzero;stroke:none"
         id="path197"
         inkscape:connector-curvature="0" /><path
         d="m 3761.85,1583.97 -90.64,52.33 c -4.55,2.63 -3.98,7.21 1.28,10.25 l 66.89,38.62 c 5.25,3.04 13.2,3.36 17.75,0.73 l 90.65,-52.32 c 4.55,-2.63 3.97,-7.22 -1.28,-10.25 l -66.9,-38.63 c -5.25,-3.03 -13.2,-3.36 -17.75,-0.73"
         style="fill:#263c7a;fill-opacity:1;fill-rule:nonzero;stroke:none"
         id="path199"
         inkscape:connector-curvature="0" /><path
         d="m 4313.12,1265.69 -90.63,52.33 c -4.56,2.63 -3.99,7.22 1.26,10.25 l 66.91,38.62 c 5.25,3.04 13.2,3.37 17.75,0.74 l 90.64,-52.33 c 4.55,-2.63 3.98,-7.22 -1.27,-10.25 l -66.91,-38.63 c -5.25,-3.03 -13.2,-3.36 -17.75,-0.73"
         style="fill:#263c7a;fill-opacity:1;fill-rule:nonzero;stroke:none"
         id="path201"
         inkscape:connector-curvature="0" /><path
         d="m 3888.13,1511.06 -90.64,52.33 c -4.56,2.63 -3.98,7.22 1.27,10.25 l 66.9,38.62 c 5.25,3.04 13.2,3.37 17.75,0.74 l 90.65,-52.33 c 4.55,-2.63 3.97,-7.22 -1.28,-10.25 l -66.9,-38.63 c -5.25,-3.02 -13.2,-3.36 -17.75,-0.73"
         style="fill:#263c7a;fill-opacity:1;fill-rule:nonzero;stroke:none"
         id="path203"
         inkscape:connector-curvature="0" /><path
         d="m 3884.03,1612.64 394.08,-227.52 c 4.88,-2.82 4.88,-7.4 0,-10.22 l -68.22,-39.39 c -4.89,-2.82 -12.81,-2.82 -17.71,0 l -394.08,227.52 85.93,49.61"
         style="fill:#263c7a;fill-opacity:1;fill-rule:nonzero;stroke:none"
         id="path205"
         inkscape:connector-curvature="0" /><path
         d="m 4642.08,1125.38 63.12,-36.45 c 3.73,-2.15 3.26,-5.92 -1.04,-8.4 l -27.37,-15.8 c -4.3,-2.49 -10.82,-2.75 -14.55,-0.6 l -63.13,36.44 c -3.73,2.16 -3.27,5.92 1.04,8.41 l 27.37,15.8 c 4.31,2.48 10.82,2.76 14.56,0.6"
         style="fill:#263c7a;fill-opacity:1;fill-rule:nonzero;stroke:none"
         id="path207"
         inkscape:connector-curvature="0" /><path
         d="m 4553.82,1176.33 63.13,-36.45 c 3.73,-2.15 3.27,-5.91 -1.05,-8.4 l -27.36,-15.8 c -4.31,-2.48 -10.82,-2.75 -14.55,-0.6 l -63.14,36.45 c -3.72,2.15 -3.26,5.92 1.05,8.4 l 27.37,15.8 c 4.31,2.49 10.82,2.75 14.55,0.6"
         style="fill:#263c7a;fill-opacity:1;fill-rule:nonzero;stroke:none"
         id="path209"
         inkscape:connector-curvature="0" /><path
         d="m 4466.29,1226.86 63.14,-36.44 c 3.73,-2.16 3.26,-5.92 -1.05,-8.4 l -27.36,-15.8 c -4.31,-2.49 -10.82,-2.77 -14.55,-0.61 l -63.14,36.45 c -3.73,2.16 -3.26,5.91 1.05,8.41 l 27.36,15.8 c 4.31,2.48 10.82,2.75 14.55,0.59"
         style="fill:#263c7a;fill-opacity:1;fill-rule:nonzero;stroke:none"
         id="path211"
         inkscape:connector-curvature="0" /><path
         d="m 4602.15,1204.23 63.14,-36.44 c 3.73,-2.16 3.26,-5.92 -1.05,-8.4 l -27.36,-15.8 c -4.31,-2.49 -10.83,-2.76 -14.56,-0.61 l -63.13,36.45 c -3.73,2.16 -3.26,5.92 1.05,8.41 l 27.36,15.8 c 4.31,2.48 10.82,2.75 14.55,0.59"
         style="fill:#263c7a;fill-opacity:1;fill-rule:nonzero;stroke:none"
         id="path213"
         inkscape:connector-curvature="0" /><path
         d="M 6000,985.961 5338.46,575.762 C 5264.68,530.191 5241.81,433.441 5287.38,359.66 L 5509.52,0 H 6000 v 985.961"
         style="fill:#d9effb;fill-opacity:1;fill-rule:nonzero;stroke:none"
         id="path437"
         inkscape:connector-curvature="0" /><path
         d="m 4480.46,2386.49 c -2.24,0 -4.72,0.71 -7.33,2.22 l -415.52,239.9 c -10.21,5.9 -18.48,21.71 -18.48,35.32 v 326.93 c 0,10.13 4.58,16.19 11.14,16.19 2.25,0 4.73,-0.71 7.34,-2.22 l 415.52,-239.9 c 10.2,-5.89 18.48,-21.7 18.48,-35.31 v -326.94 c 0,-10.13 -4.59,-16.19 -11.15,-16.19"
         style="fill:#f3fafe;fill-opacity:1;fill-rule:nonzero;stroke:none"
         id="path441"
         inkscape:connector-curvature="0" /><path
         d="m 4183.26,2609.5 -2.92,1.69 c -10.83,6.26 -19.61,23.03 -19.61,37.47 v 155.8 c 0,14.44 8.78,21.07 19.61,14.82 l 2.92,-1.69 c 10.83,-6.25 19.62,-23.02 19.62,-37.47 v -155.79 c 0,-14.44 -8.79,-21.08 -19.62,-14.83"
         style="fill:#b8d8ed;fill-opacity:1;fill-rule:nonzero;stroke:none"
         id="path443"
         inkscape:connector-curvature="0" /><path
         d="m 4266.83,2561.26 -2.93,1.69 c -10.83,6.25 -19.61,23.02 -19.61,37.47 v 91.18 c 0,14.44 8.78,21.08 19.61,14.82 l 2.93,-1.69 c 10.83,-6.25 19.61,-23.02 19.61,-37.47 v -91.18 c 0,-14.44 -8.78,-21.08 -19.61,-14.82"
         style="fill:#b8d8ed;fill-opacity:1;fill-rule:nonzero;stroke:none"
         id="path445"
         inkscape:connector-curvature="0" /><path
         d="m 4350.4,2513 -2.92,1.69 c -10.83,6.25 -19.61,23.03 -19.61,37.47 v 217.06 c 0,14.44 8.78,21.07 19.61,14.82 l 2.92,-1.69 c 10.83,-6.25 19.61,-23.03 19.61,-37.47 v -217.05 c 0,-14.44 -8.78,-21.08 -19.61,-14.83"
         style="fill:#4067b1;fill-opacity:1;fill-rule:nonzero;stroke:none"
         id="path447"
         inkscape:connector-curvature="0" /><path
         d="m 4869.29,2476.62 -258.15,149.05 c -9.58,5.53 -17.34,20.35 -17.34,33.12 0,12.76 7.76,18.62 17.34,13.09 l 258.15,-149.04 c 9.57,-5.53 17.34,-20.35 17.34,-33.12 0,-12.76 -7.77,-18.63 -17.34,-13.1"
         style="fill:#b8d8ed;fill-opacity:1;fill-rule:nonzero;stroke:none"
         id="path449"
         inkscape:connector-curvature="0" /><path
         d="m 4703.23,2481.71 -92.09,53.17 c -9.58,5.53 -17.34,20.35 -17.34,33.11 0,12.77 7.76,18.64 17.34,13.11 l 92.09,-53.17 c 9.57,-5.53 17.32,-20.36 17.32,-33.12 0,-12.76 -7.75,-18.62 -17.32,-13.1"
         style="fill:#b8d8ed;fill-opacity:1;fill-rule:nonzero;stroke:none"
         id="path451"
         inkscape:connector-curvature="0" /><path
         d="m 4857.77,2392.49 -92.09,53.16 c -9.57,5.53 -17.34,20.35 -17.34,33.12 0,12.76 7.77,18.63 17.34,13.1 l 92.09,-53.16 c 9.57,-5.53 17.33,-20.36 17.33,-33.13 0,-12.76 -7.76,-18.62 -17.33,-13.09"
         style="fill:#4067b1;fill-opacity:1;fill-rule:nonzero;stroke:none"
         id="path453"
         inkscape:connector-curvature="0" /><path
         d="m 5051.97,2280.02 -131.75,76.4 c -9.57,5.53 -17.33,20.35 -17.33,33.12 0,12.76 7.76,18.63 17.33,13.1 l 131.75,-76.4 c 9.57,-5.53 17.32,-20.36 17.32,-33.13 0,-12.76 -7.75,-18.62 -17.32,-13.09"
         style="fill:#b8d8ed;fill-opacity:1;fill-rule:nonzero;stroke:none"
         id="path455"
         inkscape:connector-curvature="0" /><path
         d="m 4933.69,2257.87 -322.55,186.22 c -9.58,5.53 -17.34,20.35 -17.34,33.11 0,12.77 7.76,18.64 17.34,13.11 l 322.55,-186.22 c 9.57,-5.53 17.33,-20.36 17.33,-33.13 0,-12.76 -7.76,-18.62 -17.33,-13.09"
         style="fill:#b8d8ed;fill-opacity:1;fill-rule:nonzero;stroke:none"
         id="path457"
         inkscape:connector-curvature="0" /><path
         d="m 5069.29,2089.82 -458.15,263.48 c -9.58,5.52 -17.34,20.35 -17.34,33.11 0,12.77 7.76,18.64 17.34,13.11 l 458.15,-263.48 c 9.58,-5.53 17.34,-20.35 17.34,-33.11 0,-12.77 -7.76,-18.64 -17.34,-13.11"
         style="fill:#4067b1;fill-opacity:1;fill-rule:nonzero;stroke:none"
         id="path459"
         inkscape:connector-curvature="0" /><path
         d="m 5108.05,2339.18 -167.49,96.29 c -9.58,5.53 -17.33,20.36 -17.33,33.12 0,12.76 7.75,18.63 17.33,13.11 l 167.49,-96.3 c 9.57,-5.53 17.33,-20.35 17.33,-33.12 0,-12.76 -7.76,-18.63 -17.33,-13.1"
         style="fill:#b8d8ed;fill-opacity:1;fill-rule:nonzero;stroke:none"
         id="path461"
         inkscape:connector-curvature="0" /><path
         d="m 4119.55,2332.21 -81.5,47.06 v -94.11 l 81.5,-47.06 v 94.11"
         style="fill:#4067b1;fill-opacity:1;fill-rule:nonzero;stroke:none"
         id="path463"
         inkscape:connector-curvature="0" /><path
         d="m 4248.31,2335.62 -81.51,47.05 v -171.84 l 81.51,-47.05 v 171.84"
         style="fill:#d9effb;fill-opacity:1;fill-rule:nonzero;stroke:none"
         id="path465"
         inkscape:connector-curvature="0" /><path
         d="m 4377.06,2212.18 -81.51,47.06 v -122.75 l 81.51,-47.05 v 122.74"
         style="fill:#d9effb;fill-opacity:1;fill-rule:nonzero;stroke:none"
         id="path467"
         inkscape:connector-curvature="0" /><path
         d="m 4505.81,2173.32 -81.51,47.05 v -158.22 l 81.51,-47.05 v 158.22"
         style="fill:#d9effb;fill-opacity:1;fill-rule:nonzero;stroke:none"
         id="path469"
         inkscape:connector-curvature="0" /><path
         d="m 4634.56,2089.43 -81.51,47.06 v -148.66 l 81.51,-47.06 v 148.66"
         style="fill:#4067b1;fill-opacity:1;fill-rule:nonzero;stroke:none"
         id="path471"
         inkscape:connector-curvature="0" /><path
         d="m 4763.31,2052.53 -81.51,47.05 v -186.09 l 81.51,-47.06 v 186.1"
         style="fill:#263c7a;fill-opacity:1;fill-rule:nonzero;stroke:none"
         id="path473"
         inkscape:connector-curvature="0" /><path
         d="m 4892.06,1998.04 -81.51,47.06 v -205.94 l 81.51,-47.06 v 205.94"
         style="fill:#d9effb;fill-opacity:1;fill-rule:nonzero;stroke:none"
         id="path475"
         inkscape:connector-curvature="0" /><path
         d="m 5020.81,1973.93 -81.51,47.06 v -256.17 l 81.51,-47.05 v 256.16"
         style="fill:#4067b1;fill-opacity:1;fill-rule:nonzero;stroke:none"
         id="path477"
         inkscape:connector-curvature="0" /><path
         d="m 5540.44,2351.08 -4.57,17.85 51.85,13.29 4.57,-17.85 -51.85,-13.29"
         style="fill:#5f92d3;fill-opacity:1;fill-rule:nonzero;stroke:none"
         id="path479"
         inkscape:connector-curvature="0" /><path
         d="m 5514,2325.28 -4.58,17.85 51.85,13.29 4.57,-17.85 -51.84,-13.29"
         style="fill:#5f92d3;fill-opacity:1;fill-rule:nonzero;stroke:none"
         id="path481"
         inkscape:connector-curvature="0" /><path
         d="m 5487.54,2299.49 -4.57,17.84 51.85,13.29 4.58,-17.85 -51.86,-13.28"
         style="fill:#5f92d3;fill-opacity:1;fill-rule:nonzero;stroke:none"
         id="path483"
         inkscape:connector-curvature="0" /><path
         d="m 5461.1,2273.69 -4.57,17.84 51.84,13.29 4.57,-17.85 -51.84,-13.28"
         style="fill:#5f92d3;fill-opacity:1;fill-rule:nonzero;stroke:none"
         id="path485"
         inkscape:connector-curvature="0" /><path
         d="m 4501.86,1283.78 -164.24,94.82 -164.24,-94.82 164.24,-94.83 164.24,94.83"
         style="fill:#2e4b8d;fill-opacity:1;fill-rule:nonzero;stroke:none"
         id="path487"
         inkscape:connector-curvature="0" /><path
         d="m 3984.16,1267.22 -164.24,94.83 -164.24,-94.83 164.24,-94.82 164.24,94.82"
         style="fill:#2e4b8d;fill-opacity:1;fill-rule:nonzero;stroke:none"
         id="path489"
         inkscape:connector-curvature="0" /><path
         d="m 3636.59,1466.32 -164.25,94.83 -164.24,-94.83 164.24,-94.81 164.25,94.81"
         style="fill:#2e4b8d;fill-opacity:1;fill-rule:nonzero;stroke:none"
         id="path491"
         inkscape:connector-curvature="0" /><path
         d="m 3819.92,1267.22 v 505.73 l 164.24,94.82 v -505.72 l -164.24,-94.83"
         style="fill:#c23222;fill-opacity:1;fill-rule:nonzero;stroke:none"
         id="path493"
         inkscape:connector-curvature="0" /><path
         d="m 3984.16,1867.77 -164.24,94.82 -164.24,-94.82 164.24,-94.82 164.24,94.82"
         style="fill:#ef4b26;fill-opacity:1;fill-rule:nonzero;stroke:none"
         id="path495"
         inkscape:connector-curvature="0" /><path
         d="m 3819.92,1772.95 -164.24,94.82 v -505.72 l 164.24,-94.83 v 505.73"
         style="fill:#5f92d3;fill-opacity:1;fill-rule:nonzero;stroke:none"
         id="path497"
         inkscape:connector-curvature="0" /><path
         d="m 3819.92,1267.22 v 505.73 l 164.24,94.82 v -505.72 l -164.24,-94.83"
         style="fill:#4067b1;fill-opacity:1;fill-rule:nonzero;stroke:none"
         id="path499"
         inkscape:connector-curvature="0" /><path
         d="m 3984.16,1867.77 -164.24,94.82 -164.24,-94.82 164.24,-94.82 164.24,94.82"
         style="fill:#d9effb;fill-opacity:1;fill-rule:nonzero;stroke:none"
         id="path501"
         inkscape:connector-curvature="0" /><path
         d="m 4168.54,1063.25 v 284.47 l 164.24,94.83 v -284.48 l -164.24,-94.82"
         style="fill:#263c7a;fill-opacity:1;fill-rule:nonzero;stroke:none"
         id="path503"
         inkscape:connector-curvature="0" /><path
         d="m 4168.54,1347.72 -164.24,94.83 v -284.48 l 164.24,-94.82 v 284.47"
         style="fill:#4067b1;fill-opacity:1;fill-rule:nonzero;stroke:none"
         id="path505"
         inkscape:connector-curvature="0" /><path
         d="m 4332.78,1442.55 -164.24,94.82 -164.24,-94.82 164.24,-94.83 164.24,94.83"
         style="fill:#d9effb;fill-opacity:1;fill-rule:nonzero;stroke:none"
         id="path507"
         inkscape:connector-curvature="0" /><path
         d="m 3472.34,1466.32 v 695.39 l 164.25,94.82 v -695.38 l -164.25,-94.83"
         style="fill:#d9effb;fill-opacity:1;fill-rule:nonzero;stroke:none"
         id="path509"
         inkscape:connector-curvature="0" /><path
         d="m 3472.34,2161.71 -164.24,94.82 v -695.38 l 164.24,-94.83 v 695.39"
         style="fill:#4067b1;fill-opacity:1;fill-rule:nonzero;stroke:none"
         id="path511"
         inkscape:connector-curvature="0" /><path
         d="m 3636.59,2256.53 -164.25,94.82 -164.24,-94.82 164.24,-94.82 164.25,94.82"
         style="fill:#5f92d3;fill-opacity:1;fill-rule:nonzero;stroke:none"
         id="path513"
         inkscape:connector-curvature="0" /><path
         d="m 3374.52,1863.42 c 0,0 -27.12,13.68 -43.77,-6.69 -16.66,-20.36 -40.46,-68.43 -41.2,-100.91 -0.73,-32.49 25.7,-30.3 41.42,-22.61 15.72,7.68 61.64,74.3 64.42,87.35 2.78,13.05 -3.29,30.7 -7.7,34.15 -4.41,3.45 -13.17,8.71 -13.17,8.71"
         style="fill:#5f92d3;fill-opacity:1;fill-rule:nonzero;stroke:none"
         id="path515"
         inkscape:connector-curvature="0" /><path
         d="m 3380.43,1869.96 1.26,-28.1 c 0.27,-5.97 -2.74,-11.67 -7.94,-14.62 -4.73,-2.68 -11.61,-4.74 -20.91,-3.25 -20.43,3.28 -22.26,9.12 -23.72,37.21 -1.46,28.09 51.31,8.76 51.31,8.76"
         style="fill:#d9effb;fill-opacity:1;fill-rule:nonzero;stroke:none"
         id="path517"
         inkscape:connector-curvature="0" /><path
         d="m 3275.25,1917.44 c 0,0 -27.12,13.68 -43.77,-6.68 -16.66,-20.37 -40.46,-68.44 -41.2,-100.92 -0.73,-32.49 25.7,-30.29 41.43,-22.61 15.71,7.69 61.64,74.3 64.41,87.35 2.78,13.05 -3.27,30.7 -7.69,34.16 -4.42,3.44 -13.18,8.7 -13.18,8.7"
         style="fill:#5f92d3;fill-opacity:1;fill-rule:nonzero;stroke:none"
         id="path519"
         inkscape:connector-curvature="0" /><path
         d="m 3281.17,1923.98 1.26,-28.09 c 0.26,-5.98 -2.74,-11.67 -7.94,-14.62 -4.74,-2.69 -11.62,-4.75 -20.92,-3.26 -20.43,3.29 -22.25,9.13 -23.72,37.21 -1.45,28.09 51.32,8.76 51.32,8.76"
         style="fill:#d9effb;fill-opacity:1;fill-rule:nonzero;stroke:none"
         id="path521"
         inkscape:connector-curvature="0" /><path
         d="m 3523.15,2439.79 c -8.03,130.6 -141.44,-19.21 -141.44,-19.21 l -91.3,-89.5 -82.22,-90.31 c -16.05,-17.65 -23.52,-41.47 -20.42,-65.11 l 33.26,-253.26 c 1.64,-12.51 12.35,-21.73 24.95,-21.63 3.57,0.03 7.65,0.35 12.33,1.07 29.67,4.63 27.48,32.83 27.48,32.83 l -6.08,236.88 172.67,104.09 c 0,0 78.79,33.56 70.77,164.15"
         style="fill:#263c7a;fill-opacity:1;fill-rule:nonzero;stroke:none"
         id="path523"
         inkscape:connector-curvature="0" /><path
         d="m 3622.42,2390.04 c -8.03,130.59 -141.44,-19.21 -141.44,-19.21 l -91.31,-89.51 -82.21,-90.32 c -16.06,-17.63 -23.53,-41.45 -20.42,-65.1 l 33.26,-253.26 c 1.64,-12.51 12.34,-21.74 24.95,-21.63 3.57,0.02 7.65,0.35 12.33,1.08 29.66,4.62 27.47,32.83 27.47,32.83 l -6.07,236.87 172.67,104.09 c 0,0 78.78,33.56 70.77,164.16"
         style="fill:#263c7a;fill-opacity:1;fill-rule:nonzero;stroke:none"
         id="path525"
         inkscape:connector-curvature="0" /><path
         d="m 3543.49,2809.25 c 101.14,-41.93 99.11,-101.71 99.11,-101.71 0,0 -19.81,-219.18 -13.04,-365.57 2.82,-61.19 -325.12,-65.86 -276.21,97.39 57.66,192.49 36.04,348.32 63.04,371.83 26.99,23.5 100.94,8.9 127.1,-1.94"
         style="fill:#5f92d3;fill-opacity:1;fill-rule:nonzero;stroke:none"
         id="path527"
         inkscape:connector-curvature="0" /><path
         d="m 3576.03,2756.24 c -5.29,-20.54 -32.2,-31.36 -60.1,-24.17 -27.9,7.18 -46.22,29.65 -40.93,50.19 5.29,20.54 32.19,31.36 60.09,24.17 27.9,-7.19 46.23,-29.66 40.94,-50.19"
         style="fill:#fab6a9;fill-opacity:1;fill-rule:nonzero;stroke:none"
         id="path529"
         inkscape:connector-curvature="0" /><path
         d="m 3517.78,2803.83 c -18.78,0 -34.48,-8.74 -38.11,-22.78 -4.61,-17.92 12.2,-37.79 37.47,-44.31 25.25,-6.48 49.59,2.78 54.21,20.71 2.16,8.4 -0.35,17.58 -7.09,25.84 -7.09,8.68 -17.87,15.24 -30.38,18.46 -5.47,1.41 -10.91,2.08 -16.1,2.08 z m 15.22,-78.79 c -5.92,0 -12.08,0.75 -18.28,2.35 -30.42,7.83 -50.35,32.99 -44.41,56.07 5.95,23.08 35.52,35.51 65.99,27.65 14.49,-3.73 27.07,-11.44 35.45,-21.71 8.73,-10.7 11.92,-22.91 8.96,-34.37 -4.74,-18.38 -24.48,-29.99 -47.71,-29.99"
         style="fill:#ffffff;fill-opacity:1;fill-rule:nonzero;stroke:none"
         id="path531"
         inkscape:connector-curvature="0" /><path
         d="m 3502.93,2813.81 c 0,0 0.88,-4.06 -0.86,-36.11 -0.56,-10.07 34.72,-19.48 43.84,-10.36 9.12,9.12 5.47,18.6 7.66,52.89 2.19,34.3 -50.64,-6.42 -50.64,-6.42"
         style="fill:#fab6a9;fill-opacity:1;fill-rule:nonzero;stroke:none"
         id="path533"
         inkscape:connector-curvature="0" /><path
         d="m 3553.57,2820.23 c 0,0 -8.68,-31.79 -51.51,-43.98 l 0.65,28.89 50.86,15.09"
         style="fill:#eb8b8a;fill-opacity:1;fill-rule:nonzero;stroke:none"
         id="path535"
         inkscape:connector-curvature="0" /><path
         d="m 3580.71,2901.01 c 10.76,-41.63 -14.27,-84.1 -55.89,-94.86 -41.63,-10.76 -84.1,14.26 -94.86,55.89 -10.77,41.63 14.25,84.1 55.88,94.86 41.63,10.76 84.1,-14.26 94.87,-55.89"
         style="fill:#fab6a9;fill-opacity:1;fill-rule:nonzero;stroke:none"
         id="path537"
         inkscape:connector-curvature="0" /><path
         d="m 3523.21,2878.67 c 0,0 -42.86,-18.36 -72.54,-18.58 -29.69,-0.2 -23.15,24.65 -23.15,24.65 l 88.11,12.74 7.58,-18.81"
         style="fill:#eb8b8a;fill-opacity:1;fill-rule:nonzero;stroke:none"
         id="path539"
         inkscape:connector-curvature="0" /><path
         d="m 3441.82,2873.83 c 0,0 37.34,15.85 70.1,9.24 7.69,-1.55 14.83,-5.67 19.79,-11.77 1.62,-1.98 3.67,-3.79 5.99,-4.32 5.81,-1.32 15.31,22.78 26.61,23.33 11.29,0.55 18.82,-7.44 9.56,-22.27 -9.26,-14.81 -6.12,-31.4 -1.86,-33.79 4.25,-2.37 49.43,32.23 9.59,111.18 -39.86,78.94 -141.09,36.42 -156.84,20.43 0,0 -16.58,-14.46 -30.07,-1.6 0,0 -15.12,-113.26 47.13,-90.43"
         style="fill:#ee1696;fill-opacity:1;fill-rule:nonzero;stroke:none"
         id="path541"
         inkscape:connector-curvature="0" /><path
         d="m 3585.86,2547.4 v -59.23 c 0,-6.78 -2.85,-13.25 -7.87,-17.82 l -121.67,-110.93 13.83,-21.14 160.68,116.53 c 7.5,5.44 12.33,13.81 13.3,23.02 l 10.86,103.29 -69.13,-33.72"
         style="fill:#fab6a9;fill-opacity:1;fill-rule:nonzero;stroke:none"
         id="path543"
         inkscape:connector-curvature="0" /><path
         d="m 3634.04,2737.14 c 0,0 36.91,-55.5 50.66,-201.62 0,0 -63.04,-20.39 -98.84,-8.81 -35.78,11.58 48.18,210.43 48.18,210.43"
         style="fill:#5f92d3;fill-opacity:1;fill-rule:nonzero;stroke:none"
         id="path545"
         inkscape:connector-curvature="0" /><path
         d="m 3579.13,2666.96 c 0,0 -14.46,-77.33 -15.28,-113.68 -0.22,-9.99 5.88,-19.01 15.28,-22.4 v 136.08"
         style="fill:#4067b1;fill-opacity:1;fill-rule:nonzero;stroke:none"
         id="path547"
         inkscape:connector-curvature="0" /><path
         d="m 3547.56,2282.41 -26.89,3.55 -173.58,100.22 c -5.57,3.21 -15.29,2.81 -21.71,-0.9 l -123.01,-70.99 -16.26,2.14 v -16.18 h 0.02 c -0.11,-2.14 1.1,-4.19 3.73,-5.7 l 196.73,-113.58 c 5.56,-3.21 15.28,-2.81 21.71,0.9 l 133.95,77.32 c 3.61,2.08 5.42,4.77 5.31,7.29 v 15.93"
         style="fill:#5f92d3;fill-opacity:1;fill-rule:nonzero;stroke:none"
         id="path549"
         inkscape:connector-curvature="0" /><path
         d="m 3417.13,2345.74 -12.33,7.12 h -135.58 l -66.85,-38.57 -16.26,2.14 v -16.18 h 0.02 c -0.11,-2.14 1.1,-4.19 3.73,-5.7 l 196.73,-113.58 c 2.94,-1.7 7.04,-2.38 11.2,-2.1 l 19.34,166.87"
         style="fill:#4067b1;fill-opacity:1;fill-rule:nonzero;stroke:none"
         id="path551"
         inkscape:connector-curvature="0" /><path
         d="m 3193.33,2315.48 -7.22,0.95 v -16.18 h 0.02 c -0.11,-2.14 1.1,-4.19 3.73,-5.7 l 3.47,-2 v 22.93"
         style="fill:#5f92d3;fill-opacity:1;fill-rule:nonzero;stroke:none"
         id="path553"
         inkscape:connector-curvature="0" /><path
         d="m 3388.57,2180.05 c 5.27,-2 12.81,-1.57 18.45,1.15 v 27.54 h -18.45 v -28.69"
         style="fill:#ffffff;fill-opacity:1;fill-rule:nonzero;stroke:none"
         id="path555"
         inkscape:connector-curvature="0" /><path
         d="m 3386.59,2197.14 -196.73,113.59 c -5.57,3.21 -4.86,8.82 1.56,12.53 l 133.96,77.31 c 6.42,3.71 16.14,4.11 21.71,0.9 l 196.72,-113.57 c 5.56,-3.22 4.87,-8.83 -1.56,-12.54 l -133.95,-77.32 c -6.43,-3.71 -16.15,-4.11 -21.71,-0.9"
         style="fill:#ffffff;fill-opacity:1;fill-rule:nonzero;stroke:none"
         id="path557"
         inkscape:connector-curvature="0" /><path
         d="m 3383.26,2214.36 -163.57,94.44 c -4.63,2.67 -4.05,7.34 1.29,10.42 l 71.78,40.37 c 5.34,3.08 13.43,3.42 18.06,0.75 l 163.57,-94.45 c 4.63,-2.66 4.04,-7.33 -1.3,-10.42 l -71.78,-40.36 c -5.34,-3.08 -13.42,-3.42 -18.05,-0.75"
         style="fill:#d9effb;fill-opacity:1;fill-rule:nonzero;stroke:none"
         id="path559"
         inkscape:connector-curvature="0" /><path
         d="m 3332.99,2404.3 -2.05,-13.57 c -1.72,-11.56 -1.43,-23.35 0.89,-34.81 l 2.43,-11.96 c 1.36,-6.75 6.7,-11.98 13.47,-13.21 5.29,-0.97 10.29,2.75 10.89,8.09 l 3.24,29.03 c 0,0 7.42,-9.74 11.01,-9.74 3.58,0 -4.01,29.06 -12.12,45.51 -8.11,16.44 -27.76,0.66 -27.76,0.66"
         style="fill:#fab6a9;fill-opacity:1;fill-rule:nonzero;stroke:none"
         id="path561"
         inkscape:connector-curvature="0" /><path
         d="m 3399.66,2620.03 -21.1,-41.78 c -4.99,-9.87 -7.93,-20.67 -8.64,-31.71 l -9.17,-142.9 -27.76,0.66 -12.61,160.48 c -0.39,4.95 -0.15,9.94 0.72,14.84 l 14.4,81.37 64.16,-40.96"
         style="fill:#fab6a9;fill-opacity:1;fill-rule:nonzero;stroke:none"
         id="path563"
         inkscape:connector-curvature="0" /><path
         d="m 3379.92,2186.24 -16.49,21.53 -173.46,100.43 c -5.57,3.22 -10.07,11.85 -10.06,19.27 l 0.16,142.01 -9.98,13.03 9.37,5.42 0.01,-0.01 c 1.8,1.16 4.18,1.13 6.81,-0.39 l 196.58,-113.82 c 5.55,-3.23 10.06,-11.85 10.05,-19.27 l -0.17,-154.66 c 0,-4.18 -1.44,-7.08 -3.67,-8.25 l -9.15,-5.29"
         style="fill:#263c7a;fill-opacity:1;fill-rule:nonzero;stroke:none"
         id="path565"
         inkscape:connector-curvature="0" /><path
         d="m 3259.97,2267.67 -12.33,7.14 -67.65,117.5 0.08,77.17 -9.98,13.03 9.37,5.42 0.01,-0.01 c 1.8,1.16 4.18,1.13 6.81,-0.39 l 196.58,-113.82 c 2.94,-1.7 5.57,-4.91 7.41,-8.66 l -130.3,-97.38"
         style="fill:#4067b1;fill-opacity:1;fill-rule:nonzero;stroke:none"
         id="path567"
         inkscape:connector-curvature="0" /><path
         d="m 3174.52,2476.72 -4.43,5.79 9.37,5.42 0.01,-0.01 c 1.8,1.16 4.18,1.13 6.81,-0.39 l 3.45,-2.01 -15.21,-8.8"
         style="fill:#5f92d3;fill-opacity:1;fill-rule:nonzero;stroke:none"
         id="path569"
         inkscape:connector-curvature="0" /><path
         d="m 3384.64,2372.45 c 4.37,-3.58 7.75,-10.32 8.22,-16.56 l -19.21,-11.09 -9.21,15.99 20.2,11.66"
         style="fill:#2e4b8d;fill-opacity:1;fill-rule:nonzero;stroke:none"
         id="path571"
         inkscape:connector-curvature="0" /><path
         d="m 3373.49,2368.29 -196.58,113.82 c -5.56,3.22 -10.08,-0.19 -10.09,-7.61 l -0.16,-154.66 c -0.01,-7.42 4.49,-16.04 10.06,-19.27 l 196.58,-113.82 c 5.55,-3.22 10.07,0.19 10.08,7.61 l 0.17,154.66 c 0.01,7.42 -4.49,16.04 -10.06,19.27"
         style="fill:#5f92d3;fill-opacity:1;fill-rule:nonzero;stroke:none"
         id="path573"
         inkscape:connector-curvature="0" /><path
         d="m 3470.15,2338.28 -3.15,-6.53 c -3.63,-7.52 -9.33,-13.83 -16.43,-18.21 l -19.53,-12.04 c -6.07,-3.74 -13.76,-4.05 -19.93,-0.46 l -0.67,0.4 c -6.2,3.89 -6.76,12.8 -1.66,18.05 l 20.41,20.98 c 0,0 -11.46,-8.78 -14.67,-5.25 -2.36,2.6 11.11,15.25 21.45,15.67 10.35,0.41 20.35,8.53 20.35,8.53 l 13.83,-21.14"
         style="fill:#fab6a9;fill-opacity:1;fill-rule:nonzero;stroke:none"
         id="path575"
         inkscape:connector-curvature="0" /><path
         d="m 3418.41,2811.49 c 0,0 -74.8,-81.39 -104.97,-156.05 0,0 25.57,-46.09 88.19,-64.17 62.61,-18.09 16.78,220.22 16.78,220.22"
         style="fill:#5f92d3;fill-opacity:1;fill-rule:nonzero;stroke:none"
         id="path577"
         inkscape:connector-curvature="0" /><path
         d="m 3387.54,2596.09 12.12,117.13 -28.56,-109.74 c 5.09,-2.65 10.59,-5.12 16.44,-7.39"
         style="fill:#4067b1;fill-opacity:1;fill-rule:nonzero;stroke:none"
         id="path579"
         inkscape:connector-curvature="0" /><path
         d="m 3474.44,2827.92 -20.1,5.52 c 0,0 9.6,-15.09 23.6,-18.94 14.02,-3.85 16.2,8.01 16.2,8.01 l -19.7,5.41"
         style="fill:#ffffff;fill-opacity:1;fill-rule:nonzero;stroke:none"
         id="path581"
         inkscape:connector-curvature="0" /><path
         d="m 3165.78,551.719 c -62.15,-35.879 -162.91,-35.879 -225.07,0 -62.15,35.883 -62.15,94.062 0,129.941 62.15,35.891 162.91,35.879 225.07,0 62.15,-35.879 62.15,-94.07 0,-129.941 z m 132.27,206.301 c -135.2,78.07 -354.42,78.07 -489.61,0.011 -135.21,-78.062 -135.21,-204.633 0,-282.679 135.2,-78.063 354.42,-78.071 489.62,0 135.2,78.046 135.2,204.617 -0.01,282.668"
         style="fill:#d9effb;fill-opacity:1;fill-rule:nonzero;stroke:none"
         id="path583"
         inkscape:connector-curvature="0" /><path
         d="m 2757.36,804.281 123.51,-1.922 c 9.14,11.883 22.11,23.039 39,32.789 67.91,39.211 174.7,42.243 248.69,9.141 l 73.39,69.031 113,-1.769 c -5.59,3.66 -11.32,7.25 -17.37,10.75 -157.04,90.669 -411.64,90.669 -568.68,0.008 -28.87,-16.68 -52.4,-35.258 -70.65,-55.047 l 59.11,-62.981"
         style="fill:#263c7a;fill-opacity:1;fill-rule:nonzero;stroke:none"
         id="path585"
         inkscape:connector-curvature="0" /><path
         d="M 3354.95,1090.89 V 911.551 l -113,1.769 v 179.34 l 113,-1.77"
         style="fill:#5f92d3;fill-opacity:1;fill-rule:nonzero;stroke:none"
         id="path587"
         inkscape:connector-curvature="0" /><path
         d="M 3168.56,1023.64 V 844.289 l 73.39,69.031 v 179.34 l -73.39,-69.02"
         style="fill:#263c7a;fill-opacity:1;fill-rule:nonzero;stroke:none"
         id="path589"
         inkscape:connector-curvature="0" /><path
         d="m 2880.87,981.699 v -179.34 l 162.46,132.379 125.23,-90.449 v 179.351 l -115.31,55.95 c 0,0 -158.75,-48.61 -167,-50.67 -8.25,-2.06 -5.38,-47.221 -5.38,-47.221"
         style="fill:#263c7a;fill-opacity:1;fill-rule:nonzero;stroke:none"
         id="path591"
         inkscape:connector-curvature="0" /><path
         d="m 2757.36,983.621 v -179.34 l 123.51,-1.922 v 179.34 l -123.51,1.922"
         style="fill:#263c7a;fill-opacity:1;fill-rule:nonzero;stroke:none"
         id="path593"
         inkscape:connector-curvature="0" /><path
         d="M 2698.25,1046.61 V 867.262 l 59.11,-62.981 v 179.34 l -59.11,62.989"
         style="fill:#5f92d3;fill-opacity:1;fill-rule:nonzero;stroke:none"
         id="path595"
         inkscape:connector-curvature="0" /><path
         d="m 2757.36,983.621 123.51,-1.922 c 9.14,11.891 22.11,23.041 39,32.801 67.91,39.21 174.7,42.23 248.69,9.14 l 73.39,69.02 113,-1.77 c -5.59,3.66 -11.32,7.26 -17.37,10.76 -157.04,90.66 -411.64,90.66 -568.68,0 -28.87,-16.67 -52.4,-35.27 -70.65,-55.04 l 59.11,-62.989"
         style="fill:#d9effb;fill-opacity:1;fill-rule:nonzero;stroke:none"
         id="path597"
         inkscape:connector-curvature="0" /><path
         d="M 3205.76,1001.58 V 836.719 l 106.9,25.613 c 0,0 -6.28,96.469 -8.55,99.039 -2.28,2.578 -98.35,40.209 -98.35,40.209"
         style="fill:#5f92d3;fill-opacity:1;fill-rule:nonzero;stroke:none"
         id="path599"
         inkscape:connector-curvature="0" /><path
         d="M 3124.86,836.719 V 657.371 l 11.54,-12.312 75.37,43.461 c 0,0 -11.68,136.91 -13.06,139.66 -1.38,2.742 -73.85,8.539 -73.85,8.539"
         style="fill:#263c7a;fill-opacity:1;fill-rule:nonzero;stroke:none"
         id="path601"
         inkscape:connector-curvature="0" /><path
         d="m 3270.39,883.012 -64.63,-60.782 c 53.84,-42.589 47.47,-102.64 -19.13,-141.089 -18.24,-10.539 -39.31,-18.45 -61.77,-23.77 l 66.8,-71.16 -59.19,-55.672 c 75.15,8.68 146.85,29.813 205.12,63.441 134.99,77.942 153.81,197.481 56.71,287.102 l -123.91,1.93"
         style="fill:#4067b1;fill-opacity:1;fill-rule:nonzero;stroke:none"
         id="path603"
         inkscape:connector-curvature="0" /><path
         d="m 3132.47,709.879 v -179.34 l 146.55,56.602 176.27,168.16 -0.67,190.437 -186.47,-147.808 -135.68,-88.051"
         style="fill:#4067b1;fill-opacity:1;fill-rule:nonzero;stroke:none"
         id="path605"
         inkscape:connector-curvature="0" /><path
         d="m 3270.39,1062.36 -64.63,-60.78 c 53.84,-42.592 47.47,-102.65 -19.13,-141.1 -18.24,-10.531 -39.31,-18.449 -61.77,-23.761 l 66.8,-71.168 -59.19,-55.672 c 75.15,8.68 146.85,29.801 205.12,63.453 134.99,77.938 153.81,197.477 56.71,287.098 l -123.91,1.93"
         style="fill:#d9effb;fill-opacity:1;fill-rule:nonzero;stroke:none"
         id="path607"
         inkscape:connector-curvature="0" /><path
         d="m 3131.99,587.141 -58.88,62.718 c -54.66,-3.32 -111.34,7.09 -153.24,31.282 -43.27,24.98 -61.09,59.078 -53.52,91.589 l -140.21,2.18 -53.92,57.442 c -47.15,-80.942 -14.99,-173.891 96.69,-238.364 82.06,-47.379 190.77,-69.949 298.27,-67.808 l 64.81,60.961"
         style="fill:#4067b1;fill-opacity:1;fill-rule:nonzero;stroke:none"
         id="path609"
         inkscape:connector-curvature="0" /><path
         d="M 3067.18,705.52 V 526.18 l -415.94,230.5 v 179.429 l 60.73,-24.558 355.21,-206.031"
         style="fill:#4067b1;fill-opacity:1;fill-rule:nonzero;stroke:none"
         id="path611"
         inkscape:connector-curvature="0" /><path
         d="M 3131.99,766.48 V 587.141 l -64.81,-60.961 v 179.34 l 64.81,60.96"
         style="fill:#263c7a;fill-opacity:1;fill-rule:nonzero;stroke:none"
         id="path613"
         inkscape:connector-curvature="0" /><path
         d="m 3131.99,766.48 -58.88,62.731 c -54.66,-3.32 -111.34,7.09 -153.24,31.269 -43.27,24.989 -61.09,59.09 -53.52,91.59 l -140.21,2.18 -53.92,57.45 c -47.15,-80.938 -14.99,-173.891 96.69,-238.368 82.06,-47.383 190.77,-69.941 298.27,-67.812 l 64.81,60.96"
         style="fill:#5f92d3;fill-opacity:1;fill-rule:nonzero;stroke:none"
         id="path615"
         inkscape:connector-curvature="0" /><path
         d="m 3374.95,3195.05 10.69,18.14 c 0,0 8.93,-4.92 18.52,-1.9 7.65,2.41 14.28,9.32 19.71,20.55 19.1,39.6 54.38,42.61 70.36,38.66 l -5.05,-20.45 2.53,10.23 -2.44,-10.24 c -3.06,0.7 -30.41,5.89 -46.43,-27.34 -8.15,-16.86 -19.17,-27.5 -32.79,-31.63 -18.19,-5.51 -33.42,2.99 -35.1,3.98"
         style="fill:#5f92d3;fill-opacity:1;fill-rule:nonzero;stroke:none"
         id="path617"
         inkscape:connector-curvature="0" /><path
         d="m 3040.11,2676.19 c -41.61,0 -75.45,-33.85 -75.45,-75.46 0,-41.61 33.84,-75.46 75.45,-75.46 41.62,0 75.46,33.85 75.46,75.46 0,41.61 -33.84,75.46 -75.46,75.46 z m 0,-171.97 c -53.22,0 -96.51,43.29 -96.51,96.51 0,53.22 43.29,96.51 96.51,96.51 53.23,0 96.52,-43.29 96.52,-96.51 0,-53.22 -43.29,-96.51 -96.52,-96.51"
         style="fill:#d9effb;fill-opacity:1;fill-rule:nonzero;stroke:none"
         id="path619"
         inkscape:connector-curvature="0" /><path
         d="m 2473.79,1286.66 c -26.13,0 -47.39,-21.26 -47.39,-47.39 0,-26.12 21.26,-47.38 47.39,-47.38 26.12,0 47.38,21.26 47.38,47.38 0,26.13 -21.26,47.39 -47.38,47.39 z m 0,-115.82 c -37.74,0 -68.44,30.7 -68.44,68.43 0,37.74 30.7,68.44 68.44,68.44 37.73,0 68.43,-30.7 68.43,-68.44 0,-37.73 -30.7,-68.43 -68.43,-68.43"
         style="fill:#5f92d3;fill-opacity:1;fill-rule:nonzero;stroke:none"
         id="path621"
         inkscape:connector-curvature="0" /><path
         d="m 2880.52,2024.42 27.87,-56.7 56.7,27.88 -27.89,56.7 z m 18.26,-84.88 -46.45,94.49 94.48,46.45 46.46,-94.49 -94.49,-46.45"
         style="fill:#5f92d3;fill-opacity:1;fill-rule:nonzero;stroke:none"
         id="path623"
         inkscape:connector-curvature="0" /><path
         d="m 5247.94,2931.33 -43.43,-21.35 -21.36,43.43 43.44,21.36 21.35,-43.44"
         style="fill:#5f92d3;fill-opacity:1;fill-rule:nonzero;stroke:none"
         id="path625"
         inkscape:connector-curvature="0" /><path
         d="m 4326.85,3443.84 -14.88,14.89 70.73,70.73 14.88,-14.89 -70.73,-70.73"
         style="fill:#d9effb;fill-opacity:1;fill-rule:nonzero;stroke:none"
         id="path627"
         inkscape:connector-curvature="0" /><path
         d="m 4382.7,3443.84 -70.73,70.73 14.88,14.89 70.73,-70.73 -14.88,-14.89"
         style="fill:#d9effb;fill-opacity:1;fill-rule:nonzero;stroke:none"
         id="path629"
         inkscape:connector-curvature="0" /><path
         d="m 5107.72,3451.29 c 0,-27.43 -22.24,-49.68 -49.68,-49.68 -27.43,0 -49.67,22.25 -49.67,49.68 0,27.43 22.24,49.66 49.67,49.66 27.44,0 49.68,-22.23 49.68,-49.66"
         style="fill:#d9effb;fill-opacity:1;fill-rule:nonzero;stroke:none"
         id="path631"
         inkscape:connector-curvature="0" /><path
         d="m 3770.67,668.531 c 0,-15.949 -12.93,-28.883 -28.88,-28.883 -15.94,0 -28.87,12.934 -28.87,28.883 0,15.938 12.93,28.867 28.87,28.867 15.95,0 28.88,-12.929 28.88,-28.867"
         style="fill:#d9effb;fill-opacity:1;fill-rule:nonzero;stroke:none"
         id="path633"
         inkscape:connector-curvature="0" /><path
         d="m 4939.56,671.941 c 0,-32.699 -26.51,-59.203 -59.2,-59.203 -32.7,0 -59.2,26.504 -59.2,59.203 0,32.7 26.5,59.2 59.2,59.2 32.69,0 59.2,-26.5 59.2,-59.2"
         style="fill:#d9effb;fill-opacity:1;fill-rule:nonzero;stroke:none"
         id="path635"
         inkscape:connector-curvature="0" /><path
         d="M 2814.38,1798.19 2603,1920.23 c -4.19,2.41 -7.97,2.51 -10.93,0.88 l 0.01,0.14 -20.5,-11.85 c 0,0 9.07,-3.31 14.4,-5.27 v -153.94 c 0,-12.53 7.62,-27.08 17.02,-32.5 l 202.05,-116.65 v -18.07 l 20.71,11.94 -0.12,0.04 c 3.51,2.13 5.75,6.81 5.75,13.55 v 157.19 c 0,12.52 -7.61,27.07 -17.01,32.5"
         style="fill:#d1078d;fill-opacity:1;fill-rule:nonzero;stroke:none"
         id="path637"
         inkscape:connector-curvature="0" /><path
         d="m 2793.5,1583.61 -211.38,122.05 c -9.4,5.42 -17.02,19.97 -17.02,32.49 v 157.19 c 0,12.52 7.62,18.28 17.02,12.85 l 211.38,-122.04 c 9.4,-5.42 17.02,-19.97 17.02,-32.5 v -157.18 c 0,-12.53 -7.62,-18.28 -17.02,-12.86"
         style="fill:#ee1696;fill-opacity:1;fill-rule:nonzero;stroke:none"
         id="path639"
         inkscape:connector-curvature="0" /><path
         d="m 2653.2,1759.82 c 0,-9.09 -6.39,-12.78 -14.27,-8.23 -7.87,4.55 -14.25,15.6 -14.25,24.71 0,9.09 6.38,12.78 14.25,8.23 7.88,-4.55 14.27,-15.61 14.27,-24.71"
         style="fill:#ffffff;fill-opacity:1;fill-rule:nonzero;stroke:none"
         id="path641"
         inkscape:connector-curvature="0" /><path
         d="m 2696.41,1734.88 c 0,-9.1 -6.38,-12.78 -14.26,-8.24 -7.88,4.55 -14.27,15.61 -14.27,24.7 0,9.1 6.39,12.79 14.27,8.24 7.88,-4.54 14.26,-15.61 14.26,-24.7"
         style="fill:#ffffff;fill-opacity:1;fill-rule:nonzero;stroke:none"
         id="path643"
         inkscape:connector-curvature="0" /><path
         d="m 2739.62,1709.93 c 0,-9.09 -6.39,-12.79 -14.26,-8.23 -7.88,4.55 -14.27,15.6 -14.27,24.7 0,9.09 6.39,12.78 14.27,8.24 7.87,-4.56 14.26,-15.61 14.26,-24.71"
         style="fill:#ffffff;fill-opacity:1;fill-rule:nonzero;stroke:none"
         id="path645"
         inkscape:connector-curvature="0" /><path
         d="m 4841.67,3242.22 -211.39,122.05 c -4.18,2.42 -7.97,2.5 -10.93,0.87 l 0.02,0.14 -20.51,-11.85 c 0,0 9.08,-3.3 14.41,-5.26 v -153.94 c 0,-12.52 7.61,-27.07 17.01,-32.5 l 202.05,-116.66 v -18.05 l 20.71,11.92 -0.11,0.04 c 3.5,2.14 5.75,6.83 5.75,13.57 v 157.17 c 0,12.53 -7.62,27.08 -17.01,32.5"
         style="fill:#5f92d3;fill-opacity:1;fill-rule:nonzero;stroke:none"
         id="path647"
         inkscape:connector-curvature="0" /><path
         d="M 4820.79,3027.65 4609.4,3149.7 c -9.4,5.41 -17.01,19.96 -17.01,32.5 v 157.17 c 0,12.53 7.61,18.28 17.01,12.86 l 211.39,-122.05 c 9.39,-5.42 17.01,-19.97 17.01,-32.49 V 3040.5 c 0,-12.52 -7.62,-18.28 -17.01,-12.85"
         style="fill:#d9effb;fill-opacity:1;fill-rule:nonzero;stroke:none"
         id="path649"
         inkscape:connector-curvature="0" /><path
         d="m 4680.48,3203.86 c 0,-9.1 -6.38,-12.78 -14.25,-8.24 -7.89,4.55 -14.27,15.62 -14.27,24.71 0,9.09 6.38,12.78 14.27,8.23 7.87,-4.54 14.25,-15.6 14.25,-24.7"
         style="fill:#ffffff;fill-opacity:1;fill-rule:nonzero;stroke:none"
         id="path651"
         inkscape:connector-curvature="0" /><path
         d="m 4723.7,3178.91 c 0,-9.09 -6.39,-12.78 -14.27,-8.23 -7.87,4.55 -14.26,15.61 -14.26,24.71 0,9.09 6.39,12.77 14.26,8.23 7.88,-4.55 14.27,-15.62 14.27,-24.71"
         style="fill:#ffffff;fill-opacity:1;fill-rule:nonzero;stroke:none"
         id="path653"
         inkscape:connector-curvature="0" /><path
         d="m 4766.9,3153.97 c 0,-9.1 -6.38,-12.78 -14.26,-8.24 -7.88,4.55 -14.27,15.61 -14.27,24.71 0,9.09 6.39,12.78 14.27,8.23 7.88,-4.54 14.26,-15.61 14.26,-24.7"
         style="fill:#ffffff;fill-opacity:1;fill-rule:nonzero;stroke:none"
         id="path655"
         inkscape:connector-curvature="0" /><path
         d="m 4822.99,599.18 124.1,71.652 124.11,-71.652 -124.11,-71.649 -124.1,71.649"
         style="fill:#d9effb;fill-opacity:1;fill-rule:nonzero;stroke:none"
         id="path657"
         inkscape:connector-curvature="0" /><path
         d="m 5086.42,753.309 124.1,71.652 124.11,-71.652 -124.11,-71.649 -124.1,71.649"
         style="fill:#d9effb;fill-opacity:1;fill-rule:nonzero;stroke:none"
         id="path659"
         inkscape:connector-curvature="0" /><path
         d="m 5349.06,903.762 124.1,71.648 124.11,-71.648 -124.11,-71.653 -124.1,71.653"
         style="fill:#d9effb;fill-opacity:1;fill-rule:nonzero;stroke:none"
         id="path661"
         inkscape:connector-curvature="0" /><path
         d="m 5210.52,753.309 v 382.141 l -124.1,71.65 V 824.961 l 124.1,-71.652"
         style="fill:#c23222;fill-opacity:1;fill-rule:nonzero;stroke:none"
         id="path663"
         inkscape:connector-curvature="0" /><path
         d="m 5210.52,1135.45 124.11,71.65 V 824.961 l -124.11,-71.652 v 382.141"
         style="fill:#d1078d;fill-opacity:1;fill-rule:nonzero;stroke:none"
         id="path665"
         inkscape:connector-curvature="0" /><path
         d="m 5210.52,753.309 v 382.141 l -124.1,71.65 V 824.961 l 124.1,-71.652"
         style="fill:#ee1696;fill-opacity:1;fill-rule:nonzero;stroke:none"
         id="path667"
         inkscape:connector-curvature="0" /><path
         d="m 4947.09,599.18 v 214.961 l -124.1,71.648 V 670.832 l 124.1,-71.652"
         style="fill:#ee1696;fill-opacity:1;fill-rule:nonzero;stroke:none"
         id="path669"
         inkscape:connector-curvature="0" /><path
         d="m 4947.09,814.141 124.11,71.648 V 670.832 L 4947.09,599.18 v 214.961"
         style="fill:#d1078d;fill-opacity:1;fill-rule:nonzero;stroke:none"
         id="path671"
         inkscape:connector-curvature="0" /><path
         d="m 4822.99,885.789 124.1,71.652 124.11,-71.652 -124.11,-71.648 -124.1,71.648"
         style="fill:#ee1696;fill-opacity:1;fill-rule:nonzero;stroke:none"
         id="path673"
         inkscape:connector-curvature="0" /><path
         d="m 5473.16,903.762 v 525.448 l -124.1,71.65 V 975.41 l 124.1,-71.648"
         style="fill:#ee1696;fill-opacity:1;fill-rule:nonzero;stroke:none"
         id="path675"
         inkscape:connector-curvature="0" /><path
         d="m 5473.16,1429.21 124.1,71.65 V 975.41 l -124.1,-71.648 v 525.448"
         style="fill:#d1078d;fill-opacity:1;fill-rule:nonzero;stroke:none"
         id="path677"
         inkscape:connector-curvature="0" /><path
         d="m 5349.06,1500.86 124.1,71.65 124.1,-71.65 -124.1,-71.65 -124.1,71.65"
         style="fill:#ee1696;fill-opacity:1;fill-rule:nonzero;stroke:none"
         id="path679"
         inkscape:connector-curvature="0" /><path
         d="m 5086.42,1207.1 124.1,71.65 124.11,-71.65 -124.11,-71.65 -124.1,71.65"
         style="fill:#ee1696;fill-opacity:1;fill-rule:nonzero;stroke:none"
         id="path681"
         inkscape:connector-curvature="0" /></g></g></svg>