<?xml version="1.0" encoding="UTF-8" standalone="no"?>
<!-- Created with Inkscape (http://www.inkscape.org/) -->

<svg
   xmlns:dc="http://purl.org/dc/elements/1.1/"
   xmlns:cc="http://creativecommons.org/ns#"
   xmlns:rdf="http://www.w3.org/1999/02/22-rdf-syntax-ns#"
   xmlns:svg="http://www.w3.org/2000/svg"
   xmlns="http://www.w3.org/2000/svg"
   xmlns:sodipodi="http://sodipodi.sourceforge.net/DTD/sodipodi-0.dtd"
   xmlns:inkscape="http://www.inkscape.org/namespaces/inkscape"
   version="1.1"
   id="svg2862"
   xml:space="preserve"
   width="800"
   height="533.33331"
   viewBox="0 0 800 533.33331"
   sodipodi:docname="cloud.svg"
   inkscape:version="0.92.3 (2405546, 2018-03-11)"><metadata
     id="metadata2868"><rdf:RDF><cc:Work
         rdf:about=""><dc:format>image/svg+xml</dc:format><dc:type
           rdf:resource="http://purl.org/dc/dcmitype/StillImage" /><dc:title></dc:title></cc:Work></rdf:RDF></metadata><defs
     id="defs2866" /><sodipodi:namedview
     pagecolor="#ffffff"
     bordercolor="#666666"
     borderopacity="1"
     objecttolerance="10"
     gridtolerance="10"
     guidetolerance="10"
     inkscape:pageopacity="0"
     inkscape:pageshadow="2"
     inkscape:window-width="1366"
     inkscape:window-height="705"
     id="namedview2864"
     showgrid="false"
     inkscape:zoom="0.39875"
     inkscape:cx="400"
     inkscape:cy="266.66666"
     inkscape:window-x="0"
     inkscape:window-y="30"
     inkscape:window-maximized="1"
     inkscape:current-layer="g2872" /><g
     id="g2870"
     inkscape:groupmode="layer"
     inkscape:label="ink_ext_XXXXXX"
     transform="matrix(1.3333333,0,0,-1.3333333,0,533.33333)"><g
       id="g2872"
       transform="scale(0.1)"><path
         d="m 3803.5445,1289.8237 c -13.71,0 -26.8,2.77 -36.58,8.42 l -351.72,203.06 c -21.59,12.46 -18.89,34.23 6.04,48.63 l 339.62,196.07 c 13.63,7.87 31.09,11.91 47.64,11.91 13.71,0 26.8,-2.77 36.58,-8.41 l 351.73,-203.07 c 21.58,-12.47 18.88,-34.24 -6.06,-48.62 l -339.61,-196.09 c -13.63,-7.87 -31.09,-11.9 -47.64,-11.9"
         style="fill:#e4eff6;fill-opacity:1;fill-rule:nonzero;stroke:none"
         id="path2874"
         inkscape:connector-curvature="0" /><path
         d="m 4313.5345,1701.1037 v 0 151.97 l -340.76,0.19 -117.8,68 c -27.03,15.61 -74.24,13.65 -105.45,-4.37 l -109.9,-63.45 -341.06,0.2 v -156.3 c -0.77,-10.56 5.12,-20.75 18.1,-28.25 l 440.44,-254.29 c 27.03,-15.61 74.25,-13.65 105.46,4.37 l 425.29,245.53 c 18,10.4 26.69,23.87 25.68,36.4"
         style="fill:#4067b1;fill-opacity:1;fill-rule:nonzero;stroke:none"
         id="path2876"
         inkscape:connector-curvature="0" /><path
         d="m 3806.0545,1931.7137 c -19.79,-0.48 -40.31,-5.46 -56.53,-14.82 l -109.9,-63.45 -341.06,0.2 v -156.3 c -0.77,-10.56 5.12,-20.75 18.1,-28.25 l 440.44,-254.29 c 12.99,-7.5 30.65,-10.9 48.95,-10.46 v 527.37"
         style="fill:#4067b1;fill-opacity:1;fill-rule:nonzero;stroke:none"
         id="path2878"
         inkscape:connector-curvature="0" /><path
         d="m 3337.1545,1853.6137 -38.59,0.03 v -156.3 c -0.77,-10.56 5.12,-20.75 18.1,-28.25 l 20.49,-11.83 v 196.35"
         style="fill:#5f92d3;fill-opacity:1;fill-rule:nonzero;stroke:none"
         id="path2880"
         inkscape:connector-curvature="0" /><path
         d="m 3763.8945,1411.4837 c 23.31,-9.99 57.04,-9.43 84.3,0.96 v 177.46 h -84.3 v -178.42"
         style="fill:#5f92d3;fill-opacity:1;fill-rule:nonzero;stroke:none"
         id="path2882"
         inkscape:connector-curvature="0" /><path
         d="m 3757.1045,1570.5237 -440.44,254.29 c -27.03,15.61 -23.64,42.87 7.58,60.89 l 425.28,245.53 c 31.21,18.02 78.42,19.99 105.45,4.38 l 440.44,-254.29 c 27.04,-15.6 23.65,-42.87 -7.56,-60.89 l -425.29,-245.53 c -31.21,-18.02 -78.43,-19.98 -105.46,-4.38"
         style="fill:#d9effb;fill-opacity:1;fill-rule:nonzero;stroke:none"
         id="path2884"
         inkscape:connector-curvature="0" /><path
         d="m 3765.0345,1616.2937 -369.09,213.1 c -22.65,13.08 -19.81,35.93 6.35,51.02 l 356.39,205.77 c 26.15,15.09 65.72,16.73 88.37,3.66 l 369.09,-213.1 c 22.65,-13.07 19.81,-35.92 -6.34,-51.02 l -356.39,-205.76 c -26.16,-15.1 -65.73,-16.74 -88.38,-3.67"
         style="fill:#5f92d3;fill-opacity:1;fill-rule:nonzero;stroke:none"
         id="path2886"
         inkscape:connector-curvature="0" /><path
         d="m 4151.5345,1660.9937 c 0,-11.34 -7.97,-25.14 -17.8,-30.81 -9.82,-5.67 -17.78,-1.07 -17.78,10.27 0,11.34 7.96,25.14 17.78,30.81 9.83,5.68 17.8,1.08 17.8,-10.27"
         style="fill:#d9effb;fill-opacity:1;fill-rule:nonzero;stroke:none"
         id="path2888"
         inkscape:connector-curvature="0" /><path
         d="m 4208.7645,1694.0437 c 0,-11.35 -7.97,-25.14 -17.79,-30.81 -9.82,-5.68 -17.78,-1.08 -17.78,10.27 0,11.34 7.96,25.14 17.78,30.81 9.82,5.67 17.79,1.08 17.79,-10.27"
         style="fill:#d9effb;fill-opacity:1;fill-rule:nonzero;stroke:none"
         id="path2890"
         inkscape:connector-curvature="0" /><path
         d="m 4266.0045,1727.0837 c 0,-11.34 -7.97,-25.13 -17.79,-30.81 -9.83,-5.67 -17.8,-1.07 -17.8,10.27 0,11.35 7.97,25.14 17.8,30.82 9.82,5.66 17.79,1.07 17.79,-10.28"
         style="fill:#d9effb;fill-opacity:1;fill-rule:nonzero;stroke:none"
         id="path2892"
         inkscape:connector-curvature="0" /><path
         d="m 4313.5345,1943.9537 v 0 151.97 l -340.76,0.19 -117.8,68.01 c -27.03,15.6 -74.24,13.65 -105.45,-4.38 l -109.9,-63.44 -341.06,0.19 v -156.29 c -0.77,-10.57 5.12,-20.76 18.1,-28.26 l 440.44,-254.29 c 27.03,-15.6 74.25,-13.64 105.46,4.38 l 425.29,245.53 c 18,10.39 26.69,23.86 25.68,36.39"
         style="fill:#4067b1;fill-opacity:1;fill-rule:nonzero;stroke:none"
         id="path2894"
         inkscape:connector-curvature="0" /><path
         d="m 3806.0545,2174.5737 c -19.79,-0.47 -40.31,-5.46 -56.53,-14.83 l -109.9,-63.44 -341.06,0.19 v -156.29 c -0.77,-10.57 5.12,-20.76 18.1,-28.26 l 440.44,-254.29 c 12.99,-7.5 30.65,-10.9 48.95,-10.45 v 527.37"
         style="fill:#4067b1;fill-opacity:1;fill-rule:nonzero;stroke:none"
         id="path2896"
         inkscape:connector-curvature="0" /><path
         d="m 3337.1545,2096.4737 -38.59,0.02 v -156.29 c -0.77,-10.57 5.12,-20.76 18.1,-28.26 l 20.49,-11.83 v 196.36"
         style="fill:#5f92d3;fill-opacity:1;fill-rule:nonzero;stroke:none"
         id="path2898"
         inkscape:connector-curvature="0" /><path
         d="m 3763.8945,1654.3337 c 23.31,-9.99 57.04,-9.43 84.3,0.97 v 177.45 h -84.3 v -178.42"
         style="fill:#5f92d3;fill-opacity:1;fill-rule:nonzero;stroke:none"
         id="path2900"
         inkscape:connector-curvature="0" /><path
         d="m 3757.1045,1813.3837 -440.44,254.29 c -27.03,15.61 -23.64,42.86 7.58,60.89 l 425.28,245.54 c 31.21,18.01 78.42,19.97 105.45,4.36 l 440.44,-254.29 c 27.04,-15.6 23.65,-42.86 -7.56,-60.88 l -425.29,-245.54 c -31.21,-18.02 -78.43,-19.97 -105.46,-4.37"
         style="fill:#d9effb;fill-opacity:1;fill-rule:nonzero;stroke:none"
         id="path2902"
         inkscape:connector-curvature="0" /><path
         d="m 3765.0345,1859.1537 -369.09,213.1 c -22.65,13.08 -19.81,35.92 6.35,51.02 l 356.39,205.76 c 26.15,15.11 65.72,16.75 88.37,3.66 l 369.09,-213.09 c 22.65,-13.08 19.81,-35.92 -6.34,-51.02 l -356.39,-205.76 c -26.16,-15.11 -65.73,-16.75 -88.38,-3.67"
         style="fill:#5f92d3;fill-opacity:1;fill-rule:nonzero;stroke:none"
         id="path2904"
         inkscape:connector-curvature="0" /><path
         d="m 4151.5345,1903.8537 c 0,-11.35 -7.97,-25.14 -17.8,-30.81 -9.82,-5.67 -17.78,-1.07 -17.78,10.27 0,11.34 7.96,25.14 17.78,30.81 9.83,5.67 17.8,1.07 17.8,-10.27"
         style="fill:#d9effb;fill-opacity:1;fill-rule:nonzero;stroke:none"
         id="path2906"
         inkscape:connector-curvature="0" /><path
         d="m 4208.7645,1936.9037 c 0,-11.35 -7.97,-25.15 -17.79,-30.82 -9.82,-5.67 -17.78,-1.08 -17.78,10.27 0,11.35 7.96,25.14 17.78,30.81 9.82,5.68 17.79,1.08 17.79,-10.26"
         style="fill:#d9effb;fill-opacity:1;fill-rule:nonzero;stroke:none"
         id="path2908"
         inkscape:connector-curvature="0" /><path
         d="m 4266.0045,1969.9437 c 0,-11.34 -7.97,-25.14 -17.79,-30.81 -9.83,-5.68 -17.8,-1.08 -17.8,10.27 0,11.35 7.97,25.14 17.8,30.81 9.82,5.67 17.79,1.07 17.79,-10.27"
         style="fill:#d9effb;fill-opacity:1;fill-rule:nonzero;stroke:none"
         id="path2910"
         inkscape:connector-curvature="0" /><path
         d="m 4313.5345,2186.8137 v 0 151.96 l -340.76,0.2 -117.8,68 c -27.03,15.61 -74.24,13.65 -105.45,-4.37 l -109.9,-63.45 -341.06,0.19 v -156.29 c -0.77,-10.57 5.12,-20.75 18.1,-28.25 l 440.44,-254.29 c 27.03,-15.6 74.25,-13.65 105.46,4.37 l 425.29,245.53 c 18,10.4 26.69,23.86 25.68,36.4"
         style="fill:#4067b1;fill-opacity:1;fill-rule:nonzero;stroke:none"
         id="path2912"
         inkscape:connector-curvature="0" /><path
         d="m 3806.0545,2417.4337 c -19.79,-0.48 -40.31,-5.46 -56.53,-14.83 l -109.9,-63.45 -341.06,0.19 v -156.29 c -0.77,-10.57 5.12,-20.75 18.1,-28.25 l 440.44,-254.29 c 12.99,-7.5 30.65,-10.91 48.95,-10.46 v 527.38"
         style="fill:#4067b1;fill-opacity:1;fill-rule:nonzero;stroke:none"
         id="path2914"
         inkscape:connector-curvature="0" /><path
         d="m 3337.1545,2339.3237 -38.59,0.02 v -156.29 c -0.77,-10.57 5.12,-20.75 18.1,-28.25 l 20.49,-11.84 v 196.36"
         style="fill:#5f92d3;fill-opacity:1;fill-rule:nonzero;stroke:none"
         id="path2916"
         inkscape:connector-curvature="0" /><path
         d="m 3763.8945,1897.1837 c 23.31,-9.98 57.04,-9.42 84.3,0.97 v 177.46 h -84.3 v -178.43"
         style="fill:#5f92d3;fill-opacity:1;fill-rule:nonzero;stroke:none"
         id="path2918"
         inkscape:connector-curvature="0" /><path
         d="m 3757.1045,2056.2337 -440.44,254.29 c -27.03,15.61 -23.64,42.87 7.58,60.89 l 425.28,245.54 c 31.21,18.02 78.42,19.98 105.45,4.37 l 440.44,-254.28 c 27.04,-15.62 23.65,-42.88 -7.56,-60.89 l -425.29,-245.54 c -31.21,-18.02 -78.43,-19.98 -105.46,-4.38"
         style="fill:#d9effb;fill-opacity:1;fill-rule:nonzero;stroke:none"
         id="path2920"
         inkscape:connector-curvature="0" /><path
         d="m 4151.5345,2146.7037 c 0,-11.34 -7.97,-25.13 -17.8,-30.81 -9.82,-5.67 -17.78,-1.07 -17.78,10.28 0,11.33 7.96,25.13 17.78,30.81 9.83,5.67 17.8,1.07 17.8,-10.28"
         style="fill:#d9effb;fill-opacity:1;fill-rule:nonzero;stroke:none"
         id="path2922"
         inkscape:connector-curvature="0" /><path
         d="m 4208.7645,2179.7537 c 0,-11.35 -7.97,-25.14 -17.79,-30.81 -9.82,-5.67 -17.78,-1.07 -17.78,10.26 0,11.35 7.96,25.15 17.78,30.82 9.82,5.67 17.79,1.08 17.79,-10.27"
         style="fill:#d9effb;fill-opacity:1;fill-rule:nonzero;stroke:none"
         id="path2924"
         inkscape:connector-curvature="0" /><path
         d="m 4266.0045,2212.8037 c 0,-11.35 -7.97,-25.14 -17.79,-30.81 -9.83,-5.68 -17.8,-1.08 -17.8,10.26 0,11.35 7.97,25.15 17.8,30.81 9.82,5.67 17.79,1.08 17.79,-10.26"
         style="fill:#d9effb;fill-opacity:1;fill-rule:nonzero;stroke:none"
         id="path2926"
         inkscape:connector-curvature="0" /><path
         d="m 3783.1545,2213.8937 -206.11,119 c -12.64,7.3 -11.06,20.05 3.55,28.49 l 199,114.89 c 14.61,8.44 36.7,9.36 49.36,2.05 l 206.1,-118.99 c 12.65,-7.3 11.07,-20.06 -3.54,-28.5 l -199.02,-114.9 c -14.6,-8.43 -36.7,-9.34 -49.34,-2.04"
         style="fill:#5f92d3;fill-opacity:1;fill-rule:nonzero;stroke:none"
         id="path2928"
         inkscape:connector-curvature="0" /><path
         d="m 3802.8745,2313.5237 -28.51,16.46 c -1.75,1.02 -1.52,2.78 0.5,3.95 l 27.53,15.9 c 2.02,1.16 5.07,1.29 6.82,0.28 l 28.52,-16.46 c 1.75,-1.02 1.53,-2.78 -0.49,-3.95 l -27.53,-15.9 c -2.02,-1.16 -5.08,-1.29 -6.84,-0.28"
         style="fill:#d9effb;fill-opacity:1;fill-rule:nonzero;stroke:none"
         id="path2930"
         inkscape:connector-curvature="0" /><path
         d="m 3577.0445,2332.8937 0.59,-0.34 c 0.96,0.69 1.85,1.39 2.96,2.03 l 199,114.91 c 14.61,8.42 36.7,9.34 49.36,2.04 l 205.52,-118.65 c 11.66,8.34 12.27,19.7 0.58,26.45 l -206.1,118.99 c -12.66,7.31 -34.75,6.39 -49.36,-2.05 l -199,-114.89 c -14.61,-8.44 -16.19,-21.19 -3.55,-28.49"
         style="fill:#4067b1;fill-opacity:1;fill-rule:nonzero;stroke:none"
         id="path2932"
         inkscape:connector-curvature="0" /><path
         d="m 3199.7945,915.27267 c -13.71,0 -26.8,2.77 -36.57,8.422 l -351.73,203.05903 c -21.58,12.47 -18.88,34.24 6.04,48.63 l 339.62,196.08 c 13.64,7.87 31.09,11.91 47.64,11.91 13.71,0 26.8,-2.77 36.58,-8.42 l 351.73,-203.07 c 21.59,-12.46 18.88,-34.23 -6.05,-48.62 l -339.62,-196.08103 c -13.63,-7.871 -31.09,-11.91 -47.64,-11.91"
         style="fill:#e4eff6;fill-opacity:1;fill-rule:nonzero;stroke:none"
         id="path2934"
         inkscape:connector-curvature="0" /><path
         d="m 3709.7845,1326.5637 v 0 151.96 l -340.76,0.2 -117.79,67.99 c -27.03,15.61 -74.24,13.66 -105.45,-4.37 l -109.9,-63.44 -341.07,0.19 v -156.29 c -0.77,-10.57 5.13,-20.76 18.11,-28.26 l 440.44,-254.29 c 27.03,-15.61 74.25,-13.64 105.46,4.37 l 425.28,245.54 c 18,10.39 26.69,23.86 25.68,36.4"
         style="fill:#623da1;fill-opacity:1;fill-rule:nonzero;stroke:none"
         id="path2936"
         inkscape:connector-curvature="0" /><path
         d="m 3202.3045,1557.1737 c -19.78,-0.48 -40.31,-5.47 -56.52,-14.83 l -109.9,-63.44 -341.07,0.19 v -156.29 c -0.77,-10.57 5.13,-20.76 18.11,-28.26 l 440.44,-254.29 c 12.99,-7.5 30.65,-10.9 48.94,-10.45 v 527.37"
         style="fill:#7844a6;fill-opacity:1;fill-rule:nonzero;stroke:none"
         id="path2938"
         inkscape:connector-curvature="0" /><path
         d="m 2733.4145,1479.0737 -38.6,0.02 v -156.29 c -0.77,-10.57 5.13,-20.76 18.11,-28.26 l 20.49,-11.83 v 196.36"
         style="fill:#8e54b0;fill-opacity:1;fill-rule:nonzero;stroke:none"
         id="path2940"
         inkscape:connector-curvature="0" /><path
         d="m 3160.1445,1036.9337 c 23.32,-9.99 57.04,-9.44 84.31,0.96 v 177.46 h -84.31 v -178.42"
         style="fill:#683fa2;fill-opacity:1;fill-rule:nonzero;stroke:none"
         id="path2942"
         inkscape:connector-curvature="0" /><path
         d="m 3153.3645,1195.9837 -440.44,254.29 c -27.03,15.6 -23.64,42.87 7.57,60.89 l 425.29,245.53 c 31.21,18.02 78.42,19.97 105.45,4.37 l 440.44,-254.29 c 27.03,-15.6 23.65,-42.86 -7.57,-60.89 l -425.28,-245.52 c -31.21,-18.03 -78.43,-19.98 -105.46,-4.38"
         style="fill:#6f41a4;fill-opacity:1;fill-rule:nonzero;stroke:none"
         id="path2944"
         inkscape:connector-curvature="0" /><path
         d="m 3161.2845,1241.7537 -369.09,213.1 c -22.65,13.07 -19.8,35.92 6.35,51.02 l 356.39,205.76 c 26.16,15.1 65.72,16.74 88.37,3.67 l 369.1,-213.1 c 22.65,-13.08 19.81,-35.93 -6.35,-51.02 l -356.39,-205.77 c -26.15,-15.1 -65.72,-16.74 -88.38,-3.66"
         style="fill:#5a3c9f;fill-opacity:1;fill-rule:nonzero;stroke:none"
         id="path2946"
         inkscape:connector-curvature="0" /><path
         d="m 3547.7845,1286.4537 c 0,-11.35 -7.96,-25.14 -17.79,-30.81 -9.82,-5.67 -17.79,-1.08 -17.79,10.26 0,11.35 7.97,25.15 17.79,30.81 9.83,5.68 17.79,1.08 17.79,-10.26"
         style="fill:#ee1696;fill-opacity:1;fill-rule:nonzero;stroke:none"
         id="path2948"
         inkscape:connector-curvature="0" /><path
         d="m 3605.0145,1319.5037 c 0,-11.35 -7.96,-25.15 -17.78,-30.81 -9.82,-5.68 -17.79,-1.08 -17.79,10.26 0,11.35 7.97,25.14 17.79,30.81 9.82,5.67 17.78,1.07 17.78,-10.26"
         style="fill:#ee1696;fill-opacity:1;fill-rule:nonzero;stroke:none"
         id="path2950"
         inkscape:connector-curvature="0" /><path
         d="m 3662.2545,1352.5337 c 0,-11.33 -7.96,-25.13 -17.78,-30.81 -9.83,-5.67 -17.8,-1.07 -17.8,10.28 0,11.34 7.97,25.13 17.8,30.81 9.82,5.67 17.78,1.07 17.78,-10.28"
         style="fill:#ee1696;fill-opacity:1;fill-rule:nonzero;stroke:none"
         id="path2952"
         inkscape:connector-curvature="0" /><path
         d="m 3709.7845,1573.0137 v 0 151.97 l -340.76,0.19 -117.79,68.01 c -27.03,15.6 -74.24,13.64 -105.45,-4.38 l -109.9,-63.44 -341.07,0.19 v -156.3 c -0.77,-10.55 5.13,-20.75 18.11,-28.25 l 440.44,-254.29 c 27.03,-15.6 74.25,-13.65 105.46,4.38 l 425.28,245.53 c 18,10.4 26.69,23.86 25.68,36.39"
         style="fill:#623da1;fill-opacity:1;fill-rule:nonzero;stroke:none"
         id="path2954"
         inkscape:connector-curvature="0" /><path
         d="m 3202.3045,1803.6337 c -19.78,-0.48 -40.31,-5.46 -56.52,-14.83 l -109.9,-63.44 -341.07,0.19 v -156.3 c -0.77,-10.55 5.13,-20.75 18.11,-28.25 l 440.44,-254.29 c 12.99,-7.5 30.65,-10.9 48.94,-10.46 v 527.38"
         style="fill:#7844a6;fill-opacity:1;fill-rule:nonzero;stroke:none"
         id="path2956"
         inkscape:connector-curvature="0" /><path
         d="m 2733.4145,1725.5237 -38.6,0.03 v -156.3 c -0.77,-10.55 5.13,-20.75 18.11,-28.25 l 20.49,-11.83 v 196.35"
         style="fill:#8e54b0;fill-opacity:1;fill-rule:nonzero;stroke:none"
         id="path2958"
         inkscape:connector-curvature="0" /><path
         d="m 3160.1445,1283.3937 c 23.32,-9.99 57.04,-9.43 84.31,0.96 v 177.46 h -84.31 v -178.42"
         style="fill:#683fa2;fill-opacity:1;fill-rule:nonzero;stroke:none"
         id="path2960"
         inkscape:connector-curvature="0" /><path
         d="m 3153.3645,1442.4537 -440.44,254.28 c -27.03,15.61 -23.64,42.86 7.57,60.88 l 425.29,245.54 c 31.21,18.03 78.42,19.98 105.45,4.37 l 440.44,-254.28 c 27.03,-15.61 23.65,-42.87 -7.57,-60.89 l -425.28,-245.54 c -31.21,-18.02 -78.43,-19.98 -105.46,-4.36"
         style="fill:#6f41a4;fill-opacity:1;fill-rule:nonzero;stroke:none"
         id="path2962"
         inkscape:connector-curvature="0" /><path
         d="m 3161.2845,1488.2137 -369.09,213.09 c -22.65,13.08 -19.8,35.93 6.35,51.03 l 356.39,205.76 c 26.16,15.1 65.72,16.74 88.37,3.66 l 369.1,-213.09 c 22.65,-13.08 19.81,-35.92 -6.35,-51.03 l -356.39,-205.76 c -26.15,-15.1 -65.72,-16.74 -88.38,-3.66"
         style="fill:#5a3c9f;fill-opacity:1;fill-rule:nonzero;stroke:none"
         id="path2964"
         inkscape:connector-curvature="0" /><path
         d="m 3547.7845,1532.9037 c 0,-11.33 -7.96,-25.13 -17.79,-30.81 -9.82,-5.67 -17.79,-1.07 -17.79,10.28 0,11.35 7.97,25.13 17.79,30.81 9.83,5.67 17.79,1.07 17.79,-10.28"
         style="fill:#ee1696;fill-opacity:1;fill-rule:nonzero;stroke:none"
         id="path2966"
         inkscape:connector-curvature="0" /><path
         d="m 3605.0145,1565.9537 c 0,-11.34 -7.96,-25.14 -17.78,-30.81 -9.82,-5.67 -17.79,-1.07 -17.79,10.27 0,11.34 7.97,25.14 17.79,30.82 9.82,5.67 17.78,1.07 17.78,-10.28"
         style="fill:#ee1696;fill-opacity:1;fill-rule:nonzero;stroke:none"
         id="path2968"
         inkscape:connector-curvature="0" /><path
         d="m 3662.2545,1599.0037 c 0,-11.35 -7.96,-25.14 -17.78,-30.81 -9.83,-5.68 -17.8,-1.08 -17.8,10.27 0,11.34 7.97,25.14 17.8,30.81 9.82,5.68 17.78,1.08 17.78,-10.27"
         style="fill:#ee1696;fill-opacity:1;fill-rule:nonzero;stroke:none"
         id="path2970"
         inkscape:connector-curvature="0" /><path
         d="m 3709.7845,1819.4837 v 0 151.96 l -340.76,0.2 -117.79,67.99 c -27.03,15.61 -74.24,13.66 -105.45,-4.36 l -109.9,-63.45 -341.07,0.19 v -156.29 c -0.77,-10.57 5.13,-20.76 18.11,-28.25 l 440.44,-254.29 c 27.03,-15.62 74.25,-13.65 105.46,4.36 l 425.28,245.54 c 18,10.39 26.69,23.86 25.68,36.4"
         style="fill:#623da1;fill-opacity:1;fill-rule:nonzero;stroke:none"
         id="path2972"
         inkscape:connector-curvature="0" /><path
         d="m 3202.3045,2050.0937 c -19.78,-0.48 -40.31,-5.47 -56.52,-14.82 l -109.9,-63.45 -341.07,0.19 v -156.29 c -0.77,-10.57 5.13,-20.76 18.11,-28.25 l 440.44,-254.29 c 12.99,-7.5 30.65,-10.91 48.94,-10.46 v 527.37"
         style="fill:#7844a6;fill-opacity:1;fill-rule:nonzero;stroke:none"
         id="path2974"
         inkscape:connector-curvature="0" /><path
         d="m 2733.4145,1971.9937 -38.6,0.02 v -156.29 c -0.77,-10.57 5.13,-20.76 18.11,-28.25 l 20.49,-11.84 v 196.36"
         style="fill:#8e54b0;fill-opacity:1;fill-rule:nonzero;stroke:none"
         id="path2976"
         inkscape:connector-curvature="0" /><path
         d="m 3160.1445,1529.8537 c 23.32,-9.99 57.04,-9.44 84.31,0.96 v 177.47 h -84.31 v -178.43"
         style="fill:#683fa2;fill-opacity:1;fill-rule:nonzero;stroke:none"
         id="path2978"
         inkscape:connector-curvature="0" /><path
         d="m 3153.3645,1688.9037 -440.44,254.29 c -27.03,15.6 -23.64,42.87 7.57,60.89 l 425.29,245.53 c 31.21,18.02 78.42,19.98 105.45,4.37 l 440.44,-254.29 c 27.03,-15.6 23.65,-42.86 -7.57,-60.89 l -425.28,-245.52 c -31.21,-18.03 -78.43,-19.98 -105.46,-4.38"
         style="fill:#6f41a4;fill-opacity:1;fill-rule:nonzero;stroke:none"
         id="path2980"
         inkscape:connector-curvature="0" /><path
         d="m 3684.1045,1968.7237 -425.28,-245.54 c -31.21,-18.02 -78.43,-19.98 -105.46,-4.38 l -440.44,254.29 c -6.02,3.49 -10.46,7.57 -13.48,11.97 -9.29,-14.94 -5.08,-31.15 13.48,-41.87 l 440.44,-254.29 c 27.03,-15.6 74.25,-13.65 105.46,4.38 l 425.28,245.53 c 24.25,14 31.62,33.56 21.06,48.92 -4.24,-6.82 -11.28,-13.37 -21.06,-19.01"
         style="fill:#8e54b0;fill-opacity:1;fill-rule:nonzero;stroke:none"
         id="path2982"
         inkscape:connector-curvature="0" /><path
         d="m 3547.7845,1779.3737 c 0,-11.35 -7.96,-25.14 -17.79,-30.81 -9.82,-5.67 -17.79,-1.08 -17.79,10.26 0,11.35 7.97,25.15 17.79,30.82 9.83,5.67 17.79,1.08 17.79,-10.27"
         style="fill:#ee1696;fill-opacity:1;fill-rule:nonzero;stroke:none"
         id="path2984"
         inkscape:connector-curvature="0" /><path
         d="m 3605.0145,1812.4237 c 0,-11.35 -7.96,-25.15 -17.78,-30.81 -9.82,-5.68 -17.79,-1.08 -17.79,10.26 0,11.35 7.97,25.15 17.79,30.81 9.82,5.67 17.78,1.07 17.78,-10.26"
         style="fill:#ee1696;fill-opacity:1;fill-rule:nonzero;stroke:none"
         id="path2986"
         inkscape:connector-curvature="0" /><path
         d="m 3662.2545,1845.4637 c 0,-11.34 -7.96,-25.14 -17.78,-30.82 -9.83,-5.66 -17.8,-1.07 -17.8,10.28 0,11.34 7.97,25.13 17.8,30.81 9.82,5.67 17.78,1.07 17.78,-10.27"
         style="fill:#ee1696;fill-opacity:1;fill-rule:nonzero;stroke:none"
         id="path2988"
         inkscape:connector-curvature="0" /><path
         d="m 3179.4045,1839.7937 -206.11,118.99 c -12.64,7.31 -11.05,20.06 3.55,28.5 l 199.01,114.9 c 14.6,8.43 36.7,9.35 49.35,2.04 l 206.1,-118.99 c 12.66,-7.31 11.07,-20.06 -3.54,-28.5 l -199.01,-114.89 c -14.61,-8.44 -36.7,-9.35 -49.35,-2.05"
         style="fill:#5a3c9f;fill-opacity:1;fill-rule:nonzero;stroke:none"
         id="path2990"
         inkscape:connector-curvature="0" /><path
         d="m 3199.1345,1939.4337 -28.51,16.46 c -1.75,1.01 -1.53,2.78 0.49,3.94 l 27.54,15.9 c 2.02,1.17 5.07,1.3 6.82,0.28 l 28.52,-16.46 c 1.75,-1.01 1.52,-2.78 -0.49,-3.94 l -27.54,-15.9 c -2.02,-1.17 -5.08,-1.3 -6.83,-0.28"
         style="fill:#ee1696;fill-opacity:1;fill-rule:nonzero;stroke:none"
         id="path2992"
         inkscape:connector-curvature="0" /><path
         d="m 2973.2945,1958.7837 0.59,-0.33 c 0.96,0.69 1.85,1.4 2.96,2.03 l 199.01,114.91 c 14.6,8.43 36.7,9.34 49.35,2.04 l 205.53,-118.66 c 11.65,8.35 12.26,19.71 0.57,26.46 l -206.1,118.99 c -12.65,7.31 -34.75,6.39 -49.35,-2.04 l -199.01,-114.9 c -14.6,-8.44 -16.19,-21.19 -3.55,-28.5"
         style="fill:#8e54b0;fill-opacity:1;fill-rule:nonzero;stroke:none"
         id="path2994"
         inkscape:connector-curvature="0" /><path
         d="m 3021.7345,1410.3337 -178.31,102.94 c -10.99,6.34 -19.9,23.37 -19.9,38.03 0,14.65 8.91,21.39 19.9,15.04 l 178.31,-102.94 c 10.99,-6.34 19.9,-23.38 19.9,-38.03 0,-14.65 -8.91,-21.39 -19.9,-15.04"
         style="fill:#5a3c9f;fill-opacity:1;fill-rule:nonzero;stroke:none"
         id="path2996"
         inkscape:connector-curvature="0" /><path
         d="m 3037.6845,1420.1537 -178.31,102.94 c -11,6.35 -19.9,23.38 -19.9,38.04 0,2.47 0.33,4.62 0.81,6.61 -9.49,3.46 -16.76,-3.22 -16.76,-16.44 0,-14.66 8.91,-31.69 19.9,-38.03 l 178.31,-102.94 c 9.14,-5.29 16.76,-1.42 19.09,8.42 -1.03,0.38 -2.07,0.78 -3.14,1.4"
         style="fill:#8e54b0;fill-opacity:1;fill-rule:nonzero;stroke:none"
         id="path2998"
         inkscape:connector-curvature="0" /><path
         d="m 2596.0545,540.72167 c -13.71,0 -26.8,2.774 -36.58,8.422 l -351.72,203.071 c -21.59,12.461 -18.89,34.23 6.04,48.621 l 339.62,196.088 c 13.63,7.87003 31.09,11.90003 47.64,11.90003 13.71,0 26.8,-2.77 36.58,-8.42 l 351.73,-203.06003 c 21.58,-12.461 18.88,-34.239 -6.05,-48.622 l -339.62,-196.089 c -13.63,-7.868 -31.09,-11.911 -47.64,-11.911"
         style="fill:#e4eff6;fill-opacity:1;fill-rule:nonzero;stroke:none"
         id="path3000"
         inkscape:connector-curvature="0" /><path
         d="m 3106.0445,952.01367 v 0 151.97003 l -340.76,0.18 -117.8,68.01 c -27.03,15.61 -74.24,13.64 -105.45,-4.37 l -109.9,-63.45 -341.06,0.2 V 948.25367 c -0.77,-10.559 5.12,-20.758 18.1,-28.258 l 440.44,-254.281 c 27.03,-15.61 74.25,-13.653 105.46,4.371 l 425.29,245.527 c 18,10.402 26.68,23.871 25.68,36.401"
         style="fill:#623da1;fill-opacity:1;fill-rule:nonzero;stroke:none"
         id="path3002"
         inkscape:connector-curvature="0" /><path
         d="m 2598.5645,1182.6237 c -19.79,-0.48 -40.31,-5.46 -56.53,-14.82 l -109.9,-63.45 -341.06,0.2 V 948.25367 c -0.77,-10.559 5.12,-20.758 18.1,-28.258 l 440.44,-254.281 c 12.99,-7.5 30.65,-10.903 48.95,-10.461 v 527.37003"
         style="fill:#7844a6;fill-opacity:1;fill-rule:nonzero;stroke:none"
         id="path3004"
         inkscape:connector-curvature="0" /><path
         d="m 2129.6645,1104.5237 -38.59,0.03 V 948.25367 c -0.77,-10.559 5.12,-20.758 18.1,-28.258 l 20.49,-11.82 v 196.34803"
         style="fill:#8e54b0;fill-opacity:1;fill-rule:nonzero;stroke:none"
         id="path3006"
         inkscape:connector-curvature="0" /><path
         d="m 2556.4045,662.39367 c 23.31,-9.988 57.04,-9.441 84.3,0.95 v 177.468 h -84.3 v -178.418"
         style="fill:#683fa2;fill-opacity:1;fill-rule:nonzero;stroke:none"
         id="path3008"
         inkscape:connector-curvature="0" /><path
         d="m 2549.6145,821.43267 -440.44,254.29103 c -27.03,15.61 -23.64,42.87 7.58,60.89 l 425.28,245.53 c 31.21,18.03 78.42,19.98 105.45,4.38 l 440.44,-254.29 c 27.03,-15.6 23.65,-42.87 -7.56,-60.89 l -425.29,-245.53203 c -31.21,-18.019 -78.43,-19.988 -105.46,-4.379"
         style="fill:#6f41a4;fill-opacity:1;fill-rule:nonzero;stroke:none"
         id="path3010"
         inkscape:connector-curvature="0" /><path
         d="m 2557.5445,867.20267 -369.09,213.10103 c -22.66,13.07 -19.81,35.93 6.35,51.02 l 356.39,205.76 c 26.15,15.1 65.72,16.74 88.37,3.67 l 369.1,-213.1 c 22.64,-13.08 19.8,-35.92 -6.35,-51.02 l -356.39,-205.77103 c -26.16,-15.09 -65.73,-16.73 -88.38,-3.66"
         style="fill:#5a3c9f;fill-opacity:1;fill-rule:nonzero;stroke:none"
         id="path3012"
         inkscape:connector-curvature="0" /><path
         d="m 2944.0445,911.90567 c 0,-11.344 -7.97,-25.141 -17.8,-30.812 -9.82,-5.68 -17.78,-1.079 -17.78,10.269 0,11.352 7.96,25.141 17.78,30.813 9.83,5.679 17.8,1.078 17.8,-10.27"
         style="fill:#ee1696;fill-opacity:1;fill-rule:nonzero;stroke:none"
         id="path3014"
         inkscape:connector-curvature="0" /><path
         d="m 3001.2745,944.95367 c 0,-11.341 -7.97,-25.142 -17.79,-30.81 -9.82,-5.679 -17.78,-1.082 -17.78,10.27 0,11.34 7.96,25.14 17.78,30.81 9.82,5.67 17.79,1.07 17.79,-10.27"
         style="fill:#ee1696;fill-opacity:1;fill-rule:nonzero;stroke:none"
         id="path3016"
         inkscape:connector-curvature="0" /><path
         d="m 3058.5145,977.99367 c 0,-11.35 -7.97,-25.13 -17.79,-30.81 -9.83,-5.669 -17.79,-1.07 -17.79,10.28 0,11.33 7.96,25.13 17.79,30.81 9.82,5.67 17.79,1.07 17.79,-10.28"
         style="fill:#ee1696;fill-opacity:1;fill-rule:nonzero;stroke:none"
         id="path3018"
         inkscape:connector-curvature="0" /><path
         d="m 3106.0445,1198.4737 v 0 151.96 l -340.76,0.2 -117.8,68 c -27.03,15.6 -74.24,13.65 -105.45,-4.37 l -109.9,-63.45 -341.06,0.19 v -156.29 c -0.77,-10.57 5.12,-20.76 18.1,-28.25 l 440.44,-254.28803 c 27.03,-15.61 74.25,-13.653 105.46,4.367 l 425.29,245.53103 c 18,10.4 26.68,23.86 25.68,36.4"
         style="fill:#623da1;fill-opacity:1;fill-rule:nonzero;stroke:none"
         id="path3020"
         inkscape:connector-curvature="0" /><path
         d="m 2598.5645,1429.0937 c -19.79,-0.48 -40.31,-5.47 -56.53,-14.83 l -109.9,-63.45 -341.06,0.19 v -156.29 c -0.77,-10.57 5.12,-20.76 18.1,-28.25 l 440.44,-254.28803 c 12.99,-7.5 30.65,-10.911 48.95,-10.461 v 527.37903"
         style="fill:#7844a6;fill-opacity:1;fill-rule:nonzero;stroke:none"
         id="path3022"
         inkscape:connector-curvature="0" /><path
         d="m 2129.6645,1350.9837 -38.59,0.02 v -156.29 c -0.77,-10.57 5.12,-20.76 18.1,-28.25 l 20.49,-11.84 v 196.36"
         style="fill:#8e54b0;fill-opacity:1;fill-rule:nonzero;stroke:none"
         id="path3024"
         inkscape:connector-curvature="0" /><path
         d="m 2556.4045,908.84367 c 23.31,-9.989 57.04,-9.43 84.3,0.968 v 177.46203 h -84.3 V 908.84367"
         style="fill:#683fa2;fill-opacity:1;fill-rule:nonzero;stroke:none"
         id="path3026"
         inkscape:connector-curvature="0" /><path
         d="m 2549.6145,1067.8937 -440.44,254.29 c -27.03,15.61 -23.64,42.87 7.58,60.89 l 425.28,245.54 c 31.21,18.02 78.42,19.98 105.45,4.36 l 440.44,-254.28 c 27.03,-15.61 23.65,-42.87 -7.56,-60.89 l -425.29,-245.53 c -31.21,-18.03 -78.43,-19.98 -105.46,-4.38"
         style="fill:#6f41a4;fill-opacity:1;fill-rule:nonzero;stroke:none"
         id="path3028"
         inkscape:connector-curvature="0" /><path
         d="m 2557.5445,1113.6737 -369.09,213.09 c -22.66,13.08 -19.81,35.92 6.35,51.03 l 356.39,205.76 c 26.15,15.1 65.72,16.74 88.37,3.66 l 369.1,-213.09 c 22.64,-13.09 19.8,-35.93 -6.35,-51.03 l -356.39,-205.76 c -26.16,-15.1 -65.73,-16.74 -88.38,-3.66"
         style="fill:#5a3c9f;fill-opacity:1;fill-rule:nonzero;stroke:none"
         id="path3030"
         inkscape:connector-curvature="0" /><path
         d="m 2944.0445,1158.3637 c 0,-11.34 -7.97,-25.13 -17.8,-30.81 -9.82,-5.67 -17.78,-1.07 -17.78,10.27 0,11.34 7.96,25.14 17.78,30.82 9.83,5.66 17.8,1.07 17.8,-10.28"
         style="fill:#ee1696;fill-opacity:1;fill-rule:nonzero;stroke:none"
         id="path3032"
         inkscape:connector-curvature="0" /><path
         d="m 3001.2745,1191.4137 c 0,-11.35 -7.97,-25.15 -17.79,-30.81 -9.82,-5.67 -17.78,-1.07 -17.78,10.26 0,11.35 7.96,25.15 17.78,30.81 9.82,5.68 17.79,1.08 17.79,-10.26"
         style="fill:#ee1696;fill-opacity:1;fill-rule:nonzero;stroke:none"
         id="path3034"
         inkscape:connector-curvature="0" /><path
         d="m 3058.5145,1224.4637 c 0,-11.35 -7.97,-25.15 -17.79,-30.82 -9.83,-5.67 -17.79,-1.08 -17.79,10.27 0,11.35 7.96,25.14 17.79,30.81 9.82,5.67 17.79,1.08 17.79,-10.26"
         style="fill:#ee1696;fill-opacity:1;fill-rule:nonzero;stroke:none"
         id="path3036"
         inkscape:connector-curvature="0" /><path
         d="m 3106.0445,1444.9337 v 0 151.97 l -340.76,0.18 -117.8,68.01 c -27.03,15.61 -74.24,13.64 -105.45,-4.37 l -109.9,-63.45 -341.06,0.2 v -156.3 c -0.77,-10.56 5.12,-20.76 18.1,-28.26 l 440.44,-254.28 c 27.03,-15.61 74.25,-13.65 105.46,4.37 l 425.29,245.53 c 18,10.4 26.68,23.87 25.68,36.4"
         style="fill:#623da1;fill-opacity:1;fill-rule:nonzero;stroke:none"
         id="path3038"
         inkscape:connector-curvature="0" /><path
         d="m 2598.5645,1675.5437 c -19.79,-0.48 -40.31,-5.46 -56.53,-14.82 l -109.9,-63.45 -341.06,0.2 v -156.3 c -0.77,-10.56 5.12,-20.76 18.1,-28.26 l 440.44,-254.28 c 12.99,-7.5 30.65,-10.9 48.95,-10.46 v 527.37"
         style="fill:#7844a6;fill-opacity:1;fill-rule:nonzero;stroke:none"
         id="path3040"
         inkscape:connector-curvature="0" /><path
         d="m 2129.6645,1597.4537 -38.59,0.02 v -156.3 c -0.77,-10.56 5.12,-20.76 18.1,-28.26 l 20.49,-11.82 v 196.36"
         style="fill:#8e54b0;fill-opacity:1;fill-rule:nonzero;stroke:none"
         id="path3042"
         inkscape:connector-curvature="0" /><path
         d="m 2556.4045,1155.3137 c 23.31,-9.99 57.04,-9.44 84.3,0.95 v 177.47 h -84.3 v -178.42"
         style="fill:#683fa2;fill-opacity:1;fill-rule:nonzero;stroke:none"
         id="path3044"
         inkscape:connector-curvature="0" /><path
         d="m 2549.6145,1314.3637 -440.44,254.29 c -27.03,15.6 -23.64,42.86 7.58,60.89 l 425.28,245.52 c 31.21,18.03 78.42,19.98 105.45,4.38 l 440.44,-254.29 c 27.03,-15.6 23.65,-42.87 -7.56,-60.89 l -425.29,-245.53 c -31.21,-18.02 -78.43,-19.99 -105.46,-4.37"
         style="fill:#6f41a4;fill-opacity:1;fill-rule:nonzero;stroke:none"
         id="path3046"
         inkscape:connector-curvature="0" /><path
         d="m 3080.3645,1594.1637 -425.29,-245.52 c -31.21,-18.03 -78.43,-19.98 -105.46,-4.38 l -440.44,254.29 c -6.02,3.48 -10.45,7.56 -13.48,11.96 -9.29,-14.94 -5.08,-31.15 13.48,-41.86 l 440.44,-254.29 c 27.03,-15.62 74.25,-13.65 105.46,4.37 l 425.29,245.53 c 24.24,14.01 31.62,33.57 21.05,48.93 -4.24,-6.82 -11.28,-13.37 -21.05,-19.03"
         style="fill:#8e54b0;fill-opacity:1;fill-rule:nonzero;stroke:none"
         id="path3048"
         inkscape:connector-curvature="0" /><path
         d="m 2944.0445,1404.8237 c 0,-11.34 -7.97,-25.14 -17.8,-30.81 -9.82,-5.68 -17.78,-1.08 -17.78,10.27 0,11.35 7.96,25.14 17.78,30.81 9.83,5.68 17.8,1.08 17.8,-10.27"
         style="fill:#ee1696;fill-opacity:1;fill-rule:nonzero;stroke:none"
         id="path3050"
         inkscape:connector-curvature="0" /><path
         d="m 3001.2745,1437.8737 c 0,-11.34 -7.97,-25.14 -17.79,-30.81 -9.82,-5.68 -17.78,-1.08 -17.78,10.27 0,11.35 7.96,25.14 17.78,30.81 9.82,5.67 17.79,1.07 17.79,-10.27"
         style="fill:#ee1696;fill-opacity:1;fill-rule:nonzero;stroke:none"
         id="path3052"
         inkscape:connector-curvature="0" /><path
         d="m 3058.5145,1470.9137 c 0,-11.35 -7.97,-25.13 -17.79,-30.81 -9.83,-5.67 -17.79,-1.07 -17.79,10.28 0,11.33 7.96,25.13 17.79,30.81 9.82,5.67 17.79,1.07 17.79,-10.28"
         style="fill:#ee1696;fill-opacity:1;fill-rule:nonzero;stroke:none"
         id="path3054"
         inkscape:connector-curvature="0" /><path
         d="m 2575.6645,1465.2537 -206.11,118.99 c -12.64,7.31 -11.06,20.06 3.55,28.5 l 199,114.89 c 14.61,8.44 36.71,9.35 49.36,2.05 l 206.1,-118.99 c 12.65,-7.31 11.07,-20.06 -3.54,-28.5 l -199.02,-114.9 c -14.6,-8.43 -36.7,-9.35 -49.34,-2.04"
         style="fill:#5a3c9f;fill-opacity:1;fill-rule:nonzero;stroke:none"
         id="path3056"
         inkscape:connector-curvature="0" /><path
         d="m 2595.3845,1564.8837 -28.51,16.46 c -1.75,1.02 -1.52,2.78 0.5,3.95 l 27.53,15.9 c 2.02,1.16 5.07,1.29 6.82,0.28 l 28.52,-16.47 c 1.76,-1.01 1.53,-2.77 -0.49,-3.94 l -27.53,-15.9 c -2.02,-1.16 -5.08,-1.29 -6.84,-0.28"
         style="fill:#ee1696;fill-opacity:1;fill-rule:nonzero;stroke:none"
         id="path3058"
         inkscape:connector-curvature="0" /><path
         d="m 2369.5545,1584.2437 0.59,-0.34 c 0.96,0.69 1.85,1.4 2.96,2.04 l 199,114.89 c 14.61,8.44 36.71,9.36 49.36,2.06 l 205.52,-118.67 c 11.66,8.35 12.27,19.72 0.58,26.47 l -206.1,118.99 c -12.65,7.3 -34.75,6.39 -49.36,-2.05 l -199,-114.89 c -14.61,-8.44 -16.19,-21.19 -3.55,-28.5"
         style="fill:#8e54b0;fill-opacity:1;fill-rule:nonzero;stroke:none"
         id="path3060"
         inkscape:connector-curvature="0" /><path
         d="m 2051.9645,2173.4737 -241.17,138.74 234.02,128.22 37.6,-61.43 -30.45,-205.53"
         style="fill:#7844a6;fill-opacity:1;fill-rule:nonzero;stroke:none"
         id="path3282"
         inkscape:connector-curvature="0" /><path
         d="m 3142.4345,3153.2037 -239.69,137.9 9.01,-137.9 137.7,-42.66 92.98,42.66"
         style="fill:#8e54b0;fill-opacity:1;fill-rule:nonzero;stroke:none"
         id="path3284"
         inkscape:connector-curvature="0" /><path
         d="m 1919.2245,2672.6437 c 18.24,10.54 35.67,16.68 51.87,19.22 24.16,127.01 112.54,261.89 217.91,322.73 31.69,18.28 61.83,28.07 89.17,30.17 14.39,153.94 121.42,328.89 251.4,403.93 67.89,39.2 129.51,43.83 174.96,19.83 l -0.01,0.12 2.2,-1.27 c 1.16,-0.65 2.32,-1.3 3.46,-1.98 l 232.32,-133.77 -46.96,-37.09 c 42.16,-18.42 68.8,-65.71 68.8,-135.6 0,-128.88 -90.48,-285.61 -202.1,-350.05 l -843.02,-486.71 c -83.81,-48.4 -151.76,-9.17 -151.76,87.61 0,96.79 67.95,214.47 151.76,262.86"
         style="fill:#7844a6;fill-opacity:1;fill-rule:nonzero;stroke:none"
         id="path3286"
         inkscape:connector-curvature="0" /><path
         d="m 2957.3745,3215.6837 -415.38,239.82 c 62.96,32.84 119.87,35.56 162.54,13.02 l -0.01,0.12 2.2,-1.27 c 1.16,-0.65 2.32,-1.3 3.46,-1.98 l 232.32,-133.77 -46.96,-37.09 c 29.47,-12.87 51.32,-39.91 61.83,-78.85"
         style="fill:#8e54b0;fill-opacity:1;fill-rule:nonzero;stroke:none"
         id="path3288"
         inkscape:connector-curvature="0" /><path
         d="m 2358.2945,2658.1137 -327.67,189.19 c 40.59,70.21 96.49,131.55 158.38,167.29 8.19,4.72 16.27,8.86 24.24,12.46 l 392.04,-226.34 -246.99,-142.6"
         style="fill:#8e54b0;fill-opacity:1;fill-rule:nonzero;stroke:none"
         id="path3290"
         inkscape:connector-curvature="0" /><path
         d="m 2875.8145,3316.1237 -105.47,-60.9 -284.16,164.06 c 14.1,10.96 28.59,20.86 43.39,29.41 23.39,13.5 46.01,22.81 67.5,28.36 l 278.74,-160.93"
         style="fill:#a979c3;fill-opacity:1;fill-rule:nonzero;stroke:none"
         id="path3292"
         inkscape:connector-curvature="0" /><path
         d="m 2056.7245,2888.1637 279.9,-161.6 -65.71,-73.27 -262.48,151.54 c 13.57,29.04 29.86,57.12 48.29,83.33"
         style="fill:#a979c3;fill-opacity:1;fill-rule:nonzero;stroke:none"
         id="path3294"
         inkscape:connector-curvature="0" /><path
         d="m 2158.6145,2534.9537 c 18.24,10.53 35.65,16.68 51.85,19.21 24.16,127.02 112.54,261.89 217.91,322.73 31.7,18.3 61.84,28.08 89.18,30.17 14.39,153.94 121.42,328.89 251.4,403.93 139.78,80.71 253.1,15.28 253.1,-146.11 0,-5.48 -0.15,-11 -0.42,-16.56 102.23,47.42 182.09,-6 182.09,-127.09 0,-128.87 -90.48,-285.6 -202.1,-350.04 l -843.01,-486.71 c -83.82,-48.4 -151.77,-9.17 -151.77,87.61 0,96.78 67.95,214.47 151.77,262.86"
         style="fill:#a979c3;fill-opacity:1;fill-rule:nonzero;stroke:none"
         id="path3296"
         inkscape:connector-curvature="0" /><path
         d="m 3039.4745,3109.8937 -63.37,-29.39 3.22,69.78 c 0.22,4.9 0.36,9.76 0.36,14.6 0,62.28 -18.8,107.44 -52.94,127.15 -34.15,19.7 -82.67,13.42 -136.61,-17.73 -116.01,-66.97 -217.21,-230.02 -230.39,-371.18 l -3.33,-35.57 -35.62,-2.73 c -21.88,-1.68 -45.84,-9.96 -71.23,-24.63 -92.14,-53.19 -175.19,-176.82 -197.48,-293.94 l -5.57,-29.32 -29.48,-4.61 c -11.74,-1.85 -24.28,-6.57 -37.24,-14.06 -70.78,-40.87 -130.59,-144.45 -130.59,-226.17 0,-30.58 8.49,-53.02 23.27,-61.56 14.78,-8.52 38.45,-4.66 64.95,10.63 l 843.01,486.72 c 98.07,56.62 180.92,200.11 180.92,313.35 0,44.45 -13.1,78.3 -35.96,92.89 -9.4,6 -20.77,8.99 -33.59,8.99 -15.6,0 -33.36,-4.41 -52.33,-13.22"
         style="fill:#623da1;fill-opacity:1;fill-rule:nonzero;stroke:none"
         id="path3298"
         inkscape:connector-curvature="0" /><path
         d="m 2601.6145,2677.2837 c 0,-13.46 -9.45,-29.81 -21.11,-36.54 -11.65,-6.73 -21.09,-1.27 -21.09,12.17 0,13.46 9.44,29.82 21.09,36.55 11.66,6.73 21.11,1.28 21.11,-12.18"
         style="fill:#ee1696;fill-opacity:1;fill-rule:nonzero;stroke:none"
         id="path3300"
         inkscape:connector-curvature="0" /><path
         d="m 2669.4945,2716.4737 c 0,-13.46 -9.46,-29.82 -21.11,-36.54 -11.65,-6.73 -21.09,-1.27 -21.09,12.18 0,13.45 9.44,29.81 21.09,36.54 11.65,6.73 21.11,1.28 21.11,-12.18"
         style="fill:#ee1696;fill-opacity:1;fill-rule:nonzero;stroke:none"
         id="path3302"
         inkscape:connector-curvature="0" /><path
         d="m 2737.3645,2755.6637 c 0,-13.46 -9.45,-29.82 -21.1,-36.54 -11.65,-6.73 -21.09,-1.27 -21.09,12.18 0,13.45 9.44,29.82 21.09,36.54 11.65,6.72 21.1,1.28 21.1,-12.18"
         style="fill:#ee1696;fill-opacity:1;fill-rule:nonzero;stroke:none"
         id="path3304"
         inkscape:connector-curvature="0" /><path
         d="m 1680.8645,1035.1837 c -8.64,0 -16.88,1.74 -23.03,5.29 l -161,93.67 c -13.58,7.85 -11.88,21.55 3.81,30.61 l 153.45,89.4 c 8.58,4.96 19.57,7.5 29.99,7.5 8.63,0 16.86,-1.74 23.02,-5.3 l 161,-93.67 c 13.58,-7.84 11.87,-21.54 -3.81,-30.61 l -153.45,-89.4 c -8.58,-4.95 -19.57,-7.49 -29.98,-7.49"
         style="fill:#e4eff6;fill-opacity:1;fill-rule:nonzero;stroke:none"
         id="path3306"
         inkscape:connector-curvature="0" /><path
         d="m 1926.6845,1338.2237 v 0 40.45 l -214.8,0.11 1.48,0.05 c -17.04,9.85 -46.8,8.61 -66.48,-2.75 l 6.37,2.65 -215,0.12 v -43.17 c -0.49,-6.65 3.22,-13.08 11.41,-17.8 l 201.91,-117.49 c 17.04,-9.83 46.8,-8.6 66.48,2.76 l 192.44,112.13 c 11.35,6.55 16.83,15.04 16.19,22.94"
         style="fill:#263c7a;fill-opacity:1;fill-rule:nonzero;stroke:none"
         id="path3308"
         inkscape:connector-curvature="0" /><path
         d="m 1682.5145,1385.4237 c -12.47,-0.3 -25.41,-3.43 -35.63,-9.34 l 6.37,2.65 -215,0.12 v -43.17 c -0.49,-6.65 3.22,-13.08 11.41,-17.8 l 201.91,-117.49 c 8.18,-4.72 19.32,-6.87 30.85,-6.59 l 0.09,191.62"
         style="fill:#4067b1;fill-opacity:1;fill-rule:nonzero;stroke:none"
         id="path3310"
         inkscape:connector-curvature="0" /><path
         d="m 1462.5845,1378.8437 -24.33,0.01 v -43.17 c -0.49,-6.65 3.22,-13.08 11.41,-17.8 l 12.92,-7.47 v 68.43"
         style="fill:#b8d8ed;fill-opacity:1;fill-rule:nonzero;stroke:none"
         id="path3312"
         inkscape:connector-curvature="0" /><path
         d="m 1655.8445,1198.3137 c 14.7,-6.3 35.96,-5.95 53.15,0.6 v 56.51 h -53.15 v -57.11"
         style="fill:#2e4b8d;fill-opacity:1;fill-rule:nonzero;stroke:none"
         id="path3314"
         inkscape:connector-curvature="0" /><path
         d="m 1651.5745,1243.2237 -201.91,117.47 c -17.04,9.83 -14.9,27.02 4.78,38.38 l 192.44,112.13 c 19.68,11.35 49.44,12.59 66.48,2.75 l 201.91,-117.47 c 17.04,-9.84 14.9,-27.02 -4.78,-38.38 l -192.44,-112.13 c -19.68,-11.36 -49.44,-12.6 -66.48,-2.75"
         style="fill:#d9effb;fill-opacity:1;fill-rule:nonzero;stroke:none"
         id="path3316"
         inkscape:connector-curvature="0" /><path
         d="m 1644.9545,1409.9537 c -11.42,-6.52 -29.86,-6.43 -41.2,0.19 -11.34,6.63 -11.3,17.28 0.12,23.79 11.4,6.51 29.84,6.43 41.19,-0.2 11.35,-6.63 11.29,-17.27 -0.11,-23.78"
         style="fill:#4067b1;fill-opacity:1;fill-rule:nonzero;stroke:none"
         id="path3318"
         inkscape:connector-curvature="0" /><path
         d="m 1711.0345,1371.3537 c -11.41,-6.5 -29.85,-6.41 -41.2,0.21 -11.34,6.62 -11.29,17.27 0.12,23.79 11.41,6.51 29.85,6.41 41.2,-0.21 11.34,-6.62 11.29,-17.27 -0.12,-23.79"
         style="fill:#4067b1;fill-opacity:1;fill-rule:nonzero;stroke:none"
         id="path3320"
         inkscape:connector-curvature="0" /><path
         d="m 1777.1145,1332.7737 c -11.4,-6.52 -29.85,-6.42 -41.19,0.2 -11.35,6.62 -11.29,17.28 0.11,23.78 11.41,6.52 29.86,6.43 41.2,-0.19 11.34,-6.62 11.29,-17.28 -0.12,-23.79"
         style="fill:#4067b1;fill-opacity:1;fill-rule:nonzero;stroke:none"
         id="path3322"
         inkscape:connector-curvature="0" /><path
         d="m 3800.1645,635.95267 c -8.63,0 -16.86,1.742 -23.02,5.293 l -160.99,93.68 c -13.59,7.847 -11.89,21.546 3.81,30.597 l 153.44,89.422 c 8.58,4.949 19.57,7.488 29.99,7.488 8.63,0 16.87,-1.738 23.02,-5.3 l 161,-93.668 c 13.59,-7.852 11.88,-21.551 -3.8,-30.602 l -153.46,-89.418 c -8.58,-4.949 -19.57,-7.492 -29.99,-7.492"
         style="fill:#e4eff6;fill-opacity:1;fill-rule:nonzero;stroke:none"
         id="path3324"
         inkscape:connector-curvature="0" /><path
         d="m 4045.9945,939.00367 v 0 40.44 l -214.79,0.12 1.47,0.05 c -17.04,9.84 -46.8,8.61 -66.47,-2.75 l 6.35,2.65 -214.99,0.12 v -43.169 c -0.49,-6.661 3.23,-13.09 11.42,-17.809 l 201.9,-117.48 c 17.04,-9.84 46.81,-8.614 66.48,2.757 l 192.45,112.121 c 11.35,6.551 16.82,15.051 16.18,22.95"
         style="fill:#263c7a;fill-opacity:1;fill-rule:nonzero;stroke:none"
         id="path3326"
         inkscape:connector-curvature="0" /><path
         d="m 3801.8345,986.21367 c -12.47,-0.31 -25.41,-3.45 -35.63,-9.35 l 6.35,2.65 -214.99,0.12 v -43.169 c -0.49,-6.661 3.23,-13.09 11.42,-17.809 l 201.9,-117.48 c 8.19,-4.731 19.32,-6.872 30.85,-6.59 l 0.1,191.628"
         style="fill:#4067b1;fill-opacity:1;fill-rule:nonzero;stroke:none"
         id="path3328"
         inkscape:connector-curvature="0" /><path
         d="m 3581.8945,979.61367 -24.33,0.02 v -43.169 c -0.49,-6.661 3.23,-13.09 11.42,-17.809 l 12.91,-7.461 v 68.419"
         style="fill:#b8d8ed;fill-opacity:1;fill-rule:nonzero;stroke:none"
         id="path3330"
         inkscape:connector-curvature="0" /><path
         d="m 3775.1645,799.08567 c 14.7,-6.301 35.96,-5.953 53.14,0.597 v 56.52 h -53.14 v -57.117"
         style="fill:#2e4b8d;fill-opacity:1;fill-rule:nonzero;stroke:none"
         id="path3332"
         inkscape:connector-curvature="0" /><path
         d="m 3770.8845,843.99567 -201.9,117.468 c -17.04,9.84 -14.9,27.02 4.77,38.39 l 192.45,112.12003 c 19.67,11.36 49.43,12.59 66.47,2.76 l 201.9,-117.48003 c 17.05,-9.83 14.91,-27.02 -4.76,-38.38 l -192.45,-112.128 c -19.67,-11.352 -49.44,-12.59 -66.48,-2.75"
         style="fill:#d9effb;fill-opacity:1;fill-rule:nonzero;stroke:none"
         id="path3334"
         inkscape:connector-curvature="0" /><path
         d="m 3764.2645,1010.7237 c -11.41,-6.52 -29.85,-6.42 -41.2,0.2 -11.34,6.62 -11.29,17.27 0.12,23.78 11.4,6.52 29.85,6.43 41.19,-0.19 11.35,-6.63 11.3,-17.28 -0.11,-23.79"
         style="fill:#4067b1;fill-opacity:1;fill-rule:nonzero;stroke:none"
         id="path3336"
         inkscape:connector-curvature="0" /><path
         d="m 3830.3545,972.13367 c -11.41,-6.51 -29.86,-6.42 -41.21,0.21 -11.33,6.62 -11.28,17.26 0.12,23.78 11.41,6.51003 29.86,6.42003 41.2,-0.21 11.34,-6.62 11.29,-17.26 -0.11,-23.78"
         style="fill:#4067b1;fill-opacity:1;fill-rule:nonzero;stroke:none"
         id="path3338"
         inkscape:connector-curvature="0" /><path
         d="m 3896.4345,933.55367 c -11.41,-6.511 -29.85,-6.429 -41.2,0.192 -11.34,6.637 -11.29,17.278 0.12,23.788 11.4,6.52 29.85,6.42 41.2,-0.2 11.33,-6.62 11.29,-17.28 -0.12,-23.78"
         style="fill:#4067b1;fill-opacity:1;fill-rule:nonzero;stroke:none"
         id="path3340"
         inkscape:connector-curvature="0" /><path
         d="m 3546.1745,2599.8737 c -8.63,0 -16.87,1.75 -23.02,5.3 l -161,93.67 c -13.59,7.84 -11.88,21.55 3.8,30.61 l 153.46,89.4 c 8.58,4.96 19.56,7.5 29.98,7.5 8.63,0 16.87,-1.75 23.03,-5.3 l 160.99,-93.67 c 13.59,-7.84 11.89,-21.55 -3.81,-30.61 l -153.44,-89.4 c -8.59,-4.96 -19.57,-7.5 -29.99,-7.5"
         style="fill:#e4eff6;fill-opacity:1;fill-rule:nonzero;stroke:none"
         id="path3342"
         inkscape:connector-curvature="0" /><path
         d="m 3792.0045,2902.9137 v 0 40.45 l -214.81,0.12 1.49,0.05 c -17.05,9.84 -46.81,8.6 -66.48,-2.75 l 6.36,2.65 -214.99,0.12 v -43.17 c -0.49,-6.66 3.22,-13.09 11.41,-17.82 l 201.91,-117.47 c 17.04,-9.84 46.8,-8.6 66.47,2.76 l 192.45,112.13 c 11.35,6.55 16.82,15.03 16.19,22.93"
         style="fill:#263c7a;fill-opacity:1;fill-rule:nonzero;stroke:none"
         id="path3344"
         inkscape:connector-curvature="0" /><path
         d="m 3547.8445,2950.1237 c -12.47,-0.3 -25.41,-3.44 -35.64,-9.34 l 6.36,2.65 -214.99,0.12 v -43.17 c -0.49,-6.66 3.22,-13.09 11.41,-17.82 l 201.91,-117.47 c 8.18,-4.72 19.31,-6.87 30.85,-6.59 l 0.1,191.62"
         style="fill:#4067b1;fill-opacity:1;fill-rule:nonzero;stroke:none"
         id="path3346"
         inkscape:connector-curvature="0" /><path
         d="m 3327.8945,2943.5437 -24.32,0.01 v -43.17 c -0.49,-6.66 3.22,-13.09 11.41,-17.82 l 12.91,-7.45 v 68.43"
         style="fill:#b8d8ed;fill-opacity:1;fill-rule:nonzero;stroke:none"
         id="path3348"
         inkscape:connector-curvature="0" /><path
         d="m 3521.1745,2762.9937 c 14.69,-6.29 35.95,-5.93 53.13,0.61 v 56.52 h -53.13 v -57.13"
         style="fill:#2e4b8d;fill-opacity:1;fill-rule:nonzero;stroke:none"
         id="path3350"
         inkscape:connector-curvature="0" /><path
         d="m 3516.8945,2807.9037 -201.91,117.49 c -17.04,9.83 -14.9,27.02 4.77,38.38 l 192.45,112.12 c 19.67,11.36 49.43,12.59 66.48,2.76 l 201.9,-117.47 c 17.04,-9.85 14.9,-27.03 -4.78,-38.39 l -192.44,-112.12 c -19.67,-11.37 -49.43,-12.6 -66.47,-2.77"
         style="fill:#d9effb;fill-opacity:1;fill-rule:nonzero;stroke:none"
         id="path3352"
         inkscape:connector-curvature="0" /><path
         d="m 3510.2645,2974.6437 c -11.41,-6.51 -29.85,-6.42 -41.19,0.2 -11.35,6.62 -11.29,17.27 0.11,23.79 11.41,6.51 29.86,6.41 41.19,-0.21 11.35,-6.62 11.3,-17.27 -0.11,-23.78"
         style="fill:#4067b1;fill-opacity:1;fill-rule:nonzero;stroke:none"
         id="path3354"
         inkscape:connector-curvature="0" /><path
         d="m 3576.3445,2936.0537 c -11.4,-6.51 -29.84,-6.42 -41.19,0.2 -11.35,6.63 -11.29,17.28 0.12,23.78 11.4,6.52 29.85,6.43 41.19,-0.19 11.35,-6.62 11.3,-17.28 -0.12,-23.79"
         style="fill:#4067b1;fill-opacity:1;fill-rule:nonzero;stroke:none"
         id="path3356"
         inkscape:connector-curvature="0" /><path
         d="m 3642.4445,2897.4737 c -11.42,-6.52 -29.86,-6.43 -41.21,0.2 -11.33,6.62 -11.28,17.27 0.12,23.78 11.41,6.51 29.85,6.43 41.19,-0.2 11.35,-6.63 11.3,-17.27 -0.1,-23.78"
         style="fill:#4067b1;fill-opacity:1;fill-rule:nonzero;stroke:none"
         id="path3358"
         inkscape:connector-curvature="0" /><path
         d="m 2394.2145,1126.2637 c 0,0 -28.03,14.14 -45.26,-6.92 -17.22,-21.05 -41.84,-70.76 -42.6,-104.35 -0.76,-33.59003 26.58,-31.32003 42.83,-23.37003 16.26,7.94 63.74,76.82003 66.61,90.32003 2.89,13.49 -3.38,31.75 -7.95,35.31 -4.57,3.57 -13.63,9.01 -13.63,9.01"
         style="fill:#263c7a;fill-opacity:1;fill-rule:nonzero;stroke:none"
         id="path3360"
         inkscape:connector-curvature="0" /><path
         d="m 2400.3445,1133.0137 1.29,-29.05 c 0.28,-6.17 -2.83,-12.06 -8.21,-15.11 -4.89,-2.78 -12.01,-4.91 -21.63,-3.36 -21.12,3.39 -23.01,9.43 -24.52,38.47 -1.5,29.05 53.07,9.05 53.07,9.05"
         style="fill:#d9effb;fill-opacity:1;fill-rule:nonzero;stroke:none"
         id="path3362"
         inkscape:connector-curvature="0" /><path
         d="m 2291.5745,1182.1237 c 0,0 -28.04,14.14 -45.27,-6.91 -17.21,-21.07 -41.83,-70.77 -42.6,-104.36 -0.76,-33.59 26.59,-31.32 42.84,-23.37 16.26,7.94 63.74,76.82 66.61,90.32 2.87,13.49 -3.39,31.75 -7.96,35.32 -4.57,3.56 -13.62,9 -13.62,9"
         style="fill:#263c7a;fill-opacity:1;fill-rule:nonzero;stroke:none"
         id="path3364"
         inkscape:connector-curvature="0" /><path
         d="m 2297.6945,1188.8837 1.3,-29.05 c 0.27,-6.18 -2.83,-12.07 -8.21,-15.12 -4.9,-2.77 -12.02,-4.91 -21.64,-3.36 -21.12,3.39 -23,9.43 -24.52,38.48 -1.5,29.04 53.07,9.05 53.07,9.05"
         style="fill:#d9effb;fill-opacity:1;fill-rule:nonzero;stroke:none"
         id="path3366"
         inkscape:connector-curvature="0" /><path
         d="m 2547.9045,1722.2537 c -8.3,135.05 -146.25,-19.86 -146.25,-19.86 l -94.41,-92.54 -85.02,-93.4 c -16.6,-18.24 -24.33,-42.87 -21.11,-67.32 l 34.39,-261.88 c 1.7,-12.94 12.77,-22.48 25.81,-22.37 3.68,0.03 7.9,0.36 12.74,1.11 30.68,4.79 28.41,33.96 28.41,33.96 l -6.28,244.93 178.55,107.63 c 0,0 81.47,34.7 73.17,169.74"
         style="fill:#ee1696;fill-opacity:1;fill-rule:nonzero;stroke:none"
         id="path3368"
         inkscape:connector-curvature="0" /><path
         d="m 2650.5545,1670.8137 c -8.3,135.03 -146.24,-19.88 -146.24,-19.88 l -94.42,-92.54 -85.01,-93.4 c -16.61,-18.23 -24.34,-42.86 -21.13,-67.31 l 34.4,-261.88 c 1.7,-12.94 12.76,-22.48 25.81,-22.38 3.68,0.03 7.9,0.37 12.73,1.13 30.69,4.77 28.42,33.94 28.42,33.94 l -6.29,244.93 178.56,107.64 c 0,0 81.47,34.71 73.17,169.75"
         style="fill:#ee1696;fill-opacity:1;fill-rule:nonzero;stroke:none"
         id="path3370"
         inkscape:connector-curvature="0" /><path
         d="m 2568.9445,2104.2937 c 104.59,-43.36 102.49,-105.17 102.49,-105.17 0,0 -20.49,-226.65 -13.5,-378.02 2.93,-63.27 -336.19,-68.11 -285.61,100.71 59.63,199.04 37.27,360.19 65.19,384.48 27.91,24.31 104.38,9.21 131.43,-2"
         style="fill:#7844a6;fill-opacity:1;fill-rule:nonzero;stroke:none"
         id="path3372"
         inkscape:connector-curvature="0" /><path
         d="m 2607.4345,2199.1737 c 11.12,-43.04 -14.75,-86.96 -57.8,-98.08 -43.04,-11.13 -86.96,14.74 -98.09,57.78 -11.13,43.05 14.74,86.96 57.79,98.1 43.05,11.13 86.96,-14.75 98.1,-57.8"
         style="fill:#fab6a9;fill-opacity:1;fill-rule:nonzero;stroke:none"
         id="path3374"
         inkscape:connector-curvature="0" /><path
         d="m 2602.5945,2049.4837 c -5.47,-21.24 -33.29,-32.42 -62.14,-25 -28.85,7.43 -47.8,30.67 -42.33,51.9 5.47,21.24 33.29,32.43 62.14,25 28.85,-7.43 47.8,-30.67 42.33,-51.9"
         style="fill:#fab6a9;fill-opacity:1;fill-rule:nonzero;stroke:none"
         id="path3376"
         inkscape:connector-curvature="0" /><path
         d="m 2527.0145,2109.0137 c 0,0 0.9,-4.2 -0.9,-37.34 -0.58,-10.42 35.91,-20.15 45.34,-10.72 9.42,9.44 5.65,19.24 7.92,54.7 2.25,35.46 -52.36,-6.64 -52.36,-6.64"
         style="fill:#fab6a9;fill-opacity:1;fill-rule:nonzero;stroke:none"
         id="path3378"
         inkscape:connector-curvature="0" /><path
         d="m 2463.8145,2171.0737 c 0,0 38.61,16.4 72.48,9.56 7.96,-1.61 15.34,-5.87 20.47,-12.17 1.67,-2.06 3.79,-3.93 6.19,-4.48 6.01,-1.36 15.84,23.56 27.51,24.13 11.68,0.57 19.48,-7.71 9.9,-23.03 -9.57,-15.32 -6.33,-32.47 -1.93,-34.93 4.41,-2.46 51.11,33.32 9.91,114.95 -41.21,81.63 -145.89,37.67 -162.16,21.13 0,0 -17.16,-14.95 -31.11,-1.66 0,0 -15.63,-117.1 48.74,-93.5"
         style="fill:#ee1696;fill-opacity:1;fill-rule:nonzero;stroke:none"
         id="path3380"
         inkscape:connector-curvature="0" /><path
         d="m 2612.7645,1833.5337 v -61.25 c 0,-7.01 -2.95,-13.71 -8.14,-18.44 l -125.81,-114.7 14.3,-21.85 166.16,106.84 c 7.76,5.62 12.76,14.27 13.76,23.79 l 11.2,120.47 -71.47,-34.86"
         style="fill:#fab6a9;fill-opacity:1;fill-rule:nonzero;stroke:none"
         id="path3382"
         inkscape:connector-curvature="0" /><path
         d="m 2662.5745,2029.7337 c 0,0 38.18,-57.4 52.39,-208.49 0,0 -65.2,-21.08 -102.2,-9.11 -37,11.97 49.81,217.6 49.81,217.6"
         style="fill:#7844a6;fill-opacity:1;fill-rule:nonzero;stroke:none"
         id="path3384"
         inkscape:connector-curvature="0" /><path
         d="m 2605.7945,1957.1637 c 0,0 -14.94,-79.97 -15.79,-117.56 -0.23,-10.33 6.08,-19.65 15.79,-23.16 v 140.72"
         style="fill:#5a3c9f;fill-opacity:1;fill-rule:nonzero;stroke:none"
         id="path3386"
         inkscape:connector-curvature="0" /><path
         d="m 2573.1545,1559.5237 -27.8,3.67 -179.5,103.62 c -5.76,3.33 -15.81,2.91 -22.45,-0.93 l -127.19,-73.4 -16.81,2.22 v -16.74 l 0.02,-0.01 c -0.12,-2.19 1.14,-4.31 3.86,-5.89 l 203.41,-117.44 c 5.76,-3.33 15.81,-2.91 22.45,0.93 l 138.52,79.94 c 3.74,2.16 5.6,4.94 5.49,7.55 v 16.48"
         style="fill:#263c7a;fill-opacity:1;fill-rule:nonzero;stroke:none"
         id="path3388"
         inkscape:connector-curvature="0" /><path
         d="m 2438.2945,1624.9937 -12.76,7.37 h -140.2 l -69.12,-39.88 -16.81,2.22 v -16.74 l 0.02,-0.01 c -0.12,-2.19 1.14,-4.31 3.86,-5.89 l 203.41,-117.44 c 3.04,-1.75 7.29,-2.46 11.6,-2.17 l 20,172.54"
         style="fill:#4067b1;fill-opacity:1;fill-rule:nonzero;stroke:none"
         id="path3390"
         inkscape:connector-curvature="0" /><path
         d="m 2206.8645,1593.7237 -7.46,0.98 v -16.74 l 0.02,-0.01 c -0.12,-2.19 1.14,-4.31 3.86,-5.89 l 3.58,-2.07 v 23.73"
         style="fill:#5f92d3;fill-opacity:1;fill-rule:nonzero;stroke:none"
         id="path3392"
         inkscape:connector-curvature="0" /><path
         d="m 2408.7445,1453.6737 c 5.45,-2.07 13.26,-1.61 19.08,1.19 v 28.47 h -19.08 v -29.66"
         style="fill:#2e4b8d;fill-opacity:1;fill-rule:nonzero;stroke:none"
         id="path3394"
         inkscape:connector-curvature="0" /><path
         d="m 2406.6945,1471.3537 -203.41,117.44 c -5.76,3.32 -5.04,9.12 1.61,12.96 l 138.51,79.95 c 6.64,3.83 16.69,4.25 22.45,0.93 l 203.42,-117.45 c 5.75,-3.32 5.03,-9.12 -1.61,-12.96 l -138.52,-79.94 c -6.64,-3.84 -16.69,-4.26 -22.45,-0.93"
         style="fill:#ffffff;fill-opacity:1;fill-rule:nonzero;stroke:none"
         id="path3396"
         inkscape:connector-curvature="0" /><path
         d="m 2403.2645,1489.1437 -169.15,97.66 c -4.78,2.76 -4.18,7.59 1.34,10.78 l 74.22,41.74 c 5.53,3.19 13.89,3.54 18.67,0.77 l 169.14,-97.65 c 4.79,-2.76 4.19,-7.59 -1.33,-10.78 l -74.23,-41.73 c -5.52,-3.2 -13.88,-3.54 -18.66,-0.79"
         style="fill:#d9effb;fill-opacity:1;fill-rule:nonzero;stroke:none"
         id="path3398"
         inkscape:connector-curvature="0" /><path
         d="m 2351.2645,1685.5537 -2.1,-14.03 c -1.79,-11.96 -1.48,-24.14 0.91,-35.99 l 2.51,-12.37 c 1.42,-6.97 6.94,-12.38 13.94,-13.66 5.47,-1 10.63,2.85 11.25,8.37 l 3.36,30.01 c 0,0 7.67,-10.06 11.38,-10.06 3.7,0 -4.15,30.05 -12.53,47.05 -8.38,17.01 -28.72,0.68 -28.72,0.68"
         style="fill:#fab6a9;fill-opacity:1;fill-rule:nonzero;stroke:none"
         id="path3400"
         inkscape:connector-curvature="0" /><path
         d="m 2420.2245,1908.6337 -21.83,-43.21 c -5.16,-10.21 -8.2,-21.36 -8.93,-32.78 l -9.48,-147.77 -28.72,0.68 -13.02,165.95 c -0.41,5.12 -0.16,10.27 0.74,15.34 l 14.88,84.14 66.36,-42.35"
         style="fill:#fab6a9;fill-opacity:1;fill-rule:nonzero;stroke:none"
         id="path3402"
         inkscape:connector-curvature="0" /><path
         d="m 2401.4545,1460.8937 -17.06,22.27 -179.37,103.85 c -5.75,3.33 -10.4,12.24 -10.39,19.92 l 0.16,146.84 -10.32,13.47 9.69,5.62 0.01,-0.02 c 1.86,1.2 4.32,1.17 7.03,-0.4 l 203.29,-117.7 c 5.74,-3.33 10.4,-12.25 10.39,-19.92 l -0.17,-159.92 c -0.01,-4.32 -1.49,-7.33 -3.81,-8.54 l -9.45,-5.47"
         style="fill:#263c7a;fill-opacity:1;fill-rule:nonzero;stroke:none"
         id="path3404"
         inkscape:connector-curvature="0" /><path
         d="m 2277.4145,1545.1037 -12.75,7.38 -69.95,121.5 0.08,79.79 -10.32,13.47 9.69,5.62 0.01,-0.02 c 1.86,1.2 4.32,1.17 7.03,-0.4 l 203.29,-117.7 c 3.03,-1.76 5.76,-5.09 7.65,-8.95 l -134.73,-100.69"
         style="fill:#4067b1;fill-opacity:1;fill-rule:nonzero;stroke:none"
         id="path3406"
         inkscape:connector-curvature="0" /><path
         d="m 2189.0545,1761.2637 -4.58,5.98 9.69,5.62 0.01,-0.02 c 1.86,1.2 4.32,1.17 7.03,-0.4 l 3.59,-2.07 -15.74,-9.11"
         style="fill:#5f92d3;fill-opacity:1;fill-rule:nonzero;stroke:none"
         id="path3408"
         inkscape:connector-curvature="0" /><path
         d="m 2406.3345,1653.4437 c 4.51,-3.69 8.01,-10.67 8.49,-17.12 l -19.87,-11.47 -9.51,16.53 20.89,12.06"
         style="fill:#2e4b8d;fill-opacity:1;fill-rule:nonzero;stroke:none"
         id="path3410"
         inkscape:connector-curvature="0" /><path
         d="m 2394.8045,1649.1437 -203.27,117.69 c -5.75,3.33 -10.42,-0.19 -10.43,-7.86 l -0.18,-159.93 c -0.01,-7.68 4.65,-16.59 10.4,-19.92 l 203.27,-117.7 c 5.76,-3.33 10.42,0.2 10.43,7.87 l 0.18,159.92 c 0.01,7.68 -4.65,16.6 -10.4,19.93"
         style="fill:#ffffff;fill-opacity:1;fill-rule:nonzero;stroke:none"
         id="path3412"
         inkscape:connector-curvature="0" /><path
         d="m 2493.1145,1617.2937 -3.26,-6.75 c -3.75,-7.77 -9.65,-14.31 -16.99,-18.84 l -20.19,-12.45 c -6.29,-3.86 -14.24,-4.19 -20.62,-0.47 l -0.68,0.41 c -6.42,4.03 -7,13.24 -1.72,18.67 l 21.1,21.7 c 0,0 -11.85,-9.1 -15.18,-5.43 -2.43,2.68 11.5,15.76 22.2,16.19 10.69,0.43 21.04,8.82 21.04,8.82 l 14.3,-21.85"
         style="fill:#fab6a9;fill-opacity:1;fill-rule:nonzero;stroke:none"
         id="path3414"
         inkscape:connector-curvature="0" /><path
         d="m 2439.6045,2106.6237 c 0,0 -77.35,-84.17 -108.55,-161.38 0,0 26.45,-47.66 91.2,-66.36 64.75,-18.7 17.35,227.74 17.35,227.74"
         style="fill:#7844a6;fill-opacity:1;fill-rule:nonzero;stroke:none"
         id="path3416"
         inkscape:connector-curvature="0" /><path
         d="m 2407.6845,1883.8737 12.54,121.11 -29.54,-113.46 c 5.26,-2.75 10.96,-5.3 17,-7.65"
         style="fill:#5a3c9f;fill-opacity:1;fill-rule:nonzero;stroke:none"
         id="path3418"
         inkscape:connector-curvature="0" /><path
         d="m 2497.5445,2123.6037 -20.79,5.7 c 0,0 9.92,-15.6 24.42,-19.58 14.48,-3.98 16.73,8.28 16.73,8.28 l -20.36,5.6"
         style="fill:#ffffff;fill-opacity:1;fill-rule:nonzero;stroke:none"
         id="path3420"
         inkscape:connector-curvature="0" /></g></g></svg>