<?xml version="1.0" encoding="UTF-8" standalone="no"?>
<!-- Created with Inkscape (http://www.inkscape.org/) -->

<svg
   xmlns:dc="http://purl.org/dc/elements/1.1/"
   xmlns:cc="http://creativecommons.org/ns#"
   xmlns:rdf="http://www.w3.org/1999/02/22-rdf-syntax-ns#"
   xmlns:svg="http://www.w3.org/2000/svg"
   xmlns="http://www.w3.org/2000/svg"
   xmlns:sodipodi="http://sodipodi.sourceforge.net/DTD/sodipodi-0.dtd"
   xmlns:inkscape="http://www.inkscape.org/namespaces/inkscape"
   version="1.1"
   id="svg2"
   xml:space="preserve"
   width="800"
   height="600"
   viewBox="0 0 800 600"
   sodipodi:docname="1024.svg"
   inkscape:version="0.92.3 (2405546, 2018-03-11)"><metadata
     id="metadata8"><rdf:RDF><cc:Work
         rdf:about=""><dc:format>image/svg+xml</dc:format><dc:type
           rdf:resource="http://purl.org/dc/dcmitype/StillImage" /><dc:title></dc:title></cc:Work></rdf:RDF></metadata><defs
     id="defs6"><clipPath
       clipPathUnits="userSpaceOnUse"
       id="clipPath580"><path
         d="m 5540,691.84 -498.57,287.851 c -19.39,11.2 -35.11,41.239 -35.11,67.079 v 1193.09 c 0,25.86 15.72,37.74 35.11,26.54 L 5540,1978.55 c 19.39,-11.19 35.11,-41.22 35.11,-67.08 V 718.391 c 0,-25.852 -15.72,-37.743 -35.11,-26.551 z"
         id="path578"
         inkscape:connector-curvature="0" /></clipPath><linearGradient
       x1="0"
       y1="0"
       x2="1"
       y2="0"
       gradientUnits="userSpaceOnUse"
       gradientTransform="matrix(0,1286.71,965.031,-557.161,5290.72,835.77)"
       spreadMethod="pad"
       id="linearGradient586"><stop
         style="stop-opacity:1;stop-color:#2e2971"
         offset="0"
         id="stop582" /><stop
         style="stop-opacity:1;stop-color:#5346a5"
         offset="1"
         id="stop584" /></linearGradient><clipPath
       clipPathUnits="userSpaceOnUse"
       id="clipPath602"><path
         d="m 4939.86,435.559 -435.85,251.64 c -16.95,9.781 -30.69,36.031 -30.69,58.641 v 1108.04 c 0,22.6 13.74,32.98 30.69,23.2 l 435.85,-251.63 c 16.94,-9.79 30.68,-36.05 30.68,-58.65 V 458.77 c 0,-22.61 -13.74,-32.989 -30.68,-23.211"
         id="path600"
         inkscape:connector-curvature="0" /></clipPath><linearGradient
       x1="0"
       y1="0"
       x2="1"
       y2="0"
       gradientUnits="userSpaceOnUse"
       gradientTransform="matrix(484.929,-133.459,109.886,-710.014,4454.1,1230.03)"
       spreadMethod="pad"
       id="linearGradient608"><stop
         style="stop-opacity:1;stop-color:#423a9c"
         offset="0"
         id="stop604" /><stop
         style="stop-opacity:1;stop-color:#5746a5"
         offset="1"
         id="stop606" /></linearGradient><linearGradient
       x1="0"
       y1="0"
       x2="1"
       y2="0"
       gradientUnits="userSpaceOnUse"
       gradientTransform="matrix(484.929,-133.459,109.886,-710.014,4454.1,1230.03)"
       spreadMethod="pad"
       id="linearGradient616"><stop
         style="stop-opacity:1;stop-color:#423a9c"
         offset="0"
         id="stop612" /><stop
         style="stop-opacity:1;stop-color:#5746a5"
         offset="1"
         id="stop614" /></linearGradient><clipPath
       clipPathUnits="userSpaceOnUse"
       id="clipPath652"><path
         d="m 4573.65,1711.84 c 0,4.6 1.01,8.3 2.74,10.91 -1.73,-2.6 -2.74,-6.31 -2.74,-10.91 m 17.81,12.88 -0.44,0.25 c -2.45,1.42 -4.78,2.09 -6.9,2.09 v 0 c 2.12,0 4.45,-0.67 6.91,-2.09 l 0.43,-0.25 v 0"
         id="path650"
         inkscape:connector-curvature="0" /></clipPath></defs><sodipodi:namedview
     pagecolor="#ffffff"
     bordercolor="#666666"
     borderopacity="1"
     objecttolerance="10"
     gridtolerance="10"
     guidetolerance="10"
     inkscape:pageopacity="0"
     inkscape:pageshadow="2"
     inkscape:window-width="1366"
     inkscape:window-height="705"
     id="namedview4"
     showgrid="false"
     inkscape:zoom="0.78666667"
     inkscape:cx="436.34547"
     inkscape:cy="262.08141"
     inkscape:window-x="0"
     inkscape:window-y="30"
     inkscape:window-maximized="1"
     inkscape:current-layer="g12" /><g
     id="g10"
     inkscape:groupmode="layer"
     inkscape:label="ink_ext_XXXXXX"
     transform="matrix(1.3333333,0,0,-1.3333333,0,600)"><g
       id="g12"
       transform="scale(0.1)"><path
         d="m 3940.9,564.16 c -26.25,0 -51.3,5.301 -70.03,16.11 l -1460.95,843.49 c -41.32,23.85 -36.14,65.53 11.59,93.08 l 74.05,42.75 1386.26,-800.348 v 0 c 20.12,-11.621 47.06,-17.32 75.26,-17.32 34.06,0 69.97,8.297 98.02,24.488 l 382.44,220.731 V 820.949 L 4032.11,586.961 c -26.1,-15.07 -59.52,-22.801 -91.21,-22.801"
         style="fill:#899abf;fill-opacity:1;fill-rule:nonzero;stroke:none"
         id="path216"
         inkscape:connector-curvature="0" /><path
         d="m 5525.99,3047.2 -1570,906.45 c -18.23,10.53 -36.77,12.15 -53.2,6.52 l 0.09,0.17 -2.85,-1.09 -0.69,-0.26 -56.74,-21.71 50.93,-24.93 c -0.24,-0.94 -0.53,-1.81 -0.73,-2.77 L 3615.38,2648.02 c -12.79,-58.26 12.84,-126.26 57.25,-151.91 l 1532.24,-884.64 -5.46,-64.93 62.01,24.03 c 20.83,9.75 37.51,31.78 44.4,63.17 l 277.41,1261.56 c 12.8,58.25 -12.83,126.27 -57.24,151.9"
         style="fill:#263c7a;fill-opacity:1;fill-rule:nonzero;stroke:none"
         id="path218"
         inkscape:connector-curvature="0" /><path
         d="m 5525.99,3047.2 -1570,906.45 c -18.23,10.53 -36.77,12.15 -53.2,6.52 l 0.09,0.17 -2.85,-1.09 -0.69,-0.26 -56.74,-21.71 50.93,-24.93 c -0.24,-0.94 -0.53,-1.81 -0.73,-2.77 l -190.23,-864.69 768.18,-598.49 1104.83,538.25 c -10.41,26.98 -27.71,49.92 -49.59,62.55"
         style="fill:#4067b1;fill-opacity:1;fill-rule:nonzero;stroke:none"
         id="path220"
         inkscape:connector-curvature="0" /><path
         d="m 5466.79,2868.27 119.51,50.89 c 2.2,46.28 -16.96,94.1 -48.42,119.68 l -189.18,-79.58 118.09,-90.99"
         style="fill:#2e4b8d;fill-opacity:1;fill-rule:nonzero;stroke:none"
         id="path222"
         inkscape:connector-curvature="0" /><path
         d="m 5144.87,1552.71 -1570,906.44 c -44.42,25.64 -70.04,93.65 -57.25,151.91 l 277.41,1261.57 c 12.79,58.25 59.17,84.68 103.59,59.04 l 1570,-906.44 c 44.41,-25.64 70.03,-93.65 57.24,-151.91 L 5248.45,1611.76 c -12.79,-58.26 -59.17,-84.69 -103.58,-59.05"
         style="fill:#d9effb;fill-opacity:1;fill-rule:nonzero;stroke:none"
         id="path224"
         inkscape:connector-curvature="0" /><path
         d="m 5483.69,3030.75 -1570,906.43 c -21.51,12.43 -43.41,12.41 -61.81,2.69 14.76,3.23 30.85,0.98 46.74,-8.2 l 1570,-906.43 c 44.41,-25.64 70.03,-93.67 57.24,-151.92 L 5248.45,1611.77 c -6.59,-30.03 -22.19,-51.4 -41.77,-61.74 26.51,5.79 48.63,29.83 56.85,67.25 l 277.41,1261.56 c 12.79,58.25 -12.83,126.26 -57.25,151.91"
         style="fill:#ffffff;fill-opacity:1;fill-rule:nonzero;stroke:none"
         id="path226"
         inkscape:connector-curvature="0" /><path
         d="m 5110.83,1639.29 -1476.55,852.07 c -40.64,23.47 -64.1,85.71 -52.38,139.02 l 255.68,1162.71 c 11.72,53.3 54.16,77.5 94.8,54.04 l 1476.55,-852.07 c 40.64,-23.47 64.1,-85.71 52.39,-139.02 l -255.69,-1162.7 c -11.72,-53.31 -54.15,-77.51 -94.8,-54.05"
         style="fill:#ffffff;fill-opacity:1;fill-rule:nonzero;stroke:none"
         id="path228"
         inkscape:connector-curvature="0" /><path
         d="m 5110.83,1639.29 -1476.55,852.07 c -40.64,23.47 -64.1,85.71 -52.38,139.02 l 255.68,1162.71 c 11.72,53.3 54.16,77.5 94.8,54.04 l 1476.55,-852.07 c 40.64,-23.47 64.1,-85.71 52.39,-139.02 l -255.69,-1162.7 c -11.72,-53.31 -54.15,-77.51 -94.8,-54.05"
         style="fill:#263c7a;fill-opacity:1;fill-rule:nonzero;stroke:none"
         id="path230"
         inkscape:connector-curvature="0" /><path
         d="m 5123.7,1644.54 -1476.56,852.07 c -40.63,23.46 -64.09,85.7 -52.38,138.99 l 255.69,1162.73 c 5.93,26.98 19.76,46.4 37.21,56.07 -23.41,-6.02 -42.76,-27.97 -50.08,-61.31 L 3581.9,2630.38 c -11.72,-53.31 11.74,-115.55 52.38,-139.02 l 1476.55,-852.07 c 20.07,-11.59 40.56,-11.46 57.58,-2.03 -14.01,-3.62 -29.49,-1.52 -44.71,7.28"
         style="fill:#5f92d3;fill-opacity:1;fill-rule:nonzero;stroke:none"
         id="path232"
         inkscape:connector-curvature="0" /><path
         d="m 5166.54,1513.23 -214.6,28.34 -1385.35,799.82 c -44.41,25.65 -121.99,22.44 -173.28,-7.17 l -981.64,-566.56 -129.76,17.14 v -73.63 l 0.12,-0.01 c -0.85,-17.02 8.84,-33.39 29.79,-45.49 l 1570,-906.428 c 44.41,-25.652 121.99,-22.441 173.28,7.168 l 1069.05,617.01 c 28.85,16.67 43.24,38.12 42.39,58.28 v 71.53"
         style="fill:#263c7a;fill-opacity:1;fill-rule:nonzero;stroke:none"
         id="path234"
         inkscape:connector-curvature="0" /><path
         d="m 4125.65,2018.63 -98.43,56.83 H 2945.13 l -533.46,-307.8 -129.76,17.14 v -73.63 l 0.12,-0.01 c -0.85,-17.02 8.84,-33.39 29.79,-45.49 l 1570,-906.428 c 23.48,-13.562 56.21,-18.972 89.42,-16.762 l 154.41,1276.15"
         style="fill:#4067b1;fill-opacity:1;fill-rule:nonzero;stroke:none"
         id="path236"
         inkscape:connector-curvature="0" /><path
         d="m 2339.49,1777.19 -57.58,7.61 v -73.63 l 0.12,-0.01 c -0.85,-17.02 8.84,-33.39 29.79,-45.49 l 27.67,-15.97 v 127.49"
         style="fill:#5f92d3;fill-opacity:1;fill-rule:nonzero;stroke:none"
         id="path238"
         inkscape:connector-curvature="0" /><path
         d="m 3897.63,751.891 c 42.1,-15.961 102.28,-12.493 147.23,9.14 V 925.262 H 3897.63 V 751.891"
         style="fill:#2e4b8d;fill-opacity:1;fill-rule:nonzero;stroke:none"
         id="path240"
         inkscape:connector-curvature="0" /><path
         d="M 3881.82,832.781 2311.83,1739.22 c -44.42,25.64 -38.85,70.43 12.43,100.04 l 1069.05,617.01 c 51.29,29.61 128.87,32.82 173.28,7.18 l 1570,-906.44 c 44.42,-25.64 38.84,-70.43 -12.44,-100.04 L 4055.1,839.961 c -51.29,-29.609 -128.87,-32.82 -173.28,-7.18"
         style="fill:#d9effb;fill-opacity:1;fill-rule:nonzero;stroke:none"
         id="path242"
         inkscape:connector-curvature="0" /><path
         d="M 5124.15,1483.86 4055.1,866.852 c -51.29,-29.614 -128.87,-32.821 -173.28,-7.18 l -1570,906.438 c -14.56,8.41 -23.64,18.89 -27.61,30.21 -6.94,-21.02 1.92,-42.26 27.61,-57.1 l 1570,-906.439 c 44.41,-25.64 121.99,-22.429 173.28,7.18 l 1069.05,617.009 c 34.47,19.9 48.19,46.65 40.05,69.84 -5.06,-15.3 -18.44,-30.47 -40.05,-42.95"
         style="fill:#ffffff;fill-opacity:1;fill-rule:nonzero;stroke:none"
         id="path244"
         inkscape:connector-curvature="0" /><path
         d="m 2979.56,2039.3 -71.03,41.02 c -5.71,3.29 -4.99,9.04 1.6,12.84 l 83.85,48.41 c 6.58,3.81 16.54,4.22 22.24,0.93 l 71.04,-41.02 c 5.71,-3.29 4.99,-9.04 -1.59,-12.85 l -83.85,-48.41 c -6.58,-3.8 -16.55,-4.21 -22.26,-0.92"
         style="fill:#5f92d3;fill-opacity:1;fill-rule:nonzero;stroke:none"
         id="path246"
         inkscape:connector-curvature="0" /><path
         d="m 3089.27,1975.96 -71.04,41.02 c -5.7,3.29 -4.99,9.04 1.6,12.84 l 83.84,48.42 c 6.6,3.8 16.56,4.21 22.26,0.92 l 71.04,-41.02 c 5.7,-3.29 4.99,-9.04 -1.61,-12.84 l -83.84,-48.41 c -6.59,-3.81 -16.55,-4.22 -22.25,-0.93"
         style="fill:#5f92d3;fill-opacity:1;fill-rule:nonzero;stroke:none"
         id="path248"
         inkscape:connector-curvature="0" /><path
         d="m 3198.97,1912.63 -71.04,41.01 c -5.7,3.29 -4.99,9.04 1.6,12.85 l 83.85,48.41 c 6.58,3.8 16.54,4.22 22.25,0.92 l 71.03,-41.01 c 5.71,-3.29 4.99,-9.04 -1.59,-12.85 l -83.85,-48.41 c -6.59,-3.8 -16.55,-4.22 -22.25,-0.92"
         style="fill:#5f92d3;fill-opacity:1;fill-rule:nonzero;stroke:none"
         id="path250"
         inkscape:connector-curvature="0" /><path
         d="m 3350.7,1964.94 -71.05,41 c -5.7,3.31 -4.98,9.06 1.6,12.86 l 70.38,40.63 c 6.6,3.8 16.56,4.22 22.26,0.93 l 71.03,-41.02 c 5.71,-3.29 4.99,-9.04 -1.59,-12.85 l -70.39,-40.63 c -6.58,-3.8 -16.54,-4.22 -22.24,-0.92"
         style="fill:#5f92d3;fill-opacity:1;fill-rule:nonzero;stroke:none"
         id="path252"
         inkscape:connector-curvature="0" /><path
         d="m 3460.39,1901.6 -71.03,41.01 c -5.71,3.3 -4.99,9.05 1.59,12.85 l 70.39,40.64 c 6.58,3.8 16.54,4.21 22.25,0.92 l 71.04,-41.02 c 5.7,-3.29 4.98,-9.04 -1.6,-12.84 l -70.38,-40.64 c -6.59,-3.8 -16.55,-4.21 -22.26,-0.92"
         style="fill:#5f92d3;fill-opacity:1;fill-rule:nonzero;stroke:none"
         id="path254"
         inkscape:connector-curvature="0" /><path
         d="m 3570.09,1838.26 -71.03,41.01 c -5.71,3.3 -5,9.05 1.6,12.86 l 70.38,40.63 c 6.59,3.8 16.55,4.22 22.25,0.92 l 71.04,-41.01 c 5.7,-3.3 4.99,-9.05 -1.6,-12.85 l -70.38,-40.63 c -6.59,-3.8 -16.56,-4.22 -22.26,-0.93"
         style="fill:#5f92d3;fill-opacity:1;fill-rule:nonzero;stroke:none"
         id="path256"
         inkscape:connector-curvature="0" /><path
         d="m 3679.8,1774.93 -71.04,41.01 c -5.7,3.3 -4.99,9.05 1.59,12.85 l 70.39,40.63 c 6.59,3.81 16.55,4.22 22.25,0.93 l 71.04,-41.02 c 5.7,-3.29 4.99,-9.04 -1.6,-12.85 l -70.39,-40.63 c -6.58,-3.8 -16.54,-4.21 -22.24,-0.92"
         style="fill:#5f92d3;fill-opacity:1;fill-rule:nonzero;stroke:none"
         id="path258"
         inkscape:connector-curvature="0" /><path
         d="m 3789.49,1711.59 -71.03,41.01 c -5.7,3.3 -4.99,9.05 1.6,12.85 l 70.38,40.64 c 6.58,3.8 16.55,4.21 22.26,0.92 l 71.03,-41.02 c 5.71,-3.29 4.99,-9.04 -1.6,-12.84 l -70.38,-40.63 c -6.59,-3.81 -16.55,-4.22 -22.26,-0.93"
         style="fill:#5f92d3;fill-opacity:1;fill-rule:nonzero;stroke:none"
         id="path260"
         inkscape:connector-curvature="0" /><path
         d="m 3899.2,1648.26 -71.04,41.01 c -5.71,3.3 -4.98,9.05 1.6,12.85 l 70.38,40.63 c 6.59,3.8 16.55,4.22 22.25,0.93 l 71.04,-41.02 c 5.7,-3.29 4.99,-9.04 -1.59,-12.85 l -70.39,-40.63 c -6.59,-3.8 -16.55,-4.22 -22.25,-0.92"
         style="fill:#5f92d3;fill-opacity:1;fill-rule:nonzero;stroke:none"
         id="path262"
         inkscape:connector-curvature="0" /><path
         d="m 4008.9,1584.92 -71.04,41.01 c -5.7,3.3 -4.99,9.05 1.59,12.85 l 70.4,40.63 c 6.58,3.81 16.54,4.22 22.24,0.93 l 71.05,-41.02 c 5.7,-3.29 4.98,-9.04 -1.6,-12.84 l -70.39,-40.64 c -6.59,-3.8 -16.55,-4.21 -22.25,-0.92"
         style="fill:#5f92d3;fill-opacity:1;fill-rule:nonzero;stroke:none"
         id="path264"
         inkscape:connector-curvature="0" /><path
         d="m 4118.6,1521.58 -71.04,41.02 c -5.7,3.29 -4.99,9.04 1.6,12.85 l 70.38,40.63 c 6.6,3.8 16.56,4.22 22.26,0.92 l 71.03,-41.01 c 5.71,-3.3 4.99,-9.05 -1.6,-12.85 l -70.38,-40.63 c -6.58,-3.81 -16.55,-4.22 -22.25,-0.93"
         style="fill:#5f92d3;fill-opacity:1;fill-rule:nonzero;stroke:none"
         id="path266"
         inkscape:connector-curvature="0" /><path
         d="m 4228.3,1458.25 -71.03,41.01 c -5.71,3.3 -4.99,9.05 1.59,12.85 l 70.39,40.63 c 6.58,3.81 16.54,4.22 22.25,0.93 l 71.03,-41.02 c 5.7,-3.29 4.99,-9.04 -1.59,-12.85 l -70.39,-40.63 c -6.58,-3.8 -16.54,-4.21 -22.25,-0.92"
         style="fill:#5f92d3;fill-opacity:1;fill-rule:nonzero;stroke:none"
         id="path268"
         inkscape:connector-curvature="0" /><path
         d="m 4338,1394.91 -71.03,41.02 c -5.71,3.29 -4.99,9.04 1.6,12.84 l 70.38,40.64 c 6.58,3.8 16.55,4.21 22.25,0.92 l 71.04,-41.02 c 5.7,-3.29 4.99,-9.04 -1.6,-12.84 l -70.38,-40.63 c -6.6,-3.81 -16.56,-4.22 -22.26,-0.93"
         style="fill:#5f92d3;fill-opacity:1;fill-rule:nonzero;stroke:none"
         id="path270"
         inkscape:connector-curvature="0" /><path
         d="m 3512.33,1994.92 -71.04,41.02 c -5.7,3.29 -4.99,9.04 1.6,12.84 l 70.38,40.64 c 6.6,3.8 16.56,4.21 22.26,0.92 l 71.03,-41.02 c 5.71,-3.29 5,-9.04 -1.6,-12.84 l -70.38,-40.63 c -6.59,-3.81 -16.55,-4.22 -22.25,-0.93"
         style="fill:#5f92d3;fill-opacity:1;fill-rule:nonzero;stroke:none"
         id="path272"
         inkscape:connector-curvature="0" /><path
         d="m 3400.99,2059.21 -71.04,41 c -5.7,3.29 -4.99,9.05 1.61,12.85 l 70.38,40.64 c 6.58,3.8 16.55,4.22 22.25,0.93 l 71.04,-41.02 c 5.7,-3.29 4.99,-9.04 -1.6,-12.85 l -70.39,-40.64 c -6.59,-3.79 -16.55,-4.21 -22.25,-0.91"
         style="fill:#5f92d3;fill-opacity:1;fill-rule:nonzero;stroke:none"
         id="path274"
         inkscape:connector-curvature="0" /><path
         d="m 3289.47,2123.59 -152.99,88.33 c -5.71,3.29 -4.99,9.04 1.6,12.84 l 70.38,40.65 c 6.58,3.8 16.55,4.21 22.26,0.92 L 3383.7,2178 c 5.71,-3.3 4.99,-9.05 -1.59,-12.86 l -70.39,-40.63 c -6.58,-3.8 -16.54,-4.21 -22.25,-0.92"
         style="fill:#5f92d3;fill-opacity:1;fill-rule:nonzero;stroke:none"
         id="path276"
         inkscape:connector-curvature="0" /><path
         d="m 3367.42,2201.89 -124.16,71.68 c -5.7,3.29 -4.99,9.04 1.61,12.85 l 70.38,40.64 c 6.58,3.8 16.55,4.22 22.25,0.92 l 124.15,-71.68 c 5.71,-3.29 4.99,-9.05 -1.59,-12.85 l -70.39,-40.64 c -6.58,-3.8 -16.54,-4.21 -22.25,-0.92"
         style="fill:#5f92d3;fill-opacity:1;fill-rule:nonzero;stroke:none"
         id="path278"
         inkscape:connector-curvature="0" /><path
         d="M 3622.03,1931.59 3551,1972.6 c -5.71,3.29 -4.99,9.04 1.59,12.85 l 70.39,40.63 c 6.58,3.8 16.54,4.22 22.25,0.93 l 71.03,-41.02 c 5.71,-3.29 4.99,-9.04 -1.59,-12.85 l -70.39,-40.63 c -6.58,-3.8 -16.54,-4.22 -22.25,-0.92"
         style="fill:#5f92d3;fill-opacity:1;fill-rule:nonzero;stroke:none"
         id="path280"
         inkscape:connector-curvature="0" /><path
         d="m 3731.73,1868.25 -71.03,41.02 c -5.71,3.29 -4.99,9.04 1.6,12.84 l 70.38,40.63 c 6.58,3.81 16.55,4.22 22.25,0.93 l 71.04,-41.02 c 5.7,-3.29 4.98,-9.04 -1.6,-12.84 l -70.38,-40.64 c -6.59,-3.8 -16.56,-4.21 -22.26,-0.92"
         style="fill:#5f92d3;fill-opacity:1;fill-rule:nonzero;stroke:none"
         id="path282"
         inkscape:connector-curvature="0" /><path
         d="m 3841.43,1804.91 -71.04,41.02 c -5.7,3.29 -4.98,9.04 1.6,12.85 l 70.39,40.63 c 6.59,3.8 16.55,4.21 22.25,0.92 l 71.04,-41.01 c 5.7,-3.3 4.99,-9.05 -1.61,-12.85 l -70.38,-40.63 c -6.58,-3.81 -16.55,-4.22 -22.25,-0.93"
         style="fill:#5f92d3;fill-opacity:1;fill-rule:nonzero;stroke:none"
         id="path284"
         inkscape:connector-curvature="0" /><path
         d="m 3951.13,1741.58 -71.03,41.01 c -5.7,3.3 -4.99,9.05 1.59,12.85 l 70.39,40.63 c 6.58,3.81 16.55,4.22 22.25,0.93 l 71.03,-41.02 c 5.72,-3.29 4.99,-9.04 -1.59,-12.85 l -70.39,-40.63 c -6.58,-3.8 -16.54,-4.21 -22.25,-0.92"
         style="fill:#5f92d3;fill-opacity:1;fill-rule:nonzero;stroke:none"
         id="path286"
         inkscape:connector-curvature="0" /><path
         d="m 4060.83,1678.24 -71.03,41.01 c -5.71,3.3 -4.99,9.05 1.6,12.85 l 70.38,40.64 c 6.59,3.8 16.55,4.21 22.26,0.92 l 71.03,-41.02 c 5.7,-3.29 4.99,-9.04 -1.6,-12.84 l -70.38,-40.63 c -6.59,-3.81 -16.55,-4.22 -22.26,-0.93"
         style="fill:#5f92d3;fill-opacity:1;fill-rule:nonzero;stroke:none"
         id="path288"
         inkscape:connector-curvature="0" /><path
         d="m 4170.54,1614.91 -71.04,41.01 c -5.71,3.29 -4.99,9.04 1.6,12.85 l 70.39,40.63 c 6.58,3.8 16.54,4.22 22.24,0.92 l 71.04,-41.01 c 5.7,-3.29 4.99,-9.04 -1.59,-12.85 l -70.39,-40.63 c -6.59,-3.8 -16.55,-4.22 -22.25,-0.92"
         style="fill:#5f92d3;fill-opacity:1;fill-rule:nonzero;stroke:none"
         id="path290"
         inkscape:connector-curvature="0" /><path
         d="m 4280.24,1551.57 -71.04,41.01 c -5.7,3.3 -4.99,9.05 1.6,12.85 l 70.38,40.63 c 6.59,3.81 16.56,4.22 22.26,0.93 l 71.04,-41.02 c 5.7,-3.29 4.98,-9.04 -1.61,-12.84 l -70.38,-40.64 c -6.59,-3.8 -16.55,-4.21 -22.25,-0.92"
         style="fill:#5f92d3;fill-opacity:1;fill-rule:nonzero;stroke:none"
         id="path292"
         inkscape:connector-curvature="0" /><path
         d="m 4389.93,1488.23 -71.03,41.02 c -5.7,3.29 -4.98,9.04 1.6,12.85 l 70.38,40.63 c 6.59,3.8 16.55,4.21 22.26,0.92 l 71.03,-41.01 c 5.71,-3.3 4.99,-9.05 -1.6,-12.85 l -70.38,-40.63 c -6.58,-3.81 -16.55,-4.22 -22.26,-0.93"
         style="fill:#5f92d3;fill-opacity:1;fill-rule:nonzero;stroke:none"
         id="path294"
         inkscape:connector-curvature="0" /><path
         d="m 4499.64,1424.9 -71.03,41.01 c -5.71,3.3 -4.99,9.05 1.59,12.85 l 70.39,40.63 c 6.58,3.81 16.54,4.22 22.24,0.93 l 71.04,-41.02 c 5.71,-3.29 4.99,-9.04 -1.59,-12.85 l -70.39,-40.63 c -6.59,-3.8 -16.55,-4.21 -22.25,-0.92"
         style="fill:#5f92d3;fill-opacity:1;fill-rule:nonzero;stroke:none"
         id="path296"
         inkscape:connector-curvature="0" /><path
         d="m 4694.66,1312.3 -154.99,89.48 c -5.7,3.3 -4.99,9.05 1.59,12.86 l 70.39,40.63 c 6.58,3.8 16.55,4.22 22.26,0.92 l 154.99,-89.48 c 5.7,-3.29 4.99,-9.05 -1.6,-12.85 l -70.38,-40.64 c -6.59,-3.8 -16.56,-4.21 -22.26,-0.92"
         style="fill:#5f92d3;fill-opacity:1;fill-rule:nonzero;stroke:none"
         id="path298"
         inkscape:connector-curvature="0" /><path
         d="m 4908.23,1435.6 -130.82,75.54 c -5.7,3.29 -4.99,9.04 1.61,12.84 l 70.38,40.64 c 6.59,3.8 16.55,4.22 22.25,0.93 l 130.82,-75.53 c 5.71,-3.3 4.99,-9.06 -1.6,-12.85 l -70.38,-40.64 c -6.58,-3.81 -16.55,-4.22 -22.26,-0.93"
         style="fill:#5f92d3;fill-opacity:1;fill-rule:nonzero;stroke:none"
         id="path300"
         inkscape:connector-curvature="0" /><path
         d="m 3814.14,1943.98 -71.03,41.01 c -5.71,3.29 -4.99,9.04 1.59,12.85 l 70.39,40.63 c 6.58,3.8 16.54,4.22 22.25,0.92 l 71.03,-41 c 5.7,-3.29 4.99,-9.05 -1.59,-12.86 l -70.39,-40.63 c -6.58,-3.8 -16.54,-4.22 -22.25,-0.92"
         style="fill:#5f92d3;fill-opacity:1;fill-rule:nonzero;stroke:none"
         id="path302"
         inkscape:connector-curvature="0" /><path
         d="m 3701.71,2008.88 -71.03,41.02 c -5.71,3.29 -4.99,9.04 1.59,12.85 l 70.39,40.64 c 6.58,3.8 16.54,4.21 22.24,0.91 l 71.05,-41 c 5.7,-3.29 4.98,-9.04 -1.6,-12.85 l -70.38,-40.64 c -6.59,-3.8 -16.56,-4.22 -22.26,-0.93"
         style="fill:#5f92d3;fill-opacity:1;fill-rule:nonzero;stroke:none"
         id="path304"
         inkscape:connector-curvature="0" /><path
         d="m 3589.28,2073.8 -71.04,41.01 c -5.7,3.29 -4.99,9.04 1.61,12.85 l 70.38,40.64 c 6.58,3.8 16.55,4.22 22.25,0.92 l 71.04,-41.01 c 5.7,-3.3 4.98,-9.05 -1.6,-12.85 l -70.38,-40.64 c -6.6,-3.79 -16.56,-4.21 -22.26,-0.92"
         style="fill:#5f92d3;fill-opacity:1;fill-rule:nonzero;stroke:none"
         id="path306"
         inkscape:connector-curvature="0" /><path
         d="m 3476.85,2138.71 -71.04,41.01 c -5.7,3.3 -4.99,9.05 1.6,12.86 l 70.39,40.63 c 6.59,3.8 16.55,4.21 22.25,0.92 l 71.04,-41.01 c 5.7,-3.3 4.99,-9.05 -1.61,-12.85 l -70.38,-40.63 c -6.59,-3.81 -16.55,-4.22 -22.25,-0.93"
         style="fill:#5f92d3;fill-opacity:1;fill-rule:nonzero;stroke:none"
         id="path308"
         inkscape:connector-curvature="0" /><path
         d="m 3923.84,1880.64 -71.03,41.02 c -5.71,3.29 -5,9.04 1.6,12.84 l 70.38,40.63 c 6.58,3.81 16.55,4.22 22.25,0.93 l 71.04,-41.01 c 5.7,-3.29 4.99,-9.05 -1.6,-12.85 l -70.38,-40.64 c -6.6,-3.8 -16.56,-4.21 -22.26,-0.92"
         style="fill:#5f92d3;fill-opacity:1;fill-rule:nonzero;stroke:none"
         id="path310"
         inkscape:connector-curvature="0" /><path
         d="m 4033.55,1817.3 -71.05,41.02 c -5.7,3.29 -4.98,9.04 1.6,12.85 l 70.38,40.63 c 6.6,3.8 16.56,4.21 22.26,0.92 l 71.04,-41 c 5.7,-3.3 4.99,-9.06 -1.6,-12.86 l -70.39,-40.63 c -6.58,-3.81 -16.54,-4.22 -22.24,-0.93"
         style="fill:#5f92d3;fill-opacity:1;fill-rule:nonzero;stroke:none"
         id="path312"
         inkscape:connector-curvature="0" /><path
         d="m 4143.24,1753.97 -71.03,41.01 c -5.7,3.3 -4.99,9.05 1.59,12.85 l 70.39,40.63 c 6.58,3.81 16.54,4.22 22.25,0.93 l 71.04,-41.01 c 5.71,-3.29 4.98,-9.05 -1.6,-12.86 l -70.38,-40.63 c -6.59,-3.8 -16.55,-4.21 -22.26,-0.92"
         style="fill:#5f92d3;fill-opacity:1;fill-rule:nonzero;stroke:none"
         id="path314"
         inkscape:connector-curvature="0" /><path
         d="m 4252.94,1690.63 -71.03,41.02 c -5.71,3.29 -4.99,9.04 1.6,12.84 l 70.38,40.64 c 6.59,3.8 16.55,4.21 22.26,0.92 l 71.03,-41.01 c 5.7,-3.29 4.99,-9.05 -1.6,-12.85 l -70.38,-40.63 c -6.58,-3.81 -16.55,-4.22 -22.26,-0.93"
         style="fill:#5f92d3;fill-opacity:1;fill-rule:nonzero;stroke:none"
         id="path316"
         inkscape:connector-curvature="0" /><path
         d="m 4362.65,1627.3 -71.04,41.01 c -5.7,3.29 -4.99,9.04 1.6,12.85 l 70.39,40.63 c 6.58,3.8 16.54,4.22 22.24,0.92 l 71.04,-41 c 5.7,-3.29 4.99,-9.05 -1.59,-12.86 l -70.39,-40.63 c -6.59,-3.8 -16.55,-4.22 -22.25,-0.92"
         style="fill:#5f92d3;fill-opacity:1;fill-rule:nonzero;stroke:none"
         id="path318"
         inkscape:connector-curvature="0" /><path
         d="m 4472.35,1563.96 -71.04,41.02 c -5.7,3.29 -4.99,9.04 1.6,12.84 l 70.38,40.64 c 6.59,3.8 16.56,4.21 22.26,0.92 l 71.03,-41.01 c 5.71,-3.29 4.99,-9.05 -1.6,-12.85 l -70.38,-40.64 c -6.59,-3.8 -16.55,-4.21 -22.25,-0.92"
         style="fill:#5f92d3;fill-opacity:1;fill-rule:nonzero;stroke:none"
         id="path320"
         inkscape:connector-curvature="0" /><path
         d="m 4582.05,1500.62 -71.04,41.02 c -5.7,3.29 -4.98,9.04 1.6,12.85 l 70.38,40.63 c 6.59,3.8 16.55,4.21 22.26,0.92 l 71.03,-41 c 5.7,-3.3 4.99,-9.06 -1.59,-12.85 l -70.39,-40.64 c -6.58,-3.81 -16.54,-4.22 -22.25,-0.93"
         style="fill:#5f92d3;fill-opacity:1;fill-rule:nonzero;stroke:none"
         id="path322"
         inkscape:connector-curvature="0" /><path
         d="m 4691.75,1437.29 -71.03,41.01 c -5.71,3.3 -4.99,9.05 1.59,12.85 l 70.39,40.63 c 6.58,3.81 16.54,4.22 22.24,0.93 l 71.05,-41.01 c 5.7,-3.29 4.98,-9.05 -1.6,-12.85 l -70.38,-40.64 c -6.6,-3.8 -16.56,-4.22 -22.26,-0.92"
         style="fill:#5f92d3;fill-opacity:1;fill-rule:nonzero;stroke:none"
         id="path324"
         inkscape:connector-curvature="0" /><path
         d="m 4801.45,1373.95 -71.04,41.02 c -5.7,3.29 -4.99,9.04 1.6,12.84 l 70.39,40.64 c 6.59,3.8 16.55,4.21 22.25,0.92 l 71.04,-41.01 c 5.7,-3.29 4.99,-9.05 -1.61,-12.84 l -70.38,-40.64 c -6.58,-3.81 -16.55,-4.22 -22.25,-0.93"
         style="fill:#5f92d3;fill-opacity:1;fill-rule:nonzero;stroke:none"
         id="path326"
         inkscape:connector-curvature="0" /><path
         d="m 3756.38,2100.63 -71.04,41.02 c -5.7,3.29 -4.99,9.04 1.6,12.85 l 70.39,40.63 c 6.58,3.8 16.54,4.21 22.24,0.92 l 71.04,-41 c 5.7,-3.3 4.99,-9.06 -1.59,-12.86 l -70.39,-40.63 c -6.59,-3.81 -16.55,-4.22 -22.25,-0.93"
         style="fill:#5f92d3;fill-opacity:1;fill-rule:nonzero;stroke:none"
         id="path328"
         inkscape:connector-curvature="0" /><path
         d="m 3647.22,2163.66 -71.04,41.01 c -5.7,3.3 -4.99,9.05 1.61,12.85 l 70.38,40.63 c 6.58,3.8 16.55,4.22 22.25,0.93 l 71.04,-41.02 c 5.7,-3.29 4.99,-9.04 -1.6,-12.85 l -70.38,-40.63 c -6.6,-3.8 -16.56,-4.22 -22.26,-0.92"
         style="fill:#5f92d3;fill-opacity:1;fill-rule:nonzero;stroke:none"
         id="path330"
         inkscape:connector-curvature="0" /><path
         d="m 3538.07,2226.68 -71.04,41.01 c -5.71,3.29 -4.99,9.05 1.6,12.84 l 70.39,40.64 c 6.58,3.81 16.54,4.22 22.24,0.93 l 71.04,-41.02 c 5.7,-3.29 4.99,-9.04 -1.59,-12.84 l -70.4,-40.64 c -6.58,-3.8 -16.54,-4.21 -22.24,-0.92"
         style="fill:#5f92d3;fill-opacity:1;fill-rule:nonzero;stroke:none"
         id="path332"
         inkscape:connector-curvature="0" /><path
         d="m 3428.91,2289.69 -71.04,41.02 c -5.7,3.29 -4.99,9.04 1.61,12.85 l 70.38,40.64 c 6.58,3.8 16.55,4.21 22.25,0.91 l 71.04,-41 c 5.7,-3.3 4.99,-9.05 -1.6,-12.85 l -70.39,-40.64 c -6.59,-3.81 -16.55,-4.22 -22.25,-0.93"
         style="fill:#5f92d3;fill-opacity:1;fill-rule:nonzero;stroke:none"
         id="path334"
         inkscape:connector-curvature="0" /><path
         d="m 3541.15,2354.5 -71.03,41.02 c -5.7,3.29 -4.99,9.04 1.59,12.85 l 23.27,13.42 c 6.58,3.81 16.56,4.22 22.26,0.93 l 71.03,-41.01 c 5.71,-3.29 4.99,-9.05 -1.6,-12.86 l -23.26,-13.42 c -6.59,-3.81 -16.55,-4.22 -22.26,-0.93"
         style="fill:#5f92d3;fill-opacity:1;fill-rule:nonzero;stroke:none"
         id="path336"
         inkscape:connector-curvature="0" /><path
         d="m 3683.61,2272.26 -71.04,41.01 c -5.71,3.3 -4.99,9.05 1.59,12.85 l 23.27,13.44 c 6.59,3.8 16.55,4.21 22.25,0.92 l 71.04,-41.02 c 5.7,-3.29 4.99,-9.04 -1.6,-12.84 l -23.27,-13.44 c -6.58,-3.8 -16.54,-4.22 -22.24,-0.92"
         style="fill:#5f92d3;fill-opacity:1;fill-rule:nonzero;stroke:none"
         id="path338"
         inkscape:connector-curvature="0" /><path
         d="m 3792.31,2209.5 -71.05,41.02 c -5.7,3.29 -4.98,9.04 1.6,12.85 l 23.28,13.42 c 6.58,3.8 16.54,4.22 22.24,0.93 l 71.04,-41.01 c 5.7,-3.29 4.99,-9.05 -1.6,-12.86 l -23.27,-13.42 c -6.58,-3.81 -16.54,-4.22 -22.24,-0.93"
         style="fill:#5f92d3;fill-opacity:1;fill-rule:nonzero;stroke:none"
         id="path340"
         inkscape:connector-curvature="0" /><path
         d="m 3901.01,2146.75 -71.05,41 c -5.7,3.3 -4.98,9.05 1.6,12.85 l 23.28,13.44 c 6.58,3.8 16.54,4.21 22.24,0.92 l 71.04,-41.02 c 5.7,-3.29 4.99,-9.04 -1.59,-12.84 l -23.28,-13.44 c -6.58,-3.8 -16.54,-4.21 -22.24,-0.91"
         style="fill:#5f92d3;fill-opacity:1;fill-rule:nonzero;stroke:none"
         id="path342"
         inkscape:connector-curvature="0" /><path
         d="m 4009.7,2083.98 -71.04,41.02 c -5.7,3.29 -4.98,9.04 1.61,12.85 l 23.27,13.43 c 6.58,3.81 16.54,4.22 22.24,0.92 l 71.04,-41.01 c 5.7,-3.29 4.99,-9.04 -1.59,-12.85 l -23.27,-13.43 c -6.59,-3.81 -16.55,-4.22 -22.26,-0.93"
         style="fill:#5f92d3;fill-opacity:1;fill-rule:nonzero;stroke:none"
         id="path344"
         inkscape:connector-curvature="0" /><path
         d="m 4616.56,1733.61 -71.03,41.02 c -5.7,3.29 -4.99,9.04 1.59,12.85 l 23.27,13.43 c 6.59,3.8 16.55,4.21 22.26,0.92 l 71.03,-41.01 c 5.71,-3.29 4.98,-9.04 -1.6,-12.84 l -23.27,-13.44 c -6.58,-3.8 -16.54,-4.22 -22.25,-0.93"
         style="fill:#5f92d3;fill-opacity:1;fill-rule:nonzero;stroke:none"
         id="path346"
         inkscape:connector-curvature="0" /><path
         d="m 4725.27,1670.86 -71.04,41.01 c -5.7,3.29 -4.99,9.05 1.59,12.84 l 23.27,13.44 c 6.59,3.8 16.55,4.22 22.25,0.92 l 71.05,-41.01 c 5.7,-3.3 4.98,-9.05 -1.61,-12.85 l -23.27,-13.44 c -6.58,-3.79 -16.54,-4.2 -22.24,-0.91"
         style="fill:#5f92d3;fill-opacity:1;fill-rule:nonzero;stroke:none"
         id="path348"
         inkscape:connector-curvature="0" /><path
         d="m 4833.97,1608.1 -71.04,41.01 c -5.7,3.29 -4.99,9.04 1.59,12.85 l 23.28,13.43 c 6.58,3.81 16.54,4.22 22.24,0.93 l 71.04,-41.02 c 5.71,-3.29 4.99,-9.04 -1.6,-12.84 l -23.27,-13.44 c -6.58,-3.8 -16.54,-4.22 -22.24,-0.92"
         style="fill:#5f92d3;fill-opacity:1;fill-rule:nonzero;stroke:none"
         id="path350"
         inkscape:connector-curvature="0" /><path
         d="m 4942.67,1545.34 -71.04,41.01 c -5.71,3.3 -4.99,9.05 1.6,12.85 l 23.27,13.43 c 6.58,3.8 16.54,4.22 22.24,0.92 l 71.04,-41 c 5.7,-3.29 4.99,-9.05 -1.59,-12.86 l -23.28,-13.42 c -6.58,-3.81 -16.54,-4.22 -22.24,-0.93"
         style="fill:#5f92d3;fill-opacity:1;fill-rule:nonzero;stroke:none"
         id="path352"
         inkscape:connector-curvature="0" /><path
         d="m 3866.08,2037.3 -71.04,41.01 c -5.7,3.3 -4.99,9.05 1.6,12.85 l 70.38,40.63 c 6.59,3.81 16.56,4.22 22.26,0.93 l 71.03,-41.01 c 5.71,-3.29 4.99,-9.05 -1.6,-12.86 l -70.38,-40.63 c -6.59,-3.8 -16.55,-4.22 -22.25,-0.92"
         style="fill:#5f92d3;fill-opacity:1;fill-rule:nonzero;stroke:none"
         id="path354"
         inkscape:connector-curvature="0" /><path
         d="m 3975.77,1973.96 -71.03,41.02 c -5.7,3.29 -4.98,9.04 1.6,12.84 l 70.38,40.64 c 6.59,3.8 16.55,4.21 22.26,0.92 l 71.03,-41.01 c 5.71,-3.29 4.99,-9.05 -1.6,-12.85 l -70.38,-40.63 c -6.58,-3.81 -16.55,-4.22 -22.26,-0.93"
         style="fill:#5f92d3;fill-opacity:1;fill-rule:nonzero;stroke:none"
         id="path356"
         inkscape:connector-curvature="0" /><path
         d="m 4085.48,1910.62 -71.03,41.02 c -5.71,3.29 -4.99,9.04 1.59,12.85 l 70.39,40.63 c 6.58,3.8 16.54,4.22 22.24,0.92 l 71.04,-41 c 5.71,-3.3 4.99,-9.06 -1.59,-12.85 l -70.39,-40.64 c -6.58,-3.8 -16.55,-4.22 -22.25,-0.93"
         style="fill:#5f92d3;fill-opacity:1;fill-rule:nonzero;stroke:none"
         id="path358"
         inkscape:connector-curvature="0" /><path
         d="m 4195.18,1847.29 -71.04,41.02 c -5.7,3.29 -4.99,9.04 1.6,12.84 l 70.39,40.63 c 6.59,3.81 16.55,4.22 22.25,0.93 l 71.04,-41.01 c 5.7,-3.29 4.99,-9.05 -1.61,-12.85 l -70.38,-40.64 c -6.59,-3.8 -16.55,-4.21 -22.25,-0.92"
         style="fill:#5f92d3;fill-opacity:1;fill-rule:nonzero;stroke:none"
         id="path360"
         inkscape:connector-curvature="0" /><path
         d="m 4304.89,1783.95 -71.04,41.02 c -5.7,3.29 -4.99,9.04 1.59,12.85 l 70.39,40.63 c 6.58,3.8 16.55,4.21 22.25,0.92 l 71.03,-41.01 c 5.71,-3.29 4.99,-9.05 -1.59,-12.84 l -70.39,-40.64 c -6.58,-3.81 -16.54,-4.22 -22.24,-0.93"
         style="fill:#5f92d3;fill-opacity:1;fill-rule:nonzero;stroke:none"
         id="path362"
         inkscape:connector-curvature="0" /><path
         d="m 4414.58,1720.62 -71.03,41.01 c -5.71,3.3 -4.99,9.05 1.6,12.85 l 70.38,40.63 c 6.58,3.8 16.55,4.22 22.26,0.93 l 71.03,-41.01 c 5.7,-3.29 4.99,-9.05 -1.6,-12.85 l -70.38,-40.64 c -6.59,-3.8 -16.55,-4.22 -22.26,-0.92"
         style="fill:#5f92d3;fill-opacity:1;fill-rule:nonzero;stroke:none"
         id="path364"
         inkscape:connector-curvature="0" /><path
         d="m 4524.28,1657.28 -71.04,41.02 c -5.7,3.29 -4.98,9.04 1.61,12.84 l 70.38,40.64 c 6.59,3.8 16.55,4.21 22.25,0.92 l 71.04,-41.01 c 5.7,-3.29 4.99,-9.05 -1.59,-12.84 l -70.39,-40.65 c -6.59,-3.8 -16.55,-4.21 -22.26,-0.92"
         style="fill:#5f92d3;fill-opacity:1;fill-rule:nonzero;stroke:none"
         id="path366"
         inkscape:connector-curvature="0" /><path
         d="m 4633.99,1593.94 -71.04,41.02 c -5.7,3.29 -4.99,9.04 1.59,12.85 l 70.39,40.64 c 6.59,3.79 16.55,4.21 22.25,0.91 l 71.04,-41 c 5.71,-3.3 4.99,-9.06 -1.6,-12.85 l -70.39,-40.64 c -6.58,-3.8 -16.54,-4.22 -22.24,-0.93"
         style="fill:#5f92d3;fill-opacity:1;fill-rule:nonzero;stroke:none"
         id="path368"
         inkscape:connector-curvature="0" /><path
         d="m 4743.68,1530.61 -71.03,41.02 c -5.7,3.29 -4.99,9.04 1.6,12.84 l 70.38,40.64 c 6.59,3.8 16.55,4.21 22.26,0.92 l 71.03,-41.01 c 5.71,-3.29 4.99,-9.05 -1.6,-12.85 l -70.38,-40.64 c -6.59,-3.8 -16.55,-4.21 -22.26,-0.92"
         style="fill:#5f92d3;fill-opacity:1;fill-rule:nonzero;stroke:none"
         id="path370"
         inkscape:connector-curvature="0" /><path
         d="m 3238.9,2029.48 -209.21,120.79 c -5.7,3.29 -4.99,9.04 1.59,12.84 l 70.39,40.64 c 6.58,3.81 16.55,4.22 22.26,0.93 l 209.21,-120.8 c 5.7,-3.29 4.98,-9.04 -1.6,-12.84 l -70.39,-40.64 c -6.59,-3.8 -16.55,-4.21 -22.25,-0.92"
         style="fill:#5f92d3;fill-opacity:1;fill-rule:nonzero;stroke:none"
         id="path372"
         inkscape:connector-curvature="0" /><path
         d="m 4586.6,1251.39 -209.2,120.78 c -5.71,3.29 -4.99,9.04 1.6,12.85 l 70.38,40.63 c 6.58,3.8 16.55,4.22 22.25,0.92 l 209.21,-120.78 c 5.71,-3.29 4.98,-9.05 -1.6,-12.85 l -70.38,-40.64 c -6.59,-3.8 -16.55,-4.22 -22.26,-0.91"
         style="fill:#5f92d3;fill-opacity:1;fill-rule:nonzero;stroke:none"
         id="path374"
         inkscape:connector-curvature="0" /><path
         d="m 4147.89,1364.77 -71.03,41.01 c -5.7,3.29 -4.99,9.04 1.59,12.85 l 83.85,48.41 c 6.59,3.8 16.55,4.22 22.25,0.92 l 71.04,-41.01 c 5.7,-3.3 4.99,-9.05 -1.59,-12.85 l -83.85,-48.41 c -6.59,-3.8 -16.55,-4.22 -22.26,-0.92"
         style="fill:#5f92d3;fill-opacity:1;fill-rule:nonzero;stroke:none"
         id="path376"
         inkscape:connector-curvature="0" /><path
         d="m 3351.24,1824.71 -113.61,65.6 c -5.7,3.29 -4.98,9.04 1.6,12.84 l 83.85,48.41 c 6.58,3.81 16.55,4.22 22.25,0.93 l 113.61,-65.6 c 5.7,-3.29 4.99,-9.04 -1.6,-12.84 l -83.85,-48.41 c -6.58,-3.81 -16.54,-4.22 -22.25,-0.93"
         style="fill:#5f92d3;fill-opacity:1;fill-rule:nonzero;stroke:none"
         id="path378"
         inkscape:connector-curvature="0" /><path
         d="m 4042.19,1425.8 -113.6,65.59 c -5.71,3.29 -4.99,9.04 1.6,12.85 l 83.85,48.4 c 6.58,3.8 16.54,4.21 22.24,0.92 l 113.61,-65.58 c 5.71,-3.3 4.99,-9.06 -1.6,-12.86 l -83.84,-48.4 c -6.59,-3.8 -16.56,-4.22 -22.26,-0.92"
         style="fill:#5f92d3;fill-opacity:1;fill-rule:nonzero;stroke:none"
         id="path380"
         inkscape:connector-curvature="0" /><path
         d="m 3509.51,1733.34 -113.6,65.58 c -5.7,3.3 -4.99,9.06 1.59,12.85 l 83.85,48.41 c 6.59,3.8 16.55,4.22 22.26,0.92 l 113.6,-65.58 c 5.7,-3.3 4.99,-9.05 -1.59,-12.86 l -83.85,-48.4 c -6.59,-3.8 -16.55,-4.21 -22.26,-0.92"
         style="fill:#5f92d3;fill-opacity:1;fill-rule:nonzero;stroke:none"
         id="path382"
         inkscape:connector-curvature="0" /><path
         d="M 3504.38,1860.66 3998.3,1575.5 c 6.14,-3.55 6.14,-9.28 0,-12.83 l -85.49,-49.36 c -6.14,-3.54 -16.07,-3.54 -22.2,0 l -493.93,285.17 107.7,62.18"
         style="fill:#5f92d3;fill-opacity:1;fill-rule:nonzero;stroke:none"
         id="path384"
         inkscape:connector-curvature="0" /><path
         d="m 4454.49,1249.93 79.13,-45.69 c 4.67,-2.69 4.09,-7.41 -1.31,-10.52 l -34.3,-19.81 c -5.4,-3.11 -13.56,-3.45 -18.24,-0.75 l -79.13,45.68 c -4.67,2.7 -4.09,7.42 1.31,10.53 l 34.3,19.81 c 5.4,3.11 13.57,3.45 18.24,0.75"
         style="fill:#5f92d3;fill-opacity:1;fill-rule:nonzero;stroke:none"
         id="path386"
         inkscape:connector-curvature="0" /><path
         d="m 4343.88,1313.8 79.13,-45.69 c 4.67,-2.7 4.08,-7.41 -1.32,-10.53 l -34.29,-19.8 c -5.41,-3.12 -13.57,-3.46 -18.25,-0.76 l -79.12,45.68 c -4.68,2.71 -4.09,7.42 1.31,10.54 l 34.3,19.79 c 5.4,3.13 13.56,3.46 18.24,0.77"
         style="fill:#5f92d3;fill-opacity:1;fill-rule:nonzero;stroke:none"
         id="path388"
         inkscape:connector-curvature="0" /><path
         d="m 4234.18,1377.13 79.12,-45.69 c 4.68,-2.69 4.09,-7.41 -1.31,-10.52 l -34.29,-19.81 c -5.4,-3.11 -13.57,-3.46 -18.25,-0.75 l -79.13,45.68 c -4.66,2.7 -4.08,7.41 1.32,10.53 l 34.3,19.8 c 5.4,3.12 13.56,3.46 18.24,0.76"
         style="fill:#5f92d3;fill-opacity:1;fill-rule:nonzero;stroke:none"
         id="path390"
         inkscape:connector-curvature="0" /><path
         d="m 4404.46,1348.77 79.13,-45.69 c 4.67,-2.69 4.09,-7.41 -1.31,-10.52 l -34.3,-19.81 c -5.4,-3.11 -13.56,-3.46 -18.24,-0.75 l -79.13,45.68 c -4.67,2.7 -4.09,7.42 1.31,10.53 l 34.3,19.81 c 5.39,3.11 13.57,3.45 18.24,0.75"
         style="fill:#5f92d3;fill-opacity:1;fill-rule:nonzero;stroke:none"
         id="path392"
         inkscape:connector-curvature="0" /><path
         d="m 4837.8,2584.63 -590.91,341.15 7.59,38.42 590.91,-341.17 -7.59,-38.4"
         style="fill:#d9effb;fill-opacity:1;fill-rule:nonzero;stroke:none"
         id="path394"
         inkscape:connector-curvature="0" /><path
         d="m 4626.15,2519.8 -412.48,238.15 7.61,38.41 412.48,-238.14 -7.61,-38.42"
         style="fill:#d9effb;fill-opacity:1;fill-rule:nonzero;stroke:none"
         id="path396"
         inkscape:connector-curvature="0" /><path
         d="m 4587.12,2635.85 -356.83,206.01 7.59,38.42 356.85,-206.02 -7.61,-38.41"
         style="fill:#ffffff;fill-opacity:1;fill-rule:nonzero;stroke:none"
         id="path398"
         inkscape:connector-curvature="0" /><path
         d="m 4821.18,2500.71 -178.41,103.01 7.59,38.42 178.43,-103.02 -7.61,-38.41"
         style="fill:#ee1696;fill-opacity:1;fill-rule:nonzero;stroke:none"
         id="path400"
         inkscape:connector-curvature="0" /><path
         d="m 4183.96,3260.94 -178.42,103.01 7.6,38.41 178.42,-103.01 -7.6,-38.41"
         style="fill:#d9effb;fill-opacity:1;fill-rule:nonzero;stroke:none"
         id="path402"
         inkscape:connector-curvature="0" /><path
         d="m 4164.6,3171.67 -178.43,103.01 7.6,38.41 178.43,-103.01 -7.6,-38.41"
         style="fill:#ffffff;fill-opacity:1;fill-rule:nonzero;stroke:none"
         id="path404"
         inkscape:connector-curvature="0" /><path
         d="m 5040.32,1933.39 -178.42,103 7.6,38.42 178.42,-103.02 -7.6,-38.4"
         style="fill:#d9effb;fill-opacity:1;fill-rule:nonzero;stroke:none"
         id="path406"
         inkscape:connector-curvature="0" /><path
         d="m 4125.88,2993.11 -178.43,103.02 7.6,38.41 178.43,-103.01 -7.6,-38.42"
         style="fill:#d9effb;fill-opacity:1;fill-rule:nonzero;stroke:none"
         id="path408"
         inkscape:connector-curvature="0" /><path
         d="m 4511.39,2965.46 c -5.68,-12.41 -20.05,-16.83 -32.08,-9.89 -12.03,6.96 -17.18,22.64 -11.5,35.04 5.7,12.41 20.05,16.83 32.09,9.89 12.03,-6.96 17.17,-22.64 11.49,-35.04"
         style="fill:#ee1696;fill-opacity:1;fill-rule:nonzero;stroke:none"
         id="path410"
         inkscape:connector-curvature="0" /><path
         d="m 4588.23,2921.09 c -5.68,-12.4 -20.04,-16.82 -32.08,-9.88 -12.03,6.94 -17.16,22.63 -11.48,35.03 5.68,12.4 20.05,16.82 32.08,9.88 12.03,-6.94 17.18,-22.63 11.48,-35.03"
         style="fill:#ffffff;fill-opacity:1;fill-rule:nonzero;stroke:none"
         id="path412"
         inkscape:connector-curvature="0" /><path
         d="m 4665.09,2876.72 c -5.68,-12.41 -20.05,-16.83 -32.08,-9.89 -12.03,6.96 -17.18,22.64 -11.49,35.04 5.69,12.4 20.04,16.83 32.08,9.89 12.03,-6.96 17.17,-22.64 11.49,-35.04"
         style="fill:#d9effb;fill-opacity:1;fill-rule:nonzero;stroke:none"
         id="path414"
         inkscape:connector-curvature="0" /><path
         d="m 4741.94,2832.34 c -5.69,-12.4 -20.05,-16.82 -32.08,-9.87 -12.04,6.94 -17.17,22.63 -11.49,35.03 5.69,12.4 20.05,16.82 32.08,9.88 12.03,-6.94 17.18,-22.63 11.49,-35.04"
         style="fill:#ee1696;fill-opacity:1;fill-rule:nonzero;stroke:none"
         id="path416"
         inkscape:connector-curvature="0" /><path
         d="m 3443.53,3032.19 -384.84,222.1 c -7.6,4.4 -15.25,4.56 -21.84,1.61 l 0.08,0.24 -45.88,-21.56 c 0,0 17.22,-6.02 27.33,-9.58 l -55.53,-280.16 c -4.52,-22.79 5.68,-49.27 22.79,-59.14 l 367.82,-212.29 -6.51,-32.88 46.32,21.71 -0.21,0.07 c 7.87,3.89 14.12,12.41 16.55,24.68 l 56.7,286.05 c 4.52,22.8 -5.68,49.27 -22.78,59.15"
         style="fill:#d1078d;fill-opacity:1;fill-rule:nonzero;stroke:none"
         id="path418"
         inkscape:connector-curvature="0" /><path
         d="m 3323.76,2641.69 -384.83,222.11 c -17.1,9.87 -27.3,36.34 -22.78,59.14 l 56.7,286.05 c 4.52,22.79 22.05,33.27 39.14,23.4 l 384.84,-222.11 c 17.1,-9.87 27.29,-36.35 22.78,-59.14 l -56.71,-286.05 c -4.52,-22.8 -22.04,-33.28 -39.14,-23.4"
         style="fill:#ee1696;fill-opacity:1;fill-rule:nonzero;stroke:none"
         id="path420"
         inkscape:connector-curvature="0" /><path
         d="m 3405.58,3013.72 -384.84,222.11 c -8.96,5.17 -17.99,4.64 -25.25,-0.21 5.24,0.87 10.87,0.02 16.5,-3.23 l 384.84,-222.11 c 17.1,-9.87 27.29,-36.35 22.78,-59.14 l -56.71,-286.05 c -2.15,-10.85 -7.29,-18.79 -13.88,-23.2 10.68,1.79 19.61,11.34 22.63,26.63 l 56.71,286.06 c 4.51,22.79 -5.68,49.27 -22.78,59.14"
         style="fill:#ffffff;fill-opacity:1;fill-rule:nonzero;stroke:none"
         id="path422"
         inkscape:connector-curvature="0" /><path
         d="m 3102.69,2962.37 c -3.28,-16.55 -17.57,-23.26 -31.91,-14.99 -14.33,8.28 -23.3,28.41 -20.02,44.96 3.28,16.55 17.56,23.26 31.91,14.99 14.33,-8.28 23.3,-28.41 20.02,-44.96"
         style="fill:#ffffff;fill-opacity:1;fill-rule:nonzero;stroke:none"
         id="path424"
         inkscape:connector-curvature="0" /><path
         d="m 3181.35,2916.97 c -3.28,-16.55 -17.57,-23.26 -31.9,-14.98 -14.35,8.27 -23.31,28.4 -20.03,44.95 3.28,16.55 17.56,23.26 31.9,14.99 14.35,-8.28 23.31,-28.41 20.03,-44.96"
         style="fill:#ffffff;fill-opacity:1;fill-rule:nonzero;stroke:none"
         id="path426"
         inkscape:connector-curvature="0" /><path
         d="m 3260.01,2871.57 c -3.28,-16.55 -17.57,-23.26 -31.91,-14.98 -14.34,8.27 -23.3,28.4 -20.02,44.95 3.28,16.55 17.57,23.26 31.9,14.99 14.35,-8.28 23.31,-28.41 20.03,-44.96"
         style="fill:#ffffff;fill-opacity:1;fill-rule:nonzero;stroke:none"
         id="path428"
         inkscape:connector-curvature="0" /><path
         d="m 3270.76,3391.86 -384.83,222.11 c -7.61,4.4 -15.25,4.56 -21.85,1.59 l 0.08,0.26 -45.88,-21.57 c 0,0 17.23,-6.02 27.34,-9.57 l -55.53,-280.17 c -4.52,-22.79 5.67,-49.27 22.78,-59.14 l 367.83,-212.3 -6.52,-32.87 46.33,21.71 -0.21,0.08 c 7.87,3.88 14.12,12.41 16.55,24.67 l 56.7,286.05 c 4.52,22.81 -5.69,49.28 -22.79,59.15"
         style="fill:#5f92d3;fill-opacity:1;fill-rule:nonzero;stroke:none"
         id="path430"
         inkscape:connector-curvature="0" /><path
         d="m 3151,3001.35 -384.84,222.11 c -17.1,9.88 -27.29,36.35 -22.78,59.15 l 56.71,286.06 c 4.51,22.79 22.04,33.26 39.14,23.4 l 384.83,-222.11 c 17.1,-9.87 27.3,-36.36 22.79,-59.15 l -56.71,-286.06 c -4.52,-22.79 -22.04,-33.27 -39.14,-23.4"
         style="fill:#d9effb;fill-opacity:1;fill-rule:nonzero;stroke:none"
         id="path432"
         inkscape:connector-curvature="0" /><path
         d="m 3232.81,3373.4 -384.83,222.1 c -8.96,5.18 -18,4.64 -25.25,-0.21 5.23,0.88 10.87,0.03 16.5,-3.22 l 384.83,-222.11 c 17.1,-9.87 27.3,-36.36 22.79,-59.15 l -56.71,-286.06 c -2.15,-10.84 -7.3,-18.78 -13.89,-23.18 10.69,1.78 19.61,11.34 22.64,26.62 l 56.71,286.06 c 4.51,22.79 -5.69,49.27 -22.79,59.15"
         style="fill:#ffffff;fill-opacity:1;fill-rule:nonzero;stroke:none"
         id="path434"
         inkscape:connector-curvature="0" /><path
         d="m 2929.92,3322.04 c -3.28,-16.55 -17.56,-23.26 -31.9,-14.98 -14.34,8.28 -23.3,28.41 -20.02,44.96 3.28,16.55 17.56,23.26 31.9,14.98 14.34,-8.27 23.31,-28.4 20.02,-44.96"
         style="fill:#ffffff;fill-opacity:1;fill-rule:nonzero;stroke:none"
         id="path436"
         inkscape:connector-curvature="0" /><path
         d="m 3008.59,3276.65 c -3.28,-16.55 -17.57,-23.27 -31.91,-14.99 -14.34,8.28 -23.31,28.41 -20.03,44.96 3.28,16.55 17.57,23.26 31.92,14.98 14.33,-8.27 23.3,-28.4 20.02,-44.95"
         style="fill:#ffffff;fill-opacity:1;fill-rule:nonzero;stroke:none"
         id="path438"
         inkscape:connector-curvature="0" /><path
         d="m 3087.25,3231.25 c -3.28,-16.56 -17.57,-23.26 -31.91,-14.99 -14.34,8.28 -23.31,28.41 -20.03,44.96 3.29,16.55 17.57,23.26 31.91,14.98 14.34,-8.27 23.31,-28.4 20.03,-44.95"
         style="fill:#ffffff;fill-opacity:1;fill-rule:nonzero;stroke:none"
         id="path440"
         inkscape:connector-curvature="0" /><path
         d="m 2771.62,1123.66 c 0,0 -37.49,18.91 -60.51,-9.25 -23.03,-28.15 -55.95,-94.62 -56.97,-139.531 -1.02,-44.918 35.54,-41.879 57.28,-31.258 21.73,10.641 85.21,102.729 89.06,120.769 3.85,18.05 -4.53,42.45 -10.64,47.23 -6.11,4.77 -18.22,12.04 -18.22,12.04"
         style="fill:#ee1696;fill-opacity:1;fill-rule:nonzero;stroke:none"
         id="path442"
         inkscape:connector-curvature="0" /><path
         d="m 2779.81,1132.69 1.74,-38.84 c 0.36,-8.27 -3.79,-16.14 -10.98,-20.21 -6.55,-3.72 -16.07,-6.56 -28.93,-4.5 -28.24,4.54 -30.77,12.62 -32.78,51.45 -2.02,38.83 70.95,12.1 70.95,12.1"
         style="fill:#d9effb;fill-opacity:1;fill-rule:nonzero;stroke:none"
         id="path444"
         inkscape:connector-curvature="0" /><path
         d="m 2634.38,1198.36 c 0,0 -37.5,18.9 -60.53,-9.25 -23.03,-28.17 -55.95,-94.63 -56.96,-139.54 -1.02,-44.91 35.53,-41.88 57.27,-31.25 21.73,10.62 85.23,102.72 89.07,120.77 3.84,18.05 -4.54,42.45 -10.64,47.22 -6.11,4.77 -18.21,12.05 -18.21,12.05"
         style="fill:#ee1696;fill-opacity:1;fill-rule:nonzero;stroke:none"
         id="path446"
         inkscape:connector-curvature="0" /><path
         d="m 2642.55,1207.39 1.74,-38.85 c 0.37,-8.26 -3.79,-16.13 -10.98,-20.21 -6.55,-3.71 -16.06,-6.56 -28.92,-4.49 -28.24,4.54 -30.76,12.6 -32.79,51.44 -2.02,38.84 70.95,12.11 70.95,12.11"
         style="fill:#d9effb;fill-opacity:1;fill-rule:nonzero;stroke:none"
         id="path448"
         inkscape:connector-curvature="0" /><path
         d="m 2977.13,1920.58 c -11.1,180.57 -195.56,-26.56 -195.56,-26.56 L 2655.33,1770.28 2541.65,1645.4 c -22.2,-24.4 -32.53,-57.33 -28.24,-90.02 l 45.99,-350.18 c 2.27,-17.29 17.07,-30.05 34.51,-29.91 4.93,0.04 10.57,0.49 17.04,1.49 41.02,6.4 38,45.41 38,45.41 l -8.41,327.5 238.74,143.92 c 0,0 108.95,46.41 97.85,226.97"
         style="fill:#263c7a;fill-opacity:1;fill-rule:nonzero;stroke:none"
         id="path450"
         inkscape:connector-curvature="0" /><path
         d="m 3114.38,1851.78 c -11.1,180.57 -195.55,-26.56 -195.55,-26.56 L 2792.58,1701.48 2678.9,1576.6 c -22.2,-24.4 -32.53,-57.33 -28.23,-90.02 l 45.98,-350.18 c 2.28,-17.29 17.07,-30.05 34.51,-29.9 4.93,0.04 10.57,0.48 17.04,1.49 41.02,6.39 37.99,45.4 37.99,45.4 l -8.16,318.08 238.5,153.34 c 0,0 108.95,46.41 97.85,226.97"
         style="fill:#263c7a;fill-opacity:1;fill-rule:nonzero;stroke:none"
         id="path452"
         inkscape:connector-curvature="0" /><path
         d="m 3005.26,2431.41 c 139.84,-57.97 137.04,-140.63 137.04,-140.63 0,0 -27.4,-303.06 -18.05,-505.45 3.91,-84.61 -449.53,-91.06 -381.9,134.66 79.73,266.15 49.84,481.61 87.16,514.11 37.33,32.49 139.57,12.31 175.75,-2.69"
         style="fill:#ee1696;fill-opacity:1;fill-rule:nonzero;stroke:none"
         id="path454"
         inkscape:connector-curvature="0" /><path
         d="m 3050.25,2358.12 c -7.32,-28.4 -44.52,-43.36 -83.09,-33.42 -38.57,9.94 -63.92,41.01 -56.6,69.4 7.31,28.4 44.51,43.36 83.09,33.42 38.57,-9.93 63.91,-41.01 56.6,-69.4"
         style="fill:#fab6a9;fill-opacity:1;fill-rule:nonzero;stroke:none"
         id="path456"
         inkscape:connector-curvature="0" /><path
         d="m 2969.76,2423.92 c -9.56,0 -18.71,-1.65 -26.89,-4.94 -13.67,-5.5 -22.84,-14.92 -25.84,-26.55 -2.99,-11.62 0.49,-24.31 9.8,-35.72 9.8,-12.02 24.72,-21.08 42,-25.53 17.3,-4.46 34.74,-3.73 49.1,2.06 13.67,5.5 22.84,14.92 25.84,26.55 3,11.62 -0.49,24.31 -9.79,35.73 -9.81,12.01 -24.72,21.07 -42,25.52 -7.47,1.93 -14.97,2.88 -22.22,2.88 z m 21.27,-108.98 c -8.38,0 -16.99,1.09 -25.54,3.29 -20.02,5.16 -37.43,15.82 -49.02,30.03 -12.06,14.79 -16.47,31.67 -12.39,47.51 4.09,15.84 16.09,28.5 33.8,35.61 17.02,6.84 37.4,7.76 57.43,2.61 20.02,-5.15 37.44,-15.82 49.03,-30.03 12.06,-14.79 16.46,-31.67 12.38,-47.51 -4.08,-15.84 -16.08,-28.49 -33.8,-35.61 -9.75,-3.93 -20.61,-5.9 -31.89,-5.9"
         style="fill:#ffffff;fill-opacity:1;fill-rule:nonzero;stroke:none"
         id="path458"
         inkscape:connector-curvature="0" /><path
         d="m 2949.19,2437.72 c 0,0 1.2,-5.6 -1.22,-49.92 -0.75,-13.93 48.03,-26.94 60.64,-14.34 12.6,12.61 7.55,25.73 10.58,73.14 3.03,47.41 -70,-8.88 -70,-8.88"
         style="fill:#fab6a9;fill-opacity:1;fill-rule:nonzero;stroke:none"
         id="path460"
         inkscape:connector-curvature="0" /><path
         d="m 3019.19,2446.6 c 0,0 -12.01,-43.96 -71.22,-60.82 l 0.9,39.95 70.32,20.87"
         style="fill:#eb8b8a;fill-opacity:1;fill-rule:nonzero;stroke:none"
         id="path462"
         inkscape:connector-curvature="0" /><path
         d="m 3056.71,2558.29 c 14.88,-57.55 -19.72,-116.28 -77.27,-131.15 -57.56,-14.89 -116.28,19.7 -131.17,77.26 -14.87,57.56 19.72,116.28 77.28,131.16 57.56,14.89 116.28,-19.71 131.16,-77.27"
         style="fill:#fab6a9;fill-opacity:1;fill-rule:nonzero;stroke:none"
         id="path464"
         inkscape:connector-curvature="0" /><path
         d="m 2977.22,2527.4 c 0,0 -59.27,-25.39 -100.3,-25.68 -41.05,-0.3 -32.01,34.08 -32.01,34.08 l 121.82,17.6 10.49,-26"
         style="fill:#eb8b8a;fill-opacity:1;fill-rule:nonzero;stroke:none"
         id="path466"
         inkscape:connector-curvature="0" /><path
         d="m 2864.68,2520.71 c 0,0 51.62,21.91 96.91,12.77 10.65,-2.14 20.52,-7.84 27.38,-16.26 2.23,-2.75 5.07,-5.26 8.28,-5.99 8.03,-1.82 21.18,31.5 36.79,32.26 15.61,0.76 26.03,-10.29 13.23,-30.79 -12.8,-20.49 -8.48,-43.42 -2.59,-46.71 5.89,-3.29 78.8,47.59 23.69,156.74 -55.1,109.16 -205.5,47.34 -227.27,25.21 0,0 -22.93,-19.98 -41.59,-2.2 0,0 -20.9,-156.6 65.17,-125.03"
         style="fill:#d9effb;fill-opacity:1;fill-rule:nonzero;stroke:none"
         id="path468"
         inkscape:connector-curvature="0" /><path
         d="m 3063.85,2069.36 v -81.88 c 0,-9.39 -3.95,-18.33 -10.89,-24.66 l -168.22,-153.36 19.11,-29.24 231.77,151.97 c 10.37,7.52 17.05,19.1 18.39,31.83 l 15.85,151.96 -106.01,-46.62"
         style="fill:#fab6a9;fill-opacity:1;fill-rule:nonzero;stroke:none"
         id="path470"
         inkscape:connector-curvature="0" /><path
         d="m 3130.46,2331.73 c 0,0 51.03,-76.76 70.04,-278.78 0,0 -87.18,-28.2 -136.65,-12.19 -49.48,16.01 66.61,290.97 66.61,290.97"
         style="fill:#ee1696;fill-opacity:1;fill-rule:nonzero;stroke:none"
         id="path472"
         inkscape:connector-curvature="0" /><path
         d="m 3054.53,2234.68 c 0,0 -19.98,-106.93 -21.11,-157.18 -0.31,-13.82 8.12,-26.29 21.11,-30.99 v 188.17"
         style="fill:#d1078d;fill-opacity:1;fill-rule:nonzero;stroke:none"
         id="path474"
         inkscape:connector-curvature="0" /><path
         d="m 3010.88,1702.98 -37.18,4.91 -240.01,138.56 c -7.69,4.45 -21.13,3.89 -30.02,-1.24 l -170.06,-98.15 -22.48,2.97 v -22.39 h 0.02 c -0.15,-2.95 1.53,-5.79 5.16,-7.88 l 272,-157.04 c 7.7,-4.44 21.14,-3.88 30.02,1.24 l 185.21,106.9 c 5,2.89 7.49,6.61 7.34,10.09 v 22.03"
         style="fill:#5f92d3;fill-opacity:1;fill-rule:nonzero;stroke:none"
         id="path476"
         inkscape:connector-curvature="0" /><path
         d="m 2830.55,1790.53 -17.05,9.85 h -187.47 l -92.42,-53.32 -22.48,2.97 v -22.39 h 0.02 c -0.15,-2.95 1.53,-5.79 5.16,-7.88 l 272,-157.04 c 4.07,-2.35 9.74,-3.29 15.49,-2.9 l 26.75,230.71"
         style="fill:#4067b1;fill-opacity:1;fill-rule:nonzero;stroke:none"
         id="path478"
         inkscape:connector-curvature="0" /><path
         d="m 2521.11,1748.71 -9.98,1.32 v -22.39 h 0.02 c -0.15,-2.95 1.53,-5.79 5.16,-7.88 l 4.8,-2.77 v 31.72"
         style="fill:#5f92d3;fill-opacity:1;fill-rule:nonzero;stroke:none"
         id="path480"
         inkscape:connector-curvature="0" /><path
         d="m 2791.05,1561.45 c 7.29,-2.77 17.72,-2.17 25.51,1.58 v 38.08 h -25.51 v -39.66"
         style="fill:#5f92d3;fill-opacity:1;fill-rule:nonzero;stroke:none"
         id="path482"
         inkscape:connector-curvature="0" /><path
         d="m 2788.31,1585.09 -272,157.04 c -7.69,4.44 -6.73,12.2 2.16,17.33 l 185.2,106.89 c 8.89,5.13 22.33,5.69 30.02,1.25 l 272.01,-157.04 c 7.69,-4.44 6.72,-12.2 -2.16,-17.33 l -185.21,-106.89 c -8.88,-5.14 -22.32,-5.7 -30.02,-1.25"
         style="fill:#ffffff;fill-opacity:1;fill-rule:nonzero;stroke:none"
         id="path484"
         inkscape:connector-curvature="0" /><path
         d="m 2783.71,1608.89 -226.17,130.58 c -6.39,3.69 -5.59,10.15 1.8,14.4 l 99.25,55.82 c 7.38,4.26 18.56,4.73 24.96,1.03 l 226.16,-130.58 c 6.4,-3.69 5.6,-10.14 -1.79,-14.4 l -99.25,-55.82 c -7.39,-4.26 -18.56,-4.73 -24.96,-1.03"
         style="fill:#d9effb;fill-opacity:1;fill-rule:nonzero;stroke:none"
         id="path486"
         inkscape:connector-curvature="0" /><path
         d="m 2714.19,1871.51 -2.81,-18.77 c -2.4,-15.98 -1.98,-32.27 1.23,-48.12 l 3.34,-16.54 c 1.89,-9.32 9.28,-16.56 18.64,-18.27 7.31,-1.33 14.22,3.81 15.04,11.19 l 4.49,40.13 c 0,0 10.27,-13.46 15.23,-13.46 4.95,0 -5.55,40.19 -16.76,62.93 -11.21,22.74 -38.4,0.91 -38.4,0.91"
         style="fill:#fab6a9;fill-opacity:1;fill-rule:nonzero;stroke:none"
         id="path488"
         inkscape:connector-curvature="0" /><path
         d="m 2806.4,2169.79 -29.19,-57.76 c -6.9,-13.66 -10.97,-28.58 -11.94,-43.85 l -12.68,-197.58 -38.4,0.91 -17.42,221.89 c -0.54,6.85 -0.21,13.74 0.99,20.5 l 19.91,112.52 88.73,-56.63"
         style="fill:#fab6a9;fill-opacity:1;fill-rule:nonzero;stroke:none"
         id="path490"
         inkscape:connector-curvature="0" /><path
         d="m 2779.09,1570.01 -22.8,29.76 -239.84,138.87 c -7.69,4.45 -13.91,16.38 -13.9,26.63 l 0.21,196.37 -13.79,18 12.96,7.51 0.01,-0.02 c 2.49,1.59 5.78,1.55 9.4,-0.55 l 271.82,-157.36 c 7.68,-4.46 13.9,-16.39 13.89,-26.64 l -0.22,-213.85 c -0.01,-5.77 -1.99,-9.79 -5.09,-11.4 l -12.65,-7.32"
         style="fill:#263c7a;fill-opacity:1;fill-rule:nonzero;stroke:none"
         id="path492"
         inkscape:connector-curvature="0" /><path
         d="m 2613.23,1682.6 -17.04,9.87 -93.53,162.47 0.1,106.7 -13.79,18 12.96,7.51 0.01,-0.02 c 2.49,1.59 5.78,1.55 9.4,-0.55 l 271.82,-157.36 c 4.06,-2.36 7.7,-6.81 10.24,-11.99 L 2613.23,1682.6"
         style="fill:#4067b1;fill-opacity:1;fill-rule:nonzero;stroke:none"
         id="path494"
         inkscape:connector-curvature="0" /><path
         d="m 2495.09,1971.65 -6.12,7.99 12.96,7.51 0.01,-0.02 c 2.49,1.59 5.78,1.55 9.4,-0.55 l 4.8,-2.77 -21.05,-12.16"
         style="fill:#5f92d3;fill-opacity:1;fill-rule:nonzero;stroke:none"
         id="path496"
         inkscape:connector-curvature="0" /><path
         d="m 2785.63,1827.47 c 6.03,-4.93 10.71,-14.28 11.35,-22.89 l -26.57,-15.33 -12.72,22.1 27.94,16.12"
         style="fill:#2e4b8d;fill-opacity:1;fill-rule:nonzero;stroke:none"
         id="path498"
         inkscape:connector-curvature="0" /><path
         d="m 2770.21,1821.72 -271.81,157.37 c -7.68,4.44 -13.93,-0.26 -13.94,-10.52 l -0.24,-213.85 c -0.01,-10.26 6.21,-22.18 13.91,-26.64 l 271.8,-157.36 c 7.69,-4.45 13.94,0.25 13.95,10.51 l 0.22,213.85 c 0.02,10.26 -6.21,22.18 -13.89,26.64"
         style="fill:#5f92d3;fill-opacity:1;fill-rule:nonzero;stroke:none"
         id="path500"
         inkscape:connector-curvature="0" /><path
         d="m 2903.85,1780.22 -4.36,-9.02 c -5.01,-10.39 -12.89,-19.12 -22.71,-25.18 l -27,-16.65 c -8.4,-5.17 -19.04,-5.59 -27.56,-0.63 l -0.92,0.55 c -8.58,5.38 -9.35,17.7 -2.29,24.96 l 28.21,29 c 0,0 -15.85,-12.14 -20.29,-7.25 -3.27,3.59 15.37,21.08 29.67,21.64 14.3,0.58 28.14,11.82 28.14,11.82 l 19.11,-29.24"
         style="fill:#fab6a9;fill-opacity:1;fill-rule:nonzero;stroke:none"
         id="path502"
         inkscape:connector-curvature="0" /><path
         d="m 2832.32,2434.52 c 0,0 -103.43,-112.54 -145.16,-215.78 0,0 35.37,-63.72 121.94,-88.72 86.58,-25.01 23.22,304.5 23.22,304.5"
         style="fill:#ee1696;fill-opacity:1;fill-rule:nonzero;stroke:none"
         id="path504"
         inkscape:connector-curvature="0" /><path
         d="m 2789.63,2136.69 16.77,161.94 -39.51,-151.72 c 7.04,-3.67 14.67,-7.09 22.74,-10.22"
         style="fill:#d1078d;fill-opacity:1;fill-rule:nonzero;stroke:none"
         id="path506"
         inkscape:connector-curvature="0" /><path
         d="m 2909.79,2457.23 -27.8,7.63 c 0,0 13.27,-20.87 32.64,-26.19 19.37,-5.32 22.38,11.07 22.38,11.07 l -27.22,7.49"
         style="fill:#ffffff;fill-opacity:1;fill-rule:nonzero;stroke:none"
         id="path508"
         inkscape:connector-curvature="0" /><path
         d="m 3058.23,2501.72 c 0,-8.55 -6.93,-15.48 -15.47,-15.48 -8.56,0 -15.48,6.93 -15.48,15.48 0,8.55 6.92,15.47 15.48,15.47 8.54,0 15.47,-6.92 15.47,-15.47"
         style="fill:#ffffff;fill-opacity:1;fill-rule:nonzero;stroke:none"
         id="path510"
         inkscape:connector-curvature="0" /><path
         d="m 3474.36,1221.8 -463.48,267.59 c -13.49,7.79 -11.8,21.4 3.78,30.39 l 279.7,161.48 c 15.57,8.99 39.14,9.97 52.63,2.18 l 463.48,-267.58 c 13.49,-7.8 11.8,-21.4 -3.78,-30.39 L 3527,1223.98 c -15.58,-8.99 -39.15,-9.97 -52.64,-2.18"
         style="fill:#ffffff;fill-opacity:1;fill-rule:nonzero;stroke:none"
         id="path512"
         inkscape:connector-curvature="0" /><path
         d="m 1904.41,779.02 c -38.9,0 -76.8,6.652 -108.46,20.531 -84.19,36.91 -92.4,110.98 -18.33,165.437 46.21,33.973 113.53,52.282 178.08,52.282 38.91,0 76.8,-6.65 108.46,-20.528 84.19,-36.922 92.4,-110.98 18.34,-165.433 -46.21,-33.977 -113.54,-52.289 -178.09,-52.289"
         style="fill:#899abf;fill-opacity:1;fill-rule:nonzero;stroke:none"
         id="path514"
         inkscape:connector-curvature="0" /><path
         d="m 2149.48,1023.74 -7.17,64.72 -12.22,-1.35 c -13.07,17.67 -33.3,33.43 -61.03,45.59 -95.79,42 -241.73,25.82 -325.99,-36.13 -24.4,-17.93 -40.69,-37.74 -49.57,-57.85 l -12.21,-1.35 7.14,-64.37 h 0.02 c 3.63,-34.191 29.9,-65.91 77.95,-86.98 95.79,-42 241.74,-25.829 326,36.128 42.13,30.973 60.86,67.532 57.08,101.592"
         style="fill:#ee1696;fill-opacity:1;fill-rule:nonzero;stroke:none"
         id="path516"
         inkscape:connector-curvature="0" /><path
         d="m 2085.23,986.871 c -84.26,-61.949 -230.22,-78.121 -326,-36.121 -95.78,41.988 -105.13,126.26 -20.86,188.21 84.26,61.95 230.21,78.12 326,36.13 95.78,-42.01 105.11,-126.27 20.86,-188.219"
         style="fill:#ee1696;fill-opacity:1;fill-rule:nonzero;stroke:none"
         id="path518"
         inkscape:connector-curvature="0" /><path
         d="m 2085.23,986.871 c -84.26,-61.949 -230.22,-78.121 -326,-36.121 -45.91,20.129 -71.72,49.99 -77.13,82.43 1.98,-35.68 28.2,-69.032 78.07,-90.91 95.78,-42 241.74,-25.821 325.99,36.14 43.88,32.25 62.14,70.53 56.27,105.78 1.83,-32.84 -16.82,-67.63 -57.2,-97.319"
         style="fill:#ffffff;fill-opacity:1;fill-rule:nonzero;stroke:none"
         id="path520"
         inkscape:connector-curvature="0" /><path
         d="m 1805.58,1006.54 c -4.13,1.81 -6.67,4.61 -7.02,7.82 l -9.38,86.73 c -0.72,6.61 8,13.01 19.46,14.27 11.46,1.26 21.3,-3.09 22.04,-9.71 l 7.77,-71.92 205.84,48.68 c 11.07,2.62 22.54,-0.3 25.63,-6.5 3.1,-6.22 -3.36,-13.37 -14.41,-15.98 l -230.6,-54.53 c -6.05,-1.44 -12.52,-1.26 -17.65,0.49 l -1.68,0.65"
         style="fill:#ffffff;fill-opacity:1;fill-rule:nonzero;stroke:none"
         id="path522"
         inkscape:connector-curvature="0" /><path
         d="m 2955.98,424.93 -153.3,88.511 153.3,88.5 153.3,-88.5 -153.3,-88.511"
         style="fill:#899abf;fill-opacity:1;fill-rule:nonzero;stroke:none"
         id="path524"
         inkscape:connector-curvature="0" /><path
         d="m 3109.28,625.809 -153.3,-88.508 v 177.008 l 153.3,88.511 V 625.809"
         style="fill:#263c7a;fill-opacity:1;fill-rule:nonzero;stroke:none"
         id="path526"
         inkscape:connector-curvature="0" /><path
         d="m 2955.98,714.309 -153.3,88.511 153.3,88.512 153.3,-88.512 -153.3,-88.511"
         style="fill:#d9effb;fill-opacity:1;fill-rule:nonzero;stroke:none"
         id="path528"
         inkscape:connector-curvature="0" /><path
         d="m 2955.98,537.301 -153.3,88.508 V 802.82 l 153.3,-88.511 V 537.301"
         style="fill:#5f92d3;fill-opacity:1;fill-rule:nonzero;stroke:none"
         id="path530"
         inkscape:connector-curvature="0" /><path
         d="m 2900.76,632.93 -42.87,24.75 v 49.511 l 42.87,-24.75 V 632.93"
         style="fill:#ffffff;fill-opacity:1;fill-rule:nonzero;stroke:none"
         id="path532"
         inkscape:connector-curvature="0" /><path
         d="m 4024.33,983.641 c -14.74,0 -29.48,3.808 -42.69,11.441 l -425.56,245.688 129.82,74.96 331.33,-191.72 0.02,0.01 c 1.5,-1 3.28,-1.53 5.28,-1.53 2.45,0 5.22,0.8 8.16,2.49 l 266.54,153.57 71.92,-41.53 c 2.12,-1.22 4.96,-1.82 7.93,-1.82 3.58,0 7.36,0.87 10.32,2.58 l 34.29,19.8 c 5.4,3.12 5.99,7.83 1.32,10.53 l -71.87,41.5 6.73,3.88 71.87,-41.49 c 2.09,-1.21 4.88,-1.81 7.8,-1.83 v -20.33 c -0.44,-0.2 -0.87,-0.42 -1.29,-0.66 l -34.3,-19.81 c -5.4,-3.11 -5.98,-7.83 -1.31,-10.53 l 26.99,-15.58 L 4067,995.082 c -13.2,-7.633 -27.94,-11.441 -42.67,-11.441 m 413.21,346.029 -25.77,14.87 6.74,3.89 19.03,-10.99 v -7.77"
         style="fill:#7491c1;fill-opacity:1;fill-rule:nonzero;stroke:none"
         id="path534"
         inkscape:connector-curvature="0" /><path
         d="m 4437.54,1337.44 -19.03,10.99 19.03,10.96 v -21.95"
         style="fill:#3e63ab;fill-opacity:1;fill-rule:nonzero;stroke:none"
         id="path536"
         inkscape:connector-curvature="0" /><path
         d="m 4427.63,1203.26 -26.99,15.58 c -4.67,2.7 -4.09,7.42 1.31,10.53 l 34.3,19.81 c 0.42,0.24 0.85,0.46 1.29,0.66 v -40.86 l -9.91,-5.72"
         style="fill:#3e63ab;fill-opacity:1;fill-rule:nonzero;stroke:none"
         id="path538"
         inkscape:connector-curvature="0" /><path
         d="m 4377.08,1235.2 c -2.97,0 -5.81,0.6 -7.93,1.82 l -71.92,41.53 53.91,31.06 71.87,-41.5 c 4.67,-2.7 4.08,-7.41 -1.32,-10.53 l -34.29,-19.8 c -2.96,-1.71 -6.74,-2.58 -10.32,-2.58"
         style="fill:#3e63ab;fill-opacity:1;fill-rule:nonzero;stroke:none"
         id="path540"
         inkscape:connector-curvature="0" /><path
         d="m 4437.54,1270.17 c -2.92,0.02 -5.71,0.62 -7.8,1.83 l -71.87,41.49 53.9,31.05 25.77,-14.87 v -59.5"
         style="fill:#3e63ab;fill-opacity:1;fill-rule:nonzero;stroke:none"
         id="path542"
         inkscape:connector-curvature="0" /><path
         d="m 3556.08,1240.77 -242.92,140.25 c -15.02,8.68 -15.02,30.37 0.01,39.04 l 96.33,55.61 276.4,-159.94 -129.82,-74.96"
         style="fill:#8a9bbf;fill-opacity:1;fill-rule:nonzero;stroke:none"
         id="path544"
         inkscape:connector-curvature="0" /><path
         d="m 3962.36,2054.59 c 0.04,42.44 -29.86,59.73 -66.63,38.54 l -625.21,-360.21 c -10.12,-5.83 -18.32,-20.01 -18.33,-31.68 -0.01,-11.67 8.18,-16.41 18.29,-10.59 l 625.21,360.22 c 16.59,9.56 30.06,1.75 30.04,-17.39 l -0.05,-69.92 c 12.13,0.75 24.3,0.77 36.6,0.56 l 0.08,90.47"
         style="fill:#ee1696;fill-opacity:1;fill-rule:nonzero;stroke:none"
         id="path546"
         inkscape:connector-curvature="0" /><path
         d="m 3270.25,1564.93 625.2,227.82 c 36.79,21.19 66.74,72.97 66.78,115.41 l 0.05,55.96 c -12.3,0.21 -24.47,0.19 -36.6,-0.56 l -0.07,-76.49 c -0.02,-19.15 -13.53,-42.5 -30.12,-52.05 l -625.2,-227.83 c -10.11,-5.83 -18.32,-20.01 -18.33,-31.68 -0.01,-11.66 8.18,-16.41 18.29,-10.58"
         style="fill:#d1078d;fill-opacity:1;fill-rule:nonzero;stroke:none"
         id="path548"
         inkscape:connector-curvature="0" /><path
         d="m 3256.69,1564.09 760.54,-440.08 643.9,384.01 51.09,76.25 -5.3,-27.03 -13.73,70.73 -1195.26,-45.59 -210.59,13.57 -30.65,-31.86"
         style="fill:#d1078d;fill-opacity:1;fill-rule:nonzero;stroke:none"
         id="path550"
         inkscape:connector-curvature="0" /><path
         d="m 3281.92,1696.89 -0.21,-93.61 735.05,-425.26 19.85,89.21 -754.69,429.66"
         style="fill:#e352b1;fill-opacity:1;fill-rule:nonzero;stroke:none"
         id="path552"
         inkscape:connector-curvature="0" /><path
         d="m 4702.75,1658.07 -759.33,439.3 -684.61,-398.11 -1.42,-9.79 760.44,-439.95 684.92,408.55"
         style="fill:#ee1696;fill-opacity:1;fill-rule:nonzero;stroke:none"
         id="path554"
         inkscape:connector-curvature="0" /><path
         d="m 4460.68,1432.47 178.52,105.91 c 15.04,10.56 26.84,31.93 26.86,49.78 l 0.12,14.04 c 0.01,11.33 -4.73,18.65 -12.04,20.78 l -351.44,-195.52 -286.2,-154.79 0.26,-94.65 443.92,254.45"
         style="fill:#ffffff;fill-opacity:1;fill-rule:nonzero;stroke:none"
         id="path556"
         inkscape:connector-curvature="0" /><path
         d="m 4042.16,1264.03 -754.51,436.51 -15.99,9.26 -14.61,8.45 c -2.99,-5.48 -4.86,-11.51 -4.86,-17.01 -0.01,-5.74 1.98,-9.78 5.2,-11.73 l 0.01,-0.04 0.11,-0.07 0.06,-0.03 760.26,-439.85 24.33,14.51"
         style="fill:#d1078d;fill-opacity:1;fill-rule:nonzero;stroke:none"
         id="path558"
         inkscape:connector-curvature="0" /><path
         d="m 4007.75,1129.5 9.48,-5.49 1.75,3.02 -5.91,4.65 -5.32,-2.18"
         style="fill:#ffffff;fill-opacity:1;fill-rule:nonzero;stroke:none"
         id="path560"
         inkscape:connector-curvature="0" /><path
         d="m 4007.99,1255.23 9.72,-5.61 -2.43,5.3 z"
         style="fill:#ffffff;fill-opacity:1;fill-rule:nonzero;stroke:none"
         id="path562"
         inkscape:connector-curvature="0" /><path
         d="m 4030.96,1292.97 625.2,360.21 c 36.78,21.19 66.67,3.91 66.63,-38.54 l -0.12,-14.03 c -0.04,-42.45 -30,-94.23 -66.78,-115.42 l -625.2,-360.21 c -10.11,-5.82 -18.31,-1.09 -18.29,10.58 0,11.67 8.22,25.85 18.32,31.68 l 625.21,360.22 c 16.59,9.56 30.1,32.9 30.12,52.05 l 0.12,14.02 c 0.02,19.15 -13.45,26.95 -30.04,17.39 L 4030.92,1250.7 c -10.12,-5.82 -18.3,-1.08 -18.29,10.59 0.01,11.67 8.21,25.86 18.33,31.68"
         style="fill:#ee1696;fill-opacity:1;fill-rule:nonzero;stroke:none"
         id="path564"
         inkscape:connector-curvature="0" /><path
         d="m 4012.4,1135.56 c 0,11.67 8.22,25.85 18.32,31.68 l 625.21,360.22 c 16.59,9.56 30.1,32.9 30.12,52.05 l 0.12,14.02 c 0.01,12.54 -5.78,20.17 -14.42,21.28 2.78,-3.65 4.41,-8.86 4.4,-15.48 l -0.12,-14.03 c -0.02,-19.14 -13.53,-42.49 -30.12,-52.04 l -625.2,-360.23 c -10.11,-5.82 -18.32,-20 -18.33,-31.68 0,-8.83 4.7,-13.68 11.38,-12.97 -0.87,1.96 -1.36,4.35 -1.36,7.18"
         style="fill:#ffffff;fill-opacity:1;fill-rule:nonzero;stroke:none"
         id="path566"
         inkscape:connector-curvature="0" /><path
         d="m 4012.63,1261.29 c 0.01,11.67 8.21,25.86 18.33,31.68 l 625.2,360.21 c 15.84,9.13 30.39,11.09 41.83,6.99 -12.22,10.43 -30.91,10.87 -51.84,-1.19 l -625.21,-360.21 c -10.11,-5.83 -18.32,-20.02 -18.33,-31.69 -0.01,-8.84 4.71,-13.67 11.39,-12.98 -0.88,1.96 -1.38,4.36 -1.37,7.19"
         style="fill:#ffffff;fill-opacity:1;fill-rule:nonzero;stroke:none"
         id="path568"
         inkscape:connector-curvature="0" /><path
         d="m 3723.47,1649.4 344.95,198.75 299.18,-173.08 -344.96,-198.75 -299.17,173.08"
         style="fill:#ffffff;fill-opacity:1;fill-rule:nonzero;stroke:none"
         id="path570"
         inkscape:connector-curvature="0" /><path
         d="m 4992.69,178.809 c -10.85,0 -21.21,2.191 -28.95,6.66 L 4497.46,454.68 c -17.08,9.859 -14.94,27.101 4.8,38.48 l 122.23,70.762 346.72,-200.184 c 4.96,-2.859 9.67,-4.207 13.94,-4.207 3.88,0 7.4,1.11 10.4,3.231 l 397.07,229.008 136.79,-78.981 c 17.09,-9.859 14.94,-27.098 -4.79,-38.488 L 5030.41,188.23 c -10.79,-6.23 -24.61,-9.421 -37.72,-9.421"
         style="fill:#899abf;fill-opacity:1;fill-rule:nonzero;stroke:none"
         id="path572"
         inkscape:connector-curvature="0" /><g
         id="g574"><g
           id="g576"
           clip-path="url(#clipPath580)"><path
             d="m 5540,691.84 -498.57,287.851 c -19.39,11.2 -35.11,41.239 -35.11,67.079 v 1193.09 c 0,25.86 15.72,37.74 35.11,26.54 L 5540,1978.55 c 19.39,-11.19 35.11,-41.22 35.11,-67.08 V 718.391 c 0,-25.852 -15.72,-37.743 -35.11,-26.551"
             style="fill:url(#linearGradient586);fill-opacity:1;fill-rule:nonzero;stroke:none"
             id="path588"
             inkscape:connector-curvature="0" /></g></g><path
         d="m 5540,1978.55 -498.57,287.85 c -8.66,5 -16.58,5.37 -22.71,1.97 l -569.2,-328.37 26.82,-99.26 518.99,-1478.111 566.93,326.98 0.28,0.161 1.01,0.582 -0.02,0.046 c 7.1,4.473 11.58,14.223 11.58,27.993 V 1911.47 c 0,25.86 -15.72,55.89 -35.11,67.08"
         style="fill:#4067b1;fill-opacity:1;fill-rule:nonzero;stroke:none"
         id="path590"
         inkscape:connector-curvature="0" /><path
         d="m 5540,1978.55 -498.57,287.85 c -8.66,5 -16.58,5.37 -22.71,1.97 l -569.2,-328.37 26.82,-99.26 142.71,-406.45 26.87,-15.52 919.37,530.8 c -6.39,12.54 -15.35,23.24 -25.29,28.98"
         style="fill:#d9effb;fill-opacity:1;fill-rule:nonzero;stroke:none"
         id="path592"
         inkscape:connector-curvature="0" /><path
         d="M 4971.21,363.738 4472.65,651.59 c -19.4,11.191 -35.11,41.219 -35.11,67.082 V 1911.76 c 0,25.84 15.71,37.73 35.11,26.54 l 498.56,-287.85 c 19.4,-11.2 35.11,-41.23 35.11,-67.08 V 390.281 c 0,-25.859 -15.71,-37.73 -35.11,-26.543"
         style="fill:#5f92d3;fill-opacity:1;fill-rule:nonzero;stroke:none"
         id="path594"
         inkscape:connector-curvature="0" /><g
         id="g596"><g
           id="g598"
           clip-path="url(#clipPath602)"><path
             d="m 4939.86,435.559 -435.85,251.64 c -16.95,9.781 -30.69,36.031 -30.69,58.641 v 1108.04 c 0,22.6 13.74,32.98 30.69,23.2 l 435.85,-251.63 c 16.94,-9.79 30.68,-36.05 30.68,-58.65 V 458.77 c 0,-22.61 -13.74,-32.989 -30.68,-23.211"
             style="fill:url(#linearGradient608);fill-opacity:1;fill-rule:nonzero;stroke:none"
             id="path610"
             inkscape:connector-curvature="0" /><path
             d="m 4939.86,435.559 -435.85,251.64 c -16.95,9.781 -30.69,36.031 -30.69,58.641 v 1108.04 c 0,22.6 13.74,32.98 30.69,23.2 l 435.85,-251.63 c 16.94,-9.79 30.68,-36.05 30.68,-58.65 V 458.77 c 0,-22.61 -13.74,-32.989 -30.68,-23.211"
             style="fill:url(#linearGradient616);fill-opacity:1;fill-rule:nonzero;stroke:none"
             id="path618"
             inkscape:connector-curvature="0" /></g></g><path
         d="m 4939.86,435.559 -435.85,251.64 c -16.95,9.781 -30.69,36.031 -30.69,58.641 v 1108.04 c 0,22.6 13.74,32.98 30.69,23.2 l 435.85,-251.63 c 16.94,-9.79 30.68,-36.05 30.68,-58.65 V 458.77 c 0,-22.61 -13.74,-32.989 -30.68,-23.211"
         style="fill:#263c7a;fill-opacity:1;fill-rule:nonzero;stroke:none"
         id="path620"
         inkscape:connector-curvature="0" /><path
         d="M 4954.09,443.941 4518.25,695.57 c -16.95,9.789 -30.69,36.039 -30.69,58.649 V 1862.25 c 0,7.71 1.63,13.96 4.41,18.5 -10.96,0.09 -18.65,-9.97 -18.65,-26.88 V 745.84 c 0,-22.61 13.74,-48.86 30.69,-58.649 l 435.85,-251.632 c 11.16,-6.45 20.9,-4.09 26.28,4.703 -3.7,0.027 -7.77,1.207 -12.05,3.679"
         style="fill:#4067b1;fill-opacity:1;fill-rule:nonzero;stroke:none"
         id="path622"
         inkscape:connector-curvature="0" /><path
         d="m 4939.86,944.281 -162.01,93.529 -258.37,-149.169 451.06,-260.422 v 257.422 c 0,22.597 -13.74,48.859 -30.68,58.64"
         style="fill:#263c7a;fill-opacity:1;fill-rule:nonzero;stroke:none"
         id="path624"
         inkscape:connector-curvature="0" /><path
         d="m 4939.86,1171.34 -162.01,93.52 -258.37,-149.17 451.06,-260.409 v 257.409 c 0,22.61 -13.74,48.86 -30.68,58.65"
         style="fill:#263c7a;fill-opacity:1;fill-rule:nonzero;stroke:none"
         id="path626"
         inkscape:connector-curvature="0" /><path
         d="m 4939.86,1398.39 -162.01,93.53 -258.37,-149.17 451.06,-260.42 v 257.42 c 0,22.6 -13.74,48.86 -30.68,58.64"
         style="fill:#263c7a;fill-opacity:1;fill-rule:nonzero;stroke:none"
         id="path628"
         inkscape:connector-curvature="0" /><path
         d="m 4939.86,1625.45 -162.01,93.52 -258.37,-149.17 451.06,-260.42 v 257.42 c 0,22.6 -13.74,48.86 -30.68,58.65"
         style="fill:#263c7a;fill-opacity:1;fill-rule:nonzero;stroke:none"
         id="path630"
         inkscape:connector-curvature="0" /><path
         d="m 4939.86,1625.45 -358.65,207.06 -61.73,-35.65 451.06,-260.42 v 30.36 c 0,22.6 -13.74,48.86 -30.68,58.65"
         style="fill:#263c7a;fill-opacity:1;fill-rule:nonzero;stroke:none"
         id="path632"
         inkscape:connector-curvature="0" /><path
         d="m 4970.54,1536.44 -451.06,260.42 v -143.51 l 451.06,-260.41 v 143.5"
         style="fill:#5f92d3;fill-opacity:1;fill-rule:nonzero;stroke:none"
         id="path634"
         inkscape:connector-curvature="0" /><path
         d="m 4970.54,1309.39 -451.06,260.42 V 1426.3 l 451.06,-260.42 v 143.51"
         style="fill:#5f92d3;fill-opacity:1;fill-rule:nonzero;stroke:none"
         id="path636"
         inkscape:connector-curvature="0" /><path
         d="m 4970.54,1082.33 -451.06,260.42 v -143.5 l 451.06,-260.418 v 143.498"
         style="fill:#5f92d3;fill-opacity:1;fill-rule:nonzero;stroke:none"
         id="path638"
         inkscape:connector-curvature="0" /><path
         d="M 4970.54,855.281 4519.48,1115.7 V 972.18 l 451.06,-260.41 v 143.511"
         style="fill:#5f92d3;fill-opacity:1;fill-rule:nonzero;stroke:none"
         id="path640"
         inkscape:connector-curvature="0" /><path
         d="M 4970.54,628.219 4519.48,888.641 V 745.129 l 451.06,-260.418 v 143.508"
         style="fill:#5f92d3;fill-opacity:1;fill-rule:nonzero;stroke:none"
         id="path642"
         inkscape:connector-curvature="0" /><path
         d="m 4930.76,1444.08 -339.74,196.14 c -9.59,5.54 -17.37,20.4 -17.37,33.19 v 38.43 c 0,12.8 7.78,18.68 17.37,13.13 l 339.74,-196.14 c 9.59,-5.54 17.37,-20.4 17.37,-33.19 v -38.44 c 0,-12.79 -7.78,-18.67 -17.37,-13.12"
         style="fill:#263c7a;fill-opacity:1;fill-rule:nonzero;stroke:none"
         id="path644"
         inkscape:connector-curvature="0" /><g
         id="g646"><g
           id="g648"
           clip-path="url(#clipPath652)"><path
             d="m 4573.65,1711.84 h 17.8125 v 15.2188 H 4573.65 Z"
             style="fill:#4262a9;fill-opacity:1;fill-rule:nonzero;stroke:none"
             id="path654"
             inkscape:connector-curvature="0" /></g></g><path
         d="m 4937.6,1442.01 c -2.09,0 -4.4,0.66 -6.84,2.07 v 0 l -339.73,196.14 c -8.66,5 -15.84,17.59 -17.16,29.39 -0.14,1.28 -0.22,2.55 -0.22,3.8 v 38.43 0 c 0,4.6 1.01,8.31 2.74,10.91 1.85,2.78 4.55,4.31 7.73,4.31 2.12,0 4.45,-0.67 6.9,-2.09 l 0.44,-0.25 c -0.37,-1.68 -0.64,-3.48 -0.64,-5.52 v -38.43 c 0,-12.79 7.78,-27.65 17.38,-33.18 l 339.29,-195.9 c -1.37,-6.14 -5.05,-9.68 -9.89,-9.68"
         style="fill:#242f64;fill-opacity:1;fill-rule:nonzero;stroke:none"
         id="path656"
         inkscape:connector-curvature="0" /><path
         d="m 4824.15,1549.41 -204.44,118.04 c -3.38,1.94 -6.11,7.18 -6.11,11.67 0,4.5 2.73,6.57 6.11,4.62 l 204.44,-118.03 c 3.38,-1.95 6.12,-7.18 6.12,-11.68 0,-4.5 -2.74,-6.56 -6.12,-4.62"
         style="fill:#ffffff;fill-opacity:1;fill-rule:nonzero;stroke:none"
         id="path658"
         inkscape:connector-curvature="0" /><path
         d="m 4930.76,1218.43 -339.74,196.14 c -9.59,5.53 -17.37,20.4 -17.37,33.19 v 38.43 c 0,12.79 7.78,18.67 17.37,13.13 l 339.74,-196.15 c 9.59,-5.54 17.37,-20.4 17.37,-33.18 v -38.44 c 0,-12.78 -7.78,-18.66 -17.37,-13.12"
         style="fill:#263c7a;fill-opacity:1;fill-rule:nonzero;stroke:none"
         id="path660"
         inkscape:connector-curvature="0" /><path
         d="m 4933.78,1217.03 c -0.98,0.34 -1.99,0.8 -3.02,1.4 v 0 c 1.03,-0.6 2.04,-1.06 3.02,-1.4 m -360.12,269.52 c 0.04,3.63 0.72,6.7 1.89,9.08 -1.17,-2.38 -1.85,-5.45 -1.89,-9.08 m 17.8,12.52 -0.04,0.02 0.04,-0.02 v 0"
         style="fill:#4262a9;fill-opacity:1;fill-rule:nonzero;stroke:none"
         id="path662"
         inkscape:connector-curvature="0" /><path
         d="m 4937.6,1216.35 c -1.2,0 -2.48,0.22 -3.82,0.68 -0.98,0.34 -1.99,0.8 -3.02,1.4 v 0 l -339.73,196.14 c -9.56,5.52 -17.32,20.28 -17.38,33.04 0,0.05 0,0.1 0,0.15 v 38.43 c 0,0.12 0,0.24 0.01,0.36 0.04,3.63 0.72,6.7 1.89,9.08 1.83,3.71 4.87,5.77 8.57,5.77 2.12,0 4.45,-0.67 6.91,-2.09 l 0.39,-0.22 0.04,-0.02 c -0.37,-1.68 -0.64,-3.48 -0.64,-5.53 v -38.42 c 0,-12.8 7.78,-27.65 17.38,-33.19 l 339.29,-195.9 c -1.37,-6.13 -5.05,-9.68 -9.89,-9.68"
         style="fill:#242f64;fill-opacity:1;fill-rule:nonzero;stroke:none"
         id="path664"
         inkscape:connector-curvature="0" /><path
         d="m 4824.15,1323.76 -204.44,118.03 c -3.38,1.96 -6.11,7.18 -6.11,11.67 0,4.51 2.73,6.58 6.11,4.62 l 204.44,-118.02 c 3.38,-1.96 6.12,-7.18 6.12,-11.68 0,-4.51 -2.74,-6.57 -6.12,-4.62"
         style="fill:#ffffff;fill-opacity:1;fill-rule:nonzero;stroke:none"
         id="path666"
         inkscape:connector-curvature="0" /><path
         d="m 4930.76,990.66 -339.74,196.15 c -9.59,5.54 -17.37,20.4 -17.37,33.19 v 38.44 c 0,12.78 7.78,18.66 17.37,13.12 l 339.74,-196.14 c 9.59,-5.54 17.37,-20.4 17.37,-33.2 v -38.42 c 0,-12.8 -7.78,-18.679 -17.37,-13.14"
         style="fill:#263c7a;fill-opacity:1;fill-rule:nonzero;stroke:none"
         id="path668"
         inkscape:connector-curvature="0" /><path
         d="m 4573.65,1258.44 c 0,9.52 4.31,15.21 10.48,15.21 2.11,0 4.45,-0.68 6.9,-2.09 l 0.43,-0.24 c 0,-0.01 0,-0.01 0,-0.01 l -0.44,0.25 c -2.45,1.41 -4.78,2.08 -6.89,2.08 -6.16,0 -10.48,-5.69 -10.48,-15.2"
         style="fill:#4262a9;fill-opacity:1;fill-rule:nonzero;stroke:none"
         id="path670"
         inkscape:connector-curvature="0" /><path
         d="m 4937.6,988.602 c -2.09,0 -4.4,0.66 -6.84,2.07 l -339.73,196.138 c -8.66,5 -15.84,17.59 -17.16,29.39 -0.14,1.28 -0.22,2.55 -0.22,3.8 v 38.44 0 c 0,9.51 4.32,15.2 10.48,15.2 2.11,0 4.44,-0.67 6.89,-2.08 l 0.44,-0.25 c -0.37,-1.68 -0.64,-3.47 -0.64,-5.52 v -38.43 c 0,-12.79 7.78,-27.65 17.38,-33.18 l 339.29,-195.899 c -1.37,-6.133 -5.05,-9.679 -9.89,-9.679"
         style="fill:#242f64;fill-opacity:1;fill-rule:nonzero;stroke:none"
         id="path672"
         inkscape:connector-curvature="0" /><path
         d="m 4824.15,1096 -204.44,118.04 c -3.38,1.94 -6.11,7.18 -6.11,11.67 0,4.5 2.73,6.57 6.11,4.62 l 204.44,-118.04 c 3.38,-1.94 6.12,-7.17 6.12,-11.67 0,-4.5 -2.74,-6.56 -6.12,-4.62"
         style="fill:#d9effb;fill-opacity:1;fill-rule:nonzero;stroke:none"
         id="path674"
         inkscape:connector-curvature="0" /><path
         d="m 4930.76,760.809 -339.74,196.152 c -9.59,5.539 -17.37,20.391 -17.37,33.18 v 38.429 c 0,12.8 7.78,18.67 17.37,13.14 l 339.74,-196.159 c 9.59,-5.531 17.37,-20.391 17.37,-33.18 v -38.43 c 0,-12.793 -7.78,-18.671 -17.37,-13.132"
         style="fill:#263c7a;fill-opacity:1;fill-rule:nonzero;stroke:none"
         id="path676"
         inkscape:connector-curvature="0" /><path
         d="m 4573.65,1028.68 c 0.02,4.56 1.03,8.24 2.76,10.82 -1.73,-2.58 -2.74,-6.26 -2.76,-10.82 m 2.76,10.82 c 0,0.01 0.01,0.02 0.01,0.03 0,-0.01 -0.01,-0.02 -0.01,-0.03 m 15.05,1.95 -0.44,0.26 c -2.45,1.41 -4.78,2.08 -6.89,2.08 v 0 c 2.11,0 4.45,-0.67 6.9,-2.08 l 0.43,-0.26 v 0"
         style="fill:#4262a9;fill-opacity:1;fill-rule:nonzero;stroke:none"
         id="path678"
         inkscape:connector-curvature="0" /><path
         d="m 4937.6,758.738 c -2.09,0 -4.4,0.672 -6.84,2.071 v 0 l -339.73,196.152 c -8.66,5 -15.84,17.578 -17.16,29.391 -0.14,1.277 -0.22,2.546 -0.22,3.789 v 38.429 c 0,0.04 0,0.08 0,0.11 0.02,4.56 1.03,8.24 2.76,10.82 v 0 c 0,0.01 0.01,0.02 0.01,0.03 1.86,2.75 4.54,4.26 7.71,4.26 2.11,0 4.44,-0.67 6.89,-2.08 l 0.44,-0.26 c -0.37,-1.67 -0.64,-3.47 -0.64,-5.51 V 997.5 c 0,-12.789 7.78,-27.648 17.38,-33.191 l 339.29,-195.887 c -1.37,-6.133 -5.05,-9.684 -9.89,-9.684"
         style="fill:#242f64;fill-opacity:1;fill-rule:nonzero;stroke:none"
         id="path680"
         inkscape:connector-curvature="0" /><path
         d="M 4824.15,866.148 4619.71,984.18 c -3.38,1.949 -6.11,7.172 -6.11,11.679 0,4.501 2.73,6.561 6.11,4.621 l 204.44,-118.039 c 3.38,-1.949 6.12,-7.179 6.12,-11.671 0,-4.5 -2.74,-6.571 -6.12,-4.622"
         style="fill:#ee1696;fill-opacity:1;fill-rule:nonzero;stroke:none"
         id="path682"
         inkscape:connector-curvature="0" /><path
         d="m 4930.76,535.5 -339.74,196.16 c -9.59,5.539 -17.37,20.391 -17.37,33.18 v 38.43 c 0,12.789 7.78,18.671 17.37,13.128 L 4930.76,620.25 c 9.59,-5.539 17.37,-20.391 17.37,-33.18 v -38.429 c 0,-12.789 -7.78,-18.672 -17.37,-13.141"
         style="fill:#263c7a;fill-opacity:1;fill-rule:nonzero;stroke:none"
         id="path684"
         inkscape:connector-curvature="0" /><path
         d="m 4573.65,803.27 c 0,4.609 1.01,8.332 2.76,10.929 -1.74,-2.597 -2.76,-6.32 -2.76,-10.929 m 2.76,10.929 c 0,0.012 0,0.012 0.01,0.012 -0.01,0 -0.01,0 -0.01,-0.012 m 15.05,1.949 -0.44,0.25 c -2.45,1.422 -4.78,2.09 -6.89,2.09 v 0 c 2.11,0 4.45,-0.668 6.9,-2.09 l 0.43,-0.25 v 0"
         style="fill:#4262a9;fill-opacity:1;fill-rule:nonzero;stroke:none"
         id="path686"
         inkscape:connector-curvature="0" /><path
         d="m 4937.6,533.441 c -2.09,0 -4.4,0.661 -6.84,2.059 v 0 l -339.73,196.16 c -8.66,4.988 -15.84,17.582 -17.16,29.391 -0.14,1.269 -0.22,2.539 -0.22,3.789 v 38.43 0 c 0,4.609 1.02,8.332 2.76,10.929 v 0 c 0,0.012 0,0.012 0.01,0.012 1.85,2.769 4.53,4.277 7.71,4.277 2.11,0 4.44,-0.668 6.89,-2.09 l 0.44,-0.25 c -0.37,-1.668 -0.64,-3.476 -0.64,-5.519 v -38.438 c 0,-12.781 7.78,-27.64 17.38,-33.179 l 339.29,-195.903 c -1.37,-6.129 -5.05,-9.668 -9.89,-9.668"
         style="fill:#242f64;fill-opacity:1;fill-rule:nonzero;stroke:none"
         id="path688"
         inkscape:connector-curvature="0" /><path
         d="m 4824.15,640.852 -204.44,118.019 c -3.38,1.961 -6.11,7.18 -6.11,11.68 0,4.508 2.73,6.57 6.11,4.621 l 204.44,-118.031 c 3.38,-1.961 6.12,-7.18 6.12,-11.672 0,-4.508 -2.74,-6.578 -6.12,-4.617"
         style="fill:#d9effb;fill-opacity:1;fill-rule:nonzero;stroke:none"
         id="path690"
         inkscape:connector-curvature="0" /><path
         d="m 4555,1632.85 -35.52,20.5 v 143.51 l 35.52,-20.51 v -143.5"
         style="fill:#3e63ab;fill-opacity:1;fill-rule:nonzero;stroke:none"
         id="path692"
         inkscape:connector-curvature="0" /><path
         d="m 4555,1405.79 -35.52,20.51 35.52,-20.51 v 0"
         style="fill:#263c7a;fill-opacity:1;fill-rule:nonzero;stroke:none"
         id="path694"
         inkscape:connector-curvature="0" /><path
         d="m 4555,1405.79 -35.52,20.51 v 143.51 L 4555,1549.3 v -143.51"
         style="fill:#3e63ab;fill-opacity:1;fill-rule:nonzero;stroke:none"
         id="path696"
         inkscape:connector-curvature="0" /><path
         d="m 4555,1178.74 -35.52,20.51 35.52,-20.51 v 0"
         style="fill:#263c7a;fill-opacity:1;fill-rule:nonzero;stroke:none"
         id="path698"
         inkscape:connector-curvature="0" /><path
         d="m 4555,1178.74 -35.52,20.51 v 143.5 l 35.52,-20.51 v -143.5"
         style="fill:#3e63ab;fill-opacity:1;fill-rule:nonzero;stroke:none"
         id="path700"
         inkscape:connector-curvature="0" /><path
         d="m 4555,951.68 -35.52,20.5 35.52,-20.5 v 0"
         style="fill:#263c7a;fill-opacity:1;fill-rule:nonzero;stroke:none"
         id="path702"
         inkscape:connector-curvature="0" /><path
         d="m 4555,951.68 -35.52,20.5 V 1115.7 L 4555,1095.19 V 951.68"
         style="fill:#3e63ab;fill-opacity:1;fill-rule:nonzero;stroke:none"
         id="path704"
         inkscape:connector-curvature="0" /><path
         d="m 4555,724.629 -35.52,20.5 35.52,-20.5 v 0"
         style="fill:#263c7a;fill-opacity:1;fill-rule:nonzero;stroke:none"
         id="path706"
         inkscape:connector-curvature="0" /><path
         d="m 4555,724.629 -35.52,20.5 V 888.641 L 4555,868.129 v -143.5"
         style="fill:#3e63ab;fill-opacity:1;fill-rule:nonzero;stroke:none"
         id="path708"
         inkscape:connector-curvature="0" /><path
         d="m 4864.43,1535.24 c 0,-4.59 -3.22,-6.44 -7.19,-4.15 -3.98,2.3 -7.19,7.87 -7.19,12.45 0,4.59 3.21,6.45 7.19,4.15 3.97,-2.28 7.19,-7.86 7.19,-12.45"
         style="fill:#d9effb;fill-opacity:1;fill-rule:nonzero;stroke:none"
         id="path710"
         inkscape:connector-curvature="0" /><path
         d="m 4894.91,1517.63 c 0,-4.58 -3.21,-6.43 -7.18,-4.15 -3.98,2.3 -7.19,7.87 -7.19,12.46 0,4.58 3.21,6.45 7.19,4.16 3.97,-2.3 7.18,-7.88 7.18,-12.47"
         style="fill:#ee1696;fill-opacity:1;fill-rule:nonzero;stroke:none"
         id="path712"
         inkscape:connector-curvature="0" /><path
         d="m 4925.4,1500.04 c 0,-4.59 -3.21,-6.45 -7.18,-4.15 -3.98,2.29 -7.19,7.87 -7.19,12.45 0,4.59 3.21,6.44 7.19,4.15 3.97,-2.29 7.18,-7.86 7.18,-12.45"
         style="fill:#d9effb;fill-opacity:1;fill-rule:nonzero;stroke:none"
         id="path714"
         inkscape:connector-curvature="0" /><path
         d="m 4864.43,1308.3 c 0,-4.58 -3.22,-6.45 -7.19,-4.15 -3.98,2.29 -7.19,7.87 -7.19,12.46 0,4.58 3.21,6.44 7.19,4.15 3.97,-2.3 7.19,-7.87 7.19,-12.46"
         style="fill:#ee1696;fill-opacity:1;fill-rule:nonzero;stroke:none"
         id="path716"
         inkscape:connector-curvature="0" /><path
         d="m 4894.91,1290.7 c 0,-4.59 -3.21,-6.44 -7.18,-4.15 -3.98,2.3 -7.19,7.87 -7.19,12.45 0,4.59 3.21,6.45 7.19,4.15 3.97,-2.28 7.18,-7.87 7.18,-12.45"
         style="fill:#d9effb;fill-opacity:1;fill-rule:nonzero;stroke:none"
         id="path718"
         inkscape:connector-curvature="0" /><path
         d="m 4925.4,1273.09 c 0,-4.58 -3.21,-6.44 -7.18,-4.15 -3.98,2.3 -7.19,7.87 -7.19,12.46 0,4.58 3.21,6.45 7.19,4.15 3.97,-2.29 7.18,-7.87 7.18,-12.46"
         style="fill:#ffffff;fill-opacity:1;fill-rule:nonzero;stroke:none"
         id="path720"
         inkscape:connector-curvature="0" /><path
         d="m 4864.43,1079.65 c 0,-4.58 -3.22,-6.45 -7.19,-4.15 -3.98,2.29 -7.19,7.87 -7.19,12.46 0,4.58 3.21,6.43 7.19,4.15 3.97,-2.3 7.19,-7.87 7.19,-12.46"
         style="fill:#ffffff;fill-opacity:1;fill-rule:nonzero;stroke:none"
         id="path722"
         inkscape:connector-curvature="0" /><path
         d="m 4894.91,1062.05 c 0,-4.59 -3.21,-6.45 -7.18,-4.15 -3.98,2.28 -7.19,7.86 -7.19,12.45 0,4.59 3.21,6.44 7.19,4.15 3.97,-2.3 7.18,-7.87 7.18,-12.45"
         style="fill:#ee1696;fill-opacity:1;fill-rule:nonzero;stroke:none"
         id="path724"
         inkscape:connector-curvature="0" /><path
         d="m 4925.4,1044.44 c 0,-4.58 -3.21,-6.44 -7.18,-4.15 -3.98,2.3 -7.19,7.87 -7.19,12.45 0,4.59 3.21,6.45 7.19,4.16 3.97,-2.29 7.18,-7.87 7.18,-12.46"
         style="fill:#ffffff;fill-opacity:1;fill-rule:nonzero;stroke:none"
         id="path726"
         inkscape:connector-curvature="0" /><path
         d="m 4864.43,854.32 c 0,-4.59 -3.22,-6.441 -7.19,-4.148 -3.98,2.297 -7.19,7.867 -7.19,12.449 0,4.59 3.21,6.449 7.19,4.16 3.97,-2.293 7.19,-7.871 7.19,-12.461"
         style="fill:#ffffff;fill-opacity:1;fill-rule:nonzero;stroke:none"
         id="path728"
         inkscape:connector-curvature="0" /><path
         d="m 4894.91,836.73 c 0,-4.589 -3.21,-6.449 -7.18,-4.16 -3.98,2.289 -7.19,7.871 -7.19,12.461 0,4.578 3.21,6.438 7.19,4.149 3.97,-2.301 7.18,-7.871 7.18,-12.45"
         style="fill:#d9effb;fill-opacity:1;fill-rule:nonzero;stroke:none"
         id="path730"
         inkscape:connector-curvature="0" /><path
         d="m 4925.4,819.121 c 0,-4.59 -3.21,-6.449 -7.18,-4.152 -3.98,2.293 -7.19,7.871 -7.19,12.453 0,4.59 3.21,6.437 7.19,4.148 3.97,-2.289 7.18,-7.859 7.18,-12.449"
         style="fill:#d9effb;fill-opacity:1;fill-rule:nonzero;stroke:none"
         id="path732"
         inkscape:connector-curvature="0" /><path
         d="m 4864.43,625.93 c 0,-4.578 -3.22,-6.45 -7.19,-4.16 -3.98,2.3 -7.19,7.878 -7.19,12.472 0,4.578 3.21,6.43 7.19,4.149 3.97,-2.301 7.19,-7.871 7.19,-12.461"
         style="fill:#ffffff;fill-opacity:1;fill-rule:nonzero;stroke:none"
         id="path734"
         inkscape:connector-curvature="0" /><path
         d="m 4894.91,608.332 c 0,-4.594 -3.21,-6.453 -7.18,-4.152 -3.98,2.281 -7.19,7.859 -7.19,12.449 0,4.59 3.21,6.441 7.19,4.152 3.97,-2.301 7.18,-7.871 7.18,-12.449"
         style="fill:#ee1696;fill-opacity:1;fill-rule:nonzero;stroke:none"
         id="path736"
         inkscape:connector-curvature="0" /><path
         d="m 4925.4,590.719 c 0,-4.578 -3.21,-6.449 -7.18,-4.149 -3.98,2.289 -7.19,7.871 -7.19,12.45 0,4.589 3.21,6.449 7.19,4.16 3.97,-2.289 7.18,-7.871 7.18,-12.461"
         style="fill:#d9effb;fill-opacity:1;fill-rule:nonzero;stroke:none"
         id="path738"
         inkscape:connector-curvature="0" /><path
         d="M 5089.83,1536.08 V 539.582 L 5499.7,776.219 V 1772.71 Z M 5081.42,525.012 V 1540.94 l 2.1,1.21 424.59,245.13 V 771.352 L 5506,770.141 5081.42,525.012"
         style="fill:#263c7a;fill-opacity:1;fill-rule:nonzero;stroke:none"
         id="path740"
         inkscape:connector-curvature="0" /><path
         d="m 5397.81,1330.18 -190.38,-109.91 c -12.79,-7.38 -23.15,0.45 -23.15,17.5 v 105.56 c 0,17.05 10.36,36.86 23.15,44.25 l 190.38,109.91 c 12.79,7.38 23.16,-0.45 23.16,-17.5 v -105.56 c 0,-17.05 -10.37,-36.86 -23.16,-44.25"
         style="fill:#263c7a;fill-opacity:1;fill-rule:nonzero;stroke:none"
         id="path742"
         inkscape:connector-curvature="0" /><path
         d="m 5402.43,1499.54 c 1.09,-2.96 1.71,-6.5 1.71,-10.59 V 1383.4 c 0,-17.05 -10.36,-36.87 -23.15,-44.25 l -190.38,-109.91 c -1.58,-0.92 -3.13,-1.6 -4.62,-2.05 3.44,-9.32 11.73,-12.53 21.44,-6.92 l 190.38,109.91 c 12.79,7.39 23.16,27.2 23.16,44.25 v 105.55 c 0,14.95 -7.97,22.8 -18.54,19.56"
         style="fill:#5f92d3;fill-opacity:1;fill-rule:nonzero;stroke:none"
         id="path744"
         inkscape:connector-curvature="0" /><path
         d="m 5363.04,1393.76 c 3.52,2.03 6.37,0.38 6.37,-3.68 v -24.05 c 0,-4.07 -2.85,-9 -6.37,-11.03 -3.53,-2.04 -6.38,-0.39 -6.38,3.67 v 24.04 c 0,4.07 2.85,9.02 6.38,11.05"
         style="fill:#ffffff;fill-opacity:1;fill-rule:nonzero;stroke:none"
         id="path746"
         inkscape:connector-curvature="0" /><path
         d="m 5335.73,1374.98 c 3.52,2.03 6.37,0.39 6.37,-3.67 v -21.05 c 0,-4.06 -2.85,-9 -6.37,-11.03 -3.52,-2.04 -6.37,-0.39 -6.37,3.68 v 21.03 c 0,4.07 2.85,9.01 6.37,11.04"
         style="fill:#d9effb;fill-opacity:1;fill-rule:nonzero;stroke:none"
         id="path748"
         inkscape:connector-curvature="0" /><path
         d="m 5308.41,1382.68 c 3.53,2.04 6.38,0.39 6.38,-3.67 v -44.51 c 0,-4.07 -2.85,-9.01 -6.38,-11.05 -3.51,-2.03 -6.37,-0.38 -6.37,3.69 v 44.51 c 0,4.06 2.86,9 6.37,11.03"
         style="fill:#ee1696;fill-opacity:1;fill-rule:nonzero;stroke:none"
         id="path750"
         inkscape:connector-curvature="0" /><path
         d="m 5281.11,1392.57 c 3.51,2.04 6.36,0.39 6.36,-3.68 v -70.16 c 0,-4.06 -2.85,-9.01 -6.36,-11.04 -3.53,-2.03 -6.38,-0.39 -6.38,3.67 v 70.17 c 0,4.06 2.85,9 6.38,11.04"
         style="fill:#d9effb;fill-opacity:1;fill-rule:nonzero;stroke:none"
         id="path752"
         inkscape:connector-curvature="0" /><path
         d="m 5253.79,1369.44 c 3.53,2.04 6.38,0.39 6.38,-3.67 v -62.81 c 0,-4.07 -2.85,-9.01 -6.38,-11.04 -3.51,-2.03 -6.37,-0.38 -6.37,3.68 v 62.81 c 0,4.06 2.86,9 6.37,11.03"
         style="fill:#d9effb;fill-opacity:1;fill-rule:nonzero;stroke:none"
         id="path754"
         inkscape:connector-curvature="0" /><path
         d="m 5226.49,1324.98 c 3.51,2.03 6.36,0.39 6.36,-3.67 v -34.12 c 0,-4.07 -2.85,-9 -6.36,-11.04 -3.53,-2.03 -6.38,-0.38 -6.38,3.68 v 34.11 c 0,4.07 2.85,9.01 6.38,11.04"
         style="fill:#ffffff;fill-opacity:1;fill-rule:nonzero;stroke:none"
         id="path756"
         inkscape:connector-curvature="0" /><path
         d="m 5356.77,1405.9 c 0,-4 2.8,-5.62 6.27,-3.62 3.46,2 6.26,6.86 6.26,10.86 0,4 -2.8,5.62 -6.26,3.62 -3.47,-2.01 -6.27,-6.86 -6.27,-10.86"
         style="fill:#ee1696;fill-opacity:1;fill-rule:nonzero;stroke:none"
         id="path758"
         inkscape:connector-curvature="0" /><path
         d="m 5356.77,1428.5 c 0,-4 2.8,-5.61 6.27,-3.62 3.46,2 6.26,6.87 6.26,10.86 0,3.99 -2.8,5.61 -6.26,3.61 -3.47,-1.99 -6.27,-6.85 -6.27,-10.85"
         style="fill:#ffffff;fill-opacity:1;fill-rule:nonzero;stroke:none"
         id="path760"
         inkscape:connector-curvature="0" /><path
         d="m 2065.37,1700.8 c -10.65,0 -20.81,2.15 -28.41,6.53 l -273.06,157.66 c -16.76,9.67 -14.66,26.57 4.7,37.74 l 263.66,152.23 c 10.59,6.11 24.14,9.24 36.99,9.24 10.65,0 20.8,-2.14 28.4,-6.53 l 273.07,-157.65 c 14.15,-8.18 14.84,-21.51 3.05,-32.19 l -49.51,-28.57 c -4.87,-2.82 -9.33,-5.77 -13.37,-8.83 l -208.54,-120.39 c -10.58,-6.11 -24.13,-9.24 -36.98,-9.24"
         style="fill:#899abf;fill-opacity:1;fill-rule:nonzero;stroke:none"
         id="path762"
         inkscape:connector-curvature="0" /><path
         d="m 2310.89,1830.43 c 4.04,3.06 8.5,6.01 13.37,8.83 l 49.51,28.57 c -2.17,-1.96 -4.75,-3.83 -7.75,-5.57 l -55.13,-31.83"
         style="fill:#7491c1;fill-opacity:1;fill-rule:nonzero;stroke:none"
         id="path764"
         inkscape:connector-curvature="0" /><path
         d="m 2381.94,2051.21 v 0 94.22 l -211.27,0.11 -73.02,42.16 c -16.77,9.68 -46.04,8.47 -65.39,-2.71 l -68.13,-39.33 -211.46,0.12 v -96.91 c -0.48,-6.54 3.17,-12.87 11.23,-17.52 l 273.07,-157.65 c 16.75,-9.67 46.03,-8.46 65.38,2.71 l 263.67,152.23 c 11.16,6.45 16.54,14.8 15.92,22.57"
         style="fill:#4067b1;fill-opacity:1;fill-rule:nonzero;stroke:none"
         id="path766"
         inkscape:connector-curvature="0" /><path
         d="m 2067.31,2194.19 c -12.27,-0.31 -24.99,-3.39 -35.05,-9.2 l -68.13,-39.33 -211.46,0.12 v -96.91 c -0.48,-6.54 3.17,-12.87 11.23,-17.52 l 273.07,-157.65 c 8.05,-4.65 19,-6.76 30.34,-6.48 v 326.97"
         style="fill:#4067b1;fill-opacity:1;fill-rule:nonzero;stroke:none"
         id="path768"
         inkscape:connector-curvature="0" /><path
         d="m 1776.6,2145.76 -23.93,0.02 v -96.91 c -0.48,-6.54 3.17,-12.87 11.23,-17.52 l 12.7,-7.33 v 121.74"
         style="fill:#5f92d3;fill-opacity:1;fill-rule:nonzero;stroke:none"
         id="path770"
         inkscape:connector-curvature="0" /><path
         d="m 2041.17,1871.64 c 14.46,-6.19 35.37,-5.84 52.27,0.6 v 110.02 h -52.27 v -110.62"
         style="fill:#5f92d3;fill-opacity:1;fill-rule:nonzero;stroke:none"
         id="path772"
         inkscape:connector-curvature="0" /><path
         d="m 2036.97,1970.25 -273.07,157.66 c -16.76,9.68 -14.66,26.57 4.7,37.74 l 263.66,152.24 c 19.35,11.17 48.62,12.38 65.39,2.7 l 273.07,-157.65 c 16.75,-9.67 14.64,-26.58 -4.7,-37.75 l -263.67,-152.22 c -19.35,-11.18 -48.63,-12.4 -65.38,-2.72"
         style="fill:#d9effb;fill-opacity:1;fill-rule:nonzero;stroke:none"
         id="path774"
         inkscape:connector-curvature="0" /><path
         d="M 2366.02,2143.74 2102.35,1991.5 c -19.35,-11.17 -48.63,-12.38 -65.38,-2.7 l -273.07,157.65 c -3.74,2.16 -6.49,4.68 -8.36,7.41 -5.76,-9.25 -3.15,-19.31 8.36,-25.95 l 273.07,-157.66 c 16.75,-9.68 46.03,-8.46 65.38,2.72 l 263.67,152.22 c 15.04,8.68 19.6,20.81 13.05,30.33 -2.62,-4.22 -6.99,-8.29 -13.05,-11.78"
         style="fill:#ffffff;fill-opacity:1;fill-rule:nonzero;stroke:none"
         id="path776"
         inkscape:connector-curvature="0" /><path
         d="m 2281.5,2026.35 c 0,-7.05 -4.94,-15.59 -11.03,-19.12 -6.09,-3.51 -11.02,-0.66 -11.02,6.37 0,7.04 4.93,15.59 11.02,19.11 6.09,3.52 11.03,0.67 11.03,-6.36"
         style="fill:#d9effb;fill-opacity:1;fill-rule:nonzero;stroke:none"
         id="path778"
         inkscape:connector-curvature="0" /><path
         d="m 2316.98,2046.82 c 0,-7.03 -4.93,-15.58 -11.02,-19.1 -6.09,-3.51 -11.04,-0.66 -11.04,6.37 0,7.04 4.95,15.59 11.04,19.1 6.09,3.53 11.02,0.67 11.02,-6.37"
         style="fill:#d9effb;fill-opacity:1;fill-rule:nonzero;stroke:none"
         id="path780"
         inkscape:connector-curvature="0" /><path
         d="m 2352.47,2067.31 c 0,-7.03 -4.94,-15.58 -11.02,-19.1 -6.1,-3.52 -11.04,-0.66 -11.04,6.37 0,7.04 4.94,15.58 11.04,19.1 6.08,3.52 11.02,0.67 11.02,-6.37"
         style="fill:#d9effb;fill-opacity:1;fill-rule:nonzero;stroke:none"
         id="path782"
         inkscape:connector-curvature="0" /><path
         d="m 2053.11,2068 -127.79,73.77 c -7.84,4.53 -6.85,12.44 2.2,17.66 l 123.39,71.24 c 9.05,5.23 22.75,5.79 30.6,1.27 l 127.78,-73.78 c 7.84,-4.52 6.86,-12.43 -2.2,-17.66 l -123.39,-71.23 c -9.05,-5.24 -22.75,-5.81 -30.59,-1.27"
         style="fill:#5f92d3;fill-opacity:1;fill-rule:nonzero;stroke:none"
         id="path784"
         inkscape:connector-curvature="0" /><path
         d="m 2065.34,2129.76 -17.67,10.22 c -1.09,0.62 -0.96,1.72 0.3,2.44 l 17.07,9.85 c 1.25,0.73 3.15,0.8 4.23,0.18 l 17.69,-10.21 c 1.08,-0.62 0.94,-1.72 -0.31,-2.44 l -17.08,-9.86 c -1.25,-0.72 -3.14,-0.8 -4.23,-0.18"
         style="fill:#d9effb;fill-opacity:1;fill-rule:nonzero;stroke:none"
         id="path786"
         inkscape:connector-curvature="0" /><path
         d="m 1925.32,2141.77 0.37,-0.21 1.83,1.26 123.39,71.24 c 9.05,5.22 22.75,5.79 30.6,1.27 l 127.42,-73.56 c 7.22,5.17 7.61,12.21 0.36,16.39 l -127.78,73.78 c -7.85,4.52 -21.55,3.96 -30.6,-1.27 l -123.39,-71.24 c -9.05,-5.22 -10.04,-13.13 -2.2,-17.66"
         style="fill:#4067b1;fill-opacity:1;fill-rule:nonzero;stroke:none"
         id="path788"
         inkscape:connector-curvature="0" /></g></g></svg>