<?xml version="1.0" encoding="UTF-8" standalone="no"?>
<!-- Created with Inkscape (http://www.inkscape.org/) -->

<svg
   xmlns:dc="http://purl.org/dc/elements/1.1/"
   xmlns:cc="http://creativecommons.org/ns#"
   xmlns:rdf="http://www.w3.org/1999/02/22-rdf-syntax-ns#"
   xmlns:svg="http://www.w3.org/2000/svg"
   xmlns="http://www.w3.org/2000/svg"
   xmlns:sodipodi="http://sodipodi.sourceforge.net/DTD/sodipodi-0.dtd"
   xmlns:inkscape="http://www.inkscape.org/namespaces/inkscape"
   version="1.1"
   id="svg1166"
   xml:space="preserve"
   width="800"
   height="533.33331"
   viewBox="0 0 800 533.33331"
   sodipodi:docname="server.svg"
   inkscape:version="0.92.3 (2405546, 2018-03-11)"><metadata
     id="metadata1172"><rdf:RDF><cc:Work
         rdf:about=""><dc:format>image/svg+xml</dc:format><dc:type
           rdf:resource="http://purl.org/dc/dcmitype/StillImage" /><dc:title></dc:title></cc:Work></rdf:RDF></metadata><defs
     id="defs1170"><clipPath
       clipPathUnits="userSpaceOnUse"
       id="clipPath1620"><path
         d="m 3337.95,1470.19 93.83,54.55 -52.57,23.74 -44.98,-31.9 z"
         id="path1618"
         inkscape:connector-curvature="0" /></clipPath><radialGradient
       fx="0"
       fy="0"
       cx="0"
       cy="0"
       r="1"
       gradientUnits="userSpaceOnUse"
       gradientTransform="matrix(579.255,0,0,-579.255,2717.35,1540.08)"
       spreadMethod="pad"
       id="radialGradient1628"><stop
         style="stop-opacity:1;stop-color:#58c9ec"
         offset="0"
         id="stop1622" /><stop
         style="stop-opacity:1;stop-color:#3674bf"
         offset="0.445671"
         id="stop1624" /><stop
         style="stop-opacity:1;stop-color:#232c5e"
         offset="1"
         id="stop1626" /></radialGradient></defs><sodipodi:namedview
     pagecolor="#ffffff"
     bordercolor="#666666"
     borderopacity="1"
     objecttolerance="10"
     gridtolerance="10"
     guidetolerance="10"
     inkscape:pageopacity="0"
     inkscape:pageshadow="2"
     inkscape:window-width="1366"
     inkscape:window-height="705"
     id="namedview1168"
     showgrid="false"
     inkscape:zoom="0.39875"
     inkscape:cx="-14.562402"
     inkscape:cy="459.48774"
     inkscape:window-x="0"
     inkscape:window-y="30"
     inkscape:window-maximized="1"
     inkscape:current-layer="g1176" /><g
     id="g1174"
     inkscape:groupmode="layer"
     inkscape:label="ink_ext_XXXXXX"
     transform="matrix(1.3333333,0,0,-1.3333333,0,533.33333)"><g
       id="g1176"
       transform="scale(0.1)"><path
         d="m 2266.5448,1497.0363 c -59.48,0 -118.95,13.1 -164.33,39.29 -90.76,52.4 -90.76,137.36 0,189.75 45.37,26.2 104.84,39.3 164.32,39.3 59.47,0 118.95,-13.1 164.33,-39.3 90.75,-52.39 90.76,-137.35 0,-189.75 -45.38,-26.19 -104.85,-39.29 -164.32,-39.29"
         style="fill:#e4eff6;fill-opacity:1;fill-rule:nonzero;stroke:none"
         id="path1178"
         inkscape:connector-curvature="0" /><path
         d="m 4158.7748,733.63733 c -83.74,0 -167.46,18.437 -231.36,55.328 -127.77,73.77 -127.77,193.371 -0.01,267.13297 63.88,36.878 147.61,55.328 231.34,55.328 83.73,0 167.46,-18.45 231.35,-55.328 127.77,-73.77397 127.77,-193.37097 0.01,-267.14097 -63.88,-36.883 -147.62,-55.32 -231.33,-55.32"
         style="fill:#e4eff6;fill-opacity:1;fill-rule:nonzero;stroke:none"
         id="path1180"
         inkscape:connector-curvature="0" /><path
         d="m 2133.2648,3280.4863 c 0,0 6.06,-124.97 15.57,-208.96 9.51,-83.98 211.78,64.51 211.78,64.51 v 95.62 l -227.35,48.83"
         style="fill:#5a3c9f;fill-opacity:1;fill-rule:nonzero;stroke:none"
         id="path1182"
         inkscape:connector-curvature="0" /><path
         d="m 2240.9948,1725.6363 c 3.04,-7.59 55.44,-71.4 107.86,-87.34 22.78,-6.94 38.1,-7.85 48.14,-6.65 10.08,1.2 16.3,11.59 12.9,21.15 -9.01,25.38 -34.86,78.26 -100.55,110.82 -88.85,44.05 -68.35,-37.98 -68.35,-37.98"
         style="fill:#263c7a;fill-opacity:1;fill-rule:nonzero;stroke:none"
         id="path1184"
         inkscape:connector-curvature="0" /><path
         d="m 2223.5248,1701.1363 c 0,0 19.75,-46.34 25.82,-85.07 3.72,-23.63 -9.25,-54.33 -19.94,-74.67 -6.62,-12.63 -23.41,-15.47 -33.98,-5.88 -17.12,15.54 -38.93,42.53 -42.53,81.31 -6.08,65.31 0,76.71 0,76.71 l 70.63,7.6"
         style="fill:#263c7a;fill-opacity:1;fill-rule:nonzero;stroke:none"
         id="path1186"
         inkscape:connector-curvature="0" /><path
         d="m 2097.2748,2490.6163 c 0,0 -6.83,-82.39 0,-173.54 6.84,-91.14 31.31,-517.38 35.86,-619.92 0,0 -2.27,-31.04 57.83,-24.21 60.09,6.84 55.25,41.3 55.25,41.3 0,0 84.4,1.14 87.06,50.89 2.67,49.75 86.45,594.07 86.45,789.78 l -322.45,-64.3"
         style="fill:#fad644;fill-opacity:1;fill-rule:nonzero;stroke:none"
         id="path1188"
         inkscape:connector-curvature="0" /><path
         d="m 2450.9448,2916.6563 41.35,-64.05 142.14,-171.69 c 0,0 -4.88,-15.93 -22.58,-20.1 -13.82,-3.26 -133.37,110.8 -185.01,160.85 -13.72,13.3 -15.99,34.46 -5.44,50.38 l 29.54,44.61"
         style="fill:#fab6a9;fill-opacity:1;fill-rule:nonzero;stroke:none"
         id="path1190"
         inkscape:connector-curvature="0" /><path
         d="m 2370.2748,3179.5363 c 0,0 65.69,1.7 88.56,-93.23 22.86,-94.93 40.75,-213.8 20.86,-223.68 -59.7,-29.65 -97.48,5.05 -97.48,5.05 l -11.94,311.86"
         style="fill:#6f41a4;fill-opacity:1;fill-rule:nonzero;stroke:none"
         id="path1192"
         inkscape:connector-curvature="0" /><path
         d="m 2389.9348,3175.5063 c -11.21,4.68 -23.79,5.31 -35.46,1.95 -55.96,-16.07 -266.39,-77.82 -301.06,-107.47 -40.06,-34.25 60.08,-226.69 58.65,-289.79 -1.45,-63.09 -8.57,-137.47 -14.13,-206.06 -5.58,-68.6 -13.13,-106.21 42.98,-135.37 56.1,-29.16 151.89,-30.5 223.59,24.13 71.71,54.64 58.69,92.02 55.71,131.68 -2.98,39.67 -27.4,211.22 -25.28,259.91 0,0 25.26,18.61 43.98,50.53 18.72,31.92 -14.34,90.59 -28.07,128.73 -13.72,38.15 7.74,81.77 3.49,112.89 -2.18,16.02 -12.42,23.87 -24.4,28.87"
         style="fill:#7844a6;fill-opacity:1;fill-rule:nonzero;stroke:none"
         id="path1194"
         inkscape:connector-curvature="0" /><path
         d="m 2322.6648,3109.8963 c 4.44,-34.66 -27.36,-67.29 -71.02,-72.88 -43.65,-5.59 -82.65,17.97 -87.09,52.63 -4.43,34.66 27.35,67.29 71.02,72.89 43.66,5.59 82.65,-17.97 87.09,-52.64"
         style="fill:#ffffff;fill-opacity:1;fill-rule:nonzero;stroke:none"
         id="path1196"
         inkscape:connector-curvature="0" /><path
         d="m 2300.1148,3107.0163 c 3.17,-24.78 -19.55,-48.1 -50.76,-52.1 -31.21,-3.99 -59.08,12.85 -62.25,37.62 -3.18,24.77 19.56,48.09 50.76,52.09 31.2,4 59.07,-12.84 62.25,-37.61"
         style="fill:#fab6a9;fill-opacity:1;fill-rule:nonzero;stroke:none"
         id="path1198"
         inkscape:connector-curvature="0" /><path
         d="m 2269.0948,3188.3463 c 0,0 -37.98,31.24 -45.44,15.42 -7.46,-15.83 -13.61,-83.73 -13.61,-83.73 l 75.44,-20.27 -11.46,68.8 c 0,0 15.1,12.81 -4.93,19.78"
         style="fill:#fab6a9;fill-opacity:1;fill-rule:nonzero;stroke:none"
         id="path1200"
         inkscape:connector-curvature="0" /><path
         d="m 2386.9948,3262.7563 c -3.67,-62.1 -56.98,-109.47 -119.08,-105.8 -62.09,3.67 -109.45,56.99 -105.79,119.08 3.67,62.09 56.98,109.46 119.08,105.79 62.09,-3.67 109.45,-56.98 105.79,-119.07"
         style="fill:#fab6a9;fill-opacity:1;fill-rule:nonzero;stroke:none"
         id="path1202"
         inkscape:connector-curvature="0" /><path
         d="m 2218.3948,3184.0763 c -0.67,-3.54 -1.31,-7.34 -1.92,-11.23 7.58,-39.19 66.21,-56.34 66.21,-56.34 l -8.66,52.06 c 0,0 7.11,6.04 5.1,12.07 -23.17,7.31 -52.38,13.79 -60.73,3.44"
         style="fill:#eb8b8a;fill-opacity:1;fill-rule:nonzero;stroke:none"
         id="path1204"
         inkscape:connector-curvature="0" /><path
         d="m 2386.9948,3262.7563 c -3.67,-62.1 -56.98,-109.47 -119.08,-105.8 -62.09,3.67 -109.45,56.99 -105.79,119.08 3.67,62.09 56.98,109.46 119.08,105.79 62.09,-3.67 109.45,-56.98 105.79,-119.07"
         style="fill:#fab6a9;fill-opacity:1;fill-rule:nonzero;stroke:none"
         id="path1206"
         inkscape:connector-curvature="0" /><path
         d="m 1997.0548,2792.6463 12.62,-301.4 44.05,-4.54 28.68,271.32 -85.35,34.62"
         style="fill:#fab6a9;fill-opacity:1;fill-rule:nonzero;stroke:none"
         id="path1208"
         inkscape:connector-curvature="0" /><path
         d="m 2141.8548,2817.8363 c -14.58,64.36 -43.38,206.54 -43.38,206.54 l -12.31,-141.42 c 14.2,-41.95 26.41,-80.44 25.9,-102.76 -0.85,-37.03 -3.67,-77.96 -6.96,-119.32 v -0.13 c 0,0 51.34,92.73 36.75,157.09"
         style="fill:#6f41a4;fill-opacity:1;fill-rule:nonzero;stroke:none"
         id="path1210"
         inkscape:connector-curvature="0" /><path
         d="m 2061.8348,3076.1663 c 0,0 -35.24,-13.46 -55.18,-121.68 -19.94,-108.23 -34.85,-216.64 0.7,-230.61 35.55,-13.97 65.26,-24.48 75.71,4.47 10.44,28.95 16.93,168.43 18.24,218.59 1.31,50.16 3.22,119.32 -39.47,129.23"
         style="fill:#8e54b0;fill-opacity:1;fill-rule:nonzero;stroke:none"
         id="path1212"
         inkscape:connector-curvature="0" /><path
         d="m 2623.8948,2693.4663 c 0,0 19.08,-7.02 32.88,-22.04 11.31,-12.32 17.51,-22.77 22.45,-30.15 10.97,-16.37 20.23,-51.76 13.54,-56.17 -6.69,-4.4 -44.97,59.25 -51.14,44.44 -6.16,-14.8 0.06,-28.49 -7.85,-28.71 -7.92,-0.23 -35.42,63.99 -57.05,83.9 -21.64,19.91 47.17,8.73 47.17,8.73"
         style="fill:#fab6a9;fill-opacity:1;fill-rule:nonzero;stroke:none"
         id="path1214"
         inkscape:connector-curvature="0" /><path
         d="m 2246.2148,1714.2463 c 0,0 10.46,0.15 24.12,2.5 l 16.52,662.58 -40.64,-665.08"
         style="fill:#d67f1c;fill-opacity:1;fill-rule:nonzero;stroke:none"
         id="path1216"
         inkscape:connector-curvature="0" /><path
         d="m 2010.0148,2493.7663 c 0,0 -11.64,-70.35 -9.89,-92.88 1.74,-22.54 13.8,-59.7 22.96,-58.91 9.16,0.78 0.31,90.61 16.38,81.66 16.08,-8.95 17.77,-24.29 25.04,-18.88 7.29,5.43 -12.69,82.2 -7.36,115.5 5.32,33.29 -47.13,-26.49 -47.13,-26.49"
         style="fill:#fab6a9;fill-opacity:1;fill-rule:nonzero;stroke:none"
         id="path1218"
         inkscape:connector-curvature="0" /><path
         d="m 2317.8148,3259.5663 c 56.5,-20.07 67.5,-7.83 68.04,-7.17 0.52,3.4 0.93,6.85 1.14,10.36 0.73,12.47 -0.67,24.55 -3.76,35.98 l -146.58,19.79 c 0,0 23.14,-38.36 81.16,-58.96"
         style="fill:#eb8b8a;fill-opacity:1;fill-rule:nonzero;stroke:none"
         id="path1220"
         inkscape:connector-curvature="0" /><path
         d="m 2391.0448,3374.9663 c -13.31,11.41 -61.36,67.84 -147.44,54.52 -53.79,-8.32 -99.14,-45.02 -109.2,-128.73 -6.77,-56.41 13.93,-111.97 52.06,-153.04 2.07,0.96 4.2,1.84 6.13,3.1 21.55,14.19 23.87,21.99 23.87,22.06 l 4.77,42.72 c -0.16,6.06 -4.69,11.46 -10.74,11.84 -4.68,0.29 -10.36,2.54 -15.77,9.62 -12.37,16.16 -6.66,41.37 18.06,42.32 12.92,0.49 17.92,7.48 19.76,14.04 1.59,5.72 7.62,8.89 13.19,6.87 28.13,-10.18 97.44,-32.13 142.06,-19.48 57.06,16.16 16.57,82.74 3.25,94.16"
         style="fill:#5a3c9f;fill-opacity:1;fill-rule:nonzero;stroke:none"
         id="path1222"
         inkscape:connector-curvature="0" /><path
         d="m 2326.8648,3208.6863 34.46,9.46 c 0,0 -16.46,-25.87 -40.47,-32.47 -24.02,-6.59 -27.75,13.73 -27.75,13.73 l 33.76,9.28"
         style="fill:#ffffff;fill-opacity:1;fill-rule:nonzero;stroke:none"
         id="path1224"
         inkscape:connector-curvature="0" /><path
         d="m 3434.2548,812.74633 c -18.12,0 -35.42,3.66 -48.34,11.121 l -779.9,444.69897 c -28.52,16.47 -24.94,45.23 7.99,64.25 l 448.73,259.08 c 18.02,10.4 41.08,15.73 62.95,15.73 18.11,0 35.41,-3.66 48.33,-11.12 l 779.91,-444.71 c 28.51,-16.46 24.94,-45.22 -8,-64.24 l -448.73,-259.07897 c -18.01,-10.403 -41.08,-15.731 -62.94,-15.731"
         style="fill:#e4eff6;fill-opacity:1;fill-rule:nonzero;stroke:none"
         id="path1226"
         inkscape:connector-curvature="0" /><path
         d="m 4023.4548,1301.4963 v 0 1820.72 l -723.82,189.44 -133.32,76.97 c -30.61,17.67 -84.05,15.45 -119.38,-4.94 l -124.39,-71.82 -386.07,0.21 114.33,-1757.63 c -0.88,-11.97 5.79,-23.5 20.5,-31.98 l 722.32,-545.02797 c 30.6,-17.672 84.04,-15.453 119.38,4.937 l 481.37,277.93097 c 20.39,11.76 30.22,27.01 29.08,41.19"
         style="fill:#4067b1;fill-opacity:1;fill-rule:nonzero;stroke:none"
         id="path1228"
         inkscape:connector-curvature="0" /><path
         d="m 3110.9248,3400.4663 c -22.4,-0.54 -45.63,-6.19 -63.99,-16.78 l -124.39,-71.82 -386.07,0.21 v -1825.6 c -0.87,-11.95 5.8,-23.5 20.5,-31.98 l 836.65,-477.05797 c 14.71,-8.5 34.69,-12.352 55.4,-11.84 l 8.63,1837.00797 -346.73,597.86"
         style="fill:#d9effb;fill-opacity:1;fill-rule:nonzero;stroke:none"
         id="path1230"
         inkscape:connector-curvature="0" /><path
         d="m 3401.3048,973.67633 c 26.39,-11.309 64.57,-10.691 95.43,1.082 V 2824.3263 h -95.43 V 973.67633"
         style="fill:#5f92d3;fill-opacity:1;fill-rule:nonzero;stroke:none"
         id="path1232"
         inkscape:connector-curvature="0" /><path
         d="m 3393.6248,2802.3963 -836.65,477.06 c -30.59,17.67 -26.76,48.52 8.58,68.92 l 481.38,277.93 c 35.33,20.4 88.77,22.62 119.38,4.95 l 836.64,-477.06 c 30.59,-17.67 26.76,-48.53 -8.58,-68.92 l -481.37,-277.93 c -35.34,-20.4 -88.78,-22.61 -119.38,-4.95"
         style="fill:#d9effb;fill-opacity:1;fill-rule:nonzero;stroke:none"
         id="path1234"
         inkscape:connector-curvature="0" /><path
         d="m 3994.3748,3119.1263 -481.37,-277.93 c -35.34,-20.4 -88.78,-22.61 -119.38,-4.95 l -836.65,477.07 c -6.81,3.93 -11.82,8.55 -15.26,13.54 -10.51,-16.91 -5.74,-35.27 15.26,-47.4 l 836.65,-477.06 c 30.6,-17.66 84.04,-15.45 119.38,4.95 l 481.37,277.93 c 27.46,15.85 35.8,37.99 23.84,55.37 -4.79,-7.72 -12.76,-15.13 -23.84,-21.52"
         style="fill:#fcfeff;fill-opacity:1;fill-rule:nonzero;stroke:none"
         id="path1236"
         inkscape:connector-curvature="0" /><path
         d="m 3417.2848,2995.7463 -557.01,322.88 c -14.32,8.27 -12.53,22.71 4.01,32.25 l 225.26,130.06 c 16.53,9.55 41.54,10.58 55.86,2.31 l 557.02,-322.88 c 14.32,-8.26 12.52,-22.71 -4.01,-32.25 l -225.27,-130.06 c -16.53,-9.55 -41.54,-10.58 -55.86,-2.31"
         style="fill:#263c7a;fill-opacity:1;fill-rule:nonzero;stroke:none"
         id="path1238"
         inkscape:connector-curvature="0" /><path
         d="m 3116.5748,3304.1263 -32.27,18.64 c -1.99,1.14 -1.74,3.14 0.55,4.46 l 31.16,17.99 c 2.29,1.32 5.76,1.46 7.73,0.32 l 32.28,-18.63 c 1.98,-1.15 1.73,-3.14 -0.55,-4.46 l -31.17,-18 c -2.29,-1.32 -5.75,-1.46 -7.73,-0.32"
         style="fill:#d9effb;fill-opacity:1;fill-rule:nonzero;stroke:none"
         id="path1240"
         inkscape:connector-curvature="0" /><path
         d="m 3224.4048,3242.1263 -32.27,18.63 c -1.98,1.14 -1.74,3.15 0.55,4.46 l 31.17,18 c 2.28,1.32 5.75,1.46 7.73,0.32 l 32.28,-18.64 c 1.98,-1.14 1.72,-3.14 -0.56,-4.46 l -31.17,-17.99 c -2.29,-1.32 -5.74,-1.47 -7.73,-0.32"
         style="fill:#d9effb;fill-opacity:1;fill-rule:nonzero;stroke:none"
         id="path1242"
         inkscape:connector-curvature="0" /><path
         d="m 3332.2448,3180.1163 -32.28,18.64 c -1.98,1.14 -1.73,3.14 0.56,4.46 l 31.16,18 c 2.28,1.32 5.75,1.46 7.73,0.31 l 32.28,-18.63 c 1.98,-1.14 1.73,-3.15 -0.56,-4.46 l -31.16,-17.99 c -2.3,-1.33 -5.75,-1.47 -7.73,-0.33"
         style="fill:#d9effb;fill-opacity:1;fill-rule:nonzero;stroke:none"
         id="path1244"
         inkscape:connector-curvature="0" /><path
         d="m 3440.0748,3118.1163 -32.28,18.63 c -1.98,1.15 -1.73,3.15 0.56,4.47 l 31.16,17.99 c 2.3,1.32 5.75,1.46 7.73,0.32 l 32.28,-18.64 c 1.98,-1.14 1.73,-3.14 -0.56,-4.46 l -31.16,-17.99 c -2.29,-1.32 -5.75,-1.46 -7.73,-0.32"
         style="fill:#d9effb;fill-opacity:1;fill-rule:nonzero;stroke:none"
         id="path1246"
         inkscape:connector-curvature="0" /><path
         d="m 2860.2748,3318.6263 0.66,-0.38 c 1.08,0.78 2.1,1.58 3.35,2.31 l 225.26,130.05 c 16.53,9.55 41.54,10.59 55.86,2.32 l 556.37,-322.5 c 13.19,9.44 13.88,22.3 0.65,29.94 l -557.02,322.88 c -14.32,8.27 -39.33,7.24 -55.86,-2.31 l -225.26,-130.06 c -16.54,-9.54 -18.33,-23.98 -4.01,-32.25"
         style="fill:#5f92d3;fill-opacity:1;fill-rule:nonzero;stroke:none"
         id="path1248"
         inkscape:connector-curvature="0" /><path
         d="m 3301.1948,2441.6663 -618.2,356.92 c -17.83,10.29 -32.27,37.9 -32.27,61.66 v 113.26 c 0,23.76 14.44,34.68 32.27,24.39 l 618.2,-356.92 c 17.82,-10.29 32.27,-37.89 32.27,-61.65 v -113.26 c 0,-23.76 -14.45,-34.68 -32.27,-24.4"
         style="fill:#5f92d3;fill-opacity:1;fill-rule:nonzero;stroke:none"
         id="path1250"
         inkscape:connector-curvature="0" /><path
         d="m 3254.4348,2541.7963 -29.05,16.77 c -3.89,2.24 -7.03,8.26 -7.03,13.44 v 31.03 c 0,5.18 3.14,7.56 7.03,5.31 l 29.05,-16.77 c 3.89,-2.24 7.03,-8.26 7.03,-13.44 v -31.03 c 0,-5.18 -3.14,-7.56 -7.03,-5.31"
         style="fill:#263c7a;fill-opacity:1;fill-rule:nonzero;stroke:none"
         id="path1252"
         inkscape:connector-curvature="0" /><path
         d="m 3157.2948,2597.8763 -29.05,16.77 c -3.89,2.24 -7.03,8.26 -7.03,13.44 v 31.03 c 0,5.18 3.14,7.56 7.03,5.32 l 29.05,-16.77 c 3.89,-2.25 7.04,-8.26 7.04,-13.44 v -31.03 c 0,-5.18 -3.15,-7.57 -7.04,-5.32"
         style="fill:#263c7a;fill-opacity:1;fill-rule:nonzero;stroke:none"
         id="path1254"
         inkscape:connector-curvature="0" /><path
         d="m 3301.1948,2032.4663 -618.2,356.92 c -17.83,10.29 -32.27,37.89 -32.27,61.65 v 113.26 c 0,23.77 14.44,34.68 32.27,24.4 l 618.2,-356.92 c 17.82,-10.29 32.27,-37.89 32.27,-61.66 v -113.26 c 0,-23.76 -14.45,-34.68 -32.27,-24.39"
         style="fill:#5f92d3;fill-opacity:1;fill-rule:nonzero;stroke:none"
         id="path1256"
         inkscape:connector-curvature="0" /><path
         d="m 3254.4348,2132.5863 -29.05,16.77 c -3.89,2.25 -7.03,8.26 -7.03,13.44 v 31.03 c 0,5.18 3.14,7.57 7.03,5.32 l 29.05,-16.77 c 3.89,-2.24 7.03,-8.26 7.03,-13.44 v -31.04 c 0,-5.17 -3.14,-7.55 -7.03,-5.31"
         style="fill:#263c7a;fill-opacity:1;fill-rule:nonzero;stroke:none"
         id="path1258"
         inkscape:connector-curvature="0" /><path
         d="m 3157.2948,2188.6763 -29.05,16.77 c -3.89,2.24 -7.03,8.26 -7.03,13.44 v 31.03 c 0,5.18 3.14,7.56 7.03,5.31 l 29.05,-16.77 c 3.89,-2.24 7.04,-8.26 7.04,-13.44 v -31.03 c 0,-5.18 -3.15,-7.56 -7.04,-5.31"
         style="fill:#d9effb;fill-opacity:1;fill-rule:nonzero;stroke:none"
         id="path1260"
         inkscape:connector-curvature="0" /><path
         d="m 3301.1948,1623.2663 -618.2,356.91 c -17.83,10.29 -32.27,37.9 -32.27,61.66 v 113.26 c 0,23.76 14.44,34.68 32.27,24.39 l 618.2,-356.92 c 17.82,-10.29 32.27,-37.89 32.27,-61.66 v -113.25 c 0,-23.76 -14.45,-34.69 -32.27,-24.39"
         style="fill:#5f92d3;fill-opacity:1;fill-rule:nonzero;stroke:none"
         id="path1262"
         inkscape:connector-curvature="0" /><path
         d="m 3254.4348,1723.3763 -29.05,16.78 c -3.89,2.24 -7.03,8.26 -7.03,13.44 v 31.03 c 0,5.18 3.14,7.56 7.03,5.32 l 29.05,-16.78 c 3.89,-2.24 7.03,-8.25 7.03,-13.44 v -31.02 c 0,-5.19 -3.14,-7.56 -7.03,-5.33"
         style="fill:#d9effb;fill-opacity:1;fill-rule:nonzero;stroke:none"
         id="path1264"
         inkscape:connector-curvature="0" /><path
         d="m 3157.2948,1779.4663 -29.05,16.77 c -3.89,2.24 -7.03,8.27 -7.03,13.44 v 31.04 c 0,5.17 3.14,7.56 7.03,5.31 l 29.05,-16.77 c 3.89,-2.24 7.04,-8.26 7.04,-13.45 v -31.02 c 0,-5.19 -3.15,-7.56 -7.04,-5.32"
         style="fill:#263c7a;fill-opacity:1;fill-rule:nonzero;stroke:none"
         id="path1266"
         inkscape:connector-curvature="0" /><path
         d="m 3301.1948,1214.0563 -618.2,356.92 c -17.83,10.28 -32.27,37.89 -32.27,61.65 v 113.26 c 0,23.76 14.44,34.69 32.27,24.4 l 618.2,-356.92 c 17.82,-10.29 32.27,-37.9 32.27,-61.66 v -113.26 c 0,-23.76 -14.45,-34.68 -32.27,-24.39"
         style="fill:#5f92d3;fill-opacity:1;fill-rule:nonzero;stroke:none"
         id="path1268"
         inkscape:connector-curvature="0" /><path
         d="m 3254.4348,1314.1763 -29.05,16.77 c -3.89,2.25 -7.03,8.26 -7.03,13.44 v 31.03 c 0,5.18 3.14,7.56 7.03,5.33 l 29.05,-16.78 c 3.89,-2.25 7.03,-8.26 7.03,-13.44 v -31.03 c 0,-5.18 -3.14,-7.56 -7.03,-5.32"
         style="fill:#d9effb;fill-opacity:1;fill-rule:nonzero;stroke:none"
         id="path1270"
         inkscape:connector-curvature="0" /><path
         d="m 3157.2948,1370.2663 -29.05,16.77 c -3.89,2.24 -7.03,8.26 -7.03,13.43 v 31.04 c 0,5.17 3.14,7.56 7.03,5.32 l 29.05,-16.78 c 3.89,-2.24 7.04,-8.26 7.04,-13.43 v -31.04 c 0,-5.18 -3.15,-7.56 -7.04,-5.31"
         style="fill:#d9effb;fill-opacity:1;fill-rule:nonzero;stroke:none"
         id="path1272"
         inkscape:connector-curvature="0" /><path
         d="m 3606.9948,2441.6663 316.7,181.33 c 17.82,10.29 32.27,37.9 32.27,61.66 v 113.25 c 0,23.77 -14.45,34.69 -32.27,24.4 l -316.7,-181.33 c -17.82,-10.29 -32.27,-37.89 -32.27,-61.65 v -113.26 c 0,-23.76 14.45,-34.68 32.27,-24.4"
         style="fill:#263c7a;fill-opacity:1;fill-rule:nonzero;stroke:none"
         id="path1274"
         inkscape:connector-curvature="0" /><path
         d="m 3606.9948,2032.4663 316.7,181.33 c 17.82,10.29 32.27,37.89 32.27,61.65 v 113.26 c 0,23.76 -14.45,34.69 -32.27,24.39 l -316.7,-181.32 c -17.82,-10.29 -32.27,-37.89 -32.27,-61.66 v -113.26 c 0,-23.76 14.45,-34.68 32.27,-24.39"
         style="fill:#263c7a;fill-opacity:1;fill-rule:nonzero;stroke:none"
         id="path1276"
         inkscape:connector-curvature="0" /><path
         d="m 3606.9948,1623.2663 316.7,181.32 c 17.82,10.3 32.27,37.89 32.27,61.66 v 113.26 c 0,23.76 -14.45,34.68 -32.27,24.39 l -316.7,-181.33 c -17.82,-10.29 -32.27,-37.89 -32.27,-61.66 v -113.25 c 0,-23.76 14.45,-34.69 32.27,-24.39"
         style="fill:#263c7a;fill-opacity:1;fill-rule:nonzero;stroke:none"
         id="path1278"
         inkscape:connector-curvature="0" /><path
         d="m 3606.9948,1214.0563 316.7,181.33 c 17.82,10.29 32.27,37.9 32.27,61.66 v 113.26 c 0,23.76 -14.45,34.67 -32.27,24.39 l -316.7,-181.33 c -17.82,-10.29 -32.27,-37.9 -32.27,-61.66 v -113.26 c 0,-23.76 14.45,-34.68 32.27,-24.39"
         style="fill:#263c7a;fill-opacity:1;fill-rule:nonzero;stroke:none"
         id="path1280"
         inkscape:connector-curvature="0" /><path
         d="m 1623.0848,903.22733 c -9.73,0 -19.01,1.969 -25.95,5.969 l -249.4,143.99197 c -15.3,8.838 -13.38,24.268 4.29,34.478 l 240.81,139.03 c 9.66,5.58 22.04,8.44 33.77,8.44 9.73,0 19.01,-1.96 25.95,-5.97 l 249.39,-143.98 c 15.32,-8.84 13.39,-24.28 -4.28,-34.479 l -240.82,-139.04297 c -9.66,-5.578 -22.03,-8.437 -33.76,-8.437"
         style="fill:#e4eff6;fill-opacity:1;fill-rule:nonzero;stroke:none"
         id="path1282"
         inkscape:connector-curvature="0" /><path
         d="m 1984.6848,1194.8563 v 0 107.75 l -241.62,0.14 -83.52,48.22 c -19.17,11.07 -52.65,9.68 -74.78,-3.1 l -77.92,-44.98 -241.83,0.12 v -110.82 c -0.55,-7.49 3.62,-14.72 12.83,-20.03 l 312.31,-180.29997 c 19.16,-11.071 52.64,-9.692 74.77,3.101 l 301.55,174.09897 c 12.77,7.36 18.93,16.91 18.21,25.8"
         style="fill:#623da1;fill-opacity:1;fill-rule:nonzero;stroke:none"
         id="path1284"
         inkscape:connector-curvature="0" /><path
         d="m 1624.8448,1358.3763 c -14.02,-0.34 -28.58,-3.87 -40.08,-10.51 l -77.92,-44.98 -241.83,0.12 v -110.82 c -0.55,-7.49 3.62,-14.72 12.83,-20.03 l 312.31,-180.29997 c 9.2,-5.321 21.72,-7.731 34.69,-7.418 v 373.93797"
         style="fill:#7844a6;fill-opacity:1;fill-rule:nonzero;stroke:none"
         id="path1286"
         inkscape:connector-curvature="0" /><path
         d="m 1292.3748,1302.9963 -27.36,0.01 v -110.82 c -0.55,-7.49 3.62,-14.72 12.83,-20.03 l 14.53,-8.39 v 139.23"
         style="fill:#8e54b0;fill-opacity:1;fill-rule:nonzero;stroke:none"
         id="path1288"
         inkscape:connector-curvature="0" /><path
         d="m 1594.9548,989.49633 c 16.53,-7.082 40.45,-6.691 59.78,0.68 v 125.82997 h -59.78 V 989.49633"
         style="fill:#683fa2;fill-opacity:1;fill-rule:nonzero;stroke:none"
         id="path1290"
         inkscape:connector-curvature="0" /><path
         d="m 1590.1548,1102.2763 -312.31,180.3 c -19.16,11.07 -16.76,30.39 5.37,43.18 l 301.55,174.1 c 22.13,12.77 55.61,14.16 74.78,3.09 l 312.29,-180.3 c 19.17,-11.06 16.77,-30.4 -5.36,-43.17 l -301.55,-174.1 c -22.13,-12.78 -55.61,-14.17 -74.77,-3.1"
         style="fill:#6f41a4;fill-opacity:1;fill-rule:nonzero;stroke:none"
         id="path1292"
         inkscape:connector-curvature="0" /><path
         d="m 1595.7648,1134.7263 -261.71,151.09 c -16.05,9.28 -14.04,25.47 4.5,36.19 l 252.71,145.89 c 18.54,10.71 46.6,11.87 62.66,2.6 l 261.71,-151.1 c 16.06,-9.27 14.05,-25.47 -4.5,-36.17 l -252.7,-145.9 c -18.55,-10.71 -46.6,-11.88 -62.67,-2.6"
         style="fill:#5a3c9f;fill-opacity:1;fill-rule:nonzero;stroke:none"
         id="path1294"
         inkscape:connector-curvature="0" /><path
         d="m 1869.8148,1166.4163 c 0,-8.04 -5.64,-17.82 -12.61,-21.85 -6.97,-4.02 -12.61,-0.76 -12.61,7.29 0,8.04 5.64,17.82 12.61,21.85 6.97,4.02 12.61,0.76 12.61,-7.29"
         style="fill:#ee1696;fill-opacity:1;fill-rule:nonzero;stroke:none"
         id="path1296"
         inkscape:connector-curvature="0" /><path
         d="m 1910.4048,1189.8563 c 0,-8.05 -5.66,-17.83 -12.62,-21.86 -6.96,-4.01 -12.62,-0.76 -12.62,7.29 0,8.04 5.66,17.82 12.62,21.84 6.96,4.03 12.62,0.76 12.62,-7.27"
         style="fill:#ee1696;fill-opacity:1;fill-rule:nonzero;stroke:none"
         id="path1298"
         inkscape:connector-curvature="0" /><path
         d="m 1950.9848,1213.2863 c 0,-8.05 -5.65,-17.83 -12.61,-21.85 -6.97,-4.02 -12.62,-0.76 -12.62,7.28 0,8.04 5.65,17.83 12.62,21.85 6.96,4.01 12.61,0.76 12.61,-7.28"
         style="fill:#ee1696;fill-opacity:1;fill-rule:nonzero;stroke:none"
         id="path1300"
         inkscape:connector-curvature="0" /><path
         d="m 1984.6848,1369.6063 v 0 107.76 l -241.62,0.13 -83.52,48.23 c -19.17,11.06 -52.65,9.67 -74.78,-3.11 l -77.92,-44.98 -241.83,0.13 v -110.82 c -0.55,-7.49 3.62,-14.72 12.83,-20.03 l 312.31,-180.31 c 19.16,-11.07 52.64,-9.68 74.77,3.1 l 301.55,174.1 c 12.77,7.37 18.93,16.92 18.21,25.8"
         style="fill:#623da1;fill-opacity:1;fill-rule:nonzero;stroke:none"
         id="path1302"
         inkscape:connector-curvature="0" /><path
         d="m 1624.8448,1533.1363 c -14.02,-0.34 -28.58,-3.88 -40.08,-10.52 l -77.92,-44.98 -241.83,0.13 v -110.82 c -0.55,-7.49 3.62,-14.72 12.83,-20.03 l 312.31,-180.31 c 9.2,-5.32 21.72,-7.73 34.69,-7.42 v 373.95"
         style="fill:#7844a6;fill-opacity:1;fill-rule:nonzero;stroke:none"
         id="path1304"
         inkscape:connector-curvature="0" /><path
         d="m 1292.3748,1477.7563 -27.36,0.01 v -110.82 c -0.55,-7.49 3.62,-14.72 12.83,-20.03 l 14.53,-8.39 v 139.23"
         style="fill:#8e54b0;fill-opacity:1;fill-rule:nonzero;stroke:none"
         id="path1306"
         inkscape:connector-curvature="0" /><path
         d="m 1594.9548,1164.2463 c 16.53,-7.08 40.45,-6.69 59.78,0.69 v 125.83 h -59.78 v -126.52"
         style="fill:#683fa2;fill-opacity:1;fill-rule:nonzero;stroke:none"
         id="path1308"
         inkscape:connector-curvature="0" /><path
         d="m 1590.1548,1277.0363 -312.31,180.3 c -19.16,11.06 -16.76,30.39 5.37,43.17 l 301.55,174.1 c 22.13,12.78 55.61,14.16 74.78,3.1 l 312.29,-180.3 c 19.17,-11.07 16.77,-30.4 -5.36,-43.18 l -301.55,-174.1 c -22.13,-12.78 -55.61,-14.17 -74.77,-3.09"
         style="fill:#6f41a4;fill-opacity:1;fill-rule:nonzero;stroke:none"
         id="path1310"
         inkscape:connector-curvature="0" /><path
         d="m 1595.7648,1309.4863 -261.71,151.09 c -16.05,9.28 -14.04,25.47 4.5,36.18 l 252.71,145.9 c 18.54,10.7 46.6,11.87 62.66,2.6 l 261.71,-151.11 c 16.06,-9.26 14.05,-25.46 -4.5,-36.17 l -252.7,-145.9 c -18.55,-10.71 -46.6,-11.87 -62.67,-2.59"
         style="fill:#5a3c9f;fill-opacity:1;fill-rule:nonzero;stroke:none"
         id="path1312"
         inkscape:connector-curvature="0" /><path
         d="m 1869.8148,1341.1763 c 0,-8.05 -5.64,-17.83 -12.61,-21.85 -6.97,-4.02 -12.61,-0.76 -12.61,7.29 0,8.03 5.64,17.82 12.61,21.84 6.97,4.02 12.61,0.76 12.61,-7.28"
         style="fill:#ee1696;fill-opacity:1;fill-rule:nonzero;stroke:none"
         id="path1314"
         inkscape:connector-curvature="0" /><path
         d="m 1910.4048,1364.6063 c 0,-8.04 -5.66,-17.83 -12.62,-21.85 -6.96,-4.03 -12.62,-0.76 -12.62,7.28 0,8.05 5.66,17.83 12.62,21.85 6.96,4.02 12.62,0.76 12.62,-7.28"
         style="fill:#ee1696;fill-opacity:1;fill-rule:nonzero;stroke:none"
         id="path1316"
         inkscape:connector-curvature="0" /><path
         d="m 1950.9848,1388.0363 c 0,-8.05 -5.65,-17.82 -12.61,-21.84 -6.97,-4.03 -12.62,-0.77 -12.62,7.27 0,8.05 5.65,17.83 12.62,21.86 6.96,4.01 12.61,0.76 12.61,-7.29"
         style="fill:#ee1696;fill-opacity:1;fill-rule:nonzero;stroke:none"
         id="path1318"
         inkscape:connector-curvature="0" /><path
         d="m 1984.6848,1544.3663 v 0 107.75 l -241.62,0.14 -83.52,48.22 c -19.17,11.07 -52.65,9.68 -74.78,-3.1 l -77.92,-44.99 -241.83,0.13 v -110.82 c -0.55,-7.49 3.62,-14.71 12.83,-20.03 l 312.31,-180.31 c 19.16,-11.06 52.64,-9.68 74.77,3.11 l 301.55,174.1 c 12.77,7.36 18.93,16.91 18.21,25.8"
         style="fill:#623da1;fill-opacity:1;fill-rule:nonzero;stroke:none"
         id="path1320"
         inkscape:connector-curvature="0" /><path
         d="m 1624.8448,1707.8863 c -14.02,-0.34 -28.58,-3.87 -40.08,-10.51 l -77.92,-44.99 -241.83,0.13 v -110.82 c -0.55,-7.49 3.62,-14.71 12.83,-20.03 l 312.31,-180.31 c 9.2,-5.31 21.72,-7.72 34.69,-7.41 v 373.94"
         style="fill:#7844a6;fill-opacity:1;fill-rule:nonzero;stroke:none"
         id="path1322"
         inkscape:connector-curvature="0" /><path
         d="m 1292.3748,1652.5063 -27.36,0.01 v -110.82 c -0.55,-7.49 3.62,-14.71 12.83,-20.03 l 14.53,-8.38 v 139.22"
         style="fill:#8e54b0;fill-opacity:1;fill-rule:nonzero;stroke:none"
         id="path1324"
         inkscape:connector-curvature="0" /><path
         d="m 1594.9548,1339.0063 c 16.53,-7.08 40.45,-6.69 59.78,0.68 v 125.83 h -59.78 v -126.51"
         style="fill:#683fa2;fill-opacity:1;fill-rule:nonzero;stroke:none"
         id="path1326"
         inkscape:connector-curvature="0" /><path
         d="m 1590.1548,1451.7863 -312.31,180.3 c -19.16,11.07 -16.76,30.39 5.37,43.18 l 301.55,174.09 c 22.13,12.78 55.61,14.17 74.78,3.11 l 312.29,-180.31 c 19.17,-11.07 16.77,-30.4 -5.36,-43.17 l -301.55,-174.1 c -22.13,-12.79 -55.61,-14.17 -74.77,-3.1"
         style="fill:#6f41a4;fill-opacity:1;fill-rule:nonzero;stroke:none"
         id="path1328"
         inkscape:connector-curvature="0" /><path
         d="m 1966.4748,1650.1863 -301.55,-174.1 c -22.13,-12.78 -55.61,-14.16 -74.77,-3.1 l -312.31,180.31 c -4.27,2.47 -7.41,5.36 -9.56,8.48 -6.58,-10.59 -3.59,-22.09 9.56,-29.69 l 312.31,-180.3 c 19.16,-11.07 52.64,-9.69 74.77,3.1 l 301.55,174.1 c 17.2,9.92 22.43,23.8 14.94,34.69 -3.01,-4.84 -8,-9.49 -14.94,-13.49"
         style="fill:#8e54b0;fill-opacity:1;fill-rule:nonzero;stroke:none"
         id="path1330"
         inkscape:connector-curvature="0" /><path
         d="m 1869.8148,1515.9263 c 0,-8.04 -5.64,-17.82 -12.61,-21.84 -6.97,-4.03 -12.61,-0.77 -12.61,7.28 0,8.04 5.64,17.82 12.61,21.85 6.97,4.02 12.61,0.76 12.61,-7.29"
         style="fill:#ee1696;fill-opacity:1;fill-rule:nonzero;stroke:none"
         id="path1332"
         inkscape:connector-curvature="0" /><path
         d="m 1910.4048,1539.3663 c 0,-8.05 -5.66,-17.83 -12.62,-21.86 -6.96,-4.02 -12.62,-0.76 -12.62,7.29 0,8.05 5.66,17.82 12.62,21.84 6.96,4.03 12.62,0.77 12.62,-7.27"
         style="fill:#ee1696;fill-opacity:1;fill-rule:nonzero;stroke:none"
         id="path1334"
         inkscape:connector-curvature="0" /><path
         d="m 1950.9848,1562.7963 c 0,-8.05 -5.65,-17.83 -12.61,-21.85 -6.97,-4.02 -12.62,-0.76 -12.62,7.28 0,8.04 5.65,17.83 12.62,21.85 6.96,4.02 12.61,0.76 12.61,-7.28"
         style="fill:#ee1696;fill-opacity:1;fill-rule:nonzero;stroke:none"
         id="path1336"
         inkscape:connector-curvature="0" /><path
         d="m 1608.6148,1558.7663 -146.14,84.38 c -8.98,5.18 -7.84,14.23 2.51,20.2 l 141.11,81.48 c 10.35,5.97 26.03,6.62 34.99,1.44 l 146.15,-84.37 c 8.96,-5.18 7.84,-14.22 -2.51,-20.2 l -141.12,-81.47 c -10.36,-5.98 -26.02,-6.63 -34.99,-1.46"
         style="fill:#5a3c9f;fill-opacity:1;fill-rule:nonzero;stroke:none"
         id="path1338"
         inkscape:connector-curvature="0" /><path
         d="m 1622.6048,1629.4263 -20.22,11.67 c -1.24,0.71 -1.08,1.96 0.34,2.79 l 19.53,11.27 c 1.43,0.83 3.6,0.92 4.84,0.21 l 20.22,-11.67 c 1.24,-0.73 1.09,-1.98 -0.35,-2.81 l -19.52,-11.27 c -1.44,-0.83 -3.6,-0.91 -4.84,-0.19"
         style="fill:#ee1696;fill-opacity:1;fill-rule:nonzero;stroke:none"
         id="path1340"
         inkscape:connector-curvature="0" /><path
         d="m 1712.1948,1536.8263 -20.23,11.67 c -1.24,0.72 -1.08,1.97 0.35,2.79 l 19.52,11.28 c 1.44,0.82 3.61,0.92 4.85,0.2 l 20.21,-11.67 c 1.24,-0.72 1.09,-1.97 -0.34,-2.8 l -19.53,-11.27 c -1.43,-0.82 -3.59,-0.92 -4.83,-0.2"
         style="fill:#5a3c9f;fill-opacity:1;fill-rule:nonzero;stroke:none"
         id="path1342"
         inkscape:connector-curvature="0" /><path
         d="m 1756.3548,1562.5763 -20.22,11.67 c -1.24,0.72 -1.08,1.97 0.34,2.8 l 19.53,11.27 c 1.43,0.82 3.6,0.92 4.84,0.2 l 20.22,-11.67 c 1.24,-0.72 1.09,-1.97 -0.35,-2.79 l -19.52,-11.28 c -1.44,-0.82 -3.6,-0.92 -4.84,-0.2"
         style="fill:#5a3c9f;fill-opacity:1;fill-rule:nonzero;stroke:none"
         id="path1344"
         inkscape:connector-curvature="0" /><path
         d="m 1800.5248,1588.3263 -20.22,11.67 c -1.25,0.73 -1.09,1.98 0.34,2.8 l 19.52,11.28 c 1.44,0.82 3.61,0.91 4.85,0.19 l 20.22,-11.67 c 1.24,-0.72 1.09,-1.97 -0.35,-2.79 l -19.52,-11.28 c -1.44,-0.82 -3.6,-0.92 -4.84,-0.2"
         style="fill:#8e54b0;fill-opacity:1;fill-rule:nonzero;stroke:none"
         id="path1346"
         inkscape:connector-curvature="0" /><path
         d="m 1462.4748,1643.1463 0.41,-0.24 2.1,1.45 141.11,81.46 c 10.35,5.99 26.03,6.64 34.99,1.46 l 145.74,-84.14 c 8.26,5.92 8.69,13.97 0.41,18.76 l -146.15,84.37 c -8.96,5.18 -24.64,4.53 -34.99,-1.44 l -141.11,-81.48 c -10.35,-5.97 -11.48,-15.02 -2.51,-20.2"
         style="fill:#8e54b0;fill-opacity:1;fill-rule:nonzero;stroke:none"
         id="path1348"
         inkscape:connector-curvature="0" /><path
         d="m 1496.8148,1254.2563 -126.43,72.99 c -7.79,4.5 -14.11,16.57 -14.11,26.96 0,10.4 6.32,15.18 14.11,10.68 l 126.43,-73 c 7.8,-4.5 14.12,-16.57 14.12,-26.96 0,-10.39 -6.32,-15.17 -14.12,-10.67"
         style="fill:#5a3c9f;fill-opacity:1;fill-rule:nonzero;stroke:none"
         id="path1350"
         inkscape:connector-curvature="0" /><path
         d="m 1508.1148,1261.2163 -126.42,73 c -7.79,4.5 -14.11,16.58 -14.11,26.97 0,1.74 0.23,3.27 0.56,4.68 -6.73,2.45 -11.87,-2.28 -11.87,-11.66 0,-10.39 6.32,-22.46 14.11,-26.96 l 126.43,-72.99 c 6.48,-3.75 11.88,-1 13.54,5.98 l -2.24,0.98"
         style="fill:#8e54b0;fill-opacity:1;fill-rule:nonzero;stroke:none"
         id="path1352"
         inkscape:connector-curvature="0" /><path
         d="m 4345.3348,1018.4653 c 22.16,-9.457 36.1,-34.15997 34.26,-60.69897 -0.87,-12.531 -2.38,-24.199 -4.99,-29.68 -7.05,-14.789 -30.16,-35.109 -67.03,-20.539 -36.89,14.578 -118.78,91.539 -121.85,141.89897 -5.7,93.57 101.28,-6.071 159.61,-30.981"
         style="fill:#263c7a;fill-opacity:1;fill-rule:nonzero;stroke:none"
         id="path1354"
         inkscape:connector-curvature="0" /><path
         d="m 4128.6648,863.71533 c 0,0 8.85,-53.949 4.55,-63.84 -4.3,-9.89 -29.96,-30.988 -67.88,-26.429 -37.92,4.57 -147.01,42.179 -171.31,114.082 -37.65,111.457 210.59,-8.372 210.59,-8.372 l 24.05,-15.441"
         style="fill:#263c7a;fill-opacity:1;fill-rule:nonzero;stroke:none"
         id="path1356"
         inkscape:connector-curvature="0" /><path
         d="m 4022.0748,1726.1263 -8.45,-842.16097 c 0.89,-29.289 20.07,-54.027 45.88,-58.379 3.18,-0.539 6.6,-0.98 10.25,-1.301 26.13,-2.277 41.35,8.93 50.03,20.7 7.04,9.543 10.74,21.64 11.26,34 l 10.76,359.50097 53.67,321.44 74.26,-568.89797 c 1.19,-15.391 8.55,-29.614 20.4,-37.454 8.19,-5.418 19.29,-9.617 33.85,-9.187 21.25,0.641 36.02,12.019 45.02,22.168 7.13,8.043 10.9,19.113 10.74,30.461 l -29.43,342.28997 -10.96,436.6 -317.28,-49.78"
         style="fill:#fad644;fill-opacity:1;fill-rule:nonzero;stroke:none"
         id="path1358"
         inkscape:connector-curvature="0" /><path
         d="m 4373.8548,2002.7163 c -1.55,0 -3.09,0.12 -4.63,0.35 l -134.51,20.84 c -16.52,2.56 -27.84,18.02 -25.28,34.54 2.56,16.51 18.07,27.81 34.53,25.27 l 92.83,-14.38 -31.68,181.44 c -2.87,16.46 8.13,32.13 24.6,35.01 16.43,2.89 32.12,-8.13 35.01,-24.6 l 38.93,-223.01 c 1.68,-9.61 -1.38,-19.44 -8.2,-26.4 -5.73,-5.84 -13.55,-9.06 -21.6,-9.06"
         style="fill:#fab6a9;fill-opacity:1;fill-rule:nonzero;stroke:none"
         id="path1360"
         inkscape:connector-curvature="0" /><path
         d="m 4251.0248,2433.0563 c 0,0 44.96,2.63 102.91,-116.73 57.95,-119.36 -21.41,-157.06 -21.41,-157.06 l -81.5,273.79"
         style="fill:#7844a6;fill-opacity:1;fill-rule:nonzero;stroke:none"
         id="path1362"
         inkscape:connector-curvature="0" /><path
         d="m 4127.6548,2401.8063 c 2.03,0.82 124.03,79.38 169.13,-2.83 73.53,-134.05 69.21,-565.56 45.98,-621.45 -21.48,-51.73 -75.14,-89.86 -112.74,-111.34 -33.46,-19.13 -70.91,-30.82 -109.44,-31.14 -38.13,-0.3 -111.24,33.6 -108.58,83.43 12.21,229.24 -8.07,422.47 -26.79,609.96 0,0 23.4,25.18 142.44,73.37"
         style="fill:#7844a6;fill-opacity:1;fill-rule:nonzero;stroke:none"
         id="path1364"
         inkscape:connector-curvature="0" /><path
         d="m 3935.1748,1933.6963 c 3.45,0.15 6.9,1.01 10.17,2.59 8.91,4.33 15.25,13.44 16.85,24.19 l 58,169.13 c 2.58,17.47 -27.9,85.59 -43.45,88.49 -15.56,2.88 -55,-28.02 -57.58,-45.49 l -14.25,-151.12 -143.18,70.45 c -14.86,7.82 -27.16,23.74 -35.94,9.04 -8.79,-14.71 -5.29,-34.63 7.8,-44.5 l 184.52,-117.37 c 5.11,-3.85 11.09,-5.69 17.06,-5.41"
         style="fill:#fab6a9;fill-opacity:1;fill-rule:nonzero;stroke:none"
         id="path1366"
         inkscape:connector-curvature="0" /><path
         d="m 3750.5948,2097.5663 -9.02,22.03 c -3.24,7.91 -8.17,15.02 -14.46,20.81 l -37.77,34.82 c -3.2,2.95 -8.25,2.49 -10.85,-1 -2.11,-2.82 -1.92,-6.76 0.47,-9.36 l 15.78,-17.15 c 2.56,-2.79 3.36,-6.78 2.09,-10.36 l -6.01,-16.84 c -2.01,-5.63 -0.92,-11.91 2.89,-16.53 l 37.87,-45.88 19.01,39.46"
         style="fill:#fab6a9;fill-opacity:1;fill-rule:nonzero;stroke:none"
         id="path1368"
         inkscape:connector-curvature="0" /><path
         d="m 3985.2148,2328.4363 c 0,0 -81.44,-62.78 -93.94,-253.88 0,0 -1.77,-21.18 45.3,-33.89 47.07,-12.72 79.23,23.69 79.23,23.69 0,0 54.78,126.86 -30.59,264.08"
         style="fill:#7844a6;fill-opacity:1;fill-rule:nonzero;stroke:none"
         id="path1370"
         inkscape:connector-curvature="0" /><path
         d="m 4138.8348,2475.6663 13.31,-76.74 c 0,0 0.5,-26.18 -28.73,-33.43 -29.24,-7.25 -38.27,11.62 -38.27,11.62 l -13.23,86.42 66.92,12.13"
         style="fill:#fab6a9;fill-opacity:1;fill-rule:nonzero;stroke:none"
         id="path1372"
         inkscape:connector-curvature="0" /><path
         d="m 3980.8748,2472.7163 c 31.61,-61.26 101.38,-87.96 155.83,-59.62 54.45,28.33 72.97,100.95 41.36,162.22 -31.62,61.26 -101.38,87.96 -155.83,59.63 -54.46,-28.33 -72.97,-100.96 -41.36,-162.23"
         style="fill:#fab6a9;fill-opacity:1;fill-rule:nonzero;stroke:none"
         id="path1374"
         inkscape:connector-curvature="0" /><path
         d="m 4059.6548,2484.2163 c -4.63,-0.71 -9.27,0.65 -12.54,3.99 -5.7,5.82 -8.06,36.7 -22.98,39.29 -23.34,4.06 -70.76,-32.44 -90,45.92 -10,40.72 8.17,55.13 4.2,77.7 0,0 0.21,-11.62 105.08,13.7 104.85,25.33 155.57,-62.93 165.82,-107.36 10.23,-44.43 1.23,-121.94 -69.52,-144.56 -11.73,-3.75 -69.22,28.15 -68.83,33.7 0.39,5.55 19.49,8.53 14.07,23.56 -4.52,12.52 -13.2,15.92 -25.3,14.06"
         style="fill:#263c7a;fill-opacity:1;fill-rule:nonzero;stroke:none"
         id="path1376"
         inkscape:connector-curvature="0" /><path
         d="m 4195.4748,1559.9263 74.26,-568.89797 c 1.19,-15.391 8.55,-29.614 20.4,-37.461 1.94,-1.282 4.07,-2.481 6.34,-3.582 -15.42,11.562 -60.43,489.07097 -68.76,542.18097 -8.33,53.16 -32.24,67.76 -32.24,67.76"
         style="fill:#d67f1c;fill-opacity:1;fill-rule:nonzero;stroke:none"
         id="path1378"
         inkscape:connector-curvature="0" /><path
         d="m 5003.1348,1042.3953 -661.54,-410.20697 c -73.78,-45.571 -96.65,-142.321 -51.07,-216.102 l 222.13,-359.659996 h 490.48 V 1042.3953"
         style="fill:#d9effb;fill-opacity:1;fill-rule:nonzero;stroke:none"
         id="path1402"
         inkscape:connector-curvature="0" /><path
         d="m 4009.1448,2058.1063 -0.02,-1.89 c 6.67,-105.51 9.33,-216.57 2.88,-337.74 -1.05,-19.75 9.87,-36.93 25.72,-50.54 18.56,232.17 -0.01,434.42 -0.01,434.42 -10,-34.17 -28.57,-44.25 -28.57,-44.25"
         style="fill:#5a3c9f;fill-opacity:1;fill-rule:nonzero;stroke:none"
         id="path1594"
         inkscape:connector-curvature="0" /><path
         d="m 2634.9048,635.88733 c -78.4,0 -156.8,17.269 -216.61,51.801 -119.64,69.066 -119.64,181.047 -0.01,250.129 59.81,34.519 138.21,51.789 216.6,51.789 78.41,0 156.8,-17.258 216.62,-51.801 119.63,-69.07 119.64,-181.051 0.01,-250.117 -59.81,-34.532 -138.21,-51.801 -216.61,-51.801"
         style="fill:#e4eff6;fill-opacity:1;fill-rule:nonzero;stroke:none"
         id="path1596"
         inkscape:connector-curvature="0" /><path
         d="m 2759.1548,907.43833 c -7.67,4.429 -15.94,8.277 -24.54,11.726 l 0.25,0.012 -47.21,20.941 3.55,-8.242 c -35.77,7.121 -74.62,7.563 -110.71,1.172 l 2.19,9.149 -55.54,-24.61 0.33,-0.019 c -7.23,-3.059 -14.24,-6.352 -20.77,-10.129 -69.72,-40.25 -69.71,-105.5 0,-145.762 69.71,-40.25 182.74,-40.25 252.46,0 69.71,40.25 69.71,105.512 -0.01,145.762"
         style="fill:#7844a6;fill-opacity:1;fill-rule:nonzero;stroke:none"
         id="path1598"
         inkscape:connector-curvature="0" /><path
         d="m 2692.0848,869.43833 c -32.67,-18.871 -85.64,-18.871 -118.3,0 -32.67,18.859 -32.67,49.429 0,68.297 32.66,18.863 85.63,18.863 118.3,0 32.66,-18.868 32.66,-49.438 0,-68.297"
         style="fill:#6f41a4;fill-opacity:1;fill-rule:nonzero;stroke:none"
         id="path1600"
         inkscape:connector-curvature="0" /><path
         d="m 2632.9348,890.56733 v 0 c -15.7,0 -28.44,12.73 -28.44,28.441 v 359.47797 h 56.88 V 919.00833 c 0,-15.711 -12.74,-28.441 -28.44,-28.441"
         style="fill:#6f41a4;fill-opacity:1;fill-rule:nonzero;stroke:none"
         id="path1602"
         inkscape:connector-curvature="0" /><path
         d="m 2652.9348,1265.4263 c -11.33,-6.54 -29.71,-6.54 -41.05,0 -11.33,6.56 -11.33,17.16 0,23.71 11.34,6.54 29.71,6.54 41.05,0 11.34,-6.55 11.34,-17.16 0,-23.71"
         style="fill:#7844a6;fill-opacity:1;fill-rule:nonzero;stroke:none"
         id="path1604"
         inkscape:connector-curvature="0" /><path
         d="m 2632.9348,1266.1363 v 0 c -12.74,0 -23.06,10.32 -23.06,23.05 v 337.92 h 46.12 v -337.92 c 0,-12.73 -10.33,-23.05 -23.06,-23.05"
         style="fill:#6f41a4;fill-opacity:1;fill-rule:nonzero;stroke:none"
         id="path1606"
         inkscape:connector-curvature="0" /><path
         d="m 2964.3948,1450.0363 v 13.23 l 18.69,2.7 20.93,15.67 c 3.39,2.52 9.87,2.77 13.79,0.5 l 15.44,-8.91 15.3,2.21 v -13.4 l -0.05,-0.01 c -0.08,-1.53 -1.24,-3.02 -3.52,-4.04 l -48.74,-21.72 c -3.86,-1.72 -9.33,-1.51 -12.77,0.48 l -16.23,9.37 c -1.87,1.08 -2.75,2.5 -2.76,3.93 l -0.08,-0.01"
         style="fill:#8e54b0;fill-opacity:1;fill-rule:nonzero;stroke:none"
         id="path1608"
         inkscape:connector-curvature="0" /><path
         d="m 2966.4148,1466.8263 37.6,28.14 c 3.39,2.53 9.87,2.78 13.79,0.51 l 28.06,-16.2 c 3.91,-2.26 3.5,-6 -0.89,-7.96 l -48.74,-21.71 c -3.86,-1.72 -9.33,-1.52 -12.77,0.47 l -16.23,9.38 c -3.45,1.99 -3.8,5.14 -0.82,7.37"
         style="fill:#6f41a4;fill-opacity:1;fill-rule:nonzero;stroke:none"
         id="path1610"
         inkscape:connector-curvature="0" /><path
         d="m 2902.9648,1402.9863 c 5.38,0 10.76,1.24 15.06,3.71 l 58.43,33.75 c 3.23,1.87 4.33,5.99 2.46,9.22 -1.86,3.22 -5.97,4.34 -9.21,2.46 l -58.43,-33.74 c -4.34,-2.5 -12.27,-2.5 -16.62,0 l -97.12,56.26 c -3.2,1.88 -7.35,0.76 -9.21,-2.47 -1.87,-3.22 -0.76,-7.35 2.47,-9.21 l 97.12,-56.26 c 4.29,-2.48 9.67,-3.72 15.05,-3.72"
         style="fill:#8e54b0;fill-opacity:1;fill-rule:nonzero;stroke:none"
         id="path1612"
         inkscape:connector-curvature="0" /><g
         id="g1614"
         transform="translate(-996.86523,56.426334)"><g
           id="g1616"
           clip-path="url(#clipPath1620)"><path
             d="m 3337.95,1470.19 93.83,54.55 -52.57,23.74 -44.98,-31.9 3.72,-46.39"
             style="fill:url(#radialGradient1628);fill-opacity:1;fill-rule:nonzero;stroke:none"
             id="path1630"
             inkscape:connector-curvature="0" /></g></g><path
         d="m 2943.6548,1607.5863 c -5.18,2.72 -10.47,5.93 -15.78,9.83 l -199.95,146.54 c -36.1,26.45 -73.28,33.27 -102.01,18.7 l -2.13,-1.31 -0.21,0.06 -276.17,-160.21 24.83,-8.27 96.7,-43.85 131.58,-93.34 103.82,-55.1 4.72,-1 c 24.21,20.39 51.32,37.88 66.18,67.62 25.72,44.99 97.3,57.87 139.39,94.35 4.25,-2.71 8.49,-5.23 12.73,-7.42 8.69,8.54 11.04,20.7 16.3,33.4"
         style="fill:#6f41a4;fill-opacity:1;fill-rule:nonzero;stroke:none"
         id="path1632"
         inkscape:connector-curvature="0" /><path
         d="m 3031.3748,1673.6663 c -4.29,0 -8.19,-1.52 -11.33,-3.95 l -0.04,0.05 -270.26,-156.43 9.89,-40.41 10.12,4.84 c -15.46,-24.14 -39.19,-40.02 -60.7,-58.13 l 30.55,-6.47 264.67,154 c 1.22,0.53 2.47,0.98 3.66,1.58 3.62,1.84 6.99,4.05 10.19,6.49 l 0.46,0.26 -0.16,-0.01 c 20.14,15.55 31.52,42.62 31.52,76.43 v 3.17 c 0,10.26 -8.32,18.58 -18.57,18.58"
         style="fill:#623da1;fill-opacity:1;fill-rule:nonzero;stroke:none"
         id="path1634"
         inkscape:connector-curvature="0" /><path
         d="m 2661.2948,1790.1163 c 16.86,-0.6 34.95,-6.4 53.05,-17.17 -18.1,10.77 -36.19,16.57 -53.05,17.17"
         style="fill:#ececec;fill-opacity:1;fill-rule:nonzero;stroke:none"
         id="path1636"
         inkscape:connector-curvature="0" /><path
         d="m 2784.3548,1500.7463 v 3.17 c 0,10.25 -8.31,18.57 -18.56,18.57 -10.26,0 -18.57,-8.32 -18.57,-18.57 v -3.17 c 0,-24.83 -7.9,-43.07 -21.66,-50.04 -15.56,-7.87 -39.21,-2.08 -63.27,15.53 l -199.96,146.54 c -30.76,22.55 -62.28,30.68 -88.72,23.62 l 165.15,95.81 -191.36,-111.01 24.83,-8.27 96.7,-43.85 131.58,-93.33 103.82,-55.11 4.72,-1 c 24.21,20.39 51.32,37.88 66.18,67.62 2.56,4.48 5.69,8.56 9.08,12.46 l 0.04,1.03"
         style="fill:#8e54b0;fill-opacity:1;fill-rule:nonzero;stroke:none"
         id="path1638"
         inkscape:connector-curvature="0" /><path
         d="m 2704.2548,1404.0663 c -21.89,-0.01 -45.98,8.9 -69.61,26.22 l -199.96,146.53 c -24.05,17.61 -47.68,23.42 -63.27,15.54 -13.75,-6.97 -21.66,-25.22 -21.66,-50.04 0,-10.26 -8.31,-18.58 -18.56,-18.58 -10.26,0 -18.57,8.32 -18.57,18.58 0,39.32 15.31,69.63 42.01,83.17 28.72,14.54 65.91,7.74 102,-18.72 l 199.96,-146.53 c 24.05,-17.62 47.71,-23.41 63.26,-15.54 13.76,6.97 21.66,25.22 21.66,50.04 v 3.17 c 0,10.26 8.31,18.58 18.58,18.58 10.25,0 18.56,-8.32 18.56,-18.58 v -3.17 c 0,-39.32 -15.31,-69.63 -42.01,-83.17 -9.92,-5.02 -20.85,-7.5 -32.39,-7.5"
         style="fill:#7844a6;fill-opacity:1;fill-rule:nonzero;stroke:none"
         id="path1640"
         inkscape:connector-curvature="0" /><path
         d="m 2547.0948,1076.4663 c 0,0 -37.66,18.99 -60.78,-9.29 -23.14,-28.281 -56.19,-95.03897 -57.22,-140.14097 -1.02,-45.117 35.69,-42.07 57.53,-31.398 21.83,10.68 85.6,103.18 89.45,121.30897 3.87,18.121 -4.55,42.62 -10.68,47.42 -6.13,4.79 -18.3,12.1 -18.3,12.1"
         style="fill:#263c7a;fill-opacity:1;fill-rule:nonzero;stroke:none"
         id="path1642"
         inkscape:connector-curvature="0" /><path
         d="m 2555.3148,1085.5363 1.74,-39.008 c 0.37,-8.301 -3.8,-16.204 -11.03,-20.313 -6.57,-3.73 -16.13,-6.59 -29.04,-4.508 -28.37,4.559 -30.91,12.668 -32.93,51.669 -2.03,39.02 71.26,12.16 71.26,12.16"
         style="fill:#e59c13;fill-opacity:1;fill-rule:nonzero;stroke:none"
         id="path1644"
         inkscape:connector-curvature="0" /><path
         d="m 2409.2448,1151.4863 c 0,0 -37.66,18.99 -60.79,-9.29 -23.13,-28.28 -56.2,-95.04 -57.22,-140.149 -1.02,-45.10097 35.7,-42.06997 57.53,-31.37897 21.83,10.668 85.59,103.16797 89.46,121.29797 3.86,18.12 -4.55,42.63 -10.69,47.43 -6.13,4.79 -18.29,12.09 -18.29,12.09"
         style="fill:#263c7a;fill-opacity:1;fill-rule:nonzero;stroke:none"
         id="path1646"
         inkscape:connector-curvature="0" /><path
         d="m 2417.4548,1160.5563 1.75,-39.01 c 0.37,-8.29 -3.8,-16.2 -11.03,-20.3 -6.58,-3.74 -16.13,-6.59 -29.05,-4.52 -28.37,4.56 -30.9,12.67 -32.93,51.67 -2.02,39.02 71.26,12.16 71.26,12.16"
         style="fill:#e59c13;fill-opacity:1;fill-rule:nonzero;stroke:none"
         id="path1648"
         inkscape:connector-curvature="0" /><path
         d="m 2753.4948,1876.8963 c -11.14,181.36 -196.4,-26.68 -196.4,-26.68 l -126.8,-124.29 -114.19,-125.43 c -22.29,-24.5 -32.66,-57.58 -28.36,-90.42 l 46.19,-351.71 c 2.29,-17.37 17.15,-30.17 34.66,-30.04 4.95,0.04 10.63,0.49 17.11,1.5 41.21,6.41 38.17,45.59 38.17,45.59 l -8.44,328.96 239.78,144.55 c 0,0 109.44,46.6 98.28,227.97"
         style="fill:#fad644;fill-opacity:1;fill-rule:nonzero;stroke:none"
         id="path1650"
         inkscape:connector-curvature="0" /><path
         d="m 2891.3648,1807.7963 c -11.15,181.36 -196.42,-26.68 -196.42,-26.68 l -126.8,-124.29 -114.18,-125.43 c -22.3,-24.5 -32.67,-57.58 -28.36,-90.42 l 46.2,-351.71 c 2.27,-17.37 17.13,-30.17 34.65,-30.04 4.95,0.04 10.62,0.49 17.11,1.5 41.2,6.41 38.17,45.59 38.17,45.59 l -8.45,328.96 239.8,144.55 c 0,0 109.42,46.6 98.28,227.97"
         style="fill:#fad644;fill-opacity:1;fill-rule:nonzero;stroke:none"
         id="path1652"
         inkscape:connector-curvature="0" /><path
         d="m 2781.7548,2389.9663 c 140.46,-58.23 137.64,-141.25 137.64,-141.25 0,0 -27.51,-304.39 -18.12,-507.67 3.92,-84.98 -451.51,-91.47 -383.59,135.25 80.09,267.32 50.07,483.73 87.56,516.37 37.48,32.64 140.18,12.37 176.51,-2.7"
         style="fill:#7844a6;fill-opacity:1;fill-rule:nonzero;stroke:none"
         id="path1654"
         inkscape:connector-curvature="0" /><path
         d="m 2826.9448,2316.3563 c -7.34,-28.52 -44.7,-43.55 -83.45,-33.57 -38.75,9.98 -64.2,41.19 -56.86,69.71 7.35,28.51 44.72,43.54 83.46,33.56 38.75,-9.98 64.2,-41.19 56.85,-69.7"
         style="fill:#fab6a9;fill-opacity:1;fill-rule:nonzero;stroke:none"
         id="path1656"
         inkscape:connector-curvature="0" /><path
         d="m 2746.0448,2382.4463 c -26.07,0 -47.88,-12.13 -52.91,-31.63 -6.4,-24.88 16.94,-52.49 52.03,-61.52 17.35,-4.48 34.89,-3.74 49.32,2.07 13.73,5.52 22.95,14.99 25.96,26.66 6.4,24.89 -16.94,52.49 -52.03,61.53 -7.6,1.96 -15.15,2.89 -22.37,2.89 z m 21.42,-109.47 c -8.42,0 -17.07,1.1 -25.65,3.31 -42.27,10.89 -69.94,45.83 -61.68,77.88 8.26,32.06 49.38,49.28 91.64,38.4 42.26,-10.89 69.93,-45.83 61.68,-77.89 -4.11,-15.91 -16.16,-28.62 -33.95,-35.77 -9.8,-3.94 -20.71,-5.93 -32.04,-5.93"
         style="fill:#ffffff;fill-opacity:1;fill-rule:nonzero;stroke:none"
         id="path1658"
         inkscape:connector-curvature="0" /><path
         d="m 2725.4448,2396.3063 c 0,0 1.21,-5.63 -1.22,-50.14 -0.76,-13.99 48.23,-27.06 60.9,-14.4 12.66,12.66 7.59,25.84 10.63,73.46 3.04,47.62 -70.31,-8.92 -70.31,-8.92"
         style="fill:#fab6a9;fill-opacity:1;fill-rule:nonzero;stroke:none"
         id="path1660"
         inkscape:connector-curvature="0" /><path
         d="m 2795.7548,2405.2263 c 0,0 -12.07,-44.16 -71.54,-61.09 l 0.91,40.13 70.63,20.96"
         style="fill:#eb8b8a;fill-opacity:1;fill-rule:nonzero;stroke:none"
         id="path1662"
         inkscape:connector-curvature="0" /><path
         d="m 2833.4348,2517.4063 c 14.95,-57.81 -19.8,-116.79 -77.61,-131.74 -57.81,-14.94 -116.79,19.8 -131.74,77.62 -14.94,57.8 19.81,116.78 77.61,131.73 57.81,14.95 116.8,-19.8 131.74,-77.61"
         style="fill:#fab6a9;fill-opacity:1;fill-rule:nonzero;stroke:none"
         id="path1664"
         inkscape:connector-curvature="0" /><path
         d="m 2753.5848,2486.3763 c 0,0 -59.52,-25.5 -100.74,-25.79 -41.21,-0.3 -32.13,34.22 -32.13,34.22 l 122.36,17.68 10.51,-26.11"
         style="fill:#eb8b8a;fill-opacity:1;fill-rule:nonzero;stroke:none"
         id="path1666"
         inkscape:connector-curvature="0" /><path
         d="m 2640.5648,2479.6563 c 0,0 51.85,22.01 97.34,12.83 10.69,-2.15 20.6,-7.87 27.49,-16.33 2.25,-2.77 5.1,-5.29 8.32,-6.02 8.07,-1.83 21.27,31.64 36.95,32.4 15.68,0.76 26.15,-10.33 13.28,-30.91 -12.85,-20.59 -8.5,-43.62 -2.59,-46.92 5.91,-3.31 68.66,44.74 13.32,154.38 -55.34,109.63 -195.93,50.58 -217.8,28.36 0,0 -23.03,-20.07 -41.76,-2.21 0,0 -21,-157.29 65.45,-125.58"
         style="fill:#ee1696;fill-opacity:1;fill-rule:nonzero;stroke:none"
         id="path1668"
         inkscape:connector-curvature="0" /><path
         d="m 2840.6048,2026.3263 v -82.24 c 0,-9.43 -3.97,-18.42 -10.93,-24.77 l -168.97,-154.04 19.2,-29.36 223.17,149.47 c 10.41,7.55 17.12,19.17 18.47,31.98 l 15.05,155.79 -95.99,-46.83"
         style="fill:#fab6a9;fill-opacity:1;fill-rule:nonzero;stroke:none"
         id="path1670"
         inkscape:connector-curvature="0" /><path
         d="m 2907.5048,2289.8363 c 0,0 51.26,-77.09 70.36,-280 0,0 -87.57,-28.31 -137.26,-12.24 -49.69,16.08 66.9,292.24 66.9,292.24"
         style="fill:#7844a6;fill-opacity:1;fill-rule:nonzero;stroke:none"
         id="path1672"
         inkscape:connector-curvature="0" /><path
         d="m 2831.2448,2192.3663 c 0,0 -20.07,-107.4 -21.2,-157.87 -0.31,-13.87 8.15,-26.4 21.2,-31.12 v 188.99"
         style="fill:#5a3c9f;fill-opacity:1;fill-rule:nonzero;stroke:none"
         id="path1674"
         inkscape:connector-curvature="0" /><path
         d="m 2787.4048,1658.3263 -37.34,4.94 -241.07,139.18 c -7.72,4.45 -21.22,3.89 -30.14,-1.25 l -170.82,-98.6 -22.58,2.99 v -22.48 h 0.02 c -0.15,-2.97 1.54,-5.81 5.18,-7.92 l 273.2,-157.72 c 7.73,-4.47 21.23,-3.91 30.15,1.25 l 186.03,107.36 c 5.02,2.9 7.52,6.63 7.37,10.14 v 22.11"
         style="fill:#263c7a;fill-opacity:1;fill-rule:nonzero;stroke:none"
         id="path1676"
         inkscape:connector-curvature="0" /><path
         d="m 2606.2848,1746.2663 -17.13,9.9 h -188.29 l -92.83,-53.57 -22.58,2.99 v -22.48 h 0.02 c -0.15,-2.97 1.54,-5.81 5.18,-7.92 l 273.2,-157.72 c 4.09,-2.37 9.78,-3.31 15.56,-2.92 l 26.87,231.72"
         style="fill:#4067b1;fill-opacity:1;fill-rule:nonzero;stroke:none"
         id="path1678"
         inkscape:connector-curvature="0" /><path
         d="m 2295.4748,1704.2563 -10.02,1.33 v -22.48 h 0.02 c -0.15,-2.97 1.54,-5.81 5.18,-7.92 l 4.82,-2.78 v 31.85"
         style="fill:#5f92d3;fill-opacity:1;fill-rule:nonzero;stroke:none"
         id="path1680"
         inkscape:connector-curvature="0" /><path
         d="m 2566.6048,1516.1863 c 7.32,-2.79 17.8,-2.18 25.63,1.59 v 38.24 h -25.63 v -39.83"
         style="fill:#2e4b8d;fill-opacity:1;fill-rule:nonzero;stroke:none"
         id="path1682"
         inkscape:connector-curvature="0" /><path
         d="m 2563.8548,1539.9263 -273.2,157.72 c -7.72,4.46 -6.75,12.26 2.17,17.41 l 186.03,107.37 c 8.92,5.15 22.42,5.71 30.14,1.25 l 273.21,-157.73 c 7.72,-4.46 6.75,-12.25 -2.17,-17.41 l -186.03,-107.36 c -8.92,-5.16 -22.42,-5.72 -30.15,-1.25"
         style="fill:#ffffff;fill-opacity:1;fill-rule:nonzero;stroke:none"
         id="path1684"
         inkscape:connector-curvature="0" /><path
         d="m 2559.2348,1563.8263 -227.16,131.15 c -6.43,3.72 -5.63,10.19 1.8,14.48 l 99.68,56.05 c 7.43,4.29 18.65,4.76 25.07,1.05 l 227.17,-131.16 c 6.43,-3.71 5.62,-10.19 -1.81,-14.47 l -99.68,-56.06 c -7.42,-4.28 -18.65,-4.75 -25.07,-1.04"
         style="fill:#d9effb;fill-opacity:1;fill-rule:nonzero;stroke:none"
         id="path1686"
         inkscape:connector-curvature="0" /><path
         d="m 2489.4148,1827.6063 -2.83,-18.86 c -2.41,-16.05 -1.99,-32.41 1.23,-48.33 l 3.37,-16.61 c 1.9,-9.36 9.31,-16.64 18.71,-18.35 7.35,-1.33 14.29,3.83 15.12,11.24 l 4.5,40.31 c 0,0 10.31,-13.52 15.29,-13.52 4.98,0 -5.56,40.36 -16.82,63.2 -11.26,22.85 -38.57,0.92 -38.57,0.92"
         style="fill:#fab6a9;fill-opacity:1;fill-rule:nonzero;stroke:none"
         id="path1688"
         inkscape:connector-curvature="0" /><path
         d="m 2582.0148,2127.1963 -29.31,-58.02 c -6.93,-13.72 -11.01,-28.7 -12,-44.04 l -12.72,-198.45 -38.57,0.92 -17.51,222.86 c -0.53,6.88 -0.2,13.8 1,20.6 l 20,113.01 89.11,-56.88"
         style="fill:#fab6a9;fill-opacity:1;fill-rule:nonzero;stroke:none"
         id="path1690"
         inkscape:connector-curvature="0" /><path
         d="m 2554.6048,1524.7763 -22.91,29.9 -240.89,139.47 c -7.72,4.48 -13.97,16.45 -13.97,26.75 l 0.21,197.23 -13.85,18.09 13.02,7.52 0.01,-0.02 c 2.49,1.62 5.8,1.58 9.45,-0.53 l 273,-158.07 c 7.73,-4.47 13.98,-16.44 13.97,-26.75 l -0.24,-214.79 c -0.01,-5.79 -1.99,-9.83 -5.11,-11.45 l -12.69,-7.35"
         style="fill:#263c7a;fill-opacity:1;fill-rule:nonzero;stroke:none"
         id="path1692"
         inkscape:connector-curvature="0" /><path
         d="m 2388.0148,1637.8663 -17.11,9.91 -93.96,163.18 0.1,107.17 -13.85,18.09 13.02,7.52 0.01,-0.02 c 2.49,1.62 5.8,1.58 9.45,-0.53 l 273,-158.07 c 4.08,-2.36 7.74,-6.82 10.29,-12.03 l -180.95,-135.22"
         style="fill:#4067b1;fill-opacity:1;fill-rule:nonzero;stroke:none"
         id="path1694"
         inkscape:connector-curvature="0" /><path
         d="m 2269.3448,1928.1863 -6.15,8.03 13.02,7.52 0.01,-0.02 c 2.49,1.62 5.8,1.58 9.45,-0.53 l 4.81,-2.79 -21.14,-12.21"
         style="fill:#5f92d3;fill-opacity:1;fill-rule:nonzero;stroke:none"
         id="path1696"
         inkscape:connector-curvature="0" /><path
         d="m 2561.1548,1783.3663 c 6.07,-4.96 10.76,-14.33 11.41,-22.98 l -26.68,-15.42 -12.79,22.21 28.06,16.19"
         style="fill:#2e4b8d;fill-opacity:1;fill-rule:nonzero;stroke:none"
         id="path1698"
         inkscape:connector-curvature="0" /><path
         d="m 2545.6748,1777.5863 -273.01,158.07 c -7.72,4.47 -13.99,-0.27 -14,-10.57 l -0.23,-214.78 c -0.01,-10.31 6.24,-22.29 13.96,-26.76 l 273,-158.06 c 7.72,-4.47 13.99,0.26 14.01,10.56 l 0.23,214.79 c 0.02,10.31 -6.23,22.28 -13.96,26.75"
         style="fill:#ffffff;fill-opacity:1;fill-rule:nonzero;stroke:none"
         id="path1700"
         inkscape:connector-curvature="0" /><path
         d="m 2679.9048,1735.9163 -4.37,-9.06 c -5.04,-10.44 -12.95,-19.22 -22.83,-25.29 l -27.11,-16.72 c -8.43,-5.2 -19.12,-5.63 -27.68,-0.64 l -0.93,0.56 c -8.61,5.39 -9.39,17.77 -2.3,25.06 l 28.34,29.13 c 0,0 -15.92,-12.2 -20.38,-7.29 -3.28,3.61 15.44,21.18 29.8,21.75 14.37,0.58 28.26,11.86 28.26,11.86 l 19.2,-29.36"
         style="fill:#fab6a9;fill-opacity:1;fill-rule:nonzero;stroke:none"
         id="path1702"
         inkscape:connector-curvature="0" /><path
         d="m 2608.0548,2393.0863 c 0,0 -103.88,-113.03 -145.8,-216.73 0,0 35.53,-64 122.49,-89.11 86.95,-25.11 23.31,305.84 23.31,305.84"
         style="fill:#7844a6;fill-opacity:1;fill-rule:nonzero;stroke:none"
         id="path1704"
         inkscape:connector-curvature="0" /><path
         d="m 2565.1748,2093.9463 16.84,162.66 -39.67,-152.39 c 7.07,-3.69 14.72,-7.12 22.83,-10.27"
         style="fill:#5a3c9f;fill-opacity:1;fill-rule:nonzero;stroke:none"
         id="path1706"
         inkscape:connector-curvature="0" /><path
         d="m 2685.8648,2415.8963 -27.92,7.67 c 0,0 13.33,-20.96 32.78,-26.31 19.46,-5.34 22.49,11.13 22.49,11.13 l -27.35,7.51"
         style="fill:#ffffff;fill-opacity:1;fill-rule:nonzero;stroke:none"
         id="path1708"
         inkscape:connector-curvature="0" /></g></g></svg>