<?xml version="1.0" encoding="UTF-8" standalone="no"?>
<!-- Created with Inkscape (http://www.inkscape.org/) -->

<svg
   xmlns:dc="http://purl.org/dc/elements/1.1/"
   xmlns:cc="http://creativecommons.org/ns#"
   xmlns:rdf="http://www.w3.org/1999/02/22-rdf-syntax-ns#"
   xmlns:svg="http://www.w3.org/2000/svg"
   xmlns="http://www.w3.org/2000/svg"
   xmlns:sodipodi="http://sodipodi.sourceforge.net/DTD/sodipodi-0.dtd"
   xmlns:inkscape="http://www.inkscape.org/namespaces/inkscape"
   version="1.1"
   id="svg100110"
   xml:space="preserve"
   width="800"
   height="600"
   viewBox="0 0 800 600"
   sodipodi:docname="teamwork.svg"
   inkscape:version="0.92.3 (2405546, 2018-03-11)"><metadata
     id="metadata100116"><rdf:RDF><cc:Work
         rdf:about=""><dc:format>image/svg+xml</dc:format><dc:type
           rdf:resource="http://purl.org/dc/dcmitype/StillImage" /><dc:title></dc:title></cc:Work></rdf:RDF></metadata><defs
     id="defs100114"><clipPath
       clipPathUnits="userSpaceOnUse"
       id="clipPath100168"><path
         d="m 818.141,3138.61 h -36.856 v 97.15 h 9.199 v -90.29 h 27.657 v -6.86"
         id="path100166"
         inkscape:connector-curvature="0" /></clipPath><clipPath
       clipPathUnits="userSpaceOnUse"
       id="clipPath100532"><path
         d="m 2334.32,725.609 -172.31,99.481 172.3,99.48 172.32,-99.48 -172.31,-99.481"
         id="path100530"
         inkscape:connector-curvature="0" /></clipPath></defs><sodipodi:namedview
     pagecolor="#ffffff"
     bordercolor="#666666"
     borderopacity="1"
     objecttolerance="10"
     gridtolerance="10"
     guidetolerance="10"
     inkscape:pageopacity="0"
     inkscape:pageshadow="2"
     inkscape:window-width="1366"
     inkscape:window-height="705"
     id="namedview100112"
     showgrid="false"
     inkscape:zoom="1.1125147"
     inkscape:cx="239.40057"
     inkscape:cy="235.32027"
     inkscape:window-x="0"
     inkscape:window-y="30"
     inkscape:window-maximized="1"
     inkscape:current-layer="g100120" /><g
     id="g100118"
     inkscape:groupmode="layer"
     inkscape:label="ink_ext_XXXXXX"
     transform="matrix(1.3333333,0,0,-1.3333333,0,600)"><g
       id="g100120"
       transform="scale(0.1)"><path
         d="m 3782.81,1544.74 -212.08,122.44 c -3.85,-4.73 -9.06,-9.18 -15.83,-13.1 -15.64,-9.02 -36.14,-13.54 -56.64,-13.54 -20.5,0 -40.99,4.52 -56.63,13.54 -31.28,18.07 -31.28,47.35 0,65.4 6.76,3.92 14.48,6.93 22.67,9.14 l -212.08,122.45 460.52,265.87 c 19.34,11.18 44.7,16.76 70.05,16.76 25.36,0 50.71,-5.58 70.06,-16.76 l 460.53,-265.87 -216.44,-124.97 c -3.48,7.69 -10.35,14.97 -20.78,20.99 -15.65,9.04 -36.15,13.55 -56.65,13.55 -20.5,0 -41,-4.51 -56.63,-13.54 -31.28,-18.07 -31.28,-47.34 0,-65.4 10.44,-6.02 23.05,-10 36.37,-12 l -216.44,-124.96"
         style="fill:#899abf;fill-opacity:1;fill-rule:nonzero;stroke:none"
         id="path100310"
         inkscape:connector-curvature="0" /><path
         d="m 4569.4,1042.32 -222.82,128.64 c 18.77,0.69 37.2,5.13 51.54,13.41 31.28,18.05 31.28,47.33 0,65.4 -15.64,9.03 -36.14,13.54 -56.64,13.54 -20.49,0 -40.99,-4.51 -56.63,-13.54 -14.35,-8.28 -22.03,-18.93 -23.22,-29.77 l -222.83,128.65 216.45,124.97 c -13.32,2 -25.93,5.97 -36.37,12 -31.28,18.05 -31.28,47.33 0,65.39 15.64,9.03 36.14,13.55 56.64,13.55 20.5,0 40.99,-4.52 56.63,-13.55 10.44,-6.03 17.31,-13.3 20.79,-21 l 216.44,124.96 460.53,-265.88 c 38.69,-22.34 38.69,-58.56 0,-80.9 L 4569.4,1042.32"
         style="fill:#899abf;fill-opacity:1;fill-rule:nonzero;stroke:none"
         id="path100312"
         inkscape:connector-curvature="0" /><path
         d="m 2991.26,1034.54 -460.53,265.89 c -38.69,22.34 -38.69,58.56 0,80.9 l 460.51,265.88 212.08,-122.45 c -8.2,-2.22 -15.91,-5.23 -22.68,-9.13 -31.28,-18.07 -31.28,-47.35 0,-65.4 15.64,-9.04 36.14,-13.55 56.64,-13.55 20.5,0 41,4.51 56.64,13.55 6.77,3.9 11.98,8.36 15.82,13.09 l 212.09,-122.45 -216.13,-124.79 c 13.01,-2.04 25.32,-5.97 35.54,-11.87 31.28,-18.07 31.28,-47.34 0,-65.4 -15.63,-9.03 -36.13,-13.55 -56.63,-13.55 -20.5,0 -41,4.52 -56.65,13.55 -10.21,5.9 -17.03,13.01 -20.57,20.52 l -216.13,-124.79"
         style="fill:#899abf;fill-opacity:1;fill-rule:nonzero;stroke:none"
         id="path100314"
         inkscape:connector-curvature="0" /><path
         d="m 3782.81,612.02 c -23.98,0 -47.97,5.281 -66.26,15.839 l -435.58,251.493 204.42,118.019 c 3.35,-7.109 9.8,-13.82 19.47,-19.41 14.79,-8.539 34.18,-12.813 53.56,-12.813 19.39,0 38.78,4.274 53.58,12.813 29.58,17.078 29.58,44.779 -0.01,61.859 -9.67,5.57 -21.31,9.3 -33.62,11.24 l 204.43,118.01 210.74,-121.67 c 1.12,10.25 8.4,20.32 21.96,28.15 14.79,8.54 34.18,12.81 53.57,12.81 19.39,0 38.78,-4.27 53.57,-12.81 29.58,-17.08 29.58,-44.78 0,-61.86 -13.56,-7.83 -31.01,-12.03 -48.76,-12.67 L 4284.63,879.34 3849.07,627.859 c -18.3,-10.558 -42.28,-15.839 -66.26,-15.839"
         style="fill:#899abf;fill-opacity:1;fill-rule:nonzero;stroke:none"
         id="path100316"
         inkscape:connector-curvature="0" /><path
         d="m 4281.55,2206.58 -413.9,238.97 c -46.86,27.06 -122.85,27.06 -169.72,0 l -434.15,-250.66 -123.63,50.5 v -121.87 l 201.14,-116.14 v -81.01 c -0.85,-14.94 8.51,-30.04 28.27,-41.45 37.89,-21.87 99.31,-21.87 137.2,0 8.21,4.74 14.51,10.13 19.17,15.86 l 256.88,-148.31 262.16,151.36 h 0.01 v 108.28 c 32.21,4.84 67.89,0.04 93.14,-14.53 12.64,-7.31 20.97,-16.12 25.17,-25.44 l 262.16,151.36 v 121.87 l -143.9,-38.79"
         style="fill:#d1078d;fill-opacity:1;fill-rule:nonzero;stroke:none"
         id="path100318"
         inkscape:connector-curvature="0" /><path
         d="m 4020.51,2016.39 -4.24,-5.77 2.38,-0.11 -235.84,-136.16 -256.88,148.31 c -4.66,-5.74 -10.96,-11.13 -19.17,-15.86 -37.89,-21.88 -99.31,-21.88 -137.2,0 -15.34,8.86 -24.35,19.94 -27.27,31.43 -4.31,-16.91 4.72,-34.74 27.27,-47.77 37.89,-21.87 99.31,-21.87 137.2,0 8.21,4.74 14.51,10.14 19.17,15.87 l 256.88,-148.31 262.17,151.36 v 16.32 l -24.47,-9.31"
         style="fill:#ffffff;fill-opacity:1;fill-rule:nonzero;stroke:none"
         id="path100320"
         inkscape:connector-curvature="0" /><path
         d="m 4044.98,2025.7 c -16.14,2.44 -31.42,7.24 -44.06,14.54 -37.89,21.87 -37.89,57.34 -0.01,79.21 37.89,21.88 99.32,21.88 137.21,0 12.64,-7.3 20.97,-16.12 25.17,-25.44 l 262.16,151.36 -557.8,322.05 c -46.86,27.06 -122.85,27.06 -169.72,0 l -557.78,-322.03 256.89,-148.31 c -9.94,-2.68 -19.28,-6.34 -27.48,-11.07 -37.89,-21.87 -37.89,-57.34 0,-79.21 37.89,-21.88 99.31,-21.88 137.2,0 8.21,4.73 14.51,10.12 19.17,15.86 l 256.88,-148.31 262.17,151.35"
         style="fill:#ee1696;fill-opacity:1;fill-rule:nonzero;stroke:none"
         id="path100322"
         inkscape:connector-curvature="0" /><path
         d="m 3397.04,2097.08 -256.89,148.31 v -16.34 l 239.42,-138.22 c 5.55,2.42 11.33,4.59 17.47,6.25"
         style="fill:#ffffff;fill-opacity:1;fill-rule:nonzero;stroke:none"
         id="path100324"
         inkscape:connector-curvature="0" /><path
         d="m 4163.29,2094.01 c -4.2,9.32 -12.53,18.15 -25.17,25.44 -37.89,21.88 -99.32,21.88 -137.21,0 -22.55,-13.01 -31.56,-30.85 -27.26,-47.77 2.92,11.5 11.93,22.59 27.26,31.44 37.89,21.87 99.32,21.87 137.21,0 12.64,-7.3 20.97,-16.12 25.17,-25.43 l 262.16,151.35 v 16.33 l -262.16,-151.36"
         style="fill:#ffffff;fill-opacity:1;fill-rule:nonzero;stroke:none"
         id="path100326"
         inkscape:connector-curvature="0" /><path
         d="m 5073.1,1714.56 -499.38,288.32 -262.17,-151.36 c -4.2,9.32 -12.53,18.14 -25.17,25.43 -13.25,7.65 -29.39,12.56 -46.38,14.87 -8.44,10.99 -36.69,44.72 -39.5,45.52 -3.3,0.95 -79.68,23.03 -79.68,23.03 v -122.35 c -0.3,-14.56 9.13,-29.17 28.36,-40.27 12.64,-7.3 27.92,-12.11 44.06,-14.54 l -131.91,-76.16 -130.26,46.68 v -121.87 l 269.88,-155.82 c 1.44,13.12 10.74,26.01 28.12,36.04 20.51,11.85 47.93,17.22 74.77,16.23 v -111.68 l 269.89,-155.82 557.79,322.04 c 23.95,13.83 35.58,32.05 35.05,50.18 l 0.05,-0.02 v 119.46 l -93.52,-37.91"
         style="fill:#4067b1;fill-opacity:1;fill-rule:nonzero;stroke:none"
         id="path100328"
         inkscape:connector-curvature="0" /><path
         d="m 4200.96,1692.66 v -216.57 c 1.46,13.1 10.75,25.97 28.11,35.99 37.89,21.88 99.31,21.88 137.2,0 8.14,-4.7 14.42,-10.05 19.06,-15.72 20.19,6.33 41.38,9.91 63,11.01 v 185.29 h -247.37"
         style="fill:#263c7a;fill-opacity:1;fill-rule:nonzero;stroke:none"
         id="path100330"
         inkscape:connector-curvature="0" /><path
         d="m 4573.72,2002.88 -1.94,-1.11 v -739.83 l 1.95,-1.13 557.79,322.04 c 23.95,13.83 35.58,32.05 35.05,50.18 l 0.05,-0.02 v 119.46 l -93.52,-37.91 -499.38,288.32"
         style="fill:#263c7a;fill-opacity:1;fill-rule:nonzero;stroke:none"
         id="path100332"
         inkscape:connector-curvature="0" /><path
         d="m 4303.84,1503.24 v 35.27 l 30.55,-17.63 z"
         style="fill:#4067b1;fill-opacity:1;fill-rule:nonzero;stroke:none"
         id="path100334"
         inkscape:connector-curvature="0" /><path
         d="m 5165.73,1745.55 c -3.05,-14.91 -14.39,-29.38 -34.21,-40.82 l -557.79,-322.04 -235.25,135.82 c -0.26,3.7 -1.35,11.16 -1.35,11.16 l -33.29,8.84 v -16.33 l 269.89,-155.82 557.79,322.03 c 27.03,15.62 38.38,36.82 34.21,57.16"
         style="fill:#ffffff;fill-opacity:1;fill-rule:nonzero;stroke:none"
         id="path100336"
         inkscape:connector-curvature="0" /><path
         d="m 5131.51,1802.71 -557.79,322.05 -262.17,-151.36 c -4.2,9.32 -12.53,18.13 -25.17,25.43 -37.89,21.87 -99.31,21.87 -137.21,0.01 -37.88,-21.88 -37.88,-57.34 0.01,-79.22 12.64,-7.29 27.92,-12.1 44.06,-14.53 l -262.17,-151.36 269.89,-155.82 c 1.44,13.13 10.74,26.02 28.12,36.05 37.89,21.87 99.31,21.87 137.19,0 37.9,-21.88 37.9,-57.34 0.01,-79.21 -17.37,-10.03 -39.7,-15.41 -62.44,-16.24 l 269.89,-155.82 557.79,322.04 c 46.86,27.06 46.85,70.93 -0.01,97.98"
         style="fill:#d9effb;fill-opacity:1;fill-rule:nonzero;stroke:none"
         id="path100338"
         inkscape:connector-curvature="0" /><path
         d="m 4149.18,1903.29 c 7.15,-4.14 15.21,-7.38 23.74,-9.93 l 20.32,11.73 c -16.14,2.43 -31.42,7.24 -44.06,14.53 -15.34,8.86 -24.35,19.94 -27.27,31.45 -4.31,-16.93 4.72,-34.76 27.27,-47.78"
         style="fill:#ffffff;fill-opacity:1;fill-rule:nonzero;stroke:none"
         id="path100340"
         inkscape:connector-curvature="0" /><path
         d="m 4393.55,1586.18 c 4.31,16.93 -4.72,34.76 -27.28,47.78 -37.88,21.87 -99.3,21.87 -137.19,0 -17.38,-10.03 -26.68,-22.92 -28.12,-36.05 l -269.89,155.82 v -16.34 l 269.89,-155.82 c 1.44,13.14 10.74,26.03 28.12,36.06 37.89,21.87 99.31,21.87 137.19,-0.01 15.35,-8.85 24.36,-19.93 27.28,-31.44"
         style="fill:#ffffff;fill-opacity:1;fill-rule:nonzero;stroke:none"
         id="path100342"
         inkscape:connector-curvature="0" /><path
         d="m 3632.04,1631.86 v 121.87 l -128.09,-47.93 -128.8,74.37 c -4.65,-5.74 -10.97,-11.14 -19.16,-15.87 -37.89,-21.88 -99.32,-21.88 -137.21,0 -37.01,21.38 -37.76,55.68 -2.45,77.65 l 29.92,-16.74 v 151.25 h -92.69 l -9.19,-63.05 -154.99,89.48 -493.41,-284.87 -99.53,35.71 v -121.87 c 0.01,-17.73 11.72,-35.46 35.16,-48.99 l 557.8,-322.05 261.78,151.14 c 4.29,-9.1 12.55,-17.7 24.93,-24.85 37.89,-21.87 99.31,-21.87 137.2,0 19.66,11.36 29.03,26.37 28.28,41.25 v 93.54 l 190.45,109.96"
         style="fill:#263c7a;fill-opacity:1;fill-rule:nonzero;stroke:none"
         id="path100344"
         inkscape:connector-curvature="0" /><path
         d="m 2989.38,2002.89 -493.41,-284.87 -99.53,35.71 v -121.87 c 0.01,-17.73 11.72,-35.46 35.16,-48.99 l 557.8,-322.05 v 742.06 l -0.02,0.01"
         style="fill:#4067b1;fill-opacity:1;fill-rule:nonzero;stroke:none"
         id="path100346"
         inkscape:connector-curvature="0" /><path
         d="m 3224.16,1975.89 -3.2,-8.24 0.76,-0.74 c -0.98,-0.5 -2,-0.97 -2.94,-1.52 -22.55,-13.03 -31.57,-30.85 -27.27,-47.77 2.93,11.5 11.94,22.59 27.27,31.43 8.21,4.74 17.55,8.39 27.47,11.07 v 16.34 l -22.09,-0.57"
         style="fill:#ffffff;fill-opacity:1;fill-rule:nonzero;stroke:none"
         id="path100348"
         inkscape:connector-curvature="0" /><path
         d="m 3413.31,1588.19 c -12.39,7.15 -27.29,11.92 -43.06,14.4 l 261.79,151.14 -256.89,148.31 c -4.65,-5.73 -10.96,-11.13 -19.16,-15.87 -37.89,-21.86 -99.32,-21.86 -137.21,0.01 -37.89,21.87 -37.89,57.34 0,79.21 8.21,4.74 17.55,8.38 27.47,11.07 l -256.87,148.31 -557.78,-322.03 c -46.87,-27.06 -46.87,-70.93 0,-97.99 l 557.8,-322.05 261.78,151.14 c 4.29,-9.1 12.55,-17.71 24.93,-24.85 37.89,-21.88 99.31,-21.88 137.2,0 37.89,21.87 37.89,57.33 0,79.2"
         style="fill:#5f92d3;fill-opacity:1;fill-rule:nonzero;stroke:none"
         id="path100350"
         inkscape:connector-curvature="0" /><path
         d="m 3413.31,1508.99 c -37.89,-21.88 -99.31,-21.88 -137.2,0 -12.38,7.14 -20.64,15.75 -24.93,24.85 l -261.78,-151.13 -557.8,322.04 c -19.83,11.44 -31.18,25.91 -34.22,40.83 -4.17,-20.35 7.18,-41.56 34.22,-57.16 l 557.8,-322.05 261.78,151.14 c 4.29,-9.1 12.55,-17.71 24.93,-24.86 37.89,-21.88 99.31,-21.88 137.2,0 22.55,13.03 31.57,30.86 27.27,47.77 -2.93,-11.5 -11.94,-22.59 -27.27,-31.43"
         style="fill:#ffffff;fill-opacity:1;fill-rule:nonzero;stroke:none"
         id="path100352"
         inkscape:connector-curvature="0" /><path
         d="m 3370.25,1602.59 c 6.95,-1.09 13.68,-2.71 20.16,-4.7 l 241.63,139.5 v 16.34 l -261.79,-151.14"
         style="fill:#ffffff;fill-opacity:1;fill-rule:nonzero;stroke:none"
         id="path100354"
         inkscape:connector-curvature="0" /><path
         d="m 4300.12,1210.05 -144.54,83.45 c 22.74,0.83 45.07,6.21 62.44,16.24 15.85,9.15 24.97,20.68 27.56,32.6 l 0.83,-0.55 v 7.3 0.5 122.18 l -122.24,-47.53 28.12,-18.97 c -25.78,0.44 -51.8,-4.96 -71.47,-16.32 -17.38,-10.03 -26.68,-22.92 -28.12,-36.05 l -269.89,155.82 -158.59,-91.56 -16.45,54.99 -86.74,7.3 v -135.46 l 26.5,6.72 c 5.84,-2.13 11.45,-4.58 16.55,-7.53 37.89,-21.86 37.89,-57.33 0,-79.2 -37.88,-21.88 -99.31,-21.88 -137.2,0 -12.38,7.14 -20.63,15.75 -24.92,24.85 l -144.9,-83.65 -116.89,54.39 V 1137.7 l 557.8,-322.052 c 46.87,-27.058 122.85,-27.058 169.71,0 l 557.79,322.042 v 121.87 l -125.35,-49.51"
         style="fill:#d1078d;fill-opacity:1;fill-rule:nonzero;stroke:none"
         id="path100356"
         inkscape:connector-curvature="0" /><path
         d="m 3564.08,1465.07 c -5.94,3.43 -12.58,6.14 -19.51,8.47 l -2.37,4.62 -21.17,1.29 v -16.32 c 15.76,-2.48 30.67,-7.25 43.05,-14.4 15.33,-8.86 24.35,-19.94 27.27,-31.44 4.3,16.92 -4.71,34.75 -27.27,47.78"
         style="fill:#ffffff;fill-opacity:1;fill-rule:nonzero;stroke:none"
         id="path100358"
         inkscape:connector-curvature="0" /><path
         d="m 4155.58,1415.37 c 22.74,0.83 45.07,6.21 62.44,16.24 37.88,21.88 37.88,57.34 -0.01,79.21 -37.88,21.88 -99.3,21.88 -137.19,0.01 -17.38,-10.04 -26.68,-22.93 -28.12,-36.05 l -269.89,155.82 -261.78,-151.15 c 15.76,-2.47 30.67,-7.24 43.05,-14.38 37.89,-21.88 37.89,-57.34 0,-79.22 -37.88,-21.87 -99.31,-21.87 -137.2,0 -12.38,7.15 -20.63,15.76 -24.92,24.86 l -261.79,-151.14 557.8,-322.05 c 46.87,-27.059 122.85,-27.059 169.71,0 l 557.78,322.04 -269.88,155.81"
         style="fill:#ee1696;fill-opacity:1;fill-rule:nonzero;stroke:none"
         id="path100360"
         inkscape:connector-curvature="0" /><path
         d="m 4245.29,1463.05 c -2.92,-11.51 -11.94,-22.59 -27.27,-31.44 -17.37,-10.03 -39.7,-15.4 -62.44,-16.24 l 23.75,-13.71 c 14.15,2.63 27.46,7.13 38.69,13.61 22.55,13.03 31.56,30.86 27.27,47.78"
         style="fill:#ffffff;fill-opacity:1;fill-rule:nonzero;stroke:none"
         id="path100362"
         inkscape:connector-curvature="0" /><path
         d="m 3867.68,937.52 c -46.86,-27.059 -122.84,-27.059 -169.71,0 l -557.8,322.05 v -16.34 l 557.8,-322.039 c 46.87,-27.062 122.85,-27.062 169.71,-0.011 l 557.79,322.04 v 16.34 L 3867.68,937.52"
         style="fill:#ffffff;fill-opacity:1;fill-rule:nonzero;stroke:none"
         id="path100364"
         inkscape:connector-curvature="0" /><path
         d="m 3174.8,1618.17 c -100.4,-57.97 -263.18,-57.96 -363.58,0 -100.4,57.96 -100.41,151.95 -0.01,209.92 100.4,57.96 263.18,57.96 363.58,-0.01 100.4,-57.96 100.41,-151.95 0.01,-209.91"
         style="fill:#4067b1;fill-opacity:1;fill-rule:nonzero;stroke:none"
         id="path100366"
         inkscape:connector-curvature="0" /><path
         d="m 2869.95,3242.52 c 0,0 5.59,-115.39 14.37,-192.93 8.79,-77.55 195.55,59.56 195.55,59.56 v 88.29 l -209.92,45.08"
         style="fill:#ee1696;fill-opacity:1;fill-rule:nonzero;stroke:none"
         id="path100368"
         inkscape:connector-curvature="0" /><path
         d="m 2969.42,1806.88 c 2.8,-7.02 51.19,-65.93 99.59,-80.66 21.03,-6.4 35.17,-7.23 44.45,-6.13 9.3,1.1 15.05,10.69 11.92,19.52 -8.33,23.44 -32.2,72.27 -92.85,102.32 -82.05,40.69 -63.11,-35.05 -63.11,-35.05"
         style="fill:#263c7a;fill-opacity:1;fill-rule:nonzero;stroke:none"
         id="path100370"
         inkscape:connector-curvature="0" /><path
         d="m 2953.29,1784.24 c 0,0 18.23,-42.77 23.84,-78.55 3.42,-21.81 -8.55,-50.15 -18.4,-68.94 -6.13,-11.65 -21.64,-14.28 -31.38,-5.43 -15.82,14.36 -35.95,39.28 -39.28,75.08 -5.61,60.31 0,70.83 0,70.83 l 65.22,7.01"
         style="fill:#263c7a;fill-opacity:1;fill-rule:nonzero;stroke:none"
         id="path100372"
         inkscape:connector-curvature="0" /><path
         d="m 2836.72,2513.2 c 0,0 -6.31,-76.07 0,-160.23 6.31,-84.15 28.91,-477.71 33.11,-572.39 0,0 -2.1,-28.67 53.39,-22.36 55.5,6.31 51.02,38.14 51.02,38.14 0,0 77.93,1.04 80.38,46.98 2.46,45.94 79.83,548.54 79.83,729.23 l -297.73,-59.37"
         style="fill:#d9effb;fill-opacity:1;fill-rule:nonzero;stroke:none"
         id="path100374"
         inkscape:connector-curvature="0" /><path
         d="m 3163.28,2906.58 38.18,-59.14 131.24,-158.52 c 0,0 -4.51,-14.71 -20.85,-18.56 -12.76,-3.01 -123.15,102.31 -170.82,148.52 -12.67,12.27 -14.78,31.81 -5.04,46.52 l 27.29,41.18"
         style="fill:#fab6a9;fill-opacity:1;fill-rule:nonzero;stroke:none"
         id="path100376"
         inkscape:connector-curvature="0" /><path
         d="m 3088.78,3149.32 c 0,0 60.66,1.57 81.77,-86.09 21.12,-87.65 37.63,-197.41 19.27,-206.53 -55.13,-27.38 -90.01,4.66 -90.01,4.66 l -11.03,287.96"
         style="fill:#5f92d3;fill-opacity:1;fill-rule:nonzero;stroke:none"
         id="path100378"
         inkscape:connector-curvature="0" /><path
         d="m 3106.94,3145.6 c -10.35,4.31 -21.96,4.89 -32.74,1.79 -51.68,-14.83 -245.96,-71.85 -277.98,-99.22 -37,-31.63 55.48,-209.32 54.15,-267.57 -1.33,-58.26 -7.9,-126.95 -13.05,-190.28 -5.15,-63.34 -12.11,-98.06 39.69,-124.99 51.8,-26.92 140.24,-28.16 206.45,22.29 66.21,50.44 54.2,84.96 51.44,121.58 -2.76,36.62 -25.3,195.02 -23.34,239.98 0,0 23.32,17.19 40.6,46.66 17.28,29.47 -13.24,83.64 -25.91,118.87 -12.67,35.21 7.14,75.49 3.23,104.23 -2.02,14.79 -11.48,22.04 -22.54,26.66"
         style="fill:#5f92d3;fill-opacity:1;fill-rule:nonzero;stroke:none"
         id="path100380"
         inkscape:connector-curvature="0" /><path
         d="m 2958.42,3025.89 22.09,-25.32 c 2.86,-3.28 4.16,-7.66 3.55,-11.98 l -19.31,-134.82 c -0.54,-3.78 0.41,-7.63 2.65,-10.71 l 47.21,-65.36 c 2.09,-2.9 6.59,-2.25 7.76,1.13 l 28.91,83.15 c 1.1,3.15 1.1,6.58 -0.01,9.72 l -43.55,124.11 c -0.96,2.72 -1.1,5.65 -0.44,8.45 l 7.74,32.37 -56.6,-10.74"
         style="fill:#ffffff;fill-opacity:1;fill-rule:nonzero;stroke:none"
         id="path100382"
         inkscape:connector-curvature="0" /><path
         d="m 3044.83,3085.01 c 4.1,-32 -25.26,-62.13 -65.58,-67.29 -40.31,-5.16 -76.32,16.6 -80.41,48.6 -4.1,32 25.26,62.13 65.57,67.29 40.31,5.16 76.32,-16.59 80.42,-48.6"
         style="fill:#ffffff;fill-opacity:1;fill-rule:nonzero;stroke:none"
         id="path100384"
         inkscape:connector-curvature="0" /><path
         d="m 3024.01,3082.34 c 2.93,-22.87 -18.06,-44.4 -46.88,-48.09 -28.8,-3.69 -54.54,11.85 -57.47,34.74 -2.93,22.87 18.05,44.4 46.87,48.09 28.81,3.69 54.55,-11.85 57.48,-34.74"
         style="fill:#fab6a9;fill-opacity:1;fill-rule:nonzero;stroke:none"
         id="path100386"
         inkscape:connector-curvature="0" /><path
         d="m 2995.37,3157.44 c 0,0 -35.07,28.85 -41.96,14.24 -6.89,-14.61 -12.58,-77.3 -12.58,-77.3 l 69.66,-18.71 -10.57,63.52 c 0,0 13.94,11.82 -4.55,18.25"
         style="fill:#fab6a9;fill-opacity:1;fill-rule:nonzero;stroke:none"
         id="path100388"
         inkscape:connector-curvature="0" /><path
         d="m 3104.22,3226.15 c -3.39,-57.33 -52.6,-101.07 -109.94,-97.68 -57.34,3.39 -101.07,52.61 -97.68,109.94 3.39,57.34 52.6,101.07 109.94,97.68 57.33,-3.38 101.07,-52.6 97.68,-109.94"
         style="fill:#fab6a9;fill-opacity:1;fill-rule:nonzero;stroke:none"
         id="path100390"
         inkscape:connector-curvature="0" /><path
         d="m 2948.55,3153.51 c -0.62,-3.27 -1.21,-6.79 -1.77,-10.37 6.99,-36.19 61.14,-52.03 61.14,-52.03 l -8,48.08 c 0,0 6.56,5.57 4.7,11.13 -21.39,6.76 -48.36,12.75 -56.07,3.19"
         style="fill:#eb8b8a;fill-opacity:1;fill-rule:nonzero;stroke:none"
         id="path100392"
         inkscape:connector-curvature="0" /><path
         d="m 3104.22,3226.15 c -3.39,-57.33 -52.6,-101.07 -109.94,-97.68 -57.34,3.39 -101.07,52.61 -97.68,109.94 3.39,57.34 52.6,101.07 109.94,97.68 57.33,-3.38 101.07,-52.6 97.68,-109.94"
         style="fill:#fab6a9;fill-opacity:1;fill-rule:nonzero;stroke:none"
         id="path100394"
         inkscape:connector-curvature="0" /><path
         d="m 2744.18,2792.08 11.65,-278.29 40.68,-4.2 26.48,250.53 -78.81,31.96"
         style="fill:#fab6a9;fill-opacity:1;fill-rule:nonzero;stroke:none"
         id="path100396"
         inkscape:connector-curvature="0" /><path
         d="m 2877.89,2815.34 c -2.2,9.69 -20.01,17.66 -22.74,30.3 -13.96,64.82 -17.32,160.42 -17.32,160.42 l -11.37,-130.59 c 13.12,-38.73 24.37,-74.28 23.91,-94.87 -0.79,-34.2 -3.38,-72.01 -6.43,-110.19 v -0.12 c 0,0 47.41,85.63 33.95,145.05"
         style="fill:#4067b1;fill-opacity:1;fill-rule:nonzero;stroke:none"
         id="path100398"
         inkscape:connector-curvature="0" /><path
         d="m 2803.99,3053.87 c 0,0 -32.53,-12.43 -50.95,-112.36 -18.41,-99.93 -32.18,-200.02 0.65,-212.92 32.82,-12.91 60.25,-22.6 69.9,4.13 9.65,26.72 15.63,155.5 16.84,201.82 1.22,46.32 2.98,110.18 -36.44,119.33"
         style="fill:#5f92d3;fill-opacity:1;fill-rule:nonzero;stroke:none"
         id="path100400"
         inkscape:connector-curvature="0" /><path
         d="m 3322.96,2700.51 c 0,0 17.62,-6.48 30.36,-20.35 10.44,-11.38 16.17,-21.03 20.74,-27.84 10.12,-15.12 18.68,-47.8 12.5,-51.86 -6.18,-4.07 -41.53,54.71 -47.22,41.04 -5.7,-13.69 0.05,-26.31 -7.26,-26.53 -7.3,-0.2 -32.7,59.09 -52.67,77.47 -19.98,18.38 43.55,8.07 43.55,8.07"
         style="fill:#fab6a9;fill-opacity:1;fill-rule:nonzero;stroke:none"
         id="path100402"
         inkscape:connector-curvature="0" /><path
         d="m 2974.24,1796.35 c 0,0 9.66,0.15 22.27,2.31 l 15.25,611.78 -37.52,-614.09"
         style="fill:#4067b1;fill-opacity:1;fill-rule:nonzero;stroke:none"
         id="path100404"
         inkscape:connector-curvature="0" /><path
         d="m 2915.36,2126.82 -21.65,28.26 -227.66,131.81 c -7.3,4.22 -13.2,15.54 -13.19,25.28 l 0.2,186.39 -13.09,17.09 12.3,7.11 0.01,-0.01 c 2.35,1.52 5.49,1.48 8.93,-0.51 l 257.99,-149.38 c 7.31,-4.23 13.21,-15.54 13.2,-25.29 l -0.22,-202.98 c -0.01,-5.48 -1.88,-9.29 -4.82,-10.82 l -12,-6.95"
         style="fill:#4067b1;fill-opacity:1;fill-rule:nonzero;stroke:none"
         id="path100406"
         inkscape:connector-curvature="0" /><path
         d="m 2757.92,2233.69 -16.17,9.37 -88.79,154.22 0.1,101.28 -13.09,17.09 12.3,7.11 0.01,-0.01 c 2.35,1.52 5.49,1.48 8.93,-0.51 l 257.99,-149.38 c 3.86,-2.23 7.32,-6.45 9.73,-11.37 l -171.01,-127.8"
         style="fill:#4067b1;fill-opacity:1;fill-rule:nonzero;stroke:none"
         id="path100408"
         inkscape:connector-curvature="0" /><path
         d="m 2645.78,2508.06 -5.81,7.59 12.3,7.11 0.01,-0.01 c 2.35,1.52 5.49,1.48 8.93,-0.51 l 4.55,-2.64 -19.98,-11.54"
         style="fill:#4067b1;fill-opacity:1;fill-rule:nonzero;stroke:none"
         id="path100410"
         inkscape:connector-curvature="0" /><path
         d="m 2921.55,2371.2 c 5.73,-4.69 10.17,-13.54 10.78,-21.73 l -25.22,-14.55 -12.08,20.98 26.52,15.3"
         style="fill:#4067b1;fill-opacity:1;fill-rule:nonzero;stroke:none"
         id="path100412"
         inkscape:connector-curvature="0" /><path
         d="m 2906.92,2365.74 -258,149.38 c -7.29,4.23 -13.22,-0.25 -13.24,-9.98 l -0.22,-202.98 c -0.01,-9.75 5.9,-21.07 13.2,-25.28 l 258,-149.38 c 7.3,-4.23 13.22,0.24 13.24,9.98 l 0.21,202.98 c 0.01,9.74 -5.9,21.05 -13.19,25.28"
         style="fill:#d9effb;fill-opacity:1;fill-rule:nonzero;stroke:none"
         id="path100414"
         inkscape:connector-curvature="0" /><path
         d="m 2910.82,2368.08 -258,149.37 c -4.31,2.49 -8.1,1.9 -10.52,-0.95 1.95,0.39 4.2,0.02 6.62,-1.38 l 258,-149.38 c 7.29,-4.23 13.2,-15.54 13.19,-25.28 l -0.21,-202.98 c -0.01,-3.99 -1.05,-7.04 -2.73,-9.02 3.93,0.78 6.61,4.85 6.61,11.36 l 0.23,202.97 c 0.01,9.74 -5.9,21.06 -13.19,25.29"
         style="fill:#ffffff;fill-opacity:1;fill-rule:nonzero;stroke:none"
         id="path100416"
         inkscape:connector-curvature="0" /><path
         d="m 2853.92,2220.16 -12.29,7.1 v 105.56 l 12.29,-7.1 v -105.56"
         style="fill:#ffffff;fill-opacity:1;fill-rule:nonzero;stroke:none"
         id="path100418"
         inkscape:connector-curvature="0" /><path
         d="m 2825.21,2236.73 -12.29,7.1 v 105.57 l 12.29,-7.09 v -105.58"
         style="fill:#ffffff;fill-opacity:1;fill-rule:nonzero;stroke:none"
         id="path100420"
         inkscape:connector-curvature="0" /><path
         d="m 2796.5,2253.31 -12.29,7.09 v 105.57 l 12.29,-7.09 v -105.57"
         style="fill:#ffffff;fill-opacity:1;fill-rule:nonzero;stroke:none"
         id="path100422"
         inkscape:connector-curvature="0" /><path
         d="m 2756.15,2516.11 c 0,0 -10.75,-64.95 -9.14,-85.76 1.62,-20.8 12.75,-55.11 21.21,-54.39 8.45,0.72 0.27,83.66 15.11,75.4 14.85,-8.26 16.41,-22.43 23.13,-17.42 6.73,5 -11.72,75.9 -6.8,106.63 4.92,30.74 -43.51,-24.46 -43.51,-24.46"
         style="fill:#fab6a9;fill-opacity:1;fill-rule:nonzero;stroke:none"
         id="path100424"
         inkscape:connector-curvature="0" /><path
         d="m 3040.35,3223.2 c 52.16,-18.53 62.32,-7.22 62.82,-6.62 0.48,3.15 0.86,6.33 1.05,9.57 0.69,11.52 -0.62,22.67 -3.46,33.23 l -135.34,18.27 c 0,0 21.36,-35.42 74.93,-54.45"
         style="fill:#eb8b8a;fill-opacity:1;fill-rule:nonzero;stroke:none"
         id="path100426"
         inkscape:connector-curvature="0" /><path
         d="m 3107.97,3329.76 c -12.29,10.53 -56.66,62.64 -136.14,50.35 -49.67,-7.69 -91.54,-41.57 -100.83,-118.87 -6.25,-52.09 12.86,-103.38 48.08,-141.31 1.9,0.89 3.87,1.7 5.64,2.86 19.9,13.11 22.05,20.31 22.05,20.38 l 4.4,39.44 c -0.14,5.59 -4.33,10.58 -9.92,10.93 -4.32,0.27 -9.57,2.35 -14.57,8.87 -11.41,14.93 -6.14,38.21 16.69,39.09 11.94,0.45 16.56,6.91 18.25,12.96 1.46,5.28 7.03,8.21 12.17,6.35 25.98,-9.4 89.98,-29.67 131.18,-18 52.68,14.94 15.3,76.41 3,86.95"
         style="fill:#ee1696;fill-opacity:1;fill-rule:nonzero;stroke:none"
         id="path100428"
         inkscape:connector-curvature="0" /><path
         d="m 3048.71,3176.23 31.81,8.74 c 0,0 -15.19,-23.89 -37.36,-29.99 -22.18,-6.08 -25.63,12.69 -25.63,12.69 l 31.18,8.56"
         style="fill:#ffffff;fill-opacity:1;fill-rule:nonzero;stroke:none"
         id="path100430"
         inkscape:connector-curvature="0" /><path
         d="m 2810.24,2435.95 -27.11,15.52 10.18,-16.63 13.71,-5.05 3.22,6.16"
         style="fill:#4067b1;fill-opacity:1;fill-rule:nonzero;stroke:none"
         id="path100432"
         inkscape:connector-curvature="0" /><path
         d="m 2939.68,3199.84 c 0,-5.95 -4.82,-10.79 -10.78,-10.79 -5.96,0 -10.78,4.84 -10.78,10.79 0,5.95 4.82,10.79 10.78,10.79 5.96,0 10.78,-4.84 10.78,-10.79"
         style="fill:#ffffff;fill-opacity:1;fill-rule:nonzero;stroke:none"
         id="path100434"
         inkscape:connector-curvature="0" /><path
         d="m 4748.55,1655.02 c -98.65,-56.95 -258.59,-56.95 -357.26,0 -98.65,56.96 -98.65,149.31 0,206.26 98.66,56.96 258.61,56.96 357.26,0 98.65,-56.95 98.65,-149.31 0,-206.26"
         style="fill:#6f9cd6;fill-opacity:1;fill-rule:nonzero;stroke:none"
         id="path100436"
         inkscape:connector-curvature="0" /><path
         d="m 4584.75,1834.99 c -2.82,-7.04 -51.42,-66.2 -100.02,-80.99 -21.12,-6.43 -35.33,-7.27 -44.64,-6.17 -9.34,1.12 -15.11,10.75 -11.96,19.61 8.36,23.54 32.33,72.58 93.23,102.77 82.4,40.85 63.39,-35.22 63.39,-35.22"
         style="fill:#263c7a;fill-opacity:1;fill-rule:nonzero;stroke:none"
         id="path100438"
         inkscape:connector-curvature="0" /><path
         d="m 4600.94,1812.27 c 0,0 -18.31,-42.96 -23.94,-78.88 -3.44,-21.91 8.59,-50.37 18.49,-69.25 6.15,-11.7 21.72,-14.33 31.51,-5.45 15.89,14.42 36.1,39.45 39.44,75.4 5.64,60.57 0,71.14 0,71.14 l -65.5,7.04"
         style="fill:#263c7a;fill-opacity:1;fill-rule:nonzero;stroke:none"
         id="path100440"
         inkscape:connector-curvature="0" /><path
         d="m 4718.01,2544.35 c 0,0 6.34,-76.41 0,-160.92 -6.34,-84.52 -29.03,-479.77 -33.25,-574.84 0,0 2.11,-28.79 -53.62,-22.46 -55.72,6.34 -51.23,38.3 -51.23,38.3 0,0 -78.27,1.06 -80.74,47.19 -2.47,46.13 -80.15,550.88 -80.15,732.35 l 298.99,-59.62"
         style="fill:#d9effb;fill-opacity:1;fill-rule:nonzero;stroke:none"
         id="path100442"
         inkscape:connector-curvature="0" /><path
         d="m 4579.91,1824.43 c 0,0 -9.7,0.14 -22.37,2.32 l -15.32,614.39 37.69,-616.71"
         style="fill:#4067b1;fill-opacity:1;fill-rule:nonzero;stroke:none"
         id="path100444"
         inkscape:connector-curvature="0" /><path
         d="m 4635.24,3104.99 c 126.43,-52.41 123.9,-127.15 123.9,-127.15 0,0 -24.77,-273.99 -16.31,-456.97 3.53,-76.49 -406.42,-82.33 -345.29,121.74 72.09,240.62 45.07,435.43 78.81,464.8 33.75,29.39 126.19,11.15 158.89,-2.42"
         style="fill:#5f92d3;fill-opacity:1;fill-rule:nonzero;stroke:none"
         id="path100446"
         inkscape:connector-curvature="0" /><path
         d="m 4675.92,3038.72 c -6.61,-25.66 -40.24,-39.2 -75.12,-30.21 -34.88,8.98 -57.79,37.08 -51.18,62.75 6.62,25.66 40.25,39.19 75.12,30.21 34.88,-8.98 57.79,-37.07 51.18,-62.75"
         style="fill:#fab6a9;fill-opacity:1;fill-rule:nonzero;stroke:none"
         id="path100448"
         inkscape:connector-curvature="0" /><path
         d="m 4603.14,3096.32 c -8.4,0 -16.43,-1.46 -23.59,-4.34 -11.79,-4.73 -19.68,-12.8 -22.23,-22.7 -5.51,-21.39 14.88,-45.21 45.46,-53.08 30.57,-7.88 59.95,3.11 65.45,24.5 2.56,9.92 -0.46,20.8 -8.49,30.64 -8.6,10.55 -21.74,18.51 -36.98,22.43 -6.59,1.7 -13.21,2.55 -19.62,2.55 z m 18.96,-98.5 c -7.55,0 -15.4,0.96 -23.29,2.99 -39.06,10.07 -64.58,42.56 -56.88,72.43 3.85,14.93 15.1,26.82 31.69,33.49 15.74,6.33 34.59,7.21 53.1,2.43 18.5,-4.76 34.59,-14.63 45.33,-27.78 11.3,-13.86 15.41,-29.71 11.57,-44.64 -6.14,-23.84 -31.62,-38.92 -61.52,-38.92"
         style="fill:#ffffff;fill-opacity:1;fill-rule:nonzero;stroke:none"
         id="path100450"
         inkscape:connector-curvature="0" /><path
         d="m 4584.56,3110.69 c 0,0 1.08,-5.06 -1.11,-45.13 -0.68,-12.6 43.42,-24.36 54.82,-12.96 11.4,11.4 6.84,23.25 9.58,66.12 2.73,42.86 -63.29,-8.03 -63.29,-8.03"
         style="fill:#fab6a9;fill-opacity:1;fill-rule:nonzero;stroke:none"
         id="path100452"
         inkscape:connector-curvature="0" /><path
         d="m 4647.85,3118.72 c 0,0 -10.86,-39.74 -64.41,-54.99 l 0.82,36.12 63.59,18.87"
         style="fill:#eb8b8a;fill-opacity:1;fill-rule:nonzero;stroke:none"
         id="path100454"
         inkscape:connector-curvature="0" /><path
         d="m 4681.76,3219.7 c 13.45,-52.03 -17.82,-105.13 -69.86,-118.59 -52.04,-13.44 -105.13,17.84 -118.58,69.87 -13.45,52.04 17.82,105.12 69.86,118.58 52.04,13.46 105.13,-17.82 118.58,-69.86"
         style="fill:#fab6a9;fill-opacity:1;fill-rule:nonzero;stroke:none"
         id="path100456"
         inkscape:connector-curvature="0" /><path
         d="m 4609.89,3191.77 c 0,0 -53.58,-22.95 -90.69,-23.21 -37.1,-0.27 -28.92,30.8 -28.92,30.8 l 110.14,15.91 9.47,-23.5"
         style="fill:#eb8b8a;fill-opacity:1;fill-rule:nonzero;stroke:none"
         id="path100458"
         inkscape:connector-curvature="0" /><path
         d="m 4508.15,3185.72 c 0,0 46.67,19.82 87.62,11.56 9.63,-1.95 18.55,-7.09 24.74,-14.71 2.03,-2.49 4.59,-4.77 7.49,-5.42 7.26,-1.64 19.15,28.49 33.26,29.17 14.12,0.68 23.54,-9.31 11.97,-27.83 -11.57,-18.53 -7.67,-39.27 -2.35,-42.24 5.34,-2.97 61.81,40.28 12,138.97 -49.83,98.69 -176.37,45.53 -196.05,25.53 0,0 -20.73,-18.06 -37.6,-1.99 0,0 -18.89,-141.58 58.92,-113.04"
         style="fill:#ee1696;fill-opacity:1;fill-rule:nonzero;stroke:none"
         id="path100460"
         inkscape:connector-curvature="0" /><path
         d="m 4414.52,3127.43 -67.99,29.3 c -7.79,3.36 -13.81,9.84 -16.58,17.86 l -67.13,194.56 -31.11,-5.41 54.26,-242.11 c 2.54,-11.3 9.76,-20.98 19.86,-26.66 l 113.19,-63.57 -4.5,96.03"
         style="fill:#fab6a9;fill-opacity:1;fill-rule:nonzero;stroke:none"
         id="path100462"
         inkscape:connector-curvature="0" /><path
         d="m 5121.83,3095.78 15.6,7.16 c 13.29,6.09 25.41,14.47 35.81,24.74 l 10.86,10.72 c 6.12,6.04 7.95,15.2 4.6,23.13 -2.61,6.2 -9.92,8.88 -15.92,5.85 l -32.58,-16.45 c 0,0 5.1,14.42 2.65,18.17 -2.45,3.75 -27.66,-24.08 -39.32,-43.81 -11.67,-19.73 18.3,-29.51 18.3,-29.51"
         style="fill:#fab6a9;fill-opacity:1;fill-rule:nonzero;stroke:none"
         id="path100464"
         inkscape:connector-curvature="0" /><path
         d="m 4850.51,3017.97 58.15,6.49 c 13.75,1.54 27.05,5.84 39.09,12.66 l 155.78,88.17 18.3,-29.51 -159.27,-122.97 c -4.92,-3.8 -10.3,-6.95 -16.01,-9.39 l -94.99,-40.62 -1.05,95.17"
         style="fill:#fab6a9;fill-opacity:1;fill-rule:nonzero;stroke:none"
         id="path100466"
         inkscape:connector-curvature="0" /><path
         d="m 4231.71,3363.74 -5.93,6.85 c -6.84,7.88 -11.27,17.55 -12.78,27.87 l -4.16,28.37 c -1.29,8.83 2.16,17.81 9.34,23.11 l 0.79,0.57 c 7.53,5.19 18.04,1.43 21.53,-7.03 l 13.99,-33.8 c 0,0 -4.41,17.51 1.25,19.44 4.14,1.42 11.99,-20.3 7.35,-32.38 -4.65,-12.08 -0.27,-27.59 -0.27,-27.59 l -31.11,-5.41"
         style="fill:#fab6a9;fill-opacity:1;fill-rule:nonzero;stroke:none"
         id="path100468"
         inkscape:connector-curvature="0" /><path
         d="m 4548.92,3128.33 -25.13,6.91 c 0,0 12.01,-18.88 29.52,-23.69 17.51,-4.81 20.23,10.01 20.23,10.01 l -24.62,6.77"
         style="fill:#ffffff;fill-opacity:1;fill-rule:nonzero;stroke:none"
         id="path100470"
         inkscape:connector-curvature="0" /><path
         d="m 4511.25,3121.39 c 0,0 -113.57,22.44 -148.25,32.98 -34.68,10.53 -49.17,-84.72 -46.53,-108.87 2.64,-24.14 120.72,-51.08 134.77,-92.48 14.04,-41.4 60.01,168.37 60.01,168.37"
         style="fill:#5f92d3;fill-opacity:1;fill-rule:nonzero;stroke:none"
         id="path100472"
         inkscape:connector-curvature="0" /><path
         d="m 4684.88,3079.59 c 0,0 83.01,-35.62 221.9,-52.98 5.66,-0.7 10.49,-4.44 12.37,-9.81 5.35,-15.38 14.49,-48.97 7.35,-83.5 -2.94,-14.25 -15.84,-24.24 -30.38,-24.14 -43.48,0.3 -137.06,-3.87 -152.25,-44.51 -19.9,-53.26 -58.99,214.94 -58.99,214.94"
         style="fill:#5f92d3;fill-opacity:1;fill-rule:nonzero;stroke:none"
         id="path100474"
         inkscape:connector-curvature="0" /><path
         d="m 4636.05,3004.71 -22.76,-24.72 c -2.95,-3.2 -4.37,-7.54 -3.86,-11.87 l 15.64,-135.3 c 0.44,-3.8 -0.61,-7.6 -2.93,-10.64 l -48.97,-64.05 c -2.17,-2.85 -6.64,-2.06 -7.72,1.33 l -26.66,83.91 c -1.01,3.17 -0.91,6.6 0.28,9.72 l 46.9,122.88 c 1.03,2.69 1.25,5.61 0.66,8.44 l -6.86,32.57 56.28,-12.27"
         style="fill:#ffffff;fill-opacity:1;fill-rule:nonzero;stroke:none"
         id="path100476"
         inkscape:connector-curvature="0" /><path
         d="m 4884.66,2934.36 c -24.83,-2.89 -85.81,-8.15 -132.7,-12.05 -26.88,-2.24 -44.72,-28.15 -37.92,-54.24 24.99,-95.99 -8.11,-250.29 -2.14,-302.51 7.15,-62.5 -30.72,-86.66 -30.92,-86.79 37.4,8.08 62.74,22.84 61.85,42.1 -5.2,112.38 2.15,259.01 8.58,355.5 27.31,29.8 106.51,33.09 145.19,32.79 14.75,-0.12 27.16,10.44 30.06,24.91 3.59,17.99 2.76,35.62 0.43,50.58 0,-0.96 -0.02,-45.37 -42.43,-50.29"
         style="fill:#4067b1;fill-opacity:1;fill-rule:nonzero;stroke:none"
         id="path100478"
         inkscape:connector-curvature="0" /><path
         d="m 3604.85,1123.88 c 116.77,-67.42 306.09,-67.42 422.87,0 116.78,67.42 116.78,176.73 0.01,244.15 -116.78,67.42 -306.1,67.41 -422.88,0 -116.77,-67.42 -116.78,-176.74 0,-244.15"
         style="fill:#d1078d;fill-opacity:1;fill-rule:nonzero;stroke:none"
         id="path100480"
         inkscape:connector-curvature="0" /><path
         d="m 3633.06,1337.45 c -20.83,-8.89 -33.93,-32.13 -32.21,-57.08 0.82,-11.78 2.25,-22.75 4.7,-27.91 6.63,-13.9 28.35,-33.01 63.03,-19.3 34.68,13.71 111.68,86.06 114.57,133.42 5.36,87.97 -95.23,-5.7 -150.09,-29.13"
         style="fill:#263c7a;fill-opacity:1;fill-rule:nonzero;stroke:none"
         id="path100482"
         inkscape:connector-curvature="0" /><path
         d="m 3836.79,1191.94 c 0,0 -8.31,-50.73 -4.28,-60.02 4.05,-9.3 28.18,-29.14 63.83,-24.85 35.66,4.29 138.23,39.66 161.08,107.26 35.41,104.8 -198,-7.86 -198,-7.86 l -22.63,-14.53"
         style="fill:#263c7a;fill-opacity:1;fill-rule:nonzero;stroke:none"
         id="path100484"
         inkscape:connector-curvature="0" /><path
         d="m 3937.03,2002.82 7.94,-791.84 c -0.84,-27.54 -18.88,-50.8 -43.14,-54.89 -3,-0.5 -6.21,-0.92 -9.65,-1.22 -24.56,-2.14 -38.87,8.39 -47.04,19.47 -6.61,8.96 -10.09,20.33 -10.58,31.96 l -10.11,338.03 -50.47,302.22 -69.81,-534.9 c -1.13,-14.47 -8.05,-27.85 -19.19,-35.22 -7.7,-5.09 -18.14,-9.05 -31.84,-8.64 -19.98,0.61 -33.86,11.3 -42.32,20.85 -6.71,7.56 -10.25,17.96 -10.11,28.64 l 27.67,321.84 10.31,410.52 298.34,-46.82"
         style="fill:#d9effb;fill-opacity:1;fill-rule:nonzero;stroke:none"
         id="path100486"
         inkscape:connector-curvature="0" /><path
         d="m 3834.48,2711.61 -12.51,-72.16 c 0,0 -0.47,-24.61 27.01,-31.43 27.49,-6.82 35.99,10.93 35.99,10.93 l 12.43,81.26 -62.92,11.4"
         style="fill:#fab6a9;fill-opacity:1;fill-rule:nonzero;stroke:none"
         id="path100488"
         inkscape:connector-curvature="0" /><path
         d="m 3985.97,2751.13 c -19.51,-61.8 -79.9,-97.68 -134.88,-80.12 -54.97,17.56 -83.72,81.89 -64.21,143.71 19.51,61.81 79.9,97.68 134.87,80.12 54.98,-17.55 83.73,-81.89 64.22,-143.71"
         style="fill:#fab6a9;fill-opacity:1;fill-rule:nonzero;stroke:none"
         id="path100490"
         inkscape:connector-curvature="0" /><path
         d="m 3837.75,2638.15 c -1.91,0.77 -116.62,74.63 -159.02,-2.67 -69.15,-126.04 -18.58,-270.55 -43.25,-584.32 -4.13,-52.51 70.66,-84.49 106.02,-104.69 31.45,-17.97 66.67,-28.98 102.9,-29.27 35.85,-0.29 104.58,31.58 102.09,78.44 -11.48,215.54 7.58,397.23 25.18,573.52 0,0 -22,23.67 -133.92,68.99"
         style="fill:#5f92d3;fill-opacity:1;fill-rule:nonzero;stroke:none"
         id="path100492"
         inkscape:connector-curvature="0" /><path
         d="m 3773.98,1846.56 -69.81,-534.91 c -1.13,-14.47 -8.05,-27.85 -19.19,-35.22 -1.83,-1.2 -3.83,-2.34 -5.97,-3.37 14.5,10.87 56.82,459.85 64.65,509.79 7.83,49.97 30.32,63.71 30.32,63.71"
         style="fill:#4067b1;fill-opacity:1;fill-rule:nonzero;stroke:none"
         id="path100494"
         inkscape:connector-curvature="0" /><path
         d="m 4209.72,2572.84 96.05,190.64 -30.13,19.03 -99.55,-145.21 33.63,-64.46"
         style="fill:#fab6a9;fill-opacity:1;fill-rule:nonzero;stroke:none"
         id="path100496"
         inkscape:connector-curvature="0" /><path
         d="m 3576.22,2775.26 46.72,212.56 37.21,-0.41 -13.97,-176.28 -69.96,-35.87"
         style="fill:#fab6a9;fill-opacity:1;fill-rule:nonzero;stroke:none"
         id="path100498"
         inkscape:connector-curvature="0" /><path
         d="m 3971.67,2569.16 c 0,0 107.43,-42.37 199.72,74.05 8.14,10.27 24.84,9.12 29.65,-1.94 8.3,-19.08 18.7,-47.91 6.08,-74.97 -55.78,-119.72 -246.11,-115.56 -291.97,-182.68 -45.86,-67.11 56.52,185.54 56.52,185.54"
         style="fill:#5f92d3;fill-opacity:1;fill-rule:nonzero;stroke:none"
         id="path100500"
         inkscape:connector-curvature="0" /><path
         d="m 3764.99,2664.63 c 0,0 -88.7,-6.82 -101.47,69.95 -6.57,39.53 -8.54,63.15 -8.92,76.75 -0.24,9.21 -8.24,16.18 -17.39,15.05 -21.24,-2.64 -54.12,-8.98 -58.58,-23.21 -6.66,-21.25 -19.19,-125.51 68.42,-285.47 57.39,-104.8 117.94,146.93 117.94,146.93"
         style="fill:#5f92d3;fill-opacity:1;fill-rule:nonzero;stroke:none"
         id="path100502"
         inkscape:connector-curvature="0" /><path
         d="m 3622.76,2987.3 0.84,24.23 c 0.3,8.56 2.79,16.89 7.24,24.2 l 24.58,40.36 6.4,8.07 c 5.92,7.46 16.5,9.27 24.56,4.2 l 5.65,-3.55 c 7.2,-4.54 11.34,-12.64 10.81,-21.14 l -12.72,-34.49 16.08,3.12 c 3.12,0.6 6.13,-1.46 6.7,-4.59 0.47,-2.66 -0.98,-5.29 -3.49,-6.3 l -26.24,-10.59 -23.84,-33.74 -36.57,10.22"
         style="fill:#fab6a9;fill-opacity:1;fill-rule:nonzero;stroke:none"
         id="path100504"
         inkscape:connector-curvature="0" /><path
         d="m 4306.47,2762.27 11.24,21.48 c 3.97,7.59 5.92,16.07 5.66,24.63 l -1.41,47.23 -1.58,10.18 c -1.46,9.41 -9.77,16.2 -19.27,15.78 l -6.67,-0.3 c -8.51,-0.38 -16.11,-5.38 -19.85,-13.04 l -5.99,-36.26 -12.42,10.66 c -2.43,2.06 -6.07,1.76 -8.1,-0.69 -1.73,-2.08 -1.77,-5.07 -0.09,-7.19 l 17.58,-22.18 4.56,-46.2 36.34,-4.1"
         style="fill:#fab6a9;fill-opacity:1;fill-rule:nonzero;stroke:none"
         id="path100506"
         inkscape:connector-curvature="0" /><path
         d="m 3901.63,2407.64 c -9.35,-42.58 46.9,-363.72 -15.64,-481.16 31.27,12.66 62.19,37.46 60.5,69.16 -8.2,154.15 -0.77,290.92 10.55,420.85 53.47,27.1 137.05,43.25 196.16,86.54 -63.38,-23.37 -243.24,-57.39 -251.57,-95.39"
         style="fill:#4067b1;fill-opacity:1;fill-rule:nonzero;stroke:none"
         id="path100508"
         inkscape:connector-curvature="0" /><path
         d="m 3796.5,2658.53 15.93,16.35 c 0,0 26.21,-26.76 47.25,-31.41 0,0 25.33,-7.18 37.72,-7.8 l 10.25,-28.28 c 0,0 -83.44,5.98 -111.15,51.14"
         style="fill:#ffffff;fill-opacity:1;fill-rule:nonzero;stroke:none"
         id="path100510"
         inkscape:connector-curvature="0" /><path
         d="m 3911.14,2749.22 c 4.4,0.08 8.48,2.07 10.98,5.68 4.36,6.31 1.61,35.3 15.02,40.09 20.98,7.48 70.75,-18.77 76.07,56.91 2.76,39.33 -16.38,49.78 -16.3,71.33 0,0 1.66,-10.81 -99.55,-4.08 -101.2,6.73 -134.11,-83.14 -136.52,-125.96 -2.39,-42.8 18.33,-113.18 87.5,-122.85 11.47,-1.6 59.64,37.14 58.39,42.22 -1.24,5.08 -19.42,4.79 -16.79,19.58 2.19,12.32 9.69,16.86 21.2,17.08"
         style="fill:#263c7a;fill-opacity:1;fill-rule:nonzero;stroke:none"
         id="path100512"
         inkscape:connector-curvature="0" /><path
         d="m 2459.2,2269.68 -255.59,147.56 c -5.06,2.92 -9.63,3.03 -13.2,1.06 l 0.01,0.17 -24.79,-14.33 c 0,0 10.98,-4 17.42,-6.37 v -186.13 c 0,-15.14 9.2,-32.73 20.56,-39.29 l 244.31,-141.04 v -21.85 l 25.03,14.43 -0.12,0.05 c 4.23,2.58 6.94,8.25 6.94,16.39 v 190.05 c 0,15.15 -9.21,32.74 -20.57,39.3"
         style="fill:#5f92d3;fill-opacity:1;fill-rule:nonzero;stroke:none"
         id="path100514"
         inkscape:connector-curvature="0" /><path
         d="m 2433.96,2010.24 -255.6,147.56 c -11.35,6.56 -20.56,24.14 -20.56,39.29 v 190.05 c 0,15.15 9.21,22.11 20.56,15.55 l 255.6,-147.57 c 11.36,-6.55 20.57,-24.14 20.57,-39.29 v -190.05 c 0,-15.14 -9.21,-22.11 -20.57,-15.54"
         style="fill:#d9effb;fill-opacity:1;fill-rule:nonzero;stroke:none"
         id="path100516"
         inkscape:connector-curvature="0" /><path
         d="m 2433.96,2255.13 -255.6,147.56 c -6.45,3.73 -12.14,2.97 -15.91,-1.07 2.74,0.23 5.8,-0.42 9.07,-2.3 l 255.59,-147.57 c 11.36,-6.56 20.57,-24.15 20.57,-39.3 V 2022.4 c 0,-6.53 -1.79,-11.41 -4.65,-14.48 6.79,0.57 11.5,7.08 11.5,17.86 v 190.05 c 0,15.15 -9.21,32.74 -20.57,39.3"
         style="fill:#ffffff;fill-opacity:1;fill-rule:nonzero;stroke:none"
         id="path100518"
         inkscape:connector-curvature="0" /><path
         d="m 2264.32,2223.29 c 0,-10.99 -7.72,-15.46 -17.24,-9.96 -9.53,5.51 -17.25,18.88 -17.25,29.87 0,11 7.72,15.46 17.25,9.97 9.52,-5.51 17.24,-18.88 17.24,-29.88"
         style="fill:#ffffff;fill-opacity:1;fill-rule:nonzero;stroke:none"
         id="path100520"
         inkscape:connector-curvature="0" /><path
         d="m 2316.56,2193.13 c 0,-11 -7.72,-15.45 -17.24,-9.96 -9.53,5.5 -17.24,18.87 -17.24,29.87 0,11 7.71,15.46 17.24,9.96 9.52,-5.5 17.24,-18.88 17.24,-29.87"
         style="fill:#ffffff;fill-opacity:1;fill-rule:nonzero;stroke:none"
         id="path100522"
         inkscape:connector-curvature="0" /><path
         d="m 2368.8,2162.97 c 0,-11.01 -7.71,-15.46 -17.24,-9.96 -9.52,5.5 -17.25,18.88 -17.25,29.87 0,11 7.73,15.45 17.25,9.95 9.53,-5.49 17.24,-18.86 17.24,-29.86"
         style="fill:#ffffff;fill-opacity:1;fill-rule:nonzero;stroke:none"
         id="path100524"
         inkscape:connector-curvature="0" /><g
         id="g100526"><g
           id="g100528"
           clip-path="url(#clipPath100532)"><path
             d="m 2162.01,725.609 h 344.617 V 924.57 H 2162.01 Z"
             style="fill:#899abf;fill-opacity:1;fill-rule:nonzero;stroke:none"
             id="path100534"
             inkscape:connector-curvature="0" /></g></g><path
         d="m 2506.63,951.398 -172.31,-99.476 v 198.948 l 172.31,99.48 V 951.398"
         style="fill:#d1078d;fill-opacity:1;fill-rule:nonzero;stroke:none"
         id="path100536"
         inkscape:connector-curvature="0" /><path
         d="m 2334.32,1050.87 -172.31,99.48 172.3,99.49 172.31,-99.49 -172.3,-99.48"
         style="fill:#ee1696;fill-opacity:1;fill-rule:nonzero;stroke:none"
         id="path100538"
         inkscape:connector-curvature="0" /><path
         d="m 2334.32,851.922 -172.31,99.476 v 198.952 l 172.31,-99.48 V 851.922"
         style="fill:#ee1696;fill-opacity:1;fill-rule:nonzero;stroke:none"
         id="path100540"
         inkscape:connector-curvature="0" /><path
         d="m 2272.26,959.398 -48.19,27.832 v 55.64 l 48.19,-27.82 v -55.652"
         style="fill:#ffffff;fill-opacity:1;fill-rule:nonzero;stroke:none"
         id="path100542"
         inkscape:connector-curvature="0" /><path
         d="M 5121.84,617.672 4942.45,721.238 5121.83,824.809 5301.22,721.23 5121.84,617.672"
         style="fill:#899abf;fill-opacity:1;fill-rule:nonzero;stroke:none"
         id="path100544"
         inkscape:connector-curvature="0" /><path
         d="M 5301.23,852.738 5121.84,749.16 v 207.129 l 179.39,103.571 V 852.738"
         style="fill:#263c7a;fill-opacity:1;fill-rule:nonzero;stroke:none"
         id="path100546"
         inkscape:connector-curvature="0" /><path
         d="m 5121.84,956.289 -179.38,103.571 179.37,103.57 179.39,-103.58 -179.38,-103.561"
         style="fill:#d9effb;fill-opacity:1;fill-rule:nonzero;stroke:none"
         id="path100548"
         inkscape:connector-curvature="0" /><path
         d="M 5121.84,749.16 4942.46,852.738 V 1059.86 L 5121.84,956.289 V 749.16"
         style="fill:#5f92d3;fill-opacity:1;fill-rule:nonzero;stroke:none"
         id="path100550"
         inkscape:connector-curvature="0" /><path
         d="m 5057.23,861.07 -50.17,28.961 v 57.93 L 5057.23,919 v -57.93"
         style="fill:#ffffff;fill-opacity:1;fill-rule:nonzero;stroke:none"
         id="path100552"
         inkscape:connector-curvature="0" /><path
         d="m 5238.12,2273.02 -249.89,144.28 c -4.94,2.85 -9.42,2.95 -12.92,1.03 l 0.02,0.16 -24.24,-14.01 c 0,0 10.73,-3.9 17.03,-6.22 v -181.97 c 0,-14.81 9,-32.01 20.11,-38.42 l 238.85,-137.9 v -21.35 l 24.49,14.11 -0.14,0.03 c 4.14,2.53 6.8,8.07 6.8,16.04 v 185.8 c 0,14.82 -9.01,32.01 -20.11,38.42"
         style="fill:#d1078d;fill-opacity:1;fill-rule:nonzero;stroke:none"
         id="path100554"
         inkscape:connector-curvature="0" /><path
         d="m 5213.43,2019.37 -249.88,144.27 c -11.1,6.41 -20.11,23.62 -20.11,38.42 v 185.8 c 0,14.82 9.01,21.61 20.11,15.21 l 249.88,-144.28 c 11.11,-6.41 20.11,-23.6 20.11,-38.41 v -185.81 c 0,-14.8 -9,-21.61 -20.11,-15.2"
         style="fill:#ee1696;fill-opacity:1;fill-rule:nonzero;stroke:none"
         id="path100556"
         inkscape:connector-curvature="0" /><path
         d="m 5219.57,2263.21 -249.89,144.27 c -7.03,4.06 -13.2,2.79 -16.79,-2.42 3.09,0.81 6.72,0.27 10.66,-1.99 l 249.88,-144.28 c 11.11,-6.41 20.11,-23.6 20.11,-38.41 v -185.81 c 0,-5.44 -1.23,-9.75 -3.31,-12.78 5.65,1.48 9.44,7.63 9.44,17.2 v 185.81 c 0,14.8 -9,32 -20.1,38.41"
         style="fill:#ffffff;fill-opacity:1;fill-rule:nonzero;stroke:none"
         id="path100558"
         inkscape:connector-curvature="0" /><path
         d="m 5047.58,2227.68 c 0,-10.76 -7.55,-15.12 -16.86,-9.74 -9.31,5.37 -16.86,18.45 -16.86,29.2 0,10.75 7.55,15.11 16.86,9.74 9.31,-5.38 16.86,-18.45 16.86,-29.2"
         style="fill:#ffffff;fill-opacity:1;fill-rule:nonzero;stroke:none"
         id="path100560"
         inkscape:connector-curvature="0" /><path
         d="m 5098.66,2198.18 c 0,-10.75 -7.55,-15.1 -16.86,-9.73 -9.31,5.38 -16.86,18.45 -16.86,29.2 0,10.75 7.55,15.11 16.86,9.73 9.31,-5.37 16.86,-18.44 16.86,-29.2"
         style="fill:#ffffff;fill-opacity:1;fill-rule:nonzero;stroke:none"
         id="path100562"
         inkscape:connector-curvature="0" /><path
         d="m 5149.73,2168.69 c 0,-10.75 -7.55,-15.1 -16.85,-9.73 -9.32,5.38 -16.87,18.45 -16.87,29.21 0,10.75 7.55,15.1 16.87,9.72 9.3,-5.37 16.85,-18.45 16.85,-29.2"
         style="fill:#ffffff;fill-opacity:1;fill-rule:nonzero;stroke:none"
         id="path100564"
         inkscape:connector-curvature="0" /></g></g></svg>