<?xml version="1.0" encoding="UTF-8" standalone="no"?>
<!-- Created with Inkscape (http://www.inkscape.org/) -->

<svg
   xmlns:dc="http://purl.org/dc/elements/1.1/"
   xmlns:cc="http://creativecommons.org/ns#"
   xmlns:rdf="http://www.w3.org/1999/02/22-rdf-syntax-ns#"
   xmlns:svg="http://www.w3.org/2000/svg"
   xmlns="http://www.w3.org/2000/svg"
   xmlns:sodipodi="http://sodipodi.sourceforge.net/DTD/sodipodi-0.dtd"
   xmlns:inkscape="http://www.inkscape.org/namespaces/inkscape"
   version="1.1"
   id="svg721"
   xml:space="preserve"
   width="800"
   height="533.33331"
   viewBox="0 0 800 533.33331"
   sodipodi:docname="team.svg"
   inkscape:version="0.92.3 (2405546, 2018-03-11)"><metadata
     id="metadata727"><rdf:RDF><cc:Work
         rdf:about=""><dc:format>image/svg+xml</dc:format><dc:type
           rdf:resource="http://purl.org/dc/dcmitype/StillImage" /><dc:title></dc:title></cc:Work></rdf:RDF></metadata><defs
     id="defs725"><clipPath
       clipPathUnits="userSpaceOnUse"
       id="clipPath1113"><path
         d="m 698.793,2022.72 h -38.516 v 101.52 h 9.614 v -94.35 h 28.902 v -7.17"
         id="path1111"
         inkscape:connector-curvature="0" /></clipPath></defs><sodipodi:namedview
     pagecolor="#ffffff"
     bordercolor="#666666"
     borderopacity="1"
     objecttolerance="10"
     gridtolerance="10"
     guidetolerance="10"
     inkscape:pageopacity="0"
     inkscape:pageshadow="2"
     inkscape:window-width="1366"
     inkscape:window-height="705"
     id="namedview723"
     showgrid="false"
     inkscape:zoom="1.1278353"
     inkscape:cx="370.21955"
     inkscape:cy="188.97134"
     inkscape:window-x="0"
     inkscape:window-y="30"
     inkscape:window-maximized="1"
     inkscape:current-layer="g731" /><g
     id="g729"
     inkscape:groupmode="layer"
     inkscape:label="ink_ext_XXXXXX"
     transform="matrix(1.3333333,0,0,-1.3333333,0,533.33333)"><g
       id="g731"
       transform="scale(0.1)"><path
         d="m 3185.62,2326.09 -199.27,115.94 c -16.82,9.71 -14.71,26.67 4.71,37.88 l 189.93,110.66 c 19.42,11.21 48.79,12.42 65.6,2.72 l 199.27,-115.94 c 16.82,-9.71 14.71,-26.67 -4.71,-37.88 l -189.93,-110.66 c -19.41,-11.21 -48.79,-12.43 -65.6,-2.72"
         style="fill:#b8d8ed;fill-opacity:1;fill-rule:nonzero;stroke:none"
         id="path733"
         inkscape:connector-curvature="0" /><path
         d="m 3522.37,2697.72 v 0 50.73 l -269.38,0.15 1.86,0.06 c -21.36,12.34 -58.7,10.79 -83.37,-3.45 l 7.98,3.33 -269.63,0.15 v -54.14 c -0.61,-8.35 4.05,-16.42 14.32,-22.35 l 253.21,-147.32 c 21.37,-12.34 58.69,-10.79 83.37,3.46 l 241.35,140.61 c 14.23,8.22 21.09,18.87 20.29,28.77"
         style="fill:#263c7a;fill-opacity:1;fill-rule:nonzero;stroke:none"
         id="path735"
         inkscape:connector-curvature="0" /><path
         d="m 3216.17,2756.93 c -15.64,-0.38 -31.87,-4.32 -44.69,-11.72 l 7.98,3.33 -269.63,0.15 v -54.14 c -0.61,-8.35 4.05,-16.42 14.32,-22.35 l 253.21,-147.32 c 10.27,-5.93 24.22,-8.61 38.69,-8.26 l 0.12,240.31"
         style="fill:#4067b1;fill-opacity:1;fill-rule:nonzero;stroke:none"
         id="path737"
         inkscape:connector-curvature="0" /><path
         d="m 2940.35,2748.67 -30.52,0.02 v -54.14 c -0.61,-8.35 4.05,-16.42 14.32,-22.35 l 16.2,-9.34 v 85.81"
         style="fill:#b8d8ed;fill-opacity:1;fill-rule:nonzero;stroke:none"
         id="path739"
         inkscape:connector-curvature="0" /><path
         d="m 3182.72,2522.25 c 18.43,-7.89 45.09,-7.45 66.65,0.76 v 70.88 h -66.65 v -71.64"
         style="fill:#2e4b8d;fill-opacity:1;fill-rule:nonzero;stroke:none"
         id="path741"
         inkscape:connector-curvature="0" /><path
         d="m 3177.36,2578.58 -253.21,147.32 c -21.37,12.34 -18.69,33.89 5.99,48.14 l 241.34,140.61 c 24.67,14.25 62.01,15.79 83.37,3.46 l 253.21,-147.32 c 21.37,-12.34 18.69,-33.89 -5.98,-48.14 l -241.35,-140.61 c -24.68,-14.25 -62,-15.8 -83.37,-3.46"
         style="fill:#d9effb;fill-opacity:1;fill-rule:nonzero;stroke:none"
         id="path743"
         inkscape:connector-curvature="0" /><path
         d="m 3226.45,2776.33 -74.48,43.3 c -9.94,5.75 -9.94,15.06 0,20.81 9.95,5.74 26.1,5.74 36.04,0 l 74.47,-43.3 c 9.95,-5.75 9.95,-15.06 0,-20.81 -9.94,-5.74 -26.08,-5.74 -36.03,0"
         style="fill:#ffffff;fill-opacity:1;fill-rule:nonzero;stroke:none"
         id="path745"
         inkscape:connector-curvature="0" /><path
         d="m 3334.69,2713.06 -45.21,26.67 c -9.95,5.74 -9.95,15.06 0,20.8 9.94,5.75 26.09,5.75 36.04,0 l 45.2,-26.67 c 9.94,-5.74 9.94,-15.06 0,-20.81 -9.95,-5.74 -26.09,-5.74 -36.03,0.01"
         style="fill:#ffffff;fill-opacity:1;fill-rule:nonzero;stroke:none"
         id="path747"
         inkscape:connector-curvature="0" /><path
         d="m 3122.06,2749.73 -45.2,26.67 c -9.96,5.74 -9.96,15.07 0,20.81 9.94,5.74 26.08,5.74 36.03,0 l 45.21,-26.68 c 9.94,-5.74 9.94,-15.06 0,-20.8 -9.96,-5.74 -26.1,-5.74 -36.04,0"
         style="fill:#ffffff;fill-opacity:1;fill-rule:nonzero;stroke:none"
         id="path749"
         inkscape:connector-curvature="0" /><path
         d="m 5235.58,1209.76 -1413.18,815.9 c -39.98,23.08 -109.8,20.19 -155.96,-6.47 l -962.27,-555.38 c -46.16,-26.65 -51.18,-66.96 -11.2,-90.04 l 485.84,-280.5 c -38.57,-3.39 -75.68,-13.54 -105.38,-30.68 -74.03,-42.74 -74.02,-112.031 0,-154.77 74.03,-42.738 194.04,-42.738 268.06,0 29.7,17.149 47.27,38.578 53.14,60.852 l 114.8,-66.281 c -23.89,-5.45 -46.3,-13.711 -65.62,-24.86 -75.52,-43.609 -75.52,-114.293 0.01,-157.902 75.52,-43.598 197.96,-43.598 273.47,0 19.33,11.16 33.63,24.101 43.06,37.891 l 345.79,-199.641 c 39.98,-23.09 109.81,-20.188 155.97,6.461 l 962.27,555.37 c 46.16,26.65 51.18,66.98 11.2,90.05"
         style="fill:#b8d8ed;fill-opacity:1;fill-rule:nonzero;stroke:none"
         id="path751"
         inkscape:connector-curvature="0" /><path
         d="m 5618.89,2887.89 -1471.77,849.72 c -17.09,9.87 -34.46,11.39 -49.87,6.12 l 0.09,0.15 -2.67,-1.01 -0.66,-0.24 -53.18,-20.36 47.73,-23.37 -0.68,-2.6 -239.73,-1091.22 c -11.99,-54.61 12.04,-118.37 53.67,-142.4 l 1436.36,-829.29 -5.12,-60.86 58.13,22.52 c 19.53,9.14 35.17,29.79 41.63,59.21 l 239.73,1091.22 c 11.99,54.61 -12.03,118.37 -53.66,142.41"
         style="fill:#263c7a;fill-opacity:1;fill-rule:nonzero;stroke:none"
         id="path753"
         inkscape:connector-curvature="0" /><path
         d="m 5618.89,2887.89 -1471.77,849.72 c -17.09,9.87 -34.46,11.39 -49.87,6.12 l 0.09,0.15 -2.67,-1.01 -0.66,-0.24 -53.18,-20.36 47.73,-23.37 -0.68,-2.6 -157.99,-719.18 720.11,-561.04 1015.37,413.16 c -9.75,25.29 -25.97,46.8 -46.48,58.65"
         style="fill:#4067b1;fill-opacity:1;fill-rule:nonzero;stroke:none"
         id="path755"
         inkscape:connector-curvature="0" /><path
         d="m 5563.39,2720.15 112.04,47.7 c 2.05,43.39 -15.91,88.21 -45.39,112.18 l -177.34,-74.59 110.69,-85.29"
         style="fill:#2e4b8d;fill-opacity:1;fill-rule:nonzero;stroke:none"
         id="path757"
         inkscape:connector-curvature="0" /><path
         d="m 5281.93,1578.31 -1471.76,849.72 c -41.63,24.04 -65.66,87.8 -53.67,142.41 l 239.73,1091.22 c 12,54.61 55.48,79.39 97.11,55.35 L 5565.1,2867.29 c 41.64,-24.04 65.66,-87.79 53.66,-142.4 L 5379.04,1633.67 c -12,-54.61 -55.48,-79.4 -97.11,-55.36"
         style="fill:#d9effb;fill-opacity:1;fill-rule:nonzero;stroke:none"
         id="path759"
         inkscape:connector-curvature="0" /><path
         d="m 5250.03,1659.48 -1384.17,798.75 c -38.1,22 -60.08,80.34 -49.1,130.31 l 219.36,998.55 c 10.99,49.98 50.76,72.66 88.87,50.67 L 5509.15,2839 c 38.1,-21.99 60.09,-80.34 49.11,-130.31 l -219.37,-998.56 c -10.98,-49.97 -50.76,-72.65 -88.86,-50.65"
         style="fill:#ffffff;fill-opacity:1;fill-rule:nonzero;stroke:none"
         id="path761"
         inkscape:connector-curvature="0" /><path
         d="m 5250.03,1659.48 -1384.17,798.75 c -38.1,22 -60.08,80.34 -49.1,130.31 l 219.36,998.55 c 10.99,49.98 50.76,72.66 88.87,50.67 L 5509.15,2839 c 38.1,-21.99 60.09,-80.34 49.11,-130.31 l -219.37,-998.56 c -10.98,-49.97 -50.76,-72.65 -88.86,-50.65"
         style="fill:#ffffff;fill-opacity:1;fill-rule:nonzero;stroke:none"
         id="path763"
         inkscape:connector-curvature="0" /><path
         d="m 5302.25,1541.3 -201.18,26.57 -1298.66,749.77 c -41.63,24.05 -114.35,21.03 -162.43,-6.73 l -920.22,-531.09 -121.65,16.05 v -69.01 l 0.12,-0.02 c -0.79,-15.95 8.29,-31.3 27.93,-42.64 L 4097.92,834.488 c 41.63,-24.047 114.36,-21.027 162.43,6.731 l 1002.16,578.401 c 27.05,15.61 40.53,35.73 39.74,54.62 v 67.06"
         style="fill:#263c7a;fill-opacity:1;fill-rule:nonzero;stroke:none"
         id="path765"
         inkscape:connector-curvature="0" /><path
         d="m 4326.48,2015.07 -92.26,53.28 H 3219.83 l -500.07,-288.53 -121.65,16.05 v -69.01 l 0.12,-0.02 c -0.79,-15.95 8.29,-31.3 27.93,-42.64 L 4097.92,834.488 c 22,-12.707 52.69,-17.789 83.83,-15.707 l 144.73,1196.289"
         style="fill:#4067b1;fill-opacity:1;fill-rule:nonzero;stroke:none"
         id="path767"
         inkscape:connector-curvature="0" /><path
         d="m 2652.09,1788.76 -53.98,7.11 v -69.01 l 0.12,-0.02 c -0.79,-15.95 8.29,-31.3 27.93,-42.64 l 25.93,-14.97 v 119.53"
         style="fill:#5f92d3;fill-opacity:1;fill-rule:nonzero;stroke:none"
         id="path769"
         inkscape:connector-curvature="0" /><path
         d="m 4112.74,827.59 c 39.47,-14.961 95.88,-11.699 138.01,8.582 V 990.121 H 4112.74 V 827.59"
         style="fill:#2e4b8d;fill-opacity:1;fill-rule:nonzero;stroke:none"
         id="path771"
         inkscape:connector-curvature="0" /><path
         d="M 4097.92,903.422 2626.16,1753.15 c -41.63,24.03 -36.41,66.03 11.66,93.78 l 1002.16,578.4 c 48.08,27.76 120.8,30.77 162.43,6.74 l 1471.77,-849.73 c 41.63,-24.03 36.41,-66.03 -11.67,-93.78 L 4260.35,910.16 c -48.07,-27.762 -120.8,-30.769 -162.43,-6.738"
         style="fill:#d9effb;fill-opacity:1;fill-rule:nonzero;stroke:none"
         id="path773"
         inkscape:connector-curvature="0" /><path
         d="m 3252.12,2034.46 -66.59,38.45 c -5.34,3.08 -4.68,8.47 1.5,12.04 l 78.6,45.38 c 6.17,3.56 15.51,3.94 20.85,0.86 l 66.6,-38.45 c 5.35,-3.09 4.67,-8.48 -1.5,-12.04 l -78.6,-45.38 c -6.17,-3.57 -15.51,-3.96 -20.86,-0.86"
         style="fill:#263c7a;fill-opacity:1;fill-rule:nonzero;stroke:none"
         id="path775"
         inkscape:connector-curvature="0" /><path
         d="m 3354.96,1975.08 -66.59,38.45 c -5.35,3.09 -4.68,8.48 1.49,12.04 l 78.61,45.38 c 6.17,3.57 15.5,3.96 20.86,0.86 l 66.59,-38.44 c 5.34,-3.09 4.68,-8.48 -1.51,-12.05 l -78.59,-45.38 c -6.18,-3.56 -15.52,-3.94 -20.86,-0.86"
         style="fill:#263c7a;fill-opacity:1;fill-rule:nonzero;stroke:none"
         id="path777"
         inkscape:connector-curvature="0" /><path
         d="m 3457.79,1915.71 -66.59,38.45 c -5.34,3.08 -4.68,8.47 1.51,12.04 l 78.59,45.38 c 6.17,3.56 15.52,3.95 20.86,0.87 l 66.59,-38.45 c 5.35,-3.09 4.68,-8.49 -1.49,-12.05 l -78.61,-45.37 c -6.17,-3.57 -15.51,-3.96 -20.86,-0.87"
         style="fill:#263c7a;fill-opacity:1;fill-rule:nonzero;stroke:none"
         id="path779"
         inkscape:connector-curvature="0" /><path
         d="m 3600.02,1964.74 -66.59,38.45 c -5.34,3.09 -4.67,8.48 1.5,12.04 l 65.98,38.1 c 6.17,3.56 15.52,3.95 20.86,0.86 l 66.59,-38.44 c 5.35,-3.1 4.68,-8.49 -1.49,-12.05 l -65.99,-38.1 c -6.17,-3.56 -15.51,-3.94 -20.86,-0.86"
         style="fill:#263c7a;fill-opacity:1;fill-rule:nonzero;stroke:none"
         id="path781"
         inkscape:connector-curvature="0" /><path
         d="m 3702.86,1905.37 -66.59,38.44 c -5.35,3.09 -4.68,8.48 1.49,12.05 l 65.99,38.09 c 6.17,3.57 15.51,3.96 20.86,0.87 l 66.59,-38.45 c 5.34,-3.08 4.68,-8.47 -1.5,-12.04 l -65.98,-38.09 c -6.17,-3.57 -15.52,-3.96 -20.86,-0.87"
         style="fill:#263c7a;fill-opacity:1;fill-rule:nonzero;stroke:none"
         id="path783"
         inkscape:connector-curvature="0" /><path
         d="m 3805.69,1845.99 -66.59,38.45 c -5.34,3.09 -4.67,8.49 1.51,12.05 l 65.97,38.09 c 6.17,3.56 15.52,3.95 20.86,0.86 l 66.59,-38.44 c 5.35,-3.09 4.68,-8.48 -1.49,-12.04 l -65.99,-38.1 c -6.17,-3.56 -15.51,-3.95 -20.86,-0.87"
         style="fill:#263c7a;fill-opacity:1;fill-rule:nonzero;stroke:none"
         id="path785"
         inkscape:connector-curvature="0" /><path
         d="m 3908.54,1786.63 -66.6,38.43 c -5.35,3.1 -4.67,8.49 1.5,12.05 l 65.98,38.1 c 6.18,3.57 15.51,3.95 20.86,0.86 l 66.6,-38.45 c 5.34,-3.08 4.67,-8.47 -1.51,-12.04 l -65.98,-38.09 c -6.17,-3.57 -15.51,-3.96 -20.85,-0.86"
         style="fill:#263c7a;fill-opacity:1;fill-rule:nonzero;stroke:none"
         id="path787"
         inkscape:connector-curvature="0" /><path
         d="m 4011.37,1727.25 -66.59,38.45 c -5.35,3.08 -4.67,8.48 1.5,12.04 l 65.98,38.1 c 6.17,3.56 15.51,3.94 20.86,0.85 l 66.59,-38.44 c 5.35,-3.09 4.67,-8.48 -1.5,-12.04 l -65.98,-38.1 c -6.18,-3.56 -15.51,-3.94 -20.86,-0.86"
         style="fill:#263c7a;fill-opacity:1;fill-rule:nonzero;stroke:none"
         id="path789"
         inkscape:connector-curvature="0" /><path
         d="m 4114.21,1667.88 -66.59,38.44 c -5.35,3.09 -4.68,8.48 1.49,12.04 l 65.99,38.1 c 6.17,3.57 15.51,3.96 20.86,0.87 l 66.59,-38.45 c 5.34,-3.09 4.68,-8.48 -1.51,-12.05 l -65.97,-38.08 c -6.17,-3.57 -15.52,-3.96 -20.86,-0.87"
         style="fill:#263c7a;fill-opacity:1;fill-rule:nonzero;stroke:none"
         id="path791"
         inkscape:connector-curvature="0" /><path
         d="m 4217.04,1608.5 -66.59,38.45 c -5.34,3.08 -4.67,8.48 1.5,12.04 l 65.98,38.1 c 6.17,3.56 15.52,3.95 20.86,0.86 l 66.59,-38.44 c 5.35,-3.09 4.68,-8.48 -1.49,-12.04 l -65.99,-38.1 c -6.17,-3.56 -15.51,-3.95 -20.86,-0.87"
         style="fill:#263c7a;fill-opacity:1;fill-rule:nonzero;stroke:none"
         id="path793"
         inkscape:connector-curvature="0" /><path
         d="m 4319.88,1549.13 -66.59,38.44 c -5.35,3.09 -4.68,8.49 1.5,12.05 l 65.98,38.09 c 6.17,3.57 15.51,3.96 20.86,0.87 l 66.59,-38.45 c 5.34,-3.08 4.68,-8.47 -1.5,-12.04 L 4340.74,1550 c -6.17,-3.57 -15.52,-3.96 -20.86,-0.87"
         style="fill:#263c7a;fill-opacity:1;fill-rule:nonzero;stroke:none"
         id="path795"
         inkscape:connector-curvature="0" /><path
         d="m 4422.71,1489.76 -66.59,38.45 c -5.34,3.08 -4.66,8.48 1.51,12.04 l 65.97,38.1 c 6.18,3.56 15.52,3.94 20.86,0.85 l 66.59,-38.44 c 5.36,-3.09 4.68,-8.48 -1.49,-12.04 l -65.99,-38.1 c -6.17,-3.56 -15.5,-3.94 -20.86,-0.86"
         style="fill:#263c7a;fill-opacity:1;fill-rule:nonzero;stroke:none"
         id="path797"
         inkscape:connector-curvature="0" /><path
         d="m 4525.56,1430.39 -66.6,38.44 c -5.35,3.09 -4.67,8.48 1.5,12.04 l 65.99,38.1 c 6.17,3.56 15.5,3.95 20.85,0.86 l 66.6,-38.45 c 5.34,-3.08 4.67,-8.47 -1.51,-12.04 l -65.97,-38.09 c -6.18,-3.57 -15.52,-3.95 -20.86,-0.86"
         style="fill:#263c7a;fill-opacity:1;fill-rule:nonzero;stroke:none"
         id="path799"
         inkscape:connector-curvature="0" /><path
         d="m 3751.54,1992.85 -66.59,38.44 c -5.34,3.09 -4.67,8.48 1.51,12.05 l 65.97,38.09 c 6.17,3.57 15.52,3.96 20.86,0.87 l 66.59,-38.45 c 5.35,-3.08 4.68,-8.47 -1.49,-12.04 l -65.99,-38.09 c -6.17,-3.57 -15.51,-3.96 -20.86,-0.87"
         style="fill:#4067b1;fill-opacity:1;fill-rule:nonzero;stroke:none"
         id="path801"
         inkscape:connector-curvature="0" /><path
         d="m 3647.18,2053.11 -66.59,38.45 c -5.36,3.08 -4.68,8.47 1.49,12.04 l 65.99,38.09 c 6.17,3.57 15.5,3.96 20.86,0.86 l 66.59,-38.44 c 5.34,-3.09 4.67,-8.48 -1.51,-12.04 l -65.97,-38.1 c -6.17,-3.56 -15.52,-3.94 -20.86,-0.86"
         style="fill:#4067b1;fill-opacity:1;fill-rule:nonzero;stroke:none"
         id="path803"
         inkscape:connector-curvature="0" /><path
         d="m 3542.64,2113.46 -143.43,82.82 c -5.34,3.08 -4.68,8.47 1.5,12.04 l 65.98,38.09 c 6.17,3.57 15.52,3.95 20.86,0.86 l 143.42,-82.8 c 5.35,-3.09 4.67,-8.48 -1.5,-12.04 l -65.97,-38.1 c -6.19,-3.56 -15.52,-3.95 -20.86,-0.87"
         style="fill:#263c7a;fill-opacity:1;fill-rule:nonzero;stroke:none"
         id="path805"
         inkscape:connector-curvature="0" /><path
         d="m 3615.7,2186.87 -116.38,67.2 c -5.35,3.08 -4.68,8.47 1.49,12.04 l 65.99,38.09 c 6.17,3.57 15.5,3.96 20.86,0.87 l 116.38,-67.2 c 5.35,-3.09 4.68,-8.48 -1.49,-12.04 l -65.99,-38.1 c -6.17,-3.56 -15.51,-3.95 -20.86,-0.86"
         style="fill:#263c7a;fill-opacity:1;fill-rule:nonzero;stroke:none"
         id="path807"
         inkscape:connector-curvature="0" /><path
         d="m 3854.38,1933.48 -66.59,38.44 c -5.35,3.1 -4.67,8.49 1.5,12.05 l 65.98,38.1 c 6.18,3.56 15.51,3.94 20.86,0.86 l 66.59,-38.45 c 5.35,-3.09 4.68,-8.48 -1.5,-12.04 l -65.98,-38.1 c -6.17,-3.56 -15.51,-3.95 -20.86,-0.86"
         style="fill:#4067b1;fill-opacity:1;fill-rule:nonzero;stroke:none"
         id="path809"
         inkscape:connector-curvature="0" /><path
         d="m 3957.22,1874.11 -66.59,38.44 c -5.35,3.09 -4.67,8.48 1.5,12.05 l 65.98,38.09 c 6.17,3.57 15.51,3.95 20.85,0.86 l 66.6,-38.45 c 5.35,-3.08 4.67,-8.47 -1.5,-12.04 l -65.98,-38.09 c -6.18,-3.57 -15.51,-3.95 -20.86,-0.86"
         style="fill:#263c7a;fill-opacity:1;fill-rule:nonzero;stroke:none"
         id="path811"
         inkscape:connector-curvature="0" /><path
         d="m 4060.06,1814.73 -66.59,38.45 c -5.35,3.09 -4.68,8.48 1.49,12.04 l 65.99,38.1 c 6.17,3.56 15.51,3.95 20.86,0.87 l 66.59,-38.45 c 5.34,-3.1 4.68,-8.49 -1.51,-12.05 l -65.97,-38.09 c -6.17,-3.56 -15.52,-3.95 -20.86,-0.87"
         style="fill:#263c7a;fill-opacity:1;fill-rule:nonzero;stroke:none"
         id="path813"
         inkscape:connector-curvature="0" /><path
         d="m 4162.89,1755.36 -66.59,38.44 c -5.34,3.09 -4.67,8.48 1.5,12.05 l 65.98,38.09 c 6.17,3.57 15.52,3.96 20.86,0.87 l 66.59,-38.45 c 5.35,-3.08 4.68,-8.47 -1.49,-12.04 l -65.99,-38.09 c -6.17,-3.57 -15.51,-3.96 -20.86,-0.87"
         style="fill:#263c7a;fill-opacity:1;fill-rule:nonzero;stroke:none"
         id="path815"
         inkscape:connector-curvature="0" /><path
         d="m 4265.73,1695.98 -66.59,38.45 c -5.35,3.09 -4.68,8.49 1.49,12.05 l 65.99,38.09 c 6.17,3.56 15.51,3.95 20.86,0.87 l 66.59,-38.45 c 5.34,-3.09 4.68,-8.48 -1.5,-12.04 l -65.98,-38.1 c -6.17,-3.56 -15.52,-3.95 -20.86,-0.87"
         style="fill:#263c7a;fill-opacity:1;fill-rule:nonzero;stroke:none"
         id="path817"
         inkscape:connector-curvature="0" /><path
         d="m 4368.56,1636.62 -66.59,38.44 c -5.34,3.09 -4.67,8.48 1.51,12.05 l 65.97,38.09 c 6.18,3.57 15.52,3.95 20.86,0.86 l 66.59,-38.45 c 5.36,-3.08 4.68,-8.47 -1.49,-12.04 l -65.99,-38.09 c -6.17,-3.57 -15.5,-3.96 -20.86,-0.86"
         style="fill:#263c7a;fill-opacity:1;fill-rule:nonzero;stroke:none"
         id="path819"
         inkscape:connector-curvature="0" /><path
         d="m 4471.41,1577.24 -66.6,38.45 c -5.34,3.09 -4.67,8.48 1.5,12.04 l 65.98,38.1 c 6.18,3.56 15.51,3.94 20.86,0.86 l 66.6,-38.45 c 5.34,-3.09 4.67,-8.48 -1.51,-12.04 l -65.97,-38.1 c -6.18,-3.56 -15.52,-3.94 -20.86,-0.86"
         style="fill:#263c7a;fill-opacity:1;fill-rule:nonzero;stroke:none"
         id="path821"
         inkscape:connector-curvature="0" /><path
         d="m 4574.24,1517.87 -66.58,38.44 c -5.36,3.09 -4.68,8.48 1.49,12.05 l 65.98,38.09 c 6.18,3.57 15.51,3.96 20.86,0.87 l 66.59,-38.45 c 5.35,-3.08 4.68,-8.48 -1.5,-12.05 l -65.98,-38.08 c -6.17,-3.57 -15.51,-3.96 -20.86,-0.87"
         style="fill:#263c7a;fill-opacity:1;fill-rule:nonzero;stroke:none"
         id="path823"
         inkscape:connector-curvature="0" /><path
         d="m 4677.08,1458.49 -66.59,38.45 c -5.34,3.09 -4.68,8.48 1.49,12.04 l 65.99,38.1 c 6.17,3.56 15.51,3.95 20.86,0.86 l 66.59,-38.44 c 5.34,-3.09 4.68,-8.48 -1.5,-12.04 l -65.98,-38.1 c -6.17,-3.56 -15.52,-3.95 -20.86,-0.87"
         style="fill:#263c7a;fill-opacity:1;fill-rule:nonzero;stroke:none"
         id="path825"
         inkscape:connector-curvature="0" /><path
         d="m 4859.9,1352.94 -145.3,83.89 c -5.34,3.09 -4.67,8.48 1.5,12.04 l 65.98,38.1 c 6.18,3.56 15.52,3.94 20.86,0.86 l 145.3,-83.89 c 5.34,-3.08 4.68,-8.48 -1.5,-12.04 l -65.98,-38.1 c -6.17,-3.56 -15.52,-3.94 -20.86,-0.86"
         style="fill:#263c7a;fill-opacity:1;fill-rule:nonzero;stroke:none"
         id="path827"
         inkscape:connector-curvature="0" /><path
         d="m 5060.11,1468.53 -122.63,70.81 c -5.35,3.09 -4.68,8.48 1.49,12.04 l 65.98,38.1 c 6.18,3.56 15.52,3.94 20.86,0.86 l 122.64,-70.8 c 5.35,-3.09 4.68,-8.48 -1.5,-12.04 l -65.98,-38.1 c -6.18,-3.56 -15.51,-3.96 -20.86,-0.87"
         style="fill:#263c7a;fill-opacity:1;fill-rule:nonzero;stroke:none"
         id="path829"
         inkscape:connector-curvature="0" /><path
         d="m 4034.47,1945.09 -66.59,38.45 c -5.34,3.09 -4.68,8.48 1.5,12.04 l 65.98,38.1 c 6.17,3.56 15.51,3.95 20.86,0.87 l 66.59,-38.45 c 5.34,-3.09 4.68,-8.49 -1.49,-12.05 l -65.99,-38.09 c -6.17,-3.56 -15.51,-3.95 -20.86,-0.87"
         style="fill:#263c7a;fill-opacity:1;fill-rule:nonzero;stroke:none"
         id="path831"
         inkscape:connector-curvature="0" /><path
         d="m 3929.08,2005.94 -66.59,38.45 c -5.35,3.09 -4.68,8.48 1.49,12.04 l 65.98,38.1 c 6.18,3.56 15.52,3.95 20.87,0.87 l 66.58,-38.45 c 5.35,-3.09 4.68,-8.48 -1.49,-12.04 l -65.98,-38.1 c -6.18,-3.56 -15.52,-3.95 -20.86,-0.87"
         style="fill:#263c7a;fill-opacity:1;fill-rule:nonzero;stroke:none"
         id="path833"
         inkscape:connector-curvature="0" /><path
         d="m 3823.68,2066.79 -66.59,38.45 c -5.34,3.09 -4.68,8.48 1.5,12.04 l 65.98,38.1 c 6.17,3.56 15.52,3.95 20.86,0.87 l 66.59,-38.45 c 5.35,-3.09 4.68,-8.48 -1.49,-12.04 l -65.99,-38.1 c -6.17,-3.56 -15.51,-3.95 -20.86,-0.87"
         style="fill:#4067b1;fill-opacity:1;fill-rule:nonzero;stroke:none"
         id="path835"
         inkscape:connector-curvature="0" /><path
         d="m 3718.29,2127.64 -66.59,38.45 c -5.35,3.09 -4.68,8.48 1.49,12.04 l 65.99,38.1 c 6.17,3.56 15.51,3.95 20.86,0.87 l 66.59,-38.45 c 5.34,-3.09 4.67,-8.48 -1.5,-12.04 l -65.98,-38.1 c -6.17,-3.56 -15.52,-3.95 -20.86,-0.87"
         style="fill:#263c7a;fill-opacity:1;fill-rule:nonzero;stroke:none"
         id="path837"
         inkscape:connector-curvature="0" /><path
         d="m 4137.31,1885.72 -66.59,38.45 c -5.35,3.08 -4.68,8.47 1.5,12.04 l 65.97,38.09 c 6.19,3.57 15.52,3.96 20.86,0.87 l 66.59,-38.45 c 5.36,-3.08 4.68,-8.47 -1.49,-12.04 l -65.98,-38.09 c -6.18,-3.57 -15.51,-3.96 -20.86,-0.87"
         style="fill:#263c7a;fill-opacity:1;fill-rule:nonzero;stroke:none"
         id="path839"
         inkscape:connector-curvature="0" /><path
         d="m 4240.15,1826.35 -66.6,38.44 c -5.34,3.1 -4.67,8.49 1.51,12.05 l 65.98,38.1 c 6.17,3.56 15.5,3.94 20.85,0.86 l 66.6,-38.45 c 5.34,-3.09 4.67,-8.48 -1.5,-12.04 l -65.98,-38.1 c -6.18,-3.56 -15.51,-3.95 -20.86,-0.86"
         style="fill:#263c7a;fill-opacity:1;fill-rule:nonzero;stroke:none"
         id="path841"
         inkscape:connector-curvature="0" /><path
         d="m 4342.99,1766.98 -66.59,38.45 c -5.36,3.08 -4.68,8.47 1.49,12.04 l 65.98,38.09 c 6.18,3.57 15.51,3.95 20.87,0.86 l 66.58,-38.45 c 5.35,-3.08 4.68,-8.47 -1.5,-12.04 l -65.97,-38.09 c -6.18,-3.57 -15.52,-3.95 -20.86,-0.86"
         style="fill:#263c7a;fill-opacity:1;fill-rule:nonzero;stroke:none"
         id="path843"
         inkscape:connector-curvature="0" /><path
         d="m 4445.82,1707.6 -66.59,38.45 c -5.34,3.09 -4.68,8.48 1.5,12.04 l 65.98,38.1 c 6.17,3.56 15.52,3.95 20.86,0.86 l 66.59,-38.44 c 5.34,-3.1 4.68,-8.49 -1.49,-12.05 l -65.99,-38.1 c -6.17,-3.56 -15.51,-3.94 -20.86,-0.86"
         style="fill:#263c7a;fill-opacity:1;fill-rule:nonzero;stroke:none"
         id="path845"
         inkscape:connector-curvature="0" /><path
         d="m 4548.66,1648.23 -66.59,38.45 c -5.35,3.08 -4.68,8.47 1.49,12.04 l 65.98,38.09 c 6.18,3.57 15.52,3.96 20.87,0.87 l 66.58,-38.45 c 5.35,-3.08 4.68,-8.47 -1.49,-12.04 l -65.98,-38.09 c -6.18,-3.57 -15.52,-3.96 -20.86,-0.87"
         style="fill:#263c7a;fill-opacity:1;fill-rule:nonzero;stroke:none"
         id="path847"
         inkscape:connector-curvature="0" /><path
         d="m 4651.49,1588.85 -66.59,38.45 c -5.34,3.09 -4.68,8.49 1.51,12.05 l 65.97,38.09 c 6.17,3.56 15.52,3.95 20.86,0.87 l 66.59,-38.45 c 5.35,-3.09 4.68,-8.48 -1.49,-12.04 l -65.99,-38.1 c -6.17,-3.56 -15.5,-3.95 -20.86,-0.87"
         style="fill:#263c7a;fill-opacity:1;fill-rule:nonzero;stroke:none"
         id="path849"
         inkscape:connector-curvature="0" /><path
         d="m 4754.34,1529.49 -66.6,38.44 c -5.35,3.09 -4.67,8.48 1.5,12.05 l 65.98,38.09 c 6.18,3.57 15.51,3.95 20.86,0.86 l 66.59,-38.45 c 5.35,-3.08 4.67,-8.47 -1.5,-12.04 l -65.97,-38.09 c -6.19,-3.57 -15.52,-3.96 -20.86,-0.86"
         style="fill:#263c7a;fill-opacity:1;fill-rule:nonzero;stroke:none"
         id="path851"
         inkscape:connector-curvature="0" /><path
         d="m 4857.17,1470.11 -66.59,38.45 c -5.35,3.09 -4.68,8.48 1.5,12.04 l 65.98,38.1 c 6.17,3.56 15.51,3.94 20.86,0.86 l 66.59,-38.45 c 5.34,-3.09 4.68,-8.48 -1.5,-12.04 l -65.98,-38.1 c -6.17,-3.56 -15.51,-3.94 -20.86,-0.86"
         style="fill:#263c7a;fill-opacity:1;fill-rule:nonzero;stroke:none"
         id="path853"
         inkscape:connector-curvature="0" /><path
         d="m 4960.01,1410.74 -66.59,38.45 c -5.35,3.08 -4.68,8.47 1.49,12.04 l 65.99,38.09 c 6.17,3.57 15.51,3.96 20.86,0.87 l 66.58,-38.45 c 5.35,-3.08 4.68,-8.48 -1.49,-12.05 l -65.98,-38.08 c -6.18,-3.57 -15.52,-3.96 -20.86,-0.87"
         style="fill:#263c7a;fill-opacity:1;fill-rule:nonzero;stroke:none"
         id="path855"
         inkscape:connector-curvature="0" /><path
         d="m 3980.32,2091.95 -66.59,38.45 c -5.34,3.08 -4.68,8.47 1.5,12.04 l 65.98,38.09 c 6.17,3.57 15.52,3.96 20.86,0.87 l 66.59,-38.45 c 5.34,-3.08 4.68,-8.48 -1.49,-12.05 l -65.99,-38.08 c -6.17,-3.57 -15.51,-3.96 -20.86,-0.87"
         style="fill:#263c7a;fill-opacity:1;fill-rule:nonzero;stroke:none"
         id="path857"
         inkscape:connector-curvature="0" /><path
         d="m 3878,2151.03 -66.59,38.45 c -5.35,3.08 -4.68,8.47 1.49,12.04 l 65.99,38.09 c 6.17,3.57 15.5,3.95 20.86,0.86 l 66.59,-38.44 c 5.34,-3.09 4.68,-8.48 -1.51,-12.04 l -65.97,-38.1 c -6.17,-3.56 -15.51,-3.95 -20.86,-0.86"
         style="fill:#263c7a;fill-opacity:1;fill-rule:nonzero;stroke:none"
         id="path859"
         inkscape:connector-curvature="0" /><path
         d="m 3775.67,2210.1 -66.59,38.45 c -5.35,3.09 -4.68,8.48 1.5,12.04 l 65.98,38.1 c 6.17,3.56 15.51,3.95 20.86,0.87 l 66.59,-38.45 c 5.35,-3.09 4.68,-8.48 -1.5,-12.04 l -65.98,-38.1 c -6.17,-3.56 -15.51,-3.95 -20.86,-0.87"
         style="fill:#263c7a;fill-opacity:1;fill-rule:nonzero;stroke:none"
         id="path861"
         inkscape:connector-curvature="0" /><path
         d="m 3673.35,2269.19 -66.59,38.44 c -5.35,3.09 -4.68,8.48 1.49,12.04 l 65.99,38.1 c 6.17,3.56 15.51,3.94 20.86,0.86 l 66.59,-38.45 c 5.34,-3.08 4.67,-8.48 -1.5,-12.04 l -65.98,-38.1 c -6.17,-3.56 -15.52,-3.94 -20.86,-0.85"
         style="fill:#263c7a;fill-opacity:1;fill-rule:nonzero;stroke:none"
         id="path863"
         inkscape:connector-curvature="0" /><path
         d="m 3778.56,2329.93 -66.58,38.44 c -5.35,3.1 -4.68,8.49 1.5,12.06 l 21.8,12.58 c 6.18,3.57 15.52,3.96 20.86,0.87 l 66.59,-38.44 c 5.36,-3.09 4.68,-8.48 -1.49,-12.05 l -21.82,-12.59 c -6.17,-3.57 -15.5,-3.96 -20.86,-0.87"
         style="fill:#263c7a;fill-opacity:1;fill-rule:nonzero;stroke:none"
         id="path865"
         inkscape:connector-curvature="0" /><path
         d="m 3912.1,2252.84 -66.59,38.44 c -5.34,3.09 -4.67,8.48 1.5,12.05 l 21.81,12.59 c 6.18,3.57 15.52,3.95 20.86,0.86 l 66.59,-38.44 c 5.35,-3.09 4.68,-8.48 -1.49,-12.05 l -21.82,-12.59 c -6.17,-3.57 -15.51,-3.95 -20.86,-0.86"
         style="fill:#263c7a;fill-opacity:1;fill-rule:nonzero;stroke:none"
         id="path867"
         inkscape:connector-curvature="0" /><path
         d="m 4014,2194 -66.59,38.45 c -5.35,3.09 -4.68,8.48 1.5,12.05 l 21.81,12.59 c 6.17,3.56 15.51,3.95 20.86,0.86 l 66.59,-38.44 c 5.35,-3.09 4.68,-8.48 -1.5,-12.04 l -21.81,-12.6 c -6.17,-3.57 -15.51,-3.96 -20.86,-0.87"
         style="fill:#263c7a;fill-opacity:1;fill-rule:nonzero;stroke:none"
         id="path869"
         inkscape:connector-curvature="0" /><path
         d="m 4115.9,2135.17 -66.59,38.45 c -5.35,3.08 -4.67,8.48 1.5,12.04 l 21.81,12.6 c 6.17,3.56 15.51,3.94 20.86,0.86 l 66.59,-38.45 c 5.35,-3.09 4.68,-8.48 -1.5,-12.04 l -21.81,-12.59 c -6.17,-3.56 -15.51,-3.95 -20.86,-0.87"
         style="fill:#263c7a;fill-opacity:1;fill-rule:nonzero;stroke:none"
         id="path871"
         inkscape:connector-curvature="0" /><path
         d="m 4217.8,2076.34 -66.59,38.45 c -5.35,3.09 -4.68,8.48 1.5,12.04 l 21.81,12.6 c 6.17,3.56 15.51,3.94 20.86,0.86 l 66.59,-38.45 c 5.34,-3.08 4.68,-8.48 -1.5,-12.04 l -21.81,-12.6 c -6.17,-3.56 -15.52,-3.94 -20.86,-0.86"
         style="fill:#263c7a;fill-opacity:1;fill-rule:nonzero;stroke:none"
         id="path873"
         inkscape:connector-curvature="0" /><path
         d="m 4786.69,1747.9 -66.59,38.44 c -5.35,3.09 -4.68,8.48 1.49,12.04 l 21.82,12.6 c 6.17,3.57 15.51,3.95 20.86,0.86 l 66.59,-38.45 c 5.34,-3.08 4.67,-8.47 -1.5,-12.04 l -21.81,-12.59 c -6.17,-3.57 -15.52,-3.95 -20.86,-0.86"
         style="fill:#263c7a;fill-opacity:1;fill-rule:nonzero;stroke:none"
         id="path875"
         inkscape:connector-curvature="0" /><path
         d="m 4888.58,1689.07 -66.59,38.44 c -5.34,3.09 -4.68,8.48 1.51,12.05 l 21.8,12.58 c 6.17,3.57 15.52,3.96 20.86,0.87 l 66.59,-38.44 c 5.36,-3.09 4.68,-8.48 -1.49,-12.04 l -21.82,-12.6 c -6.17,-3.57 -15.5,-3.96 -20.86,-0.86"
         style="fill:#263c7a;fill-opacity:1;fill-rule:nonzero;stroke:none"
         id="path877"
         inkscape:connector-curvature="0" /><path
         d="m 4990.49,1630.23 -66.59,38.45 c -5.36,3.08 -4.68,8.47 1.49,12.04 l 21.82,12.6 c 6.17,3.56 15.5,3.95 20.86,0.86 l 66.59,-38.44 c 5.34,-3.1 4.67,-8.49 -1.51,-12.05 l -21.8,-12.59 c -6.18,-3.57 -15.52,-3.96 -20.86,-0.87"
         style="fill:#263c7a;fill-opacity:1;fill-rule:nonzero;stroke:none"
         id="path879"
         inkscape:connector-curvature="0" /><path
         d="m 5092.38,1571.4 -66.59,38.45 c -5.34,3.09 -4.68,8.48 1.5,12.04 l 21.81,12.6 c 6.17,3.56 15.52,3.94 20.86,0.86 l 66.59,-38.45 c 5.35,-3.09 4.68,-8.48 -1.49,-12.04 l -21.82,-12.6 c -6.17,-3.56 -15.51,-3.94 -20.86,-0.86"
         style="fill:#263c7a;fill-opacity:1;fill-rule:nonzero;stroke:none"
         id="path881"
         inkscape:connector-curvature="0" /><path
         d="m 4083.16,2032.57 -66.59,38.45 c -5.35,3.09 -4.68,8.48 1.5,12.04 l 65.97,38.1 c 6.18,3.56 15.52,3.95 20.87,0.87 l 66.58,-38.45 c 5.36,-3.09 4.68,-8.48 -1.49,-12.04 l -65.98,-38.1 c -6.18,-3.56 -15.51,-3.95 -20.86,-0.87"
         style="fill:#263c7a;fill-opacity:1;fill-rule:nonzero;stroke:none"
         id="path883"
         inkscape:connector-curvature="0" /><path
         d="m 4186,1973.21 -66.6,38.44 c -5.34,3.09 -4.67,8.48 1.51,12.05 l 65.97,38.09 c 6.18,3.57 15.52,3.95 20.86,0.86 l 66.6,-38.45 c 5.34,-3.08 4.67,-8.47 -1.5,-12.04 l -65.98,-38.09 c -6.18,-3.57 -15.51,-3.96 -20.86,-0.86"
         style="fill:#263c7a;fill-opacity:1;fill-rule:nonzero;stroke:none"
         id="path885"
         inkscape:connector-curvature="0" /><path
         d="m 4288.84,1913.83 -66.59,38.45 c -5.36,3.09 -4.68,8.48 1.49,12.04 l 65.99,38.1 c 6.17,3.56 15.5,3.94 20.86,0.86 l 66.58,-38.45 c 5.35,-3.09 4.68,-8.48 -1.5,-12.04 l -65.97,-38.1 c -6.18,-3.56 -15.52,-3.94 -20.86,-0.86"
         style="fill:#263c7a;fill-opacity:1;fill-rule:nonzero;stroke:none"
         id="path887"
         inkscape:connector-curvature="0" /><path
         d="m 4391.67,1854.46 -66.59,38.45 c -5.34,3.08 -4.68,8.47 1.5,12.04 l 65.98,38.09 c 6.17,3.57 15.52,3.96 20.86,0.86 l 66.59,-38.44 c 5.34,-3.09 4.68,-8.48 -1.49,-12.05 l -65.99,-38.09 c -6.17,-3.57 -15.51,-3.95 -20.86,-0.86"
         style="fill:#263c7a;fill-opacity:1;fill-rule:nonzero;stroke:none"
         id="path889"
         inkscape:connector-curvature="0" /><path
         d="m 4494.51,1795.08 -66.59,38.45 c -5.35,3.09 -4.68,8.48 1.49,12.04 l 65.99,38.1 c 6.17,3.56 15.51,3.95 20.86,0.87 l 66.58,-38.45 c 5.35,-3.09 4.68,-8.48 -1.49,-12.04 l -65.98,-38.1 c -6.18,-3.56 -15.52,-3.95 -20.86,-0.87"
         style="fill:#263c7a;fill-opacity:1;fill-rule:nonzero;stroke:none"
         id="path891"
         inkscape:connector-curvature="0" /><path
         d="m 4597.34,1735.71 -66.59,38.45 c -5.34,3.08 -4.68,8.48 1.51,12.05 l 65.97,38.08 c 6.17,3.57 15.52,3.96 20.86,0.87 l 66.59,-38.45 c 5.36,-3.08 4.68,-8.47 -1.49,-12.04 l -65.99,-38.09 c -6.17,-3.57 -15.5,-3.96 -20.86,-0.87"
         style="fill:#263c7a;fill-opacity:1;fill-rule:nonzero;stroke:none"
         id="path893"
         inkscape:connector-curvature="0" /><path
         d="m 4700.19,1676.34 -66.6,38.44 c -5.35,3.1 -4.67,8.49 1.5,12.05 l 65.98,38.1 c 6.18,3.56 15.51,3.94 20.86,0.86 l 66.6,-38.45 c 5.34,-3.09 4.66,-8.48 -1.51,-12.04 l -65.98,-38.1 c -6.18,-3.56 -15.51,-3.95 -20.85,-0.86"
         style="fill:#263c7a;fill-opacity:1;fill-rule:nonzero;stroke:none"
         id="path895"
         inkscape:connector-curvature="0" /><path
         d="m 4803.02,1616.97 -66.59,38.45 c -5.35,3.08 -4.68,8.47 1.5,12.04 l 65.98,38.09 c 6.17,3.57 15.51,3.95 20.86,0.86 l 66.59,-38.45 c 5.35,-3.08 4.68,-8.47 -1.5,-12.04 l -65.98,-38.09 c -6.17,-3.57 -15.51,-3.95 -20.86,-0.86"
         style="fill:#263c7a;fill-opacity:1;fill-rule:nonzero;stroke:none"
         id="path897"
         inkscape:connector-curvature="0" /><path
         d="m 4905.86,1557.59 -66.59,38.45 c -5.35,3.09 -4.68,8.48 1.49,12.04 l 65.99,38.1 c 6.17,3.56 15.51,3.95 20.86,0.87 l 66.59,-38.45 c 5.34,-3.1 4.67,-8.49 -1.5,-12.05 l -65.98,-38.09 c -6.17,-3.56 -15.52,-3.95 -20.86,-0.87"
         style="fill:#263c7a;fill-opacity:1;fill-rule:nonzero;stroke:none"
         id="path899"
         inkscape:connector-curvature="0" /><path
         d="m 3495.22,2025.25 -196.11,113.22 c -5.35,3.09 -4.68,8.49 1.5,12.05 l 65.97,38.09 c 6.18,3.56 15.52,3.95 20.86,0.87 l 196.12,-113.23 c 5.35,-3.09 4.68,-8.48 -1.49,-12.05 l -65.99,-38.09 c -6.17,-3.57 -15.5,-3.95 -20.86,-0.86"
         style="fill:#263c7a;fill-opacity:1;fill-rule:nonzero;stroke:none"
         id="path901"
         inkscape:connector-curvature="0" /><path
         d="m 4758.6,1295.84 -196.12,113.23 c -5.34,3.08 -4.68,8.47 1.5,12.04 l 65.98,38.09 c 6.17,3.57 15.52,3.95 20.86,0.86 l 196.12,-113.22 c 5.35,-3.08 4.68,-8.48 -1.5,-12.05 l -65.98,-38.09 c -6.17,-3.56 -15.51,-3.95 -20.86,-0.86"
         style="fill:#263c7a;fill-opacity:1;fill-rule:nonzero;stroke:none"
         id="path903"
         inkscape:connector-curvature="0" /><path
         d="m 4347.34,1402.12 -66.59,38.45 c -5.35,3.09 -4.68,8.48 1.5,12.04 l 78.6,45.38 c 6.17,3.57 15.52,3.96 20.86,0.87 l 66.59,-38.44 c 5.34,-3.09 4.68,-8.48 -1.49,-12.05 l -78.61,-45.38 c -6.17,-3.56 -15.51,-3.95 -20.86,-0.87"
         style="fill:#263c7a;fill-opacity:1;fill-rule:nonzero;stroke:none"
         id="path905"
         inkscape:connector-curvature="0" /><path
         d="m 3600.54,1833.3 -106.5,61.48 c -5.35,3.09 -4.67,8.48 1.5,12.04 l 78.6,45.38 c 6.17,3.57 15.51,3.96 20.86,0.87 l 106.49,-61.48 c 5.36,-3.09 4.68,-8.49 -1.49,-12.05 l -78.6,-45.38 c -6.18,-3.57 -15.51,-3.95 -20.86,-0.86"
         style="fill:#263c7a;fill-opacity:1;fill-rule:nonzero;stroke:none"
         id="path907"
         inkscape:connector-curvature="0" /><path
         d="m 4248.26,1459.33 -106.5,61.5 c -5.34,3.08 -4.68,8.47 1.5,12.04 l 78.6,45.38 c 6.17,3.56 15.51,3.94 20.85,0.86 l 106.51,-61.49 c 5.34,-3.08 4.68,-8.47 -1.51,-12.04 l -78.59,-45.38 c -6.18,-3.56 -15.52,-3.95 -20.86,-0.87"
         style="fill:#263c7a;fill-opacity:1;fill-rule:nonzero;stroke:none"
         id="path909"
         inkscape:connector-curvature="0" /><path
         d="m 3748.91,1747.63 -106.5,61.49 c -5.35,3.08 -4.68,8.48 1.5,12.05 l 78.6,45.37 c 6.17,3.56 15.52,3.95 20.86,0.87 l 106.49,-61.49 c 5.35,-3.08 4.68,-8.47 -1.49,-12.04 l -78.6,-45.38 c -6.18,-3.56 -15.51,-3.95 -20.86,-0.87"
         style="fill:#263c7a;fill-opacity:1;fill-rule:nonzero;stroke:none"
         id="path911"
         inkscape:connector-curvature="0" /><path
         d="m 3744.09,1866.99 463.02,-267.33 c 5.75,-3.32 5.75,-8.69 0,-12.01 l -80.15,-46.28 c -5.74,-3.31 -15.06,-3.31 -20.81,0 l -463.02,267.34 100.96,58.28"
         style="fill:#263c7a;fill-opacity:1;fill-rule:nonzero;stroke:none"
         id="path913"
         inkscape:connector-curvature="0" /><path
         d="m 4634.76,1294.48 74.18,-42.82 c 4.37,-2.53 3.82,-6.96 -1.23,-9.88 l -32.16,-18.56 c -5.06,-2.92 -12.72,-3.24 -17.1,-0.71 l -74.17,42.83 c -4.39,2.53 -3.84,6.94 1.23,9.86 l 32.15,18.57 c 5.05,2.92 12.71,3.24 17.1,0.71"
         style="fill:#263c7a;fill-opacity:1;fill-rule:nonzero;stroke:none"
         id="path915"
         inkscape:connector-curvature="0" /><path
         d="m 4531.06,1354.34 74.18,-42.82 c 4.38,-2.53 3.83,-6.95 -1.23,-9.87 l -32.15,-18.57 c -5.06,-2.92 -12.72,-3.24 -17.09,-0.7 l -74.18,42.82 c -4.39,2.53 -3.83,6.95 1.23,9.87 l 32.14,18.57 c 5.06,2.92 12.72,3.23 17.1,0.7"
         style="fill:#263c7a;fill-opacity:1;fill-rule:nonzero;stroke:none"
         id="path917"
         inkscape:connector-curvature="0" /><path
         d="m 4428.23,1413.72 74.17,-42.83 c 4.39,-2.53 3.84,-6.95 -1.23,-9.87 l -32.15,-18.56 c -5.06,-2.92 -12.71,-3.25 -17.1,-0.72 l -74.17,42.84 c -4.38,2.53 -3.83,6.94 1.22,9.86 l 32.16,18.56 c 5.06,2.93 12.72,3.25 17.1,0.72"
         style="fill:#263c7a;fill-opacity:1;fill-rule:nonzero;stroke:none"
         id="path919"
         inkscape:connector-curvature="0" /><path
         d="m 4587.85,1387.13 74.18,-42.83 c 4.39,-2.53 3.83,-6.94 -1.23,-9.87 l -32.15,-18.57 c -5.07,-2.92 -12.71,-3.23 -17.1,-0.7 l -74.18,42.82 c -4.38,2.53 -3.83,6.96 1.23,9.88 l 32.15,18.56 c 5.07,2.92 12.73,3.24 17.1,0.71"
         style="fill:#263c7a;fill-opacity:1;fill-rule:nonzero;stroke:none"
         id="path921"
         inkscape:connector-curvature="0" /><path
         d="m 3107.4,2335.36 c 0,0 4.94,-101.94 12.7,-170.43 7.76,-68.51 172.74,52.61 172.74,52.61 v 77.99 l -185.44,39.83"
         style="fill:#5a3c9f;fill-opacity:1;fill-rule:nonzero;stroke:none"
         id="path923"
         inkscape:connector-curvature="0" /><path
         d="m 3195.27,1067.16 c 2.48,-6.2 45.23,-58.24 87.97,-71.25 18.59,-5.648 31.09,-6.379 39.27,-5.418 8.22,0.977 13.3,9.457 10.53,17.248 -7.37,20.7 -28.45,63.84 -82.01,90.39 -72.49,35.94 -55.76,-30.97 -55.76,-30.97"
         style="fill:#263c7a;fill-opacity:1;fill-rule:nonzero;stroke:none"
         id="path925"
         inkscape:connector-curvature="0" /><path
         d="m 3181.03,1047.17 c 0,0 16.1,-37.79 21.06,-69.381 3.02,-19.277 -7.56,-44.309 -16.27,-60.91 -5.4,-10.289 -19.1,-12.609 -27.71,-4.789 -13.98,12.672 -31.76,34.691 -34.7,66.308 -4.95,53.292 0,62.572 0,62.572 l 57.62,6.2"
         style="fill:#263c7a;fill-opacity:1;fill-rule:nonzero;stroke:none"
         id="path927"
         inkscape:connector-curvature="0" /><path
         d="m 3078.05,1691.11 c 0,0 -5.58,-67.21 0,-141.54 5.57,-74.35 25.53,-422.01 29.25,-505.64 0,0 -1.86,-25.32 47.16,-19.74 49.02,5.57 45.07,33.68 45.07,33.68 0,0 68.84,0.92 71.01,41.5 2.17,40.58 70.5,484.56 70.5,644.18 l -262.99,-52.44"
         style="fill:#fad644;fill-opacity:1;fill-rule:nonzero;stroke:none"
         id="path929"
         inkscape:connector-curvature="0" /><path
         d="m 3366.51,2038.6 33.73,-52.24 115.94,-140.04 c 0,0 -3.98,-12.98 -18.42,-16.39 -11.28,-2.66 -108.79,90.38 -150.89,131.2 -11.2,10.84 -13.06,28.1 -4.45,41.09 l 24.09,36.38"
         style="fill:#fab6a9;fill-opacity:1;fill-rule:nonzero;stroke:none"
         id="path931"
         inkscape:connector-curvature="0" /><path
         d="m 3300.71,2253.02 c 0,0 53.59,1.39 72.24,-76.04 18.65,-77.43 33.24,-174.39 17.01,-182.44 -48.69,-24.19 -79.51,4.12 -79.51,4.12 l -9.74,254.36"
         style="fill:#6f41a4;fill-opacity:1;fill-rule:nonzero;stroke:none"
         id="path933"
         inkscape:connector-curvature="0" /><path
         d="m 3316.75,2249.73 c -9.14,3.82 -19.4,4.33 -28.92,1.59 -45.64,-13.1 -217.27,-63.47 -245.55,-87.65 -32.69,-27.93 49,-184.9 47.83,-236.36 -1.18,-51.46 -6.98,-112.14 -11.53,-168.09 -4.55,-55.94 -10.7,-86.62 35.06,-110.4 45.75,-23.79 123.89,-24.88 182.38,19.68 58.47,44.56 47.87,75.06 45.44,107.4 -2.44,32.36 -22.36,172.28 -20.63,212 0,0 20.61,15.18 35.87,41.22 15.26,26.03 -11.7,73.88 -22.89,105 -11.19,31.11 6.32,66.69 2.85,92.07 -1.79,13.06 -10.13,19.46 -19.91,23.54"
         style="fill:#7844a6;fill-opacity:1;fill-rule:nonzero;stroke:none"
         id="path935"
         inkscape:connector-curvature="0" /><path
         d="m 3261.88,2196.23 c 3.63,-28.28 -22.31,-54.9 -57.92,-59.46 -35.61,-4.56 -67.42,14.66 -71.04,42.93 -3.61,28.27 22.31,54.89 57.93,59.45 35.61,4.57 67.41,-14.66 71.03,-42.92"
         style="fill:#ffffff;fill-opacity:1;fill-rule:nonzero;stroke:none"
         id="path937"
         inkscape:connector-curvature="0" /><path
         d="m 3243.49,2193.86 c 2.58,-20.2 -15.95,-39.23 -41.4,-42.48 -25.45,-3.26 -48.18,10.47 -50.77,30.68 -2.59,20.2 15.95,39.22 41.39,42.49 25.46,3.26 48.19,-10.48 50.78,-30.69"
         style="fill:#fab6a9;fill-opacity:1;fill-rule:nonzero;stroke:none"
         id="path939"
         inkscape:connector-curvature="0" /><path
         d="m 3218.19,2260.21 c 0,0 -30.97,25.48 -37.06,12.57 -6.09,-12.9 -11.1,-68.28 -11.1,-68.28 l 61.52,-16.54 -9.33,56.12 c 0,0 12.31,10.44 -4.03,16.13"
         style="fill:#fab6a9;fill-opacity:1;fill-rule:nonzero;stroke:none"
         id="path941"
         inkscape:connector-curvature="0" /><path
         d="m 3314.36,2320.89 c -3,-50.64 -46.48,-89.27 -97.13,-86.28 -50.65,2.99 -89.28,46.47 -86.29,97.12 3,50.65 46.47,89.28 97.13,86.28 50.64,-2.98 89.27,-46.47 86.29,-97.12"
         style="fill:#fab6a9;fill-opacity:1;fill-rule:nonzero;stroke:none"
         id="path943"
         inkscape:connector-curvature="0" /><path
         d="m 3176.84,2256.72 c -0.55,-2.89 -1.07,-5.98 -1.57,-9.16 6.19,-31.95 54.01,-45.94 54.01,-45.94 l -7.06,42.46 c 0,0 5.79,4.91 4.15,9.84 -18.9,5.97 -42.72,11.25 -49.53,2.8"
         style="fill:#eb8b8a;fill-opacity:1;fill-rule:nonzero;stroke:none"
         id="path945"
         inkscape:connector-curvature="0" /><path
         d="m 3314.36,2320.89 c -3,-50.64 -46.48,-89.27 -97.13,-86.28 -50.65,2.99 -89.28,46.47 -86.29,97.12 3,50.65 46.47,89.28 97.13,86.28 50.64,-2.98 89.27,-46.47 86.29,-97.12"
         style="fill:#fab6a9;fill-opacity:1;fill-rule:nonzero;stroke:none"
         id="path947"
         inkscape:connector-curvature="0" /><path
         d="m 2996.3,1937.46 10.29,-245.83 35.94,-3.71 23.39,221.29 -69.62,28.25"
         style="fill:#fab6a9;fill-opacity:1;fill-rule:nonzero;stroke:none"
         id="path949"
         inkscape:connector-curvature="0" /><path
         d="m 3114.41,1958 c -11.89,52.49 -35.39,168.47 -35.39,168.47 l -10.04,-115.35 c 11.59,-34.21 21.54,-65.62 21.13,-83.81 -0.7,-30.2 -2.99,-63.6 -5.68,-97.33 v -0.1 c 0,0 41.88,75.62 29.98,128.12"
         style="fill:#6f41a4;fill-opacity:1;fill-rule:nonzero;stroke:none"
         id="path951"
         inkscape:connector-curvature="0" /><path
         d="m 3049.14,2168.71 c 0,0 -28.74,-10.98 -45,-99.25 -16.27,-88.27 -28.43,-176.7 0.56,-188.1 29,-11.38 53.23,-19.96 61.76,3.66 8.52,23.61 13.8,137.37 14.87,178.29 1.07,40.9 2.63,97.31 -32.19,105.4"
         style="fill:#8e54b0;fill-opacity:1;fill-rule:nonzero;stroke:none"
         id="path953"
         inkscape:connector-curvature="0" /><path
         d="m 3507.58,1856.56 c 0,0 15.56,-5.71 26.81,-17.97 9.23,-10.06 14.29,-18.58 18.32,-24.6 8.95,-13.35 16.5,-42.22 11.05,-45.81 -5.46,-3.59 -36.68,48.33 -41.72,36.25 -5.03,-12.08 0.05,-23.24 -6.41,-23.42 -6.45,-0.18 -28.88,52.19 -46.53,68.43 -17.64,16.24 38.48,7.12 38.48,7.12"
         style="fill:#fab6a9;fill-opacity:1;fill-rule:nonzero;stroke:none"
         id="path955"
         inkscape:connector-curvature="0" /><path
         d="m 3199.53,1057.87 c 0,0 8.54,0.12 19.67,2.04 l 13.48,540.42 -33.15,-542.46"
         style="fill:#d67f1c;fill-opacity:1;fill-rule:nonzero;stroke:none"
         id="path957"
         inkscape:connector-curvature="0" /><path
         d="m 3147.51,1349.79 -19.12,24.96 -201.1,116.44 c -6.45,3.73 -11.66,13.73 -11.66,22.33 l 0.18,164.64 -11.56,15.1 10.86,6.29 0.01,-0.01 c 2.08,1.33 4.85,1.31 7.89,-0.46 l 227.91,-131.96 c 6.44,-3.73 11.66,-13.73 11.65,-22.33 l -0.2,-179.31 c 0,-4.83 -1.66,-8.2 -4.25,-9.55 l -10.61,-6.14"
         style="fill:#7844a6;fill-opacity:1;fill-rule:nonzero;stroke:none"
         id="path959"
         inkscape:connector-curvature="0" /><path
         d="m 3008.44,1444.19 -14.28,8.28 -78.43,136.23 0.08,89.46 -11.56,15.1 10.86,6.29 0.01,-0.01 c 2.08,1.33 4.85,1.31 7.89,-0.46 l 227.91,-131.96 c 3.41,-1.97 6.45,-5.69 8.58,-10.03 l -151.06,-112.9"
         style="fill:#c195d1;fill-opacity:1;fill-rule:nonzero;stroke:none"
         id="path961"
         inkscape:connector-curvature="0" /><path
         d="m 2909.38,1686.56 -5.13,6.7 10.86,6.29 0.01,-0.01 c 2.08,1.33 4.85,1.31 7.89,-0.46 l 4.02,-2.33 -17.65,-10.19"
         style="fill:#c195d1;fill-opacity:1;fill-rule:nonzero;stroke:none"
         id="path963"
         inkscape:connector-curvature="0" /><path
         d="m 3152.99,1565.67 c 5.06,-4.14 8.98,-11.97 9.52,-19.2 l -22.28,-12.85 -10.67,18.53 23.43,13.52"
         style="fill:#7844a6;fill-opacity:1;fill-rule:nonzero;stroke:none"
         id="path965"
         inkscape:connector-curvature="0" /><path
         d="m 3140.06,1560.85 -227.91,131.95 c -6.44,3.73 -11.68,-0.22 -11.69,-8.82 l -0.19,-179.31 c -0.01,-8.6 5.21,-18.6 11.65,-22.33 l 227.91,-131.95 c 6.45,-3.73 11.68,0.21 11.69,8.81 l 0.2,179.31 c 0.01,8.6 -5.22,18.6 -11.66,22.34"
         style="fill:#8e54b0;fill-opacity:1;fill-rule:nonzero;stroke:none"
         id="path967"
         inkscape:connector-curvature="0" /><path
         d="m 3006.88,1693.68 c 0,0 -9.51,-57.38 -8.08,-75.76 1.43,-18.38 11.27,-48.7 18.74,-48.05 7.46,0.64 0.24,73.91 13.36,66.61 13.1,-7.3 14.48,-19.81 20.42,-15.4 5.94,4.42 -10.35,67.05 -6.01,94.2 4.35,27.16 -38.43,-21.6 -38.43,-21.6"
         style="fill:#fab6a9;fill-opacity:1;fill-rule:nonzero;stroke:none"
         id="path969"
         inkscape:connector-curvature="0" /><path
         d="m 3257.93,2318.3 c 46.08,-16.38 55.06,-6.39 55.5,-5.85 0.42,2.77 0.75,5.58 0.93,8.44 0.59,10.18 -0.55,20.03 -3.07,29.36 l -119.56,16.14 c 0,0 18.88,-31.29 66.2,-48.09"
         style="fill:#eb8b8a;fill-opacity:1;fill-rule:nonzero;stroke:none"
         id="path971"
         inkscape:connector-curvature="0" /><path
         d="m 3317.67,2412.42 c -10.87,9.3 -50.06,55.34 -120.27,44.47 -43.87,-6.79 -80.86,-36.72 -89.06,-105 -5.54,-46.01 11.36,-91.32 42.46,-124.81 1.68,0.77 3.43,1.49 4.99,2.52 17.58,11.57 19.47,17.93 19.47,17.99 l 3.89,34.85 c -0.13,4.94 -3.83,9.34 -8.76,9.65 -3.82,0.24 -8.46,2.08 -12.86,7.84 -10.09,13.19 -5.43,33.75 14.74,34.52 10.53,0.41 14.61,6.11 16.11,11.46 1.3,4.66 6.21,7.25 10.76,5.6 22.94,-8.3 79.47,-26.2 115.87,-15.89 46.54,13.18 13.52,67.49 2.66,76.8"
         style="fill:#5a3c9f;fill-opacity:1;fill-rule:nonzero;stroke:none"
         id="path973"
         inkscape:connector-curvature="0" /><path
         d="m 3265.31,2276.79 28.1,7.73 c 0,0 -13.41,-21.11 -33,-26.49 -19.59,-5.38 -22.64,11.2 -22.64,11.2 l 27.54,7.56"
         style="fill:#ffffff;fill-opacity:1;fill-rule:nonzero;stroke:none"
         id="path975"
         inkscape:connector-curvature="0" /><path
         d="m 3054.66,1622.87 -23.96,13.7 9.01,-14.68 12.1,-4.47 2.85,5.45"
         style="fill:#c195d1;fill-opacity:1;fill-rule:nonzero;stroke:none"
         id="path977"
         inkscape:connector-curvature="0" /><path
         d="m 3698.84,867.199 c 0,0 -30.21,15.242 -48.76,-7.437 -18.55,-22.68 -45.07,-76.231 -45.89,-112.41 -0.82,-36.18 28.63,-33.743 46.14,-25.18 17.51,8.566 68.65,82.758 71.76,97.297 3.1,14.531 -3.65,34.191 -8.57,38.043 -4.93,3.84 -14.68,9.687 -14.68,9.687"
         style="fill:#263c7a;fill-opacity:1;fill-rule:nonzero;stroke:none"
         id="path979"
         inkscape:connector-curvature="0" /><path
         d="m 3705.43,874.488 1.4,-31.297 c 0.3,-6.652 -3.05,-12.992 -8.84,-16.281 -5.28,-2.988 -12.94,-5.281 -23.3,-3.621 -22.76,3.66 -24.79,10.152 -26.42,41.441 -1.62,31.29 57.16,9.758 57.16,9.758"
         style="fill:#e59c13;fill-opacity:1;fill-rule:nonzero;stroke:none"
         id="path981"
         inkscape:connector-curvature="0" /><path
         d="m 3588.27,927.379 c 0,0 -30.2,15.23 -48.76,-7.449 -18.55,-22.68 -45.07,-76.231 -45.89,-112.399 -0.82,-36.191 28.64,-33.75 46.15,-25.191 17.51,8.558 68.65,82.762 71.74,97.289 3.1,14.551 -3.65,34.203 -8.57,38.051 -4.92,3.84 -14.67,9.699 -14.67,9.699"
         style="fill:#263c7a;fill-opacity:1;fill-rule:nonzero;stroke:none"
         id="path983"
         inkscape:connector-curvature="0" /><path
         d="m 3594.86,934.648 1.4,-31.289 c 0.29,-6.66 -3.05,-12.988 -8.85,-16.269 -5.27,-3 -12.94,-5.301 -23.3,-3.629 -22.75,3.648 -24.78,10.16 -26.4,41.449 -1.64,31.289 57.15,9.738 57.15,9.738"
         style="fill:#e59c13;fill-opacity:1;fill-rule:nonzero;stroke:none"
         id="path985"
         inkscape:connector-curvature="0" /><path
         d="m 3864.39,1509.2 c -8.94,145.47 -157.53,-21.39 -157.53,-21.39 l -101.7,-99.69 -91.59,-100.6 c -17.89,-19.65 -26.21,-46.18 -22.75,-72.52 l 37.05,-282.102 c 1.83,-13.929 13.75,-24.199 27.8,-24.097 3.97,0.031 8.52,0.39 13.72,1.211 33.05,5.136 30.62,36.566 30.62,36.566 l -6.78,263.842 192.34,115.94 c 0,0 87.76,37.39 78.82,182.84"
         style="fill:#fad644;fill-opacity:1;fill-rule:nonzero;stroke:none"
         id="path987"
         inkscape:connector-curvature="0" /><path
         d="m 3974.96,1453.78 c -8.93,145.47 -157.54,-21.4 -157.54,-21.4 l -101.7,-99.68 -91.58,-100.6 c -17.88,-19.65 -26.2,-46.19 -22.74,-72.52 l 37.04,-282.1 c 1.83,-13.941 13.75,-24.21 27.8,-24.101 3.97,0.031 8.52,0.402 13.73,1.211 33.05,5.14 30.61,36.57 30.61,36.57 l -6.77,263.84 192.32,115.93 c 0,0 87.77,37.39 78.83,182.85"
         style="fill:#fad644;fill-opacity:1;fill-rule:nonzero;stroke:none"
         id="path989"
         inkscape:connector-curvature="0" /><path
         d="m 3887.05,1920.73 c 112.66,-46.7 110.4,-113.29 110.4,-113.29 0,0 -22.07,-244.14 -14.54,-407.19 3.15,-68.16 -362.14,-73.37 -307.66,108.48 64.23,214.41 40.16,387.98 70.23,414.16 30.07,26.18 112.43,9.93 141.57,-2.16"
         style="fill:#7844a6;fill-opacity:1;fill-rule:nonzero;stroke:none"
         id="path991"
         inkscape:connector-curvature="0" /><path
         d="m 3923.3,1861.69 c -5.9,-22.88 -35.87,-34.94 -66.94,-26.93 -31.08,8.01 -51.49,33.04 -45.6,55.91 5.89,22.88 35.86,34.93 66.94,26.92 31.07,-8 51.49,-33.03 45.6,-55.9"
         style="fill:#fab6a9;fill-opacity:1;fill-rule:nonzero;stroke:none"
         id="path993"
         inkscape:connector-curvature="0" /><path
         d="m 3858.45,1914.7 c -7.7,0 -15.07,-1.34 -21.65,-3.98 -11.02,-4.44 -18.41,-12.03 -20.82,-21.39 -5.14,-19.96 13.58,-42.1 41.73,-49.35 28.09,-7.25 55.22,3.08 60.38,23.05 5.13,19.95 -13.59,42.09 -41.74,49.35 -6.01,1.55 -12.05,2.32 -17.9,2.32 z m 16.92,-87.77 c -6.6,0 -13.46,0.84 -20.36,2.62 -33.9,8.73 -56.08,36.75 -49.46,62.47 3.28,12.76 12.96,22.95 27.22,28.69 13.7,5.52 30.13,6.26 46.27,2.1 33.9,-8.74 56.1,-36.76 49.48,-62.47 -5.29,-20.48 -27.28,-33.41 -53.15,-33.41"
         style="fill:#ffffff;fill-opacity:1;fill-rule:nonzero;stroke:none"
         id="path995"
         inkscape:connector-curvature="0" /><path
         d="m 3841.88,1925.82 c 0,0 0.97,-4.53 -0.97,-40.23 -0.62,-11.22 38.68,-21.7 48.84,-11.54 10.15,10.15 6.09,20.72 8.53,58.91 2.44,38.2 -56.4,-7.14 -56.4,-7.14"
         style="fill:#fab6a9;fill-opacity:1;fill-rule:nonzero;stroke:none"
         id="path997"
         inkscape:connector-curvature="0" /><path
         d="m 3898.28,1932.96 c 0,0 -9.68,-35.41 -57.38,-48.99 l 0.72,32.19 56.66,16.8"
         style="fill:#eb8b8a;fill-opacity:1;fill-rule:nonzero;stroke:none"
         id="path999"
         inkscape:connector-curvature="0" /><path
         d="m 3928.51,2022.94 c 11.98,-46.36 -15.89,-93.67 -62.26,-105.66 -46.37,-11.99 -93.67,15.88 -105.66,62.25 -11.99,46.36 15.88,93.68 62.25,105.66 46.37,11.99 93.67,-15.88 105.67,-62.25"
         style="fill:#fab6a9;fill-opacity:1;fill-rule:nonzero;stroke:none"
         id="path1001"
         inkscape:connector-curvature="0" /><path
         d="m 3864.46,1998.05 c 0,0 -47.74,-20.45 -80.8,-20.68 -33.06,-0.24 -25.78,27.45 -25.78,27.45 l 98.14,14.18 8.44,-20.95"
         style="fill:#eb8b8a;fill-opacity:1;fill-rule:nonzero;stroke:none"
         id="path1003"
         inkscape:connector-curvature="0" /><path
         d="m 3773.8,1992.66 c 0,0 41.59,17.66 78.08,10.3 8.58,-1.73 16.53,-6.31 22.05,-13.1 1.8,-2.22 4.09,-4.25 6.68,-4.83 6.46,-1.47 17.06,25.38 29.62,25.99 12.58,0.61 20.98,-8.29 10.67,-24.8 -10.31,-16.51 -6.83,-34.98 -2.09,-37.63 4.74,-2.66 55.07,35.89 10.68,123.82 -44.38,87.94 -157.15,40.57 -174.69,22.75 0,0 -18.47,-16.09 -33.49,-1.77 0,0 -16.85,-126.16 52.49,-100.73"
         style="fill:#ee1696;fill-opacity:1;fill-rule:nonzero;stroke:none"
         id="path1005"
         inkscape:connector-curvature="0" /><path
         d="m 3934.26,1629.07 v -65.97 c 0,-7.57 -3.19,-14.77 -8.77,-19.86 l -135.53,-123.56 15.4,-23.54 178.19,122.42 c 8.36,6.05 13.74,15.38 14.83,25.64 l 12.87,122.43 -76.99,-37.56"
         style="fill:#fab6a9;fill-opacity:1;fill-rule:nonzero;stroke:none"
         id="path1007"
         inkscape:connector-curvature="0" /><path
         d="m 3987.91,1840.42 c 0,0 41.11,-61.83 56.44,-224.58 0,0 -70.24,-22.72 -110.09,-9.82 -39.87,12.89 53.65,234.4 53.65,234.4"
         style="fill:#7844a6;fill-opacity:1;fill-rule:nonzero;stroke:none"
         id="path1009"
         inkscape:connector-curvature="0" /><path
         d="m 3926.75,1762.24 c 0,0 -16.1,-86.14 -17.01,-126.63 -0.26,-11.12 6.54,-21.17 17.01,-24.95 v 151.58"
         style="fill:#5a3c9f;fill-opacity:1;fill-rule:nonzero;stroke:none"
         id="path1011"
         inkscape:connector-curvature="0" /><path
         d="m 3891.58,1333.9 -29.95,3.96 -193.35,111.63 c -6.19,3.57 -17.02,3.12 -24.18,-1.01 l -137.01,-79.07 -18.11,2.39 v -18.02 h 0.02 c -0.12,-2.39 1.23,-4.66 4.15,-6.35 l 219.13,-126.52 c 6.2,-3.58 17.03,-3.13 24.18,1.01 l 149.21,86.11 c 4.03,2.33 6.03,5.33 5.91,8.14 v 17.73"
         style="fill:#263c7a;fill-opacity:1;fill-rule:nonzero;stroke:none"
         id="path1013"
         inkscape:connector-curvature="0" /><path
         d="m 3746.31,1404.44 -13.74,7.93 h -151.03 l -74.45,-42.96 -18.11,2.39 v -18.02 h 0.02 c -0.12,-2.39 1.23,-4.66 4.15,-6.35 l 219.13,-126.52 c 3.28,-1.89 7.85,-2.64 12.49,-2.34 l 21.54,185.87"
         style="fill:#4067b1;fill-opacity:1;fill-rule:nonzero;stroke:none"
         id="path1015"
         inkscape:connector-curvature="0" /><path
         d="m 3497.02,1370.75 -8.04,1.05 v -18.02 h 0.02 c -0.12,-2.39 1.23,-4.66 4.15,-6.35 l 3.87,-2.24 v 25.56"
         style="fill:#5f92d3;fill-opacity:1;fill-rule:nonzero;stroke:none"
         id="path1017"
         inkscape:connector-curvature="0" /><path
         d="m 3714.48,1219.89 c 5.88,-2.23 14.28,-1.75 20.56,1.28 v 30.67 h -20.56 v -31.95"
         style="fill:#2e4b8d;fill-opacity:1;fill-rule:nonzero;stroke:none"
         id="path1019"
         inkscape:connector-curvature="0" /><path
         d="m 3712.28,1238.93 -219.13,126.51 c -6.19,3.58 -5.42,9.83 1.74,13.96 l 149.21,86.12 c 7.16,4.13 17.99,4.58 24.18,1 l 219.12,-126.5 c 6.2,-3.59 5.43,-9.84 -1.73,-13.97 l -149.21,-86.11 c -7.15,-4.13 -17.98,-4.58 -24.18,-1.01"
         style="fill:#ffffff;fill-opacity:1;fill-rule:nonzero;stroke:none"
         id="path1021"
         inkscape:connector-curvature="0" /><path
         d="m 3708.57,1258.11 -182.19,105.19 c -5.16,2.98 -4.51,8.17 1.44,11.61 l 79.95,44.96 c 5.95,3.44 14.95,3.81 20.11,0.84 l 182.2,-105.2 c 5.15,-2.98 4.51,-8.17 -1.45,-11.61 l -79.95,-44.96 c -5.95,-3.44 -14.95,-3.81 -20.11,-0.83"
         style="fill:#d9effb;fill-opacity:1;fill-rule:nonzero;stroke:none"
         id="path1023"
         inkscape:connector-curvature="0" /><path
         d="m 3652.57,1469.67 -2.27,-15.11 c -1.93,-12.88 -1.59,-26.01 0.99,-38.77 l 2.7,-13.32 c 1.52,-7.52 7.47,-13.35 15.01,-14.72 5.89,-1.07 11.46,3.07 12.12,9.01 l 3.62,32.33 c 0,0 8.27,-10.84 12.26,-10.84 4,0 -4.46,32.37 -13.49,50.69 -9.04,18.32 -30.94,0.73 -30.94,0.73"
         style="fill:#fab6a9;fill-opacity:1;fill-rule:nonzero;stroke:none"
         id="path1025"
         inkscape:connector-curvature="0" /><path
         d="m 3726.85,1709.97 -23.51,-46.54 c -5.57,-11 -8.84,-23.01 -9.63,-35.32 l -10.2,-159.17 -30.94,0.73 -14.03,178.75 c -0.44,5.52 -0.17,11.08 0.8,16.53 l 16.03,90.64 71.48,-45.62"
         style="fill:#fab6a9;fill-opacity:1;fill-rule:nonzero;stroke:none"
         id="path1027"
         inkscape:connector-curvature="0" /><path
         d="m 3704.85,1226.78 -18.37,23.99 -193.21,111.86 c -6.19,3.59 -11.21,13.2 -11.2,21.46 l 0.18,158.19 -11.12,14.5 10.44,6.05 0.01,-0.02 c 2,1.29 4.66,1.26 7.58,-0.43 l 218.97,-126.78 c 6.19,-3.59 11.21,-13.19 11.2,-21.46 l -0.19,-172.28 c -0.01,-4.65 -1.6,-7.88 -4.1,-9.18 l -10.19,-5.9"
         style="fill:#263c7a;fill-opacity:1;fill-rule:nonzero;stroke:none"
         id="path1029"
         inkscape:connector-curvature="0" /><path
         d="m 3571.24,1317.49 -13.72,7.95 -75.36,130.88 0.09,85.96 -11.12,14.5 10.44,6.05 0.01,-0.02 c 2,1.29 4.66,1.26 7.58,-0.43 l 218.97,-126.78 c 3.27,-1.89 6.21,-5.48 8.25,-9.65 l -145.14,-108.46"
         style="fill:#4067b1;fill-opacity:1;fill-rule:nonzero;stroke:none"
         id="path1031"
         inkscape:connector-curvature="0" /><path
         d="m 3476.06,1550.35 -4.93,6.43 10.44,6.05 0.01,-0.02 c 2,1.29 4.66,1.26 7.58,-0.43 l 3.86,-2.24 -16.96,-9.79"
         style="fill:#5f92d3;fill-opacity:1;fill-rule:nonzero;stroke:none"
         id="path1033"
         inkscape:connector-curvature="0" /><path
         d="m 3710.12,1434.19 c 4.86,-3.97 8.63,-11.5 9.14,-18.44 l -21.4,-12.36 -10.25,17.82 22.51,12.98"
         style="fill:#2e4b8d;fill-opacity:1;fill-rule:nonzero;stroke:none"
         id="path1035"
         inkscape:connector-curvature="0" /><path
         d="m 3697.7,1429.56 -218.97,126.77 c -6.19,3.59 -11.22,-0.2 -11.23,-8.46 l -0.19,-172.28 c -0.01,-8.26 5,-17.87 11.2,-21.45 l 218.97,-126.78 c 6.19,-3.59 11.22,0.2 11.23,8.47 l 0.19,172.27 c 0.01,8.26 -5,17.87 -11.2,21.46"
         style="fill:#ffffff;fill-opacity:1;fill-rule:nonzero;stroke:none"
         id="path1037"
         inkscape:connector-curvature="0" /><path
         d="m 3805.36,1396.14 -3.5,-7.28 c -4.05,-8.37 -10.4,-15.41 -18.31,-20.28 l -21.75,-13.41 c -6.76,-4.17 -15.34,-4.51 -22.2,-0.52 l -0.74,0.45 c -6.92,4.34 -7.54,14.26 -1.85,20.11 l 22.73,23.36 c 0,0 -12.78,-9.78 -16.35,-5.84 -2.63,2.89 12.38,16.98 23.9,17.44 11.53,0.46 22.67,9.51 22.67,9.51 l 15.4,-23.54"
         style="fill:#fab6a9;fill-opacity:1;fill-rule:nonzero;stroke:none"
         id="path1039"
         inkscape:connector-curvature="0" /><path
         d="m 3747.73,1923.23 c 0,0 -83.33,-90.66 -116.93,-173.83 0,0 28.49,-51.33 98.23,-71.47 69.75,-20.15 18.7,245.3 18.7,245.3"
         style="fill:#7844a6;fill-opacity:1;fill-rule:nonzero;stroke:none"
         id="path1041"
         inkscape:connector-curvature="0" /><path
         d="m 3713.34,1683.31 13.51,130.46 -31.82,-122.23 c 5.66,-2.96 11.81,-5.71 18.31,-8.23"
         style="fill:#5a3c9f;fill-opacity:1;fill-rule:nonzero;stroke:none"
         id="path1043"
         inkscape:connector-curvature="0" /><path
         d="m 3810.14,1941.53 -22.4,6.15 c 0,0 10.7,-16.82 26.3,-21.1 15.61,-4.29 18.04,8.92 18.04,8.92 l -21.94,6.03"
         style="fill:#ffffff;fill-opacity:1;fill-rule:nonzero;stroke:none"
         id="path1045"
         inkscape:connector-curvature="0" /><path
         d="m 2339.33,760.129 -201.91,117.473 c -17.04,9.839 -14.91,27.019 4.77,38.378 l 192.45,112.13 c 19.67,11.36 49.44,12.6 66.47,2.75 l 201.91,-117.469 c 17.04,-9.84 14.9,-27.02 -4.77,-38.379 L 2405.8,762.891 c -19.67,-11.371 -49.44,-12.602 -66.47,-2.762"
         style="fill:#b8d8ed;fill-opacity:1;fill-rule:nonzero;stroke:none"
         id="path1047"
         inkscape:connector-curvature="0" /><path
         d="m 2676.49,1133.53 v 0 50.72 l -269.38,0.16 1.85,0.06 c -21.36,12.33 -58.69,10.79 -83.36,-3.46 l 7.97,3.33 -269.62,0.16 v -54.15 c -0.61,-8.35 4.05,-16.41 14.32,-22.34 l 253.2,-147.319 c 21.37,-12.339 58.7,-10.793 83.37,3.457 l 241.35,140.612 c 14.23,8.21 21.1,18.86 20.3,28.77"
         style="fill:#263c7a;fill-opacity:1;fill-rule:nonzero;stroke:none"
         id="path1049"
         inkscape:connector-curvature="0" /><path
         d="m 2370.28,1192.73 c -15.64,-0.37 -31.86,-4.32 -44.68,-11.72 l 7.97,3.33 -269.62,0.16 v -54.15 c -0.61,-8.35 4.05,-16.41 14.32,-22.34 l 253.2,-147.319 c 10.27,-5.929 24.23,-8.621 38.7,-8.269 l 0.11,240.308"
         style="fill:#4067b1;fill-opacity:1;fill-rule:nonzero;stroke:none"
         id="path1051"
         inkscape:connector-curvature="0" /><path
         d="m 2094.46,1184.48 -30.51,0.02 v -54.15 c -0.61,-8.35 4.05,-16.41 14.32,-22.34 l 16.19,-9.35 v 85.82"
         style="fill:#b8d8ed;fill-opacity:1;fill-rule:nonzero;stroke:none"
         id="path1053"
         inkscape:connector-curvature="0" /><path
         d="m 2336.84,958.059 c 18.43,-7.899 45.09,-7.457 66.64,0.761 v 70.87 h -66.64 v -71.631"
         style="fill:#2e4b8d;fill-opacity:1;fill-rule:nonzero;stroke:none"
         id="path1055"
         inkscape:connector-curvature="0" /><path
         d="m 2331.47,1014.38 -253.21,147.33 c -21.37,12.34 -18.68,33.89 5.99,48.13 l 241.35,140.62 c 24.67,14.25 62,15.8 83.36,3.46 l 253.22,-147.32 c 21.36,-12.35 18.68,-33.9 -5.99,-48.14 l -241.35,-140.62 c -24.67,-14.25 -62,-15.79 -83.37,-3.46"
         style="fill:#d9effb;fill-opacity:1;fill-rule:nonzero;stroke:none"
         id="path1057"
         inkscape:connector-curvature="0" /><path
         d="m 2380.56,1212.14 -74.47,43.3 c -9.95,5.75 -9.95,15.06 0,20.81 9.95,5.74 26.09,5.74 36.03,0 l 74.48,-43.31 c 9.94,-5.74 9.94,-15.05 0,-20.8 -9.95,-5.74 -26.09,-5.74 -36.04,0"
         style="fill:#ffffff;fill-opacity:1;fill-rule:nonzero;stroke:none"
         id="path1059"
         inkscape:connector-curvature="0" /><path
         d="m 2488.8,1148.86 -45.21,26.68 c -9.94,5.74 -9.94,15.06 0,20.8 9.95,5.75 26.09,5.75 36.04,0 l 45.2,-26.68 c 9.95,-5.74 9.96,-15.05 0,-20.8 -9.94,-5.74 -26.08,-5.74 -36.03,0"
         style="fill:#ffffff;fill-opacity:1;fill-rule:nonzero;stroke:none"
         id="path1061"
         inkscape:connector-curvature="0" /><path
         d="m 2276.17,1185.53 -45.2,26.68 c -9.95,5.74 -9.95,15.06 0,20.8 9.94,5.75 26.09,5.75 36.03,0 l 45.21,-26.67 c 9.94,-5.74 9.94,-15.06 0,-20.81 -9.95,-5.74 -26.09,-5.74 -36.04,0"
         style="fill:#ffffff;fill-opacity:1;fill-rule:nonzero;stroke:none"
         id="path1063"
         inkscape:connector-curvature="0" /><path
         d="M 6000,985.961 5338.47,575.762 C 5264.69,530.191 5241.82,433.441 5287.38,359.66 L 5509.51,0 H 6000 v 985.961"
         style="fill:#d9effb;fill-opacity:1;fill-rule:nonzero;stroke:none"
         id="path1085"
         inkscape:connector-curvature="0" /><path
         d="m 4452.8,3156.83 -89.39,51.62 c -8.29,4.79 -13.18,16.64 -10.91,26.47 2.27,9.83 10.83,13.92 19.13,9.14 l 89.4,-51.62 c 8.29,-4.79 13.17,-16.64 10.9,-26.48 -2.26,-9.82 -10.83,-13.91 -19.13,-9.13"
         style="fill:#d9effb;fill-opacity:1;fill-rule:nonzero;stroke:none"
         id="path1285"
         inkscape:connector-curvature="0" /><path
         d="M 4665.75,3033.88 4533.94,3110 c -8.31,4.78 -13.19,16.64 -10.91,26.47 2.26,9.83 10.83,13.92 19.12,9.13 l 131.82,-76.11 c 8.3,-4.79 13.18,-16.64 10.91,-26.47 -2.27,-9.83 -10.84,-13.92 -19.13,-9.14"
         style="fill:#d9effb;fill-opacity:1;fill-rule:nonzero;stroke:none"
         id="path1287"
         inkscape:connector-curvature="0" /><path
         d="m 4296.97,2739.55 -89.39,51.61 c -8.3,4.78 -13.19,16.64 -10.91,26.47 2.27,9.84 10.83,13.92 19.12,9.13 l 89.41,-51.61 c 8.29,-4.79 13.17,-16.64 10.9,-26.47 -2.27,-9.84 -10.84,-13.93 -19.13,-9.13"
         style="fill:#d9effb;fill-opacity:1;fill-rule:nonzero;stroke:none"
         id="path1289"
         inkscape:connector-curvature="0" /><path
         d="m 4486.8,2629.95 -131.82,76.1 c -8.3,4.8 -13.18,16.64 -10.91,26.48 2.27,9.83 10.83,13.92 19.12,9.13 l 131.83,-76.11 c 8.29,-4.79 13.17,-16.64 10.91,-26.47 -2.28,-9.84 -10.84,-13.93 -19.13,-9.13"
         style="fill:#d9effb;fill-opacity:1;fill-rule:nonzero;stroke:none"
         id="path1291"
         inkscape:connector-curvature="0" /><path
         d="m 4189.09,3224.55 -55.85,32.24 c -8.3,4.8 -13.18,16.64 -10.91,26.48 2.27,9.83 10.83,13.92 19.13,9.13 l 55.84,-32.25 c 8.3,-4.78 13.19,-16.64 10.91,-26.46 -2.26,-9.84 -10.83,-13.93 -19.12,-9.14"
         style="fill:#d9effb;fill-opacity:1;fill-rule:nonzero;stroke:none"
         id="path1293"
         inkscape:connector-curvature="0" /><path
         d="m 4361.2,3040.63 -170.62,98.51 c -8.3,4.8 -13.19,16.65 -10.91,26.48 2.26,9.84 10.83,13.93 19.12,9.13 l 170.63,-98.52 c 8.29,-4.78 13.18,-16.64 10.91,-26.47 -2.26,-9.82 -10.83,-13.92 -19.13,-9.13"
         style="fill:#d9effb;fill-opacity:1;fill-rule:nonzero;stroke:none"
         id="path1295"
         inkscape:connector-curvature="0" /><path
         d="m 4211.98,2957.7 -55.85,32.25 c -8.29,4.78 -13.17,16.64 -10.91,26.47 2.27,9.83 10.83,13.92 19.14,9.13 l 55.84,-32.24 c 8.3,-4.79 13.18,-16.64 10.9,-26.48 -2.26,-9.83 -10.83,-13.91 -19.12,-9.13"
         style="fill:#d9effb;fill-opacity:1;fill-rule:nonzero;stroke:none"
         id="path1297"
         inkscape:connector-curvature="0" /><path
         d="m 4515.53,2444.27 -149.16,86.12 c -8.29,4.79 -13.18,16.64 -10.91,26.47 2.26,9.83 10.83,13.93 19.13,9.13 l 149.16,-86.11 c 8.29,-4.8 13.17,-16.65 10.91,-26.48 -2.28,-9.83 -10.84,-13.92 -19.13,-9.13"
         style="fill:#d9effb;fill-opacity:1;fill-rule:nonzero;stroke:none"
         id="path1299"
         inkscape:connector-curvature="0" /><path
         d="m 4157.54,2820.04 -35.85,20.7 c -8.29,4.79 -13.17,16.65 -10.91,26.47 2.28,9.84 10.84,13.93 19.13,9.13 l 35.85,-20.69 c 8.29,-4.79 13.18,-16.64 10.91,-26.47 -2.28,-9.84 -10.84,-13.92 -19.13,-9.14"
         style="fill:#d9effb;fill-opacity:1;fill-rule:nonzero;stroke:none"
         id="path1301"
         inkscape:connector-curvature="0" /><path
         d="m 4131.77,2665.84 -44.51,25.7 c -8.3,4.78 -13.19,16.64 -10.91,26.47 2.26,9.84 10.83,13.92 19.12,9.13 l 44.52,-25.7 c 8.29,-4.78 13.17,-16.64 10.91,-26.47 -2.28,-9.84 -10.84,-13.92 -19.13,-9.13"
         style="fill:#d9effb;fill-opacity:1;fill-rule:nonzero;stroke:none"
         id="path1303"
         inkscape:connector-curvature="0" /><path
         d="m 4304.95,2565.85 -117.36,67.76 c -8.3,4.79 -13.19,16.64 -10.91,26.47 2.27,9.84 10.83,13.93 19.12,9.13 l 117.37,-67.76 c 8.29,-4.78 13.18,-16.64 10.91,-26.47 -2.27,-9.83 -10.84,-13.92 -19.13,-9.13"
         style="fill:#d9effb;fill-opacity:1;fill-rule:nonzero;stroke:none"
         id="path1305"
         inkscape:connector-curvature="0" /><path
         d="m 4154.41,2568.22 -84.38,48.72 c -8.29,4.78 -13.17,16.64 -10.91,26.47 2.28,9.84 10.83,13.92 19.13,9.13 l 84.39,-48.72 c 8.29,-4.79 13.17,-16.64 10.9,-26.47 -2.26,-9.83 -10.83,-13.93 -19.13,-9.13"
         style="fill:#d9effb;fill-opacity:1;fill-rule:nonzero;stroke:none"
         id="path1307"
         inkscape:connector-curvature="0" /><path
         d="m 4643.52,2370.02 -54.2,31.28 c -8.29,4.79 -13.18,16.64 -10.91,26.48 2.27,9.82 10.84,13.91 19.13,9.13 l 54.2,-31.29 c 8.29,-4.79 13.17,-16.64 10.91,-26.47 -2.28,-9.84 -10.84,-13.93 -19.13,-9.13"
         style="fill:#d9effb;fill-opacity:1;fill-rule:nonzero;stroke:none"
         id="path1309"
         inkscape:connector-curvature="0" /><path
         d="m 4419.72,2837.76 -149.16,86.12 c -8.29,4.79 -13.19,16.64 -10.91,26.48 2.26,9.83 10.83,13.91 19.13,9.13 l 149.16,-86.13 c 8.29,-4.78 13.17,-16.64 10.91,-26.47 -2.28,-9.82 -10.84,-13.92 -19.13,-9.13"
         style="fill:#d9effb;fill-opacity:1;fill-rule:nonzero;stroke:none"
         id="path1311"
         inkscape:connector-curvature="0" /><path
         d="m 4433.32,2914.45 -259.97,150.1 c -8.29,4.78 -13.17,16.64 -10.91,26.47 2.28,9.84 10.84,13.92 19.13,9.13 l 259.97,-150.1 c 8.29,-4.78 13.18,-16.64 10.91,-26.47 -2.27,-9.82 -10.83,-13.92 -19.13,-9.13"
         style="fill:#d9effb;fill-opacity:1;fill-rule:nonzero;stroke:none"
         id="path1313"
         inkscape:connector-curvature="0" /><path
         d="m 4288.08,2829.22 -149.16,86.13 c -8.3,4.78 -13.19,16.64 -10.91,26.47 2.26,9.83 10.83,13.92 19.12,9.13 l 149.16,-86.12 c 8.3,-4.79 13.18,-16.64 10.91,-26.47 -2.27,-9.84 -10.83,-13.92 -19.12,-9.14"
         style="fill:#d9effb;fill-opacity:1;fill-rule:nonzero;stroke:none"
         id="path1315"
         inkscape:connector-curvature="0" /><path
         d="m 4532.85,2772.45 -54.2,31.29 c -8.29,4.78 -13.17,16.64 -10.91,26.47 2.28,9.83 10.84,13.92 19.14,9.13 l 54.18,-31.29 c 8.31,-4.79 13.19,-16.64 10.91,-26.47 -2.26,-9.84 -10.83,-13.93 -19.12,-9.13"
         style="fill:#d9effb;fill-opacity:1;fill-rule:nonzero;stroke:none"
         id="path1317"
         inkscape:connector-curvature="0" /><path
         d="m 5067.81,2801.75 -320.93,185.3 c -8.3,4.78 -13.18,16.64 -10.9,26.47 2.26,9.84 10.83,13.92 19.12,9.13 l 320.94,-185.29 c 8.29,-4.79 13.17,-16.64 10.9,-26.48 -2.27,-9.83 -10.84,-13.91 -19.13,-9.13"
         style="fill:#d9effb;fill-opacity:1;fill-rule:nonzero;stroke:none"
         id="path1319"
         inkscape:connector-curvature="0" /><path
         d="m 4283.77,2662.62 -179.3,103.52 c -8.29,4.79 -13.18,16.64 -10.91,26.47 2.27,9.84 10.83,13.93 19.13,9.13 l 179.3,-103.51 c 8.29,-4.8 13.18,-16.64 10.91,-26.48 -2.27,-9.83 -10.83,-13.92 -19.13,-9.13"
         style="fill:#d9effb;fill-opacity:1;fill-rule:nonzero;stroke:none"
         id="path1321"
         inkscape:connector-curvature="0" /><path
         d="m 4282.28,3255.29 -131.82,76.1 c -8.29,4.8 -13.17,16.64 -10.91,26.48 2.28,9.83 10.83,13.92 19.13,9.13 l 131.82,-76.11 c 8.29,-4.78 13.17,-16.64 10.91,-26.47 -2.27,-9.83 -10.83,-13.92 -19.13,-9.13"
         style="fill:#d9effb;fill-opacity:1;fill-rule:nonzero;stroke:none"
         id="path1323"
         inkscape:connector-curvature="0" /><path
         d="m 4130.93,2497.23 -152.67,88.15 c -8.3,4.79 -13.18,16.64 -10.91,26.47 2.27,9.84 10.83,13.93 19.12,9.13 l 152.68,-88.14 c 8.29,-4.79 13.17,-16.64 10.91,-26.48 -2.28,-9.82 -10.84,-13.91 -19.13,-9.13"
         style="fill:#d9effb;fill-opacity:1;fill-rule:nonzero;stroke:none"
         id="path1325"
         inkscape:connector-curvature="0" /><path
         d="m 5155.83,1925.42 -89.39,51.62 c -8.31,4.78 -13.19,16.64 -10.91,26.47 2.26,9.83 10.83,13.92 19.12,9.13 l 89.4,-51.62 c 8.29,-4.78 13.18,-16.64 10.91,-26.46 -2.27,-9.84 -10.84,-13.93 -19.13,-9.14"
         style="fill:#d9effb;fill-opacity:1;fill-rule:nonzero;stroke:none"
         id="path1327"
         inkscape:connector-curvature="0" /><path
         d="m 5220.06,2226.51 -170.63,98.52 c -8.3,4.78 -13.18,16.64 -10.9,26.47 2.26,9.83 10.83,13.92 19.12,9.13 l 170.63,-98.52 c 8.29,-4.78 13.18,-16.64 10.91,-26.47 -2.27,-9.83 -10.83,-13.92 -19.13,-9.13"
         style="fill:#d9effb;fill-opacity:1;fill-rule:nonzero;stroke:none"
         id="path1329"
         inkscape:connector-curvature="0" /><path
         d="m 5070.84,2143.58 -55.85,32.25 c -8.29,4.78 -13.17,16.64 -10.91,26.47 2.27,9.82 10.83,13.92 19.13,9.13 l 55.84,-32.24 c 8.3,-4.79 13.19,-16.65 10.91,-26.48 -2.26,-9.83 -10.83,-13.92 -19.12,-9.13"
         style="fill:#d9effb;fill-opacity:1;fill-rule:nonzero;stroke:none"
         id="path1331"
         inkscape:connector-curvature="0" /><path
         d="m 5016.4,2005.92 -35.85,20.7 c -8.29,4.79 -13.18,16.64 -10.91,26.47 2.27,9.84 10.84,13.93 19.13,9.13 l 35.85,-20.69 c 8.29,-4.79 13.17,-16.64 10.91,-26.48 -2.28,-9.83 -10.84,-13.91 -19.13,-9.13"
         style="fill:#d9effb;fill-opacity:1;fill-rule:nonzero;stroke:none"
         id="path1333"
         inkscape:connector-curvature="0" /><path
         d="m 5278.57,2023.64 -149.16,86.12 c -8.29,4.79 -13.18,16.64 -10.9,26.48 2.26,9.82 10.83,13.91 19.13,9.13 l 149.16,-86.13 c 8.29,-4.78 13.17,-16.64 10.91,-26.47 -2.28,-9.83 -10.84,-13.92 -19.14,-9.13"
         style="fill:#d9effb;fill-opacity:1;fill-rule:nonzero;stroke:none"
         id="path1335"
         inkscape:connector-curvature="0" /><path
         d="m 5292.18,2100.33 -259.97,150.1 c -8.29,4.78 -13.18,16.64 -10.91,26.47 2.27,9.83 10.84,13.92 19.13,9.13 l 259.97,-150.1 c 8.29,-4.78 13.17,-16.64 10.91,-26.47 -2.28,-9.84 -10.83,-13.92 -19.13,-9.13"
         style="fill:#d9effb;fill-opacity:1;fill-rule:nonzero;stroke:none"
         id="path1337"
         inkscape:connector-curvature="0" /><path
         d="m 5146.93,2015.1 -149.16,86.12 c -8.3,4.79 -13.18,16.65 -10.9,26.47 2.26,9.84 10.83,13.93 19.12,9.13 l 149.16,-86.11 c 8.3,-4.8 13.18,-16.64 10.9,-26.48 -2.26,-9.83 -10.83,-13.92 -19.12,-9.13"
         style="fill:#d9effb;fill-opacity:1;fill-rule:nonzero;stroke:none"
         id="path1339"
         inkscape:connector-curvature="0" /><path
         d="m 5142.63,1848.49 -179.3,103.53 c -8.29,4.78 -13.18,16.64 -10.91,26.47 2.27,9.84 10.83,13.92 19.13,9.13 l 179.3,-103.52 c 8.29,-4.79 13.17,-16.64 10.91,-26.47 -2.27,-9.83 -10.83,-13.92 -19.13,-9.14"
         style="fill:#d9effb;fill-opacity:1;fill-rule:nonzero;stroke:none"
         id="path1341"
         inkscape:connector-curvature="0" /><path
         d="m 4790.49,300.23 -210,122.18 c -17.72,10.231 -15.5,28.102 4.97,39.922 l 200.16,116.617 c 20.45,11.821 51.41,13.102 69.14,2.86 l 209.99,-122.18 c 17.72,-10.231 15.49,-28.098 -4.96,-39.918 L 4859.63,303.09 c -20.47,-11.809 -51.42,-13.09 -69.14,-2.86"
         style="fill:#b8d8ed;fill-opacity:1;fill-rule:nonzero;stroke:none"
         id="path1343"
         inkscape:connector-curvature="0" /><path
         d="m 5128.89,679.059 v 0 50.722 l -269.39,0.149 1.87,0.07 c -21.37,12.332 -58.7,10.789 -83.37,-3.461 l 7.98,3.332 -269.63,0.149 v -54.149 c -0.61,-8.34 4.04,-16.402 14.31,-22.332 l 253.22,-147.328 c 21.36,-12.34 58.69,-10.781 83.37,3.449 l 241.34,140.629 c 14.23,8.211 21.1,18.859 20.3,28.77"
         style="fill:#623da1;fill-opacity:1;fill-rule:nonzero;stroke:none"
         id="path1345"
         inkscape:connector-curvature="0" /><path
         d="m 4822.69,738.262 c -15.65,-0.383 -31.88,-4.321 -44.69,-11.723 l 7.98,3.332 -269.63,0.149 v -54.149 c -0.61,-8.34 4.04,-16.402 14.31,-22.332 l 253.22,-147.328 c 10.26,-5.93 24.23,-8.621 38.69,-8.27 l 0.12,240.321"
         style="fill:#7844a6;fill-opacity:1;fill-rule:nonzero;stroke:none"
         id="path1347"
         inkscape:connector-curvature="0" /><path
         d="m 4546.87,730.012 -30.52,0.008 v -54.149 c -0.61,-8.34 4.04,-16.402 14.31,-22.332 l 16.21,-9.348 v 85.821"
         style="fill:#8e54b0;fill-opacity:1;fill-rule:nonzero;stroke:none"
         id="path1349"
         inkscape:connector-curvature="0" /><path
         d="m 4789.24,503.582 c 18.43,-7.891 45.09,-7.453 66.64,0.758 v 70.879 h -66.64 v -71.637"
         style="fill:#683fa2;fill-opacity:1;fill-rule:nonzero;stroke:none"
         id="path1351"
         inkscape:connector-curvature="0" /><path
         d="m 4783.88,559.91 -253.22,147.32 c -21.36,12.352 -18.69,33.891 5.99,48.141 L 4778,895.98 c 24.67,14.25 62,15.801 83.37,3.461 l 253.2,-147.332 c 21.38,-12.328 18.69,-33.879 -5.98,-48.129 L 4867.25,563.359 c -24.68,-14.238 -62.01,-15.789 -83.37,-3.449"
         style="fill:#6f41a4;fill-opacity:1;fill-rule:nonzero;stroke:none"
         id="path1353"
         inkscape:connector-curvature="0" /><path
         d="m 4831.04,749.969 -74.47,43.301 c -9.94,5.742 -9.94,15.062 0,20.8 9.95,5.739 26.1,5.739 36.04,0 l 74.47,-43.3 c 9.95,-5.739 9.95,-15.059 0,-20.801 -9.94,-5.75 -26.08,-5.75 -36.04,0"
         style="fill:#8e54b0;fill-opacity:1;fill-rule:nonzero;stroke:none"
         id="path1355"
         inkscape:connector-curvature="0" /><path
         d="m 4939.29,686.691 -45.21,26.668 c -9.95,5.75 -9.95,15.063 0,20.813 9.94,5.738 26.09,5.738 36.04,0 l 45.2,-26.672 c 9.94,-5.75 9.94,-15.07 0,-20.809 -9.95,-5.75 -26.08,-5.75 -36.03,0"
         style="fill:#8e54b0;fill-opacity:1;fill-rule:nonzero;stroke:none"
         id="path1357"
         inkscape:connector-curvature="0" /><path
         d="m 4726.66,723.359 -45.2,26.672 c -9.96,5.75 -9.96,15.071 0,20.821 9.94,5.738 26.08,5.738 36.03,0 l 45.21,-26.68 c 9.94,-5.75 9.94,-15.063 0,-20.813 -9.96,-5.738 -26.09,-5.738 -36.04,0"
         style="fill:#8e54b0;fill-opacity:1;fill-rule:nonzero;stroke:none"
         id="path1359"
         inkscape:connector-curvature="0" /></g></g></svg>