<?xml version="1.0" encoding="UTF-8" standalone="no"?>
<!-- Created with Inkscape (http://www.inkscape.org/) -->

<svg
   xmlns:dc="http://purl.org/dc/elements/1.1/"
   xmlns:cc="http://creativecommons.org/ns#"
   xmlns:rdf="http://www.w3.org/1999/02/22-rdf-syntax-ns#"
   xmlns:svg="http://www.w3.org/2000/svg"
   xmlns="http://www.w3.org/2000/svg"
   xmlns:sodipodi="http://sodipodi.sourceforge.net/DTD/sodipodi-0.dtd"
   xmlns:inkscape="http://www.inkscape.org/namespaces/inkscape"
   version="1.1"
   id="svg1399"
   xml:space="preserve"
   width="800"
   height="600"
   viewBox="0 0 800 600"
   sodipodi:docname="tech.svg"
   inkscape:version="0.92.3 (2405546, 2018-03-11)"><metadata
     id="metadata1405"><rdf:RDF><cc:Work
         rdf:about=""><dc:format>image/svg+xml</dc:format><dc:type
           rdf:resource="http://purl.org/dc/dcmitype/StillImage" /><dc:title></dc:title></cc:Work></rdf:RDF></metadata><defs
     id="defs1403" /><sodipodi:namedview
     pagecolor="#ffffff"
     bordercolor="#666666"
     borderopacity="1"
     objecttolerance="10"
     gridtolerance="10"
     guidetolerance="10"
     inkscape:pageopacity="0"
     inkscape:pageshadow="2"
     inkscape:window-width="1366"
     inkscape:window-height="705"
     id="namedview1401"
     showgrid="false"
     inkscape:zoom="1.1125147"
     inkscape:cx="294.53936"
     inkscape:cy="97.593694"
     inkscape:window-x="0"
     inkscape:window-y="30"
     inkscape:window-maximized="1"
     inkscape:current-layer="g1409" /><g
     id="g1407"
     inkscape:groupmode="layer"
     inkscape:label="ink_ext_XXXXXX"
     transform="matrix(1.3333333,0,0,-1.3333333,0,600)"><g
       id="g1409"
       transform="scale(0.1)"><path
         d="m 2918.3,1665.37 c -11.52,0 -23.04,2.54 -31.84,7.62 l -493.48,284.9 c -17.58,10.15 -17.58,26.6 0,36.76 l 178.79,103.21 c 8.79,5.08 20.31,7.62 31.83,7.62 11.52,0 23.04,-2.54 31.82,-7.61 l 493.48,-284.91 c 17.58,-10.16 17.58,-26.61 0,-36.76 l -178.78,-103.22 c -8.79,-5.08 -20.3,-7.61 -31.82,-7.61"
         style="fill:#899abf;fill-opacity:1;fill-rule:nonzero;stroke:none"
         id="path1411"
         inkscape:connector-curvature="0" /><path
         d="m 3237.56,1853.64 c -11.52,0 -23.04,2.53 -31.83,7.61 l -493.48,284.91 c -17.58,10.15 -17.58,26.6 0,36.75 l 178.78,103.22 c 8.79,5.07 20.31,7.61 31.83,7.61 11.52,0 23.04,-2.54 31.83,-7.61 l 493.48,-284.91 c 17.58,-10.15 17.58,-26.6 0,-36.75 l -178.78,-103.22 c -8.79,-5.08 -20.31,-7.61 -31.83,-7.61"
         style="fill:#899abf;fill-opacity:1;fill-rule:nonzero;stroke:none"
         id="path1413"
         inkscape:connector-curvature="0" /><path
         d="m 1592.49,789.301 c -16.19,0 -33.28,3.949 -46.62,11.648 L 1213.5,992.852 c -24.39,14.078 -27.04,35.388 -5.92,47.588 l 118.2,67.4 220.09,-127.07 c 13.35,-7.7 30.43,-11.649 46.63,-11.649 13.42,0 26.23,2.711 35.8,8.231 v 0 l 113.39,64.658 154.69,-91.612 -268.08,-152.859 c -9.57,-5.527 -22.38,-8.238 -35.81,-8.238 m 321.28,171.008 -154.7,91.611 328.69,187.42 112.29,-64.83 c 24.4,-14.08 27.04,-35.38 5.92,-47.58 l -292.2,-166.621"
         style="fill:#899abf;fill-opacity:1;fill-rule:nonzero;stroke:none"
         id="path1415"
         inkscape:connector-curvature="0" /><path
         d="m 2706.34,2296.02 c -31.09,-17.95 -31.09,-47.17 0,-65.11 l 528.56,-305.17 c 8.55,-4.93 22.42,-4.93 30.96,0 8.55,4.94 8.55,12.95 0,17.88 l -528.55,305.16 c -14.03,8.1 -14.03,21.27 0,29.37 l 51.21,29.57 c -5.69,8.56 -10.86,17.47 -15.91,26.56 l -66.27,-38.26"
         style="fill:#d9effb;fill-opacity:1;fill-rule:nonzero;stroke:none"
         id="path1631"
         inkscape:connector-curvature="0" /><path
         d="m 3454.94,2052.78 -528.56,305.17 c -31.09,17.95 -81.69,17.95 -112.78,0 l -40.99,-23.67 c 5.05,-9.09 10.22,-18 15.91,-26.56 l 56.03,32.36 c 14.04,8.09 36.85,8.09 50.87,0 l 528.56,-305.17 c 8.54,-4.93 22.41,-4.93 30.97,0 8.54,4.93 8.54,12.94 -0.01,17.87"
         style="fill:#5f92d3;fill-opacity:1;fill-rule:nonzero;stroke:none"
         id="path1633"
         inkscape:connector-curvature="0" /><path
         d="m 3461.3,2043.21 0.05,743.23 -553.9,308.78 -77.46,5.11 -74.91,-48.52 -45.96,-40.01 539.67,-855.8 176.2,-103.84 36.31,-8.95"
         style="fill:#5f92d3;fill-opacity:1;fill-rule:nonzero;stroke:none"
         id="path1635"
         inkscape:connector-curvature="0" /><path
         d="m 3256.45,1949.34 165.56,95.59 v 718.3 l -170.67,-79.34 5.11,-734.55"
         style="fill:#81b3e4;fill-opacity:1;fill-rule:nonzero;stroke:none"
         id="path1637"
         inkscape:connector-curvature="0" /><path
         d="m 2683.03,3006.05 v -742.02 l 581.48,-332.6 7.76,3.11 v 743.11 l -589.24,328.4"
         style="fill:#d9effb;fill-opacity:1;fill-rule:nonzero;stroke:none"
         id="path1639"
         inkscape:connector-curvature="0" /><path
         d="m 3010.07,2999.91 -115.55,66.4 c -14.12,6.53 -34.75,6.12 -47.84,-1.43 l -107.25,-61.92 c -8.3,-4.8 -11.65,-11.38 -10.12,-17.63 l 292.02,-174.49 234.55,-143.98 166.13,96.37 -411.94,236.68"
         style="fill:#ffffff;fill-opacity:1;fill-rule:nonzero;stroke:none"
         id="path1641"
         inkscape:connector-curvature="0" /><path
         d="M 3251.34,2689.31 V 1922.1 c 5.27,0.13 10.49,1.32 14.52,3.64 4.2,2.43 6.31,5.6 6.39,8.78 l 0.02,0.02 v 0.12 0.04 742.95 l -20.93,11.66"
         style="fill:#5f92d3;fill-opacity:1;fill-rule:nonzero;stroke:none"
         id="path1643"
         inkscape:connector-curvature="0" /><path
         d="m 3461.35,2777.18 v 9.26 h -2.95 l -0.91,-6.29 3.86,-2.97"
         style="fill:#ffffff;fill-opacity:1;fill-rule:nonzero;stroke:none"
         id="path1645"
         inkscape:connector-curvature="0" /><path
         d="m 3272.26,2668.02 v 9.5 l -2.86,-4.04 z"
         style="fill:#ffffff;fill-opacity:1;fill-rule:nonzero;stroke:none"
         id="path1647"
         inkscape:connector-curvature="0" /><path
         d="m 3234.9,2668.85 -528.56,305.16 c -31.09,17.96 -31.09,47.17 0,65.12 l 107.26,61.92 c 31.09,17.96 81.69,17.96 112.78,0 l 528.56,-305.15 c 8.55,-4.95 8.55,-12.95 0.01,-17.88 -8.56,-4.94 -22.43,-4.94 -30.97,0 l -528.56,305.16 c -14.02,8.1 -36.83,8.1 -50.87,0 l -107.24,-61.92 c -14.03,-8.1 -14.03,-21.27 0,-29.37 l 528.55,-305.16 c 8.55,-4.94 8.55,-12.94 0,-17.88 -8.54,-4.94 -22.41,-4.94 -30.96,0"
         style="fill:#d9effb;fill-opacity:1;fill-rule:nonzero;stroke:none"
         id="path1649"
         inkscape:connector-curvature="0" /><path
         d="m 3097.15,2317.06 -274.66,158.57 v 275.34 l 274.66,-158.57 v -275.34"
         style="fill:#ffffff;fill-opacity:1;fill-rule:nonzero;stroke:none"
         id="path1651"
         inkscape:connector-curvature="0" /><path
         d="m 3454.95,2778.02 c -8.56,-4.94 -22.43,-4.94 -30.97,0 l -528.56,305.16 c -14.02,8.1 -36.83,8.1 -50.87,0 l -107.24,-61.92 c -9.19,-5.31 -12.32,-12.78 -9.47,-19.58 1.49,3.58 4.62,6.99 9.47,9.78 l 107.24,61.93 c 14.04,8.1 36.85,8.1 50.87,0 l 528.56,-305.16 c 8.54,-4.94 22.41,-4.94 30.97,0 6.47,3.74 8.01,9.24 4.67,13.83 -1.06,-1.47 -2.61,-2.85 -4.67,-4.04"
         style="fill:#ffffff;fill-opacity:1;fill-rule:nonzero;stroke:none"
         id="path1653"
         inkscape:connector-curvature="0" /><path
         d="m 3265.86,2668.85 c -8.54,-4.94 -22.41,-4.94 -30.96,0 l -528.56,305.16 c -13.39,7.74 -20.98,17.56 -22.83,27.67 -2.46,-13.36 5.13,-27.23 22.83,-37.45 l 528.56,-305.17 c 8.55,-4.93 22.42,-4.93 30.96,0 6.48,3.74 8.02,9.24 4.68,13.84 -1.06,-1.48 -2.61,-2.85 -4.68,-4.05"
         style="fill:#ffffff;fill-opacity:1;fill-rule:nonzero;stroke:none"
         id="path1655"
         inkscape:connector-curvature="0" /><path
         d="m 2399.45,2105.66 c -31.1,-17.95 -31.1,-47.17 0,-65.12 L 2928,1735.39 c 8.56,-4.94 22.41,-4.94 30.97,0 8.54,4.93 8.54,12.94 0,17.87 l -528.57,305.17 c -14.02,8.09 -14.02,21.26 0,29.36 l 51.22,29.57 c -5.69,8.56 -10.85,17.47 -15.9,26.56 l -66.27,-38.26"
         style="fill:#ee1696;fill-opacity:1;fill-rule:nonzero;stroke:none"
         id="path1657"
         inkscape:connector-curvature="0" /><path
         d="m 3148.04,1862.42 -528.55,305.17 c -31.1,17.94 -81.69,17.94 -112.79,0 l -40.98,-23.67 c 5.05,-9.09 10.21,-18 15.9,-26.56 l 56.04,32.35 c 14.02,8.1 36.85,8.1 50.87,0 l 528.55,-305.16 c 8.55,-4.93 22.42,-4.93 30.96,0 8.56,4.93 8.56,12.94 0,17.87"
         style="fill:#d1078d;fill-opacity:1;fill-rule:nonzero;stroke:none"
         id="path1659"
         inkscape:connector-curvature="0" /><path
         d="m 3154.41,1852.85 0.05,743.23 -553.9,308.78 -77.46,5.11 -74.91,-48.52 -45.97,-40.01 539.67,-855.8 176.2,-103.85 36.32,-8.94"
         style="fill:#d1078d;fill-opacity:1;fill-rule:nonzero;stroke:none"
         id="path1661"
         inkscape:connector-curvature="0" /><path
         d="m 2949.55,1758.98 165.56,95.59 v 718.3 l -170.66,-79.34 5.1,-734.55"
         style="fill:#e352b1;fill-opacity:1;fill-rule:nonzero;stroke:none"
         id="path1663"
         inkscape:connector-curvature="0" /><path
         d="m 2376.14,2815.69 v -742.02 l 581.47,-332.6 7.76,3.11 v 743.11 l -589.23,328.4"
         style="fill:#ee1696;fill-opacity:1;fill-rule:nonzero;stroke:none"
         id="path1665"
         inkscape:connector-curvature="0" /><path
         d="m 2703.18,2809.55 -115.56,66.39 c -14.11,6.55 -34.75,6.13 -47.83,-1.42 l -107.26,-61.92 c -8.31,-4.8 -11.65,-11.38 -10.11,-17.63 l 292.01,-174.49 234.56,-143.98 166.12,96.37 -411.93,236.68"
         style="fill:#ffffff;fill-opacity:1;fill-rule:nonzero;stroke:none"
         id="path1667"
         inkscape:connector-curvature="0" /><path
         d="m 2944.45,2498.95 v -767.21 c 5.27,0.13 10.49,1.31 14.52,3.65 4.2,2.42 6.31,5.58 6.38,8.77 l 0.02,0.02 v 0.11 0.06 742.94 l -20.92,11.66"
         style="fill:#d1078d;fill-opacity:1;fill-rule:nonzero;stroke:none"
         id="path1669"
         inkscape:connector-curvature="0" /><path
         d="m 3154.46,2586.81 v 9.27 h -2.96 l -0.9,-6.29 3.86,-2.98"
         style="fill:#ffffff;fill-opacity:1;fill-rule:nonzero;stroke:none"
         id="path1671"
         inkscape:connector-curvature="0" /><path
         d="m 2965.36,2477.66 v 9.5 l -2.86,-4.04 z"
         style="fill:#ffffff;fill-opacity:1;fill-rule:nonzero;stroke:none"
         id="path1673"
         inkscape:connector-curvature="0" /><path
         d="m 2928,2478.49 -528.55,305.16 c -31.1,17.96 -31.1,47.17 0,65.12 l 107.25,61.92 c 31.1,17.96 81.69,17.96 112.79,0 l 528.55,-305.16 c 8.56,-4.94 8.56,-12.93 0,-17.88 -8.54,-4.93 -22.41,-4.93 -30.96,0 l -528.55,305.17 c -14.02,8.1 -36.85,8.1 -50.87,0 L 2430.4,2830.9 c -14.02,-8.1 -14.02,-21.27 0.01,-29.37 l 528.56,-305.17 c 8.54,-4.93 8.54,-12.93 0,-17.87 -8.56,-4.94 -22.41,-4.94 -30.97,0"
         style="fill:#ee1696;fill-opacity:1;fill-rule:nonzero;stroke:none"
         id="path1675"
         inkscape:connector-curvature="0" /><path
         d="m 2790.26,2126.7 -274.66,158.57 v 275.34 l 274.66,-158.57 V 2126.7"
         style="fill:#ffffff;fill-opacity:1;fill-rule:nonzero;stroke:none"
         id="path1677"
         inkscape:connector-curvature="0" /><path
         d="m 3148.04,2587.65 c -8.54,-4.93 -22.41,-4.93 -30.96,0 l -528.55,305.17 c -14.02,8.1 -36.85,8.1 -50.87,0 L 2430.4,2830.9 c -9.18,-5.31 -12.3,-12.78 -9.46,-19.58 1.5,3.59 4.63,6.99 9.46,9.79 l 107.26,61.92 c 14.02,8.1 36.85,8.1 50.87,-0.01 l 528.55,-305.15 c 8.55,-4.94 22.42,-4.94 30.96,0 6.49,3.74 8.03,9.24 4.69,13.83 -1.07,-1.47 -2.62,-2.85 -4.69,-4.05"
         style="fill:#ffffff;fill-opacity:1;fill-rule:nonzero;stroke:none"
         id="path1679"
         inkscape:connector-curvature="0" /><path
         d="m 2958.97,2478.49 c -8.56,-4.94 -22.41,-4.94 -30.97,0 l -528.55,305.16 c -13.39,7.73 -20.98,17.56 -22.84,27.67 -2.46,-13.36 5.13,-27.23 22.84,-37.46 L 2928,2468.7 c 8.56,-4.93 22.41,-4.93 30.97,0 6.47,3.74 8.02,9.24 4.68,13.84 -1.07,-1.48 -2.61,-2.85 -4.68,-4.05"
         style="fill:#ffffff;fill-opacity:1;fill-rule:nonzero;stroke:none"
         id="path1681"
         inkscape:connector-curvature="0" /><path
         d="m 4042.42,488.871 c -20.59,0 -40.24,4.16 -54.94,12.641 L 2841.24,1163.3 c -32.42,18.72 -28.36,51.41 9.1,73.04 l 780.49,450.46 c 20.48,11.83 46.7,17.89 71.56,17.89 20.6,0 40.26,-4.16 54.95,-12.64 l 1146.24,-661.78 c 32.42,-18.72 28.36,-51.418 -9.08,-73.04 L 4113.99,506.75 c -20.48,-11.82 -46.71,-17.879 -71.57,-17.879"
         style="fill:#899abf;fill-opacity:1;fill-rule:nonzero;stroke:none"
         id="path1683"
         inkscape:connector-curvature="0" /><path
         d="m 5229.8,2300.05 -1197.18,691.19 c -13.91,8.03 -28.04,9.26 -40.57,4.97 l 0.08,0.13 -2.18,-0.82 -0.52,-0.21 -43.26,-16.55 38.82,-19.02 -0.55,-2.11 -195,-887.63 c -9.77,-44.43 9.78,-96.28 43.64,-115.84 l 1168.39,-674.56 -4.16,-49.51 47.28,18.32 c 15.88,7.43 28.61,24.23 33.86,48.16 l 195,887.64 c 9.77,44.42 -9.78,96.28 -43.65,115.84"
         style="fill:#263c7a;fill-opacity:1;fill-rule:nonzero;stroke:none"
         id="path1685"
         inkscape:connector-curvature="0" /><path
         d="m 5229.8,2300.05 -1197.18,691.19 c -13.91,8.03 -28.04,9.26 -40.57,4.97 l 0.08,0.13 -2.18,-0.82 -0.52,-0.21 -43.26,-16.55 38.82,-19.02 -0.55,-2.11 -128.53,-585.01 585.77,-456.36 825.94,336.07 c -7.94,20.58 -21.13,38.08 -37.82,47.72"
         style="fill:#4067b1;fill-opacity:1;fill-rule:nonzero;stroke:none"
         id="path1687"
         inkscape:connector-curvature="0" /><path
         d="m 5184.66,2163.6 91.13,38.8 c 1.67,35.29 -12.93,71.76 -36.92,91.25 l -144.25,-60.67 90.04,-69.38"
         style="fill:#2e4b8d;fill-opacity:1;fill-rule:nonzero;stroke:none"
         id="path1689"
         inkscape:connector-curvature="0" /><path
         d="m 4955.72,1234.78 -1197.19,691.19 c -33.87,19.56 -53.41,71.42 -43.64,115.84 l 195,887.64 c 9.75,44.42 45.11,64.58 78.98,45.03 l 1197.19,-691.19 c 33.86,-19.56 53.41,-71.42 43.64,-115.84 l -195,-887.64 c -9.75,-44.42 -45.12,-64.58 -78.98,-45.03"
         style="fill:#d9effb;fill-opacity:1;fill-rule:nonzero;stroke:none"
         id="path1691"
         inkscape:connector-curvature="0" /><path
         d="m 5197.55,2287.5 -1197.19,691.18 c -16.4,9.47 -33.1,9.46 -47.13,2.05 11.26,2.46 23.53,0.74 35.64,-6.26 l 1197.19,-691.18 c 33.87,-19.55 53.41,-71.43 43.64,-115.84 l -195,-887.63 c -5.03,-22.91 -16.92,-39.19 -31.84,-47.08 20.2,4.42 37.08,22.75 43.34,51.28 l 195,887.64 c 9.76,44.41 -9.78,96.28 -43.65,115.84"
         style="fill:#ffffff;fill-opacity:1;fill-rule:nonzero;stroke:none"
         id="path1693"
         inkscape:connector-curvature="0" /><path
         d="m 4929.76,1300.81 -1125.92,649.73 c -30.99,17.9 -48.88,65.36 -39.95,106 l 178.45,812.27 c 8.92,40.64 41.29,59.09 72.27,41.2 l 1125.93,-649.74 c 31,-17.89 48.88,-65.34 39.95,-106 l -178.45,-812.25 c -8.92,-40.66 -41.28,-59.1 -72.28,-41.21"
         style="fill:#ffffff;fill-opacity:1;fill-rule:nonzero;stroke:none"
         id="path1695"
         inkscape:connector-curvature="0" /><path
         d="m 4929.76,1300.81 -1125.92,649.73 c -30.99,17.9 -48.88,65.36 -39.95,106 l 178.45,812.27 c 8.92,40.64 41.29,59.09 72.27,41.2 l 1125.93,-649.74 c 31,-17.89 48.88,-65.34 39.95,-106 l -178.45,-812.25 c -8.92,-40.66 -41.28,-59.1 -72.28,-41.21"
         style="fill:#263c7a;fill-opacity:1;fill-rule:nonzero;stroke:none"
         id="path1697"
         inkscape:connector-curvature="0" /><path
         d="m 4939.57,1304.8 -1125.92,649.74 c -30.99,17.89 -48.87,65.35 -39.95,105.99 l 178.45,812.27 c 4.51,20.57 15.06,35.39 28.37,42.75 -17.85,-4.59 -32.6,-21.32 -38.18,-46.74 l -178.45,-812.26 c -8.93,-40.65 8.96,-88.11 39.94,-106.01 l 1125.93,-649.73 c 15.31,-8.84 30.93,-8.74 43.92,-1.55 -10.7,-2.76 -22.49,-1.16 -34.11,5.54"
         style="fill:#5f92d3;fill-opacity:1;fill-rule:nonzero;stroke:none"
         id="path1699"
         inkscape:connector-curvature="0" /><path
         d="m 4972.24,1204.69 -163.64,21.61 -1056.38,609.89 c -33.86,19.55 -93.02,17.1 -132.12,-5.48 l -748.54,-432.01 -98.96,13.07 v -56.15 l 0.1,-0.02 c -0.65,-12.97 6.74,-25.45 22.72,-34.67 L 3992.6,629.73 c 33.87,-19.55 93.02,-17.101 132.13,5.481 l 815.19,470.489 c 22,12.71 32.96,29.07 32.32,44.43 v 54.56"
         style="fill:#263c7a;fill-opacity:1;fill-rule:nonzero;stroke:none"
         id="path1701"
         inkscape:connector-curvature="0" /><path
         d="m 4178.52,1590.07 -75.05,43.33 h -825.14 l -406.77,-234.7 -98.96,13.07 v -56.15 l 0.1,-0.02 c -0.65,-12.97 6.74,-25.45 22.72,-34.67 L 3992.6,629.73 c 17.89,-10.332 42.86,-14.46 68.18,-12.781 l 117.74,973.121"
         style="fill:#4067b1;fill-opacity:1;fill-rule:nonzero;stroke:none"
         id="path1703"
         inkscape:connector-curvature="0" /><path
         d="m 2816.52,1405.96 -43.92,5.81 v -56.15 l 0.1,-0.02 c -0.65,-12.97 6.74,-25.45 22.72,-34.67 l 21.1,-12.18 v 97.21"
         style="fill:#5f92d3;fill-opacity:1;fill-rule:nonzero;stroke:none"
         id="path1705"
         inkscape:connector-curvature="0" /><path
         d="m 4004.65,624.129 c 32.1,-12.168 78,-9.52 112.27,6.973 V 756.34 H 4004.65 V 624.129"
         style="fill:#2e4b8d;fill-opacity:1;fill-rule:nonzero;stroke:none"
         id="path1707"
         inkscape:connector-curvature="0" /><path
         d="M 3992.6,685.809 2795.42,1377.01 c -33.86,19.55 -29.62,53.7 9.49,76.28 l 815.19,470.5 c 39.1,22.56 98.26,25.03 132.13,5.47 l 1197.18,-691.2 c 33.87,-19.55 29.62,-53.7 -9.49,-76.28 L 4124.73,691.289 c -39.11,-22.578 -98.26,-25.027 -132.13,-5.48"
         style="fill:#d9effb;fill-opacity:1;fill-rule:nonzero;stroke:none"
         id="path1709"
         inkscape:connector-curvature="0" /><path
         d="M 4939.92,1182.29 4124.73,711.789 c -39.11,-22.57 -98.26,-25.019 -132.13,-5.469 l -1197.18,691.19 c -11.1,6.41 -18.03,14.4 -21.05,23.03 -5.3,-16.02 1.45,-32.22 21.05,-43.54 L 3992.6,685.809 c 33.87,-19.547 93.02,-17.098 132.13,5.48 l 815.19,470.491 c 26.28,15.18 36.74,35.57 30.54,53.26 -3.85,-11.67 -14.06,-23.24 -30.54,-32.75"
         style="fill:#ffffff;fill-opacity:1;fill-rule:nonzero;stroke:none"
         id="path1711"
         inkscape:connector-curvature="0" /><path
         d="m 3304.59,1605.83 -54.16,31.28 c -4.35,2.51 -3.81,6.89 1.21,9.79 l 63.94,36.92 c 5.03,2.9 12.63,3.21 16.97,0.7 l 54.17,-31.28 c 4.35,-2.51 3.8,-6.89 -1.22,-9.8 l -63.93,-36.91 c -5.02,-2.9 -12.62,-3.21 -16.98,-0.7"
         style="fill:#5f92d3;fill-opacity:1;fill-rule:nonzero;stroke:none"
         id="path1713"
         inkscape:connector-curvature="0" /><path
         d="m 3388.25,1557.54 -54.16,31.27 c -4.36,2.51 -3.81,6.89 1.21,9.79 l 63.93,36.92 c 5.03,2.9 12.63,3.21 16.97,0.7 l 54.17,-31.27 c 4.35,-2.51 3.8,-6.9 -1.22,-9.8 l -63.93,-36.91 c -5.02,-2.9 -12.62,-3.21 -16.97,-0.7"
         style="fill:#5f92d3;fill-opacity:1;fill-rule:nonzero;stroke:none"
         id="path1715"
         inkscape:connector-curvature="0" /><path
         d="m 3471.9,1509.24 -54.17,31.28 c -4.35,2.5 -3.8,6.89 1.22,9.79 l 63.93,36.91 c 5.02,2.9 12.62,3.22 16.98,0.71 l 54.16,-31.28 c 4.35,-2.51 3.81,-6.9 -1.21,-9.8 l -63.94,-36.91 c -5.03,-2.9 -12.63,-3.21 -16.97,-0.7"
         style="fill:#5f92d3;fill-opacity:1;fill-rule:nonzero;stroke:none"
         id="path1717"
         inkscape:connector-curvature="0" /><path
         d="m 3587.59,1549.12 -54.17,31.28 c -4.34,2.51 -3.8,6.89 1.22,9.79 l 53.67,30.99 c 5.02,2.9 12.62,3.21 16.98,0.7 l 54.16,-31.27 c 4.35,-2.51 3.81,-6.9 -1.21,-9.79 l -53.68,-31 c -5.03,-2.89 -12.61,-3.21 -16.97,-0.7"
         style="fill:#5f92d3;fill-opacity:1;fill-rule:nonzero;stroke:none"
         id="path1719"
         inkscape:connector-curvature="0" /><path
         d="m 3671.24,1500.83 -54.17,31.27 c -4.34,2.51 -3.79,6.9 1.22,9.8 l 53.68,30.99 c 5.02,2.89 12.61,3.21 16.96,0.7 l 54.17,-31.28 c 4.35,-2.51 3.81,-6.89 -1.22,-9.79 l -53.66,-30.99 c -5.03,-2.9 -12.63,-3.21 -16.98,-0.7"
         style="fill:#5f92d3;fill-opacity:1;fill-rule:nonzero;stroke:none"
         id="path1721"
         inkscape:connector-curvature="0" /><path
         d="m 3754.9,1452.53 -54.17,31.28 c -4.35,2.51 -3.8,6.89 1.22,9.79 l 53.67,30.99 c 5.02,2.9 12.62,3.21 16.96,0.7 l 54.17,-31.27 c 4.35,-2.51 3.81,-6.9 -1.22,-9.79 l -53.67,-31 c -5.02,-2.89 -12.62,-3.21 -16.96,-0.7"
         style="fill:#5f92d3;fill-opacity:1;fill-rule:nonzero;stroke:none"
         id="path1723"
         inkscape:connector-curvature="0" /><path
         d="m 3838.55,1404.24 -54.17,31.27 c -4.35,2.51 -3.8,6.9 1.22,9.79 l 53.67,31 c 5.02,2.89 12.62,3.21 16.96,0.7 l 54.17,-31.28 c 4.35,-2.51 3.8,-6.89 -1.22,-9.79 l -53.67,-30.99 c -5.02,-2.9 -12.62,-3.21 -16.96,-0.7"
         style="fill:#5f92d3;fill-opacity:1;fill-rule:nonzero;stroke:none"
         id="path1725"
         inkscape:connector-curvature="0" /><path
         d="m 3922.2,1355.94 -54.17,31.27 c -4.34,2.51 -3.81,6.9 1.22,9.8 l 53.67,30.99 c 5.02,2.9 12.62,3.21 16.97,0.7 l 54.17,-31.27 c 4.34,-2.51 3.8,-6.91 -1.22,-9.81 l -53.68,-30.98 c -5.02,-2.89 -12.61,-3.21 -16.96,-0.7"
         style="fill:#5f92d3;fill-opacity:1;fill-rule:nonzero;stroke:none"
         id="path1727"
         inkscape:connector-curvature="0" /><path
         d="m 4005.85,1307.64 -54.17,31.27 c -4.35,2.51 -3.81,6.91 1.22,9.8 l 53.67,30.99 c 5.03,2.9 12.62,3.22 16.97,0.71 l 54.17,-31.28 c 4.34,-2.51 3.8,-6.9 -1.22,-9.8 l -53.67,-30.98 c -5.02,-2.9 -12.62,-3.22 -16.97,-0.71"
         style="fill:#5f92d3;fill-opacity:1;fill-rule:nonzero;stroke:none"
         id="path1729"
         inkscape:connector-curvature="0" /><path
         d="m 4089.5,1259.34 -54.16,31.28 c -4.36,2.51 -3.81,6.9 1.21,9.8 l 53.67,30.98 c 5.03,2.9 12.62,3.22 16.97,0.71 l 54.17,-31.27 c 4.35,-2.51 3.8,-6.91 -1.22,-9.81 l -53.67,-30.98 c -5.02,-2.89 -12.62,-3.22 -16.97,-0.71"
         style="fill:#5f92d3;fill-opacity:1;fill-rule:nonzero;stroke:none"
         id="path1731"
         inkscape:connector-curvature="0" /><path
         d="m 4173.15,1211.05 -54.17,31.27 c -4.35,2.51 -3.8,6.91 1.22,9.8 l 53.67,30.99 c 5.02,2.89 12.62,3.22 16.97,0.71 l 54.16,-31.28 c 4.36,-2.51 3.81,-6.9 -1.21,-9.8 l -53.67,-30.98 c -5.02,-2.91 -12.62,-3.22 -16.97,-0.71"
         style="fill:#5f92d3;fill-opacity:1;fill-rule:nonzero;stroke:none"
         id="path1733"
         inkscape:connector-curvature="0" /><path
         d="m 4256.8,1162.75 -54.17,31.28 c -4.35,2.51 -3.8,6.9 1.22,9.8 l 53.67,30.98 c 5.02,2.9 12.62,3.21 16.98,0.71 l 54.16,-31.27 c 4.35,-2.51 3.8,-6.91 -1.21,-9.81 l -53.68,-30.99 c -5.03,-2.9 -12.62,-3.21 -16.97,-0.7"
         style="fill:#5f92d3;fill-opacity:1;fill-rule:nonzero;stroke:none"
         id="path1735"
         inkscape:connector-curvature="0" /><path
         d="m 4340.45,1114.46 -54.17,31.27 c -4.34,2.51 -3.8,6.9 1.22,9.79 l 53.68,31 c 5.02,2.89 12.61,3.21 16.96,0.7 l 54.17,-31.28 c 4.35,-2.5 3.81,-6.89 -1.22,-9.79 l -53.66,-30.99 c -5.03,-2.9 -12.63,-3.21 -16.98,-0.7"
         style="fill:#5f92d3;fill-opacity:1;fill-rule:nonzero;stroke:none"
         id="path1737"
         inkscape:connector-curvature="0" /><path
         d="m 3710.84,1571.99 -54.16,31.27 c -4.35,2.51 -3.81,6.89 1.21,9.79 l 53.68,30.99 c 5.03,2.9 12.62,3.22 16.97,0.7 l 54.17,-31.27 c 4.34,-2.51 3.8,-6.89 -1.22,-9.79 l -53.67,-30.99 c -5.02,-2.9 -12.62,-3.21 -16.98,-0.7"
         style="fill:#5f92d3;fill-opacity:1;fill-rule:nonzero;stroke:none"
         id="path1739"
         inkscape:connector-curvature="0" /><path
         d="m 3625.95,1621 -54.17,31.28 c -4.34,2.51 -3.81,6.9 1.22,9.8 l 53.67,30.98 c 5.02,2.9 12.62,3.22 16.97,0.71 l 54.17,-31.28 c 4.34,-2.51 3.8,-6.9 -1.22,-9.8 l -53.68,-30.98 c -5.02,-2.9 -12.61,-3.22 -16.96,-0.71"
         style="fill:#5f92d3;fill-opacity:1;fill-rule:nonzero;stroke:none"
         id="path1741"
         inkscape:connector-curvature="0" /><path
         d="m 3540.91,1670.1 -116.66,67.36 c -4.35,2.51 -3.81,6.89 1.21,9.79 l 53.67,30.99 c 5.02,2.9 12.62,3.21 16.98,0.7 l 116.66,-67.35 c 4.34,-2.51 3.81,-6.9 -1.22,-9.8 l -53.68,-30.98 c -5.01,-2.9 -12.61,-3.21 -16.96,-0.71"
         style="fill:#5f92d3;fill-opacity:1;fill-rule:nonzero;stroke:none"
         id="path1743"
         inkscape:connector-curvature="0" /><path
         d="m 3600.36,1729.81 -94.68,54.66 c -4.36,2.51 -3.81,6.89 1.22,9.8 l 53.67,30.98 c 5.02,2.9 12.62,3.21 16.96,0.7 l 94.68,-54.65 c 4.35,-2.51 3.8,-6.9 -1.22,-9.8 l -53.67,-30.98 c -5.02,-2.91 -12.62,-3.22 -16.96,-0.71"
         style="fill:#5f92d3;fill-opacity:1;fill-rule:nonzero;stroke:none"
         id="path1745"
         inkscape:connector-curvature="0" /><path
         d="m 3794.5,1523.69 -54.16,31.28 c -4.36,2.51 -3.81,6.89 1.21,9.79 l 53.67,30.99 c 5.02,2.9 12.62,3.21 16.97,0.7 l 54.17,-31.27 c 4.35,-2.52 3.8,-6.9 -1.22,-9.8 l -53.67,-30.99 c -5.02,-2.9 -12.62,-3.21 -16.97,-0.7"
         style="fill:#5f92d3;fill-opacity:1;fill-rule:nonzero;stroke:none"
         id="path1747"
         inkscape:connector-curvature="0" /><path
         d="m 3878.15,1475.4 -54.17,31.27 c -4.35,2.51 -3.8,6.89 1.22,9.79 l 53.67,30.99 c 5.02,2.9 12.62,3.22 16.97,0.7 l 54.16,-31.27 c 4.36,-2.51 3.81,-6.89 -1.21,-9.79 l -53.67,-30.99 c -5.03,-2.9 -12.62,-3.21 -16.97,-0.7"
         style="fill:#5f92d3;fill-opacity:1;fill-rule:nonzero;stroke:none"
         id="path1749"
         inkscape:connector-curvature="0" /><path
         d="m 3961.8,1427.1 -54.17,31.28 c -4.35,2.51 -3.8,6.89 1.22,9.79 l 53.67,30.99 c 5.02,2.9 12.62,3.21 16.97,0.7 l 54.17,-31.27 c 4.35,-2.52 3.8,-6.9 -1.22,-9.8 l -53.67,-30.99 c -5.03,-2.9 -12.62,-3.21 -16.97,-0.7"
         style="fill:#5f92d3;fill-opacity:1;fill-rule:nonzero;stroke:none"
         id="path1751"
         inkscape:connector-curvature="0" /><path
         d="m 4045.45,1378.81 -54.17,31.27 c -4.34,2.51 -3.8,6.89 1.22,9.79 l 53.68,30.99 c 5.02,2.9 12.61,3.22 16.96,0.7 l 54.17,-31.27 c 4.34,-2.51 3.81,-6.89 -1.22,-9.79 l -53.67,-30.99 c -5.02,-2.9 -12.62,-3.21 -16.97,-0.7"
         style="fill:#5f92d3;fill-opacity:1;fill-rule:nonzero;stroke:none"
         id="path1753"
         inkscape:connector-curvature="0" /><path
         d="m 4129.11,1330.51 -54.17,31.27 c -4.35,2.51 -3.8,6.9 1.22,9.8 l 53.67,30.99 c 5.02,2.9 12.62,3.21 16.96,0.7 l 54.17,-31.27 c 4.35,-2.52 3.8,-6.9 -1.22,-9.81 l -53.67,-30.98 c -5.02,-2.9 -12.62,-3.21 -16.96,-0.7"
         style="fill:#5f92d3;fill-opacity:1;fill-rule:nonzero;stroke:none"
         id="path1755"
         inkscape:connector-curvature="0" /><path
         d="m 4212.76,1282.21 -54.17,31.27 c -4.35,2.51 -3.81,6.9 1.22,9.8 l 53.67,30.99 c 5.02,2.9 12.62,3.22 16.96,0.7 l 54.17,-31.27 c 4.35,-2.51 3.8,-6.9 -1.22,-9.8 l -53.67,-30.98 c -5.02,-2.9 -12.62,-3.22 -16.96,-0.71"
         style="fill:#5f92d3;fill-opacity:1;fill-rule:nonzero;stroke:none"
         id="path1757"
         inkscape:connector-curvature="0" /><path
         d="m 4296.41,1233.91 -54.17,31.28 c -4.36,2.51 -3.81,6.9 1.22,9.8 l 53.66,30.98 c 5.03,2.9 12.63,3.22 16.98,0.71 l 54.17,-31.27 c 4.34,-2.52 3.79,-6.91 -1.23,-9.81 l -53.67,-30.98 c -5.02,-2.9 -12.61,-3.22 -16.96,-0.71"
         style="fill:#5f92d3;fill-opacity:1;fill-rule:nonzero;stroke:none"
         id="path1759"
         inkscape:connector-curvature="0" /><path
         d="m 4380.05,1185.62 -54.16,31.27 c -4.35,2.51 -3.81,6.9 1.21,9.8 l 53.68,30.98 c 5.02,2.9 12.61,3.23 16.97,0.71 l 54.17,-31.27 c 4.34,-2.51 3.8,-6.9 -1.22,-9.8 l -53.67,-30.98 c -5.02,-2.9 -12.62,-3.22 -16.98,-0.71"
         style="fill:#5f92d3;fill-opacity:1;fill-rule:nonzero;stroke:none"
         id="path1761"
         inkscape:connector-curvature="0" /><path
         d="m 4463.7,1137.32 -54.17,31.28 c -4.34,2.51 -3.79,6.9 1.23,9.8 l 53.67,30.98 c 5.02,2.9 12.61,3.22 16.97,0.71 l 54.16,-31.27 c 4.36,-2.52 3.81,-6.91 -1.21,-9.81 l -53.67,-30.99 c -5.02,-2.9 -12.62,-3.21 -16.98,-0.7"
         style="fill:#5f92d3;fill-opacity:1;fill-rule:nonzero;stroke:none"
         id="path1763"
         inkscape:connector-curvature="0" /><path
         d="m 4612.42,1051.46 -118.19,68.24 c -4.34,2.51 -3.81,6.9 1.22,9.8 l 53.67,30.99 c 5.02,2.9 12.62,3.21 16.97,0.7 l 118.19,-68.23 c 4.35,-2.52 3.8,-6.91 -1.22,-9.81 l -53.67,-30.98 c -5.02,-2.9 -12.62,-3.22 -16.97,-0.71"
         style="fill:#5f92d3;fill-opacity:1;fill-rule:nonzero;stroke:none"
         id="path1765"
         inkscape:connector-curvature="0" /><path
         d="m 4775.28,1145.5 -99.76,57.58 c -4.34,2.51 -3.8,6.9 1.22,9.8 l 53.67,30.98 c 5.02,2.91 12.62,3.23 16.97,0.71 l 99.75,-57.59 c 4.36,-2.51 3.81,-6.89 -1.21,-9.79 l -53.67,-30.99 c -5.03,-2.9 -12.63,-3.22 -16.97,-0.7"
         style="fill:#5f92d3;fill-opacity:1;fill-rule:nonzero;stroke:none"
         id="path1767"
         inkscape:connector-curvature="0" /><path
         d="m 3940.99,1533.14 -54.17,31.27 c -4.35,2.51 -3.8,6.91 1.22,9.81 l 53.67,30.98 c 5.02,2.9 12.62,3.22 16.97,0.71 l 54.17,-31.28 c 4.35,-2.51 3.8,-6.9 -1.23,-9.8 l -53.66,-30.98 c -5.03,-2.91 -12.62,-3.22 -16.97,-0.71"
         style="fill:#5f92d3;fill-opacity:1;fill-rule:nonzero;stroke:none"
         id="path1769"
         inkscape:connector-curvature="0" /><path
         d="m 3855.26,1582.63 -54.17,31.28 c -4.35,2.51 -3.8,6.9 1.22,9.8 l 53.67,30.98 c 5.02,2.91 12.62,3.22 16.96,0.71 l 54.17,-31.27 c 4.36,-2.51 3.81,-6.91 -1.22,-9.8 l -53.66,-30.99 c -5.03,-2.89 -12.63,-3.22 -16.97,-0.71"
         style="fill:#5f92d3;fill-opacity:1;fill-rule:nonzero;stroke:none"
         id="path1771"
         inkscape:connector-curvature="0" /><path
         d="m 3769.53,1632.14 -54.17,31.27 c -4.35,2.52 -3.8,6.9 1.22,9.8 l 53.67,30.99 c 5.02,2.9 12.61,3.21 16.97,0.7 l 54.16,-31.28 c 4.36,-2.51 3.81,-6.89 -1.21,-9.79 l -53.67,-30.99 c -5.03,-2.9 -12.63,-3.21 -16.97,-0.7"
         style="fill:#5f92d3;fill-opacity:1;fill-rule:nonzero;stroke:none"
         id="path1773"
         inkscape:connector-curvature="0" /><path
         d="m 3683.79,1681.64 -54.17,31.27 c -4.34,2.51 -3.8,6.89 1.22,9.79 l 53.68,30.99 c 5.01,2.9 12.61,3.21 16.97,0.7 l 54.16,-31.27 c 4.35,-2.51 3.81,-6.89 -1.21,-9.79 l -53.67,-30.99 c -5.03,-2.9 -12.63,-3.22 -16.98,-0.7"
         style="fill:#5f92d3;fill-opacity:1;fill-rule:nonzero;stroke:none"
         id="path1775"
         inkscape:connector-curvature="0" /><path
         d="m 4024.64,1484.84 -54.17,31.28 c -4.34,2.51 -3.8,6.9 1.22,9.8 l 53.67,30.98 c 5.02,2.9 12.62,3.21 16.97,0.7 l 54.17,-31.26 c 4.34,-2.51 3.81,-6.91 -1.22,-9.8 l -53.67,-31 c -5.02,-2.89 -12.62,-3.21 -16.97,-0.7"
         style="fill:#5f92d3;fill-opacity:1;fill-rule:nonzero;stroke:none"
         id="path1777"
         inkscape:connector-curvature="0" /><path
         d="m 4108.29,1436.55 -54.17,31.27 c -4.34,2.51 -3.8,6.9 1.23,9.8 l 53.67,30.99 c 5.02,2.89 12.61,3.21 16.96,0.7 l 54.17,-31.28 c 4.35,-2.51 3.8,-6.89 -1.22,-9.79 l -53.67,-30.99 c -5.02,-2.9 -12.62,-3.21 -16.97,-0.7"
         style="fill:#5f92d3;fill-opacity:1;fill-rule:nonzero;stroke:none"
         id="path1779"
         inkscape:connector-curvature="0" /><path
         d="m 4191.95,1388.25 -54.17,31.28 c -4.36,2.51 -3.81,6.89 1.22,9.79 l 53.67,30.99 c 5.02,2.9 12.62,3.21 16.96,0.7 l 54.17,-31.27 c 4.35,-2.51 3.8,-6.9 -1.22,-9.79 l -53.67,-31 c -5.02,-2.89 -12.62,-3.21 -16.96,-0.7"
         style="fill:#5f92d3;fill-opacity:1;fill-rule:nonzero;stroke:none"
         id="path1781"
         inkscape:connector-curvature="0" /><path
         d="m 4275.59,1339.96 -54.16,31.27 c -4.36,2.51 -3.81,6.9 1.21,9.8 l 53.67,30.99 c 5.03,2.89 12.63,3.21 16.97,0.7 l 54.17,-31.28 c 4.35,-2.51 3.8,-6.89 -1.22,-9.79 l -53.67,-30.99 c -5.02,-2.9 -12.61,-3.21 -16.97,-0.7"
         style="fill:#5f92d3;fill-opacity:1;fill-rule:nonzero;stroke:none"
         id="path1783"
         inkscape:connector-curvature="0" /><path
         d="m 4359.24,1291.66 -54.16,31.28 c -4.35,2.51 -3.81,6.89 1.21,9.79 l 53.67,30.99 c 5.02,2.9 12.62,3.21 16.98,0.7 l 54.17,-31.27 c 4.34,-2.51 3.8,-6.9 -1.22,-9.79 l -53.68,-31 c -5.01,-2.89 -12.61,-3.21 -16.97,-0.7"
         style="fill:#5f92d3;fill-opacity:1;fill-rule:nonzero;stroke:none"
         id="path1785"
         inkscape:connector-curvature="0" /><path
         d="m 4442.89,1243.37 -54.17,31.27 c -4.34,2.51 -3.79,6.9 1.23,9.79 l 53.67,31 c 5.02,2.89 12.61,3.21 16.97,0.7 l 54.16,-31.28 c 4.36,-2.51 3.81,-6.89 -1.21,-9.79 l -53.67,-30.99 c -5.03,-2.9 -12.62,-3.21 -16.98,-0.7"
         style="fill:#5f92d3;fill-opacity:1;fill-rule:nonzero;stroke:none"
         id="path1787"
         inkscape:connector-curvature="0" /><path
         d="m 4526.55,1195.07 -54.17,31.28 c -4.35,2.5 -3.8,6.89 1.22,9.79 l 53.67,30.99 c 5.02,2.9 12.62,3.21 16.96,0.7 l 54.17,-31.27 c 4.36,-2.51 3.81,-6.9 -1.21,-9.8 l -53.67,-30.99 c -5.03,-2.89 -12.63,-3.21 -16.97,-0.7"
         style="fill:#5f92d3;fill-opacity:1;fill-rule:nonzero;stroke:none"
         id="path1789"
         inkscape:connector-curvature="0" /><path
         d="m 4610.2,1146.77 -54.17,31.27 c -4.35,2.51 -3.8,6.91 1.22,9.8 l 53.67,31 c 5.02,2.89 12.62,3.21 16.96,0.7 l 54.17,-31.28 c 4.35,-2.51 3.81,-6.9 -1.22,-9.8 l -53.67,-30.98 c -5.02,-2.9 -12.62,-3.21 -16.96,-0.71"
         style="fill:#5f92d3;fill-opacity:1;fill-rule:nonzero;stroke:none"
         id="path1791"
         inkscape:connector-curvature="0" /><path
         d="m 4693.85,1098.47 -54.17,31.28 c -4.34,2.51 -3.8,6.9 1.22,9.8 l 53.67,30.98 c 5.02,2.91 12.62,3.22 16.97,0.71 l 54.17,-31.27 c 4.34,-2.51 3.8,-6.91 -1.22,-9.81 l -53.68,-30.98 c -5.02,-2.89 -12.61,-3.22 -16.96,-0.71"
         style="fill:#5f92d3;fill-opacity:1;fill-rule:nonzero;stroke:none"
         id="path1793"
         inkscape:connector-curvature="0" /><path
         d="m 3896.95,1652.6 -54.17,31.27 c -4.36,2.51 -3.81,6.9 1.22,9.8 l 53.66,30.99 c 5.03,2.9 12.63,3.21 16.97,0.7 l 54.17,-31.27 c 4.35,-2.52 3.8,-6.9 -1.22,-9.81 l -53.67,-30.98 c -5.02,-2.9 -12.62,-3.21 -16.96,-0.7"
         style="fill:#5f92d3;fill-opacity:1;fill-rule:nonzero;stroke:none"
         id="path1795"
         inkscape:connector-curvature="0" /><path
         d="m 3813.7,1700.65 -54.16,31.28 c -4.35,2.51 -3.8,6.9 1.22,9.8 l 53.67,30.98 c 5.02,2.9 12.61,3.22 16.97,0.71 l 54.16,-31.27 c 4.36,-2.52 3.81,-6.91 -1.21,-9.81 l -53.67,-30.99 c -5.02,-2.9 -12.62,-3.21 -16.98,-0.7"
         style="fill:#5f92d3;fill-opacity:1;fill-rule:nonzero;stroke:none"
         id="path1797"
         inkscape:connector-curvature="0" /><path
         d="m 3730.47,1748.71 -54.17,31.28 c -4.34,2.51 -3.8,6.89 1.22,9.79 l 53.68,30.99 c 5.01,2.9 12.61,3.21 16.96,0.7 l 54.17,-31.28 c 4.35,-2.51 3.81,-6.89 -1.22,-9.79 l -53.66,-30.99 c -5.03,-2.9 -12.63,-3.21 -16.98,-0.7"
         style="fill:#5f92d3;fill-opacity:1;fill-rule:nonzero;stroke:none"
         id="path1799"
         inkscape:connector-curvature="0" /><path
         d="m 3647.24,1796.77 -54.17,31.26 c -4.35,2.52 -3.8,6.91 1.22,9.81 l 53.67,30.99 c 5.02,2.9 12.62,3.21 16.97,0.7 l 54.17,-31.28 c 4.34,-2.51 3.79,-6.9 -1.23,-9.8 l -53.67,-30.98 c -5.02,-2.9 -12.61,-3.21 -16.96,-0.7"
         style="fill:#5f92d3;fill-opacity:1;fill-rule:nonzero;stroke:none"
         id="path1801"
         inkscape:connector-curvature="0" /><path
         d="m 3732.83,1846.18 -54.17,31.28 c -4.35,2.51 -3.8,6.89 1.22,9.79 l 17.74,10.25 c 5.02,2.9 12.62,3.21 16.97,0.7 l 54.16,-31.28 c 4.36,-2.51 3.81,-6.89 -1.21,-9.79 l -17.74,-10.25 c -5.02,-2.9 -12.62,-3.21 -16.97,-0.7"
         style="fill:#5f92d3;fill-opacity:1;fill-rule:nonzero;stroke:none"
         id="path1803"
         inkscape:connector-curvature="0" /><path
         d="m 3841.45,1783.46 -54.17,31.28 c -4.35,2.51 -3.8,6.9 1.22,9.8 l 17.74,10.24 c 5.02,2.9 12.62,3.22 16.97,0.71 l 54.17,-31.27 c 4.35,-2.52 3.81,-6.91 -1.22,-9.81 l -17.74,-10.24 c -5.03,-2.89 -12.63,-3.22 -16.97,-0.71"
         style="fill:#5f92d3;fill-opacity:1;fill-rule:nonzero;stroke:none"
         id="path1805"
         inkscape:connector-curvature="0" /><path
         d="m 3924.34,1735.61 -54.17,31.27 c -4.35,2.52 -3.8,6.91 1.22,9.81 l 17.74,10.24 c 5.02,2.89 12.62,3.21 16.97,0.7 l 54.17,-31.28 c 4.34,-2.5 3.8,-6.89 -1.22,-9.79 l -17.75,-10.24 c -5.02,-2.9 -12.61,-3.22 -16.96,-0.71"
         style="fill:#5f92d3;fill-opacity:1;fill-rule:nonzero;stroke:none"
         id="path1807"
         inkscape:connector-curvature="0" /><path
         d="m 4007.23,1687.76 -54.17,31.27 c -4.36,2.51 -3.81,6.9 1.22,9.8 l 17.74,10.24 c 5.02,2.9 12.62,3.21 16.97,0.7 l 54.17,-31.27 c 4.34,-2.51 3.8,-6.89 -1.22,-9.79 l -17.75,-10.25 c -5.02,-2.9 -12.61,-3.21 -16.96,-0.7"
         style="fill:#5f92d3;fill-opacity:1;fill-rule:nonzero;stroke:none"
         id="path1809"
         inkscape:connector-curvature="0" /><path
         d="m 4090.11,1639.9 -54.16,31.28 c -4.35,2.51 -3.81,6.89 1.21,9.79 l 17.75,10.25 c 5.02,2.9 12.61,3.21 16.97,0.7 l 54.16,-31.28 c 4.35,-2.51 3.81,-6.89 -1.21,-9.79 l -17.75,-10.25 c -5.02,-2.9 -12.61,-3.21 -16.97,-0.7"
         style="fill:#5f92d3;fill-opacity:1;fill-rule:nonzero;stroke:none"
         id="path1811"
         inkscape:connector-curvature="0" /><path
         d="m 4552.86,1372.73 -54.16,31.28 c -4.35,2.51 -3.8,6.9 1.22,9.8 l 17.74,10.24 c 5.02,2.9 12.62,3.21 16.96,0.7 l 54.17,-31.28 c 4.35,-2.51 3.81,-6.89 -1.22,-9.79 l -17.73,-10.24 c -5.03,-2.91 -12.63,-3.22 -16.98,-0.71"
         style="fill:#5f92d3;fill-opacity:1;fill-rule:nonzero;stroke:none"
         id="path1813"
         inkscape:connector-curvature="0" /><path
         d="m 4635.76,1324.88 -54.17,31.27 c -4.35,2.51 -3.8,6.89 1.22,9.79 l 17.74,10.25 c 5.02,2.9 12.62,3.21 16.96,0.7 l 54.17,-31.27 c 4.35,-2.51 3.8,-6.89 -1.22,-9.79 l -17.74,-10.25 c -5.02,-2.9 -12.62,-3.21 -16.96,-0.7"
         style="fill:#5f92d3;fill-opacity:1;fill-rule:nonzero;stroke:none"
         id="path1815"
         inkscape:connector-curvature="0" /><path
         d="m 4718.65,1277.02 -54.17,31.28 c -4.36,2.51 -3.81,6.89 1.22,9.79 l 17.73,10.25 c 5.03,2.9 12.63,3.21 16.97,0.7 l 54.17,-31.28 c 4.35,-2.51 3.8,-6.89 -1.22,-9.79 l -17.74,-10.25 c -5.02,-2.9 -12.62,-3.21 -16.96,-0.7"
         style="fill:#5f92d3;fill-opacity:1;fill-rule:nonzero;stroke:none"
         id="path1817"
         inkscape:connector-curvature="0" /><path
         d="m 4801.53,1229.17 -54.17,31.27 c -4.35,2.51 -3.8,6.9 1.22,9.79 l 17.74,10.25 c 5.02,2.9 12.62,3.22 16.97,0.7 l 54.16,-31.27 c 4.36,-2.51 3.81,-6.89 -1.21,-9.8 l -17.74,-10.24 c -5.02,-2.9 -12.62,-3.21 -16.97,-0.7"
         style="fill:#5f92d3;fill-opacity:1;fill-rule:nonzero;stroke:none"
         id="path1819"
         inkscape:connector-curvature="0" /><path
         d="m 3980.59,1604.3 -54.16,31.27 c -4.36,2.51 -3.81,6.91 1.21,9.8 l 53.67,30.98 c 5.03,2.91 12.62,3.23 16.97,0.72 l 54.17,-31.28 c 4.35,-2.51 3.8,-6.9 -1.22,-9.8 l -53.67,-30.98 c -5.02,-2.9 -12.61,-3.22 -16.97,-0.71"
         style="fill:#5f92d3;fill-opacity:1;fill-rule:nonzero;stroke:none"
         id="path1821"
         inkscape:connector-curvature="0" /><path
         d="m 4064.24,1556 -54.16,31.28 c -4.35,2.51 -3.81,6.9 1.21,9.8 l 53.67,30.98 c 5.02,2.9 12.62,3.22 16.98,0.71 l 54.16,-31.27 c 4.35,-2.52 3.81,-6.91 -1.21,-9.81 l -53.68,-30.98 c -5.01,-2.9 -12.61,-3.22 -16.97,-0.71"
         style="fill:#5f92d3;fill-opacity:1;fill-rule:nonzero;stroke:none"
         id="path1823"
         inkscape:connector-curvature="0" /><path
         d="m 4147.89,1507.71 -54.17,31.27 c -4.34,2.51 -3.79,6.91 1.23,9.8 l 53.67,30.98 c 5.02,2.9 12.61,3.23 16.97,0.72 l 54.16,-31.28 c 4.36,-2.51 3.81,-6.9 -1.21,-9.8 l -53.67,-30.98 c -5.03,-2.9 -12.63,-3.22 -16.98,-0.71"
         style="fill:#5f92d3;fill-opacity:1;fill-rule:nonzero;stroke:none"
         id="path1825"
         inkscape:connector-curvature="0" /><path
         d="m 4231.55,1459.41 -54.17,31.28 c -4.35,2.51 -3.8,6.9 1.22,9.8 l 53.67,30.98 c 5.02,2.9 12.62,3.22 16.96,0.71 l 54.17,-31.27 c 4.36,-2.52 3.81,-6.91 -1.22,-9.81 l -53.66,-30.99 c -5.03,-2.9 -12.63,-3.21 -16.97,-0.7"
         style="fill:#5f92d3;fill-opacity:1;fill-rule:nonzero;stroke:none"
         id="path1827"
         inkscape:connector-curvature="0" /><path
         d="m 4315.2,1411.12 -54.17,31.27 c -4.35,2.51 -3.8,6.89 1.22,9.8 l 53.67,30.98 c 5.02,2.9 12.62,3.22 16.96,0.7 l 54.17,-31.27 c 4.35,-2.5 3.81,-6.89 -1.22,-9.79 l -53.67,-30.99 c -5.02,-2.9 -12.62,-3.21 -16.96,-0.7"
         style="fill:#5f92d3;fill-opacity:1;fill-rule:nonzero;stroke:none"
         id="path1829"
         inkscape:connector-curvature="0" /><path
         d="m 4398.85,1362.82 -54.17,31.28 c -4.34,2.51 -3.81,6.89 1.22,9.79 l 53.67,30.99 c 5.02,2.9 12.62,3.21 16.97,0.7 l 54.17,-31.27 c 4.34,-2.52 3.8,-6.9 -1.22,-9.8 l -53.68,-30.99 c -5.02,-2.9 -12.61,-3.21 -16.96,-0.7"
         style="fill:#5f92d3;fill-opacity:1;fill-rule:nonzero;stroke:none"
         id="path1831"
         inkscape:connector-curvature="0" /><path
         d="m 4482.5,1314.53 -54.17,31.27 c -4.35,2.51 -3.8,6.89 1.22,9.79 l 53.68,30.99 c 5.02,2.9 12.61,3.22 16.96,0.7 l 54.17,-31.27 c 4.34,-2.51 3.8,-6.89 -1.22,-9.79 l -53.67,-30.99 c -5.02,-2.9 -12.62,-3.21 -16.97,-0.7"
         style="fill:#5f92d3;fill-opacity:1;fill-rule:nonzero;stroke:none"
         id="path1833"
         inkscape:connector-curvature="0" /><path
         d="m 4566.15,1266.23 -54.16,31.28 c -4.36,2.51 -3.81,6.89 1.21,9.79 l 53.67,30.99 c 5.03,2.9 12.63,3.21 16.97,0.7 l 54.17,-31.27 c 4.35,-2.52 3.8,-6.9 -1.22,-9.8 l -53.67,-30.99 c -5.02,-2.9 -12.62,-3.21 -16.97,-0.7"
         style="fill:#5f92d3;fill-opacity:1;fill-rule:nonzero;stroke:none"
         id="path1835"
         inkscape:connector-curvature="0" /><path
         d="m 4649.8,1217.94 -54.16,31.27 c -4.36,2.51 -3.81,6.89 1.21,9.79 l 53.67,30.99 c 5.02,2.9 12.62,3.22 16.97,0.7 l 54.17,-31.27 c 4.35,-2.51 3.8,-6.89 -1.22,-9.79 l -53.67,-30.99 c -5.02,-2.9 -12.62,-3.21 -16.97,-0.7"
         style="fill:#5f92d3;fill-opacity:1;fill-rule:nonzero;stroke:none"
         id="path1837"
         inkscape:connector-curvature="0" /><path
         d="m 3502.35,1598.34 -159.53,92.11 c -4.35,2.51 -3.8,6.89 1.22,9.79 l 53.67,30.99 c 5.02,2.9 12.62,3.21 16.96,0.7 l 159.53,-92.1 c 4.35,-2.52 3.81,-6.9 -1.22,-9.8 l -53.67,-30.99 c -5.02,-2.9 -12.62,-3.21 -16.96,-0.7"
         style="fill:#5f92d3;fill-opacity:1;fill-rule:nonzero;stroke:none"
         id="path1839"
         inkscape:connector-curvature="0" /><path
         d="m 4530.02,1005.02 -159.53,92.1 c -4.34,2.51 -3.81,6.89 1.22,9.79 l 53.67,30.99 c 5.02,2.9 12.62,3.21 16.97,0.7 l 159.53,-92.1 c 4.34,-2.51 3.8,-6.89 -1.22,-9.79 l -53.67,-30.99 c -5.02,-2.9 -12.62,-3.22 -16.97,-0.7"
         style="fill:#5f92d3;fill-opacity:1;fill-rule:nonzero;stroke:none"
         id="path1841"
         inkscape:connector-curvature="0" /><path
         d="m 4195.49,1091.47 -54.17,31.28 c -4.35,2.51 -3.81,6.9 1.22,9.8 l 63.94,36.91 c 5.02,2.9 12.62,3.21 16.96,0.7 l 54.17,-31.28 c 4.35,-2.51 3.8,-6.89 -1.22,-9.79 l -63.94,-36.91 c -5.01,-2.91 -12.61,-3.22 -16.96,-0.71"
         style="fill:#5f92d3;fill-opacity:1;fill-rule:nonzero;stroke:none"
         id="path1843"
         inkscape:connector-curvature="0" /><path
         d="m 3588.01,1442.2 -86.63,50.01 c -4.35,2.51 -3.8,6.9 1.22,9.8 l 63.94,36.91 c 5.02,2.9 12.61,3.22 16.97,0.71 l 86.62,-50.01 c 4.36,-2.51 3.81,-6.91 -1.21,-9.8 l -63.94,-36.91 c -5.03,-2.9 -12.62,-3.22 -16.97,-0.71"
         style="fill:#5f92d3;fill-opacity:1;fill-rule:nonzero;stroke:none"
         id="path1845"
         inkscape:connector-curvature="0" /><path
         d="m 4114.89,1138.01 -86.63,50.01 c -4.35,2.51 -3.8,6.9 1.22,9.8 l 63.93,36.91 c 5.03,2.9 12.62,3.22 16.97,0.71 l 86.64,-50.02 c 4.34,-2.51 3.79,-6.9 -1.23,-9.8 l -63.93,-36.91 c -5.02,-2.9 -12.62,-3.21 -16.97,-0.7"
         style="fill:#5f92d3;fill-opacity:1;fill-rule:nonzero;stroke:none"
         id="path1847"
         inkscape:connector-curvature="0" /><path
         d="m 3708.7,1372.52 -86.63,50.02 c -4.34,2.51 -3.8,6.89 1.22,9.79 l 63.94,36.92 c 5.02,2.9 12.62,3.21 16.96,0.7 l 86.63,-50.02 c 4.35,-2.51 3.81,-6.9 -1.22,-9.8 l -63.93,-36.91 c -5.02,-2.9 -12.62,-3.21 -16.97,-0.7"
         style="fill:#5f92d3;fill-opacity:1;fill-rule:nonzero;stroke:none"
         id="path1849"
         inkscape:connector-curvature="0" /><path
         d="m 3704.78,1469.61 376.64,-217.45 c 4.68,-2.7 4.68,-7.07 0,-9.77 l -65.2,-37.65 c -4.67,-2.69 -12.25,-2.69 -16.92,0 l -376.64,217.45 82.12,47.42"
         style="fill:#5f92d3;fill-opacity:1;fill-rule:nonzero;stroke:none"
         id="path1851"
         inkscape:connector-curvature="0" /><path
         d="m 4429.28,1003.9 60.33,-34.83 c 3.57,-2.05 3.13,-5.648 -0.99,-8.031 l -26.16,-15.098 c -4.12,-2.382 -10.34,-2.632 -13.9,-0.57 l -60.34,34.828 c -3.57,2.063 -3.12,5.66 0.99,8.031 l 26.16,15.1 c 4.12,2.38 10.35,2.63 13.91,0.57"
         style="fill:#5f92d3;fill-opacity:1;fill-rule:nonzero;stroke:none"
         id="path1853"
         inkscape:connector-curvature="0" /><path
         d="m 4344.94,1052.6 60.33,-34.83 c 3.56,-2.06 3.12,-5.65 -1,-8.03 l -26.15,-15.099 c -4.12,-2.379 -10.34,-2.641 -13.91,-0.582 l -60.34,34.831 c -3.56,2.06 -3.11,5.66 1,8.04 l 26.16,15.1 c 4.11,2.37 10.34,2.64 13.91,0.57"
         style="fill:#5f92d3;fill-opacity:1;fill-rule:nonzero;stroke:none"
         id="path1855"
         inkscape:connector-curvature="0" /><path
         d="m 4261.28,1100.9 60.34,-34.84 c 3.57,-2.05 3.12,-5.65 -1,-8.03 l -26.15,-15.09 c -4.11,-2.39 -10.35,-2.64 -13.91,-0.58 l -60.34,34.83 c -3.57,2.07 -3.12,5.66 1,8.03 l 26.16,15.1 c 4.11,2.38 10.34,2.64 13.9,0.58"
         style="fill:#5f92d3;fill-opacity:1;fill-rule:nonzero;stroke:none"
         id="path1857"
         inkscape:connector-curvature="0" /><path
         d="m 4391.13,1079.27 60.34,-34.83 c 3.56,-2.06 3.11,-5.65 -1.01,-8.03 l -26.15,-15.1 c -4.11,-2.38 -10.34,-2.64 -13.91,-0.58 l -60.34,34.83 c -3.56,2.06 -3.11,5.66 1.01,8.04 l 26.15,15.1 c 4.11,2.37 10.34,2.64 13.91,0.57"
         style="fill:#5f92d3;fill-opacity:1;fill-rule:nonzero;stroke:none"
         id="path1859"
         inkscape:connector-curvature="0" /><path
         d="m 4721.56,2021.66 -450.59,260.14 5.8,29.29 450.59,-260.14 -5.8,-29.29"
         style="fill:#d9effb;fill-opacity:1;fill-rule:nonzero;stroke:none"
         id="path1861"
         inkscape:connector-curvature="0" /><path
         d="m 4560.18,1972.23 -314.53,181.6 5.8,29.28 314.53,-181.59 -5.8,-29.29"
         style="fill:#d9effb;fill-opacity:1;fill-rule:nonzero;stroke:none"
         id="path1863"
         inkscape:connector-curvature="0" /><path
         d="m 4530.42,2060.71 -272.11,157.1 5.8,29.3 272.1,-157.1 -5.79,-29.3"
         style="fill:#ffffff;fill-opacity:1;fill-rule:nonzero;stroke:none"
         id="path1865"
         inkscape:connector-curvature="0" /><path
         d="m 4708.9,1957.67 -136.05,78.55 5.79,29.3 136.05,-78.56 -5.79,-29.29"
         style="fill:#ee1696;fill-opacity:1;fill-rule:nonzero;stroke:none"
         id="path1867"
         inkscape:connector-curvature="0" /><path
         d="m 4222.99,2537.37 -136.05,78.56 5.79,29.28 136.05,-78.54 -5.79,-29.3"
         style="fill:#d9effb;fill-opacity:1;fill-rule:nonzero;stroke:none"
         id="path1869"
         inkscape:connector-curvature="0" /><path
         d="m 4208.23,2469.29 -136.06,78.56 5.8,29.29 136.06,-78.55 -5.8,-29.3"
         style="fill:#ffffff;fill-opacity:1;fill-rule:nonzero;stroke:none"
         id="path1871"
         inkscape:connector-curvature="0" /><path
         d="m 4876,1525.07 -136.05,78.54 5.79,29.3 136.05,-78.56 -5.79,-29.28"
         style="fill:#d9effb;fill-opacity:1;fill-rule:nonzero;stroke:none"
         id="path1873"
         inkscape:connector-curvature="0" /><path
         d="m 4178.7,2333.14 -136.05,78.56 5.79,29.29 136.06,-78.55 -5.8,-29.3"
         style="fill:#d9effb;fill-opacity:1;fill-rule:nonzero;stroke:none"
         id="path1875"
         inkscape:connector-curvature="0" /><path
         d="m 4472.67,2312.06 c -4.34,-9.46 -15.29,-12.83 -24.46,-7.54 -9.18,5.3 -13.1,17.26 -8.77,26.72 4.33,9.45 15.29,12.83 24.46,7.53 9.18,-5.3 13.1,-17.26 8.77,-26.71"
         style="fill:#ee1696;fill-opacity:1;fill-rule:nonzero;stroke:none"
         id="path1877"
         inkscape:connector-curvature="0" /><path
         d="m 4531.26,2278.22 c -4.33,-9.45 -15.28,-12.83 -24.46,-7.53 -9.17,5.29 -13.1,17.26 -8.76,26.71 4.34,9.46 15.29,12.83 24.46,7.54 9.18,-5.3 13.1,-17.26 8.76,-26.72"
         style="fill:#ffffff;fill-opacity:1;fill-rule:nonzero;stroke:none"
         id="path1879"
         inkscape:connector-curvature="0" /><path
         d="m 4589.87,2244.39 c -4.34,-9.46 -15.29,-12.83 -24.47,-7.54 -9.17,5.31 -13.09,17.26 -8.76,26.72 4.34,9.45 15.3,12.83 24.47,7.53 9.17,-5.29 13.09,-17.25 8.76,-26.71"
         style="fill:#d9effb;fill-opacity:1;fill-rule:nonzero;stroke:none"
         id="path1881"
         inkscape:connector-curvature="0" /><path
         d="m 4648.47,2210.55 c -4.34,-9.45 -15.29,-12.83 -24.46,-7.53 -9.17,5.3 -13.1,17.26 -8.76,26.71 4.33,9.47 15.28,12.84 24.46,7.54 9.17,-5.3 13.1,-17.26 8.76,-26.72"
         style="fill:#ee1696;fill-opacity:1;fill-rule:nonzero;stroke:none"
         id="path1883"
         inkscape:connector-curvature="0" /><path
         d="m 3650.96,1015.34 -340.73,196.72 c -9.92,5.73 -8.67,15.73 2.78,22.34 l 205.62,118.71 c 11.45,6.62 28.78,7.34 38.69,1.61 l 340.73,-196.71 c 9.92,-5.74 8.67,-15.74 -2.77,-22.35 l -205.63,-118.71 c -11.44,-6.62 -28.78,-7.33 -38.69,-1.61"
         style="fill:#ffffff;fill-opacity:1;fill-rule:nonzero;stroke:none"
         id="path1885"
         inkscape:connector-curvature="0" /><path
         d="m 3366.84,1809.52 41.11,50.41 -108.78,88.72 -41.11,-50.41 108.78,-88.72"
         style="fill:#5f92d3;fill-opacity:1;fill-rule:nonzero;stroke:none"
         id="path1887"
         inkscape:connector-curvature="0" /><path
         d="m 3383.15,1808.51 c 13.71,5.21 26.73,21.18 29.07,35.65 2.34,14.48 -6.86,21.99 -20.58,16.78 -13.71,-5.21 -26.72,-21.17 -29.07,-35.64 -2.34,-14.48 6.87,-21.99 20.58,-16.79"
         style="fill:#5f92d3;fill-opacity:1;fill-rule:nonzero;stroke:none"
         id="path1889"
         inkscape:connector-curvature="0" /><path
         d="m 3264.31,1867.11 66.62,81.68 -111.12,90.61 -66.61,-81.68 111.11,-90.61"
         style="fill:#5f92d3;fill-opacity:1;fill-rule:nonzero;stroke:none"
         id="path1891"
         inkscape:connector-curvature="0" /><path
         d="m 3317.06,1934.05 36.82,-30.02 c -5.31,-20.3 -22.28,-41.13 -41.11,-50.41 l -36.82,30.03 c 5.31,20.3 22.3,41.12 41.11,50.4"
         style="fill:#4067b1;fill-opacity:1;fill-rule:nonzero;stroke:none"
         id="path1893"
         inkscape:connector-curvature="0" /><path
         d="m 3290.74,1865.47 c 22.21,8.43 43.31,34.29 47.11,57.76 3.79,23.46 -11.14,35.63 -33.35,27.2 -22.22,-8.44 -43.3,-34.31 -47.1,-57.77 -3.8,-23.45 11.13,-35.63 33.34,-27.19"
         style="fill:#5f92d3;fill-opacity:1;fill-rule:nonzero;stroke:none"
         id="path1895"
         inkscape:connector-curvature="0" /><path
         d="m 3179.58,1956.12 c 22.22,8.44 43.31,34.3 47.11,57.76 3.8,23.46 -11.13,35.64 -33.35,27.2 -22.21,-8.45 -43.3,-34.31 -47.1,-57.76 -3.8,-23.46 11.13,-35.64 33.34,-27.2"
         style="fill:#5f92d3;fill-opacity:1;fill-rule:nonzero;stroke:none"
         id="path1897"
         inkscape:connector-curvature="0" /><path
         d="m 3182.57,1974.57 c 12.57,4.77 24.5,19.4 26.65,32.67 2.15,13.28 -6.3,20.16 -18.86,15.38 -12.57,-4.76 -24.5,-19.39 -26.65,-32.66 -2.15,-13.27 6.29,-20.17 18.86,-15.39"
         style="fill:#d9effb;fill-opacity:1;fill-rule:nonzero;stroke:none"
         id="path1899"
         inkscape:connector-curvature="0" /><path
         d="m 3383.47,1849.77 c 5.33,-4.34 10.55,-2.37 11.65,4.43 1.09,6.78 -2.33,15.82 -7.67,20.17 -5.33,4.35 -10.54,2.37 -11.64,-4.42 -1.1,-6.8 2.33,-15.83 7.66,-20.18"
         style="fill:#d9effb;fill-opacity:1;fill-rule:nonzero;stroke:none"
         id="path1901"
         inkscape:connector-curvature="0" /><path
         d="m 2276.92,742.609 c -19.47,0 -38.96,5.352 -56.76,16.051 l -76.97,45.59 c -4.12,2.449 -5.49,7.781 -3.05,11.91 2.45,4.121 7.75,5.5 11.91,3.051 l 77.01,-45.621 c 30.26,-18.18 66.23,-18.059 96.26,0.371 30.04,18.418 46.48,50.41 43.99,85.59 l -1.64,23.211 c -27.03,379.988 -77.33,1087.298 220.76,1163.588 102.7,26.27 173,51.43 224.33,69.8 152.97,54.76 163.46,51.74 374.35,-107.53 3.84,-2.89 4.59,-8.34 1.7,-12.17 -2.89,-3.82 -8.34,-4.59 -12.17,-1.7 -209.48,158.2 -212.25,157.22 -358.03,105.03 -51.65,-18.47 -122.39,-43.8 -225.86,-70.27 C 2308.7,1956.81 2358.33,1258.92 2385,883.988 l 1.65,-23.207 c 2.95,-41.769 -16.58,-79.769 -52.24,-101.633 -17.97,-11.027 -37.73,-16.539 -57.49,-16.539"
         style="fill:#5f92d3;fill-opacity:1;fill-rule:nonzero;stroke:none"
         id="path1903"
         inkscape:connector-curvature="0" /><path
         d="m 2861.67,601.672 c -72.17,0 -144.34,15.887 -199.4,47.68 -110.13,63.589 -110.13,166.668 0,230.25 55.06,31.789 127.23,47.687 199.4,47.687 72.16,0 144.33,-15.898 199.4,-47.687 110.12,-63.59 110.12,-166.672 0,-230.25 -55.06,-31.793 -127.23,-47.68 -199.4,-47.68"
         style="fill:#899abf;fill-opacity:1;fill-rule:nonzero;stroke:none"
         id="path1905"
         inkscape:connector-curvature="0" /><path
         d="m 2996.2,834.242 c 15.88,-6.781 25.87,-24.504 24.56,-43.523 -0.63,-8.977 -1.71,-17.34 -3.59,-21.278 -5.05,-10.601 -21.61,-25.171 -48.06,-14.722 -26.43,10.453 -85.15,65.621 -87.35,101.73 -4.09,67.082 72.62,-4.347 114.44,-22.207"
         style="fill:#263c7a;fill-opacity:1;fill-rule:nonzero;stroke:none"
         id="path1907"
         inkscape:connector-curvature="0" /><path
         d="m 2840.86,723.289 c 0,0 6.34,-38.668 3.25,-45.758 -3.07,-7.09 -21.47,-22.222 -48.66,-18.949 -27.17,3.27 -105.39,30.238 -122.81,81.789 -27,79.899 150.97,-6.012 150.97,-6.012 l 17.25,-11.07"
         style="fill:#263c7a;fill-opacity:1;fill-rule:nonzero;stroke:none"
         id="path1909"
         inkscape:connector-curvature="0" /><path
         d="m 2764.44,1341.57 -6.06,-603.761 c 0.64,-21 14.4,-38.731 32.89,-41.86 2.29,-0.379 4.74,-0.687 7.36,-0.918 18.73,-1.64 29.64,6.391 35.87,14.84 5.03,6.84 7.69,15.508 8.06,24.379 l 7.71,257.73 38.48,230.44 53.24,-407.85 c 0.86,-11.039 6.13,-21.23 14.62,-26.859 5.87,-3.879 13.83,-6.891 24.28,-6.582 15.24,0.461 25.82,8.609 32.28,15.891 5.11,5.769 7.8,13.699 7.7,21.839 l -21.1,245.401 -7.86,313.01 -227.47,-35.7"
         style="fill:#d9effb;fill-opacity:1;fill-rule:nonzero;stroke:none"
         id="path1911"
         inkscape:connector-curvature="0" /><path
         d="m 2842.62,1882.01 9.54,-55.02 c 0,0 0.36,-18.77 -20.59,-23.97 -20.96,-5.2 -27.45,8.33 -27.45,8.33 l -9.47,61.96 47.97,8.7"
         style="fill:#fab6a9;fill-opacity:1;fill-rule:nonzero;stroke:none"
         id="path1913"
         inkscape:connector-curvature="0" /><path
         d="m 2730.76,1880.36 c 35.02,-34.88 88.48,-37.79 119.44,-6.51 30.95,31.28 27.65,84.92 -7.37,119.79 -35.02,34.88 -88.5,37.79 -119.45,6.5 -30.94,-31.28 -27.64,-84.91 7.38,-119.78"
         style="fill:#fab6a9;fill-opacity:1;fill-rule:nonzero;stroke:none"
         id="path1915"
         inkscape:connector-curvature="0" /><path
         d="m 2840.13,1825.98 c 1.46,0.6 88.93,56.92 121.25,-2.02 52.73,-96.1 49.62,-405.46 32.97,-445.53 -15.4,-37.08 -53.87,-64.43 -80.83,-79.83 -23.99,-13.7 -50.83,-22.1 -78.46,-22.31 -27.33,-0.23 -79.74,24.08 -77.84,59.8 8.75,164.35 -5.78,302.88 -19.2,437.3 0,0 16.77,18.05 102.11,52.59"
         style="fill:#5f92d3;fill-opacity:1;fill-rule:nonzero;stroke:none"
         id="path1917"
         inkscape:connector-curvature="0" /><path
         d="m 2888.75,1222.42 53.24,-407.85 c 0.86,-11.039 6.13,-21.23 14.62,-26.859 1.39,-0.922 2.92,-1.77 4.56,-2.57 -11.06,8.3 -43.32,350.629 -49.3,388.709 -5.97,38.1 -23.12,48.57 -23.12,48.57"
         style="fill:#4067b1;fill-opacity:1;fill-rule:nonzero;stroke:none"
         id="path1919"
         inkscape:connector-curvature="0" /><path
         d="m 2560.42,1807.85 -47.53,155.66 25.1,10.41 56.04,-121.98 -33.61,-44.09"
         style="fill:#fab6a9;fill-opacity:1;fill-rule:nonzero;stroke:none"
         id="path1921"
         inkscape:connector-curvature="0" /><path
         d="m 3039.54,1930.53 -35.63,162.07 -28.37,-0.31 10.66,-134.4 53.34,-27.36"
         style="fill:#fab6a9;fill-opacity:1;fill-rule:nonzero;stroke:none"
         id="path1923"
         inkscape:connector-curvature="0" /><path
         d="m 2738.02,1773.39 c 0,0 -85.4,-17.04 -139.7,82.39 -4.78,8.76 -17.49,10.06 -22.53,2.37 -8.71,-13.27 -20.24,-33.58 -14.26,-55.55 26.43,-97.17 170,-118.66 195.78,-175.01 25.78,-56.36 -19.29,145.8 -19.29,145.8"
         style="fill:#5f92d3;fill-opacity:1;fill-rule:nonzero;stroke:none"
         id="path1925"
         inkscape:connector-curvature="0" /><path
         d="m 2895.61,1846.18 c 0,0 67.63,-5.2 77.36,53.34 5.01,30.15 6.53,48.14 6.8,58.51 0.19,7.03 6.29,12.35 13.26,11.48 16.2,-2 41.27,-6.84 44.68,-17.7 5.08,-16.2 14.63,-95.69 -52.17,-217.66 -43.76,-79.9 -89.93,112.03 -89.93,112.03"
         style="fill:#5f92d3;fill-opacity:1;fill-rule:nonzero;stroke:none"
         id="path1927"
         inkscape:connector-curvature="0" /><path
         d="m 3004.06,2092.2 -0.65,18.49 c -0.22,6.52 -2.13,12.87 -5.53,18.45 l -18.73,30.77 -4.88,6.16 c -4.51,5.69 -12.58,7.06 -18.72,3.2 l -4.31,-2.71 c -5.49,-3.46 -8.66,-9.64 -8.24,-16.11 l 9.69,-26.3 -12.25,2.37 c -2.38,0.46 -4.68,-1.11 -5.11,-3.5 -0.37,-2.03 0.74,-4.03 2.65,-4.8 l 20.01,-8.08 18.18,-25.72 27.89,7.78"
         style="fill:#fab6a9;fill-opacity:1;fill-rule:nonzero;stroke:none"
         id="path1929"
         inkscape:connector-curvature="0" /><path
         d="m 2512.2,1962.69 -5.66,17.61 c -2.01,6.21 -2.38,12.83 -1.08,19.23 l 7.17,35.3 2.51,7.45 c 2.31,6.89 9.43,10.92 16.52,9.37 l 4.97,-1.09 c 6.34,-1.37 11.42,-6.12 13.23,-12.35 l -0.19,-28.03 10.72,6.4 c 2.08,1.24 4.78,0.54 6,-1.56 1.03,-1.78 0.66,-4.05 -0.87,-5.42 l -16.08,-14.39 -9.39,-34.13 -27.85,1.61"
         style="fill:#fab6a9;fill-opacity:1;fill-rule:nonzero;stroke:none"
         id="path1931"
         inkscape:connector-curvature="0" /><path
         d="m 2778.01,1655.63 c 7.79,-35.51 -14.05,-311.12 57.05,-379.34 -27.33,-0.23 -79.74,24.08 -77.84,59.8 5.87,110.22 1.19,208.69 -6.52,302.24 -27.88,36.12 -104.59,59.12 -152.59,105.45 3.5,-1.08 172.2,-53 179.9,-88.15"
         style="fill:#4067b1;fill-opacity:1;fill-rule:nonzero;stroke:none"
         id="path1933"
         inkscape:connector-curvature="0" /><path
         d="m 2871.59,1841.53 -12.15,12.47 c 0,0 -19.98,-20.41 -36.03,-23.95 0,0 -19.32,-5.47 -28.76,-5.95 l -7.82,-21.55 c 0,0 63.62,4.55 84.76,38.98"
         style="fill:#ffffff;fill-opacity:1;fill-rule:nonzero;stroke:none"
         id="path1935"
         inkscape:connector-curvature="0" /><path
         d="m 2782,1905.49 c -3.01,-1.5 -6.47,-1.6 -9.44,-0.03 -5.16,2.72 -13.54,23.28 -24.3,21.77 -16.82,-2.35 -41.18,-37.66 -71.5,11.6 -15.76,25.6 -6.52,39.42 -14.19,53.95 0,0 2.7,-7.88 68.71,32.4 66.01,40.3 119.99,-8.81 136.73,-36.89 16.74,-28.08 27.61,-82.95 -15.72,-113.92 -7.19,-5.12 -53.42,4.04 -54.38,7.9 -0.94,3.88 11.44,10.11 4.44,19.17 -5.83,7.55 -12.5,7.97 -20.35,4.05"
         style="fill:#263c7a;fill-opacity:1;fill-rule:nonzero;stroke:none"
         id="path1937"
         inkscape:connector-curvature="0" /><path
         d="m 2163.28,793.75 c -1.5,0 -3.02,0.391 -4.42,1.211 l -464.89,275.309 c -4.13,2.45 -5.5,7.78 -3.06,11.91 2.43,4.14 7.77,5.49 11.91,3.05 l 464.91,-275.308 c 4.12,-2.453 5.49,-7.781 3.05,-11.91 -1.64,-2.742 -4.53,-4.262 -7.5,-4.262"
         style="fill:#5f92d3;fill-opacity:1;fill-rule:nonzero;stroke:none"
         id="path1939"
         inkscape:connector-curvature="0" /><path
         d="m 1193.43,1201.11 v 1257.13 l 499.77,130.8 92.06,53.16 c 21.12,12.19 58.02,10.66 82.42,-3.42 l 85.88,-49.59 266.56,0.14 -78.93,-1213.57 c 0.6,-8.26 -4,-16.22 -14.16,-22.08 L 1628.3,977.352 c -21.13,-12.204 -58.03,-10.661 -82.43,3.418 l -332.37,191.89 c -14.07,8.13 -20.86,18.66 -20.07,28.45"
         style="fill:#4067b1;fill-opacity:1;fill-rule:nonzero;stroke:none"
         id="path1941"
         inkscape:connector-curvature="0" /><path
         d="m 1823.5,2650.36 c 15.46,-0.37 31.5,-4.27 44.18,-11.58 l 85.88,-49.59 266.56,0.14 v -1260.5 c 0.61,-8.26 -4,-16.23 -14.15,-22.08 L 1628.3,977.352 c -10.15,-5.864 -23.95,-8.512 -38.25,-8.161 l -5.95,1268.379 239.4,412.79"
         style="fill:#d9effb;fill-opacity:1;fill-rule:nonzero;stroke:none"
         id="path1943"
         inkscape:connector-curvature="0" /><path
         d="m 1622.99,974.75 c -18.21,-7.801 -44.57,-7.371 -65.88,0.762 V 2252.56 h 65.88 V 974.75"
         style="fill:#5f92d3;fill-opacity:1;fill-rule:nonzero;stroke:none"
         id="path1945"
         inkscape:connector-curvature="0" /><path
         d="m 1628.3,2237.42 577.67,329.39 c 21.12,12.2 18.48,33.51 -5.92,47.59 l -332.37,191.9 c -24.4,14.08 -61.3,15.61 -82.42,3.41 l -577.68,-329.39 c -21.12,-12.2 -18.47,-33.5 5.92,-47.59 l 332.37,-191.89 c 24.4,-14.08 61.3,-15.62 82.43,-3.42"
         style="fill:#d9effb;fill-opacity:1;fill-rule:nonzero;stroke:none"
         id="path1947"
         inkscape:connector-curvature="0" /><path
         d="m 1213.5,2456.11 332.37,-191.9 c 24.4,-14.09 61.3,-15.61 82.43,-3.41 l 577.67,329.38 c 4.71,2.73 8.17,5.91 10.54,9.36 7.26,-11.68 3.97,-24.35 -10.54,-32.73 L 1628.3,2237.42 c -21.13,-12.2 -58.03,-10.66 -82.43,3.42 l -332.37,191.89 c -18.96,10.95 -24.72,26.24 -16.46,38.24 3.32,-5.33 8.82,-10.45 16.46,-14.86"
         style="fill:#fcfeff;fill-opacity:1;fill-rule:nonzero;stroke:none"
         id="path1949"
         inkscape:connector-curvature="0" /><path
         d="m 1611.96,2370.92 384.6,222.93 c 9.89,5.72 8.65,15.69 -2.77,22.28 l -155.53,89.8 c -11.42,6.59 -28.69,7.3 -38.58,1.6 l -384.6,-222.94 c -9.88,-5.72 -8.64,-15.69 2.78,-22.28 l 155.53,-89.79 c 11.42,-6.59 28.68,-7.31 38.57,-1.6"
         style="fill:#263c7a;fill-opacity:1;fill-rule:nonzero;stroke:none"
         id="path1951"
         inkscape:connector-curvature="0" /><path
         d="m 1819.59,2583.85 22.29,12.87 c 1.37,0.79 1.2,2.16 -0.38,3.07 l -21.53,12.42 c -1.58,0.92 -3.96,1.02 -5.33,0.23 l -22.28,-12.87 c -1.37,-0.78 -1.2,-2.17 0.38,-3.08 l 21.51,-12.42 c 1.58,-0.92 3.98,-1.02 5.34,-0.22"
         style="fill:#d9effb;fill-opacity:1;fill-rule:nonzero;stroke:none"
         id="path1953"
         inkscape:connector-curvature="0" /><path
         d="m 1745.14,2541.03 22.29,12.87 c 1.36,0.79 1.19,2.17 -0.39,3.08 l -21.52,12.43 c -1.58,0.91 -3.96,1.01 -5.33,0.22 l -22.3,-12.86 c -1.36,-0.8 -1.19,-2.18 0.39,-3.09 l 21.52,-12.42 c 1.58,-0.91 3.97,-1.02 5.34,-0.23"
         style="fill:#ee1696;fill-opacity:1;fill-rule:nonzero;stroke:none"
         id="path1955"
         inkscape:connector-curvature="0" /><path
         d="m 1670.69,2498.22 22.28,12.87 c 1.37,0.79 1.19,2.17 -0.39,3.08 l -21.51,12.43 c -1.58,0.91 -3.97,1 -5.34,0.21 l -22.29,-12.86 c -1.37,-0.79 -1.19,-2.17 0.39,-3.08 l 21.52,-12.43 c 1.58,-0.9 3.97,-1.01 5.34,-0.22"
         style="fill:#d9effb;fill-opacity:1;fill-rule:nonzero;stroke:none"
         id="path1957"
         inkscape:connector-curvature="0" /><path
         d="m 1596.22,2455.41 22.3,12.87 c 1.37,0.79 1.19,2.17 -0.39,3.08 l -21.52,12.43 c -1.58,0.9 -3.97,1 -5.34,0.21 l -22.28,-12.86 c -1.37,-0.79 -1.19,-2.17 0.38,-3.09 l 21.52,-12.42 c 1.58,-0.91 3.97,-1 5.33,-0.22"
         style="fill:#d9effb;fill-opacity:1;fill-rule:nonzero;stroke:none"
         id="path1959"
         inkscape:connector-curvature="0" /><path
         d="m 1996.56,2593.85 -0.45,-0.25 -2.32,1.58 -155.53,89.81 c -11.42,6.59 -28.69,7.3 -38.58,1.6 L 1415.54,2463.9 c -9.11,6.53 -9.59,15.41 -0.46,20.69 l 384.6,222.94 c 9.89,5.7 27.16,4.99 38.58,-1.6 l 155.53,-89.8 c 11.42,-6.59 12.66,-16.56 2.77,-22.28"
         style="fill:#5f92d3;fill-opacity:1;fill-rule:nonzero;stroke:none"
         id="path1961"
         inkscape:connector-curvature="0" /><path
         d="m 1480.98,1988.36 -218.67,125.19 c -12.31,7.11 -22.28,26.17 -22.28,42.58 v 78.19 c 0,16.41 9.97,23.96 22.28,16.85 l 218.67,-125.2 c 12.3,-7.11 22.28,-26.17 22.28,-42.57 v -78.2 c 0,-16.41 -9.98,-23.95 -22.28,-16.84"
         style="fill:#263c7a;fill-opacity:1;fill-rule:nonzero;stroke:none"
         id="path1963"
         inkscape:connector-curvature="0" /><path
         d="m 1251.49,2253.52 c -3.44,-3.24 -5.6,-8.77 -5.6,-16.27 v -78.19 c 0,-16.41 9.97,-35.47 22.29,-42.57 l 218.66,-125.2 c 3.95,-2.29 7.61,-2.9 10.83,-2.36 -4.08,-3.85 -10.01,-4.43 -16.69,-0.57 l -218.67,125.19 c -12.31,7.11 -22.29,26.17 -22.29,42.58 v 78.19 c 0,11.15 4.66,18.05 11.47,19.2"
         style="fill:#ffffff;fill-opacity:1;fill-rule:nonzero;stroke:none"
         id="path1965"
         inkscape:connector-curvature="0" /><path
         d="m 1415.21,2073.3 -20.06,11.58 c -2.69,1.55 -4.85,5.7 -4.85,9.29 v 21.42 c 0,3.58 2.16,5.22 4.85,3.68 l 20.06,-11.59 c 2.68,-1.55 4.85,-5.7 4.85,-9.28 v -21.43 c 0,-3.57 -2.17,-5.21 -4.85,-3.67"
         style="fill:#4067b1;fill-opacity:1;fill-rule:nonzero;stroke:none"
         id="path1967"
         inkscape:connector-curvature="0" /><path
         d="m 1348.14,2112.03 -20.06,11.58 c -2.69,1.54 -4.85,5.7 -4.85,9.28 v 21.42 c 0,3.58 2.16,5.23 4.85,3.68 l 20.06,-11.59 c 2.68,-1.55 4.85,-5.7 4.85,-9.27 v -21.43 c 0,-3.57 -2.17,-5.22 -4.85,-3.67"
         style="fill:#ffffff;fill-opacity:1;fill-rule:nonzero;stroke:none"
         id="path1969"
         inkscape:connector-curvature="0" /><path
         d="m 1480.98,1423.28 -218.67,125.19 c -12.31,7.11 -22.28,26.17 -22.28,42.58 v 78.2 c 0,16.4 9.97,23.94 22.28,16.84 l 218.67,-125.2 c 12.3,-7.1 22.28,-26.17 22.28,-42.57 v -78.21 c 0,-16.4 -9.98,-23.94 -22.28,-16.83"
         style="fill:#263c7a;fill-opacity:1;fill-rule:nonzero;stroke:none"
         id="path1971"
         inkscape:connector-curvature="0" /><path
         d="m 1251.49,1688.44 c -3.44,-3.24 -5.6,-8.76 -5.6,-16.26 v -78.2 c 0,-16.4 9.97,-35.47 22.29,-42.58 l 218.66,-125.19 c 3.95,-2.29 7.61,-2.91 10.83,-2.36 -4.08,-3.85 -10.01,-4.43 -16.69,-0.57 l -218.67,125.19 c -12.31,7.11 -22.29,26.18 -22.29,42.58 v 78.2 c 0,11.14 4.66,18.04 11.47,19.19"
         style="fill:#ffffff;fill-opacity:1;fill-rule:nonzero;stroke:none"
         id="path1973"
         inkscape:connector-curvature="0" /><path
         d="m 1415.21,1508.22 -20.06,11.58 c -2.69,1.55 -4.85,5.71 -4.85,9.28 v 21.44 c 0,3.57 2.16,5.21 4.85,3.66 l 20.06,-11.58 c 2.68,-1.55 4.85,-5.7 4.85,-9.28 v -21.43 c 0,-3.57 -2.17,-5.21 -4.85,-3.67"
         style="fill:#ee1696;fill-opacity:1;fill-rule:nonzero;stroke:none"
         id="path1975"
         inkscape:connector-curvature="0" /><path
         d="m 1348.14,1546.95 -20.06,11.58 c -2.69,1.55 -4.85,5.71 -4.85,9.28 v 21.43 c 0,3.57 2.16,5.21 4.85,3.67 l 20.06,-11.58 c 2.68,-1.56 4.85,-5.71 4.85,-9.28 v -21.43 c 0,-3.57 -2.17,-5.22 -4.85,-3.67"
         style="fill:#ffffff;fill-opacity:1;fill-rule:nonzero;stroke:none"
         id="path1977"
         inkscape:connector-curvature="0" /><path
         d="m 1480.98,1140.74 -218.67,125.2 c -12.31,7.1 -22.28,26.16 -22.28,42.56 v 78.21 c 0,16.4 9.97,23.94 22.28,16.84 l 218.67,-125.2 c 12.3,-7.1 22.28,-26.16 22.28,-42.57 v -78.2 c 0,-16.41 -9.98,-23.95 -22.28,-16.84"
         style="fill:#263c7a;fill-opacity:1;fill-rule:nonzero;stroke:none"
         id="path1979"
         inkscape:connector-curvature="0" /><path
         d="m 1251.49,1405.91 c -3.44,-3.25 -5.6,-8.77 -5.6,-16.27 v -78.2 c 0,-16.4 9.97,-35.47 22.29,-42.58 l 218.66,-125.19 c 3.95,-2.29 7.61,-2.91 10.83,-2.36 -4.08,-3.85 -10.01,-4.43 -16.69,-0.57 l -218.67,125.2 c -12.31,7.1 -22.29,26.16 -22.29,42.56 v 78.21 c 0,11.14 4.66,18.04 11.47,19.2"
         style="fill:#ffffff;fill-opacity:1;fill-rule:nonzero;stroke:none"
         id="path1981"
         inkscape:connector-curvature="0" /><path
         d="m 1415.21,1225.68 -20.06,11.58 c -2.69,1.56 -4.85,5.71 -4.85,9.28 v 21.43 c 0,3.58 2.16,5.22 4.85,3.67 l 20.06,-11.57 c 2.68,-1.56 4.85,-5.71 4.85,-9.29 v -21.43 c 0,-3.57 -2.17,-5.21 -4.85,-3.67"
         style="fill:#4067b1;fill-opacity:1;fill-rule:nonzero;stroke:none"
         id="path1983"
         inkscape:connector-curvature="0" /><path
         d="m 1348.14,1264.41 -20.06,11.58 c -2.69,1.55 -4.85,5.71 -4.85,9.28 v 21.43 c 0,3.57 2.16,5.21 4.85,3.67 l 20.06,-11.58 c 2.68,-1.56 4.85,-5.71 4.85,-9.28 v -21.43 c 0,-3.58 -2.17,-5.22 -4.85,-3.67"
         style="fill:#ffffff;fill-opacity:1;fill-rule:nonzero;stroke:none"
         id="path1985"
         inkscape:connector-curvature="0" /><path
         d="m 1480.98,1705.82 -218.67,125.19 c -12.31,7.11 -22.28,26.17 -22.28,42.58 v 78.19 c 0,16.41 9.97,23.95 22.28,16.85 l 218.67,-125.2 c 12.3,-7.1 22.28,-26.17 22.28,-42.57 v -78.2 c 0,-16.41 -9.98,-23.95 -22.28,-16.84"
         style="fill:#263c7a;fill-opacity:1;fill-rule:nonzero;stroke:none"
         id="path1987"
         inkscape:connector-curvature="0" /><path
         d="m 1251.49,1970.98 c -3.44,-3.24 -5.6,-8.77 -5.6,-16.27 v -78.19 c 0,-16.41 9.97,-35.47 22.29,-42.57 l 218.66,-125.2 c 3.95,-2.29 7.61,-2.9 10.83,-2.36 -4.08,-3.85 -10.01,-4.43 -16.69,-0.57 l -218.67,125.19 c -12.31,7.11 -22.29,26.18 -22.29,42.58 v 78.19 c 0,11.15 4.66,18.05 11.47,19.2"
         style="fill:#ffffff;fill-opacity:1;fill-rule:nonzero;stroke:none"
         id="path1989"
         inkscape:connector-curvature="0" /><path
         d="m 1415.21,1790.76 -20.06,11.58 c -2.69,1.55 -4.85,5.7 -4.85,9.29 v 21.42 c 0,3.58 2.16,5.22 4.85,3.68 l 20.06,-11.59 c 2.68,-1.55 4.85,-5.7 4.85,-9.28 v -21.43 c 0,-3.57 -2.17,-5.21 -4.85,-3.67"
         style="fill:#4067b1;fill-opacity:1;fill-rule:nonzero;stroke:none"
         id="path1991"
         inkscape:connector-curvature="0" /><path
         d="m 1348.14,1829.49 -20.06,11.58 c -2.69,1.54 -4.85,5.7 -4.85,9.28 v 21.42 c 0,3.58 2.16,5.22 4.85,3.68 l 20.06,-11.59 c 2.68,-1.55 4.85,-5.7 4.85,-9.27 v -21.43 c 0,-3.57 -2.17,-5.22 -4.85,-3.67"
         style="fill:#ffffff;fill-opacity:1;fill-rule:nonzero;stroke:none"
         id="path1993"
         inkscape:connector-curvature="0" /><path
         d="m 1670.37,2068.41 504.51,291.27 c 11.29,6.52 20.44,24 20.44,39.06 v 96.2 c 0,15.06 -9.15,21.97 -20.44,15.46 l -504.51,-291.27 c -11.28,-6.53 -20.44,-24.02 -20.44,-39.07 v -96.2 c 0,-15.05 9.16,-21.98 20.44,-15.45"
         style="fill:#5f92d3;fill-opacity:1;fill-rule:nonzero;stroke:none"
         id="path1995"
         inkscape:connector-curvature="0" /><path
         d="m 1680.74,2100.89 c -3.68,0 -6.25,3.4 -6.25,9.09 v 72.31 c 0,7.65 4.64,16.52 10.37,19.83 l 475.53,274.55 c 1.46,0.84 2.86,1.24 4.12,1.24 3.68,0 6.26,-3.4 6.26,-9.08 v -72.33 c 0,-7.64 -4.65,-16.51 -10.38,-19.82 l -475.53,-274.54 c -1.46,-0.85 -2.86,-1.25 -4.12,-1.25"
         style="fill:#90b9e6;fill-opacity:1;fill-rule:nonzero;stroke:none"
         id="path1997"
         inkscape:connector-curvature="0" /><path
         d="m 2061.29,2356.02 70.97,40.98 c 5.56,3.21 10.07,11.83 10.07,19.25 0,7.41 -4.51,10.83 -10.07,7.61 l -70.97,-40.97 c -5.56,-3.21 -10.08,-11.83 -10.08,-19.25 0,-7.41 4.52,-10.82 10.08,-7.62"
         style="fill:#d9effb;fill-opacity:1;fill-rule:nonzero;stroke:none"
         id="path1999"
         inkscape:connector-curvature="0" /><path
         d="m 2000.81,2334.54 c 0,-7.41 5.21,-10.42 11.64,-6.71 6.42,3.7 11.63,12.72 11.63,20.15 0,7.41 -5.21,10.42 -11.63,6.71 -6.43,-3.72 -11.64,-12.73 -11.64,-20.15"
         style="fill:#263c7a;fill-opacity:1;fill-rule:nonzero;stroke:none"
         id="path2001"
         inkscape:connector-curvature="0" /><path
         d="m 1959.78,2310.85 c 0,-7.41 5.2,-10.42 11.63,-6.71 6.43,3.71 11.63,12.72 11.63,20.14 0,7.42 -5.2,10.42 -11.63,6.71 -6.43,-3.7 -11.63,-12.72 -11.63,-20.14"
         style="fill:#263c7a;fill-opacity:1;fill-rule:nonzero;stroke:none"
         id="path2003"
         inkscape:connector-curvature="0" /><path
         d="m 1918.74,2287.17 c 0,-7.43 5.22,-10.43 11.63,-6.72 6.43,3.71 11.65,12.72 11.65,20.14 0,7.42 -5.22,10.42 -11.65,6.71 -6.41,-3.7 -11.63,-12.72 -11.63,-20.13"
         style="fill:#d9effb;fill-opacity:1;fill-rule:nonzero;stroke:none"
         id="path2005"
         inkscape:connector-curvature="0" /><path
         d="m 1877.72,2263.47 c 0,-7.42 5.2,-10.43 11.63,-6.71 6.42,3.71 11.63,12.72 11.63,20.14 0,7.41 -5.21,10.42 -11.63,6.72 -6.43,-3.71 -11.63,-12.73 -11.63,-20.15"
         style="fill:#263c7a;fill-opacity:1;fill-rule:nonzero;stroke:none"
         id="path2007"
         inkscape:connector-curvature="0" /><path
         d="m 1704.86,2142.41 23.9,13.8 c 3.58,2.06 6.47,7.59 6.47,12.35 v 25.29 c 0,4.76 -2.89,6.95 -6.47,4.89 l -23.9,-13.8 c -3.57,-2.06 -6.47,-7.59 -6.47,-12.35 v -25.3 c 0,-4.75 2.9,-6.94 6.47,-4.88"
         style="fill:#263c7a;fill-opacity:1;fill-rule:nonzero;stroke:none"
         id="path2009"
         inkscape:connector-curvature="0" /><path
         d="m 1670.37,1898.77 504.51,291.27 c 11.29,6.52 20.44,24.01 20.44,39.06 v 96.2 c 0,15.06 -9.15,21.97 -20.44,15.46 l -504.51,-291.27 c -11.28,-6.52 -20.44,-24.01 -20.44,-39.07 v -96.19 c 0,-15.06 9.16,-21.99 20.44,-15.46"
         style="fill:#5f92d3;fill-opacity:1;fill-rule:nonzero;stroke:none"
         id="path2011"
         inkscape:connector-curvature="0" /><path
         d="m 1680.74,1931.25 c -3.68,0 -6.25,3.4 -6.25,9.09 v 72.32 c 0,7.64 4.64,16.51 10.37,19.82 l 475.53,274.55 c 1.46,0.84 2.86,1.24 4.12,1.24 3.68,0 6.26,-3.4 6.26,-9.08 v -72.33 c 0,-7.63 -4.65,-16.51 -10.38,-19.81 L 1684.86,1932.5 c -1.46,-0.85 -2.86,-1.25 -4.12,-1.25"
         style="fill:#90b9e6;fill-opacity:1;fill-rule:nonzero;stroke:none"
         id="path2013"
         inkscape:connector-curvature="0" /><path
         d="m 2061.29,2186.39 70.97,40.97 c 5.56,3.21 10.07,11.83 10.07,19.25 0,7.42 -4.51,10.83 -10.07,7.62 l -70.97,-40.98 c -5.56,-3.21 -10.08,-11.83 -10.08,-19.25 0,-7.41 4.52,-10.82 10.08,-7.61"
         style="fill:#d9effb;fill-opacity:1;fill-rule:nonzero;stroke:none"
         id="path2015"
         inkscape:connector-curvature="0" /><path
         d="m 2000.81,2164.9 c 0,-7.41 5.21,-10.42 11.64,-6.71 6.42,3.71 11.63,12.73 11.63,20.15 0,7.41 -5.21,10.42 -11.63,6.71 -6.43,-3.7 -11.64,-12.73 -11.64,-20.15"
         style="fill:#ffffff;fill-opacity:1;fill-rule:nonzero;stroke:none"
         id="path2017"
         inkscape:connector-curvature="0" /><path
         d="m 1959.78,2141.22 c 0,-7.42 5.2,-10.43 11.63,-6.72 6.43,3.71 11.63,12.72 11.63,20.15 0,7.41 -5.2,10.42 -11.63,6.71 -6.43,-3.71 -11.63,-12.73 -11.63,-20.14"
         style="fill:#263c7a;fill-opacity:1;fill-rule:nonzero;stroke:none"
         id="path2019"
         inkscape:connector-curvature="0" /><path
         d="m 1918.74,2117.53 c 0,-7.43 5.22,-10.43 11.63,-6.72 6.43,3.71 11.65,12.72 11.65,20.14 0,7.43 -5.22,10.42 -11.65,6.72 -6.41,-3.71 -11.63,-12.73 -11.63,-20.14"
         style="fill:#d9effb;fill-opacity:1;fill-rule:nonzero;stroke:none"
         id="path2021"
         inkscape:connector-curvature="0" /><path
         d="m 1877.72,2093.84 c 0,-7.43 5.2,-10.43 11.63,-6.72 6.42,3.71 11.63,12.73 11.63,20.14 0,7.43 -5.21,10.42 -11.63,6.72 -6.43,-3.71 -11.63,-12.73 -11.63,-20.14"
         style="fill:#263c7a;fill-opacity:1;fill-rule:nonzero;stroke:none"
         id="path2023"
         inkscape:connector-curvature="0" /><path
         d="m 1704.86,1972.77 23.9,13.8 c 3.58,2.06 6.47,7.6 6.47,12.35 v 25.3 c 0,4.75 -2.89,6.94 -6.47,4.88 l -23.9,-13.8 c -3.57,-2.06 -6.47,-7.59 -6.47,-12.35 v -25.3 c 0,-4.75 2.9,-6.94 6.47,-4.88"
         style="fill:#263c7a;fill-opacity:1;fill-rule:nonzero;stroke:none"
         id="path2025"
         inkscape:connector-curvature="0" /><path
         d="m 1670.37,1729.13 504.51,291.27 c 11.29,6.52 20.44,24.01 20.44,39.07 v 96.19 c 0,15.06 -9.15,21.98 -20.44,15.46 l -504.51,-291.27 c -11.28,-6.52 -20.44,-24.01 -20.44,-39.06 v -96.2 c 0,-15.06 9.16,-21.98 20.44,-15.46"
         style="fill:#5f92d3;fill-opacity:1;fill-rule:nonzero;stroke:none"
         id="path2027"
         inkscape:connector-curvature="0" /><path
         d="m 1680.74,1761.61 c -3.68,0 -6.25,3.4 -6.25,9.09 v 72.33 c 0,7.63 4.64,16.51 10.37,19.81 l 475.53,274.55 c 1.47,0.85 2.86,1.25 4.12,1.25 3.68,0 6.26,-3.41 6.26,-9.09 v -72.33 c 0,-7.63 -4.65,-16.51 -10.38,-19.81 l -475.53,-274.55 c -1.46,-0.85 -2.86,-1.25 -4.12,-1.25"
         style="fill:#90b9e6;fill-opacity:1;fill-rule:nonzero;stroke:none"
         id="path2029"
         inkscape:connector-curvature="0" /><path
         d="m 2061.29,2016.76 70.97,40.96 c 5.56,3.22 10.07,11.84 10.07,19.25 0,7.42 -4.51,10.83 -10.07,7.62 l -70.97,-40.98 c -5.56,-3.21 -10.08,-11.83 -10.08,-19.24 0,-7.42 4.52,-10.83 10.08,-7.61"
         style="fill:#d9effb;fill-opacity:1;fill-rule:nonzero;stroke:none"
         id="path2031"
         inkscape:connector-curvature="0" /><path
         d="m 2000.81,1995.27 c 0,-7.42 5.21,-10.43 11.64,-6.72 6.42,3.71 11.63,12.73 11.63,20.15 0,7.42 -5.21,10.42 -11.63,6.72 -6.43,-3.71 -11.64,-12.74 -11.64,-20.15"
         style="fill:#ffffff;fill-opacity:1;fill-rule:nonzero;stroke:none"
         id="path2033"
         inkscape:connector-curvature="0" /><path
         d="m 1959.78,1971.58 c 0,-7.42 5.2,-10.43 11.63,-6.72 6.43,3.71 11.63,12.74 11.63,20.15 0,7.42 -5.2,10.42 -11.63,6.72 -6.43,-3.71 -11.63,-12.74 -11.63,-20.15"
         style="fill:#263c7a;fill-opacity:1;fill-rule:nonzero;stroke:none"
         id="path2035"
         inkscape:connector-curvature="0" /><path
         d="m 1918.74,1947.89 c 0,-7.42 5.22,-10.43 11.63,-6.72 6.43,3.71 11.65,12.73 11.65,20.15 0,7.42 -5.22,10.43 -11.65,6.71 -6.41,-3.71 -11.63,-12.73 -11.63,-20.14"
         style="fill:#d9effb;fill-opacity:1;fill-rule:nonzero;stroke:none"
         id="path2037"
         inkscape:connector-curvature="0" /><path
         d="m 1877.72,1924.2 c 0,-7.43 5.2,-10.42 11.63,-6.72 6.42,3.71 11.63,12.73 11.63,20.14 0,7.43 -5.21,10.43 -11.63,6.72 -6.43,-3.71 -11.63,-12.73 -11.63,-20.14"
         style="fill:#263c7a;fill-opacity:1;fill-rule:nonzero;stroke:none"
         id="path2039"
         inkscape:connector-curvature="0" /><path
         d="m 1704.86,1803.13 23.9,13.8 c 3.58,2.06 6.47,7.6 6.47,12.35 v 25.3 c 0,4.75 -2.89,6.95 -6.47,4.88 l -23.9,-13.8 c -3.57,-2.06 -6.47,-7.59 -6.47,-12.35 v -25.29 c 0,-4.76 2.9,-6.95 6.47,-4.89"
         style="fill:#263c7a;fill-opacity:1;fill-rule:nonzero;stroke:none"
         id="path2041"
         inkscape:connector-curvature="0" /><path
         d="m 1670.37,1559.49 504.51,291.27 c 11.29,6.52 20.44,24.01 20.44,39.07 v 96.19 c 0,15.06 -9.15,21.99 -20.44,15.46 l -504.51,-291.27 c -11.28,-6.52 -20.44,-24.01 -20.44,-39.06 v -96.2 c 0,-15.06 9.16,-21.97 20.44,-15.46"
         style="fill:#5f92d3;fill-opacity:1;fill-rule:nonzero;stroke:none"
         id="path2043"
         inkscape:connector-curvature="0" /><path
         d="m 1680.74,1591.98 c -3.68,0 -6.25,3.39 -6.25,9.08 v 72.33 c 0,7.63 4.64,16.51 10.37,19.82 l 475.53,274.54 c 1.47,0.85 2.86,1.25 4.12,1.25 3.68,0 6.26,-3.4 6.26,-9.09 v -72.32 c 0,-7.64 -4.65,-16.51 -10.38,-19.82 l -475.53,-274.55 c -1.46,-0.84 -2.85,-1.24 -4.12,-1.24"
         style="fill:#90b9e6;fill-opacity:1;fill-rule:nonzero;stroke:none"
         id="path2045"
         inkscape:connector-curvature="0" /><path
         d="m 2061.29,1847.12 70.97,40.97 c 5.56,3.21 10.07,11.83 10.07,19.24 0,7.42 -4.51,10.83 -10.07,7.62 l -70.97,-40.98 c -5.56,-3.2 -10.08,-11.82 -10.08,-19.24 0,-7.42 4.52,-10.83 10.08,-7.61"
         style="fill:#d9effb;fill-opacity:1;fill-rule:nonzero;stroke:none"
         id="path2047"
         inkscape:connector-curvature="0" /><path
         d="m 2000.81,1825.63 c 0,-7.42 5.21,-10.43 11.64,-6.72 6.42,3.71 11.63,12.74 11.63,20.15 0,7.42 -5.21,10.43 -11.63,6.72 -6.43,-3.71 -11.64,-12.74 -11.64,-20.15"
         style="fill:#263c7a;fill-opacity:1;fill-rule:nonzero;stroke:none"
         id="path2049"
         inkscape:connector-curvature="0" /><path
         d="m 1959.78,1801.94 c 0,-7.42 5.2,-10.42 11.63,-6.72 6.43,3.71 11.63,12.74 11.63,20.15 0,7.42 -5.2,10.43 -11.63,6.72 -6.43,-3.71 -11.63,-12.74 -11.63,-20.15"
         style="fill:#263c7a;fill-opacity:1;fill-rule:nonzero;stroke:none"
         id="path2051"
         inkscape:connector-curvature="0" /><path
         d="m 1918.74,1778.25 c 0,-7.42 5.22,-10.42 11.63,-6.72 6.43,3.71 11.65,12.74 11.65,20.15 0,7.42 -5.22,10.43 -11.65,6.72 -6.41,-3.71 -11.63,-12.73 -11.63,-20.15"
         style="fill:#d9effb;fill-opacity:1;fill-rule:nonzero;stroke:none"
         id="path2053"
         inkscape:connector-curvature="0" /><path
         d="m 1877.72,1754.56 c 0,-7.41 5.2,-10.42 11.63,-6.72 6.42,3.71 11.63,12.73 11.63,20.15 0,7.42 -5.21,10.43 -11.63,6.71 -6.43,-3.71 -11.63,-12.72 -11.63,-20.14"
         style="fill:#263c7a;fill-opacity:1;fill-rule:nonzero;stroke:none"
         id="path2055"
         inkscape:connector-curvature="0" /><path
         d="m 1704.86,1633.49 23.9,13.81 c 3.58,2.06 6.47,7.59 6.47,12.35 v 25.29 c 0,4.76 -2.89,6.95 -6.47,4.89 l -23.9,-13.81 c -3.57,-2.06 -6.47,-7.58 -6.47,-12.34 v -25.29 c 0,-4.77 2.9,-6.96 6.47,-4.9"
         style="fill:#d9effb;fill-opacity:1;fill-rule:nonzero;stroke:none"
         id="path2057"
         inkscape:connector-curvature="0" /><path
         d="m 1670.37,1389.86 504.51,291.27 c 11.29,6.51 20.44,24.01 20.44,39.06 v 96.2 c 0,15.05 -9.15,21.98 -20.44,15.45 l -504.51,-291.27 c -11.28,-6.51 -20.44,-24 -20.44,-39.06 v -96.2 c 0,-15.05 9.16,-21.97 20.44,-15.45"
         style="fill:#5f92d3;fill-opacity:1;fill-rule:nonzero;stroke:none"
         id="path2059"
         inkscape:connector-curvature="0" /><path
         d="m 1680.75,1422.34 c -3.69,0 -6.26,3.4 -6.26,9.09 v 72.32 c 0,7.63 4.64,16.51 10.37,19.82 l 475.53,274.54 c 1.47,0.85 2.86,1.25 4.12,1.25 3.68,0 6.26,-3.4 6.26,-9.09 v -72.31 c 0,-7.65 -4.65,-16.52 -10.38,-19.83 l -475.53,-274.55 c -1.46,-0.84 -2.85,-1.24 -4.11,-1.24"
         style="fill:#90b9e6;fill-opacity:1;fill-rule:nonzero;stroke:none"
         id="path2061"
         inkscape:connector-curvature="0" /><path
         d="m 2061.29,1677.48 70.97,40.97 c 5.56,3.22 10.07,11.83 10.07,19.25 0,7.41 -4.51,10.82 -10.07,7.61 l -70.97,-40.97 c -5.56,-3.21 -10.08,-11.83 -10.08,-19.24 0,-7.43 4.52,-10.83 10.08,-7.62"
         style="fill:#d9effb;fill-opacity:1;fill-rule:nonzero;stroke:none"
         id="path2063"
         inkscape:connector-curvature="0" /><path
         d="m 2000.81,1655.99 c 0,-7.42 5.21,-10.42 11.64,-6.72 6.42,3.72 11.63,12.74 11.63,20.15 0,7.42 -5.21,10.43 -11.63,6.72 -6.43,-3.71 -11.64,-12.72 -11.64,-20.15"
         style="fill:#263c7a;fill-opacity:1;fill-rule:nonzero;stroke:none"
         id="path2065"
         inkscape:connector-curvature="0" /><path
         d="m 1959.78,1632.3 c 0,-7.41 5.2,-10.42 11.63,-6.72 6.43,3.71 11.63,12.74 11.63,20.15 0,7.42 -5.2,10.43 -11.63,6.72 -6.43,-3.71 -11.63,-12.73 -11.63,-20.15"
         style="fill:#ffffff;fill-opacity:1;fill-rule:nonzero;stroke:none"
         id="path2067"
         inkscape:connector-curvature="0" /><path
         d="m 1918.74,1608.61 c 0,-7.41 5.22,-10.42 11.63,-6.71 6.43,3.7 11.65,12.73 11.65,20.14 0,7.42 -5.22,10.43 -11.65,6.72 -6.41,-3.71 -11.63,-12.73 -11.63,-20.15"
         style="fill:#d9effb;fill-opacity:1;fill-rule:nonzero;stroke:none"
         id="path2069"
         inkscape:connector-curvature="0" /><path
         d="m 1877.72,1584.92 c 0,-7.41 5.2,-10.42 11.63,-6.71 6.42,3.7 11.63,12.73 11.63,20.15 0,7.41 -5.21,10.42 -11.63,6.71 -6.43,-3.72 -11.63,-12.73 -11.63,-20.15"
         style="fill:#ffffff;fill-opacity:1;fill-rule:nonzero;stroke:none"
         id="path2071"
         inkscape:connector-curvature="0" /><path
         d="m 1704.86,1463.86 23.9,13.8 c 3.58,2.06 6.47,7.59 6.47,12.36 v 25.28 c 0,4.77 -2.89,6.95 -6.47,4.89 l -23.9,-13.8 c -3.57,-2.07 -6.47,-7.59 -6.47,-12.35 v -25.29 c 0,-4.77 2.9,-6.96 6.47,-4.89"
         style="fill:#d9effb;fill-opacity:1;fill-rule:nonzero;stroke:none"
         id="path2073"
         inkscape:connector-curvature="0" /><path
         d="m 1670.37,1220.22 504.51,291.27 c 11.29,6.52 20.44,24.01 20.44,39.06 v 96.21 c 0,15.04 -9.15,21.97 -20.44,15.45 l -504.51,-291.28 c -11.28,-6.51 -20.44,-24 -20.44,-39.06 v -96.2 c 0,-15.05 9.16,-21.97 20.44,-15.45"
         style="fill:#5f92d3;fill-opacity:1;fill-rule:nonzero;stroke:none"
         id="path2075"
         inkscape:connector-curvature="0" /><path
         d="m 1680.74,1252.71 c -3.68,0 -6.25,3.39 -6.25,9.09 v 72.31 c 0,7.64 4.64,16.51 10.37,19.82 l 475.53,274.54 c 1.47,0.85 2.86,1.25 4.12,1.25 3.68,0 6.26,-3.4 6.26,-9.09 v -72.31 c 0,-7.64 -4.65,-16.52 -10.38,-19.83 l -475.53,-274.54 c -1.47,-0.84 -2.86,-1.24 -4.12,-1.24"
         style="fill:#90b9e6;fill-opacity:1;fill-rule:nonzero;stroke:none"
         id="path2077"
         inkscape:connector-curvature="0" /><path
         d="m 2061.29,1507.84 70.97,40.98 c 5.56,3.21 10.07,11.82 10.07,19.24 0,7.42 -4.51,10.82 -10.07,7.61 l -70.97,-40.97 c -5.56,-3.21 -10.08,-11.82 -10.08,-19.24 0,-7.43 4.52,-10.83 10.08,-7.62"
         style="fill:#d9effb;fill-opacity:1;fill-rule:nonzero;stroke:none"
         id="path2079"
         inkscape:connector-curvature="0" /><path
         d="m 2000.81,1486.35 c 0,-7.41 5.21,-10.41 11.64,-6.7 6.42,3.7 11.63,12.72 11.63,20.13 0,7.42 -5.21,10.43 -11.63,6.72 -6.43,-3.71 -11.64,-12.72 -11.64,-20.15"
         style="fill:#263c7a;fill-opacity:1;fill-rule:nonzero;stroke:none"
         id="path2081"
         inkscape:connector-curvature="0" /><path
         d="m 1959.78,1462.66 c 0,-7.41 5.2,-10.42 11.63,-6.71 6.43,3.71 11.63,12.73 11.63,20.15 0,7.41 -5.2,10.42 -11.63,6.71 -6.43,-3.71 -11.63,-12.72 -11.63,-20.15"
         style="fill:#263c7a;fill-opacity:1;fill-rule:nonzero;stroke:none"
         id="path2083"
         inkscape:connector-curvature="0" /><path
         d="m 1918.74,1438.97 c 0,-7.41 5.22,-10.42 11.63,-6.71 6.43,3.71 11.65,12.73 11.65,20.15 0,7.41 -5.22,10.42 -11.65,6.71 -6.41,-3.7 -11.63,-12.73 -11.63,-20.15"
         style="fill:#d9effb;fill-opacity:1;fill-rule:nonzero;stroke:none"
         id="path2085"
         inkscape:connector-curvature="0" /><path
         d="m 1877.72,1415.28 c 0,-7.41 5.2,-10.42 11.63,-6.71 6.42,3.71 11.63,12.73 11.63,20.15 0,7.41 -5.21,10.42 -11.63,6.71 -6.43,-3.7 -11.63,-12.73 -11.63,-20.15"
         style="fill:#263c7a;fill-opacity:1;fill-rule:nonzero;stroke:none"
         id="path2087"
         inkscape:connector-curvature="0" /><path
         d="m 1704.86,1294.23 23.9,13.79 c 3.58,2.07 6.47,7.59 6.47,12.36 v 25.29 c 0,4.76 -2.89,6.94 -6.47,4.88 l -23.9,-13.79 c -3.57,-2.07 -6.47,-7.6 -6.47,-12.36 v -25.29 c 0,-4.76 2.9,-6.94 6.47,-4.88"
         style="fill:#263c7a;fill-opacity:1;fill-rule:nonzero;stroke:none"
         id="path2089"
         inkscape:connector-curvature="0" /><path
         d="m 1670.37,1050.58 504.51,291.27 c 11.29,6.53 20.44,24.01 20.44,39.07 v 96.2 c 0,15.06 -9.15,21.97 -20.44,15.46 l -504.51,-291.27 c -11.28,-6.53 -20.44,-24.02 -20.44,-39.08 v -96.19 c 0,-15.06 9.16,-21.98 20.44,-15.46"
         style="fill:#5f92d3;fill-opacity:1;fill-rule:nonzero;stroke:none"
         id="path2091"
         inkscape:connector-curvature="0" /><path
         d="m 1680.74,1083.07 c -3.68,0 -6.25,3.4 -6.25,9.09 v 72.31 c 0,7.65 4.64,16.51 10.37,19.82 l 475.53,274.56 c 1.46,0.84 2.85,1.24 4.12,1.24 3.68,0 6.26,-3.4 6.26,-9.09 v -72.32 c 0,-7.64 -4.65,-16.51 -10.38,-19.82 l -475.53,-274.55 c -1.46,-0.84 -2.86,-1.24 -4.12,-1.24"
         style="fill:#90b9e6;fill-opacity:1;fill-rule:nonzero;stroke:none"
         id="path2093"
         inkscape:connector-curvature="0" /><path
         d="m 2061.29,1338.2 70.97,40.98 c 5.56,3.21 10.07,11.82 10.07,19.25 0,7.41 -4.51,10.83 -10.07,7.61 l -70.97,-40.97 c -5.56,-3.22 -10.08,-11.83 -10.08,-19.25 0,-7.41 4.52,-10.82 10.08,-7.62"
         style="fill:#d9effb;fill-opacity:1;fill-rule:nonzero;stroke:none"
         id="path2095"
         inkscape:connector-curvature="0" /><path
         d="m 1987.85,1307.54 c 0,-14.02 9.83,-19.69 21.97,-12.69 12.13,7.01 21.97,24.04 21.97,38.06 0,14.01 -9.84,19.69 -21.97,12.68 -12.14,-7.01 -21.97,-24.04 -21.97,-38.05"
         style="fill:#ffffff;fill-opacity:1;fill-rule:nonzero;stroke:none"
         id="path2097"
         inkscape:connector-curvature="0" /><path
         d="m 1902.86,1257.81 c 0,-7.42 5.2,-10.43 11.63,-6.72 6.42,3.71 11.63,12.73 11.63,20.15 0,7.41 -5.21,10.42 -11.63,6.72 -6.43,-3.71 -11.63,-12.74 -11.63,-20.15"
         style="fill:#263c7a;fill-opacity:1;fill-rule:nonzero;stroke:none"
         id="path2099"
         inkscape:connector-curvature="0" /><path
         d="m 1861.82,1234.12 c 0,-7.42 5.21,-10.43 11.63,-6.72 6.43,3.71 11.63,12.72 11.63,20.15 0,7.42 -5.2,10.42 -11.63,6.72 -6.42,-3.72 -11.63,-12.74 -11.63,-20.15"
         style="fill:#d9effb;fill-opacity:1;fill-rule:nonzero;stroke:none"
         id="path2101"
         inkscape:connector-curvature="0" /><path
         d="m 1820.78,1210.43 c 0,-7.42 5.22,-10.43 11.64,-6.72 6.42,3.71 11.64,12.73 11.64,20.14 0,7.43 -5.22,10.42 -11.64,6.72 -6.42,-3.71 -11.64,-12.73 -11.64,-20.14"
         style="fill:#263c7a;fill-opacity:1;fill-rule:nonzero;stroke:none"
         id="path2103"
         inkscape:connector-curvature="0" /><path
         d="m 1704.86,1124.59 23.9,13.8 c 3.58,2.06 6.47,7.58 6.47,12.35 v 25.29 c 0,4.76 -2.89,6.95 -6.47,4.89 l -23.9,-13.8 c -3.57,-2.06 -6.47,-7.59 -6.47,-12.36 v -25.29 c 0,-4.76 2.9,-6.94 6.47,-4.88"
         style="fill:#d9effb;fill-opacity:1;fill-rule:nonzero;stroke:none"
         id="path2105"
         inkscape:connector-curvature="0" /><path
         d="m 3662.39,2773.42 -179.39,103.57 179.39,103.56 179.38,-103.56 -179.38,-103.57"
         style="fill:#899abf;fill-opacity:1;fill-rule:nonzero;stroke:none"
         id="path2107"
         inkscape:connector-curvature="0" /><path
         d="m 3841.77,3008.48 -179.38,-103.57 v 207.13 l 179.38,103.57 v -207.13"
         style="fill:#263c7a;fill-opacity:1;fill-rule:nonzero;stroke:none"
         id="path2109"
         inkscape:connector-curvature="0" /><path
         d="M 3662.39,3112.04 3483,3215.61 3662.39,3319.18 3841.77,3215.6 3662.39,3112.04"
         style="fill:#d9effb;fill-opacity:1;fill-rule:nonzero;stroke:none"
         id="path2111"
         inkscape:connector-curvature="0" /><path
         d="M 3662.39,2904.91 3483,3008.48 v 207.13 l 179.39,-103.57 v -207.13"
         style="fill:#5f92d3;fill-opacity:1;fill-rule:nonzero;stroke:none"
         id="path2113"
         inkscape:connector-curvature="0" /><path
         d="m 3597.79,3016.81 -50.18,28.97 v 57.93 l 50.18,-28.97 v -57.93"
         style="fill:#ffffff;fill-opacity:1;fill-rule:nonzero;stroke:none"
         id="path2115"
         inkscape:connector-curvature="0" /></g></g></svg>